<?xml version="1.0" encoding="UTF-8" standalone="no"?><!DOCTYPE svg PUBLIC "-//W3C//DTD SVG 1.1//EN" "http://www.w3.org/Graphics/SVG/1.1/DTD/svg11.dtd"><svg width="100%" height="100%" viewBox="0 0 1008 1584" version="1.1" xmlns="http://www.w3.org/2000/svg" xmlns:xlink="http://www.w3.org/1999/xlink" xml:space="preserve" xmlns:serif="http://www.serif.com/" style="fill-rule:evenodd;clip-rule:evenodd;stroke-linejoin:round;stroke-miterlimit:2;"><path d="M336,1488l144,0l0,96l-48,0l0,-48l-96,0l0,-48Zm240,-1488l432,0l0,1584l-480,0l0,-96l48,0l0,-48l48,0l0,-48l48,0l0,-48l-96,0l0,-48l-96,0l0,-48l48,0l0,-48l-48,0l0,48l-48,0l-0,-192l48,0l0,48l48,0l0,-144l48,0l0,96l48,0l0,-96l-48,0l0,-48l-48,0l0,-48l-48,0l0,-48l96,0l0,-48l48,0l0,-96l-48,0l-0,-48l-48,0l0,-48l-48,0l0,-48l48,0l0,-48l48,0l0,-48l48,0l0,48l48,0l0,-48l-48,0l0,-48l-48,0l0,-48l96,0l0,-144l-48,0l0,96l-96,0l0,-48l48,0l0,-96l48,0l0,-48l48,0l0,-48l-96,0l0,-48Zm0,1344l0,48l-48,0l0,48l-96,0l0,-48l48,0l0,-48l96,0Zm-96,0l-96,0l0,-48l96,0l0,48Zm48,-384l-48,0l0,-48l48,0l0,48Zm-48,-144l-48,0l0,-48l48,0l0,48Zm-48,-48l-96,0l0,-48l96,0l0,48Zm0,-48l0,-96l96,0l0,48l-48,0l0,48l-48,0Zm48,-192l-48,0l0,-48l48,0l0,48Zm0,-48l0,-96l-48,0l0,-48l96,0l0,48l48,0l0,48l-48,0l0,48l-48,0Zm96,-336l-48,0l0,-96l48,0l0,96Zm384,48l0,-48l-48,0l0,48l48,0Zm-192,1008l0,-48l-48,0l0,48l48,0Zm-0,-912l0,-48l-48,0l0,48l48,0Zm-96,336l0,-48l-48,0l0,48l48,0Zm-48,576l0,-48l-48,0l0,48l48,0Zm-48,-528l0,96l-96,0l0,-48l48,0l0,-48l48,0Zm-240,48l-48,0l0,-48l48,0l0,48Zm96,-384l-48,0l0,48l-48,0l0,-96l96,0l0,48Zm-48,960l-48,0l0,-48l48,0l0,48Zm144,-1056l-96,0l0,-48l-48,0l-0,-96l48,0l0,48l48,0l0,48l48,0l0,48Zm-144,336l0,48l-48,0l0,-48l48,0Zm48,480l-48,0l0,-48l48,0l0,48Zm-96,-672l0,48l-48,0l0,-48l48,0Zm96,144l0,48l-48,0l0,-48l48,0Zm-144,-96l0,96l-48,0l0,-96l48,0Zm-288,672l0,-48l48,0l0,48l-48,0Zm192,-816l0,-48l48,0l0,48l-48,0Zm144,864l-0,-48l48,0l0,48l-48,0Z"/></svg>