<svg xmlns="http://www.w3.org/2000/svg" width="1584" height="1008" shape-rendering="crispEdges"><path d="M480 0h48v48h-48zm816 192h48v48h-48zm-240 48h96v48h-96zm-192 48h48v48h-48zm288 0h48v48h-48zM48 336h48v48H48zm240 0h48v48h-48zm144 0h48v48h-48zm384 0h48v48h-48zm144 0h48v48h-48zm240 0h96v48h-96zM48 384h48v48H48zm192 0h48v48h-48zm288 0h48v48h-48zm288 0h48v48h-48zm192 0h48v48h-48zm240 0h48v48h-48zm144 0h96v48h-96zM0 432h96v48H0zm144 0h48v48h-48zm96 0h48v48h-48zm96 0h192v48H336zm432 0h48v48h-48zm96 0h96v48h-96zm192 0h48v48h-48zm144 0h48v48h-48zm144 0h96v48h-96zM144 480h96v48h-96zm144 0h48v48h-48zm96 0h96v48h-96zm240 0h48v48h-48zm96 0h48v48h-48zm96 0h48v48h-48zm96 0h48v48h-48zm96 0h48v48h-48zm96 0h144v48h-144zm240 0h48v48h-48zM0 528h96v48H0zm192 0h48v48h-48zm96 0h336v48H288zm384 0h96v48h-96zm144 0h96v48h-96zm144 0h144v48H960zm192 0h48v48h-48zm144 0h48v48h-48zm144 0h96v48h-96zM0 576h144v48H0zm240 0h144v48H240zm192 0h96v48h-96zm192 0h192v48H624zm288 0h240v48H912zm288 0h48v48h-48zm96 0h144v48h-144zm240 0h48v48h-48zM0 624h192v48H0zm240 0h720v48H240zm768 0h96v48h-96zm144 0h96v48h-96zm240 0h96v48h-96zm144 0h48v48h-48zM0 672h1584v48H0zm0 48h384v48H0zm432 0h864v48H432zm912 0h240v48h-240zM0 768h1584v48H0zm0 48h1584v48H0zm0 48h1584v48H0zm0 48h1392v48H0zm1440 0h144v48h-144zM0 960h1584v48H0z"/></svg>