<?xml version="1.0" encoding="UTF-8" standalone="no"?><!DOCTYPE svg PUBLIC "-//W3C//DTD SVG 1.1//EN" "http://www.w3.org/Graphics/SVG/1.1/DTD/svg11.dtd"><svg width="100%" height="100%" viewBox="0 0 1008 1584" version="1.1" xmlns="http://www.w3.org/2000/svg" xmlns:xlink="http://www.w3.org/1999/xlink" xml:space="preserve" xmlns:serif="http://www.serif.com/" style="fill-rule:evenodd;clip-rule:evenodd;stroke-linejoin:round;stroke-miterlimit:2;"><path d="M672,96l-144,0l0,-96l48,-0l0,48l96,-0l0,48Zm-240,1488l-432,0l-0,-1584l480,0l0,96l-48,0l0,48l-48,0l0,48l-48,0l0,48l96,0l0,48l96,0l0,48l-48,0l0,48l48,0l0,-48l48,-0l0,192l-48,0l0,-48l-48,0l0,144l-48,0l0,-96l-48,0l0,96l48,0l0,48l48,0l0,48l48,0l0,48l-96,0l0,48l-48,0l0,96l48,0l0,48l48,0l0,48l48,0l0,48l-48,0l0,48l-48,0l0,48l-48,0l0,-48l-48,0l0,48l48,0l0,48l48,0l0,48l-96,0l0,144l48,0l0,-96l96,0l0,48l-48,0l0,96l-48,0l0,48l-48,0l0,48l96,0l0,48Zm-0,-1344l0,-48l48,0l0,-48l96,0l0,48l-48,0l0,48l-96,0Zm96,0l96,0l0,48l-96,0l0,-48Zm-48,384l48,0l0,48l-48,0l0,-48Zm48,144l48,0l0,48l-48,0l0,-48Zm48,48l96,0l0,48l-96,0l0,-48Zm0,48l0,96l-96,0l-0,-48l48,0l0,-48l48,0Zm-48,192l48,0l0,48l-48,0l0,-48Zm0,48l0,96l48,0l0,48l-96,0l0,-48l-48,0l0,-48l48,0l0,-48l48,0Zm-96,336l48,0l0,96l-48,0l0,-96Zm-384,-48l0,48l48,0l0,-48l-48,0Zm192,-1008l0,48l48,0l0,-48l-48,0Zm0,912l0,48l48,0l0,-48l-48,0Zm96,-336l0,48l48,0l0,-48l-48,0Zm48,-576l0,48l48,0l0,-48l-48,0Zm48,528l0,-96l96,0l0,48l-48,0l0,48l-48,0Zm240,-48l48,0l0,48l-48,0l0,-48Zm-96,384l48,0l0,-48l48,0l0,96l-96,0l0,-48Zm48,-960l48,0l0,48l-48,0l0,-48Zm-144,1056l96,0l0,48l48,0l0,96l-48,0l-0,-48l-48,0l-0,-48l-48,0l0,-48Zm144,-336l0,-48l48,0l0,48l-48,0Zm-48,-480l48,0l0,48l-48,0l0,-48Zm96,672l0,-48l48,0l0,48l-48,0Zm-96,-144l0,-48l48,0l0,48l-48,0Zm144,96l0,-96l48,0l0,96l-48,0Zm288,-672l0,48l-48,0l0,-48l48,0Zm-192,816l0,48l-48,0l0,-48l48,0Zm-144,-864l0,48l-48,0l0,-48l48,0Z"/></svg>