<?xml version="1.0" encoding="UTF-8"?>
<svg width="1200pt" height="1200pt" version="1.1" viewBox="0 0 1200 1200" xmlns="http://www.w3.org/2000/svg">
 <path d="m680.66 710.26c1.8359 8.8086 1.7148 18.086-0.89844 26.941-2.1953 8.3281-6.6953 16.152-12.805 22.609-20.762 20.988-54.695 21.539-75.887 1.0664l-115.73-113.43-20.305 24.898 115.78 113.39c28.703 27.91 91.105 26.148 119.33-2.5078 9.7695-9.9492 23.566-32.652 26.473-45.758l258.77 0.22656c29.855 0 59.438 27.84 59.438 57.602 0 30.023-19.621 66.758-60.684 66.758h-425.66c-19.199-0.57422-43.211-10.402-59.988-24.625l-242.58-185.04-247.04 0.55078 0.097656-208.44h382.31s28.199 0.64844 47.629 11.891c17.879 10.512 33.863 25.754 33.863 25.754l202.92 202.14c7.3633 7.0469 12.5 15.938 14.973 25.973z"/>
 <path d="m356.94 351.56c0 25-20.266 45.266-45.266 45.266s-45.266-20.266-45.266-45.266c0-24.996 20.266-45.262 45.266-45.262s45.266 20.266 45.266 45.262z"/>
 <path d="m486.28 383.9c0 25-20.266 45.266-45.266 45.266s-45.266-20.266-45.266-45.266c0-24.996 20.266-45.262 45.266-45.262s45.266 20.266 45.266 45.262z"/>
 <path d="m478.22 253.77c0 24.996-20.266 45.262-45.262 45.262-25 0-45.266-20.266-45.266-45.262 0-25 20.266-45.266 45.266-45.266 24.996 0 45.262 20.266 45.262 45.266z"/>
 <path d="m592.97 303.88c0 25-20.266 45.266-45.266 45.266-24.996 0-45.262-20.266-45.262-45.266 0-24.996 20.266-45.262 45.262-45.262 25 0 45.266 20.266 45.266 45.262z"/>
 <path d="m626.11 417.06c0 25-20.266 45.266-45.266 45.266s-45.262-20.266-45.262-45.266c0-24.996 20.262-45.262 45.262-45.262s45.266 20.266 45.266 45.262z"/>
 <path d="m660.06 532.64c0 25-20.266 45.262-45.262 45.262-25 0-45.266-20.262-45.266-45.262s20.266-45.266 45.266-45.266c24.996 0 45.262 20.266 45.262 45.266z"/>
 <path d="m778.03 457.46c0 24.996-20.266 45.262-45.262 45.262-25 0-45.266-20.266-45.266-45.262 0-25 20.266-45.266 45.266-45.266 24.996 0 45.262 20.266 45.262 45.266z"/>
 <path d="m786.93 577.88c0 25-20.266 45.266-45.266 45.266s-45.266-20.266-45.266-45.266c0-24.996 20.266-45.262 45.266-45.262s45.266 20.266 45.266 45.262z"/>
 <path d="m872.64 661.93c0 24.996-20.266 45.262-45.266 45.262-24.996 0-45.262-20.266-45.262-45.262 0-25 20.266-45.266 45.262-45.266 25 0 45.266 20.266 45.266 45.266z"/>
 <path d="m901.73 527.79c0 24.996-20.266 45.262-45.262 45.262-25 0-45.266-20.266-45.266-45.262 0-25 20.266-45.266 45.266-45.266 24.996 0 45.262 20.266 45.262 45.266z"/>
 <path d="m1000.3 644.95c0 24.996-20.266 45.262-45.266 45.262-24.996 0-45.262-20.266-45.262-45.262 0-25 20.266-45.266 45.262-45.266 25 0 45.266 20.266 45.266 45.266z"/>
 <path d="m1124.8 712.04c0 24.992-20.262 45.254-45.254 45.254s-45.25-20.262-45.25-45.254c0-24.992 20.258-45.25 45.25-45.25s45.254 20.258 45.254 45.25z"/>
 <path d="m1128.8 588.41c0 24.973-20.27 45.238-45.238 45.238-25.008 0-45.277-20.258-45.277-45.238 0-24.996 20.27-45.277 45.277-45.277 24.969 0.003906 45.238 20.281 45.238 45.277z"/>
 <path d="m1017.3 396.02c0 25-20.266 45.266-45.266 45.266s-45.262-20.266-45.262-45.266 20.262-45.262 45.262-45.262 45.266 20.262 45.266 45.262z"/>
 <path d="m814.43 173.75c0 25-20.266 45.266-45.266 45.266s-45.266-20.266-45.266-45.266c0-24.996 20.266-45.262 45.266-45.262s45.266 20.266 45.266 45.262z"/>
 <path d="m560.62 149.51c0 25-20.266 45.266-45.266 45.266s-45.262-20.266-45.262-45.266 20.262-45.266 45.262-45.266 45.266 20.266 45.266 45.266z"/>
 <path d="m689.98 91.309c0 25.004-20.27 45.277-45.277 45.277-25.004 0-45.273-20.273-45.273-45.277s20.27-45.277 45.273-45.277c25.008 0 45.277 20.273 45.277 45.277z"/>
 <path d="m1197.6 868.84c0 25.004-20.27 45.277-45.273 45.277-25.008 0-45.277-20.273-45.277-45.277 0-25.004 20.27-45.277 45.277-45.277 25.004 0 45.273 20.273 45.273 45.277z"/>
 <path d="m1197.6 1130.7c0 25.008-20.27 45.277-45.273 45.277-25.008 0-45.277-20.27-45.277-45.277 0-25.004 20.27-45.273 45.277-45.273 25.004 0 45.273 20.27 45.273 45.273z"/>
 <path d="m1017.3 519.68c0 25-20.266 45.266-45.266 45.266s-45.262-20.266-45.262-45.266 20.262-45.262 45.262-45.262 45.266 20.262 45.266 45.262z"/>
 <path d="m893.63 402.5c0 25-20.266 45.266-45.266 45.266-24.996 0-45.262-20.266-45.262-45.266s20.266-45.266 45.262-45.266c25 0 45.266 20.266 45.266 45.266z"/>
 <path d="m845.95 290.95c0 24.996-20.266 45.262-45.266 45.262s-45.262-20.266-45.262-45.262c0-25 20.262-45.266 45.262-45.266s45.266 20.266 45.266 45.266z"/>
 <path d="m689.98 222.25c0 25.004-20.27 45.273-45.277 45.273-25.004 0-45.273-20.27-45.273-45.273 0-25.008 20.27-45.277 45.273-45.277 25.008 0 45.277 20.27 45.277 45.277z"/>
 <path d="m731.96 345.11c0 24.996-20.266 45.262-45.266 45.262-24.996 0-45.262-20.266-45.262-45.262 0-25 20.266-45.266 45.262-45.266 25 0 45.266 20.266 45.266 45.266z"/>
</svg>
