<?xml version="1.0" encoding="UTF-8"?>
<svg width="1200pt" height="1200pt" version="1.1" viewBox="0 0 1200 1200" xmlns="http://www.w3.org/2000/svg">
 <path d="m691.3 1157c-7.1289 0-12.887-5.7734-12.887-12.887l-0.003906-398.5c0-7.1289 5.7617-12.887 12.887-12.887 7.1289 0 12.887 5.7617 12.887 12.887v398.5c-0.007813 7.1133-5.7695 12.887-12.883 12.887z"/>
 <path d="m262.64 47.941c-50.016 0-90.66 40.598-90.66 90.684 0 50.051 40.633 90.516 90.66 90.516 49.969 0 90.539-40.465 90.539-90.516 0-50.09-40.57-90.684-90.539-90.684z"/>
 <path d="m799.25 366.25 0.15625 0.058594c13.754 8.4609 84.684 37.656 164.15-36.758 31.871-32.566 47.004-81.898 47.004-81.898s-33.91 15.324-60.422 5.0898c-17.902-6.9375-35.773-28.355-39.168-32.641-8.2422-9.3359-18.48-17.258-30.516-22.656-46.703-21.203-101.83 0-123.1 47.16-20.625 45.945-1.7852 98.988 41.895 121.64z"/>
 <path d="m1188.2 691.82c-2.8438-35.855-12.816-54.277-26.617-76.512l-125.76-216.71s-10.129-16.523-28.105-24.516c-10.105-4.4883-25.176-5.9531-44.855-0.13281l-316 96.73-225.37-185.23c-18.77-15.742-38.82-31.969-71.555-31.969h-218.28c-62.867 0-119.1 41.352-119.1 111.74v315.91c0 21.539 17.496 39.012 39.012 39.012 21.504 0 39-17.473 39-39.012l0.097657-299.24h33.254v725.76c0 28.246 22.848 51.109 51.098 51.109 28.246 0 51.145-22.859 51.145-51.109l-0.003906-420.1h39.121v420.11c0 28.246 22.945 51.109 51.191 51.109s51.098-22.859 51.098-51.109v-725.76s-0.64844-10.176 5.6992-12.84c9.5156-3.9961 15.457 2.6406 15.457 2.6406l220.77 181.43c0.27734 0.22656 0.60156 0.38281 0.88672 0.60156 1.1992 0.9375 2.4609 1.7656 3.7578 2.5664 0.82812 0.51562 1.6328 1.0781 2.4844 1.5352 1.2461 0.66016 2.543 1.1992 3.8516 1.7383 0.92578 0.39453 1.8242 0.83984 2.7617 1.1641 1.5234 0.51562 3.0977 0.85156 4.668 1.2109 0.73047 0.15625 1.4531 0.40625 2.1953 0.53906 2.3398 0.38281 4.7266 0.60156 7.1406 0.60156 2.7617 0 5.543-0.35938 8.3281-0.91016 0.73047-0.14453 1.4414-0.3125 2.1602-0.48047 0.73047-0.17969 1.4766-0.27734 2.207-0.50391l152.63-46.727-139.6 127.93c-17.797 16.32-19.008 43.969-2.6875 61.777 8.6289 9.4062 20.41 14.172 32.242 14.172 10.559 0 21.145-3.8047 29.531-11.496l191.91-175.91 47.988 74.902v330.17h166.85v20.797h-60.742l0.38281 142.41c0 13.754 7.6914 59.23 58.98 59.23 40.738 0 60.887-32.258 60.887-61.488 0.015625 0.015626 0.14844-405.19-0.10547-405.15z"/>
</svg>
