<?xml version="1.0" encoding="UTF-8"?>
<svg width="1200pt" height="1200pt" version="1.1" viewBox="0 0 1200 1200" xmlns="http://www.w3.org/2000/svg">
 <path d="m602.16 11.766c-161.63 0-292.55 138-292.55 308.29 0 170.29 130.92 406.22 292.55 406.22 161.63 0 292.45-235.92 292.45-406.22 0-170.3-130.92-308.29-292.45-308.29zm-43.312 488.86c-14.062 10.922-54.844-18.234-91.078-65.062-36.234-46.781-54.234-93.609-40.219-104.53 14.062-10.922 54.844 18.234 91.078 65.156 36.234 46.781 54.375 93.609 40.219 104.53zm177.84-65.156c-36.375 46.781-77.156 75.938-91.078 65.062-14.156-10.922 3.8438-57.703 40.219-104.53 36.234-46.781 77.062-75.938 91.078-65.156 14.062 10.922-3.9375 57.703-40.219 104.53z"/>
 <path d="m325.55 1189.9v-204.71h57.844v204.71h436.69v-204.71h59.062v204.71h131.86v-215.53c0-111.94-83.297-221.63-214.31-221.63h-394.45c-119.39-0.14062-209.63 97.219-209.63 218.63v218.53z"/>
</svg>
