<?xml version="1.0" encoding="UTF-8"?>
<svg width="1200pt" height="1200pt" version="1.1" viewBox="0 0 1200 1200" xmlns="http://www.w3.org/2000/svg">
 <path d="m397.22 719.87c0 74.773 49.645 93.48 99.301 129.43 39.996 28.754 82.945 86.27 82.945 138.06v212.64h-137.93v-183.88c0-17.242-8.2578-35.93-22.055-46.008-99.289-58.957-160.15-130.88-160.15-253.12 0-145.84 83.195-223.93 162.85-265.29 43.488-22.57 88.332-38.879 88.332-38.879s-1.1992 23.855 8.6523 61.008c8.8789 33.457 26.426 57.266 26.426 57.266s-24.289 14.617-52.414 29.844c-53.211 28.801-104.96 77.949-95.957 158.91z"/>
 <path d="m794.03 720.21c2.7969 74.688-49.465 93.422-98.914 129.32-39.828 28.754-76.934 86.242-76.934 137.98v212.48h137.38v-183.73c0-17.258 8.2578-35.953 21.973-45.996 98.902-58.945 157.36-128.18 157.36-250.32 0-109.07-54.91-171.95-134.73-216.86-31.789-21.395-121.36-37.199-121.36-85.969v-128.2l71.461 22.992s5.5195 0.5625 6.875 0.5625c19.234 0 30.371-14.746 30.371-33.457 0-2.8672-1.5352-11.652-4.2852-15.961l-167.6-255.82c-4.1172-5.7461-7.1875-10.668-13.727-5.7461l-173.09 264.43s-2.5312 8.4961-2.9414 11.328c-3.0703 21.562 11.004 38.281 35.914 34.645l77.352-27.73c0 57.504-3.3828 176.86 28.199 225.73 46.301 88.328 221.89 82.316 226.71 210.31z"/>
</svg>
