<?xml version="1.0" encoding="UTF-8"?>
<svg width="1200pt" height="1200pt" version="1.1" viewBox="0 0 1200 1200" xmlns="http://www.w3.org/2000/svg">
 <path d="m957.96 587.53v-70.609h53.137c-4.1289-41.051-14.531-80.258-30.277-116.61h-58.188v-70.621h18.422c-27.742-39.238-62.438-73.199-102.37-99.996v29.375h-70.598v-66.84c-45.707-18.602-95.664-28.934-148.05-28.934-178.39 0-342.84 133.98-377.04 281.51-7.5977 32.809-16.199 118.48-16.199 118.48l-81.898 206.79c-1.6562 3.6953-2.4102 7.9922-2.4102 12.324 0 17.461 14.062 31.645 31.609 31.645h52.703v109.89c0 85.68 69.336 155.07 154.97 155.07h61.547v120.36h419.53v-333.72c83.82-65.953 140.11-165.45 148.92-278.15l-53.805 0.007812zm-315.78-328.44h70.609v70.609h-70.609zm-35.375 293.12h-70.598v-70.621h70.598zm0.011718-141.21h-70.609v-70.621h70.609zm70.621 70.598h-70.598v-70.598h70.598zm141.23 176.55h-70.598v-70.621h-70.559v-70.609h-0.035156v-70.609h70.598v70.609h0.035157v70.609h70.559zm0-247.15h-70.598v-70.621h70.598zm103.95 55.285h-70.609v-70.621h70.609z"/>
 <path d="m1013.1 305.06h70.609v70.621h-70.609z"/>
 <path d="m1083.7 516.93h70.598v70.609h-70.598z"/>
 <path d="m942.52 188.48h70.598v70.609h-70.598z"/>
 <path d="m1013.1 117.88h70.609v70.609h-70.609z"/>
 <path d="m852 2.6406h70.609v70.621h-70.609z"/>
</svg>
