<?xml version="1.0" encoding="UTF-8"?>
<svg width="1200pt" height="1200pt" version="1.1" viewBox="0 0 1200 1200" xmlns="http://www.w3.org/2000/svg">
 <path d="m130.26 528.98c0-197.59 122.34-367.04 295.21-436.86l-21.602-76.176c-205.91 79.512-352.41 279.42-352.41 513.04 0 222.3 132.71 414.06 323 500.65l26.746-74.375c-159.95-75.363-270.95-238.06-270.95-426.28z"/>
 <path d="m788 11.855-23.578 75.266c179.54 66.516 307.88 239.47 307.88 441.85 0 188.48-111.34 351.38-271.67 426.59l26.676 74.426c190.71-86.41 323.79-278.4 323.79-501.01 0-237.64-151.57-440.51-363.1-517.12z"/>
 <path d="m546.82 1051.7 50.734 148.3h7.4648l50.723-148.3 54.637 148.3h98.27l-207.36-685.03-203.61 685.03h98.414z"/>
 <path d="m130.26 528.98c0-197.59 122.34-367.04 295.21-436.86l-21.602-76.176c-205.91 79.512-352.41 279.42-352.41 513.04 0 222.3 132.71 414.06 323 500.65l26.746-74.375c-159.95-75.363-270.95-238.06-270.95-426.28z"/>
 <path d="m788 11.855-23.578 75.266c179.54 66.516 307.88 239.47 307.88 441.85 0 188.48-111.34 351.38-271.67 426.59l26.676 74.426c190.71-86.41 323.79-278.4 323.79-501.01 0-237.64-151.57-440.51-363.1-517.12z"/>
 <path d="m988.15 528.98c0-164.72-103.52-305.65-248.91-361.33l-23.594 75.371c113.4 45.504 193.73 156.5 193.73 285.96 0 117.86-66.59 220.43-164.06 272.2l26.797 74.773c127.88-63.207 216.05-194.95 216.05-346.97z"/>
 <path d="m293.21 528.98c0-123.05 72.539-229.44 177.1-278.76l-21.73-76.633c-137.58 59.352-234.16 196.29-234.16 355.39 0 151.79 87.91 283.34 215.46 346.66l26.891-74.711c-97.227-51.852-163.56-154.28-163.56-271.94z"/>
 <path d="m455.51 528.98c0-48.48 23.891-91.391 60.406-117.91l-22.402-79.008c-69.539 38.207-116.8 112.14-116.8 196.92 0 81.457 43.738 152.7 108.8 192.05l27.48-76.332c-34.859-26.668-57.492-68.559-57.492-115.72z"/>
 <path d="m690.59 323.04-23.746 75.91c47.496 24.047 80.23 73.234 80.23 130.02 0 47.305-22.754 89.293-57.77 115.93l27.371 76.379c65.281-39.348 109.2-110.71 109.2-192.31-0.011719-92.074-55.773-171.32-135.29-205.93z"/>
</svg>
