<?xml version="1.0" encoding="UTF-8"?>
<svg width="1200pt" height="1200pt" version="1.1" viewBox="0 0 1200 1200" xmlns="http://www.w3.org/2000/svg">
 <path d="m125.61 799.64c-7.8945 0-14.449-6.5625-14.449-14.555 0-7.8945 6.5508-14.438 14.449-14.438 7.9922 0 14.449 6.5391 14.449 14.438-0.003907 7.9883-6.457 14.555-14.449 14.555zm-51.027 0c-7.9922 0-14.449-6.5625-14.449-14.555 0-7.8945 6.457-14.438 14.449-14.438 7.8945 0 14.449 6.5391 14.449 14.438 0 7.9883-6.5508 14.555-14.449 14.555zm-51.117 0c-7.9922 0-14.449-6.5625-14.449-14.555 0-7.8945 6.457-14.438 14.449-14.438 7.9922 0 14.438 6.5391 14.438 14.438-0.003907 7.9883-6.4453 14.555-14.438 14.555z"/>
 <path d="m701.65 799.64c-7.8828 0-14.426-6.5625-14.426-14.555 0-7.8945 6.5391-14.438 14.426-14.438 7.9922 0 14.449 6.5391 14.449 14.438 0 7.9883-6.457 14.555-14.449 14.555zm-51.012 0c-7.9922 0-14.438-6.5625-14.438-14.555 0-7.8945 6.4453-14.438 14.438-14.438 7.8828 0 14.438 6.5391 14.438 14.438-0.003906 7.9883-6.5547 14.555-14.438 14.555zm-51.133 0c-7.9922 0-14.449-6.5625-14.449-14.555 0-7.8945 6.457-14.438 14.449-14.438 7.9922 0 14.449 6.5391 14.449 14.438 0 7.9883-6.457 14.555-14.449 14.555z"/>
 <path d="m471.49 285.65c40.738 0 73.848 33.059 73.848 73.812 0 40.766-33.098 73.727-73.848 73.727-40.668 0-73.715-32.965-73.715-73.727 0-40.754 33.047-73.812 73.715-73.812z"/>
 <path d="m928.68 285.65c40.738 0 73.836 33.059 73.836 73.812 0 40.766-33.086 73.727-73.836 73.727-40.668 0-73.715-32.965-73.715-73.727 0-40.754 33.047-73.812 73.715-73.812z"/>
 <path d="m163.01 739.4h91.465v91.453h-91.465z"/>
 <path d="m375.17 739.4h91.465v91.453h-91.465z"/>
 <path d="m832.48 739.4h91.465v91.453h-91.465z"/>
 <path d="m948.01 739.4h91.465v91.453h-91.465z"/>
 <path d="m1069.2 739.4h91.465v91.453h-91.465z"/>
 <path d="m1115 657.42v-109.29c0-54.203-44.074-97.586-97.297-97.586h-177.84c-53.242 0-97.285 43.391-97.285 97.586v109.29h-84.742v-109.29c0-54.203-44.074-97.586-97.309-97.586h-177.84c-53.23 0-97.297 43.391-97.297 97.586v109.29h-212.65v28.871h212.64v113.53c0 44.855 63.059 44.855 63.059 0v-245.54h25.812l-0.011719 103.14h-0.23828v28.871h368.58v113.53c0 44.855 63.047 44.855 63.047 0l0.003906-245.54h25.812l-0.011718 103.14v28.871h362.94v-28.871zm-520.25 0h-25.715l0.035156-103.14h25.668v103.14zm457.18 0h-25.715l0.046874-103.14h25.668z"/>
</svg>
