<?xml version="1.0" encoding="UTF-8"?>
<svg width="1200pt" height="1200pt" version="1.1" viewBox="0 0 1200 1200" xmlns="http://www.w3.org/2000/svg">
 <path d="m818.95 712.66 71.258-169.32c-40.414-5.5547-81.371-5.8789-115.19 4.8945-59.688 19.031-96.18 58.969-113.21 82.176l4.2109 9.1445 179.11 383.58c12.805 27.254 45.145 38.891 72.359 26.102 27.238-12.793 39.047-45.215 26.27-72.434z"/>
 <path d="m1047.8 241.01-26.34-80.172-245.12-23.785 39.383 198.04 62.387-12.098 35.699-110.7 30.816 10.5-42.086 131.7-113.96 21.145-21.395-97.848s-22.129 7.1172-56.941 22.883c-0.035156 0.011719-1.3086 0.57422-1.7539 0.78125l-46.621-104.33c-3.6367-8.3047-11.844-13.68-20.914-13.68l-192.28 0.003906c-7.8008 0-15.059 3.9961-19.262 10.559-4.1875 6.5898-4.7266 14.844-1.4414 21.91l94.066 200.5s-84.539 62.902-153.64 166.2c-107.76 161.09-115.34 297.31-111.66 359.45-10.824 6.625-21.492 12.254-31.441 16.066-78.906 30.328-170.09 24.41-170.95 24.34-22.129-1.6445-41.555 15.121-43.176 37.344-1.6094 22.223 15.109 41.555 37.344 43.176 1.2734 0.097656 10.98 0.74219 26.449 0.74219 38.039 0 110.95-4.0078 179.29-30.277 21.121-8.125 43.043-20.832 63.719-35.004-0.28906 2.2188-0.50391 4.4766-0.50391 6.7695 0 28.188 22.848 51.035 51.035 51.035h332.93c28.199 0 51.035-22.848 51.035-51.035s-22.836-51.047-51.035-51.047h-146.05c84.227-36.875 170.63-97.633 134.33-184.56-44.508-106.57-260.29 17.137-260.29 17.137s47.531-65.219 156.77-93.887c19.895-5.2188 43.309-6.0586 67.402-4.3906l-108.54-234.65c49.945-40.645 100.44-71.508 144.77-94.477 12.059 19.859 36.758 55.586 74.102 86.137 36.336 29.734 92.543 44.52 145.68 51.695l18.672-44.375 224.96-59.746 38.605-114.31zm-563.32-11.891h141.55l41.41 92.387c-32.051 16.715-69.395 38.688-108.24 66.59z"/>
</svg>
