<?xml version="1.0" encoding="UTF-8"?>
<svg width="1200pt" height="1200pt" version="1.1" viewBox="0 0 1200 1200" xmlns="http://www.w3.org/2000/svg">
 <path d="m920.09 497.46 75.57-75.57 51.801 51.801-75.57 75.57z"/>
 <path d="m1011.7 154.38 120.81-123.14 52.293 51.305-120.81 123.14z"/>
 <path d="m646.63 874.27 266.46-265.82-51.805-51.805-230.07 229.74c8.75 28.73 14.004 58.203 15.41 87.891z"/>
 <path d="m605.73 1111.4-0.88672 0.32422-1.1289 3.543 0.86719-0.33594z"/>
 <path d="m606.53 1108.1-1.2227-0.71094-0.43359 1.5625z"/>
 <path d="m285.78 531.96 2.4219-0.90234-0.046875 1.418z"/>
 <path d="m519.12 748.44-237.29 241.77c-5.5312 5.6406-12.828 8.4492-20.125 8.4492-7.1289 0-14.258-2.6992-19.738-8.0625-11.125-10.895-11.281-28.766-0.38281-39.852l242.7-247.27c-24.672-25.895-53.23-45.852-83.93-59.891l-139.5 142.11c-5.5312 5.6406-12.828 8.4492-20.125 8.4492-7.1289 0-14.258-2.6992-19.738-8.0625-11.125-10.895-11.281-28.766-0.38281-39.852l119.66-121.91c-83.316-16.559-173.1 5.6758-239.82 68.184-109.92 102.97-115.55 275.57-12.574 385.48 102.97 109.92 275.58 115.57 385.5 12.59 96.344-90.258 112.53-233.99 45.742-342.14z"/>
 <path d="m549.89 645.16c13.848 14.785 25.824 30.613 36.707 46.934l423.52-429.76-52.246-51.359-418.19 424.34c3.3711 3.3359 6.9375 6.3594 10.211 9.8398z"/>
 <path d="m471.55 582.32 344.15-342.53-51.695-51.91-363.35 361.65c24.551 8.1367 48.25 19.262 70.895 32.785z"/>
 <path d="m299.8 531.47 222.31-222.24-51.805-51.805-290.51 290.4c39.047-12.133 79.594-17.809 120-16.355z"/>
</svg>
