<?xml version="1.0" encoding="UTF-8"?>
<svg width="1200pt" height="1200pt" version="1.1" viewBox="0 0 1200 1200" xmlns="http://www.w3.org/2000/svg">
 <path d="m1189.1 388.25v-371.39h-476.74l-0.40625 406.73-47.027 0.003906v75.07h46.957l-0.42188 428.54c-30.938 6.6484-62.785 13.848-95.52 21.73-38.941 9.3828-76.105 19.094-111.61 28.969l-0.011719-103.89h-95.172l0.023437 132.09c-8.0391 2.5078-15.91 5.0391-23.734 7.5703l0.023437-139.66h-95.16l-0.035157 172.2c-135.57 49.164-229.37 95.328-279.25 122.29h1178.1v-312.6s-182.22 10.598-441.64 63.77v-421.01h19.586c46.234 0 46.391-75.07 0.14453-75.07h-19.727v-35.328h441.63zm-244.07-312c70.633 0 127.84 57.227 127.84 127.8 0 70.598-57.215 127.8-127.84 127.8-70.547 0-127.74-57.203-127.74-127.8 0-70.57 57.191-127.8 127.74-127.8z"/>
 <path d="m910.09 139.3c11.688 0 21.18 9.4922 21.18 21.156 0 11.711-9.4922 21.156-21.18 21.156-11.699 0-21.156-9.457-21.156-21.156 0-11.664 9.4531-21.156 21.156-21.156z"/>
 <path d="m980.04 139.3c11.699 0 21.191 9.4922 21.191 21.156 0 11.711-9.4922 21.156-21.191 21.156-11.676 0-21.133-9.457-21.133-21.156 0-11.664 9.457-21.156 21.133-21.156z"/>
 <path d="m227.43 529.5v42.875h-34.152v73.297h75.059v-114.55h22.043l-0.058594 317.3h95.137l0.023437-73.391h23.641l0.023437 73.391h95.16l-0.058593-349.39h135.1v-75.07l-146.14-0.003906c-23.09 29.891-59.125 49.246-99.742 49.246-40.32 0-76.129-19.105-99.203-48.648-68.555 3.6953-100.98 44.375-100.98 103.27v1.6562h34.152zm214.32 98.664c11.832 0 21.422 9.625 21.422 21.434 0 11.844-9.5742 21.422-21.422 21.422-11.844 0-21.445-9.5742-21.445-21.422 0.003906-11.82 9.6133-21.434 21.445-21.434zm-87.875-82.223c11.855 0 21.434 9.5898 21.434 21.445 0 11.832-9.5742 21.406-21.434 21.406-11.82 0-21.422-9.5625-21.422-21.406 0.003907-11.859 9.6016-21.445 21.422-21.445zm0 82.223c11.855 0 21.434 9.625 21.434 21.434 0 11.844-9.5742 21.422-21.434 21.422-11.82 0-21.422-9.5742-21.422-21.422 0.003907-11.82 9.6016-21.434 21.422-21.434z"/>
 <path d="m393.28 292.87c36.324-0.66016 67.715 6.0977 92.891 14.891-15.324-36.07-51.109-61.43-92.723-61.43-42.492 0-78.828 26.531-93.539 63.887 24.25-9.1133 55.496-16.723 93.371-17.348z"/>
 <path d="m268.32 726.82v-55.559h-75.059v55.715c0 46.246 75.059 46.09 75.059-0.15625z"/>
 <path d="m393.46 447.65c55.512 0 100.68-45.156 100.68-100.64 0-2.8086-0.19141-5.5547-0.40625-8.3047-24.816-10.621-58.992-20.566-100.01-20.23-43.488 0.71875-77.398 11.566-100.54 22.309-0.13281 2.0508-0.32422 4.1172-0.32422 6.2266-0.015625 55.488 45.129 100.64 100.59 100.64z"/>
 <path d="m945.07 289.49c-47.578 0-86.27-38.699-86.27-86.281h28.246c0 32.004 26.027 58.043 58.031 58.043 32.016 0 58.078-26.039 58.078-58.043h28.223c-0.015625 47.57-38.715 86.281-86.309 86.281z"/>
</svg>
