<?xml version="1.0" encoding="UTF-8"?>
<svg width="1200pt" height="1200pt" version="1.1" viewBox="0 0 1200 1200" xmlns="http://www.w3.org/2000/svg">
 <path d="m687.28 96.613c0 47.625-38.609 86.23-86.234 86.23s-86.23-38.605-86.23-86.23 38.605-86.234 86.23-86.234 86.234 38.609 86.234 86.234z"/>
 <path d="m1039.8 982.69v-310.85h-149.57v310.84h-164.53l0.23828-645.31 36.457-0.75781v271.7c0 54.672 77.688 54.672 77.508 0v-277.48c-0.035156-84.336-53.316-124.31-137.63-124.31l-198.27-0.12109-0.023437-0.20313-291.65-88.883c-61.223-16.824-81.84 59.195-27.758 76.57l291.85 98.844-0.085938 689.96h-87.152v140.54h-374.61v68.797h443.4l0.003906-140.53h733.3v-68.809zm-461.47-357.3h45.527l-0.13281 357.29h-45.469z"/>
</svg>
