<?xml version="1.0" encoding="UTF-8"?>
<svg width="1200pt" height="1200pt" version="1.1" viewBox="0 0 1200 1200" xmlns="http://www.w3.org/2000/svg">
 <path d="m125.43 890.46c-45.047 0-81.707 36.648-81.707 81.707 0 45.047 36.648 81.707 81.707 81.707 45.059 0 81.707-36.66 81.707-81.707-0.011718-45.059-36.66-81.707-81.707-81.707z"/>
 <path d="m794.3 711.97c-11.605 0-21.023-9.4219-21.023-21.012v-221.05c0-11.605 9.4219-21.023 21.023-21.023 11.617 0 21.047 9.4219 21.047 21.023v221.05c0 11.59-9.4297 21.012-21.047 21.012z"/>
 <path d="m682.52 228.32-5.5312-28.691 214.39-41.414 5.4961 28.707z"/>
 <path d="m511.25 228.32-214.37-41.398 5.5469-28.707 214.38 41.414z"/>
 <path d="m612.28 227.38h-29.246v-94.992h29.246z"/>
 <path d="m1182.5 266.95c-5.2305-6.4219-13.344-9.6484-24.59-9.6484h-435.67c-13.957 0-22.945 1.7656-27.422 4.8008-4.4297 3.2773-8.0156 7.2461-10.609 12.469l-176.12-0.003907c-2.3867-2.5938-5.2422-5.8086-8.4492-9.6602-3-3.793-9.0469-5.5547-17.867-5.5547h-443.93c-4.957 0-10.824 2.1602-18.07 6.6367-6.793 4.5977-10.211 11.688-10.211 21.938 0 9.7578 3.4219 17.594 10.211 22.453 7.2461 5.2695 12.719 7.6328 16.309 7.6328h445.7c2.4102 0 6.4336-1.0664 12.238-2.8086 5.6289-1.7773 10.262-6.5508 14.074-14.242h66.312v553.63c-1.4297 1.4141-2.7461 2.9414-4.1055 4.4297l-270.37-0.007813c-11.617 0-21.023 9.4336-21.023 21.047 0 11.605 9.4219 21.023 21.023 21.023h245.05c-4.6094 12.926-7.2344 26.785-7.2344 41.258 0 68.219 55.5 123.72 123.71 123.72s123.71-55.5 123.71-123.72c0-40.355-19.523-76.164-49.523-98.746l0.003906-257.8c0-25.98-21.047-47.039-47.051-47.039h-68.762v-239.68h64.379c3.707 6.4219 8.3984 10.488 13.402 12.289 4.8359 2.0273 9.2891 2.8086 13.094 2.8086l447.2-0.003906c10.117 0 17.566-2.8086 22.559-8.4258 5.0625-5.6406 8.3164-12.289 9.4922-19.934 0.003906-6.3672-2.4688-12.691-7.4609-18.871zm-521.04 731.88c-31.152 0-56.496-25.332-56.496-56.496 0-13.117 4.5352-25.199 12.07-34.789l2.7734 0.011719v-3.2539c10.332-11.293 25.152-18.445 41.641-18.445 31.152 0 56.484 25.332 56.484 56.484 0.007812 31.156-25.324 56.488-56.473 56.488z"/>
 <path d="m495.84 528.5c11.207-11.195 16.812-25.164 16.812-41.723 0-15.625-5.8438-29.102-17.594-40.297-11.676-11.207-25.332-16.922-41.004-16.922-16.57 0-30.516 5.7227-41.734 16.922-11.207 11.207-16.871 25.164-16.871 41.723 0 15.625 5.9141 29.34 17.594 41.016 11.746 11.676 25.402 17.52 41.016 17.52 16.617-0.94531 30.562-7.0312 41.781-18.238z"/>
 <path d="m508.67 578.02c-11.219-11.699-24.695-17.664-40.285-17.664-28.332 0-44.891 14.195-49.836 42.562l-23.867 114.24-102.32-42.516c-9.3242-3.4922-29.688-6.0352-41.578 13.754-0.30078 0.50391-0.69531 0.91016-0.97266 1.4414l-78.203 146.61c-8.7344 16.367-2.543 36.73 13.836 45.457 5.0391 2.6992 10.453 3.9609 15.781 3.9609 12.012 0 23.641-6.4453 29.676-17.773l62.629-117.39 118.43 60.805c12.781 7.2344 25.656 8.1953 25.656 8.1953 29.27 0 46.859-14.543 52.754-43.883l30.742-153.78c2.9336-17.668-1.2305-32.332-12.438-44.008z"/>
 <path d="m859.71 618.91 0.046875 261.14c132.09-20.953 239.15-96.359 239.14-168.47-0.023438-72.094-107.09-113.59-239.18-92.676z"/>
</svg>
