<?xml version="1.0" encoding="UTF-8"?>
<svg width="1200pt" height="1200pt" version="1.1" viewBox="0 0 1200 1200" xmlns="http://www.w3.org/2000/svg">
 <path d="m507.93 362.7c-81.781 0-157.21 61.43-172.87 129.06-3.4805 15.035-7.4297 54.324-7.4297 54.324l-48.551 94.836c-0.75781 1.6797-1.1172 3.6367-1.1172 5.6406 0 8.0039 6.4688 14.52 14.508 14.52h35.172v50.363c0 47.316 31.789 71.125 71.039 71.125h28.246v55.176h192.35v-153c41.941-32.977 68.93-84.254 68.93-141.74-0.011719-99.602-80.676-180.3-180.27-180.3zm-116.75 205.55c-10.188 0-18.445-8.2578-18.445-18.445s8.2578-18.445 18.445-18.445 18.445 8.2578 18.445 18.445c0 10.203-8.2578 18.445-18.445 18.445z"/>
 <path d="m789.97 568.89c11.242 0 20.352-9.1211 20.352-20.363s-9.1211-20.352-20.352-20.352c-11.258 0-20.363 9.1094-20.363 20.352 0 11.246 9.1172 20.363 20.363 20.363"/>
 <path d="m942.94 641.2-2.2422-18.406c16.43-2.0156 32.387-4.1641 47.461-6.3711l2.7109 18.336c-15.207 2.2539-31.336 4.4141-47.93 6.4414z"/>
 <path d="m1147 598.07-7.2461-17.062c20.988-8.9414 28.465-16.922 28.465-21.422 0-2.9023-3.2031-6.8633-8.7617-10.871l10.824-15.059c10.945 7.8711 16.488 16.586 16.488 25.945-0.011719 14.48-13.023 27.082-39.77 38.469z"/>
 <path d="m1143 539.59c-11.387-5.125-26.219-10.188-44.102-15.035l4.8359-17.902c18.84 5.1016 34.621 10.5 46.871 16.031z"/>
 <path d="m1079.1 519.57c-14.09-3.3008-29.785-6.5273-46.68-9.5898l3.3008-18.254c17.195 3.1094 33.215 6.3945 47.605 9.7695z"/>
 <path d="m1012.2 506.51c-14.867-2.4492-30.793-4.8125-47.328-7.0312l2.4727-18.383c16.727 2.2578 32.82 4.6445 47.867 7.1172z"/>
 <path d="m944.44 496.84c-15.254-1.8945-31.262-3.707-47.641-5.3984l1.9219-18.457c16.477 1.7031 32.629 3.5273 48 5.4492z"/>
 <path d="m1100.8 613.29c9.4922-2.5195 18.254-5.0898 26.113-7.7031l-5.8438-17.605c-5.9023 1.957-12.348 3.8984-19.246 5.8086l-80.832-28.934 8.1602 44.879c-6.707 1.1992-13.559 2.375-20.641 3.5039l2.9648 18.312c7.1875-1.1758 14.172-2.3516 20.988-3.5742l6.8164 37.465z"/>
 <path d="m256.46 641.2 2.2422-18.406c-16.43-2.0156-32.398-4.1641-47.461-6.3711l-2.7109 18.336c15.219 2.2539 31.332 4.4141 47.93 6.4414z"/>
 <path d="m187.95 631.57 2.9531-18.312c-16.703-2.6992-32.508-5.5547-46.969-8.4961l-3.707 18.168c14.711 2.9922 30.766 5.8945 47.723 8.6406z"/>
 <path d="m119.76 618.5 4.1406-18.086c-17.363-3.9961-32.688-8.1719-45.551-12.445l-5.8438 17.605c13.426 4.4531 29.312 8.7969 47.254 12.926z"/>
 <path d="m52.402 598.07 7.2617-17.062c-21-8.9414-28.488-16.922-28.488-21.422 0-2.9023 3.2031-6.8633 8.7734-10.871l-10.812-15.07c-10.945 7.8711-16.5 16.586-16.5 25.945 0.011719 14.492 13.008 27.094 39.766 38.48z"/>
 <path d="m56.398 539.59c11.363-5.125 26.207-10.188 44.09-15.035l-4.8477-17.902c-18.84 5.1016-34.609 10.5-46.883 16.031z"/>
 <path d="m216.74 501.97c5.8438-0.85156 11.746-1.6797 17.785-2.4961l-2.4727-18.383c-6.3594 0.85156-12.59 1.7383-18.742 2.6289l-7.8594-41.785-62.629 53.785c-9.4219 1.8945-18.383 3.8281-26.785 5.7969l4.2461 18.059c7.5703-1.7773 15.625-3.5273 24.07-5.2578l80.004 28.105z"/>
 <path d="m254.96 496.84c15.254-1.8945 31.273-3.707 47.629-5.3984l-1.9062-18.457c-16.488 1.7031-32.641 3.5273-48 5.4492z"/>
 <path d="m924.04 629.59-44.832-87.84c-0.98438-9.7578-3.9727-37.465-6.8633-50.27-14.723-64.98-76.078-134.9-176.03-134.9-21.059 0-52.355 6.0859-72.203 15.383 4.5586 3.5156 15.023 11.676 18.863 15.469 2.4258 2.4102 5.9141 6 8.832 9.0352 14.34-4.5469 29.27-6.8516 44.496-6.8516 81.805 0 131.9 56.594 143.81 109.18 2.4609 10.824 5.543 39.277 6.5391 49.332l0.30078 3.1094 44.676 87.48h-45.059v71.832c0 25.836-8.3633 43.043-49.211 43.043h-42.625v52.164h-108.62v33.035h141.64l-0.003907-52.188h9.6133c71.555 0 82.246-47.676 82.246-76.066v-38.809h16.871c16.512 0 29.941-13.559 29.941-30.238 0.015625-4.2422-0.77734-8.2344-2.375-11.895z"/>
</svg>
