<?xml version="1.0" encoding="UTF-8"?>
<svg width="1200pt" height="1200pt" version="1.1" viewBox="0 0 1200 1200" xmlns="http://www.w3.org/2000/svg">
 <path d="m988.22 702.9c-18.875-3.7578-41.316-6.4062-65.051-9.2266-70.812-8.3516-158.98-18.758-179.22-65.914-13.715-31.934-3.9492-87.875 5.4844-141.98 6.6133-37.848 12.84-73.598 11.543-102.43-1.3906-30.492-10.078-70.754-13.98-87.684l-33.84-17.496-8.7617 3.7695c-3.5898 1.5234-87.938 37.945-126.35 86.219-29.711 37.344-50.605 85.164-70.801 131.41-9.5508 21.875-19.262 44.074-29.879 64.992-19.812 12.18-48.227 24.625-85.535 28.895-85.906 9.8047-185.46 9.9258-186.46 9.9258l-3.4688 30.742 172.81 39.336c-113.79 52.211-304.78 39.227-341.28 36.145-2.0742-0.96094-3.2031-1.5234-3.2891-1.5703l-0.60156 1.2461c-1.3086-0.13281-2.0625-0.20312-2.207-0.21484l-0.60156 5.8438-16.598 33.383c3.457 1.7266 85.715 42.215 196.81 62.82 41.461 7.6914 81.371 11.496 119.47 11.496 99.07 0 185.77-25.812 254.84-76.535 11.34-8.3164 21.852-18.48 31.633-30.035 3.7188 4.5352 7.8359 8.7227 12.445 12.469 59.062 48.539 151.7 54.77 225.79 54.77 19.656 0 38.41-0.45703 56.566-0.89844 15.625-0.37109 30.383-0.73047 43.715-0.73047 19.703 0 33.613 0.80469 43.754 2.543 69.434 11.844 182.81 45.469 183.95 45.793l10.285-20.004c-4.7148-3.6523-116.8-90.207-201.19-107.07zm-433.55 6.9492c-86.34 63.406-200.18 82.68-338.4 57.254-15.457-2.832-30.395-6.1211-44.594-9.6367 100.14-4.0781 225-23.387 288.96-88.715 39.289-40.141 63.961-96.602 87.816-151.21 19.922-45.602 38.746-88.68 64.789-121.43 17.531-22.031 49.309-42.145 74.016-55.621-11.965 108.83-49.766 308.52-132.59 369.36z"/>
</svg>
