<?xml version="1.0" encoding="UTF-8"?>
<svg width="1200pt" height="1200pt" version="1.1" viewBox="0 0 1200 1200" xmlns="http://www.w3.org/2000/svg">
 <path d="m747.28 110.28h-65.281v-99.039h-190.39v99.039h-65.496c-88.668 0-160.6 94.105-160.6 182.81h642.38c-0.011719-88.707-71.902-182.81-160.62-182.81zm-211.01-54.375h101.06v54.375h-101.06z"/>
 <path d="m907.97 950.04c-8.9023 0-17.531 1.1289-25.883 2.9766l-147.97-328.95c103.22-53.398 173.86-160.98 173.86-285.23h-739.49c-14.184 0-25.68 11.496-25.68 25.68 0 14.172 11.496 25.68 25.68 25.68h101.58c17.52 108.91 89.746 199.25 187.5 242.4l-233.4 518.3c-5.8555 12.926-0.085937 28.152 12.887 33.961 3.4336 1.5469 6.9844 2.3047 10.535 2.3047 9.793 0 19.152-5.6523 23.426-15.191l152.98-339.47h137.14v120.41c-54.035 11.797-94.512 59.734-94.512 117.31 0 66.406 53.785 120.2 120.19 120.2 66.395 0 120.18-53.785 120.18-120.2 0-57.59-40.488-105.52-94.5-117.31v-120.4h159.07l64.031 142.31c-28.859 21.926-47.797 56.293-47.797 95.398 0 66.406 53.773 120.2 120.2 120.2 66.406 0 120.2-53.785 120.2-120.2 0.003906-66.418-53.816-120.19-120.22-120.19zm-460.91-168.88 59.184-131.53c17.773 4.5977 36.047 7.7383 54.875 9.2539v122.28zm182.99 289.08c0 25.645-20.629 46.297-46.273 46.297-25.633 0-46.332-20.664-46.332-46.297 0-25.633 20.699-46.297 46.332-46.297 25.648-0.007812 46.273 20.656 46.273 46.297zm-17.578-289.08v-122.41c25.703-2.0508 50.578-7.0312 74.258-14.762l61.738 137.18h-136zm295.5 335.38c-25.645 0-46.344-20.664-46.344-46.297 0-25.633 20.711-46.297 46.344-46.297s46.285 20.664 46.285 46.297c0 25.633-20.652 46.297-46.285 46.297z"/>
</svg>
