<?xml version="1.0" encoding="UTF-8"?>
<svg width="1200pt" height="1200pt" version="1.1" viewBox="0 0 1200 1200" xmlns="http://www.w3.org/2000/svg">
 <path d="m1016.5 206.46c-110.83-115.9-259.81-179.73-419.54-179.73-147.88 0-287.96 56.004-394.4 157.67-228.46 218.03-235.26 583.06-15.156 813.72 110.8 116.14 259.89 180.1 419.86 180.11h0.023437c147.65 0 287.58-55.922 393.94-157.45 110.59-105.47 173.07-248.36 175.98-402.39 2.8789-153.98-54.172-300.25-160.7-411.93zm-623.23 1.6562c31.234-55.309 80.797-89.723 103.79-103.55 32.566-6.5156 66-9.9375 99.898-9.9375 133.85 0 259.13 50.891 355.23 143.58-46.355-15.77-158.65-46.414-279.1-23.363-88.355 16.895-158.68 50.051-210.31 82.512-8.9297-16.344-22.523-29.27-40.621-36.551-16.297-6.457-34.285-7.6094-52.465-4.4141 6.3398-15.23 14.023-31.383 23.574-48.277zm-146.77 253.12c-22.559 20.566-45.996 45.109-66.77 73.285-56.543 76.68-66.781 154.07-67.5 196.21-31.512-116.98-20.746-242.41 31.789-352.04 17.016-7.1641 48.91-18.406 83.16-19.066 7.5-0.14453 15 0.10938 22.414 0.63672-14.984 36.465-15.512 73.008-3.0938 100.98zm75.191-93.598c10.656-19.727 32.305-30.59 48.359-24.215 16.008 6.4453 20.352 27.695 9.7188 47.41-10.668 19.754-32.328 30.539-48.336 24.145-16.078-6.4219-20.398-27.602-9.7422-47.34zm632.64 604.01c-78.516 74.953-177.82 121.55-284.52 134.71-37.117-25.801-166.62-121.82-254.43-261.93-77.473-123.55-91.668-246.73-88.367-333.97 47.484-1.2109 99.527-35.184 128.23-88.285 5.9766-11.074 10.43-22.262 13.68-33.371 66.324 9.4688 158.21 31.992 264.41 83.977 213.72 104.54 321.71 251.26 350.41 294.82-25.48 76.934-69.352 146.77-129.41 204.05z"/>
</svg>
