<?xml version="1.0" encoding="UTF-8"?>
<svg width="1200pt" height="1200pt" version="1.1" viewBox="0 0 1200 1200" xmlns="http://www.w3.org/2000/svg">
 <path d="m86.27 997.61v-441.83h-86.27v644.13h0.20312v0.085938h86.629v-120.68h1010.1v120.68h86.48v-202.39z"/>
 <path d="m513.14 292.78v102.06h95.988c8.6641 0 16.117 3.0586 22.246 9.1914 6.0977 6.0703 9.1328 13.547 9.1328 22.285 0 9.2773-3.1797 17.074-9.5898 23.496l-107.33 107.32c-6.3945 9.3008-15.406 13.945-27.035 13.945-9.3125 0-16.98-3.2148-23.074-9.6016-6.0977-6.3945-9.168-13.922-9.168-22.656 0-5.8203 1.4414-11.363 4.3438-16.586l61.043-61.078h-176.18l60.168 61.078c2.9414 5.2305 4.4023 10.766 4.4023 16.586 0 8.7344-3.2539 16.262-9.6367 22.656-6.3945 6.3828-13.922 9.6016-22.668 9.6016-11.617 0-20.641-4.6445-27.035-13.945l-107.26-108.19c-6.457-6.3594-9.6602-13.895-9.6602-22.621 0-8.7461 3.0586-16.223 9.168-22.285 6.1211-6.1211 13.535-9.1914 22.285-9.1914h95.902v-103.75l-85.465 69.875c-4.8125 4.2344-12.012 7.5-19.188 7.7891-13.211 0.52734-28.789-11.41-27.023-27.047 0.73047-6.5273 2.6289-12.781 7.7891-17.363l109.97-94.379c8.1016-8.6523 18.312-13.043 30.516-13.043h109.03c12.227 0 22.668 4.3906 31.391 13.043l109.03 94.379c5.2578 4.5859 7.8945 11.125 7.8711 18.312-0.035156 13.344-11.016 26.016-26.172 26.102-6.5039 0.035156-14.855-2.543-20.039-7.7891z"/>
 <path d="m1009.8 43.367c17.914 0 26.82 9.2539 26.82 27.758 0 7.1523-2.3398 13.117-7.1523 17.941l-136.61 140.57v414.19c0 8.3047-2.9883 15.492-8.9766 21.492-5.9531 5.8789-13.105 8.9531-21.48 8.9531-8.3164 0-15.527-3.0703-21.504-8.9531-5.9766-6-8.8672-13.188-8.8672-21.492v-235.5h-39.422v235.5c0 20.258-10.262 30.445-30.898 30.445-8.4375 0-15.59-3.0703-21.348-8.9531-5.7461-6-8.5938-13.188-8.5938-21.492v-414.19l-126.67-140.57c-5.3984-4.8125-8.1133-10.789-8.1133-17.941 0-18.504 9.2656-27.758 27.781-27.758 7.7266 0 14.363 2.6875 19.691 8.0742l133.4 133.34h78.84l132.49-133.34c5.9805-5.3867 12.82-8.0742 20.609-8.0742z"/>
 <path d="m1151.5 955.11c-2.5547-0.79297-258.32-77.137-516.35-77.137-245.76 0-493.12 76.141-495.57 76.922l-48.012-153.8c10.992-3.4336 272.59-84.203 543.59-84.203 282.54 0 551.71 80.566 563.04 84z"/>
 <path d="m504.52 141.24c0 34.668-28.105 62.773-62.773 62.773-34.668 0-62.77-28.105-62.77-62.773s28.102-62.77 62.77-62.77c34.668 0 62.773 28.102 62.773 62.77z"/>
 <path d="m879.77 107.47c0 34.105-27.648 61.75-61.754 61.75s-61.75-27.645-61.75-61.75c0-34.105 27.645-61.754 61.75-61.754s61.754 27.648 61.754 61.754z"/>
</svg>
