<?xml version="1.0" encoding="UTF-8"?>
<svg width="1200pt" height="1200pt" version="1.1" viewBox="0 0 1200 1200" xmlns="http://www.w3.org/2000/svg">
 <path d="m946.5 225.97c-36.938 0-71.809 8.5312-103.13 23.34l-48.926-74.16c-0.097656-0.14453-0.25391-0.21484-0.34766-0.34766l53.746-107.47c4.4531-8.9531 3.9844-19.559-1.2617-28.043-5.2305-8.4844-14.496-13.668-24.492-13.668h-129.24c-15.926 0-28.812 12.898-28.812 28.812 0 15.91 12.898 28.812 28.812 28.812h82.645l-28.402 56.809-297.99-0.003907c-1.4297-1.7773-2.8555-3.5391-4.6094-4.8828l30.684-64.738c4.2344-8.9141 3.5898-19.379-1.6914-27.73-5.2812-8.3516-14.449-13.414-24.312-13.414l-155.07-0.003906c-15.926 0-28.812 12.898-28.812 28.812 0 15.91 12.898 28.812 28.812 28.812h109.56l-73.129 154.31c-24.492-8.4102-50.652-13.188-77.965-13.188-131.96 0-239.36 108.09-239.36 241.09 0 131.89 107.4 239.2 239.36 239.2 132.89 0 241.05-107.3 241.05-239.2 0-85.164-44.473-159.95-111.27-202.85l33.574-70.848c0.21484 0.085938 0.46875 0.058594 0.68359 0.13281l174.27 280.23c5.2305 8.4375 14.496 13.586 24.445 13.586h0.30078l90.996-1.0078c11.641 122.09 114.73 217.99 239.88 217.99 131.98 0 239.36-108.17 239.36-241.01 0.011719-131.99-107.39-239.38-239.36-239.38zm-506.76 243.17c0 102.29-83.988 185.46-187.19 185.46-102.24 0-185.45-83.172-185.45-185.46 0-103.23 83.207-187.19 185.45-187.19 19.043 0 37.066 3.6953 54.395 9.0117l-76.715 161.88c-6.8398 14.363-0.69531 31.547 13.668 38.34 3.9844 1.9062 8.1719 2.8086 12.336 2.8086 10.777 0 21.121-6.0977 26.004-16.488l76.777-161.99c48.66 33.84 80.723 89.977 80.723 153.62zm354.72-189.32c-45.695 36.996-77.281 90.324-86.184 150.89l-42.359 0.46875 98.473-196.93zm30.262 45.863 67.957 102.98-129.76 1.4414c8.125-41.605 30.648-77.738 61.801-104.43zm-338.98-127.99h232.52l-103.63 207.24zm460.75 454.66c-95.473 0-173.66-72.168-184.91-164.61l184.48-2.0508c10.559-0.13281 20.207-6.0117 25.141-15.312 4.9336-9.3008 4.4141-20.555-1.3789-29.375l-96.504-146.29c22.5-9.5156 47.219-14.82 73.176-14.82 102.29 0 185.54 83.16 185.54 185.45-0.003906 103.07-83.258 187.01-185.55 187.01z"/>
 <path d="m934.95 1059v-139.66h188.48c-27.035-62.363-89.027-106.07-161.33-106.07-73.559 0-136.4 45.238-162.66 109.34h-407.3c-26.258-64.105-89.102-109.34-162.67-109.34-97.141 0-175.89 78.742-175.89 175.89 0 97.141 78.742 175.89 175.89 175.89 74.102 0 137.22-45.961 163.13-110.82l406.38 0.011719c25.906 64.848 89.016 110.8 163.12 110.8 72.301 0 134.29-43.703 161.33-106.07h-188.47zm-705.47 31.441c-55.934 0-101.27-45.336-101.27-101.28 0-55.934 45.336-101.27 101.27-101.27 55.934 0 101.28 45.336 101.28 101.27-0.015624 55.945-45.352 101.28-101.28 101.28z"/>
</svg>
