<?xml version="1.0" encoding="UTF-8"?>
<svg width="1200pt" height="1200pt" version="1.1" viewBox="0 0 1200 1200" xmlns="http://www.w3.org/2000/svg">
 <path d="m893.2 493.16s-82.066-165.65-338.89-153.48c-241.31 11.438-360.67 209.04-360.67 209.04l-164.32-95.844c-1.9219-1.2461-3.8281-1.7539-5.4258-1.7539-8.4258 0.50391-12.434 6.5898-11.426 18.516-0.16797 2.3398 0.82812 5.0898 2.7461 8.9297l102.85 152.47-83.406 165.89c-1.668 3.3359-2.1719 6.3359-1.9219 8.9297 0.74219 11.688 5.2578 17.52 13.766 16.934 1.9219-0.25391 3.5039-1.0078 5.0039-1.9922l151.55-117.02s108.68 171.07 393.86 171.07c192.17 0 296.27-120.12 296.27-120.12l-223.13-104.51zm-175.84-43.043c17.93-1.1641 33.359 12.18 34.703 30.277 1.1758 17.438-12.18 33.359-30.203 34.523-17.594 1.1641-33.203-12.18-34.441-29.953-1.3281-17.988 12.184-33.602 29.941-34.848z"/>
 <path d="m1155.5 631.7 33.109-59.137c0.68359-1.332 0.92578-2.4258 0.92578-3.2539 0-4.332-1.4141-6.5039-4.5117-6.5039-0.57422 0-1.2461 0.25391-1.8242 0.66016l-68.484 39.625c-52.367-35.195-93.254-53.723-147.13-53.723-54.539 0-122.36 21.77-150.3 56.977-0.32422 0.42188-0.50391 1.332-0.50391 2.6641 0 1.2461 0.33594 2.0742 1.0078 2.5078l47.293 22.441-52.391 11.426c-0.82812 0-1.3203 0.42188-1.3203 1.2461 0 0.92578 0.25391 1.332 0.49219 1.332 38.461 39.047 105.02 62.23 164.16 62.23 49.871 0 93.168-13.512 138.71-49.871l68.484 39.121c0.58984 0.40625 1.2461 0.58984 1.8242 0.58984 3.0977 0 4.5117-2.1719 4.5117-6.5156 0-0.89844-0.25391-1.9062-0.92578-3.2383zm-254.06-9c-9.6016 0.67188-18.012-6.5039-18.695-16.262-0.74219-9.7578 6.5898-18.098 16.188-18.77 9.6836-0.67188 18.191 6.5039 18.84 16.344 0.59766 9.4258-6.6602 18.102-16.332 18.688z"/>
</svg>
