<?xml version="1.0" encoding="UTF-8"?>
<svg width="1200pt" height="1200pt" version="1.1" viewBox="0 0 1200 1200" xmlns="http://www.w3.org/2000/svg">
 <path d="m489.56 239.78v0.023437c0.085938 0 0.16797-0.023437 0.25391-0.023437 34.789 0 63.887 20.102 73.738 47.617 10.43-6.0469 22.105-9.5508 34.5-9.5508 12.504 0 24.289 3.5625 34.789 9.7188 9.8047-27.59 38.953-47.773 73.801-47.773 0.085938 0 0.19141 0.023438 0.25391 0.023438v-0.023438h56.293c0.85156-0.058593 1.7266-0.085937 2.6055-0.16797-17.91-70.234-85.359-122.48-166.09-122.48-80.809 0-148.29 52.332-166.13 122.63h55.98z"/>
 <path d="m1185.8 731.18-265.69-389.45c-3.2773-4.8125-7.1172-8.9766-11.23-12.758 6.9375 16.922 10.836 35.398 10.836 54.781 0 51.59-27.227 96.84-67.957 122.47l85.117 124.75-114.68-38.879c-80.566-22.598-175.26-26.16-175.26-26.16 26.773-9.793 50.16-27.59 67.535-50.93-47.184-21.898-80.699-68.387-83.797-123 0 0-1.5977-40.031-33-39.77-27.18 0.22656-31.414 27.023-32.461 39.457-0.023438 56.93-32.605 98.258-80.543 121.85 17.605 24.18 41.531 42.562 69.035 52.5 0 0-102.09 2.7461-177.12 26.051l-114.67 38.879 84.289-123.55c-41.832-25.402-69.938-71.27-69.938-123.67 0-17.578 3.3125-34.344 9.0703-49.945-2.293 2.5312-4.668 5.0039-6.6602 7.9219l-265.68 389.45c-18.07 26.484-17.195 61.57 2.207 87.133 14.375 18.938 36.527 29.473 59.41 29.473 7.9805 0 16.055-1.2734 23.914-3.9492l248.15-84.121v350.47h502.69l0.003906-351.39 250.88 85.031c7.8594 2.6758 15.938 3.9492 23.902 3.9492 22.883 0 45.047-10.535 59.41-29.473 19.41-25.559 20.297-60.648 2.2383-87.129z"/>
 <path d="m421 498.8c-63.434 0-115.04-51.59-115.04-115.03 0-63.434 51.613-115.04 115.04-115.04 63.445 0 115.07 51.613 115.07 115.04 0 63.434-51.621 115.03-115.07 115.03zm0-170.71c-30.695 0-55.668 24.973-55.668 55.668 0 30.684 24.984 55.668 55.668 55.668 30.707 0 55.691-24.984 55.691-55.668s-24.984-55.668-55.691-55.668z"/>
 <path d="m774.97 498.8c-63.445 0-115.05-51.59-115.05-115.03 0-63.434 51.613-115.04 115.05-115.04 63.434 0 115.04 51.613 115.04 115.04 0 63.434-51.613 115.03-115.04 115.03zm0-170.71c-30.695 0-55.656 24.973-55.656 55.668 0 30.684 24.961 55.668 55.656 55.668 30.684 0 55.656-24.984 55.656-55.668s-24.973-55.668-55.656-55.668z"/>
</svg>
