<?xml version="1.0" encoding="UTF-8"?>
<svg width="1200pt" height="1200pt" version="1.1" viewBox="0 0 1200 1200" xmlns="http://www.w3.org/2000/svg">
 <path d="m929.04 101.71c-180.42 7.418-228.35 203.23-272.47 307.54-128.38 212.63-639.88 62.211-639.88 62.211s193.66 396.11 538.09 446.12l78.266 184.41h66.539l-76.117-179.33c1.0078 0 1.9688 0.10938 2.9766 0.10938 28.535 0 54.805-1.7656 79.234-4.9688l78.191 184.2h66.504l-83.352-196.37c342.36-94.223 197.95-549.31 262.64-624.76 32.102-56.172 141.78-78.938 153.82-78.938-60.18-48.152-141.9-104.85-254.45-100.23zm-11.641 159.46c-18.254 0-32.977-14.762-32.977-32.953s14.734-32.953 32.977-32.953c18.168 0 32.941 14.762 32.941 32.953s-14.773 32.953-32.941 32.953z"/>
</svg>
