<?xml version="1.0" encoding="UTF-8"?>
<svg width="1200pt" height="1200pt" version="1.1" viewBox="0 0 1200 1200" xmlns="http://www.w3.org/2000/svg">
 <path d="m1122.8 1200h-1055l-67.738-71.262h1197.6z"/>
 <path d="m874.79 462.21h-255.71v-141.31h-36.953v141.31h-259.4c-67.977 0-123.12 55.168-123.12 123.17v117.95c13.355 9.0234 29.332 14.262 46.57 14.262 30.355 0 58.477-16.785 73.355-43.855l15.094-27.43 15.145 27.43c14.93 27.023 43.023 43.855 73.355 43.855 30.406 0 58.523-16.785 73.383-43.809l15.094-27.523 15.168 27.477c14.93 27.023 43.023 43.855 73.332 43.855 30.383 0 58.547-16.832 73.5-43.855l15.168-27.477 15.07 27.523c14.883 27.023 42.977 43.809 73.332 43.809 30.332 0 58.406-16.832 73.355-43.855l15.168-27.477 15.117 27.523c14.832 27.023 42.953 43.809 73.355 43.809 15.738 0 30.832-4.7148 43.855-12.906v-119.29c-0.039063-68.023-55.184-123.19-123.23-123.19zm-540.71 167.74c-17.832 0-32.383-14.477-32.383-32.355 0-17.883 14.547-32.43 32.383-32.43 17.953 0 32.453 14.547 32.453 32.43 0 17.855-14.5 32.355-32.453 32.355zm177.21 0c-17.855 0-32.355-14.477-32.355-32.355 0-17.883 14.523-32.43 32.355-32.43 17.953 0 32.406 14.547 32.406 32.43 0 17.855-14.453 32.355-32.406 32.355zm178.33 0c-17.855 0-32.332-14.477-32.332-32.355 0-17.883 14.477-32.43 32.332-32.43 17.883 0 32.406 14.547 32.406 32.43 0 17.855-14.523 32.355-32.406 32.355zm174.64 0c-17.832 0-32.332-14.477-32.332-32.355 0-17.883 14.5-32.43 32.332-32.43 17.883 0 32.43 14.547 32.43 32.43 0 17.855-14.547 32.355-32.43 32.355z"/>
 <path d="m634.48 236.02c0 30.863-15.703 55.883-35.07 55.883-19.371 0-35.074-25.02-35.074-55.883 0-30.863 15.703-55.879 35.074-55.879 19.367 0 35.07 25.016 35.07 55.879z"/>
 <path d="m954.12 752.14c-34.215 0-66.285-14.953-88.547-40.191-22.262 25.262-54.332 40.191-88.453 40.191-34.168 0-66.262-14.953-88.477-40.191-22.309 25.262-54.383 40.191-88.594 40.191-34.094 0-66.168-14.953-88.43-40.191-22.238 25.262-54.332 40.191-88.523 40.191-34.094 0-66.191-14.953-88.453-40.215-22.262 25.285-54.355 40.215-88.5 40.215-16.523 0-32.262-3.4297-46.57-9.5703v354.07h798.36l0.003907-353.53c-13.738 5.5977-28.477 9.0273-43.812 9.0273z"/>
</svg>
