<?xml version="1.0" encoding="UTF-8"?>
<svg width="1200pt" height="1200pt" version="1.1" viewBox="0 0 1200 1200" xmlns="http://www.w3.org/2000/svg">
 <path d="m534.76 576.9c-5.6523-26.051-11.914-54.828-11.988-55.223-3.707-20.316-18.012-46.031-45.742-46.211l-415.61-0.17969c-27.742-0.19141-50.352 22.234-50.566 49.957-0.16797 27.742 21.406 51.121 49.176 51.277z"/>
 <path d="m523.5 271.5-154.93 99.781c-22.812 15.719-24.527 48-7.0664 68.977 15 18 40.5 16.5 76.5 1.3555l88.945-43.633c14.734 78.695 45.254 311.62 129.83 365.69 45.277 28.992 95.578 33.863 123.05 32.977v24.984c-23.977 1.1992-56.062-0.46875-86.676-10.477-83.891-27.469-138.16-96-138.16-96l0.20312 230.04 154.49 0.21484s44.699-2.1367 72.445-19.895c26.699-17.039 44.113-48.707 44.113-48.707l353.51 0.046874-0.003906-326.36-366.37 0.51562-74.879-151.98c-6-10.957-36.469-68.27-49.379-76.598-120.61-71.926-130.37-71.168-165.61-50.926z"/>
 <path d="m119.59 625.14 0.19141 0.035156s52.367 64.871 51.18 106.74c-1.0664 42.086-31.5 58.754-55.609 58.141l-0.22656-0.023438c-24.109-0.67188-51.637-18.898-50.531-60.938 1.1484-41.926 54.996-103.95 54.996-103.95z"/>
 <path d="m350.89 598.91h128.95c27.742 0 50.27 22.477 50.27 50.242 0 27.73-22.535 50.258-50.27 50.258h-128.95c-27.742 0-50.258-22.523-50.258-50.258-0.007812-27.777 22.516-50.242 50.258-50.242z"/>
 <path d="m350.89 720.59h128.95c27.742 0 50.27 22.477 50.27 50.27 0 27.73-22.535 50.258-50.27 50.258l-128.95-0.003907c-27.742 0-50.258-22.523-50.258-50.258-0.007812-27.793 22.516-50.266 50.258-50.266z"/>
 <path d="m350.89 843.54h128.95c27.742 0 50.27 22.5 50.27 50.293 0 27.73-22.535 50.23-50.27 50.23h-128.95c-27.742 0-50.258-22.5-50.258-50.23-0.007812-27.793 22.516-50.293 50.258-50.293z"/>
</svg>
