<?xml version="1.0" encoding="UTF-8"?>
<svg width="1200pt" height="1200pt" version="1.1" viewBox="0 0 1200 1200" xmlns="http://www.w3.org/2000/svg">
 <path d="m512.44 578.72 91.414 29.977 30.406-47.484 107.93-0.60156-54.191-289.25c67.285-18.961 110.52-86.555 97.691-156.65-3.1328-16.98-9.4688-33.07-18.91-47.785-30.312-47.195-86.844-72.312-140.7-62.438-35.016 6.3477-65.734 25.922-86.52 55.129l-5.4102 7.5117-7.6445-5.0898c-29.93-19.859-65.652-27.301-100.61-20.941-35.965 6.6484-67.262 26.902-88.105 57.109-20.809 30.145-28.633 66.574-22.031 102.52 3.1328 17.074 9.4805 33.215 18.949 47.965 27.828 43.379 77.965 67.656 127.82 63.59z"/>
 <path d="m573.14 649.02-56.461 34.465-75.875-73.691-173.46 529.41 220.95 60.793 168.36-510.8z"/>
 <path d="m761.28 652.78-4.8242-41.988 175.87-20.293 4.8359 42.012z"/>
 <path d="m864.41 779.24-108.24-54.117 18.91-37.812 108.24 54.109z"/>
 <path d="m725.5 875.86-47.328-128.53 39.66-14.617 47.34 128.53z"/>
</svg>
