<?xml version="1.0" encoding="UTF-8"?>
<svg width="1200pt" height="1200pt" version="1.1" viewBox="0 0 1200 1200" xmlns="http://www.w3.org/2000/svg">
 <path d="m968.76 463.55h46.547v-46.312h-918.1c-49.453 0-89.766 48-89.766 106.92s40.312 106.92 89.766 106.92h918.24v-46.312h-46.547c-15.234-12.844-25.312-35.297-25.312-60.703 0-25.453 10.078-47.859 25.312-60.703zm-643.22 105.98c4.0781 4.4531 3.7031 11.297-0.70312 15.234-2.0625 1.9219-4.6875 2.7656-7.3125 2.7656-2.8594 0-5.8594-1.2188-8.0625-3.4688-14.391-15.844-22.312-36.703-22.312-58.922 0-23.859 9.375-46.547 25.688-62.531 4.3125-4.2188 11.156-4.0781 15.234 0.23438 4.2188 4.3125 4.0781 11.156-0.23437 15.234-12.234 11.859-19.219 29.062-19.219 47.062 0 16.781 5.8594 32.625 16.688 44.391zm66.844 0c4.0781 4.4531 3.7031 11.297-0.70312 15.234-2.0625 1.9219-4.6875 2.7656-7.3125 2.7656-2.8594 0-5.8594-1.2188-8.0625-3.4688-14.391-15.844-22.312-36.703-22.312-58.922 0-23.859 9.375-46.547 25.688-62.531 4.3125-4.2188 11.156-4.0781 15.234 0.23438 4.2188 4.3125 4.0781 11.156-0.23437 15.234-12.234 11.859-19.219 29.062-19.219 47.062 0 16.781 5.8594 32.625 16.688 44.391zm545.9 15.469h-452.86c-23.531 0-43.453-27.844-43.453-60.703s19.922-60.703 43.453-60.703h452.86c-11.156 16.547-17.859 37.688-17.859 60.703 0 23.062 6.7031 44.156 17.859 60.703z"/>
 <path d="m1098.7 211.22h47.156v-46.312l-918.24-0.046875c-49.453 0-89.766 46.781-89.766 104.16s40.312 104.16 89.766 104.16h918.24v-46.312h-47.156c-14.859-12.469-24.703-33.703-24.703-57.938s9.8438-45.469 24.703-57.938zm-852.1 103.08c4.0781 4.2188 3.8438 10.922-0.375 15-2.0625 1.9219-4.6875 2.8594-7.3125 2.8594-2.7656 0-5.625-1.0781-7.6875-3.2344-14.391-15.234-22.453-35.391-22.453-57 0-23.062 9.375-45 25.781-60.375 4.3125-3.9375 10.922-3.8438 15 0.46875 3.9375 4.3125 3.7031 10.922-0.46875 15-12.141 11.391-19.078 27.703-19.078 44.859 0 16.078 5.8594 31.078 16.547 42.375zm66.703 0c4.0781 4.2188 3.8438 10.922-0.375 15-2.0625 1.9219-4.6875 2.8594-7.3125 2.8594-2.7656 0-5.625-1.0781-7.6875-3.2344-14.391-15.234-22.453-35.391-22.453-57 0-23.062 9.375-45 25.781-60.375 4.3125-3.9375 10.922-3.8438 15 0.46875 3.9375 4.3125 3.7031 10.922-0.46875 15-12.141 11.391-19.078 27.703-19.078 44.859 0 16.078 5.8594 31.078 16.547 42.375zm207 0c4.0781 4.2188 3.8438 10.922-0.375 15-2.0625 1.9219-4.6875 2.8594-7.3125 2.8594-2.7656 0-5.625-1.0781-7.6875-3.2344-14.391-15.234-22.453-35.531-22.453-57 0-23.062 9.375-45 25.781-60.375 4.3125-3.9375 10.922-3.8438 15 0.46875 3.9375 4.3125 3.7031 10.922-0.46875 15-12.141 11.391-19.078 27.703-19.078 44.859 0 16.078 5.8594 31.078 16.547 42.375zm547.82 12.703h-452.29c-23.531 0-43.453-26.531-43.453-57.938 0-31.453 19.922-57.938 43.453-57.938h452.29c-10.781 15.844-17.297 36-17.297 57.938s6.4688 42.141 17.297 57.938z"/>
 <path d="m1132.5 720h58.781l0.14062-46.078-1002.1-1.5469v240.47l566.76 0.70312v119.62h65.766v-119.53l369.47 0.46875v-46.219l-58.781-0.14062v-147.94zm-598.08 143.76h-23.156v-144.47h23.156zm67.078 0h-23.156v-144.47h23.156zm507.84 4.0781-287.53-0.84375v-45.375h-65.766v45.141l-81.469-0.23438v-147.94l434.76 1.2188z"/>
</svg>
