<?xml version="1.0" encoding="UTF-8"?>
<svg width="1200pt" height="1200pt" version="1.1" viewBox="0 0 1200 1200" xmlns="http://www.w3.org/2000/svg">
 <path d="m601.96 446.12c2.1953-46.367-33.602-85.668-79.98-87.91-46.453-2.1719-85.766 33.574-87.996 79.969-2.1953 46.453 33.59 85.738 80.004 87.984 46.414 2.1445 85.801-33.52 87.973-80.043z"/>
 <path d="m1173.9 928.78-147.76-181.31c-8.6523-10.609-21.324-17.137-34.945-18.012l-178.71-11.738-27.648-68.578-73.871 34.055-10.754-22.129 163.21-78.121c14.914-7.7539 22.453-24.289 19.164-40.078-0.625-2.9766-1.6445-5.8789-3.0469-8.7852-8.9883-18.266-31.129-25.789-49.43-16.836l-83.758 43.25-22.871-54.289 174.36-133.31c7.2852-6.7695 12.047-16.355 12.516-27.086 0.79297-21.562-15.098-38.281-34.309-39.59-11.531-0.76953-21.133 2.5547-32.723 10.945l-247.33 188.68c-7.7656 7.2617-15.852 20.137-20.242 36.77-3.7695 14.352-1.1758 34.523 3.625 54.312 0.26562 3.6133 1.4023 6.9844 2.6758 10.32 8.4258 30.035 20.328 56.555 20.328 56.555l73.129 161.87c9.2031 17.988 24.77 32.027 43.68 39.887 1.5859 0.875 3.1094 1.8125 4.8359 2.4844l135.7 51.961-42.996 132.56c-8.375 25.812 5.7617 53.605 31.656 61.98 5.0625 1.6445 10.164 2.4375 15.18 2.4375 20.762 0 40.094-13.262 46.848-34.078l57.383-176.99c8.0625-24.898-4.7656-51.758-29.23-61.152l-63.289-24.227 88.066 5.7344 134.26 164.72c9.707 11.914 23.879 18.121 38.172 18.121 10.957 0 21.938-3.6016 31.078-11.051 21.086-17.176 24.266-48.184 7.0586-69.289z"/>
 <path d="m248.45 673.66c-13.008-1.7148-19.969-14.723-18.254-29.605l16.043-140.22s7.1055-41.449-9.1797-62.594c-13.309-17.219-52.355-24.238-52.355-24.238l-149.14-38.461c-11.016-2.5312-24.805-12.238-22.738-25.188 1.8359-11.555 17.207-16.656 30.191-14.832l218.28 21.277c14.93 1.7266 44.016 8.5078 57.215 24.719 13.559 16.598 14.074 38.027 10.5 55.766l-52.105 211.27c-4.5234 15.609-16.258 23.699-28.461 22.102z"/>
 <path d="m642.12 142.4c5.3633 0 10.57 0.64844 15.574 1.7891v-69.625h-31.152v69.625c5.0156-1.1406 10.215-1.7891 15.578-1.7891z"/>
 <path d="m604.66 153.28-49.262-49.246-22.02 22.02 49.246 49.246c5.6172-8.8828 13.145-16.406 22.035-22.02z"/>
 <path d="m571.74 212.79c0-5.3633 0.66016-10.547 1.7891-15.574h-69.625v31.152h69.625c-1.1289-5.0195-1.7891-10.215-1.7891-15.578z"/>
 <path d="m582.61 250.25-49.246 49.262 22.02 22.02 49.246-49.246c-8.8789-5.6055-16.406-13.141-22.02-22.035z"/>
 <path d="m642.12 283.16c-5.3516 0-10.559-0.66016-15.574-1.7891v69.625h31.152v-69.625c-5.0078 1.1289-10.215 1.7891-15.578 1.7891z"/>
 <path d="m701.63 250.25c-5.6172 8.8906-13.141 16.414-22.02 22.02l49.246 49.246 22.02-22.02z"/>
 <path d="m710.71 197.21c1.1406 5.0156 1.7891 10.211 1.7891 15.574s-0.66016 10.559-1.7891 15.574h69.637v-31.152z"/>
 <path d="m701.62 175.3 49.246-49.246-22.02-22.02-49.262 49.246c8.8945 5.6133 16.418 13.137 22.035 22.02z"/>
</svg>
