<?xml version="1.0" encoding="UTF-8"?>
<svg width="1200pt" height="1200pt" version="1.1" viewBox="0 0 1200 1200" xmlns="http://www.w3.org/2000/svg">
 <path d="m87.086 623.63-87.086 576.37h104.24l33.168-58.055 37.309 58.055h70.5l37.332-53.902 33.156 53.902h87.086s18.66-60.133 68.426-68.426c82.785-13.785 183.93 68.426 183.93 68.426l45.648-53.902 28.992 53.902h62.207l19.246-51.828 34.656 51.828h49.754l33.18-58.055 33.18 41.461 54.469-12.434 8.3047-58.043 45.035 37.309 53.902-20.746 74.641-33.168-20.734-103.67s0-20.734-33.168-41.473c-33.18-20.723-290.27-41.461-290.27-41.461l-45.613-70.5-41.461 24.887-16.609-62.207-37.309 16.598-4.1523-66.348-58.043 12.445 29.016-74.641-63.684 2.0742 31.078-80.867-50.316 8.2812-107.82-194.89h-45.613l-41.449 128.54s-29.027-24.875-128.55-8.2812c-99.508 16.605-186.58 78.812-186.58 78.812z"/>
</svg>
