<?xml version="1.0" encoding="UTF-8"?>
<svg width="1200pt" height="1200pt" version="1.1" viewBox="0 0 1200 1200" xmlns="http://www.w3.org/2000/svg">
 <path d="m782.55 1056.6c26.605-13.211 48.684-42.973 53.352-69.84-10.066-3.3359-20.762-5.0898-31.598-5.0898-13.402 0-27 2.7617-40.367 8.4492-7.3789 3.168-15.59-0.61328-18.613-8.4102-2.9648-7.7266 0.53906-16.586 7.9336-19.801 16.691-7.3203 34.008-10.68 51.047-10.68 11.988 0 23.566 1.6797 34.871 4.8359-0.25391-63.277-48.395-114.49-107.96-114.67h-0.21484c-0.15625 0-0.25391-0.058593-0.25391-0.058593-21.984 0-42.742-5.6289-60.949-15.289-17.305 21.359-26.074 47.977-26.074 74.902v1.6914c0.12109 0.46875 0 0.76953 0 1.1875 0.70703 27.707 10.812 55.117 30 76.754h0.097656c5.5664 6.0703 5.4375 15.602-0.44531 21.504-2.8203 2.7852-6.4453 4.1992-10.008 4.1992-3.6719 0-7.4023-1.5469-10.273-4.7266-21.59-24.023-34.141-54.277-37.246-85.176-7.1875-1.5977-14.641-2.4844-22.246-2.4844-17.004 0-34.211 4.3555-50.652 13.488-2.0742 1.3086-4.2227 1.8711-6.5508 1.8711-5.1367 0-10.188-2.9766-12.77-8.0156-3.707-7.4766-1.043-16.754 5.9766-20.699 20.438-11.594 42.383-17.062 63.996-17.062 7.5234 0 15.059 0.67188 22.246 1.8828 2.6641-27.133 12.66-53.605 29.652-75.898-16.645-14.293-30.406-32.785-39.121-53.879-23.773 18.312-52.055 27.562-80.039 27.562-9.9844 0-19.766-1.2461-29.566-3.4805-9 70.871-66.359 125.57-135.38 125.57l-0.19141-0.003906h-1.5352c-29.316 0-55.945 12.215-75.48 32.438-2.7734 2.8906-6.3945 4.3086-9.6484 4.3086-3.9102 0-7.668-1.5234-10.402-4.5859-5.6992-5.9883-5.543-15.672 0.25391-21.539 24.625-25.547 58.453-41.148 95.281-41.148h1.5859 0.16797c9.7305 0 18.926-1.3672 27.875-3.9492-13.309-19.211-31.848-34.309-54.863-42.086-7.6094-2.4961-11.484-11.039-9.3594-19.043 2.4492-8.0625 10.488-12.492 18.203-9.9492 30.996 10.488 56.258 31.969 73.031 59.074 29.051-18.359 49.801-51.059 52.633-89.027-14.16-7.0312-27.469-16.727-39.301-29.242-5.6406-6.0117-5.6406-15.648 0-21.562 5.6289-5.9531 14.734-5.9531 20.27 0 11.531 12.289 24.863 21.156 39.395 26.723 0.12109 0.046875 0.32422 0.085938 0.32422 0.085938 11.773 4.5586 24.277 6.9375 36.742 6.9375 25.234 0 50.41-9.4453 70.645-28.078-1.8125-9.2773-2.7227-18.758-2.7227-28.668 0-8.3516 6.3594-15.289 14.484-15.289 7.7266 0 14.184 6.9375 14.184 15.289 0.097656 58.727 41.258 106.95 94.668 114.11 3.5625-33.73 17.797-63.973 39.098-86.676 5.6055-5.9883 14.809-5.9883 20.398 0 5.4844 5.8906 5.4844 15.574 0 21.516-16.656 17.711-27.695 40.945-30.73 67.043 45.48 5.293 84.312 34.5 105.14 75.637 26.004-3.6953 48.816-17.09 65.711-36.684 5.3164-6.1328 14.219-6.625 20.172-0.96094 5.9414 5.6289 6.3008 15.312 0.94922 21.574-19.391 22.789-45.828 38.914-75.758 45.059 3.4453 12.625 5.3984 26.051 5.3984 39.852 0 0.20312-0.21484 0.38281-0.21484 0.50391 0.32422 30.602-6.9258 56.09-20.016 77.426 36.91 35.965 160.75 21.672 171.67-69.371 3.9102-32.746-10.5-63.371-27.91-87.73 3.0234-12 4.6445-24.625 4.6445-37.727 0-65.281-40.645-120.42-96.516-138.41-21.227-50.473-68.844-85.691-123.89-85.691-11.016 0-21.527 1.5-31.754 4.1055-24.277-23.965-56.746-38.746-92.387-38.746-27.742 0-53.52 8.8672-75.035 24.098-19.066-10.945-40.777-17.09-63.984-17.09-46.754 0-88.066 25.043-112.62 63.238-3.2539-0.19141-6.3945-0.49219-9.8633-0.49219-65.195 0-119.39 48.684-132.79 113.73-49.621 22.5-84.301 74.82-84.301 135.79 0 81.562 62.074 147.74 138.88 147.74 27.938 0 54.012-8.8555 75.648-23.988 21.742 15.73 47.988 24.887 76.309 24.887 28.223 0 54.469-9.3125 76.344-25.141 84.883 57.742 182.24 62.949 242.33 33.07z"/>
 <path d="m1039.2 222.1v-127.39h-391.46c4.6211-8.4258 7.4883-17.941 7.4883-28.199 0-32.555-26.387-58.957-58.945-58.957-32.578 0-58.969 26.387-58.969 58.957 0 10.262 2.8672 19.777 7.5 28.199h-397.29v129.17c-55.309 18.371-95.363 70.523-95.363 131.94v692.61c0 76.68 62.387 139.05 139.07 139.05h810.12c76.68 0 139.05-62.375 139.05-139.05v-692.61c0-63.566-42.875-117.17-101.2-133.71zm-847.98 53.805h810.12c44.039 0 79.871 35.855 79.871 79.906v110.94l-969.89 0.003906v-110.94c0-44.066 35.844-79.91 79.895-79.91zm810.12 852.39h-810.12c-44.051 0-79.895-35.832-79.895-79.871v-540.75h969.89v540.74c0.011719 44.043-35.832 79.875-79.871 79.875z"/>
</svg>
