<?xml version="1.0" encoding="UTF-8"?>
<svg width="1200pt" height="1200pt" version="1.1" viewBox="0 0 1200 1200" xmlns="http://www.w3.org/2000/svg">
 <path d="m1198.8 988.39h-407.33v211.61h264.5v-156.06h142.82z"/>
 <path d="m894.8 189.23c0 34.391-27.879 62.27-62.27 62.27s-62.266-27.879-62.266-62.27c0-34.387 27.875-62.266 62.266-62.266s62.27 27.879 62.27 62.266z"/>
 <path d="m919.73 326.23c0 20.641-16.73 37.371-37.367 37.371s-37.367-16.73-37.367-37.371c0-20.637 16.73-37.367 37.367-37.367s37.367 16.73 37.367 37.367z"/>
 <path d="m1048.9 223.49c0 24.926-20.23 45.133-45.156 45.133-24.898 0-45.156-20.207-45.156-45.133 0-24.949 20.258-45.156 45.156-45.156 24.934 0 45.156 20.207 45.156 45.156z"/>
 <path d="m1032.7 379.18c0 15.961-12.938 28.895-28.895 28.895-15.961 0-28.898-12.934-28.898-28.895 0-15.957 12.938-28.895 28.898-28.895 15.957 0 28.895 12.938 28.895 28.895z"/>
 <path d="m663.41 681.23c-10.992-10.344-28.344-9.8047-38.746 1.2227-33.949 36.086-79.332 57.203-127.81 59.438-48 2.207-93.742-14.594-128.44-47.207-71.184-66.926-73.055-180.94-4.7148-255.12 0.43359-0.40625 0.99609-0.74219 1.4141-1.1992 49.586-52.801 131.46-56.746 182.46-8.7969 50.125 47.062 51.91 127 4.7891 179.9-0.92578 0.75781-1.8594 1.4883-2.7344 2.3984-29.629 31.535-78.406 34.031-108.61 5.6172-29.82-28.105-30.625-75.996-2.0898-107.5 0.40625-0.39453 0.83984-0.66016 1.2617-1.0781 4.7148-5.0039 11.016-8.0039 17.773-8.3047 6.3477-0.20312 12.469 1.8594 16.98 6.1211 4.5703 4.2227 7.1172 10.164 7.2344 16.703 0.097656 6.7188-2.4844 13.141-7.1875 18.18-10.391 11.004-9.875 28.379 1.1523 38.773 5.293 4.957 12.059 7.4766 18.781 7.4766 7.2969 0 14.555-2.8906 19.969-8.6523 14.555-15.422 22.379-35.496 22.129-56.555-0.32422-21.457-9-41.328-24.516-55.922-15.457-14.531-35.914-21.828-57.203-20.914-19.523 0.94922-37.777 8.8789-51.887 22.391-1.1758 0.9375-2.3516 1.8242-3.3828 2.9648-50.363 53.496-48.852 137.06 3.3828 186.27 24.672 23.172 56.281 34.598 88.105 34.598 33.539 0 67.273-12.875 93.301-38.027 1.8125-1.1758 3.5898-2.4961 5.1719-4.1992 70.32-74.891 68.172-191.59-4.8594-260.21-71.723-67.402-185.38-63.602-256.05 7.3906-1.4531 1.0781-2.8555 2.2695-4.1172 3.6367-90.406 96.168-87.742 246 5.8438 333.98 42.938 40.379 98.531 62.281 157.66 62.281 3.5625 0 7.2109-0.085937 10.859-0.25391 62.797-2.8555 121.52-30.047 165.31-76.633 10.371-10.984 9.832-28.359-1.2227-38.777z"/>
 <path d="m508.08 207.71v79.262c143.14 16.883 254.24 138.46 254.24 286.12 0 159.24-129.1 288.31-288.31 288.31-159.23 0-288.3-129.07-288.3-288.31 0-141.95 102.66-259.67 237.73-283.6v-79.969c-148.09 20.785-277.05 135.14-306.02 260.21-7.1055 30.742-15.168 111.1-15.168 111.1l-99.973 210.28c-1.5234 3.4453-2.2695 7.4414-2.2695 11.531 0 16.367 13.211 29.676 29.652 29.676h72.59v86.594c0 110.91 64.992 145.43 145.27 145.43h49.285l0.003906 135.67h401.72v-307.74c85.754-67.402 140.93-200.24 140.93-317.77-0.011719-191.1-145.23-348.14-331.38-366.78z"/>
</svg>
