<?xml version="1.0" encoding="UTF-8"?>
<svg width="1200pt" height="1200pt" version="1.1" viewBox="0 0 1200 1200" xmlns="http://www.w3.org/2000/svg">
 <path d="m490.92 371.55-83.629-84.406 26.496-26.27 83.641 84.375z"/>
 <path d="m601.03 365.82h-37.344v-171.46h37.344z"/>
 <path d="m674.12 355.32-27.145-25.68 105.8-112.03 27.129 25.668z"/>
 <path d="m513.25 457.23-91.562 16.621-21.145-91.066-96.07 103.12 110.23 106.63-17.316 17.941-109.89-106.33-35.219 37.824 71.961 68.41-17.16 18.039-71.781-68.234-33.891 36.383 111.35 105.23-17.113 18.082-111.23-105.06-33.297 35.773 71.398 69.156-17.305 17.879-71.074-68.844-35.438 38.062 112.16 104.16-16.918 18.227-112.2-104.2-69.285 74.391 173.04 161.25 371.09-398.36z"/>
 <path d="m1135 748.78-125.6 87.574-14.234-20.422 125.34-87.434-29.781-41.617-80.918 57.301-14.375-20.316 80.809-57.238-28.719-40.164-125.04 88.414-14.387-20.305 124.94-88.367-28.055-39.238-82.344 55.918-14.004-20.613 81.852-55.574-29.734-41.566-125.32 88.332-14.316-20.352 125.17-88.238-30.145-42.133-80.137 58.453-14.688-20.137 80.363-58.535-42.586-59.52-128.44 27.672 5.0508 60.574-89.266 21.027 356.95 499.05 192.26-137.75z"/>
</svg>
