<?xml version="1.0" encoding="UTF-8"?>
<svg width="1200pt" height="1200pt" version="1.1" viewBox="0 0 1200 1200" xmlns="http://www.w3.org/2000/svg">
 <path d="m797.27 601.22 0.17969 0.10938c16.691 10.32 102.83 45.707 199.33-44.762 38.746-39.336 57.07-99.289 57.07-99.289s-41.184 18.562-73.344 6.1445c-21.758-8.4727-43.441-34.5-47.566-39.625-10.031-11.34-22.465-20.965-37.055-27.551-56.746-25.738-123.71-0.023438-149.53 57.254-25.059 55.836-2.1992 120.2 50.914 147.72z"/>
 <path d="m1156.7 1049-98.281-306.66c-10.5-36.91-70.355-102.38-151.23-102.38h-150.24l-277.45-287.44c-18.684-19.344-49.453-19.883-68.773-1.2109-4.4883 4.3086-7.8125 9.3008-10.262 14.641l-0.10938-0.035157c-0.10938 0.27734-0.21484 0.5625-0.34766 0.85156-0.16797 0.38281-0.30078 0.76953-0.46875 1.1992-4.1523 9.9258-4.6094 18.852-2.9297 26.762 0.011718 0.058594 0.011718 0.12109 0.035156 0.17969 0.34766 1.6914 0.80469 3.2891 1.3438 4.8828 2.1367 7.3672 5.832 14.387 11.508 20.293l0.28906 0.28906c1.7539 2.2305 3.5391 4.3203 5.1367 6.1914l290.14 339.29s-72.66 206.16-104.1 349.41h397.39c-22.668-176.03-51.852-315.8-51.852-315.8h31.738l88.559 280.87c21.035 64.945 110.35 38.254 89.914-31.332z"/>
 <path d="m546.24 274.25 11.328-48.812 637.04 131.52-11.34 48.805z"/>
 <path d="m4.2109 315.61 361.57-95.246 11.352 44.195-361.61 95.223z"/>
 <path d="m650.53 385.93-142.57-90.531-15.41 22.395 142.55 90.562z"/>
 <path d="m314.4 332.54-146.42 48.805 83.664 20.918-20.918 69.742h76.707z"/>
 <path d="m207.17 94.801 113.35-37.355 23.738 119.68z"/>
 <path d="m491.3 186.12 56.109-137.68 64.141 107.46z"/>
 <path d="m735.37 160.8 46.406 46.223 24.203-45.516-24.012-49.969z"/>
 <path d="m344.26 619.36 52.727 52.523 27.492-51.66-27.312-56.758z"/>
 <path d="m418.6 105.74-27.457 54.891 61.762 27.457z"/>
</svg>
