<?xml version="1.0" encoding="UTF-8"?>
<svg width="1200pt" height="1200pt" version="1.1" viewBox="0 0 1200 1200" xmlns="http://www.w3.org/2000/svg">
 <path d="m476.52 162.43c31.945 0 57.887-25.957 57.887-57.887 0-32.062-25.945-57.938-57.887-57.938-32.102 0-57.973 25.871-57.973 57.938 0 31.93 25.875 57.887 57.973 57.887z"/>
 <path d="m962.55 526.34h-126.43s42.395-166.85 40.246-256.96c-1.1289-46.957-15.73-77.328-15.73-77.328s-31.754-68.438-90.383-28.789c0 0-7.7891 5.6289-8.0273 5.7852l-163.74 155.44-163.74-155.44c-0.27734-0.15625-8.0625-5.7852-8.0625-5.7852-58.609-39.648-90.395 28.789-90.395 28.789s-14.566 30.383-15.695 77.328c-2.1484 90.109 40.199 256.96 40.199 256.96h-126.39c-19.32 0-36.887 11.617-36.887 33.254 0 19.32 16.008 30.707 35.293 30.707l169 0.085937c19.285 0 35.734-18.406 35.809-37.777 0 0 16.414-185.26 17.977-276.45l120.85 115.11c6.1445 5.8672 14.039 8.6992 21.91 8.6992h0.23828c7.8594 0 15.73-2.832 21.91-8.6992l120.82-115.11c1.6445 91.188 17.965 276.45 17.965 276.45 0.12109 19.367 16.609 37.777 35.844 37.777l169.01-0.085937c19.273 0 35.281-11.375 35.281-30.707 0.027343-21.637-17.492-33.254-36.863-33.254z"/>
 <path d="m203.3 1152c0-155.4 112.79-287.06 269.22-334.05v-201.78h-463.25v544.33h194.51c-0.074218-2.8672-0.48047-5.6289-0.48047-8.4961z"/>
 <path d="m720.49 616.18v200.51c158.54 45.863 273.25 178.59 273.25 335.33 0 2.8672-0.39453 5.6289-0.46875 8.4961h194.51v-544.33z"/>
 <path d="m713.87 156.04 0.16797 0.035156c0.86328 0.15625 1.7773 0.48047 2.7109 0.58984 0.75781 0.085938 1.3906-0.035156 2.1719 0 15.434 1.3555 62.785 0.5625 85.633-56.004 9.6602-23.953 11.977-59.172 11.977-59.172s-17.207 16.129-35.102 15.168c-11.965-0.55078-26.902-10.055-29.664-11.941-6.8281-4.0312-14.461-6.793-22.691-7.7148-32.102-3.4688-60.758 20.484-64.152 53.461-3.2617 32.086 18.398 60.586 48.949 65.578z"/>
</svg>
