<?xml version="1.0" encoding="UTF-8"?>
<svg width="1200pt" height="1200pt" version="1.1" viewBox="0 0 1200 1200" xmlns="http://www.w3.org/2000/svg">
 <path d="m528.39 390.84s18.238-71.387 66.133-78.863c47.879-7.4531 77.004 22.367 116.4-8.3164 39.312-30.625 56.566-77.387 56.566-77.387l-62.914-215.65s-55.078 86.93-83.34 125.63c-28.344 38.746-68.148-6.9258-111.95 37.031-63.574 63.754 19.105 217.56 19.105 217.56z"/>
 <path d="m514.21 452.14-70.078-191.09c-3.6133-9.8633-14.52-14.891-24.383-11.281-9.8398 3.6133-14.902 14.496-11.293 24.371l70.164 191.32c-124.77 57.266-192.06 194.82-161.52 328.17l543.89-191.26c-61.871-127.86-209.04-192.96-346.78-150.23z"/>
 <path d="m376.98 913.64c22.883-11.09 49.621-16.668 74.305-16.668 26.699 0 53.426 5.5781 76.297 16.668 20.988 9.1562 45.73 14.699 72.406 14.699 24.863 0 49.598-5.543 72.457-14.699 22.883-11.09 47.711-16.668 74.387-16.668 26.652 0 51.504 5.5781 74.316 16.668 0.70703 0.27734 1.4141 0.48047 2.125 0.74219 56.605-68.352 80.676-161.05 59.242-251.69l-544.45 191.45c10.391 21.84 23.473 41.676 38.352 59.723 0.19531-0.10547 0.38672-0.16797 0.56641-0.22656z"/>
 <path d="m1114.7 1093.1c-20.914-11.09-47.676-16.633-74.352-16.633s-51.469 5.543-74.375 16.633c-20.891 9.1914-45.707 14.664-72.383 14.664-24.758 0-49.57-5.4727-72.457-14.664-22.812-11.09-47.676-16.633-74.316-16.633-26.688 0-51.504 5.543-74.387 16.633-22.848 9.1914-47.594 14.664-72.457 14.664-26.676 0-51.422-5.4727-72.406-14.664-22.883-11.09-49.598-16.633-76.297-16.633-24.695 0-51.422 5.543-74.305 16.633-21.012 9.1914-45.77 14.664-72.457 14.664-24.781 0-49.57-5.4727-72.422-14.664-22.934-11.09-47.699-16.633-74.352-16.633-26.711 0-51.457 5.543-74.387 16.633-22.848 9.1914-47.641 14.664-72.457 14.664v-104.93c24.816 0 49.598-5.5195 72.457-14.734 22.934-11.062 47.676-16.5 74.387-16.5 26.652 0 51.434 5.4375 74.352 16.5 22.848 9.2148 47.641 14.734 72.422 14.734 26.688 0 51.445-5.5195 72.457-14.734 22.883-11.062 49.621-16.5 74.305-16.5 26.699 0 53.426 5.4375 76.297 16.5 20.988 9.2148 45.73 14.734 72.406 14.734 24.863 0 49.598-5.5195 72.457-14.734 22.883-11.062 47.711-16.5 74.387-16.5 26.652 0 51.504 5.4375 74.316 16.5 22.883 9.2148 47.699 14.734 72.457 14.734 26.688 0 51.492-5.5195 72.383-14.734 22.906-11.062 47.699-16.5 74.375-16.5s53.438 5.4375 74.352 16.5c22.883 9.2148 47.641 14.734 74.352 14.734v104.93c-26.723-0.015624-51.465-5.4844-74.352-14.664z"/>
</svg>
