<?xml version="1.0" encoding="UTF-8"?>
<svg width="1200pt" height="1200pt" version="1.1" viewBox="0 0 1200 1200" xmlns="http://www.w3.org/2000/svg">
 <path d="m787.38 441.31v158.05c0 25.023 35.785 21.738 35.785 0v-91.785c0-70.43 93.285-69.309 93.285 0v692.43h-426.14v-132.74s-198.52-121.26-198.52-193.31v-364.12c0-77.094 102.55-76.332 102.55 0v209.86c0 22.547 39.191 22.547 39.191 0v-567.28c0-62.738 94.117-62.738 94.117 0v446.93c0 22.832 35.762 22.832 35.762 0v-215.57c0-69.977 94.094-69.977 94.094 0v215.57c0 21.738 35.785 21.738 35.785 0v-158.05c-0.019531-71.336 94.102-66.934 94.102 0.019532z"/>
 <path d="m373.57 255.26c-8.7617 0-17.355-4.2148-22.645-12-17.355-25.668-26.523-55.691-26.523-86.785 0-85.57 69.617-155.21 155.19-155.21 85.547 0 155.17 69.617 155.17 155.21 0 30.191-8.668 59.453-25.094 84.645-8.2148 12.617-25.145 16.215-37.762 7.9531s-16.191-25.145-7.9531-37.762c10.645-16.309 16.262-35.262 16.262-54.832 0-55.5-45.145-100.64-100.59-100.64-55.477 0-100.62 45.145-100.62 100.64 0 20.168 5.9531 39.617 17.168 56.215 8.4297 12.5 5.168 29.453-7.332 37.883-4.6953 3.1836-10.008 4.6836-15.27 4.6836z"/>
</svg>
