<?xml version="1.0" encoding="UTF-8"?>
<svg width="1200pt" height="1200pt" version="1.1" viewBox="0 0 1200 1200" xmlns="http://www.w3.org/2000/svg">
 <path d="m1046.2 347.17c-7.4766-6.9961-16.859-10.609-26.328-11.004v-328.92h-844.4v328.89c-9.8984 0.12109-19.777 3.7305-27.574 11.027-16.57 15.492-17.461 41.484-1.9688 58.066l29.543 31.609v753.6h844.4v-754.93l28.297-30.266c15.492-16.582 14.613-42.574-1.9688-58.066zm-738.41 790.64h-79.703l-0.003906-477.05h79.703zm0-529.67h-79.703v-115l76.906 82.285c0.88672 0.94922 1.8242 1.8359 2.7852 2.6875l-0.003907 30.023zm0-150.07-79.703-85.262-0.003906-312.93h79.703zm132.13 679.74h-79.512v-477.05h79.512zm0-529.67h-79.512v-28.535c1.7891-1.4023 3.5039-2.9297 5.0391-4.6328l74.473-82.117zm0-237.61-79.512 87.684v-398.34h79.512zm52.633-310.66h79.512v79.777c-38.316 10.922-66.422 46.117-66.422 87.949s28.094 77.016 66.422 87.938v20.688l-79.512-0.035157zm132.14 1077.9h-52.621v-352.82h52.621zm79.523-801.53-79.523-0.035156v-21.383c37.078-11.699 63.961-46.344 63.961-87.266 0-40.934-26.879-75.574-63.961-87.277v-80.449h79.523zm132.12 801.53h-79.512v-477.05h79.512zm0-529.67h-79.512v-112.34l71.785 79.176c2.3047 2.5312 4.9219 4.7148 7.7266 6.5742zm0-146.96-79.512-87.684v-313.62h79.512zm130.91 676.63h-78.266l0.003907-477.05h78.266zm0-529.67h-78.266v-32.617c0.035157-0.023438 0.070313-0.058594 0.097657-0.097656l78.18-83.629v116.34zm0-236.68-78.266 83.746 0.003907-395.34h78.266z"/>
</svg>
