<?xml version="1.0" encoding="UTF-8"?>
<svg width="1200pt" height="1200pt" version="1.1" viewBox="0 0 1200 1200" xmlns="http://www.w3.org/2000/svg">
 <path d="m852.01 1147.2v-214.8h-546.16v214.8h-35.77v44.953h620.89v-44.953z"/>
 <path d="m305.86 672.65h546.16v228.98h-546.16z"/>
 <path d="m1134.3 669.31c-3.6133-24.91-26.734-42.168-51.625-38.555-0.070312 0-8.7852 0.39453-17.316-3.2656-5.0742-2.1719-20.543-8.7617-26.305-45.059-2.4258-15.359 8.2812-45.504 13.465-60.012 0-0.023437 0.023438-0.035156 0.023438-0.046875 1.957-5.4961 3.9727-11.039 6.0234-16.645 12.168-33.203 25.945-70.848 28.332-108.61 3.1797-50.074-14.039-91.297-51.168-122.55-44.664-37.586-95.734-52.906-147.65-44.34-77.207 12.742-139.48 74.293-175.67 119.2h129.25c19.297-14.578 40.234-25.824 61.262-29.293 25.535-4.2227 49.766 3.6836 74.102 24.145 30.047 25.297 21.359 60.758-4.043 130.14-2.1484 5.8438-4.2617 11.652-6.3125 17.387v0.046875c-11.496 32.207-23.242 69.516-17.641 104.87 14.891 94.02 81.492 125.33 131.05 125.33 5.4492 0 10.691-0.38281 15.637-1.1055 24.934-3.6094 42.191-26.723 38.578-51.621zm-36.805 15.781c-4.3086 6.457-13.055 8.2188-19.512 3.8984-6.457-4.3438-8.1836-13.078-3.875-19.535s13.055-8.1953 19.512-3.8867c6.457 4.3398 8.1836 13.066 3.875 19.523z"/>
 <path d="m498.16 142.14c1.7031-0.43359 41.797-10.105 53.41 19.922 2.375 6.1562 3.6836 11.797 3.9727 17.258v0.011719c0.75781 15.551-6.8984 30.59-19.453 53.844-15.684 29.039-35.977 66.742-31.836 116.24h91.812c-4.7656-24.852 4.1758-43.223 20.23-72.973 15.168-28.066 32.328-59.914 30.254-101.69v-0.011718c-0.75781-15.098-4.1406-30.422-9.9844-45.574-32.281-83.398-119.14-85.789-160.55-75.422-24.406 6.1211-39.227 30.875-33.121 55.273 6.0977 24.418 30.852 39.238 55.262 33.117zm-21.109-54.301c4.3086-6.457 13.066-8.1953 19.523-3.8633 6.457 4.3086 8.1836 13.02 3.8633 19.5-4.3086 6.457-13.055 8.207-19.512 3.8867-6.4531-4.332-8.1836-13.066-3.875-19.523z"/>
 <path d="m270.09 378.67v44.953h35.77v218.24h546.16v-218.24h38.965v-44.953z"/>
 <path d="m456.13 236.69c-44.914-56.785-100.77-62.074-141.55-65.93-36.227-3.4453-52.848-5.8203-67.414-26.531-17.242-24.539 8.125-50.543 13.066-55.223 18.562-16.812 19.98-45.504 3.1797-64.066-16.824-18.574-45.516-19.98-64.066-3.168-31.5 28.523-77.578 101.75-26.41 174.6 39.215 55.824 93.48 60.961 133.11 64.703 38.148 3.6133 58.98 6.6719 78.805 31.715 3.7305 5.7344 5.3047 27.926 0.42188 56.641h91.766c4.6445-37.129 3.3242-82.117-20.902-112.74zm-230.03-168.97c-7.7773 0-14.062-6.2891-14.062-14.051 0-7.7656 6.2891-14.074 14.062-14.074 7.7539 0 14.062 6.3125 14.062 14.074 0 7.7656-6.3125 14.051-14.062 14.051z"/>
</svg>
