<?xml version="1.0" encoding="UTF-8"?>
<svg width="1200pt" height="1200pt" version="1.1" viewBox="0 0 1200 1200" xmlns="http://www.w3.org/2000/svg">
 <path d="m452.12 687.62c-83.906 0-151.95 68.047-151.95 151.76 0 83.977 68.047 151.74 151.95 151.74 83.785 0 151.62-67.762 151.62-151.74 0.003906-83.711-67.828-151.76-151.62-151.76zm0 217.5c-36.5 0-65.953-29.57-65.953-65.738 0-36.191 29.453-65.762 65.953-65.762 36.238 0 65.617 29.57 65.617 65.762 0.003906 36.145-29.379 65.738-65.617 65.738z"/>
 <path d="m757.26 703.52c-10.43-72.785-18.309-116.07-55.215-147.79-31.332-26.832-76.977-24.594-76.977-24.594l-294.45 0.38281-135.09-220.34c-6.332-9.832-29.355-35.191-75.906-35.191h-119.62v58.57h111s15.406-0.80859 27.691 10.855c6.7852 6.0703 11.5 12 23.645 32.023l94.883 159.62-256.41 0.003906v289.12h251.95c6.4297-105.21 93.094-188.93 200.14-188.93 107.02 0 193.5 83.715 199.71 189.21h79.855c20.715 0 40.262-12.977 37.668-37.715z"/>
 <path d="m917.55 672.12c11.738-11.668 11.953-30.617 0.42969-42.406-11.691-11.832-30.715-12.094-42.406-0.5-11.883 11.668-12.047 30.668-0.47656 42.453 11.621 11.812 30.621 12.027 42.453 0.45313z"/>
 <path d="m919.91 715.81c9.8086 13.406 6.8828 32.191-6.4531 41.953-13.453 9.6914-32.145 6.8086-41.953-6.5234-9.8086-13.43-6.8828-32.145 6.4531-41.977 13.453-9.7148 32.215-6.7852 41.953 6.5469z"/>
 <path d="m846.52 679.09c9.7852 13.453 6.8828 32.238-6.5 41.953-13.453 9.6914-32.094 6.8086-41.953-6.5234-9.7617-13.383-6.8828-32.145 6.5-41.953 13.406-9.7383 32.191-6.8086 41.953 6.5234z"/>
 <path d="m840.86 597.21c9.8086 13.453 6.8555 32.238-6.4531 41.953-13.477 9.7383-32.145 6.8086-41.977-6.4766-9.8086-13.43-6.8828-32.191 6.4531-41.977 13.477-9.7383 32.238-6.8086 41.977 6.5z"/>
 <path d="m1134.9 864.17c10.332 14.191 30.285 17.355 44.547 6.9766 14.191-10.43 17.215-30.332 6.8086-44.57-10.332-14.215-30.238-17.191-44.383-6.8828-14.355 10.309-17.379 30.285-6.9727 44.477z"/>
 <path d="m1039 824.69c9.8555 13.309 28.617 16.332 41.977 6.5 13.355-9.8555 16.285-28.617 6.5234-41.953-9.7617-13.355-28.645-16.332-41.906-6.5-13.379 9.8555-16.355 28.523-6.5938 41.953z"/>
 <path d="m949.31 784.62c9.7148 13.383 28.477 16.285 41.832 6.5703 13.453-9.8086 16.383-28.594 6.5703-42-9.8086-13.355-28.477-16.238-41.953-6.5234-13.473 9.8125-16.352 28.504-6.4492 41.953z"/>
 <path d="m919.79 587.86c10.023-13.191 7.4531-32.023-5.5703-42.117-13.285-10.094-32.07-7.5703-42.145 5.5469-10.023 13.215-7.5 32.07 5.668 42.168 13.117 10.07 31.93 7.5 42.047-5.5977z"/>
 <path d="m1141.2 720.88c13.262-11.406 33.238-9.6914 44.453 3.5938 11.355 13.43 9.7383 33.355-3.668 44.645-13.285 11.309-33.238 9.5703-44.477-3.6914-11.332-13.406-9.6641-33.238 3.6914-44.547z"/>
 <path d="m1140.5 630.45c12.406-12.168 32.383-11.953 44.547 0.47656 12.168 12.43 12 32.43-0.5 44.645-12.406 12.168-32.383 11.906-44.547-0.5s-12-32.43 0.5-44.621z"/>
 <path d="m1139.9 534.48c11.57-13.094 31.617-14.355 44.645-2.7852 13.094 11.594 14.355 31.547 2.7617 44.617-11.57 13.094-31.547 14.332-44.645 2.7852-13-11.523-14.43-31.617-2.7617-44.617z"/>
 <path d="m1139.2 435.57c10.738-13.953 30.617-16.691 44.738-5.9531 13.832 10.691 16.691 30.715 5.9531 44.668-10.668 14-30.715 16.668-44.645 5.9297-14.023-10.621-16.645-30.57-6.0469-44.645z"/>
 <path d="m1044.9 705.38c12.5-10.668 31.191-9.168 41.93 3.4766 10.547 12.5 8.9766 31.262-3.5234 41.93-12.523 10.594-31.285 8.9766-41.906-3.4531-10.691-12.645-9.1445-31.312 3.5-41.953z"/>
 <path d="m1044 630.74c11.668-11.5 30.453-11.332 42 0.47656 11.453 11.691 11.215 30.477-0.52344 41.953-11.617 11.453-30.406 11.383-41.977-0.42969-11.5-11.715-11.141-30.5 0.5-42z"/>
 <path d="m1043.3 554.81c10.785-12.406 29.668-13.547 42-2.6445 12.355 10.883 13.477 29.738 2.4766 42-10.738 12.406-29.617 13.5-41.883 2.6445-12.402-10.926-13.57-29.832-2.5938-42z"/>
 <path d="m1042.5 475.95c10.117-13.191 29-15.715 42.047-5.668 13.238 10.094 15.738 28.832 5.7148 42.07-10.117 13.168-29 15.645-42.047 5.6172-13.168-10.066-15.691-28.828-5.7148-42.02z"/>
 <path d="m954.52 667.36c12.332-10.832 31.094-9.7617 42 2.5469 10.855 12.309 9.8086 31.094-2.4766 41.953-12.383 10.906-31.215 9.7383-42-2.4766-10.93-12.285-9.7852-31.07 2.4766-42.023z"/>
 <path d="m953.24 592.14c11.262-12 29.93-12.715 41.977-1.6445 12.047 11.262 12.785 30 1.6172 42.047-11.238 12-29.906 12.809-42.047 1.5938-11.93-11.117-12.715-29.949-1.5469-41.996z"/>
 <path d="m951.93 516.81c10.07-13.191 28.93-15.691 42.094-5.5938 13.191 10.094 15.691 28.883 5.5703 41.977-9.9766 13.262-28.855 15.785-41.953 5.6445-13.164-10.027-15.758-28.836-5.7109-42.027z"/>
</svg>
