<?xml version="1.0" encoding="UTF-8"?>
<svg width="1200pt" height="1200pt" version="1.1" viewBox="0 0 1200 1200" xmlns="http://www.w3.org/2000/svg">
 <path d="m1111.5 145.69c12.844-45.469 22.453-103.08-1.7812-125.39-19.078-17.531-85.312 50.062-104.39 70.219-13.781-2.1562-27.703-3.1406-41.156-3.1406-14.156 0-28.781 1.0781-43.312 3.4688-18.609-19.781-85.453-88.219-104.62-70.547-24.703 22.688-14.297 81.844-1.2188 127.69-12.609 17.625-20.156 39.469-20.156 66.469 0 84.938 75.469 187.55 169.22 187.55 93.703 0 169.22-102.61 169.22-187.55 0-28.078-8.2969-50.766-21.844-68.766zm-182.68 85.688c-4.2188 13.312-24 21.469-40.453 12.375-18.375-10.219-23.297-35.391-23.297-35.391s17.297-8.0625 39.375-5.5312c17.531 1.9219 28.453 15.703 24.375 28.453zm111 12.328c-16.453 9.1406-36.234 0.9375-40.453-12.375-4.0781-12.703 6.8438-26.531 24.375-28.453 21.938-2.5312 39.375 5.5312 39.375 5.5312s-4.9219 25.219-23.297 35.391z"/>
 <path d="m1098.6 1075.8h-28.547l-71.391-226.78c18.609-23.531 40.781-57.141 57.234-99.609 83.859-215.63 37.547-329.76 20.062-361.55-33.609 27.703-72.375 42.703-111.94 42.703-51.469 0-101.53-25.219-140.63-70.922-8.5312-9.9375-16.312-20.766-23.156-31.922-73.688 16.312-160.69 57-247.22 146.76-204.71 212.29-213.84 444.14-202.55 558.71-21.844 12-52.781 26.859-85.078 35.391-43.219 11.391-89.766 6.7031-113.16-11.531-8.0625-6.2344-18.609-17.625-18.234-44.859 0.46875-37.688 19.453-49.219 73.688-72.703 45.703-19.781 114.7-49.688 114.7-131.53 0-56.297-23.766-90-43.688-108.47-47.531-44.062-113.77-40.453-121.22-39.844-29.625 2.2969-51.703 28.078-49.547 57.703 2.2969 29.625 27.938 51.703 57.703 49.547 3.8438-0.375 28.219 0.60938 39.938 11.531 2.2969 2.1562 9.2344 8.5312 9.2344 29.625 0 9-9.8438 15.469-49.922 32.859-51.375 22.219-137.29 59.391-138.47 170.16-0.70313 69.141 32.062 109.31 59.625 130.78 37.922 29.531 86.062 40.312 131.53 40.312 26.859 0 52.781-3.7031 75.234-9.7031 54.141-14.297 103.45-40.922 129.61-56.766-1.2188 4.4531-1.9219 9-1.9219 13.922 0 29.625 24.141 53.766 53.766 53.766h382.69c29.625 0 53.766-24.141 53.766-53.766s-24.141-53.766-53.766-53.766h-150.84c72-39.844 127.22-105.7 100.45-184.31-46.219-135.84-268.22-5.2969-268.22-5.2969s31.219-73.688 162.61-95.859c32.859-5.5312 69.469 1.0781 104.62 13.078-27.234-114.14-44.062-240.14-44.156-241.45l32.062-3.7031c0.23438 1.5469 22.922 160.78 54.844 282.24 53.766 205.08 128.06 310.92 128.06 310.92s22.922 32.062 66.703 32.062h55.547c29.625 0 53.766-24.141 53.766-53.766s-24.141-53.766-53.766-53.766z"/>
</svg>
