<?xml version="1.0" encoding="UTF-8"?>
<svg width="1200pt" height="1200pt" version="1.1" viewBox="0 0 1200 1200" xmlns="http://www.w3.org/2000/svg">
 <path d="m639.07 84.758c53.363 0 96.742 43.32 96.742 96.742 0 53.426-43.379 96.613-96.742 96.613-53.328 0-96.602-43.188-96.602-96.613 0.003906-53.426 43.273-96.742 96.602-96.742z"/>
 <path d="m689.18 729.82-91.09-30.77 9.9219-28.582 91.105 30.777-9.9375 29.426z"/>
 <path d="m997.01 466.04-134.06-250.8c-7.9922-14.941-22.57-24.07-38.242-25.789l21.359-73.812 42.684 12.301 12.562-43.633-42.625-12.277 14.148-48.91-48.254-13.945-14.172 48.938-44.086-12.707-12.562 43.633 44.027 12.684-57.613 199.13-496.12-0.15625c-14.148 0-27.719 5.6289-37.691 15.648-9.9961 10.02-15.562 23.617-15.504 37.766l0.58984 142.51c0.12109 29.316 23.914 52.992 53.195 52.98h0.22656c17.746-0.070312 33.348-8.9297 42.961-22.332l176.76 61.355v47.953l-6.6484 5.3164c-12.562 10.043-30.562 26.879-47.195 50.027h-28.043c-35.09 0-63.527 28.441-63.527 63.527l-0.003907 358.27c0 35.09 28.441 63.527 63.527 63.527 35.09 0 63.527-28.441 63.527-63.527v-125.4c21.875 18.445 48.371 34.223 80.16 45.863l-40.332 139.4 51.203 14.746 40.535-140.05c16.309 2.9531 32.531 4.6211 48.504 4.6211h0.011719c63.023 0 121.29-24.012 163.25-63.551l0.003906 124.37c0 35.09 28.43 63.527 63.527 63.527 35.09 0 63.527-28.441 63.527-63.527l0.003906-358.27c0-35.09-28.441-63.527-63.527-63.527h-62.027c-0.45703-9.0703 0.43359-18.648 3.2031-28.234 7.9805-27.551 27.828-48.254 49.43-51.504l6.1914-0.94922 3.9727-4.8242c15.996-19.391 28.262-42.863 35.496-67.859 3.1094-10.715 4.8008-21.551 5.3867-32.328l28.32 22.066c8.9414 6.9844 19.656 10.441 30.371 10.441 11.316 0 22.645-3.875 31.812-11.605 17.855-15.023 22.762-40.488 11.758-61.082zm-699.38 32.594c0.023438-0.82812 0.23828-1.6094 0.23828-2.4492l-0.37109-89.102h167.11v149.51zm560.33 30.84c-5.4727 18.875-14.34 36.637-25.801 51.719-31.246 7.7891-58.598 36.457-69.289 73.441-15.18 52.586 7.1172 105.39 49.68 117.72 0.40625 0.12109 0.83984 0.23828 1.2617 0.34766 7.6211 25.727 15.145 68.543 1.7031 115-18.469 63.816-85.547 132.53-189.18 132.53-12.938 0-26.125-1.2461-39.395-3.457l73.031-252.28-51.227-14.844-73.262 253.19c-120.41-44.996-151.21-150.09-127.25-233 13.441-46.441 42.672-78.625 62.855-96.301 0.39453 0.12109 0.81641 0.23828 1.2109 0.34766 6.0234 1.7539 12.301 2.6406 18.613 2.6406 30.758 0 59.699-20.688 76.5-52.211l164.66 57.168 9.9375-28.598-163.73-56.832c8.6758-35.52 0.79297-72-20.473-94.234-1.6445-18.863 0.33594-38.641 5.7969-57.527 8.7461-30.191 34.934-80.844 111.95-80.844 13.945 0 29.062 1.8008 45.023 5.125l-61.656 213.07 48.254 13.992 61.523-212.63c36.312 14.594 63.395 35.449 78.742 61.379 15.227 25.691 18.945 55.91 10.512 85.094z"/>
</svg>
