<?xml version="1.0" encoding="UTF-8"?>
<svg width="1200pt" height="1200pt" version="1.1" viewBox="0 0 1200 1200" xmlns="http://www.w3.org/2000/svg">
 <path d="m1055.9 352.18c-16.777-77.461-61.188-129.1-133.3-129.1h-804.49l-47.375 317.12 28.645 6.1797c54.359 11.734 93.816 60.672 93.816 116.38 0 65.652-53.41 119.06-119.06 119.06-3 0-6.2383-0.14453-9.9258-0.44531l-29.148-2.3984-28.395 190.09h1040.7c73.547 0 133.36-59.82 133.36-133.34l0.003906-4.0078zm-976.7 554.4 9.3828-62.82c93.383-7.3906 167.11-85.754 167.11-181 0-74.941-46.859-141.85-114.85-168.86l31.117-208.31 559.99 0.003906c39.07 0 71.004 28.414 79.992 70.859v2.5664l79.355 479.04c-1.2344 37.992-32.52 68.52-70.801 68.52z"/>
 <path d="m516.64 712.38c0 52.477-42.539 95.016-95.016 95.016-52.477 0-95.016-42.539-95.016-95.016 0-52.477 42.539-95.016 95.016-95.016 52.477 0 95.016 42.539 95.016 95.016z"/>
 <path d="m508.12 495.41c0 29.758-24.125 53.883-53.883 53.883-29.754 0-53.879-24.125-53.879-53.883 0-29.754 24.125-53.879 53.879-53.879 29.758 0 53.883 24.125 53.883 53.879z"/>
 <path d="m709.5 539.36c0 43.078-34.922 78-78 78s-78-34.922-78-78 34.922-78 78-78 78 34.922 78 78z"/>
 <path d="m791.73 746.38c0 33.66-27.285 60.949-60.945 60.949-33.66 0-60.949-27.289-60.949-60.949s27.289-60.945 60.949-60.945c33.66 0 60.945 27.285 60.945 60.945z"/>
 <path d="m356.62 414.57c0 23.629-19.156 42.781-42.781 42.781s-42.781-19.152-42.781-42.781c0-23.625 19.156-42.777 42.781-42.777s42.781 19.152 42.781 42.777z"/>
</svg>
