<?xml version="1.0" encoding="UTF-8"?>
<svg width="1200pt" height="1200pt" version="1.1" viewBox="0 0 1200 1200" xmlns="http://www.w3.org/2000/svg">
 <path d="m1012.4 380.98s-255.68 86.699-458.57 3.6367c-202.16-82.777-242.35-289.24-242.35-289.24s210.46-71.543 373.96 1.7148c163.5 73.129 326.96 283.89 326.96 283.89z"/>
 <path d="m366.59 723.39c-22.234 0-43.703 3.1797-64.055 9.0117 15.527 34.68 32.879 69.422 52.066 104.15 6 10.871 2.0625 24.59-8.8203 30.602-3.457 1.9062-7.1875 2.8086-10.859 2.8086-7.9336 0-15.625-4.2109-19.738-11.641-20.125-36.422-38.305-72.91-54.551-109.37-75.203 38.566-126.71 116.8-126.71 207.13 0 128.5 104.18 232.68 232.68 232.68 128.5 0 232.67-104.18 232.67-232.68-0.003907-128.5-104.18-232.7-232.68-232.7z"/>
 <path d="m881.66 633.36c-79.895 0-150.09 41.305-190.56 103.68-94.223-55.008-207.56-138.82-281.5-253.15-113.18-175.03-171.5-462.86-172.08-465.74l-43.594-2.1836c-2.8672 9.3359-69.359 231.91-9.0859 506.16 18.238 82.957 45.875 159.78 75.684 226.89 13.367-6.8516 27.48-12.445 42.191-16.656-29.23-65.293-56.316-139.91-73.895-219.91-34.391-156.48-25.055-297.54-11.809-386.32 27.348 102.8 78.59 264.36 154.79 382.22 79.801 123.42 199.57 211.97 298.44 269.34-10.043 25.633-15.625 53.531-15.625 82.738 0 125.39 101.66 227.05 227.05 227.05 125.4 0 227.06-101.66 227.06-227.05 0-125.39-101.68-227.07-227.07-227.07z"/>
</svg>
