<?xml version="1.0" encoding="UTF-8"?>
<svg width="1200pt" height="1200pt" version="1.1" viewBox="0 0 1200 1200" xmlns="http://www.w3.org/2000/svg">
 <path d="m608.64 3.5039c-257.15 0-465.54 208.44-465.54 465.48v731.02h931.03v-731.02c0-257.04-208.38-465.48-465.49-465.48zm0 820.39c-192.85 0-349.15-156.29-349.15-349.09 0-192.8 156.3-349.12 349.15-349.12 192.83 0 349.12 156.31 349.12 349.12 0 192.81-156.29 349.09-349.12 349.09z"/>
 <path d="m608.64 508.02c-5.4102 0-10.824-1.2969-15.781-3.9609-10.848-5.7461-17.605-17.074-17.605-29.426v-244.89c0-18.457 14.941-33.422 33.383-33.422 18.434 0 33.359 14.977 33.359 33.422v182.63l104.29-69.422c15.383-10.223 36.07-6.0586 46.262 9.2656 10.234 15.301 6.0703 36.086-9.2773 46.246l-156.16 104c-5.5781 3.7109-12.031 5.5586-18.477 5.5586z"/>
</svg>
