<?xml version="1.0" encoding="UTF-8"?>
<svg width="1200pt" height="1200pt" version="1.1" viewBox="0 0 1200 1200" xmlns="http://www.w3.org/2000/svg">
 <path d="m572.81 404.24c-14.508 0-27.742-9.7695-31.535-24.469-2.1836-8.4844-20.305-84.48 16.465-140.9 18.469-28.344 47.879-46.547 85.066-52.691 44.832-7.4141 85.188 11.555 120.8 28.273 55.668 26.172 89.426 39.254 135.73 3.6836 17.578-13.512 26.555-28.285 27.434-45.133 1.9336-37.105-33.805-79.559-47.746-92.773-13.031-12.371-13.621-33-1.2734-46.055 12.324-13.078 32.867-13.715 45.984-1.4141 7.3438 6.9258 71.785 69.66 68.172 143.32-1.2461 25.188-11.438 61.895-52.836 93.73-80.039 61.523-151.22 28.043-203.18 3.6367-30.91-14.531-57.637-27.047-82.43-22.945-19.223 3.168-32.652 11.004-41.09 23.965-18.086 27.742-11.641 74.762-7.9688 89.051 4.5 17.438-6 35.207-23.426 39.707-2.7461 0.67188-5.4805 1.0195-8.168 1.0195z"/>
 <path d="m1097.5 674.69c-31.465-39.91-85.754-63.191-165.11-71.352 1.5977-24.91 2.4961-50.207 2.4961-75.961v-46.441l-763.09-0.12109v46.453c-0.011719 171.61 36.828 333.67 103.78 456.35 71.809 131.55 170.44 204.02 277.74 204.02 124.52 0 233.28-98.387 302.5-253.59 16.906 2.7852 33.012 4.1992 48.035 4.1992 64.273 0 111.04-22.199 136.93-38.734 45.156-28.836 76.043-71.051 82.656-112.93 8.543-54.371-9.3867-90.852-25.934-111.89zm-256.52-100.88c-2.293 52.871-8.5078 103.93-18 152.09l-539.63-0.003906c-9.4805-48.527-15.492-99.613-17.699-152.18zm194.24 198.89c-2.1133 13.523-16.078 34.727-42.48 51.574-18.516 11.82-53.832 27.863-104.48 23.941 15.277-48.492 27.156-100.82 35.102-156.17 52.008 5.3984 88.871 18.672 104.02 37.883 5.2227 6.6484 11.727 18.301 7.8477 42.77z"/>
 <path d="m435.14 397.92c-12.156 0-23.82-6.8398-29.426-18.527-32.172-67.211-30.551-146.57 4.3203-212.28 42.203-79.512 127.68-128.55 217.54-124.96 17.988 0.71875 31.98 15.875 31.273 33.863-0.73047 17.988-15.672 32.172-33.875 31.262-64.859-2.1484-126.83 32.879-157.36 90.383-25.598 48.238-26.734 104.22-3.0977 153.57 7.7656 16.234 0.91016 35.711-15.324 43.477-4.5352 2.1719-9.3359 3.207-14.051 3.207z"/>
</svg>
