<?xml version="1.0" encoding="UTF-8"?>
<svg width="1200pt" height="1200pt" version="1.1" viewBox="0 0 1200 1200" xmlns="http://www.w3.org/2000/svg">
 <path d="m429.85 533.8c0 54.496-44.18 98.676-98.676 98.676-54.496 0-98.676-44.18-98.676-98.676 0-54.5 44.18-98.676 98.676-98.676 54.496 0 98.676 44.176 98.676 98.676z" fill="#010101"/>
 <path d="m621.16 762.42v-102.09h-187.38l-0.023438 0.25391-216.61 0.085937c-95.258 0-145.63 64.223-145.63 129.76v260.36c-0.16797 59.293 88.969 59.293 88.969 0v-254.06h42.863l0.097656 291.53h260.47l-0.058594-325.84 157.3 0.003906z" fill="#010101"/>
 <path d="m1030.3 420.79 118.33-280.45-205.88 149.63 15.996-181.04-49.199 55.188c-0.26562 0.3125-27.562 30.395-68.039 30.395-11.531 0-23.363-2.4375-35.207-7.2461-35.617-14.461-85.246-66.926-101.38-85.895l-42.047 23.027 91.199 296.4h-132.96v462.32h530.38v-462.35h-121.19zm-292.43-219.18c16.152 12.805 33.434 24.254 50.016 31.008 17.711 7.1758 35.746 10.848 53.629 10.848 22.223 0 41.555-5.5938 57.359-12.926l-14.398 162.32 150.71-109.56-87.301 206.91-121.62-1.4531zm362.64 630.49h-428.4v-360.34h62.375c-1.6914 7.2969-2.8789 14.711-2.8789 22.402 0 68.988 70.789 124.89 158.11 124.89 87.301 0 158.09-55.906 158.09-124.89 0-7.668-1.1992-15.109-2.8906-22.402h55.609l-0.007812 360.34z" fill="#010101"/>
</svg>
