<?xml version="1.0" encoding="UTF-8"?>
<svg width="1200pt" height="1200pt" version="1.1" viewBox="0 0 1200 1200" xmlns="http://www.w3.org/2000/svg">
 <path d="m3.9531 748.52h83.691v83.762h-83.691z"/>
 <path d="m141.19 748.52h83.691v83.762h-83.691z"/>
 <path d="m281.76 748.52h83.715v83.762h-83.715z"/>
 <path d="m419.02 748.52h83.668v83.762h-83.668z"/>
 <path d="m559.57 748.52h83.691v83.762h-83.691z"/>
 <path d="m696.83 748.52h83.691v83.762h-83.691z"/>
 <path d="m837.38 748.52h83.738v83.762h-83.738z"/>
 <path d="m974.69 748.52h83.691v83.762h-83.691z"/>
 <path d="m3.9531 887.36h83.691v83.668h-83.691z"/>
 <path d="m141.19 887.36h83.691v83.668h-83.691z"/>
 <path d="m281.76 887.36h83.715v83.668h-83.715z"/>
 <path d="m419.02 887.36h83.668v83.668h-83.668z"/>
 <path d="m559.57 887.36h83.691v83.668h-83.691z"/>
 <path d="m696.83 887.36h83.691v83.668h-83.691z"/>
 <path d="m837.38 887.36h83.738v83.668h-83.738z"/>
 <path d="m974.69 887.36h83.691v83.668h-83.691z"/>
 <path d="m3.9531 1027.5h83.691v83.668h-83.691z"/>
 <path d="m141.19 1027.5h83.691v83.668h-83.691z"/>
 <path d="m281.76 1027.5h639.36v83.668h-639.36z"/>
 <path d="m974.69 1027.5h83.691v83.668h-83.691z"/>
 <path d="m1116.4 748.52h83.668v83.762h-83.668z"/>
 <path d="m1116.4 887.36h83.668v83.668h-83.668z"/>
 <path d="m1116.4 1027.5h83.668v83.668h-83.668z"/>
 <path d="m142.86 96h917.17v572.86h-917.17z"/>
</svg>
