<?xml version="1.0" encoding="UTF-8"?>
<svg width="1200pt" height="1200pt" version="1.1" viewBox="0 0 1200 1200" xmlns="http://www.w3.org/2000/svg">
 <path d="m596.83 203.93c69.355 0 125.74 56.309 125.74 125.76 0 69.43-56.383 125.57-125.74 125.57-69.332 0-125.57-56.168-125.57-125.57 0-69.453 56.262-125.76 125.57-125.76z"/>
 <path d="m1134.3 636.52c-31.477-16.332-70.215-3.9766-86.523 27.523l-31.809 61.453-183.19-200.41c-3.7852-4.1445-8.0938-7.4531-12.57-10.383-17.547-14.406-46.57-24.715-92.453-27.594h-50.879v387.52h-156.71v-387.52l-296.02 0.45312 130.98-234.48c16.691-29.855 8.6914-66.645-17.094-87.406l261.67-126.07c9.8086-4.7383 13.93-16.547 9.1914-26.383-4.7148-9.832-16.453-13.953-26.383-9.2148l-317.77 153.1c-0.09375 0.023437-0.14453 0.11719-0.23828 0.16797-12.285 5.9531-22.977 15.523-30.145 28.355l-188.52 337.53c-11.953 21.43-11.668 47.617 0.76172 68.762 12.43 21.145 35.117 34.117 59.617 34.117 0.046875 0 244.5-0.38281 244.5-0.38281v249h-97.477l35.547 286.29-163.64 0.003906v39.047h941.81v-39.047h-160.36l35.547-286.29h-98.406v-147.29l139.59 152.71c12.238 13.406 29.477 20.906 47.383 20.906 2.7852 0 5.5938-0.19141 8.4297-0.57031 20.785-2.7383 38.953-15.477 48.594-34.168l74.07-143.24c16.312-31.457 4-70.219-27.5-86.504zm-236.9 277.67-30.691 246.79h-538.07l-30.691-246.79z"/>
</svg>
