<?xml version="1.0" encoding="UTF-8"?>
<svg width="1200pt" height="1200pt" version="1.1" viewBox="0 0 1200 1200" xmlns="http://www.w3.org/2000/svg">
 <path d="m9.9844 875.15s53.977-120.3 159.29-214.89c29.82-28.141 103.18-54.961 145.6-14.41 73.262 69.926 51.191 229.31 51.191 229.31z"/>
 <path d="m477.43 518.4c0 59.789-48.469 108.25-108.25 108.25-59.785 0-108.25-48.465-108.25-108.25 0-59.785 48.465-108.25 108.25-108.25 59.785 0 108.25 48.465 108.25 108.25z"/>
 <path d="m1195.5 875.15s-53.965-120.3-159.29-214.89c-29.82-28.141-103.18-54.961-145.6-14.41-73.246 69.926-51.191 229.31-51.191 229.31z"/>
 <path d="m944.61 518.4c0 59.789-48.469 108.25-108.25 108.25-59.785 0-108.25-48.465-108.25-108.25 0-59.785 48.465-108.25 108.25-108.25 59.785 0 108.25 48.465 108.25 108.25z"/>
 <path d="m683.44 410.16c0 44.82-36.336 81.156-81.156 81.156-44.824 0-81.156-36.336-81.156-81.156 0-44.82 36.332-81.156 81.156-81.156 44.82 0 81.156 36.336 81.156 81.156z"/>
 <path d="m498.05 777.49h39.707v39.707h-39.707z"/>
 <path d="m554.18 777.49h39.707v39.707h-39.707z"/>
 <path d="m610.31 777.49h39.707v39.707h-39.707z"/>
 <path d="m554.18 721.49h39.707v39.707h-39.707z"/>
 <path d="m610.31 721.49h39.707v39.707h-39.707z"/>
 <path d="m498.05 833.47h39.707v39.719h-39.707z"/>
 <path d="m554.18 833.47h39.707v39.719h-39.707z"/>
 <path d="m610.31 833.47h39.707v39.719h-39.707z"/>
 <path d="m666.43 777.49h39.707v39.707h-39.707z"/>
 <path d="m666.43 833.47h39.707v39.719h-39.707z"/>
 <path d="m764.64 700.59c-2.125-11.41-11.484-20.867-27.984-31.344-26.23-16.754-65.207-25.441-116.93-26.062-5.2305-0.070313-29.652-0.070313-34.871 0-51.73 0.625-90.707 9.3125-116.94 26.062-16.5 10.477-25.871 19.934-27.973 31.344v38.652c0 5.7461 2.9141 8.6055 9.168 8.6055h67.105c6.2539 0 9.3828-2.8555 9.3828-8.6055l0.003906-35.316h0.085938c0-8.0625 9.8633-13.043 29.578-14.953 9.1445-0.89844 84.91-0.89844 94.043 0 19.727 1.9062 29.594 6.8867 29.594 14.953h0.085937v35.305c0 5.7461 3.1328 8.6055 9.3711 8.6055h67.105c6.2539 0 9.1797-2.8555 9.1797-8.6055z"/>
</svg>
