<?xml version="1.0" encoding="UTF-8"?>
<svg width="1200pt" height="1200pt" version="1.1" viewBox="0 0 1200 1200" xmlns="http://www.w3.org/2000/svg">
 <path d="m837.94 509.48-191.22-0.12109v183.18h191.22z"/>
 <path d="m802.14 939.43h-120.76c-21.852 0-39.551-17.746-39.551-39.59v-162.3h199.85v162.3c0.011718 21.852-17.746 39.59-39.539 39.59zm-129.19-170.8v131.22c0 4.6797 3.7305 8.4609 8.4375 8.4609h120.74c4.6562 0 8.3984-3.7812 8.3984-8.4609v-131.22z"/>
 <path d="m908.75 509.51-28.559-0.011718-0.070312 615.39h-275.89l0.27734-615.53-35.352-0.023437c-107.23 0-186.5 87.457-186.5 196.46v222.57h-165.89v-219.84h52.586c32.484 0 58.812-26.293 58.812-58.754l-0.003906-261.37h-254.84v261.38c0 32.449 26.34 58.754 58.812 58.754h53.543v219.83h-36.371c-87.254 0-87.254 119.4 0 119.4h36.371v120.05c0 8.5664 6.9609 15.551 15.527 15.551 8.5938 0 15.551-6.9844 15.551-15.551v-120.05h225.23v-0.35938c30 0.20312 60.086-22.367 60.086-67.766v-261.4h38.051l-0.097657 465.64h405.11l0.097656-465.64h37.285v399.54c0 91.043 118.74 91.043 118.48 0v-409.2c-0.003907-100.52-74.5-199.08-192.23-199.08zm-655.2-71.762h27.781v173.57h-27.781zm-66.707 0h27.781v173.57l-27.781 0.003906zm-38.93 173.57h-27.789v-173.57h27.781l-0.003906 173.57z"/>
 <path d="m959.21 109.4c0-51.719-42.059-93.793-93.781-93.793l-250 0.003906c-51.742 0-93.816 42.07-93.816 93.793 0 45.156 32.125 82.934 74.699 91.777l0.058593 137.2c1.7266 77.148 64.906 139.51 142.46 139.51 78.625 0 141.79-63.742 141.79-142.38l0.30078-133.95c44.34-7.4414 78.285-45.805 78.285-92.164zm-406.54 0c0-34.598 28.129-62.734 62.746-62.734h250c34.598 0 62.723 28.141 62.723 62.734 0 29.16-20.137 53.508-47.207 60.492l0.003906-60.492h-31.043v198.25h-222.47v-104.51h102.12l-0.003907-31.07h-114.12c-34.629 0-62.746-28.125-62.746-62.676z"/>
</svg>
