<?xml version="1.0" encoding="UTF-8"?>
<svg width="1200pt" height="1200pt" version="1.1" viewBox="0 0 1200 1200" xmlns="http://www.w3.org/2000/svg">
 <path d="m11.398 704.79h196.93v196.93h-196.93z"/>
 <path d="m11.398 481.77h196.93v196.93h-196.93z"/>
 <path d="m1192.2 433.77c-0.12109 35.062-28.57 63.562-63.742 63.73-35.16-0.16797-63.648-28.656-63.707-63.73 0.058594-35.258 28.547-63.73 63.707-63.66 35.172-0.074219 63.621 28.391 63.742 63.66z"/>
 <path d="m631.27 132.86c0-36.805-29.855-66.613-66.66-66.613-36.758 0-66.625 29.809-66.625 66.613 0 36.781 29.855 66.613 66.625 66.613 36.816 0 66.66-29.82 66.66-66.613z"/>
 <path d="m702.84 399.37-206.88-217.68c-9.2031-8.2188-19.391-15-34.105-14.723-12.574 0.25391-25.957 6.1562-34.812 15.551l-136.8 135.95c-5.6992 5.6992-8.543 12.574-8.543 20.785v365.53h-46.199v196.93h196.92v-196.93h-47.879v-293.75l111.21-129.54 157.14 165.36c6.7695 7.1172 15.852 10.715 24.973 10.715 8.5312 0 17.062-3.1445 23.734-9.4805 13.797-13.117 14.34-34.922 1.2344-48.723z"/>
 <path d="m1116.2 519.21c-8.0039 5.9883-128.73 105.42-128.73 105.42l-115.95-48.289h70.656v-196.93h-196.93v196.93h93.227c-6.793 3.6016-12.492 9.3594-15.672 17.016-7.332 17.555 0.98438 37.727 18.539 45.023l138.95 57.863c4.2617 1.7773 8.7461 2.6641 13.234 2.6641 7.9336 0 15.781-2.7461 22.094-8.0156l33.781-28.223c-2.8086 36 1.3789 65.531 1.3789 65.531l59.629 362.7c2.9766 21.781 16.992 33.59 37.98 33.59 20.977-0.070313 38.93-15.109 38.902-33.66l0.085938-523.66v-0.93359c0.074219-48.746-46.477-65.367-71.172-47.031z"/>
 <path d="m459.73 901.73h196.75l0.16797-196.94h-196.92z"/>
</svg>
