<?xml version="1.0" encoding="UTF-8"?>
<svg width="1200pt" height="1200pt" version="1.1" viewBox="0 0 1200 1200" xmlns="http://www.w3.org/2000/svg">
 <path d="m1125.4 653.16v171.24h73.055v171.25h-73.055v204.35h-745.84v-495.67h-57.852v-155.24h-220.45v79.969l-99.949-0.003907v-127.15h320.4v-44.137h57.852v-66.984h349.93l-200.76-145.86 8.5781-11.809-141.54-102.8 14.699-20.23 141.53 102.81 7.5-10.332 259.07 188.23h306.82v91.141h73.055v171.24l-73.043 0.003906zm-223.58 474.68c71.531 0 129.54-57.996 129.54-129.53 0-71.543-58.008-129.53-129.54-129.53-71.543 0-129.53 57.984-129.53 129.53 0 71.531 57.984 129.53 129.53 129.53zm-79.055-304.31c32.195 0 58.285-26.113 58.285-58.285 0-32.219-26.102-58.285-58.285-58.285-32.184 0-58.285 26.074-58.285 58.285 0 32.176 26.098 58.285 58.285 58.285zm157.55 0c32.195 0 58.273-26.113 58.273-58.285 0-32.219-26.09-58.285-58.273-58.285-32.184 0-58.285 26.074-58.285 58.285 0 32.176 26.102 58.285 58.285 58.285zm-524.64-365.77v161.15h581.65v-161.15z"/>
 <path d="m670.36 489.31v102.56h27.996v-102.56z"/>
 <path d="m719.77 489.31v102.56h27.996v-102.56z"/>
 <path d="m769.19 489.31v102.56h27.984v-102.56z"/>
 <path d="m818.58 489.31v102.56h27.996v-102.56z"/>
 <path d="m868 489.31v102.56h27.984v-102.56z"/>
 <path d="m917.39 489.31v102.56h27.984v-102.56z"/>
 <path d="m966.8 489.31v102.56h27.973v-102.56z"/>
</svg>
