<?xml version="1.0" encoding="UTF-8"?>
<svg width="1200pt" height="1200pt" version="1.1" viewBox="0 0 1200 1200" xmlns="http://www.w3.org/2000/svg">
 <path d="m270.36 328.87c0 42.781-34.68 77.461-77.461 77.461-42.777 0-77.457-34.68-77.457-77.461 0-42.777 34.68-77.461 77.457-77.461 42.781 0 77.461 34.684 77.461 77.461z"/>
 <path d="m474.79 328.87c0 42.781-34.68 77.461-77.461 77.461s-77.461-34.68-77.461-77.461c0-42.777 34.68-77.461 77.461-77.461s77.461 34.684 77.461 77.461z"/>
 <path d="m369.55 148.21c0 42.773-34.672 77.449-77.445 77.449-42.773 0-77.449-34.676-77.449-77.449 0-42.773 34.676-77.445 77.449-77.445 42.773 0 77.445 34.672 77.445 77.445z"/>
 <path d="m578.69 148.21c0 42.773-34.676 77.449-77.449 77.449-42.773 0-77.445-34.676-77.445-77.449 0-42.773 34.672-77.445 77.445-77.445 42.773 0 77.449 34.672 77.449 77.445z"/>
 <path d="m777.05 148.21c0 42.773-34.672 77.449-77.445 77.449-42.773 0-77.449-34.676-77.449-77.449 0-42.773 34.676-77.445 77.449-77.445 42.773 0 77.445 34.672 77.445 77.445z"/>
 <path d="m974.44 148.21c0 42.773-34.676 77.449-77.449 77.449-42.773 0-77.449-34.676-77.449-77.449 0-42.773 34.676-77.445 77.449-77.445 42.773 0 77.449 34.672 77.449 77.445z"/>
 <path d="m878.87 328.87c0 42.781-34.68 77.461-77.461 77.461-42.777 0-77.457-34.68-77.457-77.461 0-42.777 34.68-77.461 77.457-77.461 42.781 0 77.461 34.684 77.461 77.461z"/>
 <path d="m600.45 251.41c42.719 0 77.438 34.656 77.438 77.473 0 42.742-34.691 77.449-77.438 77.449-42.84 0-77.461-34.68-77.461-77.449 0-42.805 34.609-77.473 77.461-77.473z"/>
 <path d="m1005 251.41c42.77 0 77.473 34.656 77.473 77.473 0 42.742-34.703 77.449-77.473 77.449-42.84 0-77.461-34.68-77.461-77.449 0.003906-42.805 34.645-77.473 77.461-77.473z"/>
 <path d="m92.102 1131.2h201.36v-338.1h75.445l-0.16016-272.89c0-47.762-38.629-86.461-86.258-86.461h-179.98c-47.652 0-86.305 38.699-86.305 86.461l-0.28906 272.89h76.188z"/>
 <path d="m500.12 1131.2h201.34v-338.1h75.445l-0.16016-272.89c0-47.762-38.641-86.461-86.258-86.461h-179.96c-47.652 0-86.305 38.699-86.305 86.461l-0.27734 272.89h76.188l0.003907 338.1z"/>
 <path d="m904.74 1131.2h201.36l0.003906-338.1h75.445l-0.16016-272.89c0-47.762-38.641-86.461-86.258-86.461h-179.98c-47.664 0-86.305 38.699-86.305 86.461l-0.27734 272.89h76.188l0.003906 338.1z"/>
</svg>
