<?xml version="1.0" encoding="UTF-8"?>
<svg width="1200pt" height="1200pt" version="1.1" viewBox="0 0 1200 1200" xmlns="http://www.w3.org/2000/svg">
 <path d="m245.5 325.6v165.15c31.617-13.723 71.973-29.695 120.56-45.91 107.85-35.984 235.34-54.645 235.34-54.645s127.48 18.66 235.34 54.645c47.395 15.812 86.938 31.398 118.19 44.883v-172.58h54.629v-46.93h-152.11v-44.359h97.48v-55.965h-99.945v-70.934h-215.32v-91.344h-76.512v91.344h-228.4v70.934h-89.25v55.965h95.262v44.359h-149.9v46.934h54.633zm611.95 0h48.09v38.699h-48.09zm-423.23 38.699h-44.07v-38.699h44.07zm0-94.086h-44.07v-44.359h44.07zm93.465 94.086h-44.07v-38.699h44.07zm0-94.086h-44.07v-44.359h44.07zm93.457 94.086h-44.07v-38.699h44.07zm0-94.086h-44.07v-44.359h44.07zm93.461 94.086h-44.07v-38.699h44.07zm0-94.086h-44.07v-44.359h44.07zm93.457 94.086h-44.07v-38.699h44.07zm0-94.086h-44.07v-44.359l44.07-0.003907zm-431.26-129.2h436.12v26.734h-436.12zm-81.914 184.59h45.875v38.699h-45.875z"/>
 <path d="m667.91 897.57c54.598-17.121 71.086-18.316 129.34 0 57.719 18.305 80.352 18.305 137.31 0 1.2539-0.39844 2.3906-0.75 3.6055-1.1289 1.6367-28.859 6.457-90.289 20.016-160.98 19.316-100.75 49.785-187.41 49.785-187.41s-66.262-40.168-188.25-81.895c-79.914-27.34-171.38-44.148-204.99-49.816v494c15.234-1.7656 31.781-6.0117 53.18-12.77zm18.805-343.21c8.7539-20.414 24.816-34.027 35.879-30.391 11.055 3.6211 12.926 23.109 4.168 43.523-8.7422 20.414-24.816 34.035-35.867 30.398-11.066-3.625-12.922-23.109-4.1797-43.531z"/>
 <path d="m1063.8 1093c-55.371-17.719-73.945-17.719-129.25 0-56.961 18.316-79.59 18.316-137.31 0-58.254-18.305-74.738-17.113-129.34 0-57.965 18.316-80.398 18.316-137.32 0-55.438-17.719-73.898-17.719-129.32 0-56.941 18.316-79.559 18.316-137.31 0-28.129-8.8555-50.105-13.383-65.324-13.383-14.332 0-35.848 4.5273-64.039 13.383-26.25 8.3516-47.195 12.391-63.617 13.168v82.492l0.21094 3.2695c9.7188-5.1289 31.629-9.6484 59.852-18.508 59.32-18.793 80.438-17.75 136.58 0 54.711 17.195 71.332 18.395 129.38 0 57.652-18.316 79.992-18.316 138.01 0 57.98 18.316 74.578 17.195 129.39 0 56.035-17.91 77.02-18.859 136.53 0 54.438 17.195 71.082 18.316 129.38 0 57.746-18.316 80.352-18.316 137.29 0 24.445 7.8906 44.293 12.27 59.176 13.18l0.45703-80.34c-12.539 1.6602-34.965-4.0625-63.398-13.262z"/>
 <path d="m1063.8 953.71c-55.371-17.711-73.945-17.711-129.25 0-56.961 18.316-79.59 18.316-137.31 0-58.254-18.316-74.738-17.113-129.34 0-57.965 18.316-80.398 18.316-137.32 0-55.438-17.711-73.898-17.711-129.32 0-56.941 18.316-79.559 18.316-137.31 0-28.129-8.8555-50.105-13.383-65.324-13.383-14.332 0-35.848 4.5312-64.039 13.383-26.25 8.3516-47.195 12.391-63.617 13.168v82.496l0.21094 3.2656c9.7188-5.1289 31.629-9.6484 59.852-18.504 59.32-18.797 80.438-17.754 136.58 0 54.711 17.195 71.332 18.391 129.38 0 57.652-18.309 79.992-18.309 138.01 0 57.98 18.305 74.578 17.195 129.39 0 56.035-17.918 77.02-18.863 136.53 0 54.438 17.195 71.082 18.305 129.38 0 57.746-18.309 80.352-18.309 137.29 0 24.445 7.8945 44.293 12.266 59.176 13.188v-78.406c-13.871 0-34.508-6.0117-62.941-15.207z"/>
 <path d="m264.69 897.79c57.195 18.062 79.891 17.992 136.58-0.22656 55.43-17.719 73.891-17.719 129.32 0 22.242 7.1484 39.207 11.465 55.09 13.035l0.003906-493.86c-35.426 6.043-124.56 22.711-202.62 49.414-121.98 41.727-188.25 81.895-188.25 81.895s30.469 86.668 49.785 187.41c13.785 71.844 18.535 134.09 20.09 162.33zm213.11-373.82c11.07-3.6367 27.125 9.9766 35.879 30.391 8.7422 20.418 6.8906 39.906-4.1797 43.527-11.055 3.6367-27.121-9.9844-35.859-30.398-8.7656-20.41-6.8945-39.898 4.1602-43.52z"/>
</svg>
