<?xml version="1.0" encoding="UTF-8"?>
<svg width="1200pt" height="1200pt" version="1.1" viewBox="0 0 1200 1200" xmlns="http://www.w3.org/2000/svg">
 <path d="m883.66 113.83c-161.18-72.59-350.84-0.82812-423.55 160.6-72.555 161.21-0.73438 350.77 160.49 423.39 161.29 72.637 350.87 0.80469 423.5-160.5 72.707-161.2 0.85156-350.86-160.44-423.49zm61.727 332.58c-3.9727 13.586-16.379 22.414-29.832 22.414-2.8789 0-5.7969-0.40625-8.6992-1.2344-16.488-4.8008-25.957-22.043-21.18-38.531 16.883-58.117-12.035-120.68-67.262-145.54-8.8203-3.9727-18.086-6.9102-27.504-8.7227-16.848-3.2656-27.887-19.547-24.637-36.395 3.2656-16.871 19.621-27.91 36.395-24.637 14.172 2.7344 28.02 7.1289 41.258 13.066 83.316 37.477 126.91 131.89 101.46 219.57z"/>
 <path d="m1176 737.76c-16.465-33.48-65.363-48.422-99.035-31.738l-260.18 131.37c4.0078 16.414 6.2539 44.855 0.86328 61.586-15.875 48.023-76.273 73.777-124.15 58.402l-175.93-57.059 8.3398-30.59 175.82 57.07c35.23 11.172 73.262-8.2578 85.031-43.523 3.2656-10.715 3.8633-22.031 1.7148-32.629-1.957-11.461-6.9102-21.926-13.859-30.973-8.3984-9.8867-19.188-17.039-31.379-20.891l-321.09-103.55s-26.484-8.1953-52.535-10.008c-28.273-1.957-60.348 13.078-60.348 13.078l-297.09 146.91v299.15l252.25-151.98 365.18 69.133c26.734 6.6719 55.285 3.1328 77.352-7.0781l434.69-217.59c46.297-22.918 51.168-65.184 34.355-99.094z"/>
</svg>
