<?xml version="1.0" encoding="UTF-8"?>
<svg width="1200pt" height="1200pt" version="1.1" viewBox="0 0 1200 1200" xmlns="http://www.w3.org/2000/svg">
 <path d="m802.37 47.641v372.78c71.27 20.699 123.45 86.363 123.45 164.33 0 94.57-76.668 171.24-171.24 171.24-33.18 0-64.043-9.5898-90.266-25.922 0.011718-0.011718 0.011718-0.011718 0.023437-0.035156-78.695 62.941-173.84 109.44-278.47 134.79-18.023 4.3672-36.457 8.1016-54.77 11.16-1.3555 0.21484-2.7109 0.3125-4.043 0.3125-11.773 0-22.176-8.5078-24.156-20.52-2.207-13.367 6.8281-26.004 20.195-28.223 17.137-2.8203 34.367-6.3359 51.227-10.414 94.285-22.824 180.13-63.973 251.72-119.41 4.2344 4.8945 11.543 11.965 18.383 17.785 6.9961 5.9414 13.777 10.691 19.934 14.496 41.004-32.797 77.641-69.961 108.62-111.09 8.1602-10.812 6-26.195-4.8125-34.344-10.824-8.1484-26.195-6-34.332 4.8242-30.406 40.367-66.73 76.668-107.68 108.35-26.543-30.156-42.793-69.637-42.793-113 0-77.965 52.152-143.64 123.45-164.33l0.003906-395.46c-17.387-2.125-35.074-3.3242-53.039-3.3242-197.68 0-379.98 148.45-417.84 311.93-8.3984 36.336-17.914 131.28-17.914 131.28l-111.9 221.54c-1.8242 4.0664-2.6992 8.7852-2.6992 13.633 0 19.344 15.613 35.074 35.062 35.074h79.523v129.37c0 101.23 44.148 170.26 171.7 170.26h30.238l0.003906 159.29h502.85v-369.77c101.39-79.703 166.6-227.9 166.6-366.86-0.003907-188.5-119.57-348.97-287.02-409.73zm-526.93 461.46c0-23.461 19.008-42.469 42.469-42.469 23.473 0 42.48 19.008 42.48 42.469 0 23.461-19.008 42.48-42.48 42.48-23.461-0.003906-42.469-19.035-42.469-42.48z"/>
</svg>
