<?xml version="1.0" encoding="UTF-8"?>
<svg width="1200pt" height="1200pt" version="1.1" viewBox="0 0 1200 1200" xmlns="http://www.w3.org/2000/svg">
 <path d="m981.5 468.38c15.023 0 27.238 12.191 27.238 27.238 0 15-12.215 27.168-27.238 27.168s-27.191-12.168-27.191-27.168c0-15.051 12.168-27.238 27.191-27.238z"/>
 <path d="m1060.6 468.38c15.047 0 27.238 12.191 27.238 27.238 0 15-12.191 27.168-27.238 27.168-14.977 0-27.168-12.168-27.168-27.168 0-15.051 12.191-27.238 27.168-27.238z"/>
 <path d="m140.17 468.38c15.023 0 27.238 12.191 27.238 27.238 0 15-12.215 27.168-27.238 27.168-15 0-27.215-12.168-27.215-27.168 0.023437-15.051 12.215-27.238 27.215-27.238z"/>
 <path d="m219.33 468.38c15.047 0 27.238 12.191 27.238 27.238 0 15-12.191 27.168-27.238 27.168-15.023 0-27.168-12.168-27.168-27.168 0.003907-15.051 12.145-27.238 27.168-27.238z"/>
 <path d="m558 313.81c15.047 0 27.215 12.215 27.215 27.238 0 15-12.168 27.168-27.215 27.168s-27.191-12.145-27.191-27.168 12.121-27.238 27.191-27.238z"/>
 <path d="m637.12 313.81c15.07 0 27.238 12.215 27.238 27.238 0 15-12.168 27.168-27.238 27.168-14.977 0-27.117-12.145-27.117-27.168s12.145-27.238 27.117-27.238z"/>
 <path d="m664.55 931.07-62.047-156.02-57.094 152.07h0.09375c-11.094 24.117-6.7617 53.477 13.238 73.168 25.477 25.023 66.523 24.785 91.645-0.76172 18.309-18.641 22.855-45.453 14.164-68.453z"/>
 <path d="m603.55 643.43c-171.33 0-310.71 139.59-310.71 311.19 0 11.762 9.5703 21.332 21.383 21.332 11.832 0 21.406-9.5703 21.406-21.332 0-29.191 4.8086-57.168 13.406-83.43l64.953 24.523c2.1172-6.832 4.668-13.5 7.4766-20l-65.07-24.668c16.594-39.617 42.5-74.355 74.855-101.69l42.523 55.168c5.3555-4.668 10.953-9.1445 16.809-13.215l-42.332-54.977c41.262-29.57 91.191-47.547 145.19-49.617v69.57c3.3828-0.11719 6.7383-0.5 10.145-0.5 3.7617 0 7.5 0.38281 11.262 0.54688v-69.57c53.355 2.2148 102.69 20.023 143.59 49.094l-42.355 54.953c5.8828 4.0938 11.523 8.4766 16.93 13.191l42.453-55.191c32.547 27.285 58.594 62 75.332 101.67l-65.117 24.668c2.8555 6.4766 5.4062 13.145 7.5938 19.977l64.906-24.57c8.7852 26.477 13.668 54.738 13.668 84.07 0 11.762 9.5938 21.332 21.383 21.332 11.809 0 21.43-9.5703 21.43-21.332 0.035156-171.57-139.56-311.19-311.11-311.19z"/>
 <path d="m1021 722.67c-96.215 0-174.48-78.309-174.48-174.52 0-96.262 78.262-174.55 174.48-174.55 96.285 0 174.59 78.285 174.59 174.55 0.003906 96.188-78.309 174.52-174.59 174.52zm0-307.21c-73.117 0-132.57 59.523-132.57 132.69 0 73.117 59.453 132.62 132.57 132.62 73.168 0 132.67-59.5 132.67-132.62 0-73.191-59.5-132.69-132.67-132.69z"/>
 <path d="m1021.1 639.45c-50.332 0-91.285-40.953-91.285-91.332h36c0 30.477 24.832 55.285 55.285 55.285 30.523 0 55.332-24.809 55.332-55.285h36.047c0.003906 50.402-40.996 91.332-91.379 91.332z"/>
 <path d="m179.76 722.67c-96.238 0-174.55-78.309-174.55-174.52 0-96.262 78.309-174.55 174.55-174.55 96.215 0 174.55 78.285 174.55 174.55-0.023438 96.188-78.332 174.52-174.55 174.52zm0-307.21c-73.145 0-132.62 59.523-132.62 132.69 0 73.117 59.477 132.62 132.62 132.62 73.117 0 132.64-59.5 132.64-132.62 0-73.191-59.523-132.69-132.64-132.69z"/>
 <path d="m271.07 623.57h-35.977c0-21.07-25.332-38.832-55.285-38.832-30 0-55.355 17.762-55.355 38.832h-36.023c0-41.285 40.977-74.883 91.355-74.883 50.359 0.027344 91.285 33.598 91.285 74.883z"/>
 <path d="m599.12 550.19c-96.238 0-174.5-78.309-174.5-174.55 0-96.262 78.262-174.55 174.5-174.55 96.238 0 174.57 78.285 174.57 174.55-0.019531 96.238-78.332 174.55-174.57 174.55zm0-307.19c-73.117 0-132.62 59.5-132.62 132.67 0 73.117 59.5 132.67 132.62 132.67 73.168 0 132.64-59.523 132.64-132.67-0.023438-73.168-59.5-132.67-132.64-132.67z"/>
 <path d="m639.91 445.36h-86.43v-36.047h86.43z"/>
</svg>
