<?xml version="1.0" encoding="UTF-8"?>
<svg width="1200pt" height="1200pt" version="1.1" viewBox="0 0 1200 1200" xmlns="http://www.w3.org/2000/svg">
 <path d="m645.79 16.789c-175.21 0-336.77 131.55-370.32 276.45-7.4531 32.195-15.887 116.34-15.887 116.34l-99.168 196.33c-1.6094 3.6133-2.3867 7.7891-2.3867 12.086 0 17.148 13.836 31.078 31.066 31.078h70.477v114.67c0 89.711 39.121 150.88 152.16 150.88h26.797v164.05h92.711l-0.003907 121.33h38.965v-121.33h67.824v121.33h38.965v-121.33h67.789v121.33h38.953l-0.003906-121.33h100.46v-350.61c89.844-70.633 147.64-201.97 147.64-325.11 0.023438-213.31-172.73-386.17-386.04-386.17zm-297.67 469.67c-20.785 0-37.645-16.859-37.645-37.645s16.859-37.633 37.645-37.633c20.797 0 37.645 16.848 37.645 37.633s-16.836 37.645-37.645 37.645zm203.65 527.61c-14.82 0-26.844-12.035-26.844-26.844 0-14.832 12.023-26.855 26.844-26.855 14.832 0 26.855 12.023 26.855 26.855 0 14.809-12.023 26.844-26.855 26.844zm107.07 0c-14.809 0-26.832-12.035-26.832-26.844 0-14.832 12.023-26.855 26.832-26.855 14.832 0 26.855 12.023 26.855 26.855 0.011719 14.809-12.012 26.844-26.855 26.844zm107.05 0c-14.82 0-26.844-12.035-26.844-26.844 0-14.832 12.023-26.855 26.844-26.855 14.832 0 26.855 12.023 26.855 26.855 0.003906 14.809-12.012 26.844-26.855 26.844zm62.82-431.24c-14.977 52.246-58.691 87.312-103.96 87.312-7.9688 0-15.961-1.0781-23.867-3.3359-7.5-2.1484-11.82-9.9609-9.6836-17.461 2.1367-7.4883 9.9375-11.855 17.449-9.6953 37.848 10.883 79.609-18.121 92.93-64.598 6.1211-21.336 10.691-51.574-2.2578-74.531-8.0156-14.172-22.188-24.086-42.121-29.461-16.367-4.3906-34.117 1.4023-47.52 15.574-5.3516 5.6758-14.27 5.9141-19.945 0.5625-5.6641-5.3516-5.9141-14.281-0.5625-19.957 20.641-21.863 48.875-30.637 75.371-23.449 27.516 7.4141 47.473 21.828 59.34 42.828 14.066 24.918 15.734 58.195 4.8242 96.211z"/>
</svg>
