<?xml version="1.0" encoding="UTF-8"?>
<svg width="1200pt" height="1200pt" version="1.1" viewBox="0 0 1200 1200" xmlns="http://www.w3.org/2000/svg">
 <path d="m1185.9 681.09-0.33594-22.066c-3-196.46-121.51-341.72-285.59-356.09-15.289-118.44-100.54-193.02-226.21-193.02-126.21 0-228.9 107.58-228.9 239.82v377.23l-2.6758 37.441-0.046875 1.5586c0 76.621-41.82 142.93-102.48 175.14v-581.63h-331.77v730.63h331.75v-100.75c85.234-34.727 145.97-121.26 146.28-222.6l2.6758-37.453 0.058594-379.57c0-108.09 83.039-196.02 185.1-196.02 80.352 0 165.38 40.117 181.98 148.75-171.7 8.3633-258.9 138.93-283.07 261.73-4.2969 21.805-8.8555 67.754-11.207 93.18l-2.1836 23.723h72.863l-63.73 134.04c-1.0195 2.3164-1.5234 5.0039-1.5234 7.7539 0 11.016 8.8789 19.957 19.945 19.957h48.805v58.234c0 74.605 43.727 97.789 97.691 97.789h33.168v91.246h270.14l-0.007813-206.96c54.852-43.117 91.031-126.05 94.43-202.07zm-1013.4 317.21c-16.992 0-30.77-13.777-30.77-30.758 0-16.98 13.777-30.742 30.77-30.742 16.992 0 30.758 13.766 30.758 30.742-0.003906 16.98-13.766 30.758-30.758 30.758zm80.34-292h-160.7v-31.105h160.69zm0-103.64h-160.7v-31.105h160.69zm0-103.68h-160.7v-31.094h160.69zm362.51 73.594c21.648-109.96 100.73-227.45 257.72-227.45 149.33 0 257.26 119.16 268.21 292.5l-534.21 0.003906c3.0469-30.277 5.9883-53.391 8.2812-65.055z"/>
</svg>
