<?xml version="1.0" encoding="UTF-8"?>
<svg width="1200pt" height="1200pt" version="1.1" viewBox="0 0 1200 1200" xmlns="http://www.w3.org/2000/svg">
 <path d="m631.86 502.12c1.8477 8.9297 1.668 18.312-0.94922 27.289-2.2578 8.4102-6.8398 16.344-12.996 22.922-20.977 21.289-55.32 21.758-76.859 1.0547l-106.44-103.84-16.934 19.105 106.59 103.89c29.016 28.223 81.742 31.105 110.36 2.1484 9.8281-10.129 18.371-31.5 21.301-44.785h217.07c30.254 0 60.156 28.199 60.156 58.297 0 30.324-18.539 59.16-60.156 59.16l-373.64-0.003907c-19.5-0.52734-41.473-8.1719-58.379-22.535l-238.77-180.16-202.21-0.73047v-212.08l319.52 0.74219s28.535 0.61328 48.215 12.023c18.168 10.609 34.262 26.09 34.262 26.09l214.68 205.08c7.4297 7.1562 12.613 16.191 15.18 26.32z"/>
 <path d="m962.75 446.14c1.5859 7.2461-3.0117 14.41-10.246 15.996l-96.277 21.098c-7.2461 1.5859-14.438-3-16.02-10.246l-21.086-96.289c-1.5977-7.2461 2.9883-14.398 10.246-15.996l96.277-21.098c7.2617-1.5859 14.426 3 16.008 10.246z"/>
 <path d="m1145 708.89c-3.0117 6.7578-10.945 9.8281-17.734 6.8047l-90.086-40.008c-6.7812-3.0117-9.8281-10.969-6.8281-17.746l40.02-90.086c3.0234-6.7695 10.957-9.8281 17.734-6.8164l90.086 40.02c6.7812 3 9.8398 10.969 6.8281 17.734z"/>
 <path d="m1151.2 946.95c2.5781 6.9492-0.97266 14.688-7.9219 17.27l-92.363 34.355c-6.9609 2.6055-14.711-0.94922-17.305-7.9062l-34.344-92.375c-2.5938-6.9492 0.94922-14.699 7.8945-17.281l92.387-34.355c6.9727-2.5938 14.688 0.94922 17.281 7.9062z"/>
</svg>
