<?xml version="1.0" encoding="UTF-8"?>
<svg width="1200pt" height="1200pt" version="1.1" viewBox="0 0 1200 1200" xmlns="http://www.w3.org/2000/svg">
 <path d="m1188 919.2c-1.1992-33.602-14.398-61.199-39.602-81.602-21.602-18-51.602-28.801-84-30 6-30 2.3984-58.801-9.6016-81.602-13.199-26.398-38.398-45.602-69.602-52.801-25.199-6-48-4.8008-67.199 1.1992-1.1992-15.602-4.8008-31.199-10.801-43.199-15.602-32.398-43.199-55.199-79.199-66-42-12-90-3.6016-128.4 21.602-12 7.1992-19.199 15.602-26.398 22.801l-3.6016 3.6016c-9.6016 9.6016-8.3984 24 0 33.602 9.6016 9.6016 24 8.3984 33.602 0 1.1992-1.1992 2.3984-2.3984 3.6016-4.8008 6-6 10.801-10.801 18-15.602 27.602-18 61.199-24 90-15.602 15.602 4.8008 37.199 15.602 49.199 40.801 6 10.801 7.1992 31.199 7.1992 48-20.398 15.602-34.801 34.801-43.199 49.199-6 10.801-2.3984 25.199 8.3984 32.398 10.801 6 25.199 2.3984 32.398-8.3984 1.1992-2.3984 40.801-68.398 105.6-52.801 19.199 4.8008 32.398 14.398 39.602 28.801 9.6016 19.199 9.6016 48-2.3984 76.801-3.6016 8.3984-2.3984 16.801 3.6016 24 4.8008 7.1992 13.199 9.6016 21.602 8.3984 31.199-4.8008 62.398 2.3984 81.602 18 14.398 12 21.602 27.602 22.801 46.801 1.1992 24-7.1992 45.602-22.801 60-18 16.801-44.398 25.199-70.801 22.801-15.602-1.1992-28.801-4.8008-37.199-10.801-10.801-7.1992-25.199-3.6016-32.398 7.1992-7.1992 10.801-3.6016 25.199 7.1992 32.398 15.602 10.801 36 16.801 58.801 18h12c36 0 70.801-13.199 94.801-36 25.191-25.195 38.391-58.793 37.191-97.195z"/>
 <path d="m818.4 1087.2c-8.3984 0-15.602-3.6016-20.398-10.801-7.1992-10.801-3.6016-25.199 7.1992-32.398 0 0 20.398-13.199 36-33.602 16.801-24 18-45.602 3.6016-68.398-43.199-69.602-141.6-13.199-146.4-10.801-8.3984 4.8008-20.398 3.6016-27.602-2.3984-7.1992-7.1992-9.6016-18-6-27.602 0-1.1992 39.602-90-12-141.6-49.199-49.199-134.4-25.199-154.8-10.801-7.1992 4.8008-16.801 6-24 1.1992-8.3984-3.6016-13.199-12-12-21.602 1.1992-46.801-20.398-92.398-55.199-118.8-31.199-22.801-70.801-28.801-110.4-15.602-86.398 27.602-82.801 114-72 163.2 1.1992 3.6016 1.1992 6 1.1992 10.801-1.1992 6-3.6016 12-9.6016 15.602-4.8008 3.6016-12 6-18 4.8008-76.801-12-132 36-141.6 88.801-15.602 85.199 69.602 130.8 73.199 133.2 12 6 15.602 20.398 9.6016 31.199-6 12-20.398 15.602-31.199 9.6016-39.602-20.395-112.8-86.395-96-182.39 7.1992-44.398 33.602-81.602 73.199-104.4 26.398-15.602 58.801-24 90-25.199-10.801-93.602 28.801-163.2 108-189.6 55.199-18 109.2-9.6016 153.6 22.801 38.398 28.801 63.602 72 72 121.2 49.199-15.602 127.2-20.398 180 32.398 31.199 31.199 44.398 75.602 38.398 127.2-1.1992 6-1.1992 10.801-2.3984 15.602 52.801-15.602 121.2-15.602 160.8 48 15.602 25.199 20.398 51.602 14.398 78-13.199 54-67.199 87.602-69.602 88.801-3.5977 3.5977-8.3984 3.5977-12 3.5977z"/>
 <path d="m339.6 1087.2c-6 0-12-2.3984-16.801-7.1992-62.398-60-64.801-156-4.8008-218.4 33.602-34.801 76.801-55.199 121.2-55.199h1.1992c36 0 69.602 13.199 93.602 38.398 16.801 16.801 28.801 39.602 34.801 63.602 2.3984 13.199-4.8008 25.199-18 27.602-13.199 2.3984-25.199-4.8008-27.602-18-3.6016-16.801-10.801-30-22.801-42-15.602-15.602-37.199-24-61.199-24-31.199 0-63.602 15.602-87.602 40.801-40.801 43.199-39.602 110.4 3.6016 152.4 9.6016 9.6016 9.6016 24 0 33.602-3.5977 5.9961-9.5977 8.3945-15.598 8.3945z"/>
 <path d="m1057.2 238.8c-12-12-43.199-36-103.2-61.199l8.3984-98.398h-63.602l-68.398 60c-45.602-10.801-98.398-19.199-159.6-25.199-45.598-6.0039-89.996-8.4023-134.4-8.4023-258 0-400.8 58.801-400.8 147.6 0 55.199 106.8 123.6 295.2 141.6v57.602h81.602l63.602-52.801c31.199-1.1992 62.398-2.3984 94.801-6 66-6 121.2-15.602 166.8-27.602l44.398 49.199h100.8v-79.199l-46.801-0.003906c72-27.602 108-56.398 121.2-68.398 0 0 7.1992-7.1992 7.1992-14.398-1.1992-9.6016-7.1992-14.402-7.1992-14.402zm-166.8 63.598s-142.8 39.602-364.8 39.602c-118.8 0-228-31.199-246-39.602-4.8008-1.1992-7.1992-4.8008-6-8.3984 1.1992-3.6016 7.1992-4.8008 12-4.8008 56.398 13.199 168 25.199 232.8 25.199 160.8 0 272.4-10.801 363.6-25.199 7.1992-1.1992 16.801 0 19.199 3.6016 1.1992 2.3984-3.5977 7.1992-10.801 9.5977z"/>
</svg>
