<?xml version="1.0" encoding="UTF-8"?>
<svg width="1200pt" height="1200pt" version="1.1" viewBox="0 0 1200 1200" xmlns="http://www.w3.org/2000/svg">
 <path d="m562.33 559.52-0.070312-1.832c-6.3086-57.023-44.809-63.168-61.07-63.168-22.977 0-40.953 14.855-50.43 34.047v-245.81c0-32.809-26.691-59.477-59.5-59.477-22.406 0-41.977 12.453-52.117 30.809v-22.617c0.023438-15.883-6.168-30.809-17.406-42.07-11.215-11.238-26.168-17.406-42.07-17.406-32.785 0-59.477 26.715-59.477 59.477v22.645c-10.145-18.359-29.691-30.836-52.121-30.836-32.785 0-59.477 26.668-59.477 59.477v114.26c-10.738-15.645-28.738-25.93-49.094-25.93-29.617 0-59.5 22.359-59.5 72.312v342.62c0.046875 122.69 118 259.88 275.79 259.88 152.59 0 286.55-133.43 286.57-285.52v-200.86zm-33.477 200.86c-0.046875 134.26-118.31 252.05-253.07 252.05-136.38 0-242.21-121.71-242.29-226.41v-225.88l51.977 0.23828v87.809h56.617v-222.05l51.953 0.003906v196.41h59.645v-118.31l51.953 0.92969v117.38h59.617v-213.27l52-0.64453v334.29h59.617l0.003906-183.4c0-14.57 10.617-31.523 24.309-31.523 11.094 0 24.262 3.7148 27.691 32.453v199.93z"/>
 <path d="m1139.8 371.09c-20.43 0-38.43 10.285-49.117 25.93v-114.26c0-32.809-26.715-59.477-59.477-59.477-22.43 0-42.023 12.453-52.145 30.809v-22.617c0-32.762-26.691-59.477-59.453-59.477-32.809 0-59.5 26.715-59.5 59.477v22.645c-10.145-18.355-29.691-30.809-52.094-30.809-32.832 0-59.5 26.668-59.5 59.477v245.83c-9.4531-19.215-27.43-34.07-50.406-34.07-16.285 0-54.785 6.168-61.094 63.168l-0.09375 202.67c0.046875 152.12 133.95 285.52 286.55 285.52 157.81 0 275.74-137.19 275.79-259.88v-342.62c-0.023437-49.957-29.93-72.316-59.453-72.316zm-469.43 389.29v-87.191h52v69.762h59.617l0.003906-367.07h51.977v246.62h59.645l-0.003906-179.64h52v179.64h59.645v-96.406l51.93-1.0469v123.12h56.645v-75.453h51.977v193.67c-11.262-3.8555-49.047-14.715-85.453-2.2148 0.59375-2.7852 0.92969-5.6445 0.92969-8.6172 0-24.023-20.645-43.477-46.094-43.477-25.453 0-46.047 19.453-46.047 43.477 0 23.691 20.023 42.855 44.93 43.406-24.523 33.762-35.215 84.238-35.215 84.238s-61.117-12.594-85.117 6.0703c-40.645 31.617-41.023 90.047-38.57 118.02-113.54-23.855-204.75-129-204.8-246.9z"/>
 <path d="m304.48 753c29.762-4.0234 38.355 50.855 62.215 65.332 23.832 14.523 49.762-25.906 75.691-6.2383 25.906 19.715-2.6172 89.785-52.617 101.5-135.62 31.812-150.88-151.64-85.289-160.59z"/>
</svg>
