<?xml version="1.0" encoding="UTF-8"?>
<svg width="1200pt" height="1200pt" version="1.1" viewBox="0 0 1200 1200" xmlns="http://www.w3.org/2000/svg">
 <path d="m550.97 349.52c-48.121 0-87.215-39.086-87.215-87.238 0-48.203 39.098-87.289 87.215-87.289 48.312 0 87.371 39.086 87.371 87.289 0 48.156-39.059 87.238-87.371 87.238z"/>
 <path d="m719.53 537.37c60.348 54.254 66.84 149.96 66.938 150.78 1.2617 23.785 20.93 42.254 44.461 42.254 0.86328 0 1.6445-0.046875 2.5078-0.097656 24.613-1.3086 43.5-22.379 42.168-46.992-0.30078-5.4258-8.2578-133.07-96.395-212.35-51.539-46.309-113.32-65.16-197.79-90.191-12.18 9.1094-28.727 22.57-46.969 40.344-31.246 30.48-61.223 67.668-61.223 67.668s-3.7812-25.188 7.6094-66.168c11.652-41.953 28.453-59.82 32.039-63.266-199.96-69.121-171.37-281.23-169.92-290.96 3.7422-24.312-12.887-47.137-37.199-50.902-24.359-4.1641-47.207 12.828-51.023 37.141-13.777 87.875 4.7656 253.87 144.25 347.55-15.887 15.504-31.871 36.805-45.383 68.293-30.73 71.641-6.2031 179.86-6.2031 179.86l86.809 45.289c-44.258 38.652-95.16 94.117-139.29 173.75-40.246 72.672-56.676 163.74-67.402 230.2-1.9688 12.156-3.6133 24.66-3.9258 34.094-0.81641 24.66 11.867 47.426 36.145 51.742 2.6406 0.48047 5.2812 0.73047 7.8711 0.73047 16.934 0 32.496-8.2812 40.008-23.16 3.5898-4.8828 5.9883-11.902 7.3672-18.215 6.4453-29.555 26.074-119.5 52.043-167.46 51.492-95.125 155.44-161.73 197.39-185.55 1.5977 1.4883 3.1445 2.8906 4.7031 4.4531 162.73 161.39 197.81 342.95 197.86 343.04l0.23828-0.046875c6.2148 27.66 26.652 46.934 46.5 46.934 3.6836 0 7.4766-0.48047 11.137-1.4531 23.93-6.1562 38.27-30.469 32.137-54.348-2.9023-11.328-31.645-119.61-31.645-119.75-37.379-131.07-77.699-198.97-113.21-258.85-19.223-32.398-37.332-63.012-54-101.63-27.035-62.82-16.246-115.67-6.9375-152.68 27.336 10.941 49.621 23.156 68.328 39.957z"/>
 <path d="m750.66 237.64c-11.762 0-21.348-9.6367-21.348-21.359 0-11.629 9.5898-20.629 21.348-20.629 11.676 0 20.605 9 20.605 20.629-0.011719 11.723-8.9414 21.359-20.605 21.359z"/>
 <path d="m768.54 293.44c-9.5898 4.0664-22.078-0.73047-26.93-11.773-4.0781-10.262 1.4531-22.668 11.762-27.469 10.309-4.1641 22.738 0.625 27.562 12.348 4.1289 10.383-1.3555 22.871-12.395 26.895z"/>
 <path d="m753.42 176.99c-9.5898-4.0195-14.484-15.793-10.355-26.688 4.1523-11.195 16.621-15.215 26.879-11.195 11.039 4.8477 16.621 16.621 11.762 26.891-4.8516 10.992-17.223 16.559-28.285 10.992z"/>
 <path d="m780.17 124.59c-8.2305-8.2812-8.2305-22.188 0-30.324 7.6211-8.3281 21.301-8.9648 30.324 0 8.2305 8.1367 8.2305 22.043 0 30.324-9.0234 9-22.715 8.2305-30.324 0z"/>
 <path d="m780.17 338.29c-8.2305-8.1953-8.2305-21.996 0-30.18 7.5703-7.7031 21.301-7.7031 30.324 0 7.5469 8.1836 7.5469 22.668 0 30.18-9.0234 8.3281-22.008 8.3281-30.324 0z"/>
 <path d="m819.74 238.99c-12.422 0-21.961-10.309-21.961-22.715 0-12.348 9.5391-21.938 21.961-21.938 12.469 0 22.754 9.5898 22.754 21.938 0.011718 12.395-10.273 22.715-22.754 22.715z"/>
 <path d="m834.71 375.49c-11.039-4.8477-15.887-16.512-11.039-27.562 4.1289-10.273 17.258-15.215 26.832-10.957 11.039 4.7539 17.258 16.477 11.039 27.469-4.1016 10.32-15.777 15.168-26.832 11.051z"/>
 <path d="m852.73 95.664c-11.09 4.2109-22.754-0.68359-27.707-11.676-4.0312-10.367 0.76953-22.727 11.762-26.785 11.09-4.1641 22.715 0.67188 27.562 11.723 4.2227 10.262-0.67188 22.812-11.617 26.738z"/>
 <path d="m827.65 171.85c-8.832-8.6758-8.832-22.523 0-31.344 8.8086-8.1367 21.984-8.1367 32.258 0 8.7227 8.8203 8.7227 23.352 0 31.344-10.273 9.5391-22.789 9.5391-32.258 0z"/>
 <path d="m827.65 290.91c-8.832-8.7734-8.832-22.766 0-32.258 8.8086-8.7617 21.984-8.7617 32.258 0 8.7227 9.5039 8.7227 23.496 0 32.258-10.273 9.4922-23.449 8.7266-32.258 0z"/>
 <path d="m902.23 86.16c-11.723 0-21.301-9.7305-21.301-21.406 0-11.773 9.5898-20.734 21.301-20.734 11.711 0 20.652 8.9531 20.652 20.734-0.011718 11.676-8.9375 21.406-20.652 21.406z"/>
 <path d="m902.23 154.08c-12.445 0-22.668-9.6367-22.668-21.949 0-13.223 10.223-22.766 22.668-22.766 12.445 0 21.887 9.5391 21.887 22.766 0.003906 12.316-9.4414 21.949-21.887 21.949z"/>
 <path d="m902.32 244.51c-15.492 0-28.285-12.828-28.285-28.332 0-15.348 12.793-27.266 28.285-27.266 15.516 0 27.371 11.914 27.371 27.266 0.011719 15.504-11.855 28.332-27.371 28.332z"/>
 <path d="m902.23 323.27c-12.445 0-22.668-9.5391-22.668-22.766 0-12.395 10.223-21.949 22.668-21.949 12.445 0 21.887 9.5391 21.887 21.949 0.003906 13.223-9.4414 22.766-21.887 22.766z"/>
 <path d="m902.23 388.57c-11.723 0-21.301-8.9648-21.301-20.734 0-11.629 9.5898-21.312 21.301-21.312 11.711 0 20.652 9.6953 20.652 21.312-0.011718 11.773-8.9375 20.734-20.652 20.734z"/>
 <path d="m945.39 171.85c-9.5625-7.9922-9.5625-22.523 0-31.344 8.0156-8.1367 22.621-8.9141 31.43 0 8.8086 8.8203 8.0898 23.352 0 31.344-8.8086 9.5391-23.414 9.5391-31.43 0z"/>
 <path d="m945.39 290.91c-9.5625-9.4922-9.5625-22.766 0-32.258 8.0156-8.7617 23.387-8.7617 31.43 0 8.8086 9.5039 8.0898 23.496 0 32.258-8.8086 8.7266-22.703 8.7266-31.43 0z"/>
 <path d="m967.62 376.22c-11.039 4.1641-23.484-0.73047-28.285-11.773-4.8242-11.004 1.3555-22.715 12.395-26.785 9.707-4.1641 22.738 0.68359 26.902 10.945 4.1055 10.945-1.4023 22.719-11.012 27.613z"/>
 <path d="m952.5 95.711c-10.262-3.9258-15.84-15.793-11.039-26.734 4.1758-11.039 16.477-15.254 26.93-11.039 10.992 4.7539 15.07 16.559 10.992 26.785-4.8281 10.988-15.82 15.824-26.883 10.988z"/>
 <path d="m985.22 238.99c-12.469 0-22.008-10.309-22.008-22.715 0-12.348 9.5391-21.938 22.008-21.938 12.445 0 22.715 9.5898 22.715 21.938-0.007812 12.395-10.27 22.715-22.715 22.715z"/>
 <path d="m994.03 124.59c-8.3398-8.2812-8.3398-22.188 0-30.324 8.1836-8.3281 21.984-8.3281 30.254 0 8.293 8.1367 8.293 22.043 0 30.324-8.2695 8.2305-22.07 8.2305-30.254 0z"/>
 <path d="m994.03 338.29c-8.3398-7.5117-8.3398-21.996 0-30.18 8.1836-7.7031 21.984-7.7031 30.254 0 8.293 8.1836 8.293 22.668 0 30.18-8.2695 8.3281-22.07 8.3281-30.254 0z"/>
 <path d="m1033.8 294.17c-11.039-4.1172-15.887-15.742-11.039-26.832 4.1758-9.6367 15.84-15.793 26.879-10.957 11.039 4.8477 15.168 17.148 11.039 27.469-4.0938 10.32-17.219 15.938-26.879 10.32z"/>
 <path d="m1049.6 179.27c-10.309 4.1172-22.715-1.3555-26.879-12.445-4.0547-10.367 0.76953-22.777 11.09-26.891 10.992-4.1172 23.41 0.73047 27.562 11.723 4.1133 10.367-0.6875 22.766-11.773 27.613z"/>
 <path d="m1053.7 237.64c-11.762 0-21.371-9.6367-21.371-21.359 0-11.629 9.6133-20.629 21.371-20.629 11.039 0 20.629 9 20.629 20.629 0 11.723-9.5859 21.359-20.629 21.359z"/>
</svg>
