<?xml version="1.0" encoding="UTF-8"?>
<svg width="1200pt" height="1200pt" version="1.1" viewBox="0 0 1200 1200" xmlns="http://www.w3.org/2000/svg">
 <path d="m581.59 274.52c0 25.656-20.797 46.453-46.449 46.453-25.656 0-46.453-20.797-46.453-46.453s20.797-46.453 46.453-46.453c25.652 0 46.449 20.797 46.449 46.453z"/>
 <path d="m718.02 274.52c0 25.656-20.797 46.453-46.453 46.453-25.652 0-46.453-20.797-46.453-46.453s20.801-46.453 46.453-46.453c25.656 0 46.453 20.797 46.453 46.453z"/>
 <path d="m690.43 423.62c0 17.855-14.477 32.355-32.355 32.355h-105.17c-17.855 0-32.355-14.523-32.355-32.355 0-17.906 14.5-32.383 32.355-32.383h105.17c17.879 0.003906 32.355 14.504 32.355 32.383z"/>
 <path d="m840.55 528.74v-526.02h-469.95l0.95312 524.09c-81.953 24.406-138.24 101.69-138.24 194.95v407.5c-0.26172 94.355 123.88 94.355 123.88 0l-0.11719-394.64h39.406l-0.070313 463.12h419.64l0.16797-463.12h38.594v394.59c0 94.406 123.02 94.406 122.76 0l-0.007813-404.57c0-85.051-51.809-168.03-137.02-195.91zm-40.332 52.023-37.191-38.023-39.215 40-39.168-40-39.191 40-39.191-40-39.191 40-39.191-40-39.168 40-39.191-40-37.547 38.332-0.96875-538.02h389.24v537.71z"/>
</svg>
