<?xml version="1.0" encoding="UTF-8"?>
<svg width="1200pt" height="1200pt" version="1.1" viewBox="0 0 1200 1200" xmlns="http://www.w3.org/2000/svg">
 <path d="m812.29 526.25c57.371-25.883 135.94-61.344 135.94-184.01 0-61.992-43.199-158.16-157.88-168.72 0 0-64.992-2.9297-126.43-57.383-32.82-29.09-62.941-104.34-62.941-104.34v371.35s30.77-72.203 60.348-104.79c59.844-65.953 130.38-57.672 130.38-57.672 81.961 9.625 111.14 75.215 111.14 121.56 0 93.359-53.051 117.3-109.22 142.64-45.07 20.34-96.203 43.391-96.203 107.45 0 75.625 66.648 97.5 102.55 98.496h62.496v-45.121l-61.738-0.26562c-9.6836-0.38281-57.926-4.7266-57.926-53.113 0.011719-33.223 23.832-45.512 69.492-66.094z"/>
 <path d="m961.8 756.25c43.488 0.91016 79.5-33.719 80.375-77.258 0.9375-43.547-33.719-79.547-77.293-80.41-43.477-0.9375-79.5 33.695-80.363 77.281-0.85156 43.496 33.719 79.605 77.281 80.387z"/>
 <path d="m981.14 777.21c-2.3633-1.0781-17.785-4.8945-35.23-0.63672l-91.609 31.934-23.34-69.984c-6.1914-18.551-26.258-28.57-44.773-22.379-18.574 6.1797-28.57 26.23-22.402 44.785l34.68 104.03c3 8.9883 9.4805 16.402 17.977 20.566 4.9219 2.4102 10.246 3.6484 15.613 3.6484 3.9375 0 7.8828-0.67188 11.676-1.9688l95.484-33.469c6.5273-2.3398 13.754 1.0547 16.105 7.6328 2.3398 6.5508-1.0547 13.766-7.4141 14.016l-53.977 18.516-0.046875 80.016v0.69531l-0.17969 173.54c0 21.625 18.047 39.133 39.707 39.133 21.625 0 39.133-17.508 39.133-39.133l-0.17969-117.05c32.242-4.9805 57.48-32.148 57.77-65.688 0.49219-55.285 0.49219-66.312 0.91016-121.54 0.24609-30.621-17.621-58.32-49.902-66.672z"/>
 <path d="m229.77 424.07c6.5039 0.61328 13.199-2.125 17.293-7.7891 6.2539-8.6172 4.3789-20.578-4.2109-26.785l-77.484-56.746c-8.5664-6.2031-20.617-4.3086-26.82 4.2344-6.2266 8.543-4.3086 20.555 4.2617 26.762l77.484 56.762c2.875 2.0742 6.1523 3.2656 9.4766 3.5625z"/>
 <path d="m149.06 445.49c16.945-20.34 47.137-23.102 67.477-6.1562l78.539 65.363 81.562-137.54v-0.023438l0.023437-0.023437s12.035-19.117 14.676-21.816c24.156-32.652 45.383-45.215 50.293-47.953 37.895-26.629 99.145-5.4727 99.047 63.562v1.2969l-1.0039 777.93c0.046875 25.715-23.449 46.547-52.488 46.621-29.074 0-49.895-18.781-52.633-46.512l-80.891-497.16 112.54-189.82c3.5508-5.9883 1.5703-13.715-4.4023-17.258-5.9883-3.6016-13.715-1.5703-17.281 4.4023l-97.188 163.52c-8.6875 13.57-18.562 18.574-31.57 20.785-2.7109 0.46875-5.4492 0.71875-8.1484 0.71875-11.113 0-21.973-3.8867-30.66-11.113l-121.73-101.34c-20.32-16.93-23.102-47.145-6.1602-67.484z"/>
 <path d="m334.45 287.77-0.12109-0.070313c-45.012-17.172-69.133-66.59-54.203-113.53 15.422-48.203 66.672-74.844 114.42-59.449 12.289 3.9375 23.074 10.488 32.16 18.66 3.7422 3.7188 23.449 22.609 41.641 27.359 26.867 6.9961 58.141-11.629 58.141-11.629s-9.2383 49.621-36.648 84.672c-68.945 81.203-141.1 60.672-155.39 53.988z"/>
</svg>
