<?xml version="1.0" encoding="UTF-8"?>
<svg width="1200pt" height="1200pt" version="1.1" viewBox="0 0 1200 1200" xmlns="http://www.w3.org/2000/svg">
 <path d="m623.26 626.86c0-54.547 26-109.45 82.738-137.48-1.4531-0.023437-2.8086-0.19141-4.2617-0.19141h-222.17c-101.07 0-154.52 68.145-154.52 137.67v325.95h94.406v-319.29h45.5l0.09375 319.29h158.19v-325.95z"/>
 <path d="m293.5 626.86c0-54.547 25.953-109.45 82.715-137.48-1.4531-0.023437-2.8086-0.19141-4.2617-0.19141l-215.34 0.003906c-101.07 0-154.52 68.145-154.52 137.67v325.95h94.43v-319.29h45.477l0.14453 319.29h151.36z"/>
 <path d="m452.38 327.71 132.03-132.03 132.01 132.01-132.03 132.03z"/>
 <path d="m773.95 239.05 148.14 221.79 148.17-221.79z"/>
 <path d="m1045.1 489.19h-235.76c-101.12 0-154.55 68.145-154.55 137.67v325.95h94.43v-319.29h45.5l0.11719 319.29h266.14l-0.046875-319.29h44.332v319.29h94.383v-325.95c-0.023438-69.527-53.453-137.67-154.55-137.67z"/>
 <path d="m372.14 327.86c0 61.133-49.559 110.69-110.69 110.69s-110.69-49.559-110.69-110.69c0-61.133 49.559-110.69 110.69-110.69s110.69 49.555 110.69 110.69z"/>
</svg>
