<?xml version="1.0" encoding="UTF-8"?>
<svg width="1200pt" height="1200pt" version="1.1" viewBox="0 0 1200 1200" xmlns="http://www.w3.org/2000/svg">
 <path d="m780.53 458.95h74.473v50.062h-74.473z"/>
 <path d="m1120.6 964.3c-61.945-20.473-82.715-20.473-144.59 0-63.73 21.121-89.016 21.121-153.59 0-65.172-21.156-83.617-19.777-144.68 0-64.836 21.121-89.965 21.121-153.61 0-62.004-20.473-82.656-20.473-144.67 0-63.684 21.121-88.98 21.121-153.59 0-31.465-10.246-56.039-15.457-73.055-15.457-16.031 0-40.105 5.2188-71.652 15.457-29.352 9.625-52.789 14.27-71.16 15.203v95.195l0.26562 3.7812c10.859-5.9297 35.352-11.148 66.938-21.348 66.359-21.719 89.977-20.496 152.79 0 61.211 19.859 79.801 21.227 144.73 0 64.488-21.156 89.461-21.156 154.36 0 64.859 21.133 83.438 19.859 144.74 0 62.664-20.676 86.137-21.781 152.72 0 60.875 19.859 79.523 21.133 144.72 0 64.586-21.156 89.879-21.156 153.56 0 27.359 9.0859 49.547 14.148 66.191 15.191v-90.48c-15.527-0.011719-38.594-6.9492-70.406-17.543z"/>
 <path d="m763.25 537v-0.98438c0-43.633-34.246-79.129-76.332-79.129h-35.941c2.375 6.2656 3.7305 13.02 3.7305 20.09 0 7.0781-1.3555 13.836-3.7422 20.113h35.953c19.934 0 36.133 17.461 36.133 38.93v0.44531l-279.55-0.003906c-89.23 0-154.36 51.625-154.36 142.63v235.5c27.492 2.6172 51.949-2.375 90.301-15.109 7.332-2.4258 14.051-4.5234 20.363-6.3711l0.023437-174.52h32.617v167.04c28.273-4.0938 51.156 0.48047 91.668 13.848 63.66 21.121 88.777 21.121 153.61 0 36.059-11.664 57.266-16.859 81.984-14.867l-0.003907-166.01h32.566l0.035156 171.94c8.9648 2.3398 18.793 5.2812 30.098 8.9531 34.008 11.125 57.133 16.32 80.699 15.742l0.003906-236.14c-0.011719-85.98-58.25-136.73-139.86-142.11z"/>
 <path d="m404.69 497.09h152.63c7.3672 13.766 21.887 23.258 38.797 23.258 24.324 0 44.039-19.414 44.039-43.355 0-23.941-19.727-43.344-44.039-43.344-16.922 0-31.43 9.4922-38.797 23.258l-152.63-0.007812c-19.922 0-36.121-17.461-36.121-38.914v-40.895c0-21.469 16.211-38.93 36.121-38.93h0.10938c5.1953 54.086 50.867 96.516 106.29 96.516 34.645 0 65.496-16.57 85.02-42.203 19.535 25.621 50.363 42.203 84.996 42.203 58.906 0 106.84-47.93 106.84-106.81 0-43.199-25.836-80.41-62.844-97.223-12.742-58.727-65.484-102.83-128.99-102.83-63.492 0-116.22 44.062-128.99 102.77-28.078 12.77-49.727 37.332-58.5 67.355h-3.9375c-42.098 0-76.332 35.496-76.332 79.129v40.895c0.011719 43.645 34.25 79.129 76.344 79.129zm106.39-229.82h170.02c33.434 0 60.625 27.191 60.625 60.602 0 33.406-27.191 60.602-60.625 60.602-33.406 0-60.602-27.191-60.602-60.602 0-12.758-10.344-23.102-23.102-23.102-0.43359 0-0.86328 0-1.2852 0.023437-13.031-0.57422-24.406 9.875-24.406 23.062 0 33.406-27.191 60.602-60.625 60.602-33.406 0-60.602-27.191-60.602-60.602 0.007813-33.406 27.199-60.586 60.605-60.586z"/>
</svg>
