<?xml version="1.0" encoding="UTF-8"?>
<svg width="1200pt" height="1200pt" version="1.1" viewBox="0 0 1200 1200" xmlns="http://www.w3.org/2000/svg">
 <path d="m258.38 993.24c-3.5156 0-7.0664-1.1055-10.078-3.3828-134.48-101.9-220.55-256.27-236.12-423.55-0.85156-9.1914 5.9023-17.34 15.098-18.203 9.0977-0.875 17.34 5.9023 18.203 15.098 14.711 157.97 96 303.76 223.01 399.98 7.3672 5.5938 8.8086 16.078 3.2383 23.426-3.2852 4.3516-8.2773 6.6289-13.344 6.6289z"/>
 <path d="m393.1 1069.6c-2.0898 0-4.1992-0.38281-6.2383-1.2109-25.246-10.164-50.09-22.199-73.812-35.762-8.0156-4.5859-10.801-14.797-6.2148-22.812 4.5859-8.0156 14.809-10.789 22.824-6.2148 22.402 12.805 45.852 24.168 69.684 33.77 8.5664 3.4453 12.719 13.188 9.2773 21.742-2.6328 6.5273-8.8984 10.488-15.52 10.488z"/>
 <path d="m540.96 1107.5c-0.67188 0-1.3438-0.035157-2.0156-0.12109-28.094-3.3711-56.148-8.7734-83.375-16.055-8.9297-2.3867-14.219-11.555-11.844-20.461 2.3867-8.9414 11.594-14.23 20.473-11.844 25.715 6.8633 52.199 11.977 78.73 15.156 9.168 1.1055 15.707 9.4336 14.605 18.613-1.0234 8.4727-8.2344 14.711-16.574 14.711z"/>
 <path d="m655.63 509.83c0 24.414-19.793 44.207-44.207 44.207-24.418 0-44.211-19.793-44.211-44.207 0-24.414 19.793-44.207 44.211-44.207 24.414 0 44.207 19.793 44.207 44.207z"/>
 <path d="m611.43 554.18c-24.445 0-44.328-19.895-44.328-44.352s19.883-44.34 44.328-44.34c24.445 0 44.328 19.883 44.328 44.34s-19.887 44.352-44.328 44.352zm0-88.414c-24.289 0-44.039 19.766-44.039 44.062 0 24.301 19.754 44.062 44.039 44.062 24.277 0 44.051-19.766 44.051-44.062 0-24.289-19.766-44.062-44.051-44.062z"/>
 <path d="m1106.8 601.96c-1.0547 0-5.3516 0.023438-9.3242 0.058594 5.6523-29.867 8.6289-60.672 8.6289-92.184 0-273.19-221.47-494.68-494.68-494.68-273.21 0-494.68 221.48-494.68 494.68 0 273.2 221.48 494.68 494.68 494.68 30.422 0 60.18-2.7852 89.09-8.0625 30.469 103.7 130.14 184.41 241.13 184.41 138.7 0 242.35-121.56 242.38-230.26v-261.63c0-57.133-38.832-87.012-77.219-87.012zm-834.89-132.73c20.367-171.86 166.33-301.45 339.52-301.45 55.043 0 109.75 13.414 158.23 38.785 6.8164 3.5625 9.457 11.988 5.8906 18.805-3.5742 6.8164-12.012 9.457-18.805 5.8789-44.508-23.281-94.754-35.605-145.31-35.605-159.07 0-293.14 119.02-311.84 276.85-0.83984 7.0938-6.8516 12.289-13.812 12.289-0.53906 0-1.1055-0.023438-1.6562-0.097656-7.6523-0.89844-13.125-7.8242-12.215-15.457zm-4.0195 69.23c-0.73047-9.1914 6.1328-17.281 15.324-18.047 9.3125-0.73047 17.219 6.1914 18 15.215v0.10938c0.78125 9.1445-6.0703 17.281-15.277 18-0.44531 0.058593-0.94922 0.058593-1.3906 0.058593-8.6289 0-15.934-6.7461-16.656-15.336zm27.359 75.648c-7.4766 0-14.102-5.0742-16.105-12.266-1.2344-4.3555-0.67188-8.8086 1.5469-12.707 2.1836-3.9102 5.7969-6.6953 10.094-7.8594 8.7461-2.3984 18.168 2.9648 20.555 11.652 2.4609 8.8555-2.7852 18.109-11.652 20.578-1.4727 0.35938-2.9375 0.60156-4.4375 0.60156zm29.16 55.449c-2.3516 1.1641-4.8008 1.7266-7.3555 1.7266-6.4688 0-12.215-3.5625-15.047-9.3008-0.046875-0.12109-0.046875-0.16797-0.10938-0.27734-1.8359-3.9492-2.125-8.4102-0.67188-12.539 1.3906-4.2344 4.4023-7.6328 8.4258-9.5898 2.3398-1.1758 4.7891-1.7266 7.3555-1.7266 6.4062 0 12.098 3.5039 14.941 9.1914 0.046876 0.058594 0.046876 0.12109 0.10938 0.12109 3.9922 8.2969 0.59766 18.328-7.6484 22.395zm41.188 39.457c-0.61328 4.4648-2.9023 8.3516-6.5156 11.102-2.9023 2.1836-6.3594 3.3359-10.031 3.3359-5.293 0-10.199-2.4492-13.379-6.6953-5.5195-7.3555-4.0078-17.891 3.3359-23.398 2.9531-2.2422 6.4062-3.3477 10.031-3.3477 5.293 0 10.199 2.4609 13.379 6.707 2.6758 3.5352 3.8398 7.9062 3.1797 12.297zm36.945 54.348c-3.1797 3.457-7.6445 5.3984-12.371 5.3984-4.0664 0-8.0273-1.5-11.09-4.2461-0.046875-0.046874-0.10938-0.097656-0.16797-0.097656-3.2891-3.0234-5.2305-7.1406-5.3984-11.605-0.22656-4.5234 1.332-8.7461 4.3438-12.035 5.9648-6.5742 17.051-7.0938 23.629-1.0664 6.8047 6.2031 7.2461 16.848 1.0547 23.652zm208.89-71.941c-100.29 0-181.59-81.289-181.59-181.59s81.301-181.59 181.59-181.59c100.27 0 181.6 81.301 181.6 181.59-0.003907 100.29-81.316 181.59-181.6 181.59zm522.43 259.19c-0.023438 83.293-84 180.11-192.23 180.11-106.78 0-200.45-93.312-200.47-199.69l-0.023438-3.7422 0.023438-149.32c2.375-20.953 11.93-31.598 28.332-31.598 0.097657 0 0.16797 0.023437 0.25391 0.023437l5.4102 0.82812c11.82 3.5273 20.113 17.629 20.113 30.434v112.57h31.105l-0.003906-303.54c0-14.93 12.145-27.059 27.059-27.059 14.93 0 27.059 12.133 27.059 27.059v208.8h31.117l0.003907-285.65c0-7.2227 2.8203-14.004 7.9336-19.129 5.1133-5.125 11.891-7.9336 19.129-7.9336 14.914 0 27.059 12.145 27.059 27.059l-0.003906 285.65h31.105v-229.18c0-14.93 12.145-27.059 27.047-27.059 14.93 0 27.07 12.133 27.07 27.059v228.13h28.801v-115.27c0-14.902 12.145-27.047 27.059-27.047 16.43 0 27.059 14.461 27.059 36.852l0.003907 261.64z"/>
</svg>
