<?xml version="1.0" encoding="UTF-8"?>
<svg width="1200pt" height="1200pt" version="1.1" viewBox="0 0 1200 1200" xmlns="http://www.w3.org/2000/svg">
 <path d="m684.67 224.18h-215.99v-47.254h215.99z"/>
 <path d="m684.67 347.39h-215.99v-47.254h215.99z"/>
 <path d="m330.04 8.8672v339.45h-6.5625c-30.66 0-46.391 23.125-47.305 46.945-0.28906 2.2305-0.48047 4.5117-0.48047 6.9375l-0.28906 204.79h-26.941l0.003907-137.73c-28.152 15.852-68.988 50.93-68.988 120l-0.011718 70.812h-22.535v-82.848c-26.891 14.207-78.898 49.129-78.898 123.05l-0.003906 499.73h299.65v-132.18s25.309-23.723 53.617-56.426h674.99v-1002.5zm730.59 956.88h-593.21c22.633-31.836 40.645-65.652 40.645-92.629v-32.93h459.57v-47.27l-459.57 0.007812-0.023438-75.949h459.6v-47.242l-459.64-0.003906-0.035156-75.949h459.67v-47.258l-459.68 0.003906v-23.762c0-27.121-14.113-44.676-31.895-52.176h208.61v-47.258l-215.98 0.003907v44.797c-29.219-7.5117-64.031 9.9961-64.031 54.648l0.10938 202.64c0 10.621-26.809 11.027-29.039 1.3086l-0.003906-672.21h684.91l0.003906 911.22z"/>
 <path d="m740.48 176.93h227.15v293.66h-227.15z"/>
</svg>
