<?xml version="1.0" encoding="UTF-8"?>
<svg width="1200pt" height="1200pt" version="1.1" viewBox="0 0 1200 1200" xmlns="http://www.w3.org/2000/svg">
 <path d="m418.44 821.14h287.75v256.87c0 41.977 33.898 75.887 75.875 75.887 41.988 0 76.188-33.91 76.188-75.887l0.003906-256.87c18.938 0 32.797-14.914 32.797-32.34l-0.003906-191.58-248.3-117.55h-511.03l-65.93-37.297c-21.156-12.145-48.059-4.6914-60.023 16.465-11.977 21.156-4.6562 47.902 16.488 60.023l104.17 59.734v499.43c0 41.977 34.055 75.887 76.043 75.887 41.988 0 76.031-33.91 76.031-75.887l-0.14453-195.61 137.76 232.63c21.469 36.098 68.113 47.879 104.33 26.438 35.914-21.48 47.746-68.438 26.293-104.51z"/>
 <path d="m1057.8 199.12-37.656-58.199-367.59 73.754 138.2 198.23 63.266-39.551-0.003906-145.14h36.383v165.3l-111.37 69.602-54.742-79.68-50.941 60.742 222.84 109.34 301.48-183.28 0.51562-171.3zm-99.805 125.38c-19.586 0-35.461-15.887-35.461-35.473 0-19.598 15.875-35.473 35.461-35.473 19.633 0 35.473 15.875 35.473 35.473 0 19.586-15.84 35.473-35.473 35.473z"/>
 <path d="m642.95 479.84-640.52-308.86v-52.754l671.24 325.95z"/>
</svg>
