<?xml version="1.0" encoding="UTF-8"?>
<svg width="1200pt" height="1200pt" version="1.1" viewBox="0 0 1200 1200" xmlns="http://www.w3.org/2000/svg">
 <path d="m375.38 776.09c62.074-20.473 82.754-20.473 144.82 0 63.73 21.156 88.859 21.156 153.78 0 61.117-19.777 79.598-21.168 144.83 0 1.9219 0.625 3.6953 1.1875 5.5312 1.7539 22.754-38.762 53.988-87.457 85.5-121.96 60.613-66.383 249.34-180.16 256.54-246.46 3.7812-34.859-20.184-34.586-20.184-34.586s-83.594 46.117-172.95 80.711c-89.352 34.586-206.47 32.879-206.47 32.879s327.54-230.33 255.47-283.66c-25.066-18.551-148.43 67.738-148.43 67.738s-54.781-33.156-191.7 10.078c-222.54 70.273-390.93 365-455.81 494.99 61.191 19.578 86.918 19.121 149.08-1.4922zm317.12-292.93c50.594-82.945 160.6-140.16 160.6-140.16s-71.398 78.359-114.55 139.69c-30.926 43.934-70.031 132.21-87.238 128.76-17.188-3.4219 5.4297-69.695 41.191-128.29zm-98.305 90.684c15.059 0 27.266 12.227 27.266 27.254 0 15.07-12.203 27.277-27.266 27.277-15.047 0-27.254-12.215-27.254-27.277-0.007813-15.027 12.207-27.254 27.254-27.254z"/>
 <path d="m1117.3 840.96c-61.992-20.473-82.801-20.473-144.74 0-63.77 21.168-89.113 21.168-153.74 0-65.242-21.168-83.723-19.777-144.83 0-64.922 21.168-90.047 21.168-153.78 0-62.062-20.473-82.754-20.473-144.82 0-63.758 21.168-89.074 21.168-153.76 0-31.5-10.234-56.102-15.469-73.152-15.469-16.043 0-40.129 5.2422-71.723 15.469-29.387 9.6367-52.836 14.305-71.23 15.215v95.316l0.25391 3.7695c10.883-5.9141 35.41-11.16 67.02-21.371 66.422-21.719 90.059-20.52 152.93 0 61.262 19.859 79.883 21.254 144.89 0 64.559-21.156 89.566-21.156 154.54 0 64.922 21.145 83.508 19.859 144.89 0 62.734-20.711 86.242-21.781 152.89 0 60.938 19.859 79.598 21.145 144.86 0 64.656-21.156 89.965-21.156 153.73 0 27.383 9.1211 49.609 14.16 66.266 15.238v-98.195c-12.949 6.3359-38.617 0.64453-70.488-9.9727z"/>
</svg>
