<?xml version="1.0" encoding="UTF-8"?>
<svg width="1200pt" height="1200pt" version="1.1" viewBox="0 0 1200 1200" xmlns="http://www.w3.org/2000/svg">
 <path d="m1061.8 477.2s-101.03-38.172-197.05-41.723c-98.652-3.625-196.79 28.98-196.79 28.98s-19.715 8.0742-16.43 19.715c4.2969 15.215 17.746 11.82 25.703 11.594 9.2656-0.27734 37.105-4.6328 90.938-3.9375 39.875 0.50391 72.469 7.3789 72.469 7.3789s-49.824 33.625-52.152 70.715c-0.79297 12.625 4.9062 21.684 10.379 27.383 8.6055-11.785 23.734-29.785 43.703-42.227 23.281-14.543 38.664-17.363 39.277-17.496 5.0625-0.86328 9.9102 2.4961 10.801 7.5859 0.88672 5.0391-2.4727 9.8516-7.5352 10.789-0.28906 0.058593-12.949 2.6289-32.688 14.93-22.645 14.137-38.734 37.246-43.754 45.023 0.83984 6.3359 2.8086 14.316 7.4297 21.227 2.7461 4.1289 6.1797 6.5156 9.6016 7.8359 7.043-10.379 17.23-23.195 29.953-32.641 18.254-13.633 30.359-16.465 31.691-16.738 5.0508-1.043 9.9727 2.1953 11.027 7.2227 1.0547 5.0039-2.1133 9.8984-7.1055 11.027-0.38281 0.097656-9.793 2.4727-24.504 13.414-9.6953 7.2344-17.855 17.062-23.867 25.645 1.2461 6.3008 3.875 14.797 9.3125 18.984 21.086 16.234 42.91 0 42.91 0l27.59-20.855s23.16 12.562 41.699 12.18c46.262-0.98438 97.586-33.012 97.586-33.012z"/>
 <path d="m1086.1 451.7h106.57v231.72h-106.57z"/>
 <path d="m639.61 869.39c-14.051 0-26.113-10.645-27.551-24.938l-47.902-471.27c-1.5469-15.238 9.5508-28.848 24.793-30.395 15.109-1.5703 28.848 9.5391 30.395 24.793l47.891 471.27c1.5586 15.254-9.5508 28.848-24.793 30.395-0.94922 0.097656-1.8984 0.14453-2.832 0.14453z"/>
 <path d="m564.72 869.4c-12.637 0-24.059-8.6992-27.012-21.539l-105.82-460.73c-3.4336-14.93 5.9023-29.809 20.832-33.238 14.965-3.4062 29.809 5.9023 33.238 20.832l105.8 460.73c3.4336 14.93-5.8906 29.809-20.82 33.238-2.0859 0.48047-4.1719 0.70703-6.2266 0.70703z"/>
 <path d="m490.66 869.4c-11.566 0-22.355-7.2969-26.27-18.852l-143.32-423.78c-4.8945-14.508 2.8906-30.254 17.387-35.16 14.578-4.8945 30.254 2.8906 35.16 17.387l143.29 423.78c4.9062 14.508-2.8789 30.254-17.387 35.16-2.9375 0.98438-5.9258 1.4609-8.8672 1.4609z"/>
 <path d="m413.33 868.56c-9.5039 0-18.742-4.8711-23.914-13.656l-215.77-365.77c-7.7891-13.188-3.3945-30.191 9.8047-37.98 13.164-7.7773 30.18-3.4062 37.98 9.8047l215.77 365.77c7.7773 13.188 3.3945 30.203-9.8047 37.98-4.418 2.6133-9.2773 3.8477-14.066 3.8477z"/>
 <path d="m331.33 868.56c-4.9805 0-10.008-1.3203-14.555-4.1406l-295.88-182.89c-13.02-8.0625-17.051-25.152-9-38.184 8.0625-13.031 25.164-17.062 38.184-9l295.86 182.88c13.02 8.0625 17.062 25.152 9 38.184-5.2422 8.4844-14.324 13.152-23.613 13.152z"/>
</svg>
