<?xml version="1.0" encoding="UTF-8"?>
<svg width="1200pt" height="1200pt" version="1.1" viewBox="0 0 1200 1200" xmlns="http://www.w3.org/2000/svg">
 <path d="m1166.9 511.57-157.57-164.79 61.477-149.64-77.406 66.215 25.617-109.81-308.07 287.86c-10.645-45.145-46.57-80.355-91.855-89.668v-27.645c0-58.117-42.883-105.38-95.57-105.38h-99.762c-38.645 0-71.809 25.547-86.832 62h-94c-55.906 0-101.38 52.047-101.38 116v95.047c0 3.9766 0.61719 7.7148 0.95312 11.547l-20.195 0.003906c-34.07 0-62.93 12.145-86.691 36.355-23.762 24.289-35.594 53.453-35.594 87.383v203.83h67.953v-189.05h222.52c-7.5234-11.738-12.023-25.668-12.023-40.668v-132.17c0-41.285 33.238-74.93 74.117-74.93h26.953v282.09h-17.094v0.59375l-276.91 0.007813 47 125.09-45.215 71.332v270.09c0 14.547 7.9531 55.285 48.832 55.285 39.953 0 48.668-40.738 48.668-55.285v-227.81l55.355-85.906v99.332l102.67 240.33c12.238 27.215 43.094 39.953 72.168 23.57 28.57-16.047 20.906-53.594 12.738-71.738l-84.906-204.67 60.43-77.977s56.645 43.977 130.12 56.617v-216.21h33.594v219.88c86.617 4.668 140.88-14.785 140.88-14.785v259.38c0 18.645 12.355 55.285 51.453 55.285 39.094 0 48.977-40.738 48.977-55.285v-316.73l68.238-121.76c15.883 4.2617 32.215 7.332 48.285 7.332 16.383 0 32.523-2.8086 47.477-9.5234 51.117-23.145 72.168-59.977 81.047-86.5l52.906 21.168c31.355 10.906 53.406 6.3086 68.738-7.1914 15.094-13.238 21.906-28.238 24.617-46.617 3.0508-20.547-3.4492-42.285-32.711-71.906zm-838.69-159.88c-54 11.383-94.668 59.645-94.668 117.31v34.285h-47c-0.5-3.832-1.4062-7.5469-1.4062-11.547v-95.047c0-39.906 25.906-72.383 57.785-72.383h85.285zm200.29 324.43h-105.36l-0.003906-282.07h105.36zm-156.19-327.02v-25c0-33.762 23.07-61.285 51.453-61.285h99.762c28.383 0 51.5 27.5 51.5 61.285v25zm297.24 252.07c0 41.355-33.238 74.977-74.145 74.977h-23.309v-282.1h23.309c40.883 0 74.145 33.645 74.145 74.93zm289.29 71.617c-19.547 8.8086-42.785 8.1172-65.977 2.8828l56.691-101.09 73.57 29.43c-6.4023 20.066-22.594 49.949-64.285 68.781z"/>
</svg>
