<?xml version="1.0" encoding="UTF-8"?>
<svg width="1200pt" height="1200pt" version="1.1" viewBox="0 0 1200 1200" xmlns="http://www.w3.org/2000/svg">
 <path d="m976.34 496.39s-165.53-64.57-322.88-70.57c-161.69-6.1562-322.55 49.008-322.55 49.008s-32.293 13.691-26.891 33.348c7.0078 25.703 29.039 19.969 42.086 19.586 15.191-0.45703 60.793-7.8242 149.04-6.6367 65.328 0.88672 118.78 12.516 118.78 12.516s-81.684 56.844-85.465 119.59c-1.3086 21.383 8.0391 36.695 17.016 46.332 14.09-19.945 38.93-50.398 71.617-71.426 38.148-24.613 63.301-29.375 64.379-29.578 8.2695-1.4766 16.211 4.2109 17.688 12.793 1.4531 8.5547-4.0547 16.703-12.301 18.238-0.51562 0.12109-21.289 4.4414-53.617 25.273-37.105 23.914-63.469 63.023-71.676 76.176 1.3672 10.754 4.6328 24.254 12.133 35.855 4.5234 7.043 10.129 11.062 15.758 13.297 11.508-17.594 28.234-39.215 49.02-55.199 29.965-23.062 49.789-27.828 51.984-28.297 8.2578-1.7539 16.332 3.6836 18.035 12.191 1.7539 8.4727-3.4805 16.766-11.641 18.625-0.58984 0.15625-16.031 4.2461-40.129 22.754-15.91 12.227-29.27 28.871-39.109 43.379 2.0508 10.621 6.3594 25.008 15.227 32.062 34.57 27.469 70.309 0 70.309 0l45.266-35.258s37.945 21.227 68.293 20.594c75.852-1.6562 159.94-55.848 159.94-55.848z"/>
 <path d="m1016.2 453.25h174.62v391.93h-174.62z"/>
 <path d="m180.11 416.62h-77.199v-379.23h-93.91v1083.8h93.91v-518.65h77.207c51.336 0 92.965-41.629 92.965-92.977-0.011719-51.32-41.637-92.961-92.973-92.961z"/>
</svg>
