<?xml version="1.0" encoding="UTF-8"?>
<svg width="1200pt" height="1200pt" version="1.1" viewBox="0 0 1200 1200" xmlns="http://www.w3.org/2000/svg">
 <path d="m751.41 378.05h-120.61v-79.105c0-86.23 70.152-156.39 156.38-156.39h258.47v120.62h-258.45c-19.738 0-35.785 16.043-35.785 35.809l0.003907 79.066z"/>
 <path d="m1031.1 6.6953h-255.88v64.141h95.027v45.191h65.785v-45.191h95.062z"/>
 <path d="m551.77 634.03h260.21v228.48h-260.21z"/>
 <path d="m989.98 522.39h-48.121v86.102h48.121c23.723 0 43.043-19.309 43.043-43.055 0-23.727-19.32-43.047-43.043-43.047z"/>
 <path d="m1033 776.35c0-22.895-18-41.484-40.547-42.805 22.547-1.3086 40.547-19.906 40.547-42.781 0-23.746-19.32-43.066-43.043-43.066h-48.121v254.93h48.121c23.723 0 43.043-19.309 43.043-43.055 0-20.113-13.906-36.887-32.555-41.617 18.648-4.7031 32.555-21.504 32.555-41.605z"/>
 <path d="m808.62 957.66h-253.49c-53.93 0-97.801-43.871-97.801-97.789v-431.25h53.258v431.24c0 24.562 19.98 44.531 44.531 44.531h253.49c24.551 0 44.531-19.969 44.531-44.531v-431.24h53.258v431.24c0.007812 53.918-43.852 97.801-97.777 97.801z"/>
 <path d="m553.75 993.86h-25.043c-63.035 0-110.65-59.387-110.65-111.02 0 0 0.13281-13.68 0.13281-13.934l-0.003906-279.2c-0.20312-29.137-23.879-52.703-53.051-52.703-28.691 0-51.926 22.824-52.922 51.277v272.15c-0.011719 0.21484-0.17969 31.031-0.17969 31.031 0.78125 24.254 3.8516 60.109 13.812 98.34 16.969 65.16 70.441 105.37 70.969 105.77 5.7344 4.2461 6.9492 12.324 2.7227 18.059-2.5312 3.4336-6.457 5.2578-10.402 5.2578-2.6641 0-5.3281-0.81641-7.6328-2.5195-2.1602-1.5859-46.285-33.77-70.945-89.941l-138.05 167.73h371.66s76.656-18.91 144.34-69.949c59.699-45.012 96.156-112.7 102.16-130.04h-236.91z"/>
 <path d="m720 442.75c-1.7148 0-3.1914-0.25391-4.9219-0.71875-10.309-2.7109-16.453-13.285-13.738-23.605 2.7109-10.066 13.488-16.453 23.566-13.727 10.309 2.6992 16.441 13.246 13.766 23.555-2.2188 8.5898-10.055 14.496-18.672 14.496z"/>
 <path d="m661.7 442.75c-1.7031 0-3.2031-0.25391-4.9062-0.71875-10.309-2.7109-16.441-13.285-13.754-23.605 2.7227-10.066 13.512-16.453 23.578-13.727 10.297 2.6992 16.441 13.246 13.754 23.555-2.2188 8.5898-10.078 14.496-18.672 14.496z"/>
 <path d="m720 498.25c-1.7148 0-3.1914-0.23828-4.9219-0.74219-10.309-2.6758-16.453-13.223-13.738-23.543 2.7109-10.066 13.488-16.441 23.566-13.754 10.309 2.6758 16.441 13.246 13.766 23.555-2.2188 8.6133-10.055 14.484-18.672 14.484z"/>
 <path d="m661.16 498.25c-1.7148 0-3.1797-0.23828-4.9062-0.74219-10.309-2.6758-16.441-13.223-13.754-23.543 2.6992-10.066 13.523-16.441 23.594-13.754 10.309 2.6758 16.441 13.246 13.738 23.555-2.2188 8.6133-10.078 14.484-18.672 14.484z"/>
 <path d="m720 553.51c-1.7148 0-3.1914-0.25391-4.9219-0.74219-10.309-2.6875-16.453-13.234-13.738-23.543 2.7109-10.078 13.488-16.453 23.566-13.766 10.309 2.6875 16.441 13.262 13.766 23.566-2.2188 8.6055-10.055 14.484-18.672 14.484z"/>
 <path d="m661.7 553.51c-1.7031 0-3.2031-0.25391-4.9062-0.74219-10.309-2.6875-16.441-13.234-13.754-23.543 2.7227-10.078 13.512-16.453 23.578-13.766 10.297 2.6875 16.441 13.262 13.754 23.566-2.2188 8.6055-10.078 14.484-18.672 14.484z"/>
 <path d="m720 608.5c-1.7148 0-3.1914-0.23828-4.9219-0.71875-10.309-2.6758-16.453-13.246-13.738-23.566 2.7109-10.066 13.488-16.441 23.566-13.727 10.309 2.6875 16.441 13.234 13.766 23.543-2.2188 8.6016-10.055 14.469-18.672 14.469z"/>
</svg>
