<?xml version="1.0" encoding="UTF-8"?>
<svg width="1200pt" height="1200pt" version="1.1" viewBox="0 0 1200 1200" xmlns="http://www.w3.org/2000/svg">
 <path d="m1156 434.12c-1.3906-0.55078-74.953-34.754-176.34-67.633v-81.289h-81.562v57.156c-18.469-4.9062-37.344-9.5742-56.531-13.789-145.64-31.969-233.14-32.496-240.18-32.617-0.011719 0-0.023437-0.011719-0.058594 0h-0.25391-0.25391c-0.023438-0.011719-0.046875 0-0.058594 0-7.043 0.12109-94.523 0.64844-240.18 32.617-22.211 4.8711-44.016 10.355-65.242 16.129v-59.496h-81.551v84.086c-96.926 32.004-166.29 64.309-167.63 64.836-7.7383 3.0586-12.445 10.922-11.473 19.188 0.96094 8.2578 7.3555 14.832 15.574 16.043l294.42 42.887c-25.922 34.812-61.465 100.86-77.281 214.19-18 128.93 5.0391 261.12 6.0234 266.68 2.2812 12.84 13.453 21.852 26.062 21.852 1.5352 0 3.0977-0.13281 4.6562-0.40625 14.41-2.543 24.023-16.309 21.469-30.719-0.22656-1.2734-22.523-129.7-5.7227-250.07 10.152-72.73 28.801-122.72 46.223-155.89-6.2031 23.219-11.688 48.973-15.758 78.18-17.988 128.93 5.0391 261.1 6.0234 266.68 2.2812 12.84 13.453 21.852 26.062 21.852 1.5352 0 3.0977-0.13281 4.6562-0.40625 14.41-2.5547 24.012-16.309 21.469-30.719-0.22656-1.2852-22.512-129.68-5.7227-250.07 7.1758-51.371 18.602-91.355 30.84-122.2 6.3594 13.402 11.879 27.77 19.199 40.668 33.383 58.871 74.832 89.207 74.832 89.207-2.7617 1.4883 25.285 2.3164 57.574 2.5195v54.227h-49.188c-9.8164 0-17.762 7.957-17.762 17.762v102.3c0 9.8047 7.957 17.762 17.762 17.762h135.53c9.8047 0 17.762-7.957 17.762-17.762v-102.3c0-9.8047-7.957-17.762-17.762-17.762h-49.199v-54.258c29.844-0.27734 54.551-1.1055 51.938-2.4961 0 0 43.895-32.93 74.82-89.207 7.1641-13.02 12.84-27.266 19.199-40.668 12.254 30.84 23.688 70.824 30.84 122.2 16.801 120.38-5.4844 248.77-5.7109 250.07-2.5547 14.398 7.0547 28.164 21.457 30.719 1.5703 0.27734 3.1328 0.40625 4.6562 0.40625 12.613 0 23.785-9.0117 26.074-21.852 0.98438-5.5781 24.012-137.75 6.0234-266.68-4.0781-29.207-9.5625-54.961-15.758-78.18 17.41 33.18 36.07 83.172 46.234 155.89 16.801 120.37-5.4961 248.79-5.7344 250.07-2.543 14.398 7.0664 28.176 21.469 30.719 1.5703 0.27734 3.1328 0.40625 4.6797 0.40625 12.602 0 23.773-9.0117 26.051-21.852 0.99609-5.5547 24.012-137.75 6.0352-266.68-15.816-113.33-51.359-179.38-77.281-214.19l294.42-42.887c8.2305-1.2109 14.629-7.7891 15.59-16.043 0.99609-8.2617-3.707-16.121-11.434-19.18zm-518.71 364.1c0 19.188-15.539 34.738-34.727 34.738s-34.738-15.551-34.738-34.738 15.551-34.738 34.738-34.738c19.195 0 34.727 15.551 34.727 34.738zm41.734-248.69h-150.24v-44.281h150.24z"/>
 <path d="m486.98 227.05h-196.91v-26.426c0-9.8047-7.957-17.762-17.762-17.762h-35.508c-9.8164 0-17.762 7.957-17.762 17.762v26.426h-188.19c-10.141 0-18.348 8.2188-18.348 18.336 0 10.129 8.2188 18.348 18.348 18.348h456.12c10.141 0 18.348-8.2188 18.348-18.348 0.011719-10.113-8.207-18.336-18.336-18.336z"/>
 <path d="m1171.3 227.05h-196.89v-26.426c0-9.8047-7.9805-17.762-17.785-17.762h-35.496c-9.8164 0-17.773 7.957-17.773 17.762v26.426h-188.18c-10.129 0-18.336 8.2188-18.336 18.336 0 10.129 8.2188 18.348 18.336 18.348h456.13c10.129 0 18.336-8.2188 18.336-18.348 0-10.113-8.2227-18.336-18.348-18.336z"/>
</svg>
