<?xml version="1.0" encoding="UTF-8"?>
<svg width="1200pt" height="1200pt" version="1.1" viewBox="0 0 1200 1200" xmlns="http://www.w3.org/2000/svg">
 <path d="m752.04 187.77c46.199 0 83.746 37.512 83.746 83.746 0 46.246-37.547 83.641-83.746 83.641-46.188 0-83.641-37.402-83.641-83.641 0-46.234 37.453-83.746 83.641-83.746z"/>
 <path d="m329.53 451.92-11.387-26.629-300.47 128.57 11.387 26.629 142.13-60.816v647.95h28.945v-660.35z"/>
 <path d="m314.55 367.77-114.42 48.969v-48.574h-28.945v60.949l-157.1 67.223 11.387 26.629 300.47-128.56z"/>
 <path d="m792.95 906.17c26.508 0 48.023 21.504 48.023 48.035 0 26.52-21.516 47.965-48.023 47.965-26.484 0-47.965-21.445-47.965-47.965 0-26.531 21.48-48.035 47.965-48.035z"/>
 <path d="m1181.2 617.26-78.949-218.24c-2.7344-7.5234-11.039-11.449-18.539-8.6875-7.5117 2.7109-11.41 11.004-8.6875 18.527l15.742 43.512c-15.59-0.12109-30.672 8.1484-38.34 22.957l-22.777 44.051-122.07-119.41c-2.7734-2.7109-5.8789-4.8125-9.1328-6.6133-12.203-8.8438-31.621-15.121-61.465-16.957h-27.48v220.64h-104.36l0.003906-220.66-19.488 0.023438h-43.668c-0.35938 0-0.66016 0.058594-1.0195 0.058594l-147.41 0.22656 65.004-161.43c7.8594-19.523 1.2344-41.137-14.605-53.438l-149.09-131.36c-5.9883-5.293-15.145-4.7031-20.438 1.2852-5.2812 6-4.7031 15.156 1.2852 20.438l119.22 105.06c-9.5508 4.8711-17.531 12.887-21.863 23.605l-90.504 224.79c-5.7227 14.219-3.9961 30.324 4.5703 43.008 8.5664 12.672 22.859 20.258 38.16 20.258h0.058594l152.96-0.22656v128.22l-252.8-0.007813v112.67h-91.871v286.05h123.11v172.01h118.44v-79.824c47.148 60.949 120.78 100.44 203.65 100.44 142.04 0 257.59-115.55 257.59-257.59 0-26.734-4.1055-52.5-11.699-76.766h63.695v313.75h118.43l-0.007813-432.19h-176.43v-138.4h-0.13281v-55.188l80.844 79.094c8.0508 7.8711 18.805 12.191 29.891 12.191 2.2578 0 4.5234-0.17969 6.8047-0.53906 13.379-2.1602 24.949-10.535 31.188-22.57l40.453-78.227 34.488 95.293c2.1367 5.8906 7.6797 9.5625 13.609 9.5625 1.6328 0 3.3008-0.27734 4.9219-0.875 7.5234-2.7188 11.422-11.031 8.6992-18.531zm-510.93 8.7344h139.64v46.5h26.316v-46.5h65.258v154.2h-14.004c-46.824-64.754-122.8-107.12-208.66-107.12-2.8789 0-5.7109 0.21484-8.5547 0.3125zm-315.52 0.15625h97.848v46.344h26.316v-46.344h99.406v67.344c-43.477 18.492-80.641 48.742-108.02 86.543h-115.54v-153.89zm-92.184 340.52v-228.17h62.93v70.777h126.24c-19.414 36.191-30.492 77.484-30.492 121.36 0 12.254 1.1523 24.215 2.8086 36.023h-161.48zm416.26 192.61c-126.07 0-228.65-102.57-228.65-228.65s102.59-228.64 228.65-228.64c126.06 0 228.65 102.57 228.65 228.65 0 126.07-102.58 228.64-228.65 228.64z"/>
</svg>
