<?xml version="1.0" encoding="UTF-8"?>
<svg width="1200pt" height="1200pt" version="1.1" viewBox="0 0 1200 1200" xmlns="http://www.w3.org/2000/svg">
 <path d="m504.13 900.46-81.254 12.684 52.332-119.04-464.84 77.973v179.56l465.78-88.273z"/>
 <path d="m1060.8 584.64 71.266-17.402 54.301 86.414-87.863 60.707z"/>
 <path d="m995.04 755.26-8.7812 77.004 78.922 0.46484 25.488-73.211z"/>
 <path d="m246.16 493.5-43.367-117.88-92.988 27.371 21.121 118.12z"/>
 <path d="m972.71 654.66 12.973-52.957 52.176 18.949-1.0312 54.516z"/>
 <path d="m192.29 557.76 57.383 19.738-15.227 57.863-57.926-6.2383z"/>
 <path d="m1083.6 476.8-12.973-52.957-52.188 18.938 1.043 54.516z"/>
 <path d="m847.14 189.01-246.38 427.73 151.54 29.641-167.38 80.746 253.73 98.746 215.62-553.5zm-17.582 410.75-93.406-36.371 36.359-93.422 93.422 36.359zm60.301-154.89-93.422-36.371 36.371-93.406 93.422 36.383z"/>
 <path d="m696.7 294.23 82.246-184.89-224.89-29.426-39.109 291.66-99.406-13.008 12.984-99.227 63.191 6.9961 0.96094-119.68-136.66-18-81.121 612.95 1.2344 0.15625 86.555 11.316 22.516-162.55 98.074 13.043-18.395 138.32 30.863 4.0312 158.41-356.1-68.594-8.9766 12.996-99.457zm-203.3 242.14-99.434-12.996 13.008-99.422 99.406 13.02z"/>
 <path d="m551.63 962.77 617.38 165.57v-172l-592.45-160.08-55.355 59.469 83.305 12.961z"/>
</svg>
