<?xml version="1.0" encoding="UTF-8"?>
<svg width="1200pt" height="1200pt" version="1.1" viewBox="0 0 1200 1200" xmlns="http://www.w3.org/2000/svg">
 <path d="m950.4 1055.3h160.13v37.969h-160.13z"/>
 <path d="m528.37 947.86 470.79-60.121-22.883-14.555c-62.508-39.73-133.78-60.73-206.16-60.73l-357.25 26.207c-36.023-32.062-74.641-63.301-113.15-76.129-1.9062-0.63672-4.8594-1.5703-8.5312-2.6523-50.148-15.191-52.633-22.402-52.633-23.699 0.20312-1.3789 2.8906-6.4688 4.7148-9.8633 6.2148-11.629 14.746-27.492 14.746-48.215 0-57.059-61.5-111-126.48-111-55.883 0-98.016 37.262-98.016 86.555 0 41.387 27.383 77.039 75.133 97.895 16.535 7.2852 34.379 11.27 51.66 15.145 6.8047 1.5 12.539 2.8086 18.18 4.2227 50.965 11.316 80.914 22.199 123.74 56.953 18.238 14.977 31.332 29.461 39.84 44.16-27.012 24.215-73.727 49.262-116.06 49.262-18.551 0-38.605-4.5977-57.984-9.0703-20.605-4.7383-41.867-9.6133-62.965-9.6133-61.934 0-105.06 36.371-105.06 88.453 0 57.637 59.316 110.09 124.46 110.09 62.461 0 106.03-37.547 106.03-91.309 0-12.516-1.2227-18.121-4.4883-29.699-0.96094-4.1523-1.4766-7.3555-1.4766-9.6602 0-2.6758 0-4.3086 10.598-4.3086h29.41l139.81-9.9609 95.062 99.047h-112.79v37.969l293.46-0.53906v-40.43h-53.773zm-362.32-230.83c-31.98 0-82.871-26.387-82.871-57.684 0-30.098 17.605-47.34 48.348-47.34 31.453 0 73.609 29.902 73.609 60.492 0.011719 22.129-13.453 44.531-39.086 44.531zm-41.59 338.32c-34.777 0-73.801-27.098-73.801-63.324 0-27.277 27.18-43.621 53.426-43.621 37.129 0 74.785 20.461 74.785 59.531-0.015625 29.68-27.699 47.414-54.41 47.414z"/>
 <path d="m737.09 1055.3h160.13v37.969h-160.13z"/>
 <path d="m412.66 39.828-20.902 75.121 38.492 10.703 23.391-84.133 45.934 12.77-39.012 140.32-209.2-58.176 37.812-135.96 45.926 12.777-22.176 79.777 33.527 9.3242 20.879-75.109z"/>
 <path d="m1017.4 714.28 123.7-64.477 22.066 42.289-72.012 37.523 18.469 35.434 67.691-35.316 21.742 41.715-67.703 35.301 38.137 73.117-51.742 26.953z"/>
 <path d="m864.89 569.24-37.934-67.402-220.19 51.445 29.543 52.523 49.801-14.004 27.48 48.852-37.008 36.73 30.816 54.73zm-137.64 8.3047 38.566-10.992c12.254-3.1797 29.258-9.0586 42.059-12.562l0.32422 0.5625c-9.6602 9.1211-23.027 21.48-32.137 30.254l-29.074 27.816z"/>
</svg>
