<?xml version="1.0" encoding="UTF-8"?>
<svg width="1200pt" height="1200pt" version="1.1" viewBox="0 0 1200 1200" xmlns="http://www.w3.org/2000/svg">
 <path d="m731.84 653.39c25.199 0 45.742-20.473 45.742-45.695 0-25.32-20.508-45.84-45.742-45.84-25.32 0-45.793 20.484-45.793 45.84 0 25.223 20.473 45.695 45.793 45.695z"/>
 <path d="m936.32 893.36c18.48-18.109 40.934-27.289 66.781-27.289 26.594 0 49.477 9.1914 68.051 27.289 18.527 18.266 27.949 40.945 27.949 67.453 0 25.859-9.3945 48.371-27.949 66.875-18.527 18.574-41.41 27.996-68.051 27.996-25.848 0-48.371-9.4219-66.852-27.984-18.504-18.492-27.926-40.98-27.926-66.887 0-26.543 9.418-49.223 27.996-67.453zm38.676 95.738c7.7656 7.8125 17.172 11.617 28.117 11.617 10.969 0 20.34-3.793 28.164-11.617 7.8125-7.8477 11.699-17.195 11.699-28.273 0-10.859-3.875-20.219-11.699-28.031-7.8125-7.8359-17.195-11.832-28.164-11.832-10.945 0-20.34 3.9961-28.117 11.832-7.8125 7.8125-11.734 17.172-11.734 28.031 0 11.074 3.9219 20.426 11.734 28.273z"/>
 <path d="m454.84 893.36c-18.48-18.109-40.945-27.289-66.793-27.289-26.578 0-49.477 9.1914-68.051 27.289-18.516 18.266-27.949 40.945-27.949 67.453 0 25.859 9.3945 48.371 27.949 66.875 18.527 18.574 41.41 27.996 68.051 27.996 25.848 0 48.359-9.4219 66.84-27.984 18.527-18.492 27.926-40.98 27.926-66.887 0-26.543-9.3828-49.223-27.973-67.453zm-38.688 95.738c-7.7656 7.8125-17.148 11.617-28.105 11.617-10.969 0-20.34-3.793-28.152-11.617-7.8359-7.8477-11.711-17.195-11.711-28.273 0-10.859 3.875-20.219 11.711-28.031 7.8125-7.8359 17.195-11.832 28.152-11.832s20.34 3.9961 28.105 11.832c7.8242 7.8125 11.734 17.172 11.734 28.031 0 11.074-3.9102 20.426-11.734 28.273z"/>
 <path d="m139.34 485.26-75.266-70.066c-3.8281-2.9414-6.5508-6.6133-8.1602-10.98-4.8008-13.008-0.68359-21.984 12.348-26.809 8.6758-3.1914 17.074-1.0938 25.32 6.3008l75.996 69.816c17.652 16.512 38.027 20.496 61.211 11.941 5.7852-2.1367 11.688-5.3867 17.746-9.8281l49.586-37.234c2.5547-2.0508 5.0156-3.5391 7.4414-4.4297 13.992-5.1602 23.461-0.97266 28.477 12.527 3.7422 10.152 0.20312 19.141-10.633 26.977l-51.73 38.039c-8.5938 6.4453-17.473 11.375-26.641 14.762-39.574 14.598-74.82 7.6523-105.7-21.016z"/>
 <path d="m96.215 240.8c-5.7852 12.574-15.191 21.238-28.223 26.039-13.008 4.8242-25.859 4.2109-38.508-1.7891-12.66-6.0234-21.371-15.551-26.195-28.57-4.8125-13.031-4.3555-25.812 1.4648-38.387 5.7617-12.551 15.191-21.238 28.188-26.062 13.066-4.8008 25.848-4.2109 38.531 1.8008 12.637 6.0117 21.324 15.301 25.945 27.863 4.9883 13.52 4.582 26.566-1.2031 39.105z"/>
 <path d="m75.551 317.05c-4.2461-11.543-3.4688-23.051 2.4258-34.535 5.8906-11.496 14.641-19.379 26.207-23.652 14.977-5.5312 28.738-2.3984 41.305 9.3711l87.191 77.914 87.324-63.996c1.8945-0.875 3.8516-1.668 5.8203-2.375 7.9219-2.9297 16.738-2.1953 26.496 2.1367 9.7188 4.3672 16.262 11.125 19.668 20.293l51.348 138.98c6.2539 16.895 0.91016 28.453-15.961 34.691-16.922 6.2539-28.535 0.64844-35.004-16.859l-37.68-101.95-91.836 69.973c-3.9492 2.6992-7.8008 4.7539-11.676 6.1797-16.285 6.0117-31.379 2.7617-45.277-9.7422l-97.859-88.859c-5.9883-5.4258-10.176-11.305-12.492-17.57z"/>
 <path d="m702.1 530.05c-9.4805 0-17.605-7.1055-18.781-16.402-0.68359-5.0742 0.68359-9.9844 3.7422-14.051 3.0352-4.043 7.5977-6.6016 12.504-7.2617 10.332-1.3555 19.98 6.0977 21.336 16.246 1.332 10.488-5.9414 19.957-16.246 21.312-0.875 0.15625-1.7148 0.15625-2.5547 0.15625zm-15.242-57.012c-7.7773 0-14.734-4.5859-17.605-11.688-4.043-9.6367 0.51562-20.809 10.332-24.863 9.4688-3.8984 20.809 0.83984 24.707 10.309 4.0664 9.6484-0.51562 20.82-10.152 24.887-2.3711 0.83984-4.7383 1.3555-7.2812 1.3555zm-29.77-50.938c-5.9141 0-11.34-2.7109-14.891-7.2852-6.4336-8.293-5.0742-20.316 3.2266-26.746 8.125-6.2656 20.473-4.7383 26.723 3.3828 3.0586 3.8984 4.4141 8.9648 3.8984 13.883-0.68359 5.0508-3.2266 9.6367-7.2617 12.695-3.4062 2.7109-7.4727 4.0703-11.695 4.0703zm-42.324-41.316c-4.0547 0-7.9453-1.1758-11.16-3.5273-4.0664-3.0352-6.7812-7.4531-7.6211-12.527-0.67188-5.0898 0.50391-9.9844 3.5508-14.051 5.9297-8.125 18.445-10.141 26.566-4.0547 8.4609 6.0977 10.32 18.109 4.0664 26.41-3.5352 4.8789-9.3086 7.75-15.402 7.75zm-51.938-27.734c-2.207 0-4.4023-0.34766-6.4336-1.0195-0.33594-0.16797-0.50391-0.16797-0.67188-0.33594-4.5703-1.8594-8.125-5.0898-10.152-9.4922-2.207-4.7266-2.375-9.8164-0.68359-14.543 3.3828-9.6484 14.723-14.902 24.371-11.52 9.8164 3.5508 14.891 14.555 11.34 24.383-2.7109 7.4414-9.8242 12.527-17.77 12.527zm-116.61-5.5781c-8.7969 0-16.402-5.9297-18.445-14.398-1.1875-4.9062-0.51563-9.9844 2.0273-14.387 2.6992-4.3906 6.7695-7.4414 11.676-8.6289 9.9844-2.5312 20.641 3.7305 23.184 13.715 2.543 10.141-3.7188 20.473-13.871 23.004-1.5195 0.50391-3.0469 0.69531-4.5703 0.69531zm58.73-5.9414h-0.85156c-5.2578-0.16797-9.8164-2.3633-13.199-6.0977-3.5508-3.8867-5.2578-8.6289-5.0898-13.703 0.68359-10.164 8.9766-18.098 19.129-18.098h0.83984c5.0742 0.16797 9.8164 2.5312 13.211 6.2539 3.3711 3.7422 5.0625 8.6289 4.8945 13.715-0.49219 9.9883-8.793 17.93-18.934 17.93z"/>
 <path d="m1170.8 854.16v-44.195-29.688h0.15625v-10.02c0-34.57-30.422-62.543-67.992-62.543h-164.21l-94.812-151.98c-0.058593-0.10938-0.12109-0.19141-0.17969-0.27734l-0.023438-0.035156 120.47-118.02c6.6719-6.5391 6.7695-17.258 0.22656-23.93-6.5273-6.6953-17.242-6.793-23.93-0.26562l-138.19 135.38c-11.102 13.164-1.6094 29.484 0.625 33.156l-0.035156 0.035156 66.973 116c1.3203 2.0039 2.0508 4.2344 2.0508 7.0938 0 8.0508-4.1172 12.059-12.168 12.059h-51.035l18.816-18.434c8.3398-8.1719 8.4844-21.574 0.30078-29.914-8.1602-8.3281-21.574-8.4609-29.914-0.28906l-49.68 48.648h-0.43359c-4.8711-18.07-13.367-37.477-28.246-50.004-20.219-17.004-49.488-5.7461-60.371 6.0469-13.848 14.172-24.695 29.688-32.988 43.812h-17.605v-98.977h-42.301v98.977l-91.812 0.14453c-9.0234 0-13.297-6.7305-11.496-13.789 0.011719-0.046875 0.011719-0.085937 0.011719-0.15625l31.621-84.672s4.9062-10.98 9.2656-15.672c4.9453-5.2812 11.762-5.293 11.762-5.293l115.51-0.085938v-52.801l-126.11 0.12109-0.011718-0.023437-0.28906 0.023437h-2.543v0.14453l-2.6758 0.15625c-15.48 2.4961-33.996 14.496-39.422 30.133l-59.281 132.25-0.30078 0.46875h-112.31c-37.547 0-68.004 27.973-68.004 62.543v10.02h0.16797v29.688 44.195h-28.164v55.152c0 19.465 9.793 29.281 29.34 29.281h26.953c2.3398-32.797 17.438-60.781 45.145-83.855 27.77-23.004 58.812-34.523 93.215-34.523 34.391 0 65.652 11.52 93.793 34.523 28.141 23.074 43.355 51.059 45.719 83.855h338.4c2.375-32.797 17.578-60.781 45.73-83.855 28.141-23.004 59.41-34.523 93.781-34.523 34.402 0 65.461 11.52 93.227 34.523 27.719 23.074 42.805 51.059 45.156 83.855h26.941c19.547 0 29.34-9.8164 29.34-29.281v-55.152l-28.164 0.003906z"/>
</svg>
