<?xml version="1.0" encoding="UTF-8"?>
<svg width="1200pt" height="1200pt" version="1.1" viewBox="0 0 1200 1200" xmlns="http://www.w3.org/2000/svg">
 <path d="m801.6 77.426c89.746 0 162.49 72.77 162.49 162.52 0 89.809-72.742 162.57-162.49 162.57-89.809 0-162.54-72.77-162.54-162.57-0.015625-89.75 72.73-162.52 162.54-162.52z"/>
 <path d="m963.24 442.01-648.2-0.097656c-36.949 0-66.887 29.965-66.887 66.887v307.62c0 36.938 29.953 66.887 66.887 66.887 36.938 0 66.887-29.965 66.887-66.887l0.003906-240.72h205.08l0.097656 526.03h428.93l0.14453-436.21 38.844-1.2461v369.5c0 93.371 132.72 93.371 132.42 0l-0.003906-379.43c-0.027344-144.04-80.293-212.34-224.2-212.34z"/>
 <path d="m11.438 479.33h167.59v36.266h-167.59z"/>
 <path d="m61.703 271.36 25.652-25.652 149.28 149.28-25.652 25.652z"/>
 <path d="m296.38 212.71h36.266v164.52h-36.266z"/>
</svg>
