<?xml version="1.0" encoding="UTF-8"?>
<svg width="1200pt" height="1200pt" version="1.1" viewBox="0 0 1200 1200" xmlns="http://www.w3.org/2000/svg">
 <path d="m857.87 670.64v490.03c0 13.477 10.969 24.434 24.457 24.434 13.477 0 24.406-10.957 24.406-24.434v-490.03z"/>
 <path d="m963.71 390.17c-58.332 0-105.83 47.496-105.83 105.82v12.406h-206.7v-242.58c0-47.867-34.273-73.043-70.5-78.238-19.332-2.7344-48.191 3.5156-62.316 8.3867-6.793 2.3281-167.57 59.051-256.33 184.12-106.96 150.74-110.8 323.57-110.9 330.82-0.32422 19.727 7.3086 38.699 21.133 52.754 13.836 14.062 32.699 21.961 52.402 21.961h406.96v327.84c0 40.668 32.914 73.598 73.598 73.598 40.645 0 73.559-32.93 73.559-73.598v-401.41c0-34.43-23.773-63.203-55.789-71.207h156.39c36.602 0 66.266-29.664 66.266-66.203 0-26.832-16.031-49.766-38.914-60.215v-18.434c0-31.43 25.559-56.965 56.965-56.965 31.43 0 56.977 25.547 56.977 56.965v94.957c0 13.488 10.922 24.434 24.434 24.434 13.488 0 24.422-10.945 24.422-24.434v-94.957c0.003906-58.332-47.492-105.82-105.82-105.82zm-531.79 206.45s9.0977-29.617 34.895-71.676c26.762-39.191 51.926-52.57 51.926-52.57v102.29c0 13.883 4.9062 28.836 20.543 39.816z"/>
 <path d="m794.26 257.14-0.22656 0.011719c-20.387 4.5-119.45 9.9844-184.86-114.68-25.078-53.328-22.598-120.04-22.598-120.04s34.906 33.133 71.641 31.906c24.828-0.86328 55.754-19.43 61.715-23.219 14.039-7.8945 29.914-13.211 46.934-14.688 66.059-6.0352 124.37 43.297 130.3 109.95 5.6367 64.895-39.902 121.68-102.9 130.76z"/>
</svg>
