<?xml version="1.0" encoding="UTF-8"?>
<svg width="1200pt" height="1200pt" version="1.1" viewBox="0 0 1200 1200" xmlns="http://www.w3.org/2000/svg">
 <path d="m955.3 783.66h155.93l-281 158.11 110.99-120.38h-115.91l226.26-200.91c-32.293-15.805-68.543-24.707-106.85-24.707-135.54 0-245.79 109.51-245.79 244.08 0 135.45 110.26 245.73 245.79 245.73 134.55 0 244.05-110.28 244.05-245.73 0-60.793-22.391-116.43-59.305-159.2z"/>
 <path d="m479.87 99.156c48.793 0 90.707 40.246 90.707 90.793 0 50.746-41.914 92.531-90.707 92.531-50.652 0-92.52-41.785-92.52-92.531 0-50.547 41.879-90.793 92.52-90.793z"/>
 <path d="m413.22 655.03 45.574-73.344c8.5664-13.766 4.3203-31.848-9.4336-40.414-13.754-8.5195-31.859-4.3086-40.477 9.4336l-45.047 72.469c-32.629-16.02-69.156-25.285-107.9-25.285-134.55 0-244.05 110.2-244.05 245.83 0 134.45 109.5 243.89 244.05 243.89 135.5 0 245.8-109.44 245.8-243.89 0.011719-75.793-34.473-143.61-88.512-188.69zm-157.27 377.79c-104.26 0-189.09-84.805-189.09-189.1 0-105.28 84.828-190.86 189.09-190.86 28.117 0 54.59 6.4336 78.648 17.41l-98.855 159.01c-8.5664 13.766-4.332 31.859 9.4336 40.402 4.8359 3.0117 10.188 4.4766 15.492 4.4766 9.8047 0 19.391-4.957 24.973-13.906l97.906-157.5c38.578 34.934 63.289 84.91 63.289 140.96-0.015626 104.29-85.648 189.1-190.89 189.1z"/>
 <path d="m863.73 455.22-193.66-191.94s-22.691-27.973-57.602-24.445c0 0-38.426 1.8477-61.055 36.672l-101.26 157.01h-151.82c-54.086 0-54.086 71.605 0 71.605h176.27c13.992 0 27.926-7.1055 38.34-22.727l59.566-94.441 123.72 122.33-115.18 59.363s-45.348 22.691-38.387 62.855v258.27c0 29.746 22.645 52.32 52.344 52.32 27.949 0 52.355-22.586 52.355-52.32v-205.84l197.18-110c22.754-12.266 38.473-38.328 38.473-66.383 0.011719-19.035-5.2773-38.355-19.297-52.324z"/>
</svg>
