<?xml version="1.0" encoding="UTF-8"?>
<svg width="1200pt" height="1200pt" version="1.1" viewBox="0 0 1200 1200" xmlns="http://www.w3.org/2000/svg">
 <path d="m275.16 1105.4c-11.258 0-20.438-9.168-20.438-20.41 0-11.305 9.1797-20.484 20.438-20.484 11.305 0 20.496 9.1797 20.496 20.484-0.011719 11.254-9.1914 20.41-20.496 20.41z"/>
 <path d="m213.8 1105.4c-11.258 0-20.426-9.168-20.426-20.41 0-11.305 9.168-20.484 20.426-20.484 11.305 0 20.496 9.1797 20.496 20.484 0 11.254-9.1914 20.41-20.496 20.41z"/>
 <path d="m152.45 1105.4c-11.258 0-20.438-9.168-20.438-20.41 0-11.305 9.1914-20.484 20.438-20.484 11.316 0 20.438 9.1797 20.438 20.484-0.003907 11.254-9.1211 20.41-20.438 20.41z"/>
 <path d="m91.094 1105.4c-11.242 0-20.438-9.168-20.438-20.41 0-11.305 9.1914-20.484 20.438-20.484 11.316 0 20.449 9.1797 20.449 20.484-0.003907 11.254-9.1367 20.41-20.449 20.41z"/>
 <path d="m29.746 1105.4c-11.258 0-20.438-9.168-20.438-20.41 0-11.305 9.1797-20.484 20.438-20.484 11.305 0 20.496 9.1797 20.496 20.484 0 11.254-9.1914 20.41-20.496 20.41z"/>
 <path d="m522.86 817.54-125.34-149.42h99.672l-125.16-177.85h-226.5l207.62 121.57h-133.8z"/>
 <path d="m682.62 197.4c46.176-0.21484 83.676-37.68 83.711-83.746-0.035156-46.367-37.535-83.734-83.711-83.676-46.188-0.058593-83.629 37.309-83.762 83.676 0.13281 46.066 37.574 83.531 83.762 83.746z"/>
 <path d="m1076.4 966.74c-4.2109 0-8.3281 0.27734-12.422 0.74219l-114.82-414.25-0.097657-0.011719c18.648-0.98438 35.137-14.148 39.445-33.254 5.1719-23.016-9.2891-45.863-32.316-51.035l-177.93-39.996c-2.1836-38.496-8.5312-86.281-24.926-127.33-14.23-35.617-33.961-59.797-52.68-74.988-36.156-26.051-94.355-5.1367-94.355 67.391l-0.21484 704.59c-28.836-57.434-88.285-96.973-156.82-96.973-48.168 0-93.086 19.164-126.47 53.902-7.1055 7.3906-6.8633 19.164 0.52734 26.258 7.3906 7.1172 19.152 6.875 26.258-0.52734 26.316-27.395 61.727-42.48 99.672-42.48 69.383 0 126.98 51.383 136.75 118.09h-28.441c-9.4922-51.18-54.406-90.109-108.31-90.109-60.793 0-110.24 49.453-110.24 110.26 0 60.781 49.453 110.24 110.24 110.24 50.484 0 93.047-34.152 106.07-80.531h305.51c7.2461 0 14.137-3.1562 18.863-8.6523l127.64-148.08 9.5391 34.344c-30.48 19.633-50.746 53.785-50.746 92.676 0 60.781 49.441 110.24 110.24 110.24 60.781 0 110.26-49.453 110.26-110.24 0.015625-60.824-49.449-110.28-110.24-110.28zm-627.12 143.79c-18.504 0-33.551-15.047-33.551-33.539 0-18.504 15.059-33.562 33.551-33.562 18.504 0 33.551 15.059 33.551 33.562 0 18.492-15.047 33.539-33.551 33.539zm536.34-211.69-136.18 158h-149.62l72.648-515.4-69.047-15.445c-4.3672-0.9375-7.9062-4.0547-9.4062-8.2578l-56.316-158.26c-2.3633-6.6719 1.1523-13.992 7.8008-16.355 6.6719-2.3516 13.98 1.1406 16.355 7.8125l53.93 151.51 178.66 40.078 97.332 351.28c-2.2344 1.3477-4.3594 2.9414-6.1602 5.0312zm90.781 211.69c-18.504 0-33.551-15.047-33.551-33.539 0-18.504 15.047-33.562 33.551-33.562 18.516 0 33.551 15.059 33.551 33.562 0 18.492-15.035 33.539-33.551 33.539z"/>
</svg>
