<?xml version="1.0" encoding="UTF-8"?>
<svg width="1200pt" height="1200pt" version="1.1" viewBox="0 0 1200 1200" xmlns="http://www.w3.org/2000/svg">
 <path d="m1198.3 238.88s-184.46-176.3-323.23-176.3c-85.129 0-186.12 67.188-186.12 67.188s-35.902-30.539-75.086-30.539h-12.422-0.63672-12.445c-39.18 0-75.098 30.539-75.098 30.539s-100.96-67.188-186.09-67.188c-138.77 0-323.23 176.3-323.23 176.3s-16.129 190.87 88.152 303.64c60.395 65.27 166.51 94.691 166.51 94.691l55.727-63.707-0.19531 626.5h215.48v-307.4l36.742 306.98h69.781l36.492-307.02v307.44h214.48l0.81641-626.5 55.703 63.707s106.11-29.426 166.5-94.691c104.28-112.76 88.164-303.64 88.164-303.64zm-747.04 56.883c16.355 0 29.605 13.273 29.605 29.629 0 16.344-13.246 29.629-29.605 29.629-16.379 0-29.641-13.285-29.641-29.629 0-16.359 13.258-29.629 29.641-29.629zm60.406 603.44c-8.7227 6.875-24.492-3.2539-24.492-3.2539s-52.477-32.605-70.211-97.969c-15.48-57.121-11.41-205.69-11.41-205.69h75.07s-2.7109 186.13 3.2656 222.04c5.7344 34.246 29.363 61.211 29.363 61.211 0 0.003907 9.8164 14.691-1.5859 23.668zm239.33-603.44c16.379 0 29.617 13.273 29.617 29.629 0 16.344-13.234 29.629-29.617 29.629-16.32 0-29.617-13.285-29.617-29.629 0-16.359 13.297-29.629 29.617-29.629zm34.285 502.22c-17.746 65.363-70.188 97.969-70.188 97.969s-15.758 10.129-24.469 3.2539c-11.449-8.9766-1.6797-23.664-1.6797-23.664s23.711-26.953 29.398-61.211c5.9766-35.902 3.2539-222.04 3.2539-222.04h75.121c0-0.003906 4.0898 148.57-11.438 205.69z"/>
</svg>
