<?xml version="1.0" encoding="UTF-8"?>
<svg width="1200pt" height="1200pt" version="1.1" viewBox="0 0 1200 1200" xmlns="http://www.w3.org/2000/svg">
 <path d="m545.61 324.09 276.59 115.62c2.8789-16.934 4.9336-33.121 4.9336-47.242 0-99.395-67.188-166.63-153.84-166.63l-378.48-0.003906c-27.18 0-49.223 22.008-49.223 49.188 0 26.496 20.93 47.914 47.113 49.055h252.91z"/>
 <path d="m472.99 204.88c50.762 0 92.09-41.219 92.09-92.039 0-50.977-41.328-92.219-92.09-92.219-51.086 0-92.293 41.242-92.293 92.219 0.023437 50.797 41.246 92.039 92.293 92.039z"/>
 <path d="m861.86 494.34-44.914-17.977c0.097656-0.097656 0.097656-0.20312 0.097656-0.22656l-277.15-115.54-208.27-0.33594c10.32 337.39 129.07 793.48 129.07 793.48 4.9062 21.961 27.289 39.551 51.984 39.551 24.695-0.070313 41.113-17.773 41.074-39.637l-0.25391-630-79.188-34.129c-12.312-4.9219-18.938-17.449-14.652-27.648 4.1406-9.8633 20.832-11.605 29.051-7.8477l329.52 136.89c11.641 2.2188 17.641 3.4062 23.594 3.4062 20.363 0 39.695-12.059 47.988-32.004 11.09-26.504-1.4609-56.984-27.945-67.988z"/>
 <path d="m308.89 487.55c-4.0195-36.156-4.6094-54.121-4.6094-54.121l-17.305 1.8242c-29.051 3.1211-50.102 29.242-47.016 58.246 3.1094 29.039 29.23 50.062 58.285 46.957l17.305-1.8477c0 0.015625-1.6445-5.8516-6.6602-51.059z"/>
 <path d="m950.62 759.74c-9.457-27.828-39.602-42.648-67.332-33.227l-118.23 39.562 27.277-142.88-196.92-81.035-0.19141 610.71c-0.035156 21.828 21.805 39.551 46.512 39.625 24.73 0 49.391-17.699 49.453-39.539l51-267.13 175.33-58.715c27.777-9.4336 42.547-39.602 33.105-67.371z"/>
 <path d="m752.79 76.344c-18.359-7.1406-36.66-29.125-40.141-33.504-8.4609-9.5273-18.973-17.641-31.285-23.207-38.051-17.258-81.504-7.0195-108.68 22.141 17.004 18.109 27.59 43.297 27.59 71.195 0 24.996-8.5781 47.773-22.645 65.27 6.0586 5.543 12.875 10.453 20.484 14.387l0.17969 0.058594c14.062 8.7461 86.809 38.617 168.24-37.715 32.723-33.238 48.215-83.809 48.215-83.809s-34.797 15.637-61.953 5.1836z"/>
</svg>
