<?xml version="1.0" encoding="UTF-8"?>
<svg width="1200pt" height="1200pt" version="1.1" viewBox="0 0 1200 1200" xmlns="http://www.w3.org/2000/svg">
 <path d="m172.92 771.86-164.69 136.45v163.61l248.43-209.34z"/>
 <path d="m1051.5 361.6h140.29v155.05h-140.29z"/>
 <path d="m1051.5 254.98h90.312v80.809h-90.312z"/>
 <path d="m1024.3 228.32c-45.156-0.78125-95.051 0.74219-146.54 5.5781-113.66 10.668-208.23 58.906-256.46 88.152-16.945-19.848-41.93-37.367-159.68-58.512-9.457-1.6914-19.273-1.0195-28.367 1.8594l-114.53 35.734-309.75-199.64v51.539l303.31 195.52 133.92-41.785c2.5938-0.82812 5.207-0.98438 7.7539-0.55078 62.785 11.281 93.145 20.566 108.48 28.391 24.086 9.3477 47.27 35.16 47.27 62.531l-0.23828 68.914c-0.035156 9.7422-3.8398 18.91-10.766 25.789-6.8867 6.8633-16.031 10.633-25.715 10.633h-0.097656c-9.7578-0.035156-18.926-3.8398-25.801-10.754-6.875-6.9102-10.645-16.094-10.621-25.848l0.22656-86.594-16.945 17.977c-62.363 67.5-122.36 103.41-168.62 100.81-71.652-3.8164-94.414-33.613-96-35.746l-33.395 27.898c12.133 13.738 52.441 47.578 130.29 51.719 4.2109 0.21484 8.4375 0.15625 12.648-0.011719l-121.03 97.715s-26.879-18.191-35.902-46.57c-4.5977-14.484-3.3008-39.637-0.27734-55.945l2.6992-14.328-201.18-130.45v51.602l153.65 99.816c-3.9961 19.645-9.2656 85.344 46.441 123.55l-52.008 43.152 156.86 166.13 115.22-92.398 8.7617 5.6523c9.625 6.2031 22.094 8.7734 33.277 8.7734 4.1523 0 8.3398-0.44531 12.48-1.332 15.359-3.3008 27.852-13.02 36.371-26.207 9.8516-15.277 8.9766-35.363 3.8984-51.492l4.8828 3.1562c9.625 6.2031 20.594 9.4219 31.766 9.4219 4.1523 0 8.3398-0.44531 12.492-1.332 15.359-3.3125 28.5-12.406 37.008-25.609 8.5195-13.176 11.375-28.895 8.0625-44.27-0.55078-2.6055-1.3555-5.1367-2.2422-7.6094 7.3086 3.3125 15.07 4.9219 22.789 4.9219 18.254 0 36.156-8.9648 46.766-25.414 8.1836-12.695 10.441-27.492 7.6094-41.219 18.684-11.27 57.73-29.219 130.26-41.605 85.836-14.652 203.06-10.465 203.06-10.465zm-529.43 526.33c-4.6445 7.2109-11.809 12.156-20.195 13.957s-16.98 0.21484-24.18-4.4297l-41.27-26.629c-7.2109-4.6445-12.18-11.82-13.992-20.207-1.8125-8.375-0.25391-16.934 4.4023-24.133 9.6016-14.867 29.473-19.176 44.375-9.5625l41.27 26.629c14.871 9.5977 19.164 29.52 9.5898 44.375zm92.82-63.938c-4.6445 7.2109-11.82 12.18-20.195 13.969-8.3867 1.8359-16.957 0.23828-24.156-4.4023l-81.793-52.777c-14.891-9.6016-19.199-29.508-9.6016-44.375 9.6016-14.867 29.496-19.152 44.375-9.5508l81.793 52.777c7.2109 4.6445 12.18 11.82 13.969 20.207 1.8125 8.3867 0.24219 16.965-4.3906 24.152zm68.617-76.727c-9.1562 14.184-28.043 18.254-42.227 9.1094l-60.926-39.312c-14.184-9.1328-18.277-28.031-9.1211-42.227 9.1328-14.148 28.043-18.227 42.227-9.0859l60.926 39.312c14.16 9.1562 18.238 28.055 9.1211 42.203z"/>
 <path d="m1106.8 657.25-178.29 173.91h151.85l-304.67 267.34 128.44-204.46h-109.27l111.29-233.57z"/>
</svg>
