<?xml version="1.0" encoding="UTF-8"?>
<svg width="1200pt" height="1200pt" version="1.1" viewBox="0 0 1200 1200" xmlns="http://www.w3.org/2000/svg">
 <path d="m1200 25.5v1090.5l-520.22-133.99 67.992 57 452.23 157.2v3.793h-1197.2v-1174.5zm-445.15 205.79c-12.805-12.793-28.008-19.246-45.613-19.246-18.191 0-33.742 6.457-46.586 19.246-12.852 12.816-19.246 28.344-19.246 46.586 0 17.543 6.3828 32.762 19.246 45.602 12.828 12.863 28.391 19.246 46.586 19.246 17.605 0 32.797-6.3828 45.613-19.246 12.816-12.828 19.246-28.043 19.246-45.602 0.003906-18.23-6.418-33.758-19.246-46.586zm-264.43 352.38c8.125 6.7695 17.23 9.1094 27.383 7.0781l110.4 11.902c6.1094-2.0508 10.309-3.9492 12.672-5.6172 2.3867-1.7539 5.9414-6.0469 10.621-12.961l29.387-62.027 21.023 99.48c-2.5312 1.4414-9.707 7.7383-14.902 12.457-17.617 15.648-43.945 45.445-79.031 89.555l-1.0312 2.0273c-9.6602 10.703-13.43 22.055-18.145 33.395l-49.727 184.97c-1.3672 13.621 1.4883 34.402 26.074 40.094 31.078 7.1875 46.332-18.91 53.988-39.852l46.246-152.1c26.352-27.707 47.543-45.551 86.051-86.074 0 0 30.254 81.336 50.125 123.89 3.2031 6.8633 12.289 37.824 38.773 42.574 33.961 4.043 166.43-2.8438 166.43-2.8438s54.84-1.8945 51.07-44.93c-0.88672-10.094-10.402-23.184-26.484-25.066l-147.82 1.0664-77.242-325.41 64.465 15.312c0 0.63672 18.875 36.492 56.723 107.38 4.043 8.125 10.477 13.547 19.246 16.199 20.93 6.7695 37.355 1.0664 42.07-17.844 2.2578-8.9141 1.5117-20.641-2.5664-28.738l-60.742-116.52c-1.3789-2.6992-3.5625-7.3438-15.84-15.863-2.1836-1.5-9.9375-3.3477-18.07-8.7344l-120.49-56.34c-14.855-8.7734-31.031-11.172-48.637-7.1055-6.7422 1.3438-13.199 3.707-19.246 7.1055-6.0977 3.3828-11.508 7.4141-16.199 12.145-10.848 9.457-19.969 21.59-27.371 36.445l-60.816 122.63-90.156-16.465c-14.676 2.6875-23.652 13.738-23.652 13.738-3.3711 5.4375-6.7305 15-6.7305 19.703 0.011719 10.133 4.0195 18.59 12.152 25.359zm-402.52 513.91 278.04-210.91 0.003906-568.07-278.04-173.77z"/>
</svg>
