<?xml version="1.0" encoding="UTF-8"?>
<svg width="1200pt" height="1200pt" version="1.1" viewBox="0 0 1200 1200" xmlns="http://www.w3.org/2000/svg">
 <path d="m169.45 636.85h-25.754v-326.33h25.754z"/>
 <path d="m278.44 399.23h-25.754v-395h25.754z"/>
 <path d="m369.59 349.23h-25.754v-249.02h25.754z"/>
 <path d="m582.59 538.56h-25.754v-249.06h25.754z"/>
 <path d="m704.27 935.16-96.996-187.97c0.55078-0.81641 1.1172-1.6445 1.6914-2.4492 19.766-27.66 50.184-53.508 50.184-53.508l-59.242-103.2s-16.117-11.543-60.215-0.58984c-81.406 20.207-150.11 75.625-150.11 75.625s167.95-147.52 110.44-218.24c-22.152-27.238-110.89 21.434-110.89 21.434l20.629-92.832-148.18 85.141-118.7 360.57-77.41 54.973s37.031 48.91 26.148 72.793c-10.945 23.82-38.93 36.395-38.93 36.395l31.895 55.523 119.55-12.324 0.99609-0.14453 95.699 127.41c3.2266 5.543 10.297 7.3438 15.875 4.1641 5.4727-3.2266 7.3438-10.285 4.1172-15.84l-68.305-121.61 1.6797-0.20312 92.688-8.9141 1.3906-0.79297 98.965 129.27c3.0117 5.6406 10.008 7.7383 15.707 4.7539 5.5781-3 7.7266-10.02 4.7148-15.672l-74.449-144.21 1.25-0.71875 31.766-18.168 144 205.62 8.2695 12.996c0.97266 1.8359 2.3516 3.2773 3.9258 4.4023l0.19141 0.27734 0.12109-0.070312c3.8281 2.5312 8.8672 2.9883 13.223 0.69531 6.2383-3.3477 8.6406-11.16 5.2695-17.438l-82.59-160.03-22.766-47.762s-5.0156-40.598 10.836-61.094c26.629-34.379 55.105-29.566 55.105-29.566s3.7812-40.488 22.488-84.504l99.562 156.72c3.0117 5.6523 10.008 7.7266 15.695 4.7539 5.5938-3.0234 7.7305-10.031 4.707-15.672zm-607.96 54.445 38.41-30.516 163.84-30.516 20.688 31.441z"/>
 <path d="m904.74 650.94c-11.074 10.57-24.266 15.781-39.648 15.781-15.336 0-28.391-5.2188-39.18-15.781-10.801-10.488-16.211-23.398-16.211-38.773 0-15.324 5.3984-28.246 16.211-38.762 10.777-10.5 23.832-15.77 39.18-15.77 15.371 0 28.57 5.2695 39.648 15.77 11.113 10.512 16.609 23.449 16.609 38.762-0.011718 15.371-5.5078 28.285-16.609 38.773z"/>
 <path d="m745.8 1130.3 153.36-229.25-45.805-179.12c-2.8555-12.73-0.76953-29.102 17.988-38.125l189.6-83.855c13.414-5.9297 29.137 0.14453 35.09 13.57 5.9531 13.43-0.14453 29.137-13.547 35.074l-79.609 35.219h146.44c14.699 0 26.617 11.914 26.617 26.617 0 14.699-11.914 26.605-26.617 26.605h-162.72l51.215 193.69c1.6914 6.8047 1.7266 23.762 1.1523 30.035l-24.719 184.93c-1.1641 9.0703-5.543 16.32-13.199 21.719-7.6914 5.3867-16.078 7.2344-25.176 5.5195-9.0859-1.6797-16.164-6.0859-21.266-13.199-5.1602-7.1055-7.1172-15.191-5.9648-24.277l23.855-186.66-8.5547-27.266-160.22 241.2c-7.3555 11.375-17.039 17.051-28.969 17.051-9.0859 0-16.883-3.2891-23.449-9.8047-6.5156-6.5273-9.7578-14.363-9.7578-23.438 0.007812-5.7148 1.3789-11.102 4.2578-16.238z"/>
</svg>
