<?xml version="1.0" encoding="UTF-8"?>
<svg width="1200pt" height="1200pt" version="1.1" viewBox="0 0 1200 1200" xmlns="http://www.w3.org/2000/svg">
 <path d="m221.65 572.75h192.37v192.37h-192.37z"/>
 <path d="m471.74 572.75h192.37v192.37h-192.37z"/>
 <path d="m221.65 222.07h192.37v192.38h-192.37z"/>
 <path d="m937.95 375.62c-46.906 0-85.031 38.172-85.031 85.066 0 46.906 38.125 85.141 85.031 85.141 46.848 0 85.141-38.23 85.141-85.141 0.011718-46.895-38.293-85.066-85.141-85.066z"/>
 <path d="m852.17 1183.2h177.27v-297.64h66.406l-0.12109-240.23c0-42.059-33.984-76.129-75.949-76.129h-158.46c-41.941 0-75.984 34.055-75.984 76.129l-0.22656 240.23h67.055v297.64z"/>
 <path d="m174.02 805.66v-272.77h490.09v-71.496h-490.09v-239.32h-71.496v961.12h71.496v-306.04h423.73v306.04h71.496v-377.53z"/>
 <path d="m590.4 201.43 186.02 49.035-49.039 186.04-186.02-49.035z"/>
 <path d="m504.49 218.54-88.02-72.637 21.082-25.547 88.02 72.637z"/>
 <path d="m550 137.26-42.422-113.23 31.023-11.617 42.43 113.23z"/>
 <path d="m661.23 129.11-31.883-9.0977 25.344-88.883 31.848 9.082z"/>
</svg>
