<?xml version="1.0" encoding="UTF-8"?>
<svg width="1200pt" height="1200pt" version="1.1" viewBox="0 0 1200 1200" xmlns="http://www.w3.org/2000/svg">
 <path d="m1095.2 1034.5c-11.039-19.055-35.363-25.535-54.371-14.531-0.73047 0.40625-74.676 38.484-144.02 61.43-86.23 28.535-159.79 24.457-194.98-29.746-17.062-26.281-30.324-89.953 22.031-189.05 34.738-65.723 93.984-114.97 94.523-115.41 17.16-13.727 19.945-38.762 6.2148-55.945-13.738-17.172-38.785-19.934-55.945-6.2266-2.832 2.293-71.879 56.062-114.91 135.1-35.543 65.242-51.648 151.48-51.648 151.48s-10.883 0.9375-25.344-1.668c-15.215-2.7461-23.879-8.7109-23.879-8.7109l51.684-210.01c0.070313-0.25391 2.0391-9.0859 0.81641-17.594l-0.046875-0.3125c-0.023438-0.070312-0.023438-0.15625-0.023438-0.22656l-36.887-246.79c-3.7188-24.84-26.832-42.012-51.707-38.27-24.852 3.707-41.988 26.855-38.27 51.707l35.113 234.9-46.98 113.84-23.352-143.9c-0.046875-0.32422-2.2422-20.711-22.43-32.258l-210.38-119.41c-21.875-12.422-49.633-4.7539-62.016 17.102-12.406 21.852-4.7539 49.621 17.113 62.016l187.34 106.34-0.003906 138.39s2.8438 146.5 90.973 223.66c108.11 94.656 235.55 100.54 355.38 81.984 0 0 149.76-19.043 278.63-95.184 15.613-9.2383 28.391-33.672 17.375-52.691z"/>
 <path d="m861.52 1001.2c0 40.285-32.699 72.973-72.961 72.973-40.309 0-72.984-32.688-72.984-72.973s32.676-72.973 72.984-72.973c40.262 0 72.961 32.676 72.961 72.973z"/>
 <path d="m373.2 554.03c-13.43 0-24.457-11.027-24.457-24.457 0-13.535 11.027-24.457 24.457-24.457 13.523 0 24.457 10.922 24.457 24.457-0.011719 13.43-10.934 24.457-24.457 24.457zm0-83.016c-13.43 0-24.457-11.027-24.457-24.457 0-13.523 11.027-24.445 24.457-24.445 13.523 0 24.457 10.922 24.457 24.445-0.011719 13.43-10.934 24.457-24.457 24.457zm0-83.016c-13.43 0-24.457-11.027-24.457-24.457 0-13.523 11.027-24.445 24.457-24.445 13.523 0 24.457 10.906 24.457 24.445-0.011719 13.441-10.934 24.457-24.457 24.457zm0-83.004c-13.43 0-24.457-11.027-24.457-24.457 0-13.535 11.027-24.457 24.457-24.457 13.523 0 24.457 10.922 24.457 24.457-0.011719 13.418-10.934 24.457-24.457 24.457z"/>
 <path d="m721.97 626.02c-13.43 0-24.445-10.922-24.445-24.445 0-13.441 11.016-24.469 24.445-24.469 13.523 0 24.445 11.027 24.445 24.469-0.003906 13.527-10.922 24.445-24.445 24.445zm0-83.016c-13.43 0-24.445-10.922-24.445-24.469 0-13.414 11.016-24.445 24.445-24.445 13.523 0 24.445 11.016 24.445 24.445-0.003906 13.547-10.922 24.469-24.445 24.469zm0-83.016c-13.43 0-24.445-10.922-24.445-24.457 0-13.414 11.016-24.445 24.445-24.445 13.523 0 24.445 11.027 24.445 24.445-0.003906 13.535-10.922 24.457-24.445 24.457zm0-83.004c-13.43 0-24.445-10.934-24.445-24.457 0-13.414 11.016-24.457 24.445-24.457 13.523 0 24.445 11.039 24.445 24.457-0.003906 13.512-10.922 24.457-24.445 24.457z"/>
 <path d="m517.27 389.14c-13.43 0-24.457-11.027-24.457-24.457 0-13.535 11.027-24.445 24.457-24.445 13.523 0 24.445 10.906 24.445 24.445 0.007812 13.43-10.91 24.457-24.445 24.457zm0-83.016c-13.43 0-24.457-11.027-24.457-24.457 0-13.523 11.027-24.445 24.457-24.445 13.523 0 24.445 10.922 24.445 24.445 0.007812 13.43-10.91 24.457-24.445 24.457zm0-83.004c-13.43 0-24.457-11.027-24.457-24.469 0-13.523 11.027-24.445 24.457-24.445 13.523 0 24.445 10.922 24.445 24.445 0.007812 13.426-10.91 24.469-24.445 24.469zm0-83.016c-13.43 0-24.457-11.039-24.457-24.469 0-13.535 11.027-24.457 24.457-24.457 13.523 0 24.445 10.922 24.445 24.457 0.007812 13.426-10.91 24.469-24.445 24.469zm0-83.043c-13.43 0-24.457-11.027-24.457-24.445 0-13.535 11.027-24.457 24.457-24.457 13.523 0 24.445 10.922 24.445 24.457 0.007812 13.418-10.91 24.445-24.445 24.445z"/>
</svg>
