<?xml version="1.0" encoding="UTF-8"?>
<svg width="1200pt" height="1200pt" version="1.1" viewBox="0 0 1200 1200" xmlns="http://www.w3.org/2000/svg">
 <path d="m1019.9 840.29-197.72-296.58c-5.5547-8.3516-11.09-12.984-16.609-13.414-5.6523-0.66016-10.5-1.2969-14.484-1.8828l-111.37-167.09c3.3125-5.8203 4.7891-11.711 5.1133-17.977 0.023437-6.168-3.9844-15.828-12.758-29.004l-188.18-282.24c-7.1172-10.668-15.266-16.297-24.684-17.184-9.0352-0.85156-16.535 0.86328-22.645 4.9453-6.4922 5.9531-10.727 13.188-12.887 21.504-2.1602 8.3281-0.10938 17.184 6.2539 26.734l195.42 293.12c2.3984 3.6133 5.9648 7.2734 10.922 10.609 4.8945 3.5898 11.688 5.4727 20.195 5.0039l40.68 60.996-80.988 54-103-154.45c-200.04 133.34-309.26 320.86-243.94 418.84 33.07 49.598 104.59 66.672 193.05 54.191 2.125 13.777 4.1758 45.035-6.5742 97.992-2.7227 13.465-6.5742 26.41-11.027 38.688 19.945-3.1328 41.473-4.7148 64.922-4.2969 47.762 0.94922 91.535 5.9883 131.77 13.812-18.875-21.551-36.648-45.348-50.219-70.414-22.5-41.555-33.551-75.254-38.965-96.949 63.504-20.398 131.29-52.992 197.47-97.117l-104.79-157.18 79.285-52.848 41.965 62.965c-4.8828 8.4727-6.5273 15.875-4.668 22.367 1.9688 6.625 3.5742 11.148 5.0508 13.379l198.89 298.33c2.2578 3.3711 7.9688 7.0664 17.531 10.645 8.9023 3.3711 18.492 1.7031 27.816-4.5117 9.7305-6.4922 14.27-14.242 14.316-23.578-0.32812-9.7539-1.957-16.617-5.1523-21.418z"/>
 <path d="m979.7 1187s-138.71-209.38-470.64-215.88c-242.68-4.7539-269.27 215.88-269.27 215.88z"/>
</svg>
