<?xml version="1.0" encoding="UTF-8"?>
<svg width="1200pt" height="1200pt" version="1.1" viewBox="0 0 1200 1200" xmlns="http://www.w3.org/2000/svg">
 <path d="m592.74 295.57c1.668 77.523 64.645 139.91 142.57 139.91 77.855 0 140.93-62.383 142.55-139.91z"/>
 <path d="m876.91 218.02 0.57031-79c-3.4531-75.883-65.453-136.52-142.19-136.52-76.715 0-138.79 60.645-142.19 136.52l-0.070312 79h-129.76v45.285h543.38v-45.285z"/>
 <path d="m923.55 460.67-358.95-0.16797c-122.88 0-219.12 100.91-219.12 229.69v213.31h-100v-387.52h76.145c33.953 0 61.57-27.594 61.57-61.523v-307.29h-43.191v307.26c0 10.117-8.2383 18.355-18.383 18.355h-78.547v-325.62h-43.188v325.62h-79.312c-10.145 0-18.383-8.2383-18.383-18.355l0.003906-307.26h-43.191v307.26c0 33.93 27.617 61.523 61.594 61.523h76.883v387.52h-106.38c-59.809 0.023438-91.094 42.855-91.094 85.117 0 42.285 31.285 85.07 91.094 85.07h106.38v126.34h48v-126.36h184.71l19.809-1.5234c16-3.4531 28.738-12.453 39.117-22.809 8.3086-8.2617 17.738-21.117 22.809-39.977l-0.023437 190.59h472.02l0.023438-40.809c7.3828 11.906 17.5 21.785 29.93 28.977 13.809 7.9297 29.617 11.906 45.43 11.906 15.855 0 31.691-4 45.5-12.047 28-16.215 43.977-46.117 43.883-82.023v-412.79c-0.023437-114.26-84.215-232.48-225.14-232.48zm-324.38 397.24h-43.355l0.046875-176.5h-84.094v298.31c0 16.355-4.6914 29.668-13.57 38.477-7.332 7.2852-18.145 10.953-27.855 11.215l-184.86 0.19141-0.007813-82.215h143.88l-0.003906-257.19c0-105.95 75.355-185.86 175.24-185.86h34.57zm225.05-233.12h-151.67v-120.41l151.67 0.09375zm280.57 481.19c0.046875 25.832-11.93 38.215-22 44.07-14.238 8.2617-32.738 8.2852-47.023 0.023437-10.168-5.8086-22.285-18.238-22.285-44.145v-424.52h-73.285l-0.070312 176.5h-42.547l-0.003907-353.38h25.953c113.43 0 181.24 95.906 181.24 188.62v412.84z"/>
</svg>
