<?xml version="1.0" encoding="UTF-8"?>
<svg width="1200pt" height="1200pt" version="1.1" viewBox="0 0 1200 1200" xmlns="http://www.w3.org/2000/svg">
 <path d="m678.25 574.45c-7.3789 0-14.148-4.9336-16.141-12.406-6.9727-26.125-16.812-51.742-29.242-76.164-70.805-139.13-214.38-218.28-349.02-192.64-9.0352 1.8125-17.809-4.1992-19.547-13.285-1.7266-9.0586 4.2227-17.82 13.285-19.547 149.23-28.43 307.59 58.008 385.09 210.29 13.5 26.508 24.18 54.336 31.754 82.715 2.375 8.9141-2.9141 18.086-11.844 20.461-1.4453 0.38672-2.8867 0.57812-4.3359 0.57812z"/>
 <path d="m749.17 523.3h-0.51562c-9.2148-0.28906-16.477-7.9805-16.199-17.207 0.73047-24.781 4.2969-49.68 10.609-74.004 19.5-75.434 64.176-141.1 125.79-184.86 7.5-5.375 17.953-3.6016 23.305 3.9375 5.3398 7.5234 3.5742 17.953-3.9609 23.293-55.188 39.227-95.242 98.172-112.77 166-5.6875 21.938-8.8906 44.34-9.5625 66.625-0.26563 9.0664-7.6953 16.219-16.695 16.219z"/>
 <path d="m700.62 416.26c-8.3867 0-15.637-6.3008-16.598-14.832-2.5938-23.113-7.9062-46.211-15.742-68.605-27.133-77.473-84.035-142.95-156.12-179.63-8.2305-4.1875-11.496-14.258-7.3086-22.488 4.1758-8.2305 14.242-11.484 22.488-7.3086 79.668 40.559 142.54 112.86 172.49 198.37 8.6875 24.77 14.555 50.316 17.426 75.91 1.0312 9.1797-5.5664 17.449-14.746 18.48-0.64062 0.074219-1.25 0.10156-1.8867 0.10156z"/>
 <path d="m316.69 400.16c-6.0859 0-11.965-3.3359-14.902-9.1445l-29.363-57.684c-4.1875-8.2188-0.91016-18.301 7.3086-22.488 8.2188-4.1758 18.289-0.91016 22.477 7.3086l29.352 57.684c4.1875 8.2305 0.91016 18.301-7.3086 22.488-2.4258 1.2344-5.0078 1.8359-7.5625 1.8359z"/>
 <path d="m189.09 380.51c-3.8984 0-7.8359-1.3555-11.004-4.1289-6.9375-6.0859-7.6445-16.645-1.5586-23.578l44.449-50.746c6.0977-6.9609 16.645-7.6445 23.594-1.5586 6.9375 6.0859 7.6445 16.633 1.5586 23.578l-44.449 50.746c-3.3164 3.7812-7.9492 5.6875-12.59 5.6875z"/>
 <path d="m224.28 279.52c-2.1602 0-4.3555-0.42188-6.4688-1.3086l-65.566-27.539c-8.4961-3.5625-12.504-13.355-8.9414-21.887 3.5625-8.4961 13.391-12.527 21.875-8.9297l65.566 27.527c8.5078 3.5742 12.516 13.367 8.9414 21.875-2.6758 6.4102-8.8789 10.262-15.406 10.262z"/>
 <path d="m268.21 242.77c-0.875 0-1.7539-0.070313-2.6523-0.22656-9.1094-1.4414-15.324-10.008-13.871-19.129l8.9297-56.074c1.4531-9.1328 10.008-15.406 19.129-13.883 9.1211 1.4414 15.336 10.008 13.883 19.129l-8.9297 56.074c-1.3086 8.2383-8.4219 14.109-16.488 14.109z"/>
 <path d="m458.06 229.15c-2.3281 0-4.7031-0.50391-6.9609-1.5352-8.3867-3.8398-12.07-13.766-8.2188-22.152l20.832-45.348c3.8516-8.3984 13.789-12.109 22.176-8.2188 8.375 3.8398 12.059 13.766 8.207 22.152l-20.832 45.348c-2.8164 6.1289-8.8789 9.7539-15.203 9.7539z"/>
 <path d="m488.35 98.113c-6.8633 0-13.309-4.2734-15.758-11.113l-19.055-53.594c-3.0977-8.6992 1.4531-18.254 10.141-21.359 8.6992-3.0469 18.254 1.4648 21.359 10.152l19.055 53.594c3.0977 8.6992-1.4414 18.254-10.141 21.348-1.8555 0.66016-3.7305 0.97266-5.6016 0.97266z"/>
 <path d="m541.13 108.98c-5.9766 0-11.762-3.2266-14.762-8.8789-4.332-8.1484-1.2344-18.277 6.9102-22.609l39.516-21c8.1484-4.2969 18.266-1.2461 22.609 6.9102 4.3438 8.1602 1.2344 18.277-6.9102 22.609l-39.527 21c-2.4961 1.3203-5.1836 1.9688-7.8359 1.9688z"/>
 <path d="m907.86 585.86c-1.7773 0-3.6133-0.28906-5.4102-0.91016-8.7461-3-13.367-12.504-10.379-21.238l16.848-49.031c2.9883-8.7344 12.48-13.379 21.254-10.379 8.7227 3 13.367 12.516 10.355 21.254l-16.836 49.031c-2.3906 6.918-8.8711 11.273-15.832 11.273z"/>
 <path d="m1006 558.6c-4.0938 0-8.1953-1.4883-11.426-4.5l-37.836-35.461c-6.7305-6.3125-7.0781-16.895-0.78125-23.629 6.3242-6.7305 16.895-7.0781 23.641-0.78125l37.848 35.449c6.7422 6.3125 7.0781 16.895 0.75781 23.629-3.2773 3.5156-7.7539 5.293-12.203 5.293z"/>
 <path d="m465.56 134.15c-3.1562 2.6055-7.2617 4.0664-11.676 3.7812l-51.742-3.2656c-9.2148-0.58984-16.223-8.543-15.637-17.746 0.58984-9.1914 8.5195-16.199 17.734-15.625l51.742 3.2773c9.2266 0.60156 16.211 8.5195 15.637 17.734-0.32031 4.8008-2.6133 9-6.0586 11.844z"/>
 <path d="m904.27 494.57c-3.168 2.6055-7.2734 4.0664-11.688 3.7812l-46.344-2.6875c-9.2031-0.58984-16.223-8.543-15.637-17.746 0.58984-9.1914 8.5195-16.188 17.734-15.613l46.344 2.6992c9.2383 0.58984 16.223 8.5195 15.648 17.734-0.32422 4.7891-2.6055 9-6.0586 11.832z"/>
 <path d="m924.72 460.27c-7.3672 0-14.125-4.9219-16.129-12.383l-13.297-49.367c-2.4102-8.9141 2.8672-18.07 11.773-20.496 8.8906-2.3398 18.098 2.8672 20.473 11.797l13.32 49.367c2.3984 8.9297-2.8672 18.086-11.785 20.496-1.4375 0.39062-2.9258 0.58594-4.3555 0.58594z"/>
 <path d="m972.56 476.63c-5.9648 0-11.746-3.2266-14.762-8.8789-4.332-8.1602-1.2344-18.277 6.9258-22.598l36.816-19.586c8.1602-4.332 18.266-1.2461 22.609 6.9102 4.3203 8.1602 1.2344 18.277-6.9102 22.598l-36.844 19.586c-2.4844 1.332-5.1719 1.9688-7.8359 1.9688z"/>
 <path d="m868.09 232.62c-2.5781 0-5.1953-0.60156-7.6445-1.8711l-46.848-24.184c-8.2188-4.2344-11.426-14.305-7.1992-22.523 4.2461-8.207 14.328-11.41 22.523-7.1758l46.859 24.18c8.1953 4.2344 11.41 14.305 7.1875 22.512-2.9766 5.7617-8.8086 9.0625-14.879 9.0625z"/>
 <path d="m911.26 209.32c-0.91016 0-1.8477-0.085937-2.7852-0.23828-9.0977-1.5234-15.254-10.152-13.727-19.246l8.375-49.945c1.5234-9.1094 10.176-15.168 19.246-13.727 9.1094 1.5234 15.254 10.141 13.727 19.246l-8.3633 49.945c-1.3906 8.168-8.4688 13.965-16.473 13.965z"/>
 <path d="m943.43 244.13c-7.6328 0-14.508-5.2578-16.285-12.984-2.0625-9 3.5625-17.965 12.551-20.027l56.473-12.984c8.9883-2.0039 17.953 3.5508 20.016 12.551 2.0742 9-3.5391 17.965-12.539 20.027l-56.473 12.984c-1.2461 0.28906-2.5078 0.43359-3.7422 0.43359z"/>
 <path d="m945.68 331.12c-6.1211 0-12.012-3.3711-14.953-9.2266l-20.762-41.328c-4.1289-8.2578-0.80469-18.289 7.4414-22.441 8.2422-4.1406 18.289-0.82812 22.43 7.4414l20.773 41.328c4.1523 8.2578 0.80469 18.289-7.4414 22.441-2.3984 1.207-4.957 1.7852-7.4883 1.7852z"/>
 <path d="m259.5 670.99c-28.547 0-51.758 23.23-51.758 51.781 0 28.547 23.219 51.84 51.758 51.84 28.523 0 51.816-23.258 51.816-51.84 0.011719-28.551-23.293-51.781-51.816-51.781z"/>
 <path d="m490.61 528.54c-32.219 0-58.414 26.207-58.414 58.414s26.195 58.465 58.414 58.465c32.195 0 58.465-26.242 58.465-58.465 0.011719-32.207-26.27-58.414-58.465-58.414z"/>
 <path d="m733.77 639.3c-32.23 0-58.402 26.219-58.402 58.414 0 32.219 26.195 58.477 58.402 58.477 32.172 0 58.441-26.258 58.441-58.477 0.03125-32.195-26.27-58.414-58.441-58.414z"/>
 <path d="m674.84 1193.9h121.74l0.003907-204.41h45.625l-0.097657-164.99c0-28.871-23.328-52.285-52.164-52.285h-108.8c-28.812 0-52.188 23.41-52.188 52.285l-0.17969 164.99h46.066z"/>
 <path d="m432.07 1193.9h121.74l0.003906-275.8h45.562l-0.10547-203.15c0-28.883-23.352-52.273-52.152-52.273h-108.83c-28.812 0-52.164 23.387-52.164 52.273l-0.10938 203.15h46.066z"/>
 <path d="m205.77 991.29v202.63h107.89v-202.63h40.391l0.011719-155.12c0-25.609-20.746-46.344-46.355-46.344h-96.648c-25.586 0-46.332 20.746-46.332 46.344l0.20312 155.12z"/>
 <path d="m969.24 714.34c-28.535 0-51.758 23.23-51.758 51.781 0 28.547 23.23 51.828 51.758 51.828 28.523 0 51.816-23.258 51.816-51.828 0-28.551-23.289-51.781-51.816-51.781z"/>
 <path d="m915.5 1031.7v162.25h107.89v-162.25h40.391l0.011719-152.15c0-25.609-20.746-46.355-46.344-46.355h-96.66c-25.586 0-46.332 20.746-46.332 46.355l0.20312 152.15z"/>
</svg>
