<?xml version="1.0" encoding="UTF-8"?>
<svg width="1200pt" height="1200pt" version="1.1" viewBox="0 0 1200 1200" xmlns="http://www.w3.org/2000/svg">
 <path d="m1039.4 216.05v-60.516h-119.99v60.516h-56.004v-82.246c0-39.227-25.992-97.598-97.586-97.598h-332.8c-39.227 0-97.586 25.992-97.586 97.598v82.246h-55.992v-60.516h-120v60.516h-147.98v133.38h1176v-133.38zm-623.95-82.258c0-6.3242 0-16.895 17.594-17.594h332.8c6.3125 0 16.883 0 17.578 17.594v82.246h-367.97z"/>
 <path d="m11.496 390.25v764.9h1176v-764.9zm813.68 448.7h-150.48v150.49h-150.47v-150.49h-150.48l0.003906-150.46h150.48v-150.48h150.47v150.48h150.48z"/>
</svg>
