<?xml version="1.0" encoding="UTF-8"?>
<svg width="1200pt" height="1200pt" version="1.1" viewBox="0 0 1200 1200" xmlns="http://www.w3.org/2000/svg">
 <path d="m577.39 173.5c19.488 0 36.277-6.9375 50.27-20.723 14.039-13.824 21.023-30.719 21.023-50.629 0-19.848-6.9844-36.672-21.023-50.52-13.992-13.824-30.781-20.762-50.27-20.762-19.57 0-36.109 6.9492-49.68 20.762-13.57 13.848-20.352 30.672-20.352 50.52 0 19.906 6.7812 36.793 20.352 50.629 13.562 13.797 30.098 20.723 49.68 20.723z"/>
 <path d="m1181.4 830.02c-15.254-37.152-66.301-70.934-76.164-109.78-9.168-36.422 25.129-120.19 25.129-120.19l7.4141-16.477-70.309-31.969 0.003906-509.29c0-5.8906-3.0117-9.7305-6.875-12.359-5.0742-2.5312-11.508 0.3125-16.02 3.4688l-295.33 257.21c-4.2461-2.5312-8.5078-3.8281-12.707-3.8281h-96.77c-5.9648-5.0742-40.777-39.887-104.4-104.39-4.2969-4.2461-24.445-24.602-50.566-23.219-14.125 0.74219-25.848 6.625-36.047 16.836l-151.5 151.5c-6.7812 5.9648-10.199 13.621-10.199 22.957v245.33c-70.848 40.801-134.94 92.891-136.36 148.33-0.66016 24.707 23.797 83.879 47.844 135.41 43.512 15.133 63.324 14.195 109.2-2.8906 47.352-17.531 63.133-17.531 110.48 0 17.809 6.625 31.656 10.801 44.496 12.574l-0.003906-373.55c-12.816 4.6328-34.691 12.852-61.066 24v-109.01l141.34-142.58 57.301 58.547c6.7812 5.9531 15.289 8.9023 25.43 8.9023h110.82c22.895 0 34.355-11.449 34.355-34.355v-12.742l269.84-233.02v464.02l-41.508-18.875-108.06 237.53 83.566 38.09 17.82-39.18s30.047 52.188 45.898 64.5c17.965 13.836 43.008 23.258 43.008 23.258l88.754 40.309c0.011719 0.007813 20.52-32.273 11.184-55.062z"/>
 <path d="m489.97 516.52v372.78c13.043-1.7383 27.227-5.9414 45.574-12.648 46.633-16.945 60.719-18.133 110.48 0 44.988 16.523 65.09 17.914 105.19 4.2852 24.266-51.84 49.188-111.86 48.516-136.8-2.7812-108.77-246.81-204.67-309.77-227.62z"/>
 <path d="m1116.4 933.23c-48.539-17.496-64.824-17.496-113.34 0-49.934 18.133-69.781 18.133-120.41 0-51.059-18.098-65.531-16.922-113.38 0-50.832 18.133-70.512 18.133-120.41 0-48.602-17.496-64.812-17.496-113.41 0-49.922 18.133-69.758 18.133-120.42 0-8.9883-3.1914-24.516-8.0508-24.516-8.0508-31.32-8.8086-49.453-6.1445-88.836 8.0508-49.922 18.133-69.758 18.133-120.41 0-24.66-8.7461-43.922-13.246-57.266-13.246-12.551 0-31.43 4.4883-56.16 13.246-23.016 8.2578-41.629 11.242-55.789 14.988v79.57l0.19141 3.2383c8.5078-5.0742 27.742-9.5156 52.488-18.289 52.02-18.574 70.523-17.555 119.76 0 47.988 17.004 62.543 18.203 113.45 0 34.465-12.336 54.602-16.188 80.016-11.699 2.1602 0.39453 28.441 7.4648 40.309 11.699 47.988 17.004 62.543 18.203 113.45 0 50.555-18.109 70.141-18.109 121.01 0 50.844 18.098 65.398 17.004 113.45 0 49.152-17.723 67.547-18.648 119.73 0 47.734 17.004 62.316 18.098 113.44 0 50.641-18.109 70.477-18.109 120.38 0 21.422 7.7891 38.844 12.121 51.863 13.031v-76.609c-13.438-2.8125-30.262-6.8555-55.207-15.93z"/>
 <path d="m1116.4 1066.9c-48.539-17.496-64.824-17.496-113.34 0-49.934 18.133-69.781 18.133-120.41 0-51.059-18.098-65.531-16.922-113.38 0-50.832 18.133-70.512 18.133-120.41 0-48.602-17.496-64.812-17.496-113.41 0-49.922 18.133-69.758 18.133-120.42 0-8.9883-3.1914-24.516-8.0508-24.516-8.0508-31.32-8.8086-49.453-6.1445-88.836 8.0508-49.922 18.133-69.758 18.133-120.41 0-24.66-8.7461-43.922-13.246-57.266-13.246-12.551 0-31.43 4.4883-56.16 13.246-23.016 8.2578-41.629 11.242-55.789 14.988v79.57l0.19141 3.2383c8.5078-5.0742 27.742-9.5156 52.488-18.289 52.02-18.574 70.523-17.555 119.76 0 47.988 17.004 62.543 18.203 113.45 0 34.465-12.336 54.602-16.188 80.016-11.699 2.1602 0.39453 28.441 7.4648 40.309 11.699 47.988 17.004 62.543 18.203 113.45 0 50.555-18.109 70.141-18.109 121.01 0 50.844 18.098 65.398 17.004 113.45 0 49.152-17.723 67.547-18.648 119.73 0 47.734 17.004 62.316 18.098 113.44 0 50.641-18.109 70.477-18.109 120.38 0 21.422 7.7891 38.844 12.121 51.863 13.031v-76.609c-13.438-2.8047-30.262-6.8477-55.207-15.93z"/>
</svg>
