<?xml version="1.0" encoding="UTF-8"?>
<svg width="1200pt" height="1200pt" version="1.1" viewBox="0 0 1200 1200" xmlns="http://www.w3.org/2000/svg">
 <path d="m417.8 581.55h113.83c20.438 0 37.008-16.547 37.008-37.008 0-20.41-16.57-36.984-37.008-36.984h-113.83c-20.438 0-37.008 16.57-37.008 36.984 0 20.461 16.57 37.008 37.008 37.008z"/>
 <path d="m417.8 672.52h130.95c20.438 0 37.008-16.559 37.008-37.031 0-20.375-16.57-36.984-37.008-36.984h-130.95c-20.438 0-37.008 16.598-37.008 36.984 0 20.473 16.57 37.031 37.008 37.031z"/>
 <path d="m417.8 763.44h79.656c20.438 0 37.008-16.559 37.008-36.996 0-20.426-16.57-37.008-37.008-37.008h-79.656c-20.438 0-37.008 16.586-37.008 37.008 0 20.434 16.57 36.996 37.008 36.996z"/>
 <path d="m777.47 962.71-118.39-137.48 23.172-19.941 118.38 137.51z"/>
 <path d="m581.5 987.52-29.844-6.5273 42.012-192.24 29.855 6.5195z"/>
 <path d="m427.68 930.09-20.34-22.824 111.41-99.301 20.328 22.812z"/>
 <path d="m661.61 381.29-26.066-15.949 84.023-137.5 26.078 15.938z"/>
 <path d="m581.81 449.58-99.301-175.69 26.605-15.035 99.297 175.7z"/>
 <path d="m488.33 426.49-95.328-61.512c-15.086-10.309-15.047-10.344-130.57 34.98-5.3633 2.1016-10.117 5.4375-13.945 9.7305l-79.621 89.809h-168.86v213.93h172.91s11.867 24.863 32.281 36.086c22.812 12.527 53.398 14.496 53.398 14.496h104.55l0.003906-158.81s-39.348 41.508-92.723 59.941c-42.816 14.82-89.617 5.4961-89.617 5.4961v-20.641s44.797 18.457 116.63-20.207c57.961-31.199 83.461-122.16 94.008-179.24l57.434 37.078c16.871 10.922 39.383 6.0586 50.293-10.812 10.879-16.898 6.043-39.41-10.84-50.316z"/>
 <path d="m780.59 581.55h-113.84c-20.426 0-36.996-16.547-36.996-37.008 0-20.41 16.57-36.984 36.996-36.984h113.84c20.426 0 36.996 16.57 36.996 36.984 0 20.461-16.574 37.008-36.996 37.008z"/>
 <path d="m780.59 672.52h-130.96c-20.438 0-37.008-16.559-37.008-37.031 0-20.375 16.57-36.984 37.008-36.984h130.96c20.426 0 36.996 16.598 36.996 36.984 0 20.473-16.574 37.031-36.996 37.031z"/>
 <path d="m780.59 763.44h-79.68c-20.41 0-36.984-16.559-36.984-36.996 0-20.426 16.57-37.008 36.984-37.008h79.68c20.426 0 36.996 16.586 36.996 37.008 0 20.434-16.574 36.996-36.996 36.996z"/>
 <path d="m710.06 426.49 95.328-61.512c15.086-10.309 15.035-10.344 130.57 34.98 5.3516 2.1016 10.117 5.4375 13.945 9.7305l79.609 89.809h168.86v213.93h-172.91s-11.855 24.863-32.281 36.086c-22.812 12.527-53.387 14.496-53.387 14.496h-104.55l-0.003906-158.81s39.348 41.508 92.711 59.941c42.828 14.82 89.629 5.4961 89.629 5.4961v-20.641s-44.785 18.457-116.64-20.207c-57.949-31.199-83.461-122.16-94.008-179.24l-57.434 37.078c-16.848 10.922-39.371 6.0586-50.281-10.812-10.891-16.898-6.043-39.41 10.84-50.316z"/>
</svg>
