<?xml version="1.0" encoding="UTF-8"?>
<svg width="1200pt" height="1200pt" version="1.1" viewBox="0 0 1200 1200" xmlns="http://www.w3.org/2000/svg">
 <path d="m40.992 420.3c-0.86328-17.375 35.004-32.316 51.18-32.316 53.629-0.66016 126.25-0.070313 126.25-0.070313l159.66-151.75 26.352 15.996-47.316 136.09s159.41-0.26562 178.13-0.33594c16.211 0.070313-66.996 58.355-113.47 66.492l-275.09 0.27734h-51.312c-16.152-0.023438-54.934-14.398-54.383-34.379z"/>
 <path d="m558.31 282.79 20.746 10.559-25.812 71.148h-75.609z"/>
 <path d="m404.44 553.4c36.539 0 66.289 29.746 66.289 66.266 0 36.59-29.746 66.371-66.289 66.371-36.527 0-66.359-29.746-66.359-66.371-0.027344-36.516 29.828-66.266 66.359-66.266z"/>
 <path d="m122.82 642.67c32.953 0 59.711 26.773 59.711 59.734 0 32.941-26.773 59.762-59.711 59.762-32.879 0-59.746-26.797-59.746-59.762-0.027344-32.961 26.879-59.734 59.746-59.734z"/>
 <path d="m280.99 1011.8 0.097656-246.82c0-32.785 26.52-59.316 59.207-59.316h123.53c32.711 0 59.207 26.531 59.207 59.316l0.10938 246.82z"/>
 <path d="m11.977 1011.8 0.058594-179.77c0-29.566 23.879-53.484 53.352-53.484h111.23c29.484 0 53.352 23.914 53.352 53.484l0.14453 179.77z"/>
 <path d="m771.1 317.61c0-64.117 51.898-116.21 116.21-116.21 64.152 0 116.09 52.094 116.09 116.21 0 64.211-51.938 116.21-116.09 116.21-64.309 0-116.21-51.996-116.21-116.21z"/>
 <path d="m584.04 908.88h101.96v102.42h-101.96z"/>
 <path d="m1088.5 908.88h101.96v102.42h-101.96z"/>
 <path d="m1088.5 887.09h101.96v-263.62c0-93.086-67.656-167.72-159.18-167.72h-42.938l-72.949 111.61v-116.22h-51.898v114.52l-73.453-109.92h-46.727c-91.559 0-159.24 74.641-159.24 167.72v263.62h101.96l-0.003906-252.97h32.426v377.72h337.67v-377.72h32.363zm-199.06-70.18c-14.773 0-26.746-11.965-26.746-26.723 0-14.773 11.977-26.746 26.746-26.746 14.762 0 26.734 11.977 26.734 26.746 0.003906 14.762-11.961 26.723-26.734 26.723zm0-122.83c-14.773 0-26.746-11.965-26.746-26.734 0-14.773 11.977-26.746 26.746-26.746 14.762 0 26.734 11.965 26.734 26.746 0.003906 14.773-11.961 26.734-26.734 26.734z"/>
</svg>
