<?xml version="1.0" encoding="UTF-8"?>
<svg width="1200pt" height="1200pt" version="1.1" viewBox="0 0 1200 1200" xmlns="http://www.w3.org/2000/svg">
 <path d="m759.02 920.61-137.17-55.98c-8.7461-3.5391-19.766-4.1055-33.098-1.2227l-135.12 31.465-54.613-127.02 129.78-80.305c11.641-7.2344 18.719-19.871 18.719-33.625l0.003907-137.69h231.5v132.29l411.07-236.29-411.07-237.75v121.25h-766.81v220.51h456.14v115.63l-163.87 101.45c-4.0312 2.4492-26.785 18.707-33.348 38.809-5.2422 16.129-5.7617 29.594-1.2852 43.727l66.84 160.71c4.8828 16.344 14.941 27.551 30.098 33.73 14.594 5.9648 31.738 7.1641 51.527 3.7422l185.8-44.543 115.39 46.98c12.875 5.3047 26.051 5.3047 39.527-0.14453 13.465-5.2422 22.922-14.676 28.441-28.105 5.2188-12.828 4.9805-26.016-0.74219-39.469-5.6797-13.508-14.906-22.949-27.711-28.145zm-290.66-457.86c0-21.863 17.734-39.613 39.59-39.613 21.84 0 39.562 17.734 39.562 39.613v53.438h-79.152z"/>
 <path d="m350.45 637.66c0 41.785-33.852 75.613-75.672 75.613-41.773 0-75.637-33.805-75.637-75.613 0-41.762 33.852-75.73 75.637-75.73 41.82 0 75.672 33.957 75.672 75.73z"/>
</svg>
