<?xml version="1.0" encoding="UTF-8"?>
<svg width="1200pt" height="1200pt" version="1.1" viewBox="0 0 1200 1200" xmlns="http://www.w3.org/2000/svg">
 <path d="m646.71 973.8c-48.602-20.039-317.51-45.707-426.74-54.742-4.1758-0.3125-6.8281-0.55078-7.6914-0.63672-9.9492-0.9375-17.27-9.7422-16.402-19.703 0.88672-9.9492 9.5039-17.242 19.598-16.535 1.2344 0.10938 4.668 0.38281 9.9727 0.83984 64.043 4.6211 211.19 3.4805 261.45-49.559 14.352-15.168 19.68-33.602 16.273-56.375-4.6797-31.273-19.598-55.355-45.613-73.609-69.742-48.949-196.91-40.738-260.93-32.652-0.046875 0.070313-0.097656 0.15625-0.14453 0.22656-107.94 19.32-188 89.051-188 172.34 0 93.395 100.62 171.31 228.45 178.59l0.30078 0.66016 19.559 0.058594 462.85-0.023437c-20.465-17.766-47.488-38.414-72.918-48.879z"/>
 <path d="m758.96 515.4 398.89-113.68c33.949-58.285 35.746-98.219-6.3242-105.35-36.527-6.2031-71.773-10.68-105.94-13.801-7.7266-55.668-55.379-98.555-113.17-98.555-58.211 0-106.16 43.523-113.33 99.793-305.61 34.117-490.02 199.87-595.63 347.47 73.559-6.5039 185.57-6.2539 254.98 42.445 34.141 23.941 54.551 56.93 60.695 98.004 5.0898 34.094-3.6133 63.277-25.859 86.773-19.754 20.855-48.973 34.98-81.539 44.449 41.363 4.5703 83.172 9.6602 120.04 14.977 11.004-3.0469 20.809-6.8516 29.004-11.578 21.035-12.133 41.809-24.758 62.398-37.656l132.27 154.01h218.09c21.059 0 38.125-17.062 38.125-38.125 0-21.047-17.062-38.113-38.125-38.113l-123.05 0.003906-102.68-162.13c157.27-114.35 288.49-240.65 359.15-336.28l-358.09 102.05c-1.6562 0.46875-3.3125 0.69531-4.957 0.69531-7.8594 0-15.098-5.1719-17.352-13.105-2.7344-9.582 2.8203-19.578 12.422-22.305zm173.46-255.34c21.156 0 38.316 17.148 38.316 38.316 0 21.156-17.172 38.305-38.316 38.305s-38.305-17.148-38.305-38.305c0-21.168 17.16-38.316 38.305-38.316z"/>
</svg>
