<?xml version="1.0" encoding="UTF-8"?>
<svg width="1200pt" height="1200pt" version="1.1" viewBox="0 0 1200 1200" xmlns="http://www.w3.org/2000/svg">
 <path d="m1083.4 762.99c23.832-9.8633 48.695-9.3945 66.973-0.74219l-0.13281-0.40625 41.953 19.848-16.199 39.781c-0.25391 0.97266-0.75781 1.8945-1.0781 2.8438l-1.2461 2.7734 0.058594-0.12109c-7.8594 17.543-24.012 33.625-46.129 42.781-38.676 15.961-79.883 5.0273-92.137-24.383-12.207-29.488 9.2383-66.352 47.938-82.375z" fill="#010101"/>
 <path d="m907.08 969.66c-16.309 16.285-37.738 23.699-56.941 21.828l0.25391 0.32422-44.09-4.3555-2.5547-40.273c-0.23828-0.875-0.16797-1.9062-0.32422-2.8203l-0.058594-2.8086-0.035156 0.13281c-0.51562-18.086 6.625-37.367 21.758-52.391 26.438-26.352 66.215-29.734 88.848-7.5859 22.617 22.238 19.594 61.609-6.8555 87.949z" fill="#010101"/>
 <path d="m1117.8 544.55c15.527-14.617 23.555-33.059 23.172-49.078l0.25391 0.25391-0.85156-36.695-35.508 0.23828c-0.80469-0.13281-1.6797-0.085938-2.5078 0.023437l-2.543-0.10938 0.13281 0.10938c-15.926 0.61328-33.504 7.7266-47.891 21.301-25.152 23.711-30.84 57.203-12.695 74.832 18.125 17.73 53.285 12.801 78.438-10.875z" fill="#010101"/>
 <path d="m1153 706.1c16.68-5.2812 29.172-16.105 34.559-28.094l0.10938 0.25391 12.371-27.418-26.375-12.48c-0.5625-0.38281-1.2344-0.625-1.8594-0.86328l-1.8828-0.97266 0.085938 0.13281c-12.012-5.1836-27.59-6.1562-43.031-1.1875-27.035 8.6172-43.152 31.355-35.93 50.891 7.1484 19.535 34.953 28.344 61.953 19.738z" fill="#010101"/>
 <path d="m735.3 890.88c-22.824 1.4531-43.188-5.7617-55.465-17.746v0.3125l-28.105-27.48 26.148-27.719c0.53906-0.73047 1.2109-1.3438 1.8828-1.9336l1.7891-2.0742-0.023437 0.15625c12.156-12.035 30.637-20.617 51.793-21.949 36.984-2.3516 67.441 17.664 67.969 44.82 0.57422 27.211-29.027 51.152-65.988 53.613z" fill="#010101"/>
 <path d="m346.66 609.5c-0.38281-3.5391 0.12109 3.6992 0 0z" fill="#010101"/>
 <path d="m533.76 370.94c-0.023438 0.046875 0 0.097656-0.023438 0.13281 7.3086 3.0859 13.559 8.4375 17.785 15.684 10.535 18.098 5.125 48.277-13.066 58.934-1.3438 0.81641-127.2 87.551-189.27 135.68 6.3711-27.133 31.586-58.586 41.664-67.141 43.164-36.91 68.965-59.293 89.258-76.969 9.625-8.375 18-15.66 26.449-22.98 14.539-12.492 23.73-27.754 27.199-43.344z" fill="#010101"/>
 <path d="m348.46 574.39c-0.41016 1.2852 0.32422-1.2734 0 0z" fill="#010101"/>
 <path d="m452.99 327.3c17.977-10.223 41.723-3.5508 51.828 14.137 10.391 18.312-0.25391 39.707-15.492 52.824-8.5078 7.2734-16.883 14.605-26.605 23.074-20.207 17.578-45.898 39.984-88.992 76.738-0.53906 0.45703-51.996 44.879-54.168 92.016-1.957 41.594 9.9844 75.898 35.41 102.11 18.742 19.234 39.574 27.371 63.77 24.961 17.953-1.957 45.602-21.457 86.027-51.91 22.402-16.934 45.574-34.32 56.914-38.52 40.789-12.562 52.367 2.543 71.496 25.812-23.664 21.168-82.523 111.3-191.88 230.24-109.38 118.96-241.52 125.3-241.52 125.3l-199.77 1.2969s172.68-439.41 251.5-512.02c11.734-14.328 192.35-159.73 201.49-166.07" fill="#010101"/>
 <path d="m346.66 609.5c33.613-28.066 133.2-98.438 180.68-131.52 8.7617 17.281 3.6953 48.719-13.152 59.242-9.3359 5.7227-87.445 54.145-159.71 111.56-4.8711-12.031-7.418-24.559-7.8242-39.285z" fill="#010101"/>
 <path d="m375.37 669.75c-2.3867-2.4727-4.5977-5.0508-6.7305-7.7148 49.934-39.898 103.14-75.648 134.3-95.785 8.6055 18.145 3.2773 35.629-15.18 47.293-0.35938 0.25391-46.188 30.938-96.91 67.945 3.9102 2.1445-6.4844-2.5234-15.484-11.738z" fill="#010101"/>
 <path d="m683.15 411.08c25.977-1.5195 47.918 12.352 49.008 30.984 1.0898 18.629-19.086 34.965-45.059 36.484-25.977 1.5195-47.918-12.352-49.008-30.984-1.0898-18.629 19.086-34.965 45.059-36.484z" fill="#010101"/>
 <path d="m790.99 533.73c9.5742 16.68-0.32422 40.379-22.262 52.934-21.926 12.613-47.363 9.4062-56.941-7.2461-9.5625-16.668 0.39453-40.379 22.285-52.992 21.867-12.578 47.34-9.3164 56.918 7.3047z" fill="#010101"/>
 <path d="m986.06 495.37c9.5391 16.633 0.38281 39.863-20.543 51.898-20.965 12.059-45.648 8.3867-55.223-8.2578-9.5742-16.656-0.38281-39.887 20.566-51.926 20.941-11.996 45.648-8.2539 55.199 8.2852z" fill="#010101"/>
 <path d="m682.31 534.21c4.2344 20.102-12.07 40.621-36.602 45.852-24.469 5.207-47.797-6.8516-52.066-26.977-4.2852-20.137 12.07-40.68 36.59-45.805 24.477-5.2305 47.77 6.8281 52.078 26.93z" fill="#010101"/>
 <path d="m761.72 194.37c18.445-0.40625 33.875 17.27 34.285 39.434 0.49219 22.199-14.027 40.512-32.473 40.895-18.457 0.39453-33.852-17.242-34.309-39.434-0.45312-22.246 14.078-40.453 32.496-40.895z" fill="#010101"/>
 <path d="m781.19 708.1c8.8906 15.66-0.3125 37.621-20.676 49.223-20.258 11.543-43.906 8.2695-52.789-7.3203-8.8789-15.59 0.32422-37.656 20.664-49.141 20.316-11.566 43.934-8.3242 52.801 7.2383z" fill="#010101"/>
 <path d="m1017.4 408.19c1.1992 19.211-17.988 36.047-42.91 37.609-24.852 1.5352-46.043-12.695-47.195-31.895-1.2344-19.199 17.965-36.012 42.828-37.488 24.906-1.5625 46.004 12.668 47.277 31.773z" fill="#010101"/>
 <path d="m672.88 306.52c1.2852 20.555-15.121 38.316-36.758 39.66-21.574 1.3438-40.164-14.16-41.426-34.703-1.2852-20.543 15.133-38.316 36.719-39.59 21.641-1.3203 40.133 14.148 41.465 34.633z" fill="#010101"/>
 <path d="m1017.6 604.03c5.6758 19.273-10.188 40.934-35.449 48.336-25.246 7.3672-50.293-2.2422-55.922-21.527-5.6875-19.297 10.199-40.98 35.473-48.301 25.289-7.3828 50.262 2.2422 55.898 21.492z" fill="#010101"/>
 <path d="m1031 294.94c4.8711 16.715-8.8203 35.461-30.73 41.867-21.852 6.4062-43.535-1.9219-48.422-18.648-4.8945-16.715 8.8438-35.484 30.742-41.82 21.926-6.3828 43.465 1.957 48.41 18.602z" fill="#010101"/>
 <path d="m816.94 292.94c18.887-3.4336 37.812 13.609 42.18 38.137 4.3789 24.434-7.3203 47.016-26.258 50.41-18.887 3.3711-37.754-13.715-42.109-38.172-4.3906-24.465 7.2852-47.027 26.188-50.375z" fill="#010101"/>
 <path d="m887.87 752.71c5.9531 17.352-5.0391 36.828-24.672 43.535-19.535 6.6719-40.246-1.8945-46.141-19.246-5.9023-17.316 5.0742-36.793 24.66-43.43 19.574-6.7188 40.215 1.8477 46.152 19.141z" fill="#010101"/>
 <path d="m1082.1 604.82c-2.6641-7.9453-15.973 10.633-15.973 10.633l-87.059 186.18-18.984-41.914 37.066-84.324-55.598 43.453-75.121-165.96 73.754-317.84c2.2227-6.4219 2.7266-13.176-4.1602-15.602-6.3945-2.2422-12.301 7.7383-14.543 14.148l-15.562 63.133-47.629-33.254 38.293 71.172-47.891 194.69-21.648-41.16 18.348-81.059-34.645 50.074-96.613-183.72c-6.2148-8.0508-10.789-16.285-20.328-9.0352-8.2305 4.2969-1.5352 16.523 2.2188 25.008l32.125 65.746-55.621 2.3047 77.258 41.965 135.48 277.18-55.668-18.035-14.438-73.477-14.125 64.211-90.254-29.207c-10.355-3.168-20.617-8.1602-24.203 2.0625-3.4453 9.8398 2.7109 11.184 12.527 14.566l194.14 66.469 51.254 121.92-99.168-1.0664 117.2 43.859 57.863 137.7 50.352-0.71875-78.742-174.76 87.434-204.04c0.011719 0 5.3125-13.32 2.6602-21.301z" fill="#010101"/>
</svg>
