<?xml version="1.0" encoding="UTF-8"?>
<svg width="1200pt" height="1200pt" version="1.1" viewBox="0 0 1200 1200" xmlns="http://www.w3.org/2000/svg">
 <path d="m346.84 176.53h505.48c7.2109 0 14.293 0.57422 21.348 1.2969-49.57-100.11-153.66-169.23-274.48-169.23-120.85 0-224.94 69.156-274.51 169.3 7.3203-0.78125 14.676-1.3594 22.164-1.3594z"/>
 <path d="m1109.6 781.75-157.07-47.746c-19.246-5.9023-39.828 5.0156-45.73 24.266l-28.141 91.766-71.438-21.949c-20.328-94.754-105.71-165.85-208.03-165.85-102.18 0-187.4 70.871-207.91 165.38l-72.973 22.43-28.141-91.766c-5.9023-19.246-26.484-30.168-45.73-24.266l-157.09 47.734c-19.246 5.9023-30.168 26.484-24.266 45.73l102.79 335.14c5.9023 19.246 26.484 30.168 45.73 24.266l157.07-47.746c19.246-5.9023 30.168-26.484 24.266-45.73l-28.297-92.258 55.441-16.945c37.789 58.117 103.78 96.758 179.1 96.758 75.156 0 141.04-38.473 178.87-96.395l54.254 16.586-28.297 92.258c-5.9023 19.246 5.0156 39.828 24.266 45.73l157.07 47.746c19.246 5.9023 39.828-5.0156 45.73-24.266l102.79-335.14c5.8945-19.254-5.0273-39.832-24.273-45.734zm-510.41 185.98c-53.965 0-97.668-43.066-97.668-96.168 0-53.102 43.703-96.121 97.668-96.121 53.953 0 97.668 43.02 97.668 96.121 0 53.102-43.715 96.168-97.668 96.168z"/>
 <path d="m795.6 224.09h-392.91c-136.12 0-246.84 110.7-246.84 246.79 0 131.62 103.61 239.17 233.51 246.16 47.832-62.832 123.86-103.67 209.82-103.67 85.934 0 161.96 40.824 209.81 103.66 129.89-7.0195 233.5-114.56 233.5-246.16 0-136.08-110.76-246.78-246.89-246.78zm-405.57 376.14c-69.898 0-126.52-55.777-126.52-124.57 0-68.797 56.617-124.51 126.52-124.51 69.887 0 126.52 55.727 126.52 124.51s-56.625 124.57-126.52 124.57zm419.83 0c-69.898 0-126.52-55.777-126.52-124.57 0-68.797 56.617-124.51 126.52-124.51 69.887 0 126.52 55.727 126.52 124.51s-56.625 124.57-126.52 124.57z"/>
</svg>
