<?xml version="1.0" encoding="UTF-8"?>
<svg width="1200pt" height="1200pt" version="1.1" viewBox="0 0 1200 1200" xmlns="http://www.w3.org/2000/svg">
 <path d="m758.75 877.81-59.746 29.723 136.78 144.72 112.43-104.32z"/>
 <path d="m606.39 1201.4 73.957-110.89-74.809-43.309-79.715 57.195z"/>
 <path d="m316.39 422.33-154.59-14.891 75.973-108.13z"/>
 <path d="m891.32 698.16-138.9 69.457 6.9453-131.98z"/>
 <path d="m659.54 75.875c3.9375-0.58984 6.8633-0.99609 11.762-1.7266 11.773-1.7031 24.695-2.5938 36.875-1.3672 8.9883-0.28906 18.238 1.3672 27.383 2.0156 12.383-24.84 25.777-49.812 39.289-73.848l-0.13281-0.96094c31.152 7.5 60.898 19.187 89.578 37.043-7.1055 27.07-15.324 53.34-23.52 79.586 7.8477 5.8438 15.742 11.746 22.633 17.746 8.1836 7.7891 16.32 15.66 22.656 24.73 3.3594 2.5312 5.8672 6.1562 8.2695 8.832 26.914-7.9219 53.688-16.812 80.578-24.707 6.6016 11.062 13.367 23.062 19.152 35.258 1.4023 2.7852 2.9414 6.6133 3.3828 9.5156 2.5547 3.6719 3.9609 6.4219 4.3789 9.3828 4.6445 11.352 8.3281 22.848 12.012 34.332-24.926 14.629-49.141 27.156-73.402 39.707 0.71875 4.8945 1.4414 9.8281 2.0156 13.777 0.27734 1.9688 0.43359 2.9023 0.5625 3.9258 0.74219 11.891 1.332 22.824 0.94922 33.898 0.25391 9-1.3672 18.266-3.0352 27.516 24.863 12.383 49.848 25.801 73.703 38.363l1.1289 0.86328c-1.0781 6.1328-2.1953 12.336-4.4141 17.629-2.5195 10.379-6.1211 19.906-10.703 29.641-4.9062 14.746-11.867 28.754-20.953 42.121l-0.98438 0.14453c-26.23-8.2305-52.332-15.457-78.613-23.629-5.832 7.8359-10.848 14.566-17.879 21.625-6.6367 8.8672-15.336 17.113-24.238 24.422l-80.797-96.996c14.844-12.266 26.543-27.887 34.488-47.438 11.734-29.734 11.242-60.758-1.0312-90.035-13.441-30.098-34.645-52.094-65.387-63.613-30.863-12.59-60.898-12.191-90.984 1.1875-30.266 12.422-51.133 34.5-62.809 64.262-12.383 31.824-12.059 61.859 1.1992 90.996 12.422 30.266 34.645 52.055 64.391 63.742 12.18 4.9805 24.215 7.3203 36.18 8.2812l24.66 126.65c-8.1133 0.75781-16.477 1.0312-25.188 0.17969-9.9375 0.43359-20.172-1.043-30.422-2.5781-12.395 24.852-24.961 48.719-38.34 73.727-31.176-7.5469-61.055-20.195-89.426-36.086l-0.16797-0.99609c8.2188-26.258 15.469-52.367 23.484-79.609-6.7188-5.0039-12.48-10.152-19.234-15.203-9.1328-7.6914-17.555-17.484-26.148-28.246-2.3984-2.6641-4.9336-6.2891-8.4492-9.875-25.777 8.7969-52.68 16.754-79.559 24.66-6.4688-10.066-11.988-20.328-16.645-31.656-1.3906-2.7852-4.2109-8.4258-7.6328-17.965-5.9023-13.164-9.875-26.605-13.68-39.047 24.91-14.676 48.973-28.152 74.23-40.848-0.58984-3.9492-1.1406-7.8477-1.7266-11.762l-0.14453-1.0078c-1.7148-11.746-2.293-22.703-1.9062-33.781 0.53906-10.094 2.0508-20.328 3.5742-30.602 0 0-0.97266 0.13281-1.1172-0.81641-24.863-12.445-49.848-25.777-74.699-38.258 2.2422-5.3164 3.5039-10.488 4.8711-14.711 2.4961-10.355 6.1211-19.945 9.7188-29.473 6.7305-15.996 14.531-31.176 23.461-45.504 27.059 7.0938 53.293 15.277 80.52 23.352 5.0625-6.6953 10.211-12.469 15.266-19.246 7.8125-8.1367 16.621-16.453 24.602-23.605 1.0195-0.14453 1.8359-1.2617 2.8203-1.4141 2.6523-2.3984 6.2891-4.9219 8.9414-7.2969-8.8672-26.773-16.801-53.652-25.715-80.41 11.062-6.625 22.262-12.312 34.465-18.035 2.7734-1.4141 5.6055-2.8438 9.3828-4.4023 2.7852-1.3789 5.7344-1.8008 9.3828-4.3672 12.469-3.7578 24.805-8.6055 36.445-11.316 14.484 24.008 27.168 49.246 40.691 73.328z"/>
 <path d="m532.2 770.33c1.0664-3.2266 1.3203-6.7188 0.50391-9.6836 0.69531-6.8281 0.45703-13.355-0.12109-20.461l-84.562 3.6836c2.1836 12.383 1.4414 24.816-2.9023 37.895-6.6719 20.195-19.824 35.543-39.133 45.238-19.621 10.512-39.742 11.879-59.664 4.4141-21.254-6.1562-35.762-19.043-46.008-39.445-9.7188-19.309-11.09-39.469-4.4141-59.641 6.9609-20.988 19.812-35.52 39.434-46.031 20.148-9.4453 39.469-11.113 60.434-4.1523 9.9727 3.2891 18.625 8.3164 26.137 14.746l57.191-60.984c-5.0742-4.4141-10.402-8.7852-15.695-11.914-2.9531-1.8945-5.1367-3.4922-7.2617-5.1133 3.9727-17.473 8.2422-35.746 11.711-54.312-6.9609-3.2148-13.969-6.4219-22.043-9.0977-1.6211-0.53906-6.457-2.1367-12.086-4.0078-8.8789-2.9297-18.023-5.1016-27.422-6.4062-7.2109 16.43-14.746 33.625-22.223 50.855-2.6875-0.023437-5.3633 0-8.0391-0.023437-7.8125-0.79297-15.035-0.49219-22.57 0.60156-6.4453 0.52734-13.176 1.8945-20.16 4.0312 0.26562-0.80469 0.26562-0.80469-0.52734-1.0781-9.168-15.539-19.141-31.379-29.375-46.414-2.9648 0.80469-5.9023 1.6211-9.9492 2.9883-6.1797 2.3867-12.625 5.6758-18.266 9.1562-9.6484 4.8477-19.586 10.5-28.992 17.258 6.7422 17.449 13.5 34.895 20.52 51.574-0.26562 0.79297-0.26562 0.79297-0.26562 0.79297-3.7695 3.2148-7.7773 7.2461-11.797 11.281-4.5703 5.6641-9.9375 11.027-13.68 16.969-0.26562 0.79297-0.52734 1.6094-1.332 1.3438-1.0547 3.2266-2.6875 5.375-4.0312 6.707-18.289-4.2461-36.562-8.543-54.035-12.504-4.2969 7.5117-6.9727 15.602-10.441 23.387-0.80469 2.4102-1.6094 4.8242-2.3984 7.2617-0.52734 1.6211-1.3438 4.0078-2.1484 6.4453-1.8828 8.3398-4.5469 16.391-5.6055 25.008 16.43 7.2227 33.625 14.711 50.844 22.211 0.011719 2.6992 0.011719 5.3867-0.79297 7.8008 0 8.0742 0 16.117 0.86328 24.422 0.79297 5.6758 2.1484 12.371 2.9883 18.035-14.773 9.4062-30.613 19.355-46.465 29.363l-0.26562 0.81641c6.7812 20.113 16.738 38.629 29.41 57.18l0.25391-0.80469c17.207-5.9414 34.656-12.684 51.277-19.715 4.6094 5.1016 8.6406 9.1094 12.684 13.152 5.3984 5.375 10.754 10.727 17.496 14.746 2.1602 1.5977 4.2852 3.2031 6.7188 4.0078-4.2734 18.277-8.5195 36.551-12 55.105 7.5352 4.3203 15.59 6.9844 24.238 10.715 2.4102 0.80469 4.8125 1.6328 6.4336 2.1367 2.3984 0.80469 4.8125 1.6328 6.4453 2.1602 8.3398 1.8594 15.613 4.2734 23.387 5.0742 8.0391-16.152 15.539-33.348 22.246-50.855 3.2031 1.0781 5.8906 1.0781 9.3945 1.332 0.80469 0.27734 1.6211 0.55078 2.6641 0 6.9961 0.55078 14.543-0.5625 22.066-1.6328 6.4453-0.57422 12.07-1.3789 17.988-3.0117 9.9375 15.863 19.402 30.602 29.363 46.453l0.55078 1.0781c4.0078-1.3555 8.0273-2.7344 11.23-4.3438 7.0078-2.1602 13.465-5.375 19.094-8.8789 9.3945-4.0547 17.723-10.246 26.82-16.176l-0.81641-0.25391c-5.8906-17.23-12.938-33.852-19.68-51.301 4.8242-3.7422 9.9492-8.3281 13.969-12.406 5.3398-5.375 10.164-11.832 13.922-17.762 2.6875-2.6758 4.5703-5.6172 5.375-8.0508 18.277 4.2852 36.551 8.5312 54.277 11.734 4.3203-7.5469 7.7773-15.336 10.715-24.227 4.0195-12.098 7.2344-24.434 8.543-36.551-16.418-7.2109-32.859-14.434-50.02-21.922z"/>
</svg>
