<?xml version="1.0" encoding="UTF-8"?>
<svg width="1200pt" height="1200pt" version="1.1" viewBox="0 0 1200 1200" xmlns="http://www.w3.org/2000/svg">
 <path d="m582.93 905c1.8828 9.0703 1.7617 18.523-0.90625 27.645-2.2617 8.4766-6.8555 16.406-13.094 23.07-21.285 21.406-55.977 22-77.617 1.0703l-118.33-115.98-20.785 32.332 118.43 115.95c29.355 28.477 93.145 26.715 122.02-2.5938 9.9766-10.215 24.117-33.383 27.094-46.785l264.62 0.23828c30.5 0 63.07 30.809 63.07 61.191 0 30.738-16.355 70.832-64.406 70.832h-435.29c-35.668 0-66.93-27.855-84.047-42.355l-225.29-183.76-138.17 0.61719-0.23828-211.38h1.1445v-1.7852h275.64s28.883 0.66797 48.715 12.168c18.309 10.715 34.645 26.332 34.645 26.332l207.48 206.69c7.543 7.168 12.758 16.238 15.305 26.5z"/>
 <path d="m934.12 356.79h266.67v239.59h-266.67z"/>
 <path d="m623.81 356.79h266.76v239.59h-266.76z"/>
 <path d="m623.81 639.93h266.76v251.74h-266.76z"/>
 <path d="m934.12 639.93h266.67v251.74h-266.67z"/>
 <path d="m1098.9 189.45c-7.332-9.6445-20.977-11.5-30.523-4.1914l-111.31 84.547 36.953-100.24c4.2617-11.285-1.5234-23.832-12.832-27.977-11.285-4.0703-23.809 1.5938-27.953 12.906l-42.809 115.95-47.238-116.59c-4.5234-11.168-17.238-16.43-28.332-12-11.168 4.5234-16.594 17.238-12.023 28.355l38 93.785-95.691-72.645c-9.5234-7.3086-23.191-5.4531-30.5 4.1914-7.2617 9.5938-5.4297 23.262 4.2148 30.5l158.24 120.17c3.9297 3.6445 8.668 6.3555 14.309 6.3555h0.33203c0.23828 0 0.35547-0.14453 0.54687-0.14453 0.19141 0 0.35547 0.14453 0.5 0.14453 4.668 0 9.3086-1.4766 13.168-4.4297l168.79-128.14c9.5898-7.3047 11.449-20.973 4.1641-30.543z"/>
</svg>
