<?xml version="1.0" encoding="UTF-8"?>
<svg width="1200pt" height="1200pt" version="1.1" viewBox="0 0 1200 1200" xmlns="http://www.w3.org/2000/svg">
 <path d="m904.74 101.2c-41.387 0.085938-62.16 19.609-82.789 58.609-20.664-39-41.438-58.559-82.824-58.609-45.938-0.085937-83.316 35.258-83.387 78.77-0.15625 78.875 83.004 157.96 166.2 237 83.172-79.055 166.33-158.12 166.22-237-0.09375-43.512-37.414-78.852-83.422-78.77z"/>
 <path d="m735.41 449.34c1.8711 9.0469 1.6914 18.562-0.97266 27.672-2.293 8.5664-6.9258 16.609-13.176 23.27-21.324 21.602-56.195 22.105-78.012 1.0664l-108.04-105.42-17.242 19.402 108.24 105.49c29.473 28.609 83.027 31.559 112.04 2.1484 9.9844-10.273 18.625-31.957 21.613-45.434l220.42 0.003906c30.719 0 61.043 28.609 61.043 59.184 0 30.816-18.852 60.098-61.043 60.098h-379.43c-19.738-0.55078-42.086-8.293-59.195-22.895l-242.44-182.91-298.59-1.1172v-197.91h437.95s28.945 0.60156 48.926 12.254c18.445 10.754 34.727 26.426 34.727 26.426l197.79 192.01c7.5195 7.1953 12.789 16.328 15.391 26.66z"/>
 <path d="m293.87 613.08c41.375 0.085937 62.16 19.609 82.777 58.609 20.676-39 41.461-58.559 82.824-58.609 45.938-0.097656 83.328 35.258 83.398 78.742 0.13281 78.875-83.004 157.98-166.2 237.01-83.148-79.031-166.33-158.14-166.22-237.01 0.082032-43.484 37.426-78.836 83.422-78.742z"/>
 <path d="m463.18 961.22c-1.8711 9.0469-1.6797 18.562 0.98438 27.672 2.293 8.5547 6.9258 16.609 13.164 23.258 21.324 21.602 56.195 22.105 78.012 1.0781l108.04-105.41 17.258 19.391-108.25 105.5c-29.473 28.598-83.004 31.559-112.04 2.1484-9.9844-10.285-18.625-31.957-21.602-45.445l-220.41 0.003906c-30.73 0-61.055 28.609-61.055 59.195 0 30.805 18.84 60.086 61.055 60.086h379.41c19.738-0.53906 42.086-8.293 59.184-22.883l242.48-182.93 298.56-1.1289 0.003907-197.91h-437.95s-28.945 0.60156-48.926 12.254c-18.445 10.754-34.727 26.426-34.727 26.426l-197.77 192.01c-7.5391 7.2109-12.816 16.344-15.41 26.688z"/>
</svg>
