<?xml version="1.0" encoding="UTF-8"?>
<svg width="1200pt" height="1200pt" version="1.1" viewBox="0 0 1200 1200" xmlns="http://www.w3.org/2000/svg">
 <path d="m144.28 761.93c9.9492-10.02 10.043-26.148 0-36.145-124.2-124.2-124.25-326.29 0-450.46l2.0508-1.8008c9.9961-9.3359 10.273-26.039 0.37109-36.18-9.9492-10.066-26.074-10.273-36.098-0.32422-0.76953 0.52734-1.6562 1.332-2.5312 2.1719-144.1 144.17-144.1 378.7 0 522.78 10.023 9.9727 26.234 9.9492 36.207-0.046874z"/>
 <path d="m223.97 682.21c9.9961-9.9961 9.9961-26.125 0-36.121-80.23-80.219-80.184-210.82 0.070312-291.07l1.9805-1.7891c10.094-9.2539 10.32-26.102 0.39453-36.145-9.9258-10.117-26.125-10.32-36.191-0.42188-0.78906 0.64063-1.582 1.3828-2.3516 2.1758-100.26 100.22-100.26 263.23-0.12109 363.37 10.047 10.02 26.176 9.9961 36.219 0z"/>
 <path d="m299.46 606.72c9.9961-10.043 10.02-26.172 0.023437-36.191-38.281-38.281-38.594-100.4-0.88672-139.08 0.99609-0.76953 1.9336-1.5117 2.8203-2.3516 9.4336-9.5039 10.465-25.98 0.74219-36.215-9.7578-10.211-25.98-10.547-36.215-0.76953 0-0.16797-1.3789 0.98438-2.6289 2.2188-58.598 58.621-58.523 153.85-0.035156 212.39 10.066 10.047 26.184 9.9727 36.18 0z"/>
 <path d="m392.95 499.68c0 19.77-16.027 35.797-35.797 35.797s-35.797-16.027-35.797-35.797c0-19.77 16.027-35.797 35.797-35.797s35.797 16.027 35.797 35.797z"/>
 <path d="m856.62 132.41c-147.29 0-283.6 104.59-323.33 224.88h238.39v44.52h212.68c3.2773 0.27734 38.652 4.2227 63.707 22.043 42.434 30.383 54.625 83.281 55.129 85.5 2.0273 9.1562-3.707 18.238-12.875 20.27-9.0234 1.9805-18.203-3.7305-20.258-12.887-0.070312-0.37109-10.02-42.562-41.734-65.258-17.688-12.59-45.527-15.828-45.805-15.852l-428.02 0.097656v109.7c0 9.3594-7.5703 16.957-16.969 16.957-9.3594 0-16.969-7.5977-16.969-16.957v-126.67c0-0.097656 0.046876-0.16797 0.046876-0.25391h-0.10938v-16.824h-79.488v143.77h43.32l-52.969 117.09c-1.4531 3.1797-2.125 6.875-2.125 10.703 0 15.277 12.348 27.637 27.613 27.637h56.258v95.977c0 74.867 60.527 135.49 135.34 135.49h53.844v135.27h366.41l0.003906-313.62c79.895-62.844 131.29-168.54 131.29-278.03 0.023438-189.79-153.65-343.55-343.38-343.55zm-228.29 406.91c-18.574 0-33.625-15.098-33.625-33.625 0-18.562 15.047-33.648 33.625-33.648 18.574 0 33.648 15.07 33.648 33.648 0 18.516-15.074 33.625-33.648 33.625zm400.98 66.695c-14.34 50.102-56.398 83.688-100.03 83.688-7.6914 0-15.445-1.0547-23.137-3.2539-8.8789-2.5312-14.004-11.785-11.438-20.641 2.5312-8.8555 11.746-13.98 20.617-11.473 33.395 9.4688 70.094-16.262 81.898-57.527 7.7539-27.047 6.7422-51.289-2.7461-66.539-6.7188-10.812-17.52-17.41-32.977-20.207-22.777-4.0547-49.344 4.5117-57.504 33-2.543 8.8555-11.723 14.074-20.676 11.438-8.8438-2.5312-13.98-11.785-11.41-20.664 11.855-41.316 51.086-64.609 95.508-56.641 24.562 4.4297 43.754 16.656 55.414 35.41 14.688 23.582 17.016 56.773 6.4805 93.41z"/>
</svg>
