<?xml version="1.0" encoding="UTF-8"?>
<svg width="1200pt" height="1200pt" version="1.1" viewBox="0 0 1200 1200" xmlns="http://www.w3.org/2000/svg">
 <path d="m865.13 750.36v-86.438h-57.266v-186.19h32.988v-70.68h-37.727s0-70.691-47.113-131.95c-47.172-61.246-103.74-89.543-103.74-89.543v-99.777h-28.262v-70.02h-51.863v70.02h-28.262v99.77s-56.555 28.297-103.7 89.543c-47.16 61.262-47.125 131.95-47.125 131.95h-37.691v70.68h32.965v186.2h-62.398v86.438l-304.05-0.003906v439.38h88.656v-182.61h62.723v182.63h66.781v-182.63h62.723v182.63h66.758v-182.63h62.746v182.63h66.781v-182.63h62.711v182.63h66.805v-182.63h62.711v182.63h66.781v-182.63h62.738v182.63h66.758l-0.003906-182.63h62.723v182.63h66.781v-182.63h62.734v182.63h89.879l0.003906-439.39zm-691.86 209.74h-62.727v-58.477h62.723zm129.5 0h-62.723v-58.477h62.723zm382.4-481.88h62.723v184.38h-62.723zm-119.51 0h62.723v184.38h-62.723zm-119.5 0h62.723v184.38h-62.723zm-13.895 481.88h-62.746v-58.477h62.746zm129.49 0h-62.711v-58.477h62.711zm129.5 0h-62.711v-58.477h62.711zm-310.72-128.46 214.61-88.871 220.3 88.871zm440.25 128.46h-62.746v-58.477h62.746zm129.48 0h-62.723v-58.477h62.723zm129.52 0h-62.734v-58.477h62.734z"/>
</svg>
