<?xml version="1.0" encoding="UTF-8"?>
<svg width="1200pt" height="1200pt" version="1.1" viewBox="0 0 1200 1200" xmlns="http://www.w3.org/2000/svg">
 <path d="m949.86 1190.4h153.72l-179.52-554.62c-16.223-56.867-65.941-157.79-190.52-157.79h-12.602l-126.86 282.02-126.88-282.01h-13.512c-124.57 0-174.36 100.92-190.55 157.79l-178.98 554.61h153.73l148.77-466.68h36.742s-86.508 204.46-104.34 466.68h549.12c-17.855-262.22-104.3-466.68-104.3-466.68h36.742z"/>
 <path d="m644.4 530.89c0 27.789-22.527 50.316-50.312 50.316-27.789 0-50.316-22.527-50.316-50.316s22.527-50.316 50.316-50.316c27.785 0 50.312 22.527 50.312 50.316z"/>
 <path d="m928.32 132.55-338.04-123.21-326.87 111.31 183.93 47.363v79.094h293.2v-72.758l52.105-11.605v255.79h40.703v-264.84z"/>
 <path d="m447.07 282.38c-0.26562 3.5508-0.58984 7.0938-0.58984 10.691 0 81.516 66.07 147.59 147.59 147.59 81.539 0 147.61-66.07 147.61-147.59 0-3.6367-0.39453-7.1406-0.71875-10.691z"/>
</svg>
