<?xml version="1.0" encoding="UTF-8"?>
<svg width="1200pt" height="1200pt" version="1.1" viewBox="0 0 1200 1200" xmlns="http://www.w3.org/2000/svg">
 <path d="m363.14 1102.8c0.69531-70.691 84.156-127.96 187.25-128.06 103.44 0.10938 187.02 57.395 187.03 128.06z"/>
 <path d="m717.67 484.25c-43.512 12.383-88.859-12.602-101.69-56.062-12.301-43.609 12.707-89.039 56.148-101.65 43.656-12.527 89.062 12.59 101.63 56.102 12.598 43.547-12.504 88.883-56.09 101.61z"/>
 <path d="m177.13 1046c-10.645 0-21.445-2.543-31.488-7.9062-32.652-17.41-45-57.996-27.59-90.66l132.94-249.06s10.5-21.227 27.395-30.359c21.289-11.52 44.844-5.7461 44.844-5.7461l157.25 24.059 82.391-156.64c17.23-32.746 57.742-45.324 90.504-28.105 32.746 17.23 45.312 57.742 28.105 90.504l-126.97 241.38-206.58-32.172-111.61 209.22c-12.059 22.621-35.23 35.473-59.184 35.484z"/>
 <path d="m610.19 949.89-247.46-41.746 11.438-67.742 199.29 33.637 178.8-326.18 60.23 33.012z"/>
 <path d="m260.66 351.16c-17.723 0-33.793 7.0664-45.84 18.348l-28.078-127.81 31.883-145.12-31.715-7.0078-16.801 76.453-16.766-76.453-31.738 7.0078 31.895 145.11-28.078 127.81c-12.035-11.316-28.078-18.359-45.84-18.359-37.031 0-67.188 30.145-67.188 67.176 0 37.02 30.156 67.164 67.188 67.164 29.902 0 55.008-19.766 63.672-46.848l0.21484 0.046875 0.53906-2.3984c0.68359-2.5781 1.2734-5.1836 1.7148-7.8594l24.383-111.11 24.469 111.28c0.39453 2.5781 0.94922 5.0156 1.6211 7.4414l0.58984 2.6523 0.22656-0.046875c8.6758 27.086 33.77 46.848 63.66 46.848 37.031 0 67.176-30.133 67.176-67.164-0.011718-37.035-30.156-67.156-67.188-67.156zm-181.09 101.82c-19.105 0-34.645-15.539-34.645-34.656 0-19.105 15.539-34.656 34.645-34.656 19.117 0 34.645 15.551 34.645 34.656 0 1.3086-0.26562 2.5938-0.39453 3.875l-1.5859 7.1758c-4.6172 13.656-17.434 23.605-32.664 23.605zm181.09 0c-15.301 0-28.129-10.043-32.734-23.867l-1.4883-6.7305c-0.16797-1.3438-0.39453-2.6641-0.39453-4.0547 0-19.105 15.527-34.656 34.621-34.656 19.117 0 34.668 15.551 34.668 34.656-0.003907 19.113-15.555 34.652-34.672 34.652z"/>
 <path d="m505.78 112.79v-19.719h-132.66v384.97h48.117v-153.01h84.543v-19.703h-84.543v-22.738h84.543v-19.719h-84.543v-22.738h84.543v-19.703h-84.543v-22.742h84.543v-19.727h-84.543v-22.73h84.543v-19.703h-84.543v-22.738z"/>
 <path d="m1097.9 273.31c-5.4844 3.0586-31.523 19.297-61.609 65.352-0.46875 0.70703-4.5586 7.5-5.0156 8.3281l-73.5 127.66-73.105-49.367c-20.52-13.871-48.395-8.4492-62.27 12.07-13.859 20.531-8.4727 48.422 12.07 62.281l112.85 76.211c7.4766 5.0508 16.234 7.6797 25.105 7.6797 3.3242 0 6.6953-0.35938 10.008-1.1289 11.438-2.6172 21.277-9.7305 27.59-19.559l89.016-152.46c3.2773-5.6289 10.523-7.5352 16.141-4.2617 5.6406 3.2773 7.5469 10.5 6.4219 16.141l-105.09 180.61 74.305 459.64c0.085937 24.109 22.031 43.547 49.246 43.547 27.18-0.058593 49.223-19.586 49.164-43.645l1.4297-728.36v-1.2109c0.082032-64.633-57.227-84.445-92.75-59.52z"/>
 <path d="m994.2 257.02 0.15625 0.058594c12.996 7.0781 79.465 30.301 148.57-41.809 27.613-31.402 39.012-77.34 39.012-77.34s-30.312 15.695-55.105 7.6445c-16.766-5.4961-34.176-24.238-37.5-27.973-8.0039-8.1367-17.785-14.902-29.09-19.246-43.848-17.09-93.312 5.0391-110.46 49.297-16.625 43.117 3.2812 90.793 44.418 109.37z"/>
</svg>
