<?xml version="1.0" encoding="UTF-8"?>
<svg width="1200pt" height="1200pt" version="1.1" viewBox="0 0 1200 1200" xmlns="http://www.w3.org/2000/svg">
 <path d="m449.69 710.38-101.47-100.66c-18.227-18.059-18.359-47.496-0.26562-65.711 18.035-18.18 47.484-18.301 65.688-0.25391l101.45 100.66c18.203 18.059 18.336 47.484 0.3125 65.699-18.082 18.23-47.52 18.301-65.711 0.26562z"/>
 <path d="m369.27 791.45-116.73-115.8c-18.203-18.059-18.312-47.461-0.23828-65.699 18.035-18.168 47.473-18.348 65.688-0.25391l116.71 115.75c18.203 18.098 18.301 47.531 0.30078 65.688-18.09 18.262-47.535 18.336-65.727 0.3125z"/>
 <path d="m288.86 872.47-71.004-70.441c-18.215-18.059-18.348-47.449-0.27734-65.676 18.059-18.227 47.508-18.324 65.699-0.26562l71.004 70.43c18.203 18.059 18.336 47.508 0.26562 65.699-18.047 18.219-47.457 18.301-65.688 0.25391z"/>
 <path d="m655.26 360.55-118.63 120.19 153.04 33.723 60.66-61.754z"/>
 <path d="m199.87 822.27-92.016 91.609c-25.465 25.656-25.297 67.078 0.38281 92.555 25.656 25.5 67.105 25.297 92.566-0.33594l92.039-91.586z"/>
 <path d="m679.44 15.051 408.35 405.13-163.34 164.64-408.35-405.13z"/>
 <path d="m337.05 921.29 93.227 92.473s29.004 25.297 60.406 34.285c28.129 8.0625 60.672-3.6133 60.672-3.6133l143.86 142.69h391.25l-342.36-329.8 8.4375-150.42c0.39453-7.2227-0.91016-14.363-3.8047-20.977-62.93-142.54-62.891-142.5-85.477-146.66l-139.34-29.445c-24.73-5.2188-48.926 10.57-54.145 35.258-5.207 24.648 10.598 48.91 35.242 54.121l83.941 17.711c-41.004 60.203-98.699 163.81-74.629 242.86 29.832 97.957 86.113 121.15 86.113 121.15l-18.277 18.406s-49.969-33.109-75.012-84.168c-31.285-63.602-29.652-135.41-29.652-135.41z"/>
</svg>
