<?xml version="1.0" encoding="UTF-8"?>
<svg width="1200pt" height="1200pt" version="1.1" viewBox="0 0 1200 1200" xmlns="http://www.w3.org/2000/svg">
 <path d="m444.6 272.28c-0.33594 3.6484-0.80469 7.2109-0.80469 10.906 0 85.789 66.59 155.27 148.69 155.27 82.078 0 148.61-69.504 148.61-155.27 0-3.7188-0.52734-7.2969-0.75781-10.906z"/>
 <path d="m781.44 206.32c-9.707-86.207-59.52-156.9-126.18-184.56v132.61c0 7.8477-6.3828 14.207-14.23 14.207-7.8594 0-14.219-6.3477-14.219-14.207l-0.003906-141.55c-10.992-2.375-22.285-3.8047-33.863-3.8047-11.473 0-22.668 1.4414-33.602 3.8164v141.53c0 7.8477-6.3477 14.207-14.195 14.207-7.8594 0-14.207-6.3477-14.207-14.207v-132.56c-66.539 27.805-116.66 98.773-127.02 184.51h-49.129v36.938h475.89v-36.938h-49.246z"/>
 <path d="m785.53 477.02-384.65-0.035157c-128.96 0-210.57 107.99-210.57 218.16v415.55c-0.26562 99.781 129.8 99.781 129.8 0v-404.99h40.766l0.16797 477.39h463.4l0.16797-477.39h40.777v404.99c0 99.781 130.05 99.781 129.79 0l-0.003906-415.55c0.011718-109.89-81.227-217.59-209.65-218.12z"/>
</svg>
