<?xml version="1.0" encoding="UTF-8"?>
<svg width="1200pt" height="1200pt" version="1.1" viewBox="0 0 1200 1200" xmlns="http://www.w3.org/2000/svg">
 <path d="m489.69 354.21c10.617 3.168 21.738 4.7148 33.047 4.7148 21.855 0 44.355-5.832 64.832-17.117 26.691-14.715 45.855-38.57 54-67.145 8.1914-28.762 4.4766-59.191-10.43-85.738-4.2617-7.5469-13.832-10.215-21.383-5.9766-7.5469 4.2617-10.238 13.832-6 21.406 10.762 19.168 13.477 41.07 7.5938 61.691-5.832 20.453-19.645 37.594-38.953 48.238-23.738 13.117-50.594 16.691-73.762 9.832-17.738-5.2852-31.309-15.953-39.262-30.93-5.5703-10.5-7.9297-22.145-6.9766-34.668 0.64453-8.6172-5.8555-16.191-14.5-16.832-8.7148-1-16.215 5.832-16.855 14.5-1.3828 18.238 2.2852 36.145 10.57 51.738 11.863 22.238 32.48 38.688 58.078 46.285z"/>
 <path d="m885.21 273.48c-0.5-0.35547-1.0938-0.45312-1.5938-0.71484 0.90625-4.4531 1.5938-9 2.0703-13.645 5.2383-51.047-13.57-82.309-30.262-99.57-27.168-28.047-63.738-36.145-86.691-34.523-0.21484 0.023437-0.40625 0.14453-0.59375 0.16797-0.046875-2.2148 0.09375-4.4297-0.046875-6.6445-2.0234-33-17.832-62.809-44.477-83.906-36.785-29.262-87.309-41.117-131.93-30.785-29.383 6.7383-69.832 26.047-95.645 79.715-3.7617 7.832-0.47656 17.215 7.3555 20.977 7.8555 3.7617 17.215 0.47656 20.977-7.332 16.145-33.57 41.855-55.262 74.355-62.715 35.5-8.1172 75.883 1.3555 105.41 24.785 25.047 19.883 31.57 44.262 32.617 61.215 1.6172 26.547-9.2148 54.355-28.977 74.43-6.0703 6.168-6 16.117 0.16797 22.215 3.0703 3 7.0703 4.5 11.047 4.5 4.0703 0 8.1172-1.5703 11.191-4.668 17.191-17.43 28.953-38.809 34.477-61.5 2 0.71484 4.1172 1.0938 6.3086 0.95313 17.191-1.168 43.617 6.1445 61.93 25.023 17.523 18.117 24.785 43.168 21.617 74.523-2.8555 27.906-15.809 50.047-37.383 64-27.953 18.047-68.645 20.855-108.86 7.5-4.8828-1.5938-10.238-0.73828-14.383 2.332-4.0938 3.0938-6.4531 8-6.2852 13.145 0.09375 2.8555 0.80859 4.7383 2.0469 7.832 17.262 44.094 34.953 123.69-40.383 161.5-32.332 16.191-65.238 17.855-95.191 4.7852-38.262-16.668-69.691-56.023-84.047-105.24-1.5234-5.2617-5.7148-9.3555-11-10.762-5.3086-1.4297-10.953 0-14.93 3.8086-21.285 20.332-56.668 41.977-79.07 43-25.668 1.3086-47.262-7.3086-62.238-24.477-17.332-19.855-23.883-49.645-18-81.738 1.5703-8.5234-4.0703-16.715-12.617-18.285-8.5703-1.7383-16.738 4.0703-18.285 12.617-7.6445 41.547 1.5469 80.93 25.215 108.07 21.191 24.309 52.43 36.668 87.355 35.215 28.047-1.2852 59.523-19.855 81.168-36.309 6.6172 16.285 15.047 31.285 24.785 44.832-22.047 15.383-33.238 39.645-37.93 56.023l-64 211.79c-14.117 48 47.43 66.406 61.953 21.617l57.309-194.07h28.406l-91.43 324.19h84.238v256.12c0 48.785 73.168 48.785 73.168 0l-0.070313-257.95h29.668v258.33c0 48.168 72.809 48.406 72.809 0l0.003906-256.56h76.117l-84.52-324.19h26.523l56.977 192.59c14.523 46.715 75.57 26.906 62.023-21.094l-63.809-210.81c-5.0703-15.309-18.93-38.094-41.383-53.57 4.2852-7.2852 7.832-14.977 10.523-23.168 19.594 16.691 43.762 27.238 70.047 29.738 4.1172 0.38281 8.1914 0.57031 12.191 0.57031 64.047 0 119.02-47.953 125.33-111.81 4.2852-43.477-15.355-86.402-51.355-112.07zm20.07 108.98c-5 50.691-51.43 87.977-103.24 83.047-25.117-2.3828-47.809-14.168-63.883-33.215-0.76172-0.92969-1.7852-1.4766-2.6914-2.1445 0.97656-20.168-1.3828-41.953-8.0938-65.477 39.617 6.8828 77.453 0.61719 106.74-18.332 16.594-10.762 29.523-25.383 38.453-42.691 23.168 19.43 35.691 48.906 32.715 78.812z"/>
</svg>
