<?xml version="1.0" encoding="UTF-8"?>
<svg width="1200pt" height="1200pt" version="1.1" viewBox="0 0 1200 1200" xmlns="http://www.w3.org/2000/svg">
 <path d="m708.18 546.59c-75.203 0-136.48-61.211-136.48-136.49 0-75.516 61.234-136.7 136.48-136.7 75.625 0 136.73 61.164 136.73 136.7-0.011719 75.273-61.137 136.49-136.73 136.49z"/>
 <path d="m1047.6 615.65c-58.824-80.867-167.76-102.14-235.08-58.465-0.33594 0.085937-0.875 0.66016-1.5469 1.4531-2.5781 1.668-5.0898 3.4688-7.4531 5.5664l-264.64 233.5-90.695-212.58 15.109-20.867-434.54-315.43-21.348 29.484 105.57 76.836-27.395 37.234c-39.648 60.156-25.691 141.28 33.18 183.94 58.957 42.719 140.28 30.637 185.18-25.715l27.109-37.379 0.011719-0.035156 46.766 33.973c-4.1406 0.82812-8.2578 2.0742-12.301 3.8047-31.801 13.57-46.57 50.34-33.012 82.141l125.21 293.44c7.8945 18.492 24.168 32.074 43.777 36.492 4.5703 1.0547 9.2031 1.5469 13.801 1.5469 15.098 0 29.867-5.4609 41.41-15.66l115.63-102.01c-20.52 61.777-40.129 117.67-40.129 117.67h351.17v-183.65l72.383 183.65h136.4c0.015625-0.003907-28.617-177.48-144.59-348.93z"/>
</svg>
