<?xml version="1.0" encoding="UTF-8"?>
<svg width="1200pt" height="1200pt" version="1.1" viewBox="0 0 1200 1200" xmlns="http://www.w3.org/2000/svg">
 <path d="m555.98 520.26c0 60.188-48.793 108.98-108.98 108.98s-108.98-48.793-108.98-108.98c0-60.191 48.793-108.98 108.98-108.98s108.98 48.793 108.98 108.98z" fill="#010101"/>
 <path d="m986.24 660h-34.117v112.75h34.117c65.473 0 65.473-112.75 0-112.75z" fill="#010101"/>
 <path d="m927.59 60.324v202.2h-161.43v-201.3c-73.379 30.035-124.8 99.203-124.8 179.8 0 82.945 54.469 153.65 131.27 182.21v236.77h-212.35l-0.023438 0.30078-239.21 0.085938c-105.18 0-160.8 70.922-160.8 143.29v287.53c-0.17969 65.484 98.258 65.484 98.258 0l-0.003906-280.56h47.34l0.10938 321.94h287.64l-0.046875-359.83h179.11v286.03c0 42.781 34.68 77.484 77.473 77.484 42.781 0 77.473-34.703 77.473-77.484l-0.003907-255.66h-0.085937v-157.68h0.085937v-223.72c74.543-29.52 126.97-99.301 126.97-180.71-0.015625-81.395-52.418-151.14-126.98-180.7z" fill="#010101"/>
</svg>
