<?xml version="1.0" encoding="UTF-8"?>
<svg width="1200pt" height="1200pt" version="1.1" viewBox="0 0 1200 1200" xmlns="http://www.w3.org/2000/svg">
 <path d="m388.62 404.41c0 50-40.531 90.531-90.527 90.531-50 0-90.531-40.531-90.531-90.531 0-49.996 40.531-90.527 90.531-90.527 49.996 0 90.527 40.531 90.527 90.527z" fill="#010101"/>
 <path d="m816.41 272.23c-152.44 0-280.25 106.12-314.27 248.28h-109.93l-0.023437 0.25391-198.72 0.070313c-87.371 0-133.59 58.934-133.59 119.06v238.85c-0.15625 54.395 81.625 54.395 81.625 0l0.003906-233.07h39.336l0.085937 267.45h238.96l-0.035156-298.95h74.09c9.6719 169.74 150.39 304.96 322.5 304.96 178.36 0 323.45-145.12 323.45-323.44-0.019531-178.34-145.12-323.46-323.48-323.46zm0 44.918c51.758 0 100.07 14.449 141.64 39.109l-61.945 61.934c-24.348-10.98-51.277-17.23-79.691-17.23-28.766 0-56.016 6.4336-80.617 17.699l-61.883-61.848c41.762-25 90.387-39.664 142.5-39.664zm-177.48 358.2-61.922 61.957c-24.684-41.578-39.133-89.902-39.133-141.62 0-52.117 14.652-100.75 39.648-142.5l61.871 61.836c-11.258 24.625-17.711 51.875-17.711 80.664 0.023437 28.406 6.2773 55.32 17.246 79.668zm177.48 198.86c-52.465 0-101.44-14.855-143.38-40.188l61.766-61.801c24.863 11.531 52.441 18.18 81.625 18.18 28.789 0 56.051-6.4453 80.641-17.699l61.871 61.871c-41.773 24.984-90.434 39.637-142.53 39.637zm0-128.73c-76.488 0-139.67-57.684-148.62-131.79 12.227 0.011719 22.586 0.011719 22.645 0.011719 27.562 0 49.906-21.66 49.906-48.348 0-26.711-22.344-48.359-49.906-48.359-0.14453 0-0.25391 0.035156-0.38281 0.035156l-0.875 0.023438c26.426-42.625 73.512-71.172 127.25-71.172 82.609 0 149.8 67.176 149.8 149.77 0 82.609-67.199 149.82-149.81 149.82zm177.02-69.156c11.258-24.613 17.734-51.863 17.734-80.641 0-29.16-6.6484-56.746-18.18-81.602l61.777-61.789c25.332 41.941 40.199 90.863 40.199 143.36 0 52.105-14.664 100.75-39.672 142.51z" fill="#010101"/>
</svg>
