<?xml version="1.0" encoding="UTF-8"?>
<svg width="1200pt" height="1200pt" version="1.1" viewBox="0 0 1200 1200" xmlns="http://www.w3.org/2000/svg">
 <path d="m481.49 711.55h-148.44c-26.629 0-48.254-21.59-48.254-48.254 0-26.617 21.625-48.215 48.254-48.215h148.44c26.629 0 48.254 21.602 48.254 48.215-0.003907 26.668-21.625 48.254-48.254 48.254z"/>
 <path d="m481.49 830.16h-170.76c-26.652 0-48.238-21.613-48.238-48.289 0-26.594 21.59-48.215 48.238-48.215h170.76c26.629 0 48.254 21.625 48.254 48.215-0.003907 26.676-21.625 48.289-48.254 48.289z"/>
 <path d="m481.49 948.72h-103.87c-26.652 0-48.254-21.574-48.254-48.254 0-26.629 21.613-48.238 48.254-48.238h103.87c26.629 0 48.254 21.613 48.254 48.238-0.003907 26.68-21.625 48.254-48.254 48.254z"/>
 <path d="m806.07 604.54-103.8-117.09c-4.9688-5.6055-11.195-9.9375-18.168-12.684-150.65-59.09-150.61-59.051-170.28-45.59l-124.29 80.223c-22.02 14.207-28.344 43.57-14.148 65.594 14.207 21.984 43.586 28.297 65.566 14.09l74.879-48.324c13.754 74.387 47.027 193.01 122.58 233.69 93.672 50.426 152.11 26.328 152.11 26.328v26.93s-61.043 12.168-116.87-7.1758c-69.59-24.047-120.93-78.18-120.93-78.18v207.1h136.36s39.887-2.5664 69.648-18.898c26.605-14.629 42.098-47.051 42.098-47.051h250.96l0.003906-278.96z"/>
 <path d="m379.14 328.75v144.59l136-84.574v-61.32c65.426-25.922 111.43-87.156 111.43-158.58 0-71.461-45.984-132.66-111.43-158.59v177.47l-141.68-0.007813v-176.71c-64.379 26.352-109.51 87.059-109.51 157.81-0.011718 72.793 47.793 134.86 115.2 159.91z"/>
 <path d="m379.16 976.77v149.24c0 37.535 30.422 67.98 67.992 67.98 37.547 0 67.992-30.445 67.992-67.98v-149.24z"/>
</svg>
