<?xml version="1.0" encoding="UTF-8"?>
<svg width="1200pt" height="1200pt" version="1.1" viewBox="0 0 1200 1200" xmlns="http://www.w3.org/2000/svg">
 <path d="m775.05 205.74 0.20312 0.085938c14.051 8.6875 86.699 38.555 168.02-37.727 32.699-33.191 48.168-83.723 48.168-83.723s-34.777 15.625-61.871 5.1602c-18.359-7.1055-36.637-29.074-40.105-33.457-8.4492-9.5156-18.961-17.617-31.246-23.172-47.82-21.707-104.3-0.011719-126.04 48.277-21.18 47.098-1.9062 101.35 42.863 124.55z"/>
 <path d="m366.5 14.426c52.02 0 94.355 42.266 94.355 94.391 0 52.105-42.324 94.164-94.355 94.164-52.094 0-94.234-42.047-94.234-94.164 0.023438-52.129 42.18-94.391 94.234-94.391z"/>
 <path d="m1098.6 595.21-72.926-253.68c-29.074-101.44-113.93-98.242-113.93-98.242h-180.92s-84.863-3.168-114.01 98.242l-16.535 49.559v-61.754c0-66.805-56.375-104.7-121.75-104.7l-223.88 0.003906c-65.473 0-121.01 37.895-121.01 104.7v321.78c0 22.391 18.18 40.512 40.586 40.512 22.441 0 40.586-18.145 40.586-40.512l0.035157-292.81h31.633v771.7c0 29.449 23.785 53.207 53.137 53.207 29.426 0 50.23-23.746 50.23-53.207l-0.003907-445.26h33.648v445.25c0 29.449 20.531 53.207 49.934 53.207 29.426 0 53.16-23.746 53.16-53.207v-771.72h32.34l0.14453 274.31c0 22.391 18.266 40.523 40.547 40.523 7.332 0 13.934-2.4375 19.848-5.9023 0.13281-0.058594 0.21484-0.14453 0.33594-0.20312 3.5898-2.1016 6.9727-4.4023 9.6836-7.4766 1.4141-1.5234 2.2812-3.2891 3.4453-5.0156 1.8945-2.8789 3.5742-5.7109 4.7148-8.9648l91.355-273.38h25.957c-16.777 48.887-45.938 149.86-48.098 265.88-1.9336 103.89 59.23 505.66 59.23 505.66 4.1641 53.449 75.469 53.578 77.125 0l-0.058594-421.75h36.238l-0.082032 421.78c1.7031 53.578 72.203 53.449 77.125 0 0 0 61.199-401.75 59.258-505.66-2.1602-116.03-31.332-217-48.098-265.88h25.906l70.812 247.3c5.3984 18.984 26.641 29.398 47.305 23.461 20.816-5.9062 33.898-23.977 26.984-47.727z"/>
</svg>
