<?xml version="1.0" encoding="UTF-8"?>
<svg width="1200pt" height="1200pt" version="1.1" viewBox="0 0 1200 1200" xmlns="http://www.w3.org/2000/svg">
 <path d="m1118.9 813.83-141.59-51.668v-511.28c0-24.547-19.953-44.5-44.5-44.5-7.0703 0-13.523 2.0938-19.477 5.0469v292.09h-21.57v-269.52c-0.046875 0.11719-0.14453 0.19141-0.23828 0.30859v-53.594c0-24.57-19.855-44.5-44.453-44.5-24.547 0-44.5 19.93-44.5 44.5v35.332c20.191 8.1172 34.262 27.477 34.262 50.117v237.36l-21.547 0.003907v-236.62c0-19.332-15.715-35-35.07-35-19.309 0-34.977 15.668-34.977 35v352l-25.57 0.070312 0.19141-112.62c0-22.668-18.5-41.07-41.168-41.238-6.7852 0.09375-13.477 1.7852-19.262 5.0234-6.2852 3.4062-11.406 8.2383-15.309 13.953-4.1445 6.7383-6.332 14.285-6.2383 22.094l-0.64453 203.55s1.9531 35.285 5.668 50.668c12.094 64.238 65.617 90.855 65.617 90.855l411.14 198.91z"/>
 <path d="m500.67 349.57-118.98-198.36 30.191-18.121 119.05 198.34z"/>
 <path d="m586.33 222.98h-35.262v-223.33h35.262z"/>
 <path d="m655.79 320.07-33.168-12.047 88.168-242.41 33.121 12.051z"/>
 <path d="m569.19 670.76c0.070313-7.832-2.1172-15.383-6.2148-22.117-3.8828-5.6914-9.0469-10.5-15.332-13.906-5.7617-3.2617-12.453-4.9531-19.262-5.0234-22.645 0.16797-41.145 18.547-41.191 41.191l0.21484 112.62-25.547-0.046876-0.003906-368.02c0-24.547-19.953-44.5-44.5-44.5-7.0703 0-13.547 2.0938-19.477 5.0703v291.43h-21.617v-268.88c-0.023438 0.11719-0.11719 0.19141-0.19141 0.33203v-53.617c0-24.594-19.883-44.5-44.453-44.5-24.617 0-44.523 19.906-44.523 44.5v35.332c20.191 8.0938 34.285 27.477 34.285 50.094v236.71h-21.547v-235.98c0-19.285-15.715-35-35.047-35-19.332 0-35 15.715-35 35v429.57c1.4062 27.738 4.7148 63.094 22.191 84.332 25.617 31.145 63.285 37.738 63.645 37.809 8.4297 1.4766 14.07 9.4531 12.617 17.883-1.3086 7.5234-7.8555 12.855-15.238 12.855-0.88281 0-1.7617-0.070313-2.6445-0.23828-1.9766-0.35547-49.145-8.8555-82.191-48.5-7.7617-9.3086-13.477-21.07-17.762-33.668l-130.26 32.191-0.71094 236.32 419.09-184.17s53.57-26.645 65.617-90.883c3.7383-15.355 5.7383-50.645 5.7383-50.645z"/>
</svg>
