<?xml version="1.0" encoding="UTF-8"?>
<svg width="1200pt" height="1200pt" version="1.1" viewBox="0 0 1200 1200" xmlns="http://www.w3.org/2000/svg">
 <path d="m657.65 204.35-0.17969 0.10938c-14.566 9-89.641 39.816-173.79-39.012-33.781-34.309-49.801-86.566-49.801-86.566s35.953 16.141 63.996 5.3633c18.984-7.3789 37.906-30.109 41.484-34.621 8.7461-9.8164 19.621-18.215 32.305-23.965 49.477-22.441 107.89 0 130.32 49.906 21.898 48.723 1.9688 104.82-44.34 128.79z"/>
 <path d="m276.52 626.96c-7.2109 0-14.508-0.81641-21.816-2.5938-49.621-12-80.09-61.957-68.102-111.57l57.758-238.75c12-49.621 61.883-80.125 111.56-68.125 49.609 12.023 80.09 61.98 68.074 111.6l-57.742 238.74c-10.234 42.301-48.059 70.707-89.734 70.707z"/>
 <path d="m987.31 240.45h-439.6c-3.5039 0-10.246 0.53906-13.043 1.3438-51.852 8.8906-70.883 70.57-70.883 70.57l-54.781 230.2 155.48-90.695-14.113-30.504c-3.0703-6.6484-0.17969-14.531 6.4688-17.531 6.6016-3.1445 14.484-0.22656 17.555 6.4453l18.551 40.008c0.023437 0.10938 0.10938 0.17969 0.15625 0.23828 0.15625 0.22656 0.13281 0.42188 0.21484 0.66016l35.832 77.242 3.5898 7.3203c2.1133 4.1172 9.6953 11.844 16.727 14.723l144.11 54.996-92.027 158.23-120.68-113.3 24.156-110.96-29.363-63.422-175.15 102.17-67.777 284.55-143.46 224.45c-5.3164 7.4766-7.9922 16.391-7.9922 27.023-2.1133 17.965 2.6641 33.562 14.293 46.895 11.629 13.199 26.496 20.844 44.484 23.016 26.484 2.0625 46.598-8.5312 60.336-31.824l153.06-240.15c3.1562-6.4219 7.3789-15.336 12.73-27.145l30.434-128.17 141.46 116-167.22 287.43c-4.5859 7.8945-1.8945 18.023 6 22.645 2.6172 1.5586 5.4844 2.2695 8.3047 2.2695 5.6875 0 11.258-2.9883 14.316-8.2578l142.84-245.58-0.19141 194.66c6.3945 30.742 25.992 47.688 58.812 50.902 17.965 1.0547 33.59-4.2344 46.836-15.875 13.199-11.746 20.34-26.016 21.383-42.887v-14.328l-1.2109-242.83c0-19.199-4.4414-38.316-16.621-50.473l-24.984-23.555 99.574-171.29c26.449 1.6094 45.457-13.477 49.285-39.59 2.5938-17.258-8.9023-33.191-22.645-38.387l-148.39-52.859-58.141-159.59h341.29c23.398 0 42.371-18.973 42.371-42.395 0.011718-23.414-18.961-42.383-42.371-42.383z"/>
</svg>
