<?xml version="1.0" encoding="UTF-8"?>
<svg width="1200pt" height="1200pt" version="1.1" viewBox="0 0 1200 1200" xmlns="http://www.w3.org/2000/svg">
 <path d="m693.6 267.6h-364.8c-31.199 0-55.199-25.199-55.199-55.199s25.199-55.199 55.199-55.199h364.8c31.199 0 55.199 25.199 55.199 55.199 0 29.996-25.199 55.199-55.199 55.199z"/>
 <path d="m589.2 124.8h-156c-31.199 0-55.199-25.199-55.199-55.199s25.199-55.199 55.199-55.199h156c31.199 0 55.199 25.199 55.199 55.199s-24 55.199-55.199 55.199z"/>
 <path d="m693.6 693.6h-364.8c-31.199 0-55.199-25.199-55.199-55.199s25.199-55.199 55.199-55.199h364.8c31.199 0 55.199 25.199 55.199 55.199 0 29.996-25.199 55.199-55.199 55.199z"/>
 <path d="m771.6 409.2h-520.8c-31.199 0-55.199-25.199-55.199-55.199s25.199-55.199 55.199-55.199h520.8c31.199 0 55.199 25.199 55.199 55.199s-24 55.199-55.199 55.199z"/>
 <path d="m771.6 552h-520.8c-31.199 0-55.199-25.199-55.199-55.199s25.199-55.199 55.199-55.199h520.8c31.199 0 55.199 25.199 55.199 55.199s-24 55.199-55.199 55.199z"/>
 <path d="m555.6 776.4c0 16.57-13.434 30-30 30-16.57 0-30-13.43-30-30 0-16.566 13.43-30 30-30 16.566 0 30 13.434 30 30z"/>
 <path d="m680.4 885.6c0 16.566-13.43 30-30 30-16.566 0-30-13.434-30-30 0-16.57 13.434-30 30-30 16.57 0 30 13.43 30 30z"/>
 <path d="m775.2 824.4c0 16.57-13.43 30-30 30-16.566 0-30-13.43-30-30 0-16.566 13.434-30 30-30 16.57 0 30 13.434 30 30z"/>
 <path d="m736.8 974.4c0 16.57-13.434 30-30 30-16.57 0-30-13.43-30-30 0-16.566 13.43-30 30-30 16.566 0 30 13.434 30 30z"/>
 <path d="m856.8 955.2c0 16.57-13.434 30-30 30-16.57 0-30-13.43-30-30 0-16.566 13.43-30 30-30 16.566 0 30 13.434 30 30z"/>
 <path d="m544.8 991.2c0 16.57-13.434 30-30 30-16.57 0-30-13.43-30-30 0-16.566 13.43-30 30-30 16.566 0 30 13.434 30 30z"/>
 <path d="m573.6 880.8c0 16.566-13.434 30-30 30-16.57 0-30-13.434-30-30 0-16.57 13.43-30 30-30 16.566 0 30 13.43 30 30z"/>
 <path d="m882 870c0 16.57-13.43 30-30 30s-30-13.43-30-30 13.43-30 30-30 30 13.43 30 30z"/>
 <path d="m928.8 1056c0 16.57-13.434 30-30 30-16.57 0-30-13.43-30-30s13.43-30 30-30c16.566 0 30 13.43 30 30z"/>
 <path d="m816 1159.2c0 16.57-13.43 30-30 30s-30-13.43-30-30c0-16.566 13.43-30 30-30s30 13.434 30 30z"/>
 <path d="m996 810c0 16.57-13.43 30-30 30s-30-13.43-30-30 13.43-30 30-30 30 13.43 30 30z"/>
 <path d="m943.2 682.8c0 16.566-13.43 30-30 30-16.566 0-30-13.434-30-30 0-16.57 13.434-30 30-30 16.57 0 30 13.43 30 30z"/>
</svg>
