<?xml version="1.0" encoding="UTF-8"?>
<svg width="1200pt" height="1200pt" version="1.1" viewBox="0 0 1200 1200" xmlns="http://www.w3.org/2000/svg">
 <path d="m172.86 297.2c0 28.297-22.969 51.254-51.312 51.254-28.297 0-51.254-22.957-51.254-51.254 0-28.355 22.957-51.312 51.254-51.312 28.355-0.011719 51.312 22.945 51.312 51.312z"/>
 <path d="m1120.9 687.42h-135.21l25.848-81.562-139.57 28.188v116.57l30.156 0.023438v233.51c0 17.531 14.195 31.727 31.727 31.727s31.727-14.195 31.727-31.727l0.003907-233.28h112.11l-28.559 90.949c-5.2578 16.703 4.043 34.523 20.773 39.781 3.1562 0.97266 6.3711 1.4414 9.4922 1.4414 13.488 0 26.027-8.6758 30.277-22.223l41.52-132.18c3.0117-9.625 1.2617-20.125-4.6914-28.262-6.0078-8.1289-15.5-12.949-25.602-12.949z"/>
 <path d="m1169.5 433.5-84.66-77.16 1.5977-80.773-194.15 199.88h-620.07c0.023438-0.70703 0.26562-1.1875 0.26562-1.9219 0-15.012-7.4648-22.43-22.402-22.43h-93.457l-2.9531-43.344c-0.97266-13.008-6.3711-23.941-16.441-32.879-9.9492-9-21.719-13.188-35.113-12.719-12.926 0.99609-23.902 6.4688-32.844 16.465-8.9766 9.9492-13.188 21.625-12.684 35.113l8.9414 151.71c0.97266 12.898 6.3711 23.699 16.02 32.461 9.707 8.7617 21.395 13.043 34.766 13.043h162.16l17.113 38.102c-26.797-13.859-57.098-21.805-89.293-21.805-108.1 0-196.03 87.973-196.03 196.07 0 108.1 87.938 196.03 196.03 196.03 108.09 0 196.02-87.938 196.02-196.03 0-29.074-6.5742-56.543-17.941-81.324l34.906-6.9961v25.703h60.492v-37.789l31.344-6.2539v21.66l-31.344 49.43 0.26562 196.44c0 17.531 14.195 31.727 31.727 31.727s31.727-14.195 31.727-31.727l0.23828-159.18-0.17969-0.14453 47.605-73.332 0.50391 61.344 72.863 185.73c6.3359 16.285 24.707 24.406 41.016 18.098 16.379-6.3125 24.469-24.707 18.121-41.051l-63.238-161.18 47.484-64.055 121.67 0.17969v-107.99l-318.35 64.246-0.48047-23.605 318.82-64.008v-98.762l-325.52 0.003906c-23.605 0-43.621 8.4102-60.086 25.199-16.465 16.848-24.672 37.055-24.672 60.574v84.422l-32.711 6.5273c-0.35938-0.71875-0.52734-1.4531-0.94922-2.1602l-66.574-140.23c-6.1445-12.742-22.633-20.746-33.168-20.746l-125.47-0.003906-0.79297-37.414h90.48c1.0312 0 1.7383-0.32422 2.6875-0.38281v0.30078h619.22v114.13l147.42-29.594 31.141-98.184 92.953 21.781c11.508 1.9219 21.887-0.79297 31.223-8.1484 9.3477-7.3789 13.957-16.848 13.957-28.414-0.011718-14.715-6.418-26.285-19.199-34.637zm-689.71 174.76 31.344-48.457v112.57l-31.344 6.2539zm-273.49 60.996c41.102 0 78.289 16.441 105.9 42.758l-246.56 49.137c23.949-54.012 77.867-91.895 140.66-91.895zm0 308.04c-84.938 0-154.01-69.086-154.01-154.01 0-5.5195 1.0547-10.715 1.6211-16.094l1.5234-0.28906c0.38281 0 0.70703 0.17969 1.0938 0.17969 1.4141 0 2.8555-0.14453 4.3086-0.43359l280.33-56.039c11.809 21.742 19.129 46.246 19.129 72.684 0.007812 84.926-69.066 154-154 154z"/>
</svg>
