<?xml version="1.0" encoding="UTF-8"?>
<svg width="1200pt" height="1200pt" version="1.1" viewBox="0 0 1200 1200" xmlns="http://www.w3.org/2000/svg">
 <path d="m126.04 488.07v698.41h1.8711l312.01-0.011719 0.003906-133.91h321.38v133.87l313.73-0.011719 0.16797-698.35zm233.54 456.73h-120.52v-120.52h120.52zm0-208.78h-120.52v-120.52h120.52zm200.87 208.78h-120.52v-120.52h120.52zm0-208.78h-120.52v-120.52h120.52zm200.87 208.78h-120.53v-120.52h120.52v120.52zm0-208.78h-120.53v-120.52h120.52v120.52zm200.86 208.78h-120.52v-120.52h120.52zm0-208.78h-120.52v-120.52h120.52z"/>
 <path d="m669.59 155.04v-140.46h-140.46v140.46h-137.94v140.46h137.94v140.46h140.46v-140.46h140.46v-140.46z"/>
</svg>
