<?xml version="1.0" encoding="UTF-8"?>
<svg width="1200pt" height="1200pt" version="1.1" viewBox="0 0 1200 1200" xmlns="http://www.w3.org/2000/svg">
 <path d="m599.62 96.926c0.14453 45.348 36.949 82.176 82.402 82.391 45.457-0.21484 82.297-37.043 82.367-82.391-0.070313-45.59-36.91-82.402-82.367-82.32-45.457-0.097657-82.273 36.73-82.402 82.32z"/>
 <path d="m541.68 456.57h-299.22v-26.902h299.22z"/>
 <path d="m541.68 381.05h-167.41v-26.891h167.41z"/>
 <path d="m541.68 533.14h-222.5v-26.895h222.5z"/>
 <path d="m708.39 911.68 68.27-422.43s18.109-127.43-32.027-204.28c-31.246-47.902-58.367-64.766-64.105-67.992-36.938-25.906-96.574-5.3398-96.457 61.945v312.72c-0.10938 61.164 78.277 61.066 78.695 0l0.003907-255.64h24.996v255.65c-0.32422 46.559-32.711 70.824-64.559 70.824h-0.011719c-14.207 0-27.516-4.9453-38.426-13.633l0.51562 255.12c-55.465 21.371-95.004 75.121-95.004 138.04 0 81.625 66.406 148.02 148.02 148.02 81.613 0 148.02-66.395 148.02-148.02 0-56.281-31.57-105.29-77.93-130.32zm-70.09 223.68c-51.48 0-93.359-41.879-93.359-93.359 0-31.836 16.078-59.93 40.477-76.789l0.14453 72.793c-0.035156 25.031 22.836 45.336 51.145 45.406 28.32 0 51.191-20.27 51.254-45.312l10.766-66.672c19.992 17.137 32.941 42.238 32.941 70.57-0.007813 51.484-41.887 93.363-93.367 93.363z"/>
</svg>
