<?xml version="1.0" encoding="UTF-8"?>
<svg width="1200pt" height="1200pt" version="1.1" viewBox="0 0 1200 1200" xmlns="http://www.w3.org/2000/svg">
 <path d="m12.762 564.21c-8.5469-8-12.762-18.5-12.762-31.5v-183.81c0-8 3.9766-12.023 12.023-12.023 7.4531 0 11.238 4.2617 11.238 12.762v135.79h39.809v-137.29c0-7.5 3.668-11.262 11.238-11.262 6.9531 0 10.5 4.0234 10.5 12.023v136.52h41.285v-137.29c0-7.5 3.7148-11.262 11.215-11.262 7.9297 0 11.953 4.0234 11.953 12.023v186.81c0 10-4.0703 19.262-12.332 27.738-8.3086 8.5-18.215 12.762-29.668 12.762v334.62c0 23.5-10.762 35.238-32.238 35.238-21.5 0-32.238-11.738-32.238-35.238v-334.62c-11.523 0-21.523-4-30.023-12z"/>
 <path d="m995.59 615.71c-27.547-21.117-33.117-59.309-14.785-87.977-14.094 0.070313-28.355-3.3086-40.406-12.547-29.191-22.168-34.691-63.883-12.57-92.977 10.93-14.168 26.5-22.547 42.93-24.977-60.168-91.168-155.33-159.14-271-181.83-228.71-44.812-450.45 104.21-495.36 332.93-41.355 210.83 82.285 415.36 280.95 481.24-9.4297-14.832-13.715-33.047-10.047-51.57 4.332-22 18.809-38.594 37.215-48.238-9.8555-7.168-16.832-17.047-21.855-28.023-122.14-57.523-195.26-191.86-168.19-330.21 27.738-141.24 152.09-243.69 295.74-243.69 19.43 0 39.047 1.8828 58.285 5.668 79.094 15.523 147.38 60.883 192.38 127.74 45 66.906 61.191 147.31 45.668 226.36-11.047 56.617-38.215 106.57-75.383 146.59-0.070313 0.30859 0.046875 0.52344 0 0.80859 10.738-3.0234 21.953-4.4297 33.691-2.1445 37.668 7.4062 62.023 42.762 57.645 80.309 50.238-55.145 86.809-123.88 102.19-202.41 5.4531-27.617 7.8828-55.145 7.832-82.262-15.555 1.125-31.555-2.5625-44.938-12.777z"/>
 <path d="m1133.2 704.55h-34.406v-312.88c0-16.977 5.2383-30.762 15.738-41.238 9.4062-9 21-13.523 34.43-13.523 13.07 0 24.309 4.5234 33.809 13.523 10.523 10.523 15.762 24.285 15.762 41.332v519.79c0 23.047-10.762 34.547-32.238 34.547-22.117 0-33.117-11.523-33.117-34.617v-206.93z"/>
 <path d="m484.48 859.19c7.4297-38.406 44.809-63.523 83.145-56.023 3 0.59375 5.2852 2.4297 8.0938 3.3828-0.09375-4.8828-1.0703-9.5938-0.09375-14.57 7.5-38.477 44.883-63.523 83.215-56 25.617 5 44.262 23.738 52.262 46.762 15.594-22.547 43.477-35.094 72.117-29.477 25.57 5.0469 44.145 23.738 52.191 46.715 26.43-33.547 45.977-73.07 54.57-117.21 14.238-72.5-0.57031-146.24-41.883-207.57-41.191-61.355-103.86-102.95-176.45-117.14-17.617-3.4531-35.668-5.2148-53.453-5.2148-131.71 0-245.76 93.977-271.19 223.52-23.617 120.31 35.785 236.93 137.48 293.76 0.17188-3.6914-0.73438-7.2148 0.003906-10.93z"/>
</svg>
