<?xml version="1.0" encoding="UTF-8"?>
<svg width="1200pt" height="1200pt" version="1.1" viewBox="0 0 1200 1200" xmlns="http://www.w3.org/2000/svg">
 <path d="m898.8 418.8v-88.801h-588v88.801h103.2v135.6h-103.2v168h103.2v378h-103.2v88.801h586.8v-88.801h-103.2v-378h103.2v-168h-103.2v-135.6zm-294 374.4c-85.199 0-154.8-69.602-154.8-154.8 0-85.199 69.602-154.8 154.8-154.8s154.8 69.602 154.8 154.8c0 85.203-69.602 154.8-154.8 154.8z"/>
 <path d="m604.8 510c-70.801 0-128.4 57.602-128.4 128.4 0 70.801 57.602 128.4 128.4 128.4 70.801 0 128.4-57.602 128.4-128.4 0-70.797-57.598-128.4-128.4-128.4zm0 162c-19.199 0-33.602-15.602-33.602-33.602 0-19.199 15.602-33.602 33.602-33.602 19.199 0 33.602 15.602 33.602 33.602-0.003906 19.203-15.602 33.602-33.602 33.602z"/>
 <path d="m645.6 87.602v-74.402h-90v75.602c-86.398 24-150 110.4-150 212.4h397.2c0-104.4-67.199-193.2-157.2-213.6z"/>
</svg>
