<?xml version="1.0" encoding="UTF-8"?>
<svg width="1200pt" height="1200pt" version="1.1" viewBox="0 0 1200 1200" xmlns="http://www.w3.org/2000/svg">
 <path d="m402.72 706.82c0 68.633-55.637 124.27-124.27 124.27-68.633 0-124.27-55.641-124.27-124.27 0-68.633 55.641-124.27 124.27-124.27 68.633 0 124.27 55.641 124.27 124.27z"/>
 <path d="m454.41 732.25c-12.625 0-22.836-10.211-22.836-22.848s10.199-22.824 22.836-22.824c12.66 0 22.848 10.188 22.848 22.824 0 6.1094-2.293 11.734-6.707 16.164-4.2461 4.2344-10.055 6.6836-16.141 6.6836zm-349.26-17.066h-2.2695c-12.492-1.3906-21.77-12.48-20.555-24.961 0-0.15625 0-0.15625 0.14453-0.30078 1.2344-12.312 11.879-21.312 24.84-20.258 6.0859 0.61328 11.555 3.4922 15.383 8.2422 3.9609 4.7383 5.7969 10.645 5.1719 16.738-1.2344 11.719-10.98 20.539-22.715 20.539zm332.95-56.773c-8.832 0-16.895-5.1953-20.723-13.129-2.5938-5.6758-2.8906-11.746-0.76953-17.531 2.1367-5.7852 6.4062-10.344 11.891-12.949 11.137-5.1836 25.141 0.16797 30.312 11.125 2.5938 5.6289 2.8789 11.723 0.74219 17.543-2.125 5.6055-6.2266 10.332-11.879 12.758-3.0234 1.5391-6.2148 2.1836-9.5742 2.1836zm-309.64-14.926c-4.0938 0-8.0625-1.2461-11.566-3.2266-10.812-6.3945-14.473-20.426-8.0742-31.367 6.1094-10.344 20.855-14.172 31.223-8.0742 10.812 6.4062 14.473 20.426 8.2188 31.379-4.2617 6.8359-11.738 11.289-19.801 11.289zm263.82-44.953c-5.5078 0-10.668-1.9805-14.773-5.4961-9.625-8.0508-10.824-22.523-2.7617-32.125 7.9336-9.2891 23.004-10.512 32.281-2.7461 9.6016 8.0625 10.812 22.523 2.7461 32.125-4.4023 5.1953-10.809 8.2422-17.492 8.2422zm-212.35-10.367c-7.4297 0-14.438-3.8047-18.719-9.8984-3.5039-5.0391-4.8711-11.102-3.6484-17.051 1.043-6.1094 4.4141-11.281 9.4453-14.762 10.055-6.875 24.828-4.1523 31.824 5.9023 7.1523 10.223 4.4297 24.527-5.7969 31.691-0.14453 0.13281-0.30078 0.13281-0.45703 0.28906-3.793 2.4492-8.043 3.8281-12.648 3.8281zm145.49-24.828c-1.9922 0-4.1289-0.3125-5.9531-0.76953-12.191-3.3594-19.5-15.984-16.152-28.176 3.1914-11.734 15.984-19.188 28.02-15.984 12.191 3.3359 19.332 15.816 16.141 28.02-2.7227 9.9141-11.867 16.91-22.055 16.91zm-75.566-3.625c-11.113 0-20.543-8.0898-22.379-19.066-1.0664-6.0859 0.3125-12.18 3.8047-17.039 3.6602-5.0391 8.832-8.2305 14.93-9.2773 1.2227-0.30078 2.4609-0.30078 3.793-0.30078 11.125 0 20.566 7.8945 22.391 19.043 2.125 12.336-6.2383 24.203-18.562 26.352-1.3828 0.10938-2.582 0.28906-3.9766 0.28906z"/>
 <path d="m1039.5 706.82c0 68.633-55.641 124.27-124.27 124.27s-124.27-55.641-124.27-124.27c0-68.633 55.637-124.27 124.27-124.27s124.27 55.641 124.27 124.27z"/>
 <path d="m1091.2 732.25c-12.66 0-22.871-10.211-22.871-22.848s10.223-22.824 22.871-22.824c12.625 0 22.801 10.188 22.801 22.824 0 12.633-10.188 22.848-22.801 22.848zm-349.26-17.066c-0.79297 0-1.5234 0-2.293-0.14453-6.1094-0.46875-11.566-3.3242-15.383-8.0625-3.9727-4.7539-5.7852-10.68-5.207-16.754 1.2344-12.504 12.035-21.637 24.984-20.594 6.0859 0.625 11.594 3.5039 15.383 8.2578 3.9609 4.7266 5.7969 10.645 5.1953 16.559-1.0547 11.918-10.969 20.738-22.68 20.738zm332.95-56.652c-8.8438 0-16.922-5.1602-20.734-13.246-2.5781-5.4844-2.9023-11.746-0.74219-17.52 2.0898-5.6289 6.2383-10.332 11.867-12.781 11.113-5.1719 25.129 0 30.301 10.957 5.3516 11.398 0.44531 25.129-10.957 30.445-3.207 1.3789-6.3984 2.1445-9.7344 2.1445zm-309.65-15.047c-4.1289 0-8.0898-1.2461-11.605-3.2266-5.3047-3.2031-8.9883-8.0898-10.5-14.016-1.5352-5.8906-0.60156-12.023 2.4727-17.352 6.0977-10.344 20.688-14.172 31.211-8.0742 10.824 6.4062 14.473 20.543 8.0742 31.379-4.1367 6.8359-11.625 11.289-19.652 11.289zm263.78-44.953c-5.4609 0-10.656-1.9805-14.773-5.4961-9.5898-8.0508-10.824-22.523-2.7344-32.125 7.7773-9.1328 22.535-10.512 31.812-3.0469 0.16797 0 0.30078 0.16797 0.46875 0.3125 9.6133 8.0625 10.812 22.523 2.6055 32.125-4.2734 5.1836-10.668 8.2305-17.379 8.2305zm-212.33-10.367c-7.4531 0-14.449-3.8047-18.707-9.8984-7.1758-10.355-4.6094-24.684 5.7617-31.812 10.055-6.8867 24.816-4.1289 31.656 5.7617 7.1758 10.367 4.5859 24.684-5.7734 31.836-3.8047 2.5898-8.207 4.1133-12.938 4.1133zm145.49-24.828c-1.9805 0-4.1641-0.3125-6.1211-0.76953-5.7969-1.6562-10.801-5.4727-13.691-10.789-3.0586-5.1953-3.8164-11.438-2.3047-17.387 3.1914-11.867 16.141-19.332 28.02-15.984 5.9414 1.5 10.812 5.3047 13.859 10.645 3.0586 5.3281 3.793 11.438 2.1367 17.375-2.5898 9.9141-11.707 16.91-21.898 16.91zm-75.562-3.625c-11.102 0-20.543-8.0898-22.547-19.066-1.9805-12.336 6.2539-24.059 18.59-26.316h0.17969c12.637-2.1602 24.215 6.3711 26.316 18.73 2.1602 12.336-6.2539 24.203-18.707 26.352-1.2539 0.12109-2.6094 0.30078-3.832 0.30078z"/>
 <path d="m104.65 1200 0.023437-175.04h30.109v175.04h302.03v-175.04h30.035l0.074219 175.04h102.2v-211.5c0-84.012-60.191-131.63-142.48-131.63h-281.66c-82.344 0-142.45 47.617-142.45 131.63v211.5z"/>
 <path d="m734.06 1200v-175.04h30.098v175.04h302.03v-175.04h30.059l0.039062 175.04h102.23v-211.5c0-84.012-60.18-131.63-142.49-131.63h-281.68c-82.309 0-142.46 47.617-142.46 131.63v211.5z"/>
 <path d="m559.09 159.52c-146.7 0-268.27 107.96-290.39 248.5l-70.836-66.719-30.133 31.98 116.4 109.64 124.74-99.949-27.469-34.285-67.43 54.023c23.688-113.63 124.56-199.26 245.11-199.26 79.199 0 152.05 36.301 199.91 99.574l35.039-26.484c-56.191-74.359-141.82-117.02-234.94-117.02z"/>
 <path d="m1012.2 341.3-69.457 65.461c-14.688-193.68-178.99-346.89-379.01-346.89-143.81 0-273.7 78.59-338.99 205.09l39.324 20.305c57.684-111.73 172.5-181.14 299.66-181.14 174.8 0 318.78 132.12 334.46 300.25l-69.551-55.715-27.457 34.285 124.74 99.949 116.4-109.64z"/>
</svg>
