<?xml version="1.0" encoding="UTF-8"?>
<svg width="1200pt" height="1200pt" version="1.1" viewBox="0 0 1200 1200" xmlns="http://www.w3.org/2000/svg">
 <path d="m656.74 994.76-437.07-759.67c-8.1914-14.215-26.355-19.117-40.617-10.953-14.238 8.1914-19.117 26.355-10.93 40.594 0 0 54.617 202.02 167.17 392.55 4.9062 8.2617 9.9766 16.453 15 24.691l-167.2 388.31c-1.8086 4.9531-18.883 51.57 2.3086 89.953 17.883 32.406 52.668 38.953 73.57 38.953 1.8086 0 3.5469-0.070312 5.1445-0.16797h241.48c16.43 0 29.738-13.332 29.738-29.738s-13.309-29.738-29.738-29.738h-242.69c-1 0-2 0.070313-3 0.16797-0.16797-0.023438-14.43 0.92969-20.523-10.117-6.9531-12.617-2.4297-33.07-0.66797-38.215l151.17-347.71c102.81 154.26 215.33 280.74 215.33 280.74 5.5 9.5703 15.5 14.93 25.785 14.93 5.0234 0 10.145-1.3086 14.785-3.9766 14.238-8.168 19.168-26.359 10.953-40.598z"/>
 <path d="m737.76 336.64 14.383-8.2617s73.332-38.191 107.33-32.855c36.145 5.6914 71.191 49.355 106.43 60.117 21.453 6.5703 49.168-14.809 49.168-14.809l-47.262-82.785s-10.547-22.047-24.762-37.191c-17.191-18.309-68.594-29.93-68.594-29.93l43.215-20.691-41.645-72.93-207.36 118.38z"/>
 <path d="m355.32 388.51 284.28-160.35 109.14 193.49-284.28 160.35z"/>
 <path d="m845.88 747.12 16.617-0.14453s82.617 2.6914 109.62 23.977c28.715 22.715 37.832 77.93 63.262 104.59 15.523 16.285 50.117 11.262 50.117 11.262l-0.61719-95.309s1.6172-24.406-3.2852-44.617c-6-24.309-45.145-59.668-45.145-59.668l47.832 3.1172-0.52344-83.977-238.74 1.5z"/>
 <path d="m606 830.38 208.14-0.28906-0.23828-222.09h-336.05z"/>
 <path d="m400.76 267.07-24.023-26.379 195.95-178.38 24.023 26.383z"/>
 <path d="m343.09 187.05-31.785-16.191 87.023-170.86 31.785 16.191z"/>
 <path d="m991.12 1198.8c2.2852-5.4062 3.5938-10.93 3.5938-16.645 0-41.168-62.07-74.547-138.64-74.547-76.547 0-138.62 33.355-138.62 74.547 0 5.7148 1.3086 11.262 3.5938 16.645z"/>
</svg>
