<?xml version="1.0" encoding="UTF-8"?>
<svg width="1200pt" height="1200pt" version="1.1" viewBox="0 0 1200 1200" xmlns="http://www.w3.org/2000/svg">
 <path d="m1169.4 1008-253.79-241.71c-6.2148-5.8828-13.094-10.43-20.285-14.383 42.617-71.785 67.168-155.52 67.168-244.91 0-265.36-215.91-481.26-481.24-481.26-265.38 0.003906-481.29 215.91-481.29 481.27 0 265.41 215.91 481.31 481.29 481.31 108.17 0 208.17-35.906 288.62-96.43 3.5938 5.1445 7.6914 9.9531 12.383 14.406l253.81 241.69c18.691 17.855 42.738 26.691 66.668 26.691 25.5 0 51.023-10.094 70.047-29.977 36.785-38.645 35.285-99.836-3.3789-136.69zm-1072.7-501c0-212.05 172.5-384.55 384.59-384.55 212.02 0 384.57 172.5 384.57 384.55 0 212.09-172.55 384.64-384.57 384.64-212.09-0.003906-384.59-172.55-384.59-384.64z"/>
 <path d="m354.29 779.41h285.29v-121.43h-67.047v-264.95h-218.24v121.43h73.859v143.52h-73.859z" fill-rule="evenodd"/>
 <path d="m476.55 196.33c-65.355 0-97.645 32.285-97.645 71.332 0 45.832 28.883 72.145 97.645 72.145 72.191 0 96.809-33.094 96.809-72.145 0.027343-41.617-31.402-71.332-96.809-71.332z" fill-rule="evenodd"/>
</svg>
