<?xml version="1.0" encoding="UTF-8"?>
<svg width="1200pt" height="1200pt" version="1.1" viewBox="0 0 1200 1200" xmlns="http://www.w3.org/2000/svg">
 <path d="m986.4 1132.8c0 32.398-31.199 58.801-63.602 58.801-32.398 0-64.801-26.398-64.801-58.801v-278.4h128.4z"/>
 <path d="m825.6 854.4v278.4c0 32.398-32.398 58.801-64.801 58.801-32.398 0-63.602-26.398-63.602-58.801v-278.4z"/>
 <path d="m847.2 73.199c-49.199-1.1992-91.199 8.4023-124.8 20.402 20.398-48 68.398-82.801 124.8-82.801 57.602 0 105.6 36 126 86.398-32.398-13.199-74.398-22.801-126-24z"/>
 <path d="m1015.2 729.6v-74.398l100.8-0.003906v74.398c0 62.402-100.8 62.402-100.8 0.003906z"/>
 <path d="m847.2 280.8c-74.398 0-135.6-61.199-135.6-135.6v-10.801c33.602-14.398 80.402-27.598 135.6-26.398 58.801 1.1992 104.4 15.602 135.6 30v8.3984c0 74.402-61.199 134.4-135.6 134.4z"/>
 <path d="m290.4 20.398c-81.602 0-147.6 69.602-147.6 154.8s66 204 147.6 204c81.602 0 147.6-118.8 147.6-204s-66-154.8-147.6-154.8zm-21.598 246c-7.1992 6-27.602-9.6016-45.602-32.398-18-24-27.602-46.801-20.398-52.801 7.1992-6 27.602 9.6016 45.602 32.398 17.996 24.004 27.598 46.801 20.398 52.801zm88.801-32.398c-18 24-38.398 38.398-45.602 32.398-7.1992-6 2.3984-28.801 20.398-52.801s38.398-38.398 45.602-32.398c7.1992 4.8008-1.1992 28.801-20.398 52.801z"/>
 <path d="m1116 391.2v-2.3984c0-79.199-43.199-134.4-135.6-139.2-31.199 39.602-79.199 66-133.2 66-38.398 0-72-13.199-100.8-33.602-2.3984-2.3984-6-4.8008-8.3984-7.1992-3.6016-2.3984-7.1992-6-9.6016-8.3984-4.8008-4.8008-9.6016-9.6016-14.398-15.602-67.199 0-124.8 32.398-142.8 99.602l-55.199 206.4-26.398-82.801c-8.3984-27.602-32.398-78-92.398-78h-207.6c-60 0-105.6 48-105.6 109.2v346.8c0 50.398 67.199 50.398 67.199 0v-339.6h28.801v631.2c0 26.398 21.602 48 48 48s48-21.602 48-48v-343.2h30v343.2c0 26.398 21.602 48 48 48s48-21.602 48-48v-627.6h30l68.398 228c10.801 33.602 44.398 34.801 61.199 15.602 1.1992-1.1992 2.3984-2.3984 3.6016-4.8008 13.199-22.801 103.2-362.4 103.2-362.4h30v426h128.4v-98.398h31.199v98.398h128.4v-426h30v226.8l99.605-0.003906v-170.4h-45.602v-57.602zm-333.6 190.8c-15.602 0-28.801-13.199-28.801-28.801 0-15.602 13.199-28.801 28.801-28.801 15.602 0 28.801 13.199 28.801 28.801 0 15.602-13.199 28.801-28.801 28.801zm117.6 0c-15.602 0-28.801-13.199-28.801-28.801 0-15.602 13.199-28.801 28.801-28.801s28.801 13.199 28.801 28.801c0 15.602-12 28.801-28.801 28.801zm0-110.4c-15.602 0-28.801-13.199-28.801-28.801 0-15.602 13.199-28.801 28.801-28.801s28.801 13.199 28.801 28.801c0 15.598-12 28.801-28.801 28.801z"/>
</svg>
