<?xml version="1.0" encoding="UTF-8"?>
<svg width="1200pt" height="1200pt" version="1.1" viewBox="0 0 1200 1200" xmlns="http://www.w3.org/2000/svg">
 <path d="m1093.2 958.41s-129.67-93.312-263.91-135.74c-137.91-43.621-289.27-35.809-289.27-35.809s-30.984 3.7578-30.875 21.434c0.15625 23.137 20.461 23.617 31.777 26.375 13.188 3.2383 54.191 7.9219 130 29.902 56.09 16.285 99.445 38.699 99.445 38.699s-83.484 28.055-101.22 79.535c-6.0469 17.543-1.5234 32.555 3.9727 42.742 16.766-13.332 45.168-32.832 78.203-42.602 38.566-11.473 61.344-9.4922 62.305-9.3945 7.4766 0.75781 13.008 7.4023 12.277 14.902-0.73047 7.4883-7.332 12.984-14.809 12.289-0.46875-0.035156-19.344-1.332-52.008 8.3633-37.512 11.102-69.254 37.5-79.344 46.547-1.2852 9.2773-1.5977 21.324 2.207 32.809 2.293 6.9727 6.1914 11.676 10.5 14.855 13.98-11.941 33.383-26.039 55.02-34.414 31.129-12.121 49.32-11.41 51.266-11.258 7.5703 0.50391 13.262 6.9727 12.793 14.484-0.46875 7.4648-6.875 13.152-14.34 12.77-0.53906-0.011719-14.82-0.28906-39.828 9.4336-16.5 6.4219-31.871 17.172-43.738 26.902-0.68359 9.3711-0.26563 22.414 5.7617 30.422 23.438 31.168 60.59 16.77 60.59 16.77l47.137-18.695s27.781 26.746 54.121 33.434c65.762 16.656 213-8.5781 213-8.5781z"/>
 <path d="m662.39 8.9648s-35.363 95.941-35.363 114.93c0 19.02 20.184 41.594 20.184 62.941 0 21.395-86.219 133.59-86.219 133.59s-7.1641 12.371-3.6016 23.039c1.4023 4.2227 7.4883 10.152 15.012 12.781 17.258 5.9883 40.98 14.734 40.98 14.734s6.7812 1.6094 5.5078 10.5c-0.99609 7.0078-5.9883 11.605-5.9883 11.605l-20.004 28.402s-6 6.5156-3.3242 12.996c1.9062 4.7383 5.3164 5.8203 5.3164 5.8203s36.539 16.859 37.535 17.941l-25.512 23.258s-7.5117 4.8242-7.5117 15.77c0 9.7188 9 15.73 9 15.73l40.477 16.465s-20.496 71.723-2.3516 92.664c45.109 52.234 201.89-7.1289 201.89-7.1289s36.371-2.4492 52.246 7.1289c47.531 28.512 192.74 186.68 192.74 186.68l0.85156-799.82-431.86-0.007813z"/>
 <path d="m90.086 521.86c-10.895 0-20.473-9.5625-20.473-21.191 0-11.605 9.5742-20.496 20.473-20.496 11.641 0 21.203 8.9023 21.203 20.496 0 11.629-9.5664 21.191-21.203 21.191z"/>
 <path d="m114.01 599.75c-10.895 4.7773-22.535 0-27.996-10.945-4.1055-10.934 0.67188-22.547 11.566-26.652 10.969-4.1055 22.598 0.67187 26.652 10.934 4.1289 10.945-0.66016 22.551-10.223 26.664z"/>
 <path d="m99 438.5c-10.969-4.7891-16.414-17.09-10.969-28.02 4.1172-9.5625 16.414-15.023 26.652-10.234 10.957 4.7539 16.414 16.391 10.957 27.312-4.7891 10.234-16.406 15.719-26.641 10.941z"/>
 <path d="m137.93 366.05c-8.1602-8.1836-7.5-21.852 0-29.363 8.1836-8.8672 21.203-8.8672 28.715 0 8.832 7.5117 8.832 21.191 0 29.363-7.5117 7.5508-20.531 8.2227-28.715 0z"/>
 <path d="m137.93 665.34c-8.1602-8.2188-7.5-21.875 0-29.387 8.1836-8.207 21.203-8.207 28.715 0 8.832 7.5117 8.832 21.18 0 29.387-7.5117 7.5117-20.531 8.1719-28.715 0z"/>
 <path d="m211.7 715.21c-10.234-4.1406-15.684-16.402-10.895-26.664 4.7891-10.922 17.074-16.402 27.324-10.922 10.234 4.1055 15.012 15.719 10.906 26.652-4.0664 10.934-16.355 15.004-27.336 10.934z"/>
 <path d="m230.17 323.71c-10.957 4.1055-22.512-0.67188-26.641-11.605-4.1172-10.262 0.67188-22.559 10.906-26.652 10.969-4.0938 22.586 0.69531 26.652 11.617 4.7773 9.543-0.011719 22.527-10.918 26.641z"/>
 <path d="m302.62 309.36c-11.629 0-21.191-8.9023-21.191-20.496 0-10.945 9.5625-20.496 21.191-20.496 11.566 0 20.461 9.5508 20.461 20.496-0.003906 11.605-8.8945 20.496-20.461 20.496z"/>
 <path d="m302.62 732.95c-11.629 0-21.191-9.5391-21.191-20.449 0-11.652 9.5625-20.531 21.191-20.531 11.566 0 20.461 8.8789 20.461 20.531-0.003906 10.906-8.8945 20.449-20.461 20.449z"/>
 <path d="m390.06 715.87c-10.285 4.1289-22.57-0.67188-26.652-10.945-4.1055-10.246 0.67188-21.863 11.578-26.652 9.5625-5.4258 22.586 0 26.652 10.922 4.793 10.969-0.65625 22.586-11.578 26.676z"/>
 <path d="m376.37 324.39c-10.895-4.7891-15.684-16.391-11.617-26.652 4.7773-10.934 16.414-16.379 27.371-11.594 10.234 4.0938 15.695 16.379 10.906 27.324-4.0977 10.238-16.41 15.004-26.66 10.922z"/>
 <path d="m437.17 366.05c-8.1602-8.1836-7.5-21.852 0-29.363 8.1836-8.8672 21.875-8.8672 29.387 0 8.9141 7.5117 8.9141 21.191 0 29.363-7.5117 7.5508-21.203 8.2227-29.387 0z"/>
 <path d="m437.17 665.34c-8.1602-8.2188-7.5-21.875 0-29.387 8.1836-8.207 21.875-8.207 29.387 0 8.9141 7.5117 8.9141 21.18 0 29.387-7.5117 7.5117-21.203 8.1719-29.387 0z"/>
 <path d="m489.8 602.48c-10.234-4.0938-15.742-17.102-10.957-26.664 4.1172-10.934 16.414-16.379 26.652-11.617 10.969 4.7773 15.758 16.414 11.641 27.336-4.8008 9.5664-17.102 15.707-27.336 10.945z"/>
 <path d="m506.16 439.86c-10.906 4.1172-21.863-0.67188-26.594-10.934-4.7773-10.934 0.67188-21.863 10.895-26.652 10.906-4.7773 22.535 0 26.664 10.934 4.7891 10.934-0.66797 22.551-10.965 26.652z"/>
 <path d="m514.4 521.86c-11.629 0-20.52-9.5625-20.52-21.191 0-11.605 8.9023-20.496 20.52-20.496 10.922 0 20.473 8.9023 20.473 20.496 0 11.629-9.5625 21.191-20.473 21.191z"/>
 <path d="m302.28 524.29c-11.629 0-20.52-9.5625-20.52-21.18 0-11.594 8.9023-20.496 20.52-20.496 10.934 0 20.484 8.9023 20.484 20.496-0.011719 11.613-9.5547 21.18-20.484 21.18z"/>
 <path d="m155.4 522.8c-11.629 0-20.52-9.5625-20.52-21.18 0-11.605 8.8906-20.496 20.52-20.496 10.922 0 20.484 8.8906 20.484 20.496-0.011718 11.613-9.5625 21.18-20.484 21.18z"/>
 <path d="m225 539.59c-11.641 0-20.531-9.5625-20.531-21.191 0-11.605 8.8906-20.496 20.531-20.496 10.922 0 20.473 8.8906 20.473 20.496 0 11.625-9.5508 21.191-20.473 21.191z"/>
 <path d="m306 668.28c-11.137 0-20.074-8.7109-20.363-19.906-0.15625-5.4258 1.8242-10.633 5.6406-14.578 3.7305-3.9492 8.7852-6.2383 14.27-6.3711 11.652 0 20.664 8.7852 20.965 19.922 0.14453 5.4844-1.9062 10.621-5.6406 14.652-3.7422 3.9492-8.8672 6.1562-14.281 6.2891-0.015625-0.007812-0.53125-0.007812-0.58984-0.007812z"/>
 <path d="m232.67 650.91c-3.2891 0-6.6602-0.875-9.6602-2.4727-9.8867-5.2695-13.633-17.734-8.2695-27.637 3.5742-6.6602 10.477-10.754 17.941-10.754 3.3711 0 6.7422 0.80469 9.7422 2.4102 9.8867 5.3398 13.633 17.734 8.2695 27.695-3.5039 6.668-10.477 10.758-18.023 10.758z"/>
 <path d="m378.37 647.12c-7.1875 0-13.703-3.6719-17.438-9.8047-2.8555-4.7031-3.7422-10.188-2.4258-15.469 1.3203-5.3398 4.6094-9.8047 9.2266-12.66 3.2148-1.9219 6.8867-2.9531 10.633-2.9531 7.1758 0 13.766 3.6719 17.496 9.8281 5.7969 9.6602 2.7109 22.188-6.875 28.043-3.2344 1.9961-6.8945 3.0156-10.617 3.0156z"/>
 <path d="m177.67 599.36c-7.0312 0-13.547-3.5156-17.293-9.5156-2.9297-4.6914-3.875-10.117-2.6289-15.469 1.2344-5.3516 4.3906-9.8164 9.0859-12.742 3.2031-2.0625 6.9492-3.1562 10.836-3.1562 7.1055 0 13.547 3.5898 17.363 9.5898 5.9297 9.5273 3 22.199-6.5156 28.211-3.2266 2.0625-6.9727 3.082-10.848 3.082z"/>
 <path d="m430.67 592.84c-3.4453 0-6.8867-0.94922-9.8867-2.6289-4.7656-2.6406-8.2812-6.9609-9.7422-12.238-1.4648-5.2695-0.875-10.766 1.8359-15.527 3.5898-6.5039 10.391-10.535 17.797-10.535 3.5156 0 6.9609 0.94922 9.9609 2.6406 4.7539 2.6406 8.207 6.9609 9.7422 12.238 1.4531 5.2578 0.80469 10.754-1.8359 15.516 0 0.070313-0.070312 0.14453-0.14453 0.21484-3.6016 6.3711-10.406 10.32-17.727 10.32z"/>
 <path d="m449.34 519.74h-0.21484c-11.137 0-20.293-9.0703-20.449-20.219-0.070312-5.4258 2.0508-10.621 5.8672-14.496 3.8047-3.8867 8.9414-6.0859 14.352-6.1562 11.426 0 20.578 9.0859 20.664 20.219 0.070312 5.4961-1.9805 10.621-5.7852 14.496-3.8125 3.8906-8.9492 6.0859-14.434 6.1562z"/>
 <path d="m429.05 447.16c-7.2461 0-14.004-3.8867-17.652-10.105-2.7852-4.6914-3.5898-10.188-2.1953-15.527 1.3906-5.2695 4.7539-9.6719 9.457-12.457 3.1445-1.8359 6.7305-2.8555 10.332-2.8555 7.2461 0 13.992 3.875 17.641 10.117 5.7227 9.7422 2.4258 22.262-7.2344 27.984-3.1719 1.8242-6.7461 2.8438-10.348 2.8438z"/>
 <path d="m175.91 446.35c-3.6602 0-7.2461-0.96094-10.477-2.8672-4.6797-2.7734-7.9922-7.2461-9.3828-12.602-1.3203-5.2695-0.50391-10.766 2.2812-15.383 3.6484-6.2266 10.391-10.02 17.566-10.02 3.6602 0 7.3203 1.0078 10.488 2.9141 9.6602 5.7109 12.816 18.312 7.1055 27.984-3.6602 6.168-10.402 9.9727-17.582 9.9727z"/>
 <path d="m375.43 394.04c-3.5039 0-7.0195-0.94922-10.176-2.7109-4.7031-2.7852-8.0625-7.1758-9.5156-12.457-1.4023-5.2695-0.67188-10.766 2.0508-15.457 3.5898-6.3711 10.391-10.246 17.711-10.246 3.5273 0 7.043 0.96094 10.188 2.7109 4.6797 2.7109 8.125 7.1055 9.5156 12.383 1.3906 5.2695 0.73047 10.836-2.0508 15.516-3.5898 6.3164-10.391 10.262-17.723 10.262z"/>
 <path d="m229.75 393.61c-7.3203 0-14.137-3.9492-17.809-10.32-2.6289-4.7656-3.3594-10.262-1.8945-15.527 1.4766-5.2812 4.8359-9.6719 9.6016-12.383 0.070312 0 0.21484-0.070312 0.28906-0.070312 3-1.6797 6.3594-2.5547 9.8164-2.5547 7.3203 0 14.137 3.9609 17.797 10.332 2.7109 4.7539 3.3594 10.246 1.8945 15.516-1.3789 5.1953-4.7539 9.5273-9.3594 12.238-0.085938 0-0.15625 0.070312-0.22656 0.13281-3.0898 1.7578-6.6055 2.6367-10.109 2.6367z"/>
 <path d="m302.63 374.5c-11.281 0-20.438-9.168-20.438-20.438 0-11.281 9.2266-20.449 20.438-20.449 11.352 0.070313 20.508 9.2266 20.508 20.508-0.074219 11.211-9.2305 20.379-20.508 20.379z"/>
 <path d="m270.18 595.12c-2.8555 0-5.6406-0.58984-8.2812-1.7539-10.176-4.6094-14.711-16.621-10.105-26.734 4.3906-9.8867 16.777-14.566 26.734-10.105 4.9062 2.207 8.6523 6.1562 10.535 11.207 1.9062 5.0508 1.7656 10.547-0.43359 15.469-3.293 7.2383-10.469 11.918-18.449 11.918z"/>
 <path d="m336.61 594.01c-7.7656 0-14.723-4.3203-18.156-11.281-2.3516-4.8359-2.7109-10.32-0.96094-15.445 1.7539-5.1367 5.4258-9.2383 10.246-11.578 2.7852-1.4023 5.7852-2.0508 8.8555-2.0508 7.7656 0 14.797 4.3203 18.168 11.352 2.3516 4.8359 2.7109 10.332 0.96094 15.383-1.7656 5.125-5.3516 9.2383-10.262 11.578-2.7695 1.3828-5.707 2.043-8.8516 2.043z"/>
 <path d="m378.37 542.3c-1.6211 0-3.2383-0.15625-4.8359-0.60156-5.2695-1.2344-9.6719-4.5352-12.457-9.1445-2.7734-4.6211-3.6719-10.043-2.3516-15.238 2.6406-10.691 13.777-17.438 24.469-14.797 5.207 1.2461 9.6602 4.5352 12.445 9.1562 2.7852 4.6211 3.5898 10.031 2.3516 15.227-2.2695 9.0977-10.332 15.398-19.621 15.398z"/>
 <path d="m365.33 477.18c-6.3008 0-12.301-3-16.117-7.9805-0.070313-0.070313-0.070313-0.14453-0.14453-0.21484-3.2266-4.3203-4.5352-9.6719-3.7422-15.023 0.80469-5.3398 3.6602-10.02 7.9922-13.246 8.6406-6.3711 21.887-4.4023 28.273 4.2461 6.5898 8.9414 4.6797 21.613-4.2461 28.273-3.5195 2.5664-7.625 3.9453-12.016 3.9453z"/>
 <path d="m245.2 470.09c-5.207 0-10.117-1.9805-13.848-5.4961-3.875-3.6602-6.1445-8.7109-6.3711-14.051-0.14453-5.4258 1.7656-10.547 5.4961-14.508 7.3203-7.7656 20.734-8.207 28.57-0.88672 3.875 3.6719 6.1445 8.6523 6.3711 14.074 0.14453 5.4258-1.7656 10.535-5.4961 14.496-3.8125 4.0273-9.1523 6.3711-14.723 6.3711z"/>
 <path d="m306.95 445.48h-1.1758c-5.4258-0.28906-10.332-2.7109-13.922-6.7422-3.5742-4.0195-5.4102-9.2266-5.125-14.566 0.66016-10.691 9.457-19.055 20.219-19.055h1.1758c11.125 0.67188 19.633 10.262 18.973 21.395-0.64453 10.617-9.4531 18.969-20.145 18.969z"/>
 <path d="m533.41 885.94c-5.6172 0-11.242-0.61328-16.754-1.7656-36.359-7.8125-62.734-40.414-62.734-77.543 0-5.5781 0.60156-11.207 1.7891-16.727 7.8008-36.324 40.402-62.711 77.52-62.711 5.6172 0 11.242 0.61328 16.738 1.7773 15.527 3.3242 29.555 11.137 40.547 22.586 5.3281 5.5547 5.1602 14.387-0.40625 19.738-5.5547 5.3164-14.387 5.1484-19.727-0.40625-7.1172-7.3906-16.199-12.469-26.281-14.617-3.5742-0.76953-7.2344-1.1641-10.883-1.1641-24.047 0-45.18 17.09-50.242 40.645-0.76953 3.6133-1.1641 7.2617-1.1641 10.871 0 24.047 17.113 45.18 40.68 50.258 9.6836 2.0625 19.871 1.3086 29.148-2.2305 7.1758-2.7734 15.254 0.82812 18.023 8.0273 2.7617 7.1992-0.82812 15.266-8.0391 18.023-9.0234 3.4844-18.516 5.2383-28.215 5.2383z"/>
</svg>
