<?xml version="1.0" encoding="UTF-8"?>
<svg width="1200pt" height="1200pt" version="1.1" viewBox="0 0 1200 1200" xmlns="http://www.w3.org/2000/svg">
 <path d="m480.06 194.35 0.19141 0.070313c14.41 8.9414 88.848 39.527 172.2-38.605 33.504-34.02 49.332-85.789 49.332-85.789s-35.605 15.996-63.383 5.293c-18.816-7.3086-37.535-29.82-41.102-34.285-8.6523-9.7578-19.43-18.059-32.027-23.746-49.008-22.246-106.86-0.023437-129.14 49.465-21.691 48.242-1.9297 103.85 43.934 127.6z"/>
 <path d="m378.9 1191.8-133.39-553.34 82.969-25.586-8.293-26.879-232.79 71.797 8.3398 26.891 81.648-25.199z"/>
 <path d="m1158.2 591.41-79.934-213.25-0.55078-1.4414-0.20312-0.058594c-2.0508-3.8516-6.1211-6.3477-10.523-6.3477h-107.95v-51.047h8.3164c24.289 0 43.992-19.691 43.992-43.992s-19.703-43.992-43.992-43.992l-340.46 0.003906c-0.73047 0-1.4023 0.16797-2.1016 0.21484h-47.258l-111.11 237.66 0.81641-237.66h-17.027c-42.875 0-69.816 23.328-86.664 45.742 0 0-107.26 122.63-177.95 203.61l-8.3516-27.023-46.945 14.508 17.293 56.074c-13.883 15.949-22.512 25.922-22.656 26.172-13.117 17.496-8.4727 42.551 8.3984 56.965 8.293 7.0547 18.445 10.523 28.547 10.523 8.7227 0 13.945-2.1016 13.945-2.1016l46.98-14.484-6.6133-21.434c58.402-62.676 210.5-225.98 210.5-225.98s-44.891 144.01-42.84 305.24c3.2617 257.71 151.59 522.39 151.59 522.39h173.24s19.98-363.8-9.6133-538.98c-30.059-178.07-77.867-322.77-77.902-322.88l0.27734-0.5625h303.97v51.047h-107.91c-4.4883 0-8.5938 2.543-10.43 6.1211l-81.059 215.71c-0.40625 1.3555-0.55078 2.8555-0.21484 5.5078 0.20312 1.4414 0.70703 2.7852 1.2852 3.6133l0.74219 1.4766c0.875 1.1172 1.8008 2.0273 2.4258 2.3633 1.3906 1.6562 34.777 40.344 87.254 40.344 51.434 0 85.801-38.652 86.832-39.926 1.0312-0.78125 1.8711-1.6328 2.6641-2.6055l0.75781-1.1875c0.74219-1.4414 1.2109-2.6523 1.5859-4.9336 0.20312-1.4297 0.10938-2.9414-0.625-5.3984l-73.848-196.95h90.539v61.379h33.613v-61.379h90.562l-73.535 196.37-0.58984 1.3438c-0.42188 1.3789-0.55078 2.9023-0.19141 5.5781 0.21484 1.2617 0.63672 2.4961 1.3555 3.8516l1.0312 1.5703c0.64844 0.81641 1.3672 1.5234 2.0508 2.0039 1.4297 1.6562 35.762 40.309 87.254 40.309 52.488 0 85.836-38.699 86.746-39.887 1.1875-0.86328 2.125-1.7891 2.2812-2.2578l1.1406-1.4648c0.81641-1.4766 1.3086-2.7734 1.7266-5.2305 0.14844-1.6523 0.015625-3.1055-0.66797-5.2188zm-278.11-7.8477h-125.14l62.566-166.85zm124.31 0 62.594-166.85 62.594 166.85z"/>
</svg>
