<?xml version="1.0" encoding="UTF-8"?>
<svg width="1200pt" height="1200pt" version="1.1" viewBox="0 0 1200 1200" xmlns="http://www.w3.org/2000/svg">
 <path d="m905.34 440.61h-100.22v-46.445h-77.691v46.445h-108.08c-43.719 0-79.16 35.438-79.16 79.16v24.93h444.3v-24.93c0-43.723-35.434-79.16-79.156-79.16z"/>
 <path d="m1087.9 579.54v-318.05c0-85.645-69.68-155.32-155.32-155.32l-340.46-0.003906c-85.645 0-155.32 69.68-155.32 155.32v318.04c-55.371 10.148-98.016 56.668-102.25 113.9l-232.7-194.5-89.508 45.773 321.82 550.43h856.37v-392.32c0.003906-61.465-44.254-112.57-102.63-123.26zm-495.78-413.45h340.46c52.602 0 95.391 42.793 95.391 95.391v315.96h-531.25v-315.96c0-52.598 42.793-95.395 95.395-95.395z"/>
</svg>
