<?xml version="1.0" encoding="UTF-8"?>
<svg width="1200pt" height="1200pt" version="1.1" viewBox="0 0 1200 1200" xmlns="http://www.w3.org/2000/svg">
 <path d="m903.32 887.07c-101.16 0-194.96-52.883-247.7-138.77h-102.56l-75.254-76.223-64.5 65.387-64.598-65.387-64.535 65.387-65.629-66.516-61.477 62.258-16.98-5.5078-5.1602-4.1289-112.93-114.48c-21.527-21.59-21.406-46.738 0.38281-68.879l97.055-98.305h537.98c53.027-84.098 146.14-135.88 245.89-135.88 160.19 0 290.52 130.31 290.52 290.47 0.019531 160.21-130.31 290.57-290.5 290.57zm-332.92-180.3h109.31l5.9414 10.656c44.039 79.031 127.43 128.14 217.68 128.14 137.32 0 249.04-111.73 249.04-249.06 0-137.29-111.72-248.96-249.04-248.96-89.004 0-171.82 48.059-216.17 125.44l-5.9766 10.441-544.4-0.003906-84.84 85.922c-3.3359 3.3945-4.2227 5.3281-4.4141 5.8672 0.19141 0.070312 1.0312 1.7539 3.9492 4.668l99.289 100.67 67.812-68.664 65.605 66.516 64.535-65.375 64.57 65.375 64.523-65.375z"/>
 <path d="m851.51 487.33c17.605 0 31.824 14.27 31.824 31.836 0 17.578-14.23 31.766-31.824 31.766-17.531 0-31.766-14.184-31.766-31.766 0-17.566 14.234-31.836 31.766-31.836z"/>
 <path d="m967.62 487.33c17.605 0 31.871 14.27 31.871 31.836 0 17.578-14.27 31.766-31.871 31.766-17.508 0-31.754-14.184-31.754-31.766-0.011719-17.566 14.246-31.836 31.754-31.836z"/>
 <path d="m909.59 754.69c-80.41 0-145.81-65.438-145.81-145.87h41.461c0 57.562 46.812 104.36 104.35 104.36 57.562 0 104.4-46.789 104.4-104.36h41.484c0 80.438-65.426 145.87-145.88 145.87z"/>
 <path d="m649.5 574.63h-430.18v-41.52h430.18z"/>
</svg>
