<?xml version="1.0" encoding="UTF-8"?>
<svg width="1200pt" height="1200pt" version="1.1" viewBox="0 0 1200 1200" xmlns="http://www.w3.org/2000/svg">
 <path d="m337.82 1081.4h523.62v112.25h-523.62z"/>
 <path d="m370.15 933.65 35.664 110.46h386.93l36.816-111.97c-96.301-106.15-157.75-201.96-157.75-342.77 0-28.703 1.6445-56.891 4.6797-84.48h78.047v-107.04h-58.414c15.059-57.371 36.625-110.63 63.574-158.12h-123.47v-76.379h77.605v-73.883h-77.605v-83.941h-73.895v83.941h-77.605v73.883h77.605v76.379h-120.97c26.965 47.496 48.527 100.75 63.562 158.12h-60.191v107.04h79.836c3.0117 27.59 4.668 55.766 4.668 84.48 0.011719 140.82-62.004 238.16-159.08 344.28z"/>
</svg>
