<?xml version="1.0" encoding="UTF-8"?>
<svg width="1200pt" height="1200pt" version="1.1" viewBox="0 0 1200 1200" xmlns="http://www.w3.org/2000/svg">
 <path d="m458.87 109.8c0.15625 52.715 42.938 95.543 95.797 95.785 52.836-0.23828 95.723-43.066 95.797-95.785-0.070313-53.016-42.961-95.797-95.797-95.723-52.859-0.074219-95.641 42.707-95.797 95.723z"/>
 <path d="m808.88 737.94c-0.011718-21.098-11.746-40.441-30.445-50.195l-211.15-110.24 8.1953-53.004s26.52-154.33-30.336-241.5c-35.484-54.324-66.227-73.488-72.742-77.102-41.867-29.426-109.51-6.0586-109.41 70.223v1.4375l1.7031 859.45c-0.046875 28.414 25.922 51.434 57.984 51.527 32.125 0 58.031-22.969 58.141-51.406l58.586-379.11 156.16 27.539 0.21484 210.94c0.035156 31.273 25.402 56.629 56.699 56.629h0.058594c31.273-0.023437 56.652-25.43 56.629-56.746z"/>
 <path d="m832.08 630.83-21.969-10.836 58.98-119.38 21.969 10.848z"/>
 <path d="m877.49 694.61-11.426-21.699 141.42-74.457 11.398 21.695z"/>
 <path d="m1023.9 769.67h-147.09v-24.527h147.09z"/>
</svg>
