<?xml version="1.0" encoding="UTF-8"?>
<svg width="1200pt" height="1200pt" version="1.1" viewBox="0 0 1200 1200" xmlns="http://www.w3.org/2000/svg">
 <path d="m1176 741.65h-1150.6v-642.35c0-55.559 45.301-75.742 75.742-75.742h999.12c55.57 0 75.758 45.301 75.758 75.742v642.35zm-1095.6-55.008h1040.6v-587.34c-0.625-20.746-15.742-20.746-20.734-20.746l-999.12-0.003907c-20.738 0.625-20.738 15.77-20.738 20.75z"/>
 <path d="m24.035 795.74h81.203v83.844h-81.203z"/>
 <path d="m157.19 795.74h81.203v83.832h-81.203z"/>
 <path d="m293.58 795.74h81.227v83.832h-81.227z"/>
 <path d="m426.76 795.74h81.18v83.832h-81.18z"/>
 <path d="m563.12 795.74h81.227v83.832h-81.227z"/>
 <path d="m696.29 795.74h81.215v83.832h-81.215z"/>
 <path d="m832.68 795.74h81.254v83.832h-81.254z"/>
 <path d="m965.89 795.74h81.215v83.832h-81.215z"/>
 <path d="m1099.1 795.74h81.203v83.832h-81.203z"/>
 <path d="m24.035 934.75h81.203v83.746h-81.203z"/>
 <path d="m157.19 934.75h81.203v83.746h-81.203z"/>
 <path d="m293.58 934.75h81.227v83.746h-81.227z"/>
 <path d="m426.76 934.75h81.18v83.746h-81.18z"/>
 <path d="m563.12 934.75h81.227v83.746h-81.227z"/>
 <path d="m696.29 934.75h81.215v83.746h-81.215z"/>
 <path d="m832.68 934.75h81.254v83.746h-81.254z"/>
 <path d="m965.89 934.75h81.215v83.746h-81.215z"/>
 <path d="m1099.1 934.75h81.203v83.746h-81.203z"/>
 <path d="m24.035 1075h81.203v83.773h-81.203z"/>
 <path d="m157.19 1075h81.203v83.773h-81.203z"/>
 <path d="m293.57 1075h620.35v83.773h-620.35z"/>
 <path d="m965.89 1075h81.203v83.773h-81.203z"/>
 <path d="m1099.1 1075h81.203v83.773h-81.203z"/>
</svg>
