<?xml version="1.0" encoding="UTF-8"?>
<svg width="1200pt" height="1200pt" version="1.1" viewBox="0 0 1200 1200" xmlns="http://www.w3.org/2000/svg">
 <path d="m893.07 797.68c30.695-22.129 37.523-64.969 15.445-95.531-22.02-30.59-64.859-37.465-95.566-15.266-30.59 22.211-37.402 64.945-15.348 95.508 22.137 30.555 64.98 37.465 95.469 15.289z"/>
 <path d="m718.5 616.2c-23.762-18.602-48.926-42.023-130.64-45.66-121.86-5.5312-195.71 76.332-204.64 85.836-28.812 30.84-27.266 79.211 3.5156 108.11 4.5352 4.2344 112.01 95.375 142.16 120.95v258.25c0 24.66 19.992 44.652 44.652 44.652 24.66 0 44.652-19.992 44.652-44.652v-163.48c3.4805 12.926 13.223 23.867 26.941 28.164 4.0195 1.2461 8.0625 1.8359 12.047 1.8359 17.242 0 33.227-11.113 38.617-28.43l71.797-229.88c5.1133-16.355 5.7734-35.746 5.7734-35.746-0.65234-38.855-28.551-79.453-54.879-99.949zm-99.938 341.51c-0.17969 0.58984-0.20312 1.1875-0.34766 1.7539v-89.062c0.25391-15.324-3.3125-30.648-8.4727-38.723l-68.941-100.75s40.105-6.6367 66.156-4.332c26.148 2.3047 53.496 10.547 77.387 19.906z"/>
 <path d="m1062.5 550.62c-7.2344-6.9961-135.1-129.62-289.62-194.35 10.68-107.54-28.691-180.6-30.695-183.76-17.484-27.516-50.426-26.688-50.426-26.688l-15.984-0.058594c-6.8047 11.484-16.008 21.793-27.527 30.109-44.785 32.555-107.64 22.414-140.12-22.441-1.9688-2.7109-3.7422-5.4961-5.3984-8.3164l-12.359-0.046876c-16.141-1.1758-43.992 12.371-52.367 27.445-1.8594 3.3594-43.246 79.754-29.82 191.53-146.21 68.746-255.16 189.25-261.48 196.33-20.27 22.715-18.289 57.527 4.4141 77.832 10.512 9.3945 23.652 14.016 36.742 14.016 15.145 0 30.238-6.2031 41.137-18.348 1.2969-1.4531 93.168-102.71 211.08-162.9 23.496 47.844 51.109 78.434 52.859 80.34 8.4727 9.2031 20.016 13.871 31.609 13.871 10.367 0 20.785-3.7305 29.016-11.316 14.555-13.379 17.578-34.414 8.9414-51.191-17.688-19.453-49.859-61.355-65.062-122.52-10.078-40.633-9.3711-85.094 2.0742-128.61 1.7148-6.4922 8.4258-10.367 14.832-8.6523 6.4922 1.7148 10.355 8.3516 8.6523 14.832-10.414 39.59-11.113 79.895-2.0039 116.58 5.6172 22.609 13.859 42.289 22.715 59.004 18.359-3.793 36.875-6.0352 55.402-6.0352 12.758 0 25.738 1.2109 38.785 3.2031 8.3047-16.129 15.973-34.871 21.277-56.184 9.0977-36.648 8.4102-76.969-2.0039-116.57-1.7031-6.4922 2.1719-13.141 8.6641-14.832 6.4688-1.7148 13.117 2.1719 14.82 8.6523 11.461 43.535 12.168 88.008 2.0742 128.59-15.203 61.199-47.387 103.11-65.09 122.55-8.6406 16.754-5.6055 37.789 8.9531 51.168 8.2422 7.5859 18.648 11.316 29.016 11.316 11.605 0 23.148-4.668 31.609-13.871 1.8359-2.0039 32.387-35.676 56.578-87.938 128.44 57.828 240.35 164.96 241.86 166.43 21.863 21.227 56.797 20.699 78-1.1875 21.234-21.867 20.707-56.789-1.1445-78.004z"/>
 <path d="m635.12 157.71c34.98-25.211 42.77-74.074 17.594-108.9-25.078-34.883-73.945-42.73-108.93-17.426-34.883 25.32-42.672 74.039-17.496 108.89 25.223 34.84 74.051 42.734 108.83 17.438z"/>
</svg>
