<?xml version="1.0" encoding="UTF-8"?>
<svg width="1200pt" height="1200pt" version="1.1" viewBox="0 0 1200 1200" xmlns="http://www.w3.org/2000/svg">
 <path d="m602.64 422.59c-7.6797 0-13.895-6.2266-13.895-13.895-0.003906-7.6719 6.2148-13.898 13.895-13.898 67.934 0 123.18-61.691 123.18-137.51 0-7.6797 6.2383-13.895 13.895-13.895 7.6797 0 13.895 6.2266 13.895 13.895 0.015625 91.152-67.715 165.3-150.97 165.3z"/>
 <path d="m827.68 257.29c0-136.03-100.96-246.71-225.02-246.71-124.09 0-225.05 110.68-225.05 246.71 0 130.48 92.891 237.55 209.96 246.1l-23.184 36.109h29.578v134.29h17.363v-134.3h30.324l-23.207-36.18c116.72-8.9062 209.23-115.81 209.23-246.02zm-225.04 211.97c-104.94 0-190.31-95.09-190.31-211.98 0-116.88 85.367-211.97 190.31-211.97 104.93 0 190.3 95.09 190.3 211.97 0 116.89-85.371 211.98-190.3 211.98z"/>
 <path d="m812.59 936.02h-201.28v-153.75l59.762-14.281 105.55 25.223c-10.465 11.734-16.871 27.133-16.871 44.039 0 36.59 29.762 66.348 66.348 66.348 36.602 0 66.359-29.762 66.359-66.348 0-32.977-24.238-60.336-55.801-65.41l-90.816-21.707 90.742-21.684c31.609-5.0391 55.883-32.426 55.883-65.426 0-36.613-29.762-66.371-66.359-66.371-36.59 0-66.348 29.762-66.348 66.371 0 16.906 6.4062 32.293 16.871 44.039l-105.55 25.211-231.1-55.211-8.0625 33.793 160.67 38.375v1.7773l-160.67 38.387 8.0625 33.781 153.97-36.781v149.62h-197.71l-105.1 252.25h626.52zm13.512-130.37c1.5469 0 3.0234 0.23828 4.5 0.45703l4.3438 1.0312 0.011719-0.085937c13.105 3.8633 22.754 15.852 22.754 30.191 0 17.449-14.184 31.621-31.621 31.621-17.426 0-31.609-14.172-31.609-31.621 0.011719-17.434 14.195-31.594 31.621-31.594zm0-174.27c17.438 0 31.621 14.184 31.621 31.633 0 14.328-9.6602 26.316-22.754 30.18l-0.011718-0.070313-4.4023 1.043c-1.4531 0.21484-2.9141 0.43359-4.4414 0.43359-17.426 0-31.609-14.172-31.609-31.586-0.011718-17.449 14.172-31.633 31.598-31.633z"/>
</svg>
