<?xml version="1.0" encoding="UTF-8"?>
<svg width="1200pt" height="1200pt" version="1.1" viewBox="0 0 1200 1200" xmlns="http://www.w3.org/2000/svg">
 <path d="m524.8 220.98c-54.758-26.578-77.508-92.496-50.914-147.11 26.555-54.73 92.438-77.52 147.19-50.902 54.648 26.555 77.375 92.473 50.797 147.18-26.547 54.637-92.465 77.422-147.07 50.832z"/>
 <path d="m627.45 321.53v117.97l-48.91-139.67c-22.129-64.969-107.81-98.82-157.57-33.562l-163.53 235.33c-40.402 48.254-44.543 115.84 6.0469 152.45l260.69 188.71-105.62 250.75c-12.719 39.203 8.8086 81.289 48.023 93.996 9.6719 3.1445 19.547 4.1758 29.074 3.3945 29.125-2.3867 55.355-21.887 64.922-51.434l122.3-302.34c12.277-35.594-5.8672-64.609-22.273-79.586l-196.41-169.19 36.684-68.449-45.023-128.54c-2.7227-7.7891 1.3906-16.297 9.1797-18.996 7.8125-2.6992 16.309 1.4141 18.996 9.1914l60.516 171.76c4.3789 12.434 12.887 23.004 24.098 29.965l58.812 36.527v57.719h92.914l37.633 23.363c9.5508 5.9023 20.125 8.7344 30.59 8.7344 19.402 0 38.363-9.7188 49.367-27.422 0.9375-1.5 1.5-3.1328 2.2812-4.6797h143.22v-356zm318.17 318.16h-100.27c-3.1445-14.988-12.047-28.715-26.074-37.441l-153.98-95.625v-147.25h280.32v280.32z"/>
</svg>
