<?xml version="1.0" encoding="UTF-8"?>
<svg width="1200pt" height="1200pt" version="1.1" viewBox="0 0 1200 1200" xmlns="http://www.w3.org/2000/svg">
 <path d="m639.56 435.25c-28.703 0-52.043-27.406-52.043-61.105 0-9.6133 1.8359-18.828 5.4844-27.395 1.2344-2.9023 4.5859-4.2227 7.4531-3.0117 2.8906 1.2344 4.2344 4.5703 3.0117 7.4648-3.0469 7.1523-4.5977 14.867-4.5977 22.945 0 27.434 18.254 49.754 40.68 49.754 4.0938 0 8.125-0.74219 11.977-2.1953 2.9531-1.1406 6.2266 0.38281 7.3203 3.3008 1.1172 2.9414-0.37109 6.2266-3.2891 7.332-5.1484 1.9375-10.523 2.9102-15.996 2.9102z"/>
 <path d="m830.77 270.19c-28.715 0-52.055-27.422-52.055-61.105 0-9.6133 1.8359-18.84 5.4961-27.395 1.2461-2.9023 4.5586-4.2344 7.4531-3.0117 2.8906 1.2344 4.2344 4.5586 3.0117 7.4531-3.0586 7.1523-4.5977 14.867-4.5977 22.957 0 27.434 18.254 49.738 40.691 49.738 4.0938 0 8.125-0.74219 11.977-2.1953 2.9414-1.1406 6.2148 0.35938 7.3203 3.3008 1.1055 2.9414-0.37109 6.2266-3.3125 7.3203-5.1367 1.9648-10.5 2.9375-15.984 2.9375z"/>
 <path d="m451.34 332.54c-3.8516 1.4531-7.8828 2.1953-11.988 2.1953-22.43 0-40.68-22.309-40.68-49.738 0-8.0742 1.5352-15.793 4.5977-22.945 1.2227-2.8789-0.12109-6.2266-3.0117-7.4648-2.8789-1.2227-6.2266 0.10938-7.4648 3.0117-3.6367 8.5547-5.4961 17.785-5.4961 27.395 0 33.695 23.34 61.105 52.043 61.105 5.4727 0 10.848-0.98437 16.008-2.9297 2.9297-1.1055 4.4141-4.3906 3.3008-7.332-1.0938-2.9258-4.3789-4.4375-7.3086-3.2969z"/>
 <path d="m623.38 234.66c-52.738 0-95.641-50.387-95.641-112.32s42.898-112.32 95.641-112.32c52.754 0 95.652 50.387 95.652 112.32s-42.898 112.32-95.652 112.32zm0-203.75c-41.219 0-74.746 41.004-74.746 91.43 0 50.426 33.527 91.414 74.746 91.414 41.23 0 74.746-41.004 74.746-91.414 0.003906-50.41-33.512-91.43-74.746-91.43z"/>
 <path d="m624.6 181.27c-28.703 0-52.055-27.422-52.055-61.105 0-9.6133 1.8477-18.828 5.4961-27.395 1.2344-2.9023 4.5859-4.2344 7.4648-3.0117 2.8906 1.2344 4.2344 4.5703 3.0117 7.4648-3.0469 7.1523-4.5977 14.855-4.5977 22.945 0 27.422 18.254 49.738 40.691 49.738 4.0938 0 8.125-0.74219 11.977-2.1953 2.9414-1.1406 6.2266 0.35938 7.3203 3.3008 1.1172 2.9414-0.37109 6.2266-3.3125 7.3203-5.1602 1.9531-10.527 2.9375-15.996 2.9375z"/>
 <path d="m648.8 1116.4h-20.906v-167.15h20.906z"/>
 <path d="m720.74 1200h-20.902v-294.29h20.902z"/>
 <path d="m795.09 1071.8h-20.895v-224.62h20.895z"/>
 <path d="m342.12 778.81c15.406-32.902 1.043-71.953-31.789-87.336-32.832-15.254-71.879-1.0547-87.156 31.848-15.371 32.844-1.1641 71.879 31.656 87.18 32.844 15.289 71.977 1.082 87.289-31.691z"/>
 <path d="m945.25 747.55-105.25-46.211v-378.47c47.844-6.1328 85.211-53.832 85.211-111.62 0-61.934-42.91-112.31-95.652-112.31-52.754 0-95.652 50.387-95.652 112.31 0 57.781 37.355 105.49 85.199 111.62v369.3l-62.566-27.492c-27.539-13.031-54.047-7.5586-77.039 18.863l-30.695 28.645v-224.24c47.82-6.1445 85.188-53.832 85.188-111.61 0-61.945-42.898-112.32-95.652-112.32-52.738 0-95.641 50.375-95.641 112.32 0 57.781 37.367 105.48 85.199 111.61v243.73l-36.289 33.863-143-35.891 0.003906-330.86c47.832-6.1445 85.188-53.832 85.188-111.61 0-61.945-42.898-112.32-95.652-112.32-52.738 0-95.641 50.375-95.641 112.32 0 57.781 37.367 105.48 85.211 111.61v327.43c-51.742-1.6211-74.102 55.754-49.859 91.355l126.01 204.41c5.7227 9.3242 15.637 14.438 25.754 14.438 5.4375 0 10.906-1.4648 15.84-4.5 14.23-8.7617 18.695-27.395 9.9258-41.629l-82.707-134.38 111 26.41c25.754 6.168 53.578-0.74219 72.828-31.391l90.059-115.09s126.59 55.57 168.6 74.93c45.227 20.824 74.723-42.656 30.086-63.215zm-190.44-536.3c0-50.41 33.516-91.414 74.746-91.414 41.219 0 74.746 41.004 74.746 91.414 0 50.426-33.539 91.43-74.746 91.43-41.23 0.011719-74.746-41.004-74.746-91.43zm-191.22 165.09c0-50.426 33.527-91.43 74.746-91.43 41.23 0 74.746 41.004 74.746 91.43 0 50.41-33.527 91.414-74.746 91.414s-74.746-41.004-74.746-91.414zm-200.2-89.16c0-50.426 33.527-91.43 74.746-91.43 41.23 0 74.746 41.004 74.746 91.43 0 50.41-33.516 91.414-74.746 91.414-41.203 0.003906-74.746-41-74.746-91.414z"/>
</svg>
