<?xml version="1.0" encoding="UTF-8"?>
<svg width="1200pt" height="1200pt" version="1.1" viewBox="0 0 1200 1200" xmlns="http://www.w3.org/2000/svg">
 <path d="m1165.2 506.3c-66.816-59.34-196.71-165.43-319.98-186.95-131.26-22.934-230.29 119.54-247.81 137.23-17.496-17.688-116.53-160.16-247.81-137.23-123.25 21.504-253.2 127.61-319.89 186.95-8.832 6.6953-22.078 17.988-20.832 32.605 1.4141 15.973 20.832 14.711 20.832 14.711h1135.5s19.273 1.2617 20.723-14.711c1.3125-14.617-11.961-25.91-20.734-32.605z"/>
 <path d="m1158.7 627.86h-1122.5s-24.695-4.1758-27.301 15.348c-1.8594 13.766 5.207 26.004 16.512 34.391 92.461 68.113 285.84 219.7 570.8 219.7 0.46875 0 0.86328-0.085937 1.2227-0.085937s0.76953 0.085937 1.2461 0.085937c284.86 0 478.43-151.59 570.71-219.7 11.41-8.3867 18.434-20.629 16.57-34.391-2.6211-19.512-27.234-15.348-27.234-15.348z"/>
</svg>
