<?xml version="1.0" encoding="UTF-8"?>
<svg width="1200pt" height="1200pt" version="1.1" viewBox="0 0 1200 1200" xmlns="http://www.w3.org/2000/svg">
 <path d="m702.38 601.02h-82.359v72.43h-47.594v-72.43h-84.336v130.95h214.29z"/>
 <path d="m1105.1 347.52h-128.24v-55.594h-83.383v55.594h-125.93v-102.98c0-48.047-39.117-87.094-87.168-87.094h-169.38c-48.047 0-87.117 39.07-87.117 87.094v102.98h-125.81v-55.594h-83.402v55.594h-121.29c-51.598 0-93.43 41.832-93.43 93.43v665.62c0 51.598 41.832 93.43 93.43 93.43h1011.7c51.594 0 93.43-41.855 93.43-93.453l-0.003907-665.59c0-51.598-41.832-93.43-93.426-93.43zm-973.53 779.43c-33.234 0-60.188-26.953-60.188-60.168v-112.29l172.45 172.45zm-60.188-531.57v-112.29c0-33.238 26.953-60.168 60.191-60.168h112.26zm483.14-41.977v-205.88h-62.07v-102.98c0-10.238 8.332-18.547 18.57-18.547h169.38c10.262 0 18.57 8.332 18.57 18.547v102.98h-61.594v205.88h112.57v225.5h-309.52v-225.5zm567.45 513.38c0 33.238-26.953 60.168-60.168 60.168h-112.29l172.45-172.45zm0-471.4-172.45-172.45h112.29c33.238 0 60.168 26.953 60.168 60.168z"/>
</svg>
