<?xml version="1.0" encoding="UTF-8"?>
<svg width="1200pt" height="1200pt" version="1.1" viewBox="0 0 1200 1200" xmlns="http://www.w3.org/2000/svg">
 <path d="m381.94 729.74c15.684-15.684 35.051-23.629 57.539-23.629 21.852 0 40.883 7.957 56.594 23.629 15.707 15.637 23.652 34.633 23.652 56.594 0 22.559-7.957 41.93-23.652 57.562-15.695 15.637-34.738 23.594-56.594 23.594-22.488 0-41.867-7.957-57.539-23.594-15.707-15.637-23.641-35.004-23.641-57.562-0.011719-21.961 7.9297-40.957 23.641-56.594zm33.707 80.391c6.6484 6.625 14.566 9.9492 23.82 9.9492s17.219-3.3242 23.844-9.9492c6.6016-6.6133 9.8867-14.52 9.8867-23.809 0-9.2031-3.2891-17.184-9.8867-23.809-6.625-6.5625-14.594-9.9492-23.844-9.9492-9.2539 0-17.172 3.3828-23.82 9.9492-6.625 6.625-9.8867 14.617-9.8867 23.809 0 9.2891 3.2617 17.195 9.8867 23.809z"/>
 <path d="m916.81 731.16c15.637-15.324 34.645-23.102 56.531-23.102 22.5 0 41.855 7.7773 57.59 23.102 15.684 15.469 23.652 34.645 23.652 57.086 0 21.898-7.957 40.957-23.652 56.594-15.684 15.719-35.039 23.723-57.59 23.723-21.875 0-40.934-8.0039-56.566-23.676-15.684-15.684-23.629-34.691-23.629-56.641 0-22.441 7.9453-41.68 23.664-57.086zm32.746 81.023c6.5742 6.6133 14.531 9.8164 23.797 9.8164 9.2773 0 17.207-3.2031 23.82-9.8164 6.625-6.6719 9.9102-14.578 9.9102-23.953 0-9.1914-3.2891-17.102-9.9102-23.723-6.6133-6.6133-14.543-9.9961-23.82-9.9961-9.2656 0-17.219 3.3828-23.797 9.9961-6.625 6.625-9.9258 14.531-9.9258 23.723-0.007812 9.375 3.3047 17.281 9.9258 23.953z"/>
 <path d="m1168.2 697.99 0.13281-55.211c0-24.719-1.0195-37.285-27.359-50.258l-166.15-81.047-119.95-181.56-538.2-0.003907s-19.453 0-29.578 8.9141c-9.3125 8.1953-11.746 21.887-11.746 21.887l-31.598 170.07-150.78 0.007813v34.848h144.3l-9.793 52.691h-218.81v34.848h212.34l-8.4375 45.422-31.715 0.14453v46.668c0 16.488 8.293 24.793 24.84 24.793h116.03c0.023437-0.17969 0.046875-0.34766 0.070312-0.52734v-3.1562c2.6523-26.496 15.336-49.391 38.305-68.531 23.82-19.871 50.258-29.723 79.367-29.723 29.137 0 55.391 9.8633 78.898 29.723 23.449 19.848 36.215 43.703 38.172 71.461h299.72c1.9922-27.758 14.879-51.445 38.688-70.992 23.832-19.453 50.293-29.219 79.379-29.219 29.113 0 55.391 9.7695 78.887 29.219 23.449 19.547 36.227 43.223 38.195 70.992h75.781c16.547 0 24.84-8.3047 24.84-24.793v-46.668zm-373.97-137.89h-450.55v-23.23h297.19v-120.41c0-11.363 9.3008-20.664 20.664-20.664h112.03c11.363 0 20.664 9.3008 20.664 20.664zm51.688-61.598v-101.58l71.328 101.58z"/>
</svg>
