<?xml version="1.0" encoding="UTF-8"?>
<svg width="1200pt" height="1200pt" version="1.1" viewBox="0 0 1200 1200" xmlns="http://www.w3.org/2000/svg">
 <path d="m1091.2 113.54c-0.17969 55.703-45.406 100.96-101.26 101.22-55.859-0.27734-101.12-45.516-101.21-101.22 0.085937-56.027 45.348-101.24 101.21-101.16 55.852-0.082031 101.08 45.133 101.26 101.16z"/>
 <path d="m696.68 209.68 0.16797-0.085937c50.219-19.164 77.195-74.34 60.516-126.76-17.23-53.785-74.41-83.555-127.73-66.359-13.68 4.4062-25.766 11.727-35.879 20.824-4.2109 4.1758-26.219 25.211-46.5 30.562-30.012 7.8125-64.906-12.961-64.906-12.961s10.285 55.402 40.871 94.5c76.965 90.648 157.5 67.777 173.46 60.277z"/>
 <path d="m1030.5 246.13-220.08 248.66c-61.691-76.129-186.96-230.64-188.12-231.73-20.52-22.992-36.191-32.902-40.547-35.34-40.801-28.633-116.83-4.9336-106.54 68.398 1.7891 12.77 46.586 164.93-6.2539 326.53-84.59 258.71-451.08 562.04-451.08 562.04h849.07l-173.04-690.49 79.895 98.797c8.9141 11.039 21.973 16.766 35.137 16.766 9.9609 0 23.184-3.8867 33.781-15.215l117.02-132.21c0.28906 33.168 3.5156 56.387 3.5156 56.387l99.91 618.06c0.070312 28.211 25.836 51.035 57.707 51.035 31.883-0.085937 57.625-22.945 57.59-51.133l0.73047-360h0.9375l0.003906-142.64v-352.16c0.11719-75.742-72.723-121.07-149.64-35.746z"/>
</svg>
