<?xml version="1.0" encoding="UTF-8"?>
<svg width="1200pt" height="1200pt" version="1.1" viewBox="0 0 1200 1200" xmlns="http://www.w3.org/2000/svg">
 <path d="m1081.5 1063.5h-232.04s189.95-199.29 196.26-207.39c23.125-29.578 21.215-85.246-2.8789-119.95-28.055-46.992-88.992-112.05-184.25-170.3-1.1172-0.78125-455.63-265.36-455.63-265.36-1.043-0.61328-1.7891-0.78125-2.7461-1.2617-1.5977-0.81641-5.293-2.3633-5.5078-2.4258-21.191-7.7539-45.73-0.83984-59.258 18.527-16.094 23.09-10.43 54.852 12.66 70.934l287.91 200.68c-14.41 15.133-32.352 43.246-32.352 76.754v248.71l-253.73 148.44c-2.3984 1.3906-4.1641 2.7617-5.6406 4.1055-21.168 16.355-27.59 46.117-13.703 69.828 10.055 17.184 28.117 26.746 46.68 26.746 9.2656 0 18.672-2.3867 27.254-7.4141l280.48-164.09c23.258-14.844 26.172-38.773 26.207-38.988l26.113-182.62c14.074 5.8555 29.23 13.355 43.379 22.777 14.914 9.9609 29.711 23.594 42.816 37.008l-149.52 237.04c-6.9375 10.477-22.414 28.812-13.703 67.414 5.5938 24.938 34.211 46.945 57.238 46.945h363.95c32.051 0 58.066-25.945 58.066-58.129 0.003907-32.004-26.012-57.973-58.066-57.973z"/>
 <path d="m587.17 672.61c0 60.793-49.281 110.07-110.07 110.07-60.797 0-110.08-49.281-110.08-110.07s49.281-110.08 110.08-110.08c60.793 0 110.07 49.285 110.07 110.08z"/>
 <path d="m485.68 136.91c-0.097656-1.5977-0.14453-3.2148-0.14453-4.8359 0-65.34-53.148-118.49-118.46-118.49h-141.48c-65.34 0-118.5 53.148-118.5 118.49v1053.5h175.75v-1053.5c0-23.125 9.3711-44.062 24.516-59.305 1.5703 1.7148 3.1328 3.4453 4.7656 5.1719 13.512 14.23 25.176 26.52 25.176 54.133 0 65.328 53.16 118.5 118.51 118.5h112.54v-0.070312c0.48047 0.011719 0.94922 0.070312 1.4297 0.070312 55.367 0 104.09-39.227 115.79-93.289l4.5117-20.797zm-237.11-4.8359v1019.2h-107.21v-57.59h74.363v-35.27l-74.363 0.003906v-57.852h40.633v-35.27h-40.633v-57.863h74.363v-35.281h-74.363v-57.84h40.633v-35.281h-40.633v-57.863h74.363v-35.27h-74.363v-57.84h40.633v-35.27l-40.633 0.003906v-57.875h74.363v-35.281h-74.363v-57.863h40.633v-35.27h-40.633v-57.91h74.363v-35.281h-74.363v-57.852h40.633v-35.281h-40.633v-57.875h74.363v-35.281h-73.848c2.6641-44.051 39-79.176 83.723-79.176h58.199c-21.754 21.492-35.23 51.324-35.23 84.215zm207.24 84.23c-46.453 0-84.254-37.789-84.254-84.227 0-41.281-19.992-62.34-34.586-77.723-0.16797-0.19141-0.32422-0.34766-0.49219-0.53906 9.5039-3.7305 19.777-5.9531 30.574-5.9531 46.43 0 84.203 37.777 84.203 84.215 0 32.93 13.523 62.734 35.281 84.227zm113.96 0c-32.352 0-60.504-18.324-74.617-45.145l149.39-0.32422c-14.254 27.266-42.957 45.469-74.77 45.469z"/>
</svg>
