<?xml version="1.0" encoding="UTF-8"?>
<svg width="1200pt" height="1200pt" version="1.1" viewBox="0 0 1200 1200" xmlns="http://www.w3.org/2000/svg">
 <path d="m726 178.8c0 70.25-56.949 127.2-127.2 127.2s-127.2-56.949-127.2-127.2 56.949-127.2 127.2-127.2 127.2 56.949 127.2 127.2z"/>
 <path d="m726 178.8c0 70.25-56.949 127.2-127.2 127.2s-127.2-56.949-127.2-127.2 56.949-127.2 127.2-127.2 127.2 56.949 127.2 127.2z"/>
 <path d="m565.2 1021.2c108-32.398 182.4-39.602 214.8-42v-90h-600c-69.602 0-127.2 56.398-127.2 127.2 0 69.602 56.398 127.2 127.2 127.2h141.6c45.598-32.398 135.6-89.996 243.6-122.4z"/>
 <path d="m1016.4 889.2h-198v127.2l-19.199-1.1992c-1.1992 0-82.801-2.3984-222 40.801-73.199 21.602-139.2 56.398-186 85.199h626.4c69.602 0 127.2-56.398 127.2-127.2-1.1953-68.398-58.797-124.8-128.4-124.8z"/>
 <path d="m1143.6 753.6h-219.6v-238.8c0-90-72-177.6-177.6-177.6h-294c-103.2 1.1992-175.2 88.801-175.2 177.6v238.8h-219.6c-26.398 0-48 22.801-48 51.602s20.398 51.602 46.801 51.602h326.4v-333.6l39.602-1.1992v333.6h355.2v-333.6h39.602v333.6h326.4c25.199 0 46.801-24 46.801-51.602 0-27.605-21.598-50.402-46.797-50.402z"/>
</svg>
