<?xml version="1.0" encoding="UTF-8"?>
<svg width="1200pt" height="1200pt" version="1.1" viewBox="0 0 1200 1200" xmlns="http://www.w3.org/2000/svg">
 <path d="m1153.5 418.51c-23.449-23.242-51.254-34.871-83.953-34.871-25.188 0-47.473 7.2461-67.043 21.707-19.414 14.363-33.672 32.375-42.457 53.844h-427.38v-126.05h66.047c3.8047 7.668 8.4609 12.422 14.004 14.207 5.8086 1.8008 9.8516 2.8438 12.238 2.8438h313.25c3.5898 0 9.0234-2.375 16.234-7.5703 6.8164-4.8711 10.234-12.684 10.234-22.441 0-10.211-3.4062-17.27-10.234-21.828-7.2109-4.4766-13.02-6.6484-18.012-6.6484h-311.46c-8.7617 0-14.809 1.7891-17.785 5.5938-3.2148 3.793-6.0469 7.0195-8.4609 9.6367h-175.36c-2.6055-5.1953-6.2031-9.168-10.598-12.457-4.4766-2.9766-13.414-4.7891-27.277-4.7891h-296.39c-11.195 0-19.246 3.2266-24.469 9.6367-4.9766 6.1914-7.3555 12.445-7.3555 18.863 1.1641 7.5859 4.3789 14.207 9.3828 19.801 5.0039 5.5664 12.434 8.4258 22.441 8.4258h307.8c3.7812 0 8.1719-0.83984 13.043-2.8555 4.9922-1.8125 9.6133-5.7969 13.414-12.203h64.078l0.003906 127.88h-218.88c-31.488 0-61.332 7.6211-89.555 23.605-28.477 15.637-51.504 43.656-68.914 83.734l-54.652 130.33c-6.1914 17.688-9.6367 31.812-9.6367 43.297 0 16.621 3.875 28.957 11.484 37.836 8.7969 11.426 19.801 18.156 33.012 20.797 13.031 2.4375 26.641 3.6367 40.441 3.6367h144.46v77.461h-170.09l-63.238-64.547c-7.2109-6.7422-18.48-6.7422-25.633 0-7.0781 7.2734-7.0781 18.672 0.023437 25.703l67.008 67.656c3 4.2461 7.6211 7.2344 13.262 7.2344h608.81c10.066 0 18.254-8.0625 18.254-18.023 0-9.9727-8.1953-18.047-18.254-18.047l-234.09-0.003906v-77.426l147.27 0.003906c26.473 0 43.922-4.6445 52.094-14.051 8.1953-9.6719 14.832-19.273 19.824-29.496l33.91-84.707 256.7-96.301c21.254 27.852 50.867 41.664 88.5 41.664 32.699 0 60.504-11.184 83.953-34.043 23.352-22.633 34.848-50.281 34.848-82.934 0-32.844-11.496-60.828-34.848-84.109zm-928.36 285.36-120.73 0.14453c3.7812-10.188 32.148-85.246 35.785-93.816 3.793-8.7734 7.0078-17.074 9.3945-24.648 10.188-22.633 21.238-39.266 33.238-50.062 11.844-10.559 26.027-18.602 42.277-23.398h0.035157zm216.26 176.08h-136.2v-77.461h136.2zm164.36-218.83h-69.492v69.48h-69.48v-69.48h-69.469v-69.48h69.469v-69.48h69.48v69.48h69.492zm518.64-104.77c-15.168 14.375-33.406 21.59-54.863 21.59-16.188 0-31.465-4.9922-45.445-15.023l37.836-15.227c10.199-3.5742 20.051-8.6172 29.281-14.797 9.3945-6.4336 14.016-16.414 14.016-30.266 0-13.98-4.2461-24.625-13.055-32.016-8.7969-7.8242-19.598-11.398-32.051-11.398h-52.859c15.254-21.48 35.902-32.039 62.27-32.039 21.457 0 39.707 7.1641 54.863 21.613 15.035 14.461 22.414 32.258 22.414 53.844 0.011719 21.465-7.3203 39.258-22.406 53.719z"/>
</svg>
