<?xml version="1.0" encoding="UTF-8"?>
<svg width="1200pt" height="1200pt" version="1.1" viewBox="0 0 1200 1200" xmlns="http://www.w3.org/2000/svg">
 <path d="m683.53 514.89 84.578-75.66 54.93 61.406-84.578 75.66z"/>
 <path d="m980.29 311.26-174.39-173.23c-44.867-42.023-96.48-5.4258-96.48 44.855l-0.22656 150.07-132.02 115.37-39.348-19.066-13.848 28.57 38.953 18.887c-0.53906 9.9258 2.6055 20.051 9.6602 28.129 7.8008 8.9531 18.77 13.5 29.785 13.5 4.6094 0 9.2266-0.80469 13.609-2.4102l-240.47 211.8c-3.3125-2.6172-7.1992-4.6094-11.617-5.4961-15-3.0117-29.652 6.8164-32.688 21.973-0.39453 1.9922-0.53906 3.9844-0.50391 5.9414v29.004h-101.55v35.281h259.4v-35.281h-100.03v-29.711l396.74-349.48-14.281-16.043 3.7305-3.2539c7.3438-6.4336 12.949-14.723 12.949-24.961v-123.87h17.699v141.47l54.672 55.848v365.45c0 18.445 6.4219 33.852 19.246 46.344 12.816 12.383 28.441 18.613 46.895 18.613 17.641 0 32.891-6.2266 45.707-18.613 12.805-12.492 19.234-27.898 19.234-46.344l0.007812-456.88c-0.011718-10.438-3.5898-19.234-10.836-26.469z"/>
 <path d="m290.44 712.61-77.738-59.34 11.246-14.715 77.734 59.316z"/>
 <path d="m362.8 671.68h-18.539v-93.754h18.539z"/>
 <path d="m617.26 174.2c-44.594-8.9141-73.586-52.812-64.586-97.883 9.0703-45.168 52.691-74.387 97.309-65.438 44.664 8.9531 73.535 52.645 64.488 97.824-8.9883 45.062-52.535 74.438-97.211 65.496"/>
 <path d="m62.543 868.69v319.31h1063.7v-319.31zm360.98 194.58-47.281-13.332 4.9219 48.852-27.66-40.586-27.637 40.586 4.9219-48.852-47.281 13.332 35.172-34.285-44.762-20.172 48.973-3.6602-21.336-44.242 39.863 28.703 12.098-47.617 12.109 47.617 39.863-28.703-21.336 44.242 48.984 3.6602-44.773 20.172z"/>
</svg>
