<?xml version="1.0" encoding="UTF-8"?>
<svg width="1200pt" height="1200pt" version="1.1" viewBox="0 0 1200 1200" xmlns="http://www.w3.org/2000/svg">
 <path d="m407.29 619.25-121.12-120.14c-21.742-21.551-21.91-56.688-0.3125-78.422 21.516-21.695 56.688-21.84 78.395-0.28906l121.09 120.13c21.719 21.551 21.887 56.688 0.35938 78.434-21.562 21.742-56.699 21.828-78.418 0.28516z"/>
 <path d="m311.29 716-139.32-138.21c-21.742-21.551-21.863-56.664-0.28906-78.434 21.527-21.672 56.664-21.887 78.406-0.28906l139.32 138.18c21.719 21.574 21.84 56.723 0.35938 78.395-21.598 21.809-56.758 21.902-78.477 0.36328z"/>
 <path d="m215.33 812.73-84.742-84.07c-21.742-21.562-21.91-56.641-0.33594-78.383 21.551-21.742 56.699-21.887 78.434-0.32422l84.742 84.086c21.719 21.551 21.887 56.699 0.3125 78.422-21.555 21.738-56.652 21.824-78.41 0.26953z"/>
 <path d="m272.86 871.02 111.28 110.36s34.633 30.203 72.109 40.957c33.574 9.6133 72.406-4.332 72.406-4.332l171.72 170.33h467.02l-408.64-393.66 10.043-179.55c0.48047-8.6172-1.0781-17.137-4.5352-25.031-75.109-170.15-75.086-170.1-102.02-175.05l-166.33-35.148c-29.496-6.2266-58.414 12.613-64.633 42.07-6.2031 29.426 12.637 58.367 42.07 64.598l100.19 21.145c-48.949 71.844-117.82 195.53-89.09 289.87 35.617 116.94 102.78 144.64 102.78 144.64l-21.816 21.949s-59.629-39.504-89.543-100.46c-37.332-75.898-35.387-161.62-35.387-161.62z"/>
 <path d="m120.25 754.04-110.14 120.01 93.957 93.961 120.84-110.16z"/>
 <path d="m916.97 63.742c-59.102-59.086-151.04-64.941-216.88-17.879l234.77 234.77c47.074-65.809 41.242-157.79-17.895-216.89z"/>
 <path d="m630.91 200.75-137.84 149.36 234.39 48.492 55.5-48.348c42.742 3.7578 86.617-8.2578 121.66-37.043l-237.12-237.07c-29.426 35.855-41.242 80.938-36.59 124.62z"/>
</svg>
