<?xml version="1.0" encoding="UTF-8"?>
<svg width="1200pt" height="1200pt" version="1.1" viewBox="0 0 1200 1200" xmlns="http://www.w3.org/2000/svg">
 <path d="m160.59 896.07-137.58-91.582-16.176 24.469 137.58 91.512z"/>
 <path d="m314.95 968.95c45.277-36.238 77.699-84.266 77.699-133.81 0-83.426-52.512-141.09-136.84-154.49l87.07-133.16-65.004-43.645-189.49 289.8 64.98 43.656 66.422-101.54c44.305 0.60156 114.8 14.82 114.8 99.383 0 60.781-101.38 136.12-181.36 133.81h-130.24v67.262h388.22v-67.262z"/>
 <path d="m478.59 541.73c-102.27 0-185.4-83.125-185.4-185.39 0-102.59 83.137-185.71 185.4-185.71 102.71 0 185.71 83.074 185.71 185.71-0.011719 102.27-83.066 185.39-185.71 185.39z"/>
 <path d="m1190.4 1034.8s-306.93-633.59-571.6-474.57c-176.84 106.23-122.38 474.57-122.38 474.57z"/>
</svg>
