<?xml version="1.0" encoding="UTF-8"?>
<svg width="1200pt" height="1200pt" version="1.1" viewBox="0 0 1200 1200" xmlns="http://www.w3.org/2000/svg">
 <path d="m601.97 295.15c12.637 0 26.027-0.30078 38.23 1.2969l11.148-75.012c-17.172-2.4844-34.598-4.2227-52.465-4.2227-70.055 0-137.65 22.488-194.84 58.609l43.43 65.148c44.484-28.875 97.477-45.82 154.5-45.82z"/>
 <path d="m918.02 771.1c28.367-59.242 44.629-126.84 44.629-190.03 0-71.988-20.953-139.04-57.023-195.5l-63.539 39.672c20.074 30.359 33.18 64.008 39.648 100.49l-180.59-20.844 27.875-160.13-97.477 104.43-104.44-118.34 41.773 174.05-160.13-69.637 111.39 111.41-153.17 55.68h167.09l-134.35 177.5c-50.879-51.395-82.309-122.07-82.309-200.12 0-79.5 32.676-151.31 85.246-202.93l-58.055-54.816c-47.172 44.438-81.445 98.941-94.586 155.75-7.0312 30.336-14.977 109.62-14.977 109.62l-98.676 207.56c-1.5117 3.3945-2.2422 7.3438-2.2422 11.352 0 16.188 13.031 29.293 29.27 29.293h71.641v85.453c0 109.49 64.141 143.55 143.38 143.55h48.637v133.88h396.5v-303.7c22.309-17.566 42.457-39.684 60.133-64.738l-67.441-63.457c-52.164 59.746-128.71 97.703-214.27 97.703-73.957 0-141.32-28.223-191.91-74.484l200.62-145.67v187.95l69.613-201.86 139.22 62.664-76.586-104.43 138.86-62.496c3.0352 17.316 4.7539 35.207 4.7539 53.773 0 54.121-15.395 104.48-41.605 147.54z"/>
 <path d="m293.48 290.41-80.125-72.656 18.242-20.113 80.121 72.672z"/>
 <path d="m740.17 182.17-25.918-8.1484 28.703-91.379 25.895 8.125z"/>
 <path d="m961.98 365.63-13.559-23.531 172.3-99.195 13.539 23.535z"/>
 <path d="m1010 876.64-88.762-62.676 15.656-22.164 88.777 62.664z"/>
 <path d="m359.16 257.03-140.96-208.84 22.512-15.191 140.96 208.85z"/>
 <path d="m430.85 202.11-52.223-135.75 25.344-9.7539 52.223 135.75z"/>
 <path d="m917.45 316.8-18.492-19.859 78.312-73.082 18.504 19.848z"/>
 <path d="m668.24 177.98-26.949-3.2773 20.902-172.3 26.941 3.2656z"/>
 <path d="m841.05 246.74-22.332-15.465 93.996-135.75 22.309 15.445z"/>
 <path d="m1109.3 772.25-125.32-41.758 8.6016-25.754 125.3 41.785z"/>
 <path d="m812.84 389.55 57.637-49.777c-43.211-48.684-98.988-85.969-162.66-105.91l-22.402 69.551c53.324 14.512 91.473 46.348 127.43 86.137z"/>
 <path d="m1160.7 593.54h-150.62v-27.145h150.62z"/>
</svg>
