<?xml version="1.0" encoding="UTF-8"?>
<svg width="1200pt" height="1200pt" version="1.1" viewBox="0 0 1200 1200" xmlns="http://www.w3.org/2000/svg">
 <path d="m298.67 440.33c0 17.812-14.441 32.258-32.258 32.258-17.812 0-32.254-14.445-32.254-32.258 0-17.816 14.441-32.258 32.254-32.258 17.816 0 32.258 14.441 32.258 32.258z"/>
 <path d="m93.695 592.14c-15.457 0-30.91-4.8477-44.953-14.34-19.223-12.961-33.539-33.133-40.332-56.867-8.7461-30.492-7.2344-57.48 4.3672-78.035 9.9961-17.699 26.617-29.785 49.367-35.93 35.496-9.5742 72.121 13.766 83.398 53.113 2.9414 10.273-3 20.988-13.262 23.941-10.309 2.9414-20.988-3-23.93-13.262-5.3047-18.504-21.516-30.324-36.121-26.41-12.551 3.3828-20.977 9.1445-25.754 17.594-6.3008 11.16-6.6133 28.332-0.86328 48.359 4.2852 14.988 13.078 27.551 24.73 35.398 10.621 7.1641 22.367 9.4062 33.07 6.3594 10.273-2.9531 20.988 2.9883 23.93 13.273 2.9414 10.262-3 21.012-13.273 23.965-6.707 1.8906-13.547 2.8398-20.375 2.8398z"/>
 <path d="m1116.7 70.488c-3.8164-0.33594-7.7148-0.42188-11.594-0.58984-2.9648-0.085938-5.8438-0.44531-8.8203-0.44531-0.33594 0-0.69531 0.023437-1.043 0.023437h-0.097656c-0.097656 0-0.22656 0.011719-0.3125 0.011719-6.2148 0.046875-12.383 0.35938-18.527 0.85156-124.96 8.8438-236.83 103.8-260.99 208.05-5.6406 24.336-12 87.926-12 87.926l-74.41 153.49c-1.2109 2.7344-1.7891 5.8906-1.7891 9.1328 0 12.973 10.465 23.508 23.473 23.508h52.738v81.625c0 63.602 51.422 115.11 115 115.11h45.707v80.328c-54.059 27.707-119.43 68.629-176.59 125.52-111.05 110.55-150.96 214.21-150.96 214.21h562.66v-1080.8c-25.922-9.7422-53.582-15.957-82.434-17.961zm-230.75 355.92c-17.988 0-32.594-14.578-32.594-32.594 0-18 14.605-32.578 32.594-32.578 18.012 0 32.605 14.578 32.605 32.578 0 18.016-14.594 32.594-32.605 32.594z"/>
 <path d="m595.36 59.809h-567.59v95.062c11.605-1.5234 23.34-2.6289 35.363-2.6289 124.46 0 239.21 76.691 263.05 179.61 5.293 22.871 11.281 82.645 11.281 82.645l70.246 144.29c1.1406 2.543 1.6914 5.5547 1.6914 8.5781 0 12.203-9.8398 22.117-22.066 22.117h-49.859v76.715c0 59.785-48.348 108.2-108.09 108.2h-42.973v75.504c50.797 26.016 112.26 64.512 166 118.01 43.871 43.656 75.793 86.09 98.23 120.72h-423.62v81.191l568.34-0.5625 0.007813-1109.4z"/>
</svg>
