<?xml version="1.0" encoding="UTF-8"?>
<svg width="1200pt" height="1200pt" version="1.1" viewBox="0 0 1200 1200" xmlns="http://www.w3.org/2000/svg">
 <path d="m1191.3 688.14c0 84.586-68.57 153.16-153.16 153.16-84.586 0-153.16-68.57-153.16-153.16s68.57-153.16 153.16-153.16c84.586 0 153.16 68.57 153.16 153.16z"/>
 <path d="m921.95 500.14c-10.008 0-19.285-4.7539-25.297-12.77-10.031-14.016-7.0312-33.574 7.0195-43.609 13.02-9.7578 33.059-6.7578 43.105 6.0234 0.23828 0.23828 0.48047 0.50391 0.48047 0.75781 10.273 14.016 7.0312 33.574-6.7422 43.609-5.5234 3.9844-11.777 5.9883-18.566 5.9883z"/>
 <path d="m851.03 416.96c-8.5195 0-16.273-3.2539-22.285-9.2773-5.7734-6.0234-9.0352-13.777-9.0352-22.32 0-8.2578 3.2539-16.273 9.2773-22.043 11.762-11.773 32.316-11.773 44.363 0.26562 12.012 12.254 12.012 32.051-0.26562 44.102-5.9961 6.0078-13.785 9.2734-22.055 9.2734z"/>
 <path d="m768.34 345.28c-6.7578 0-13.285-2.2578-18.793-6.2656-6.7422-5.0156-11.039-12.277-12.277-20.555-1.2461-8.2695 0.99609-16.512 6.0117-23.293 9.7695-13.285 30.324-16.297 43.859-6.5039 13.766 10.273 16.535 30.07 6.2539 43.848-6.0117 7.9922-15.023 12.77-25.055 12.77z"/>
 <path d="m675.85 286.4c-5.2578 0-10.246-1.2734-14.773-3.7695-7.5117-4.0078-12.77-10.523-15.266-18.539-2.2578-8.0039-1.5234-16.547 2.4961-23.809 7.7773-14.785 27.551-20.773 42.359-12.77 15.266 8.2695 21.035 27.312 12.77 42.359-5.5039 10.254-16.031 16.527-27.586 16.527z"/>
 <path d="m575.89 241.54c-3.7695 0-7.2734-0.51562-10.789-1.7656-7.7539-3.0117-14.016-8.7617-17.52-16.297-3.5273-7.7539-4.0078-16.273-1.0078-24.059 5.7461-15.781 24.301-24.539 40.332-18.527 7.7891 2.7461 14.051 8.5195 17.543 16.031 3.5039 7.7539 3.7695 16.297 0.99609 24.059-4.7617 12.293-16.535 20.559-29.555 20.559z"/>
 <path d="m38.113 232.75c-13.523 0-25.32-8.5195-29.578-21.289-2.7461-7.7773-2.2578-16.297 1.5117-23.809 3.7422-7.5117 10.008-13.285 18.035-15.781 16.031-5.5078 34.332 3.5039 39.84 19.547 5.2578 16.273-3.5039 34.066-19.789 39.84-3.2656 1-6.5156 1.4922-10.02 1.4922z"/>
 <path d="m470.88 210.95c-2.2578 0-4.7539-0.25391-6.7578-0.73047-16.789-3.7695-27.574-20.316-23.809-37.344 3.5039-16.535 20.555-27.551 37.066-23.809 8.2695 1.7539 15.289 6.5039 19.801 13.777 4.5234 7.0195 6.0117 15.289 4.2617 23.566-3.25 14.289-16.031 24.539-30.562 24.539z"/>
 <path d="m144.1 205.2c-15.023 0-28.066-10.766-30.805-25.57-1.5117-8.2695 0.25391-16.512 4.9922-23.543 4.7656-7.0195 11.797-11.52 20.062-13.043 1.7383-0.49219 3.7422-0.73047 5.7461-0.73047 15.047 0 28.066 10.766 30.84 25.789 3.2539 16.789-8.0273 33.324-25.055 36.59-2.0156 0.26953-3.7656 0.50781-5.7812 0.50781z"/>
 <path d="m362.36 194.44h-2.7461c-8.2695-0.75781-15.805-4.7656-21.07-11.039-5.4961-6.5039-8.0039-14.531-7.2617-22.801 1.2734-16.031 15.047-28.801 31.078-28.801 0.25391 0 2.5195 0.25391 2.7617 0.25391 17.027 1.4883 30.07 16.535 28.559 33.816-1.4883 16.281-14.773 28.57-31.32 28.57z"/>
 <path d="m252.85 192.42c-16.789 0-30.562-13.043-31.32-29.832-0.73047-17.27 12.793-32.074 29.832-32.82h0.25391c18.035 0 31.836 13.02 32.566 29.809 0.51562 8.2695-2.4961 16.297-8.0039 22.559-5.7734 6.2656-13.523 9.7695-21.805 10.273l-1.5234-0.003906z"/>
 <path d="m653.03 537.68-84.383 447.07h-227.3l-84.371-447.07h-83.461l99.898 529.07h363.17l99.902-529.07z"/>
</svg>
