<?xml version="1.0" encoding="UTF-8"?>
<svg width="1200pt" height="1200pt" version="1.1" viewBox="0 0 1200 1200" xmlns="http://www.w3.org/2000/svg">
 <path d="m1142.2 290.98c-7.7031-24.695-30.254-41.27-56.125-41.27-5.9531 0-11.855 0.89844-17.566 2.6875l-80.926 25.297v-190.36c0-46.895-29.137-74.219-73.402-74.219h-374.91c-45.18 0-76.906 26.484-76.906 74.219v364.14c-40.992 17.82-69.59 30.445-75.719 33.562-49.477 25.211-86.809 83.09-95.219 106.43-10.277 23.305-240.86 597.46-240.86 597.46h477.97s115.77-48.539 177.37-115.77c25.957-28.309 46.691-66.672 61.055-98.34h150.94c39.73 0 69.684-25.609 69.684-76.691v-43.414h51.215c32.438 0 58.812-26.375 58.812-58.801 0-32.438-26.387-58.801-58.812-58.801h-51.215v-19.621h52.621c32.438 0 58.812-26.387 58.812-58.801 0-32.438-26.387-58.824-58.812-58.824h-52.621v-19.598h52.621c32.438 0 58.812-26.387 58.812-58.812 0-32.438-26.387-58.812-58.812-58.812h-52.621v-61.727l116.05-36.266c14.977-4.6562 27.266-14.914 34.559-28.848 7.2617-13.906 8.6758-29.828 3.9961-44.828zm-207.45 619.36h-328.07c-1.957 12.422-4.3203 25.129-7.7383 38.27-21.828 83.832-93.695 131.1-96.758 133.08-2.8086 1.8359-5.9883 2.6992-9.0977 2.6992-5.4844 0-10.895-2.6992-14.125-7.668-5.0391-7.8125-2.8086-18.18 4.9922-23.258 0.625-0.38281 63.875-42.457 82.477-113.35 19.777-75.359 9.8984-142.15 9.8047-142.82-0.20312-1.4297-0.16797-2.7852-0.011719-4.1641h191.32c39.227 0 78.422-23.605 78.422-70.008 0-46.391-34.547-75.625-78.422-75.625l-324.86 0.003906v-33.613h72.348v-540.71h88.43c0.3125 21.469 13.836 33.457 33.156 33.457h176.76c18.938 0 31.367-12.348 31.656-33.457h89.723z"/>
 <path d="m651.04 334.61c0 21.191-17.184 38.363-38.363 38.363s-38.363-17.172-38.363-38.363c0-21.18 17.172-38.363 38.363-38.363 21.18 0.011718 38.363 17.184 38.363 38.363z"/>
 <path d="m763.38 334.61c0 21.191-17.172 38.363-38.363 38.363-21.18 0-38.363-17.172-38.363-38.363 0-21.18 17.172-38.363 38.363-38.363 21.18 0.011718 38.363 17.184 38.363 38.363z"/>
 <path d="m875.73 334.61c0 21.191-17.172 38.363-38.363 38.363-21.18 0-38.363-17.172-38.363-38.363 0-21.18 17.172-38.363 38.363-38.363 21.18 0.011718 38.363 17.184 38.363 38.363z"/>
 <path d="m651.04 441.48c0 21.191-17.184 38.363-38.363 38.363s-38.363-17.172-38.363-38.363c0-21.191 17.172-38.363 38.363-38.363 21.18 0.011718 38.363 17.172 38.363 38.363z"/>
 <path d="m763.38 441.48c0 21.191-17.172 38.363-38.363 38.363-21.18 0-38.363-17.172-38.363-38.363 0-21.191 17.172-38.363 38.363-38.363 21.18 0.011718 38.363 17.172 38.363 38.363z"/>
 <path d="m875.73 441.48c0 21.191-17.172 38.363-38.363 38.363-21.18 0-38.363-17.172-38.363-38.363 0-21.191 17.172-38.363 38.363-38.363 21.18 0.011718 38.363 17.172 38.363 38.363z"/>
 <path d="m651.04 548.35c0 21.18-17.184 38.363-38.363 38.363s-38.363-17.184-38.363-38.363c0-21.18 17.172-38.363 38.363-38.363 21.18 0 38.363 17.184 38.363 38.363z"/>
 <path d="m763.38 548.35c0 21.18-17.172 38.363-38.363 38.363-21.18 0-38.363-17.184-38.363-38.363 0-21.18 17.172-38.363 38.363-38.363 21.18 0 38.363 17.184 38.363 38.363z"/>
 <path d="m875.73 548.35c0 21.18-17.172 38.363-38.363 38.363-21.18 0-38.363-17.184-38.363-38.363 0-21.18 17.172-38.363 38.363-38.363 21.18 0 38.363 17.184 38.363 38.363z"/>
</svg>
