<?xml version="1.0" encoding="UTF-8"?>
<svg width="1200pt" height="1200pt" version="1.1" viewBox="0 0 1200 1200" xmlns="http://www.w3.org/2000/svg">
 <path d="m607.88 582.98c73.234 0 132.76 59.461 132.76 132.74 0 73.309-59.496 132.55-132.76 132.55-73.152 0-132.54-59.258-132.54-132.55 0-73.293 59.387-132.74 132.54-132.74z"/>
 <path d="m607.77 368.3c-194.39 0-352.55 158.35-352.55 353 0 13.414 10.871 24.266 24.289 24.266 13.414 0 24.277-10.848 24.277-24.266 0-33.035 5.4492-64.789 15.227-94.633l81.191 30.66c1.4297 0.51562 2.8672 0.78125 4.2969 0.78125 4.9062 0 9.5391-2.9883 11.363-7.8359 2.375-6.2891-0.80469-13.285-7.0664-15.66l-81.445-30.742c18.852-44.988 48.238-84.445 84.996-115.45l51.863 66.742c2.3984 3.0859 5.9883 4.7031 9.5742 4.7031 2.6172 0 5.2422-0.83984 7.4531-2.5664 5.293-4.1055 6.2656-11.746 2.1367-17.027l-51.793-66.625c45.938-32.867 101.29-53.09 161.2-56.039v80.965c0 6.7188 5.4258 12.145 12.145 12.145 6.707 0 12.145-5.4375 12.145-12.145v-81.238c62.555 1.8945 120.34 22.668 167.94 56.914l-52.246 66.121c-4.1641 5.2695-3.2539 12.898 1.9922 17.074 2.2422 1.7539 4.8828 2.6172 7.5352 2.6172 3.5898 0 7.1523-1.5859 9.5273-4.6094l52.453-66.324c31.68 26.855 57.648 60.109 76.234 97.703l-76.691 35.496c-6.0977 2.8203-8.7344 10.031-5.9297 16.129 2.0625 4.4297 6.457 7.043 11.027 7.043 1.7031 0 3.4336-0.35938 5.0898-1.1289l76.477-35.398c13.906 34.777 21.77 72.648 21.77 112.32 0 13.414 10.848 24.266 24.277 24.266 13.414 0 24.266-10.848 24.266-24.266-0.007812-194.64-158.38-352.99-353.02-352.99z"/>
 <path d="m414.91 1188.3 0.023438-125.64h32.062v125.64h321.79v-125.64h31.98l0.070313 125.64h108.91v-164.52c0-89.496-64.141-140.22-151.8-140.22l-300.07-0.003906c-87.742 0-151.78 50.723-151.78 140.22v164.52z"/>
 <path d="m568.07 110.26c12.926 0 23.387 10.488 23.387 23.363 0 12.938-10.465 23.363-23.387 23.363-12.852 0-23.281-10.43-23.281-23.363-0.007812-12.879 10.43-23.363 23.281-23.363z"/>
 <path d="m636.06 110.26c12.949 0 23.375 10.488 23.375 23.363 0 12.938-10.43 23.363-23.375 23.363-12.875 0-23.281-10.43-23.281-23.363-0.007813-12.879 10.406-23.363 23.281-23.363z"/>
 <path d="m974.9 252.27c12.887 0 23.363 10.453 23.363 23.328 0 12.926-10.477 23.363-23.363 23.363-12.875 0-23.34-10.441-23.34-23.363 0-12.867 10.465-23.328 23.34-23.328z"/>
 <path d="m1042.9 252.27c12.91 0 23.375 10.453 23.375 23.328 0 12.926-10.465 23.363-23.375 23.363-12.887 0-23.305-10.441-23.305-23.363 0-12.867 10.418-23.328 23.305-23.328z"/>
 <path d="m166.96 252.27c12.875 0 23.352 10.453 23.352 23.328 0 12.926-10.477 23.363-23.352 23.363-12.898 0-23.363-10.441-23.363-23.363 0-12.867 10.449-23.328 23.363-23.328z"/>
 <path d="m234.89 252.27c12.898 0 23.363 10.453 23.363 23.328 0 12.926-10.465 23.363-23.363 23.363-12.898 0-23.34-10.441-23.34-23.363 0-12.867 10.441-23.328 23.34-23.328z"/>
 <path d="m1008.9 470.43c-82.512 0-149.65-67.164-149.65-149.69 0-82.535 67.141-149.7 149.65-149.7 82.547 0 149.71 67.164 149.71 149.7 0 82.523-67.164 149.69-149.71 149.69zm0-263.76c-62.867 0-114.02 51.18-114.02 114.07s51.156 114.06 114.02 114.06c62.914 0 114.09-51.168 114.09-114.06s-51.168-114.07-114.09-114.07z"/>
 <path d="m1008.9 396.57c-41.809 0-75.84-34.031-75.84-75.84h25.801c0 27.574 22.453 50.039 50.039 50.039 27.625 0 50.074-22.465 50.074-50.039h25.801c0.003906 41.809-34.02 75.84-75.875 75.84z"/>
 <path d="m200.9 470.43c-82.523 0-149.66-67.164-149.66-149.69 0-82.535 67.141-149.7 149.66-149.7 82.547 0 149.71 67.164 149.71 149.7 0.003907 82.523-67.148 149.69-149.71 149.69zm0-263.76c-62.891 0-114.05 51.18-114.05 114.07s51.156 114.06 114.05 114.06c62.914 0 114.1-51.168 114.1-114.06s-51.18-114.07-114.1-114.07z"/>
 <path d="m276.77 385.52h-25.801c0-19.801-22.465-35.93-50.039-35.93-27.133 0-50.062 16.453-50.062 35.93h-25.801c0-34.031 34.031-61.738 75.863-61.738 41.805 0 75.84 27.707 75.84 61.738z"/>
 <path d="m602.05 317.7c-82.5 0-149.64-67.164-149.64-149.71 0-82.523 67.141-149.66 149.64-149.66 82.547 0 149.73 67.141 149.73 149.66-0.007812 82.547-67.184 149.71-149.73 149.71zm0-263.76c-62.867 0-114.02 51.156-114.02 114.05 0 62.914 51.156 114.1 114.02 114.1 62.914 0 114.12-51.18 114.12-114.1 0-62.891-51.203-114.05-114.12-114.05z"/>
 <path d="m640.41 223.74h-74.242v-25.809h74.242z"/>
</svg>
