<?xml version="1.0" encoding="UTF-8"?>
<svg width="1200pt" height="1200pt" version="1.1" viewBox="0 0 1200 1200" xmlns="http://www.w3.org/2000/svg">
 <path d="m816.66 1090.9c-2.3281 0.9375-4.7773 1.3672-7.1992 1.3672-7.8945 0-15.359-4.7656-18.422-12.59-3.9961-10.176 0.98438-21.66 11.207-25.656l259.03-103.67c56.195-24.191 71.258-70.801 59.293-109.36l0.10938-0.035156-105.66-318.46c-17.832-53.496-59.352-140.84-148.64-176.33-42.602 46.117-103.37 75.145-171.06 75.145-75.215 0-141.86-35.746-184.48-91.031h-22.453c-112.19 0.98438-169.38 33.949-217.74 117.52l-140.82 348.91c-24.133 37.691-19.801 94.801 37.246 133.29l104.33 67.105-68.938 202.92h888.53l-72.562-188.26zm-128.59-289.73 0.37109-0.10938s36.254 46.078 36.504 79.477c0.058594 10.211-1.9688 16.152-4.1875 20.305l-71.184 30.109-171.34 71.016c-11.305 4.8125-20.438 10.824-28.547 17.23-17.914-9.1914-32.496-24.984-39.203-45.254-9.2266-27.996 2.9531-59.281 3.5391-61.559 8.3984-30.672 18.742-65.484 27.023-96.156-32.809-6.8398-65.711-13.656-98.496-20.566-50.113-10.355-35.711-83.785 14.484-73.32 48.77 10.141 95.773 18.852 144.48 29.027 10.176 2.0508 20.953 6.2656 26.723 11.867 11.258 10.992 15.719 26.496 10.141 46.824-3.6016 13.176-7.2109 26.375-10.766 39.527 22.344-7.4023 58.094-18.59 84.156-26.664-10.969-30.191-19.453-66.18-15.672-102.14 10.453-98.062 90.973-139 94.379-140.72 19.598-9.7422 43.32-1.7031 53.062 17.902 9.707 19.598 1.7148 43.344-17.879 53.062-1.4883 0.74219-45.086 24.145-50.809 78.109-2.4297 22.863 4.3594 49.191 13.215 72.039zm49.395 1.2578c-19.992-60.457 12.887-125.68 73.246-145.6 60.469-19.98 125.54 12.742 145.48 73.105 8.0156 24.277 6.8164 48.996-0.64844 71.566l-159.74 67.586c-26.605-13.188-48.301-36.309-58.332-66.66z"/>
 <path d="m695.32 2.6406c-78.254 0-144.89 48.59-172.16 117.12-10.906-18.793-28.402-41.027-53.566-48.047-52.043-14.531-109.44 14.23-137.69 61.164-28.262 46.957-61.223 142.27-109.51 160.78-37.621 14.41 103.09 39.289 164.27-0.57422 40.57-26.363 38.664-79.477 81.781-91.906 12.648-3.6484 28.02-0.70703 43.043 4.5234 8.9414 94.176 87.289 168.12 183.82 168.12 102.48 0 185.58-83.113 185.58-185.61-0.003906-102.5-83.078-185.57-185.56-185.57z"/>
</svg>
