<?xml version="1.0" encoding="UTF-8"?>
<svg width="1200pt" height="1200pt" version="1.1" viewBox="0 0 1200 1200" xmlns="http://www.w3.org/2000/svg">
 <path d="m212.81 1138.8c-90.59 0-164.29-73.703-164.29-164.28 0-90.613 73.703-164.29 164.29-164.29s164.29 73.691 164.29 164.29c0 90.59-73.707 164.28-164.29 164.28zm0-223.3c-32.531 0-59.004 26.484-59.004 59.016s26.473 58.992 59.004 58.992 59.004-26.461 59.004-58.992-26.473-59.016-59.004-59.016z"/>
 <path d="m1030.6 1155c-83.977 0-152.28-68.293-152.28-152.27 0-83.965 68.305-152.27 152.28-152.27 83.965 0 152.26 68.305 152.26 152.27 0 83.977-68.293 152.27-152.26 152.27zm0-199.25c-25.922 0-46.992 21.07-46.992 46.98 0 25.895 21.07 46.98 46.992 46.98 25.895 0 46.969-21.086 46.969-46.98 0-25.918-21.07-46.98-46.969-46.98z"/>
 <path d="m289.19 213.66c-19.824-19.836-29.746-44.531-29.746-73.859 0-27.648 10.344-51.492 31.129-71.328 20.676-19.836 44.832-29.965 72.574-29.965 29.328 0 54.012 10.129 73.871 29.965 19.824 19.836 29.855 44.52 29.855 73.848 0 27.648-10.465 51.938-31.129 72.602-20.762 20.676-44.953 31.02-72.602 31.02-29.41-1.6797-54.105-12.445-73.953-32.281z"/>
 <path d="m1176.8 785.83c-43.246-29.23-93.816-44.676-146.22-44.676-23.496 0-46.297 3.0977-68.039 8.9297l-23.184-54.938h159.04l-0.003906-307.09-258.48 71.352-65.195-154.5c-6.7188-15.949-25.094-23.398-41.039-16.691-15.949 6.7305-23.438 25.105-16.703 41.051l187.43 444.29c-65.785 36.203-114.62 99.973-130.16 176.86h-167.1v-215.29c0.085937-5.8086-1.3906-11.605-4.5-16.727-5.6875-9.3359-15.84-15.059-26.773-15.059h-95.914l169.43-49.391 0.57422 210.97c0.097656 32.785 26.699 59.316 59.484 59.316h0.15625c32.844-0.10938 59.41-26.797 59.316-59.652l-0.79297-289.6c0.011718-2.293-0.13281-4.5977-0.39453-6.9258-0.085937-0.71875-0.21484-1.4023-0.3125-2.1133-0.15625-1.0781-0.27734-2.1484-0.49219-3.2148-0.070313-0.35938-0.21484-0.70703-0.27734-1.0664-0.19141-0.81641-0.40625-1.5977-0.61328-2.3984-0.35938-1.3438-0.75781-2.6875-1.2109-3.9844-0.25391-0.70703-0.51562-1.4023-0.76953-2.1133-0.5625-1.4023-1.1641-2.7734-1.7891-4.1172-0.28906-0.57422-0.55078-1.1641-0.83984-1.7266-0.76953-1.5-1.6211-2.9414-2.5078-4.3555-0.25391-0.39453-0.48047-0.80469-0.74219-1.1875-2.4375-3.6719-5.2422-7.0312-8.3867-10.031-0.28906-0.26562-0.60156-0.52734-0.89844-0.80469-1.2969-1.1875-2.6406-2.3281-4.0312-3.3945-0.19141-0.14453-0.34766-0.32422-0.57422-0.48047-0.28906-0.21484-0.625-0.39453-0.91016-0.60156-1.2852-0.9375-2.6172-1.8125-3.9961-2.6406-0.51562-0.3125-1.0312-0.64844-1.5977-0.94922-1.5-0.85156-3.0703-1.6328-4.668-2.3516-0.34766-0.16797-0.69531-0.33594-1.043-0.49219-4.0547-1.7539-8.293-3.0234-12.707-3.8398-0.14453-0.023437-0.30078-0.035156-0.45703-0.058593-1.9453-0.34766-3.9375-0.57422-5.9297-0.71875-0.45703-0.035157-0.91016-0.046875-1.3555-0.070313-1.668-0.070312-3.3242-0.085937-5.0039-0.023437-0.66016 0.023437-1.3203 0.058593-1.9688 0.10938-1.4531 0.097656-2.8789 0.26562-4.3203 0.46875-0.82812 0.13281-1.6562 0.23828-2.4609 0.38281-0.39453 0.085938-0.78125 0.10938-1.1758 0.17969l-225.21 46.297-15.875-75.996 215.12-50.148c26.148-6.0859 42.395-32.23 36.301-58.379-6.0859-26.16-32.258-42.395-58.367-36.312l-212.94 49.633-9.6367-46.164c-8.7617-50.23-38.062-75.336-88.211-75.336-27.625 0-51.48 10.547-71.305 31.246-19.848 20.664-27.227 46.621-22.043 77.867l54.434 272.21c4.4414 22.055 12.648 39.336 24.539 51.973 0 0-38.242-9.3828-53.844-12.227l-80.746-365.22c-3.7188-16.895-20.426-27.562-37.355-23.82-16.895 3.7305-27.562 20.449-23.832 37.355l76.812 347.5c-70.559 3.6484-136.05 33.227-185.76 84.215-16.246 16.668-15.898 43.332 0.76953 59.578 16.668 16.262 43.332 15.887 59.578-0.74219 37.188-38.16 87-59.184 140.29-59.184 108.05 0 195.94 87.91 195.94 195.95 0 3.6484 0.44531 22.355 5.6406 31.297 5.4961 9.4688 15.84 15.07 26.773 15.07h354.13c17.305 0 31.344-14.039 31.344-31.344v-3.4688c12.168-99.574 96.73-174.43 197.39-174.43 39.828 0 78.277 11.723 111.16 33.91 14.328 9.6953 33.816 5.9141 43.512-8.4258 9.6445-14.367 5.8672-33.844-8.4844-43.527zm-125.4-336.04v198.34h-131.88l-61.188-145.05z"/>
</svg>
