<?xml version="1.0" encoding="UTF-8"?>
<svg width="1200pt" height="1200pt" version="1.1" viewBox="0 0 1200 1200" xmlns="http://www.w3.org/2000/svg">
 <path d="m1154 269.75v95.906h-115.67v-95.918h-31.535v147.17h147.2v115.66h31.535v-262.81z"/>
 <path d="m819.86 221.1v-31.539h-123.52v147.2h-136.66v31.535h260.17v-31.535h-72.25v-115.66z"/>
 <path d="m974.7 948.66c-21.277-21.277-47.594-32.074-78.109-32.074-29.664 0-55.512 10.789-76.812 32.074-21.312 21.227-32.102 47.016-32.102 76.812 0 30.637 10.777 56.914 32.102 78.145 21.301 21.227 47.16 32.027 76.812 32.027 30.516 0 56.82-10.801 78.109-32.027 21.312-21.227 32.102-47.508 32.102-78.145-0.011719-29.797-10.789-55.598-32.102-76.812zm-45.777 109.12c-9.0234 9-19.766 13.512-32.328 13.512-12.574 0-23.375-4.5117-32.375-13.512-8.9531-8.9766-13.43-19.715-13.43-32.305 0-12.48 4.4766-23.328 13.43-32.316 9-8.9141 19.801-13.512 32.375-13.512 12.562 0 23.305 4.5977 32.328 13.512 9 8.9883 13.43 19.836 13.43 32.316-0.003906 12.598-4.4297 23.328-13.43 32.305z"/>
 <path d="m313.38 950.59c-21.227-20.809-47.027-31.355-76.738-31.355-30.539 0-56.82 10.547-78.168 31.355-21.277 20.988-32.113 47.027-32.113 77.473 0 29.723 10.789 55.598 32.113 76.812 21.289 21.348 47.566 32.207 78.168 32.207 29.699 0 55.559-10.848 76.789-32.148 21.289-21.277 32.074-47.09 32.074-76.871 0-30.445-10.777-56.57-32.125-77.473zm-44.434 109.98c-8.9297 8.9766-19.727 13.32-32.293 13.32-12.602 0-23.363-4.3438-32.34-13.32-8.9883-9.0469-13.453-19.777-13.453-32.508 0-12.469 4.4648-23.207 13.453-32.207 8.9766-8.9766 19.738-13.57 32.34-13.57 12.574 0 23.375 4.5977 32.293 13.57 8.9883 9 13.477 19.738 13.477 32.207 0 12.723-4.5 23.461-13.477 32.508z"/>
 <path d="m848.61 73.922h132.94v244.44h-132.94z"/>
 <path d="m1125.7 747.9v-100.48h57.035v-38.363h-390.61v38.363h57.227v100.67l-101.91 0.058594-0.003907-226.94h72.48v-119.15h-176.75v119.15h72.48v226.96l-37.645 0.035157v-149.33c-0.625-13.344-5.4258-24.742-14.785-34.105-10.008-10.117-21.863-15.133-35.566-15.133l-166.18 0.27734c-18 0-38.594 9.0234-47.617 25.754l-103.22 161.65h-188.64c-43.141 0-78.109 32.148-78.109 71.867v11.52h0.17969v34.055 50.785h-32.34v63.348c0 22.379 11.258 33.66 33.707 33.66h30.961c2.6875-37.691 20.016-69.828 51.852-96.359 31.895-26.387 67.559-39.66 107.09-39.66 39.492 0 75.395 13.262 107.75 39.66 32.316 26.531 49.801 58.68 52.512 96.359h342.12c2.6523-37.691 19.992-70.078 51.805-97.008 31.906-26.965 67.547-40.344 107.1-40.344 39.516 0 75.395 13.379 107.75 40.344 31.164 25.98 48.383 57.07 51.984 93.035v4.2734c0.035156 0.25391 0.058594 0.48047 0.097656 0.73047h93.086c22.754 0 34.188-11.449 34.188-34.176l-0.003906-221.55zm-533.72-25.594c0 17.062-8.4961 25.633-25.633 25.633h-164.95c-9.2656 0-13.957-4.6445-13.957-13.883 0-3.2539 0.80469-5.832 2.3164-8.125l55.895-97.199c6.0234-9.6016 13.801-12.457 24.602-12.457h96.109c17.125 0 25.633 8.5547 25.633 25.598v80.434zm487.27 25.633-183.45 0.12109v-66.613h183.45z"/>
 <path d="m1123.1 481.63c0-16.055-13.223-29.074-29.508-29.074h-12.047-0.085938c-7.4297 0.011718-108.16 0.011718-161.83 0.011718v-80.988c0-16.078-13.211-29.074-29.508-29.074h-12.035c-16.297 0-29.508 12.996-29.508 29.074l0.023437 215.61h274.66z"/>
</svg>
