<?xml version="1.0" encoding="UTF-8"?>
<svg width="1200pt" height="1200pt" version="1.1" viewBox="0 0 1200 1200" xmlns="http://www.w3.org/2000/svg">
 <path d="m602.3 95.328c-324.52 0-587.59 113.72-587.59 254 0 46.176 17.195 85.895 78.359 126.77 46.645 23.102 117.55 47.844 210.91 49.992 65.219 1.5234 109.13-7.043 151.68-15.289 42.312-8.2305 82.273-15.996 134.33-11.242 53.004 4.8242 81.035 17.449 103.6 27.574 7.6211 3.4336 39.961 14.676 62.172 15.781 25.871 1.2852 45.613-6.6953 45.613-6.6953 17.688-7.5586 33.227-19.836 49.297-32.617 24.602-19.5 50.062-38.93 83.281-39.684 40.5-0.9375 88.211 20.566 134.07 40.117 76.332-42.84 121.86-96.469 121.86-154.71 0.011719-140.27-263.07-254-587.58-254z"/>
 <path d="m585.17 552.6c-34.895-3.1562-63.898 0.38281-94.176 5.7852l33.949 536.12h68.797l19.523-538.09c-8.293-1.5391-17.508-2.8477-28.094-3.8164z"/>
 <path d="m337.01 579.2 80.496 515.3h71.832l-33.527-529.48c-33.301 6.4102-70.691 12.816-118.8 14.172z"/>
 <path d="m176.75 562.93 104.43 531.57h100.4l-80.496-515.23c-46.582-1.2031-87.992-7.4766-124.33-16.344z"/>
 <path d="m939.91 517.61-89.09 576.9h83.137l97.812-547.82c-36.035-14.746-71.266-26.926-91.859-29.074z"/>
 <path d="m883.78 545.39c-25.031 19.836-55.414 43.777-97.391 50.102l-46.969 499.02h75.457l86.941-562.97c-5.7656 4.1406-11.742 8.8438-18.039 13.848z"/>
 <path d="m671.7 575.73c-7.3203-3.2891-14.773-6.625-23.23-9.7422l-19.164 528.52h74.438l46.836-497.81c-36.637-2.0508-58.117-11.629-78.879-20.965z"/>
</svg>
