<?xml version="1.0" encoding="UTF-8"?>
<svg width="1200pt" height="1200pt" version="1.1" viewBox="0 0 1200 1200" xmlns="http://www.w3.org/2000/svg">
 <path d="m898.39 289c43.129 0 78.203 35.016 78.203 78.203s-35.062 78.098-78.203 78.098c-43.105 0-78.098-34.906-78.098-78.098 0.003906-43.188 34.984-78.203 78.098-78.203z"/>
 <path d="m938.89 810.42-73.629-24.879 8.0273-23.098 73.633 24.875-8.0312 23.785z"/>
 <path d="m1187.7 597.2-108.37-202.73c-6.4688-12.086-18.238-19.465-30.91-20.844l17.27-59.664 34.5 9.9375 10.152-35.27-34.453-9.9258 11.438-39.539-39.012-11.27-11.449 39.562-35.641-10.262-10.152 35.27 35.594 10.246-46.562 160.96-401.02-0.13281c-11.438 0-22.402 4.5469-30.469 12.648-8.0742 8.1016-12.574 19.094-12.539 30.527l0.48047 115.2c0.097657 23.688 19.332 42.828 42.996 42.816h0.17969c14.352-0.058593 26.953-7.2109 34.715-18.047l142.88 49.598v38.762l-5.375 4.2969c-10.152 8.125-24.707 21.73-38.148 40.441h-22.668c-28.367 0-51.348 22.992-51.348 51.348v289.6c0 28.367 22.992 51.348 51.348 51.348 28.367 0 51.348-22.992 51.348-51.348v-101.36c17.688 14.914 39.109 27.66 64.789 37.078l-32.605 112.69 41.387 11.914 32.773-113.21c13.176 2.3867 26.293 3.7305 39.203 3.7305h0.011719c50.941 0 98.039-19.402 131.95-51.359v100.52c0 28.367 22.992 51.348 51.348 51.348 28.367 0 51.348-22.992 51.348-51.348v-289.6c0-28.367-22.992-51.348-51.348-51.348h-50.137c-0.37109-7.332 0.34766-15.07 2.5781-22.824 6.457-22.273 22.5-39.012 39.949-41.641l5.0039-0.76953 3.2148-3.8984c12.926-15.672 22.848-34.645 28.691-54.852 2.5078-8.6641 3.8867-17.426 4.3555-26.125l22.895 17.832c7.2227 5.6406 15.887 8.4375 24.551 8.4375 9.1562 0 18.301-3.1328 25.727-9.3828 14.445-12.145 18.418-32.727 9.5234-49.371zm-565.33 26.34c0.023438-0.67188 0.19141-1.2969 0.19141-1.9805l-0.30078-72.023h135.09v120.85zm452.93 24.926c-4.4141 15.254-11.594 29.617-20.855 41.809-25.262 6.3008-47.363 29.461-56.016 59.352-12.266 42.516 5.7617 85.199 40.152 95.148 0.33594 0.097656 0.68359 0.19141 1.0312 0.28906 6.1562 20.785 12.238 55.402 1.3789 92.953-14.941 51.59-69.156 107.12-152.91 107.12-10.453 0-21.109-1.0078-31.836-2.7969l59.027-203.93-41.398-12-59.219 204.66c-97.332-36.348-122.22-121.31-102.86-188.32 10.859-37.535 34.488-63.551 50.809-77.844 0.32422 0.097656 0.66016 0.19141 0.98438 0.28906 4.8711 1.4023 9.9375 2.125 15.047 2.125 24.863 0 48.254-16.715 61.824-42.203l133.12 46.199 8.0273-23.113-132.37-45.914c7.0195-28.703 0.64844-58.199-16.547-76.164-1.332-15.238 0.27734-31.234 4.6797-46.5 7.0664-24.406 28.234-65.352 90.492-65.352 11.27 0 23.484 1.4531 36.395 4.1406l-49.836 172.22 39.012 11.305 49.727-171.86c29.352 11.797 51.238 28.656 63.66 49.621 12.305 20.758 15.316 45.176 8.4883 68.758z"/>
 <path d="m140.68 330.17c37.727-25.957 47.293-77.629 21.434-115.27-26.074-37.824-77.699-47.387-115.43-21.434-37.824 26.027-47.387 77.652-21.312 115.36 25.871 37.793 77.496 47.426 115.31 21.352z"/>
 <path d="m448.43 712.52c-20.398-156.49-113.41-258.35-134.27-279.53l-83.352 8.0391c-0.22656 0-0.43359 0.023438-0.68359 0-5.543 0.27734-10.344-3.9102-10.848-9.5273-0.55078-5.7969 3.6836-10.945 9.5039-11.543l151.41-14.977c56.953-1.5586 52.68-54 52.68-54l-4.3672-177.01c-4.0781-53.52-76.488-49.859-74.543 3.3008l-1.1055 148.04-159.47 0.097657c-104.96 9.5625-85.32 111.12-85.32 111.12s9.707 61.668 47.41 115.7c51.215 73.164 123.48 148.8 123.48 148.8l38.641-28.895c5.2695 17.629 9.8164 35.914 12.406 55.836 19.043 145.54-98.148 315.24-121.81 347.83-19.414 26.605-13.512 63.961 13.164 83.375 10.598 7.7148 22.895 11.426 35.074 11.426 18.457 0 36.625-8.4961 48.301-24.562 39.883-54.738 167.98-247.82 143.7-433.53z"/>
 <path d="m204.02 242.9 130.84-41.445v32.977l-128.24 42.395z"/>
 <path d="m623.12 21-30.035 9.8867s14.652 38.113 0.13281 64.105c-13.715 24.59-48.301 35.352-48.301 35.352l-95.578 32.988 0.82812 31.57 104.89-34.598s38.34-12.887 61.211-3.9102c28.141 10.992 35.664 51.023 35.664 51.023l30.059-9.8867z"/>
 <path d="m568.07 223.55c-5.9297-17.125-25.598-31.391-54.898-22.141l-62.293 21.266 0.48047 19.477 67.633-23.051c18.539-5.8789 28.414 1.5859 31.57 10.547 3.6133 10.488-1.2852 24.359-17.375 30.469l-80.629 27.539 0.48047 19.465 86.449-29.508c27.215-10.285 34.992-35.508 28.582-54.062z"/>
</svg>
