<?xml version="1.0" encoding="UTF-8"?>
<svg width="1200pt" height="1200pt" version="1.1" viewBox="0 0 1200 1200" xmlns="http://www.w3.org/2000/svg">
 <path d="m793.69 147.47c-49.453 0-89.531 40.078-89.531 89.531v3.2344c0.375 9.375 2.1562 18.469 5.1562 26.859 19.078 62.766 84.234 144.61 84.234 144.61s65.156-81.844 84.234-144.61c3-8.3906 4.7812-17.531 5.1562-26.859v-3.2344c0-49.453-40.078-89.531-89.531-89.531zm0 133.31c-24.234 0-43.781-19.688-43.781-43.781 0-24.141 19.688-43.781 43.781-43.781 24.141 0 43.781 19.688 43.781 43.781 0 24.141-19.688 43.781-43.781 43.781z"/>
 <path d="m1132.7 289.92c-7.6875-24.703-30.234-41.297-56.156-41.297-6 0-11.859 0.84375-17.531 2.625l-81 25.312v-190.26c0-46.922-29.156-74.156-73.453-74.156h-374.86c-45.141 0-76.922 26.531-76.922 74.156v364.22c-41.062 17.766-69.609 30.469-75.703 33.609-49.453 25.219-86.766 83.062-95.156 106.45-10.312 23.297-240.84 597.47-240.84 597.47h477.94s115.78-48.469 177.37-115.78c25.922-28.312 46.688-66.703 61.078-98.391h150.94c39.703 0 69.703-25.547 69.703-76.688v-43.453h51.234c32.391 0 58.781-26.391 58.781-58.781 0-32.391-26.391-58.781-58.781-58.781h-51.234v-19.688h52.688c32.391 0 58.781-26.391 58.781-58.781 0-32.391-26.391-58.781-58.781-58.781h-52.688v-19.547h52.688c32.391 0 58.781-26.391 58.781-58.781 0-32.391-26.391-58.781-58.781-58.781h-52.688v-61.688l116.06-36.234c15-4.6875 27.234-14.859 34.547-28.781 7.3125-13.922 8.625-29.766 3.9375-44.766zm-207.47 619.45h-328.08c-1.9219 12.375-4.3125 25.078-7.7812 38.297-21.844 83.859-93.703 131.16-96.703 133.08-2.7656 1.7812-6 2.7656-9.1406 2.7656-5.5312 0-10.922-2.7656-14.156-7.6875-5.0625-7.7812-2.7656-18.141 5.0625-23.297 0.60938-0.375 63.844-42.469 82.453-113.39 19.781-75.375 9.9375-142.22 9.8438-142.78-0.23438-1.4531-0.14062-2.7656 0-4.2188h191.29c39.234 0 78.469-23.625 78.469-69.938s-34.547-75.609-78.469-75.609h-324.84v-33.609h72.375l-0.09375-540.84h88.453c0.375 21.469 13.781 33.469 33.141 33.469h176.76c18.938 0 31.312-12.375 31.688-33.469h89.766v837.14z"/>
 <path d="m702.14 433.45h-1.5469c-0.46875 0-1.0781 0-1.5469-0.14062-0.46875 0-1.0781 0-1.5469-0.23438-0.46875 0-1.0781-0.14062-1.5469-0.23438-0.46875 0-0.9375-0.23438-1.5469-0.375-0.46875-0.14062-0.9375-0.23438-1.4531-0.46875-0.46875-0.14062-0.9375-0.375-1.4531-0.46875-0.46875-0.14062-0.9375-0.375-1.4531-0.60938-0.46875-0.23438-0.9375-0.375-1.4531-0.60938-0.46875-0.23438-0.9375-0.46875-1.4531-0.70312-0.46875-0.23438-0.9375-0.46875-1.3125-0.70312-0.46875-0.23438-0.84375-0.60938-1.3125-0.84375s-0.84375-0.60938-1.3125-0.84375c-0.46875-0.375-0.84375-0.60938-1.2188-0.9375-0.375-0.375-0.84375-0.70312-1.2188-0.9375l-2.1562-2.1562c-0.375-0.375-0.70312-0.84375-1.0781-1.2188s-0.60938-0.84375-0.9375-1.2188c-0.375-0.375-0.60938-0.84375-0.84375-1.3125s-0.60938-0.84375-0.84375-1.3125-0.46875-0.84375-0.70312-1.3125-0.46875-0.9375-0.70312-1.3125c-0.23438-0.46875-0.46875-0.9375-0.60938-1.4531-0.23438-0.46875-0.375-0.9375-0.60938-1.4531-0.23438-0.46875-0.375-0.9375-0.46875-1.4531-0.14062-0.46875-0.23438-0.9375-0.375-1.4531-0.14062-0.46875-0.23438-0.9375-0.375-1.5469 0-0.46875-0.23438-0.9375-0.23438-1.5469 0-0.46875-0.14062-1.0781-0.23438-1.5469v-6.1875c0-0.46875 0-1.0781 0.23438-1.5469 0-0.46875 0.14062-0.9375 0.23438-1.5469 0-0.46875 0.23438-0.9375 0.375-1.5469 0.14062-0.46875 0.23438-0.9375 0.375-1.4531 0.14062-0.46875 0.375-0.9375 0.46875-1.4531 0.14062-0.46875 0.375-0.9375 0.60938-1.4531 0.23438-0.46875 0.375-0.9375 0.60938-1.4531 0.23438-0.46875 0.46875-0.9375 0.70312-1.4531 0.23438-0.46875 0.46875-0.9375 0.70312-1.3125 0.23438-0.46875 0.60938-0.84375 0.84375-1.3125s0.60938-0.84375 0.84375-1.3125c0.375-0.46875 0.60938-0.84375 0.9375-1.2188 0.375-0.375 0.70312-0.84375 1.0781-1.2188l2.1562-2.1562c0.375-0.375 0.84375-0.70312 1.2188-0.9375 0.375-0.375 0.84375-0.60938 1.2188-0.9375 0.375-0.375 0.84375-0.60938 1.3125-0.84375s0.84375-0.60938 1.3125-0.84375 0.84375-0.46875 1.3125-0.70312 0.9375-0.46875 1.4531-0.70312c0.46875-0.23438 0.9375-0.46875 1.4531-0.60938 0.46875-0.23438 0.9375-0.375 1.4531-0.60938 0.46875-0.14062 0.9375-0.375 1.4531-0.46875 0.46875-0.14062 0.9375-0.23438 1.4531-0.46875 0.46875-0.14062 0.9375-0.23438 1.5469-0.375 0.46875 0 1.0781-0.23438 1.5469-0.23438s1.0781-0.14062 1.5469-0.23438c0.46875-0.14062 1.0781 0 1.5469-0.14062h3.1406c0.46875 0 1.0781 0 1.5469 0.14062 0.46875 0 1.0781 0.14062 1.5469 0.23438 0.46875 0 1.0781 0.14062 1.5469 0.23438 0.46875 0 0.9375 0.23438 1.5469 0.375 0.46875 0.14062 0.9375 0.23438 1.4531 0.46875 0.46875 0.14062 0.9375 0.375 1.4531 0.46875 0.46875 0.23438 0.9375 0.375 1.4531 0.60938 0.46875 0.23438 0.9375 0.375 1.4531 0.60938 0.46875 0.23438 0.9375 0.46875 1.3125 0.70312 0.46875 0.23438 0.9375 0.46875 1.3125 0.70312 0.46875 0.23438 0.84375 0.60938 1.3125 0.84375s0.84375 0.60938 1.3125 0.84375c0.375 0.375 0.84375 0.60938 1.2188 0.9375 0.375 0.375 0.84375 0.70312 1.2188 0.9375l2.1562 2.1562c0.375 0.375 0.70312 0.84375 0.9375 1.2188 0.375 0.375 0.60938 0.84375 0.9375 1.2188 0.375 0.375 0.60938 0.84375 0.84375 1.3125s0.60938 0.84375 0.84375 1.3125 0.46875 0.84375 0.70312 1.3125 0.46875 0.9375 0.70312 1.4531c0.23438 0.46875 0.46875 0.9375 0.60938 1.4531 0.23438 0.46875 0.375 0.9375 0.60938 1.4531 0.14062 0.46875 0.375 0.9375 0.46875 1.4531 0.14062 0.46875 0.23438 0.9375 0.375 1.4531 0.14062 0.46875 0.23438 0.9375 0.375 1.5469 0 0.46875 0.23438 1.0781 0.23438 1.5469s0.14062 1.0781 0.23438 1.5469c0.14062 0.46875 0 1.0781 0.14062 1.5469v3.0938c0 0.46875 0 1.0781-0.14062 1.5469 0 0.46875 0 1.0781-0.23438 1.5469 0 0.46875-0.14062 1.0781-0.23438 1.5469 0 0.46875-0.23438 0.9375-0.375 1.5469-0.14062 0.46875-0.23438 0.9375-0.375 1.4531-0.14062 0.46875-0.375 0.9375-0.46875 1.4531-0.14062 0.46875-0.375 0.9375-0.60938 1.4531-0.23438 0.46875-0.375 0.9375-0.60938 1.4531-0.23438 0.46875-0.46875 0.9375-0.70312 1.3125-0.23438 0.46875-0.46875 0.9375-0.70312 1.3125-0.23438 0.46875-0.60938 0.84375-0.84375 1.3125s-0.60938 0.84375-0.84375 1.3125c-0.375 0.375-0.60938 0.84375-0.9375 1.2188-0.375 0.375-0.70312 0.84375-0.9375 1.2188l-2.1562 2.1562c-0.375 0.375-0.84375 0.70312-1.2188 0.9375-0.375 0.375-0.84375 0.60938-1.2188 0.9375-0.375 0.375-0.84375 0.60938-1.3125 0.84375s-0.84375 0.60938-1.3125 0.84375-0.84375 0.46875-1.3125 0.70312-0.9375 0.46875-1.3125 0.70312c-0.46875 0.23438-0.9375 0.46875-1.4531 0.60938-0.46875 0.23438-0.9375 0.375-1.4531 0.60938-0.46875 0.14062-0.9375 0.375-1.4531 0.46875-0.46875 0.14062-0.9375 0.23438-1.4531 0.46875-0.46875 0.14062-0.9375 0.23438-1.5469 0.375-0.46875 0-0.9375 0.23438-1.5469 0.23438-0.46875 0-1.0781 0.14062-1.5469 0.23438-0.46875 0-1.0781 0-1.5469 0.14062z"/>
 <path d="m624.47 502.69c-13.922-10.688-16.453-30.609-5.7656-44.391 10.688-13.922 30.609-16.453 44.531-5.7656s16.453 30.609 5.7656 44.531c-6.2344 8.1562-15.609 12.375-25.219 12.375-6.7031 0-13.547-2.1562-19.312-6.6094z"/>
 <path d="m585.47 585h-1.5469c-0.46875 0-1.0781 0-1.5469-0.14062s-1.0781-0.14062-1.5469-0.23438c-0.46875 0-1.0781-0.14062-1.5469-0.23438-0.46875 0-0.9375-0.23438-1.5469-0.375-0.46875-0.14062-0.9375-0.23438-1.4531-0.46875-0.46875-0.14062-0.9375-0.375-1.4531-0.46875-0.46875-0.23438-0.9375-0.375-1.4531-0.60938-0.46875-0.23438-0.9375-0.375-1.4531-0.60938-0.46875-0.23438-0.9375-0.46875-1.4531-0.70312-0.46875-0.23438-0.9375-0.46875-1.3125-0.70312-0.46875-0.23438-0.84375-0.60938-1.3125-0.84375s-0.84375-0.60938-1.3125-0.84375c-0.46875-0.375-0.84375-0.60938-1.2188-0.9375-0.375-0.375-0.84375-0.70312-1.2188-0.9375l-2.1562-2.1562c-0.375-0.375-0.70312-0.70312-0.9375-1.2188-0.375-0.375-0.60938-0.84375-0.9375-1.2188-0.375-0.46875-0.60938-0.84375-0.84375-1.3125s-0.60938-0.84375-0.84375-1.3125-0.46875-0.84375-0.70312-1.3125-0.46875-0.9375-0.70312-1.4531c-0.23438-0.46875-0.46875-0.9375-0.60938-1.4531-0.23438-0.46875-0.375-0.9375-0.60938-1.4531-0.14062-0.46875-0.375-0.9375-0.46875-1.4531-0.14062-0.46875-0.23438-0.9375-0.46875-1.4531-0.14062-0.46875-0.23438-0.9375-0.375-1.5469s-0.23438-1.0781-0.23438-1.5469-0.14062-1.0781-0.23438-1.5469c-0.14062-0.46875 0-1.0781 0-1.5469v-4.6406c0-0.46875 0.14062-1.0781 0.23438-1.5469 0-0.46875 0.14062-1.0781 0.23438-1.5469 0.14062-0.46875 0.23438-0.9375 0.375-1.5469 0.14062-0.46875 0.23438-0.9375 0.46875-1.4531 0.14062-0.46875 0.375-0.9375 0.46875-1.4531 0.23438-0.46875 0.375-0.9375 0.60938-1.4531 0.23438-0.46875 0.375-0.9375 0.60938-1.4531 0.23438-0.46875 0.46875-0.9375 0.70312-1.4531 0.23438-0.46875 0.46875-0.9375 0.70312-1.3125 0.23438-0.46875 0.60938-0.84375 0.84375-1.3125s0.60938-0.84375 0.84375-1.3125c0.375-0.375 0.60938-0.84375 0.9375-1.2188 0.375-0.375 0.70312-0.84375 0.9375-1.2188l2.1562-2.1562c0.375-0.375 0.70312-0.70312 1.2188-0.9375 0.375-0.375 0.84375-0.60938 1.2188-0.9375 0.375-0.375 0.84375-0.60938 1.3125-0.84375s0.84375-0.60938 1.3125-0.84375 0.84375-0.46875 1.3125-0.70312 0.9375-0.46875 1.4531-0.70312c0.46875-0.23438 0.9375-0.46875 1.4531-0.60938 0.46875-0.23438 0.9375-0.375 1.4531-0.60938 0.46875-0.14062 0.9375-0.375 1.4531-0.46875 0.46875-0.14062 0.9375-0.23438 1.4531-0.375 0.46875-0.14062 0.9375-0.23438 1.5469-0.375 0.46875 0 1.0781-0.23438 1.5469-0.23438s1.0781-0.14062 1.5469-0.23438c0.46875-0.14062 1.0781 0 1.5469-0.14062h3.1406c0.46875 0 1.0781 0 1.5469 0.14062 0.46875 0 1.0781 0 1.5469 0.23438 0.46875 0 1.0781 0.14062 1.5469 0.23438 0.46875 0 0.9375 0.23438 1.5469 0.375 0.46875 0.14062 0.9375 0.23438 1.4531 0.375 0.46875 0.14062 0.9375 0.375 1.4531 0.46875 0.46875 0.14062 0.9375 0.375 1.4531 0.60938 0.46875 0.23438 0.9375 0.375 1.4531 0.60938 0.46875 0.23438 0.9375 0.46875 1.4531 0.70312 0.46875 0.23438 0.9375 0.46875 1.3125 0.70312 0.46875 0.23438 0.84375 0.60938 1.3125 0.84375s0.84375 0.60938 1.3125 0.84375c0.375 0.375 0.84375 0.60938 1.2188 0.9375 0.375 0.375 0.84375 0.70312 1.2188 0.9375l2.1562 2.1562c0.375 0.375 0.70312 0.84375 0.9375 1.2188 0.375 0.375 0.60938 0.84375 0.9375 1.2188 0.375 0.375 0.60938 0.84375 0.84375 1.3125s0.60938 0.84375 0.84375 1.3125 0.46875 0.9375 0.70312 1.3125c0.23438 0.46875 0.46875 0.9375 0.70312 1.4531 0.23438 0.46875 0.46875 0.9375 0.60938 1.4531 0.23438 0.46875 0.375 0.9375 0.60938 1.4531 0.14062 0.46875 0.375 0.9375 0.46875 1.4531 0.14062 0.46875 0.23438 0.9375 0.46875 1.4531 0.14062 0.46875 0.23438 0.9375 0.375 1.5469 0 0.46875 0.23438 0.9375 0.23438 1.5469 0 0.46875 0.14062 1.0781 0.23438 1.5469v6.1875c0 0.46875-0.14062 1.0781-0.23438 1.5469 0 0.46875-0.14062 1.0781-0.23438 1.5469 0 0.46875-0.23438 0.9375-0.375 1.5469-0.14062 0.46875-0.23438 0.9375-0.46875 1.4531-0.14062 0.46875-0.375 0.9375-0.46875 1.4531-0.14062 0.46875-0.375 0.9375-0.60938 1.4531-0.23438 0.46875-0.375 0.9375-0.60938 1.4531-0.23438 0.46875-0.46875 0.9375-0.70312 1.4531-0.23438 0.46875-0.46875 0.9375-0.70312 1.3125-0.23438 0.46875-0.60938 0.84375-0.84375 1.3125s-0.60938 0.84375-0.84375 1.3125c-0.375 0.375-0.60938 0.84375-0.9375 1.2188-0.375 0.375-0.70312 0.84375-0.9375 1.2188l-2.1562 2.1562c-0.375 0.375-0.70312 0.70312-1.2188 0.9375-0.375 0.375-0.84375 0.60938-1.2188 0.9375-0.46875 0.375-0.84375 0.60938-1.3125 0.84375s-0.84375 0.60938-1.3125 0.84375-0.9375 0.46875-1.3125 0.70312c-0.46875 0.23438-0.9375 0.46875-1.4531 0.70312-0.46875 0.23438-0.9375 0.46875-1.4531 0.60938-0.46875 0.23438-0.9375 0.375-1.4531 0.60938-0.46875 0.14062-0.9375 0.375-1.4531 0.46875-0.46875 0.14062-0.9375 0.23438-1.4531 0.46875-0.46875 0-0.9375 0.23438-1.5469 0.375-0.46875 0-0.9375 0.23438-1.5469 0.23438-0.46875 0-1.0781 0.14062-1.5469 0.23438-0.46875 0-1.0781 0-1.5469 0.14062z"/>
</svg>
