<?xml version="1.0" encoding="UTF-8"?>
<svg width="1200pt" height="1200pt" version="1.1" viewBox="0 0 1200 1200" xmlns="http://www.w3.org/2000/svg">
 <path d="m1001.6 32.219h130.39v120.06h-130.39z" fill="#010101"/>
 <path d="m759.93 199.66h-143.44c5.8789-15.996 9.2773-33.191 9.2773-51.203 0.011719-81.863-66.59-148.45-148.43-148.45-81.852 0-148.45 66.59-148.45 148.45 0 18.012 3.3945 35.219 9.2656 51.203h-140.43s-129.74 0-129.74 129.73v740.87c0-0.011718 0 129.75 129.74 129.75h562.19s129.73 0 129.73-129.76l0.003906-740.86c-0.011719 0-0.011719-129.73-129.72-129.73zm-282.59-102.82c28.453 0 51.602 23.148 51.602 51.625 0 27.012-20.914 48.984-47.34 51.203h-8.5312c-26.461-2.2188-47.363-24.191-47.363-51.203 0.007813-28.477 23.18-51.625 51.633-51.625zm275.68 803.84h-168.98v173.46h-379.41v-753.89h165.73l-66.289 136.33 349.5 0.85156-72.312-137.2h171.78v580.44z" fill="#010101"/>
 <path d="m1001.6 207.61v825.01l0.37109 0.13281 64.297 162 65.711-162.13h0.011719v-825.01z" fill="#010101"/>
</svg>
