<svg xmlns="http://www.w3.org/2000/svg" width="1600" height="1600" viewBox="0 0 1200 1200"><path d="M864.48 274.51c0 86.098-69.797 155.89-155.89 155.89-86.098 0-155.89-69.793-155.89-155.89 0-86.098 69.797-155.89 155.89-155.89 86.094 0 155.89 69.793 155.89 155.89"/><path d="m1180.1 1076.8-147.38-459.78c-26.555-75.289-90.457-145.59-200.07-148.13L707.91 673.32c-9.863-6.324-20.605-11.426-32.062-14.914l116.88-194.41c-3.11-.11-6.18-.445-9.3-.445l-151.16-.004v215.57c1.968-.11 3.839-.574 5.82-.574 57.265 0 103.67 46.43 103.67 103.67 0 57.238-46.415 103.67-103.67 103.67s-103.67-46.43-103.67-103.67c0-42.06 25.175-78.11 61.198-94.367v-224.3h-37.44l-415.97-430.95C114.196 3.58 68.071 2.78 39.115 30.748c-6.735 6.48-11.739 13.969-15.388 21.96l-.152-.046c-.168.418-.336.852-.531 1.246-.262.59-.442 1.164-.695 1.79-6.239 14.89-6.91 28.272-4.391 40.14.035.094.035.18.059.25.515 2.543 1.21 4.945 2.027 7.332 3.195 11.031 8.738 21.566 17.258 30.422l.422.445c2.617 3.36 5.304 6.47 7.691 9.266l435.01 508.66-156.1 523.87h540.19l.434-473.45h47.578l132.76 421.15c31.523 97.36 165.43 57.328 134.81-46.988z"/></svg>