<svg xmlns="http://www.w3.org/2000/svg" width="1600" height="1600" viewBox="0 0 1200 1200"><path d="M1081.5 1063.5H849.46s189.95-199.29 196.26-207.39c23.125-29.578 21.215-85.246-2.879-119.95-28.055-46.992-88.992-112.05-184.25-170.3-1.117-.781-455.63-265.36-455.63-265.36-1.043-.613-1.789-.781-2.746-1.262-1.598-.816-5.293-2.363-5.508-2.426-21.19-7.753-45.73-.84-59.258 18.527-16.094 23.09-10.43 54.852 12.66 70.934l287.91 200.68c-14.41 15.133-32.352 43.246-32.352 76.754v248.71l-253.73 148.44c-2.398 1.391-4.164 2.762-5.64 4.106-21.168 16.355-27.59 46.117-13.703 69.828 10.055 17.184 28.117 26.746 46.68 26.746a53.8 53.8 0 0 0 27.254-7.414l280.48-164.09c23.258-14.844 26.172-38.773 26.207-38.988l26.113-182.62c14.074 5.855 29.23 13.355 43.379 22.777 14.914 9.96 29.71 23.594 42.816 37.008l-149.52 237.04c-6.938 10.477-22.414 28.812-13.703 67.414 5.593 24.938 34.21 46.945 57.238 46.945h363.95c32.05 0 58.066-25.945 58.066-58.13.004-32.003-26.012-57.972-58.066-57.972z"/><path d="M587.17 672.61c0 60.793-49.281 110.07-110.07 110.07-60.797 0-110.08-49.281-110.08-110.07s49.281-110.08 110.08-110.08c60.793 0 110.07 49.285 110.07 110.08"/><path d="M485.68 136.91a79 79 0 0 1-.145-4.836c0-65.34-53.148-118.49-118.46-118.49h-141.48c-65.34 0-118.5 53.148-118.5 118.49v1053.5h175.75v-1053.5c0-23.125 9.372-44.062 24.516-59.305 1.57 1.715 3.133 3.445 4.766 5.172 13.512 14.23 25.176 26.52 25.176 54.133 0 65.328 53.16 118.5 118.51 118.5h112.54v-.07c.48.011.95.07 1.43.07 55.367 0 104.09-39.227 115.79-93.289l4.511-20.797zm-237.11-4.836v1019.2H141.36v-57.59h74.363v-35.27l-74.363.004v-57.852h40.633v-35.27H141.36v-57.863h74.363v-35.281H141.36v-57.84h40.633v-35.281H141.36v-57.863h74.363v-35.27H141.36v-57.84h40.633v-35.27l-40.633.004v-57.875h74.363v-35.281H141.36v-57.863h40.633v-35.27H141.36v-57.91h74.363v-35.281H141.36V255.46h40.633v-35.281H141.36v-57.875h74.363v-35.281h-73.848c2.664-44.051 39-79.176 83.723-79.176h58.199c-21.754 21.492-35.23 51.324-35.23 84.215zm207.24 84.23c-46.453 0-84.254-37.789-84.254-84.227 0-41.28-19.992-62.34-34.586-77.723-.168-.191-.324-.348-.492-.539 9.504-3.73 19.777-5.953 30.574-5.953 46.43 0 84.203 37.777 84.203 84.215 0 32.93 13.523 62.734 35.28 84.227zm113.96 0c-32.352 0-60.504-18.324-74.617-45.145l149.39-.324c-14.254 27.266-42.957 45.469-74.77 45.469z"/></svg>