<svg xmlns="http://www.w3.org/2000/svg" width="1600" height="1600" viewBox="0 0 1200 1200"><path d="M292.22 259.6c48.215 0 87.277 39.059 87.277 87.254 0 48.168-39.059 87.203-87.277 87.203-48.168 0-87.227-39.035-87.227-87.203 0-48.195 39.059-87.254 87.227-87.254M282.83 1166.3c-63.504 0-124.34-22.234-173.36-63.719-54.852-46.453-88.344-111.48-94.309-183.12-8.063-96.805 36.996-190.81 117.54-245.28 15.238-10.285 36-6.324 46.32 8.941 10.344 15.254 6.324 35.988-8.941 46.31-60.586 41-94.461 111.71-88.402 184.52 4.476 53.878 29.676 102.76 70.922 137.69 41.242 34.944 93.887 51.972 147.5 47.194 87.203-7.222 159.57-69.215 180.07-154.23 4.332-17.89 22.32-28.906 40.246-24.602 17.902 4.297 28.934 22.32 24.602 40.246-27.254 113.05-123.45 195.48-239.39 205.12-7.633.614-15.242.938-22.801.938zM938.59 35.113c51.527 0 93.383 41.82 93.383 93.406 0 51.562-41.855 93.254-93.383 93.254-51.469 0-93.266-41.676-93.266-93.254-.012-51.586 41.797-93.406 93.266-93.406"/><path d="M1053.8 243.21s-220.23-.047-221.04 0c-30.805 0-62.438 24.938-80.195 51.277l-179.15 264.48h-189l-1.453-27.406c-1.738-22.559-11.27-41.555-28.523-57.133-17.352-15.648-37.715-23.016-61.105-22.164-22.535 1.766-41.605 11.316-57.18 28.656-15.625 17.375-22.945 37.633-22.105 61.031l15.59 263.77c1.766 22.523 11.05 41.34 27.984 56.52 16.883 15.168 36.996 22.703 60.383 22.703h235.37l105.32 176.91c9.562 16.5 24.324 24.695 44.23 24.695 13.836 0 25.836-4.754 35.746-14.219 9.937-9.527 14.93-21.227 14.93-35.16 0-9.469-2.567-18.527-7.813-27.18L607.97 775.8c-9.55-16.453-23.398-24.707-41.578-24.707h-171.78l-5.425-102.09h207.91c.046 0 .12.023.168.023.336 0 11.809-.671 22.535-6.253 8.293-4.32 12.863-10.754 14.785-13.547.023-.047.07-.11.097-.157l180.57-262.61.07 745.34c0 29.102 23.544 52.645 52.646 52.645s52.738-23.543 52.738-52.645l.003-456.02h35.746v456.02c0 29.102 23.578 52.645 52.691 52.645 29.102 0 52.633-23.543 52.633-52.645l.004-736.32h32.438l.098 271.5c0 22.188 18.023 40.188 40.188 40.188 22.152 0 40.176-18 40.176-40.188l-.004-300.2c-.012-66.12-56.12-103.59-120.89-103.59z"/></svg>