<svg xmlns="http://www.w3.org/2000/svg" width="1600" height="1600" viewBox="0 0 1200 1200"><path d="m981.6 766.8-218.4-240c-8.398-9.602-20.398-14.398-33.602-14.398h-115.2v127.2h-25.199l-.004-127.2h-115.2c-13.199 0-25.199 4.8-33.602 14.398l-218.4 240c-16.8 18-15.602 46.801 3.602 63.602 18 16.801 46.8 15.602 63.602-3.602l175.2-193.2h103.199v162h-93.602c-9.602 0-16.801 7.2-16.801 16.801 0 9.602 7.2 16.801 16.8 16.801h93.603v326.4c0 19.2 15.602 34.801 34.8 34.801s34.802-15.602 34.802-34.8l-.004-200.4h91.199c8.398 0 16.801-7.2 16.801-16.802s-7.2-16.8-16.801-16.8h-91.199v-288h103.198l175.2 194.4c8.399 9.601 21.602 14.397 33.602 14.397 10.801 0 21.602-3.601 30-12C997.19 813.601 998.39 786 981.593 766.8zM602.4 10.801c45.602 0 81.602 36 81.602 81.598 0 45.602-37.199 81.602-81.602 81.602-45.602 0-81.602-36-81.602-81.602.004-45.598 37.203-81.598 81.602-81.598M920.4 450h-25.199c7.2-13.199 6-30-3.602-42L745.2 224.4c-19.199-24-52.8-33.602-72-33.602l-140.4.004c-19.199 0-52.8 9.602-72 33.602l-146.4 183.6c-9.601 12-10.8 28.8-3.601 42H284.4c-12 0-20.398 9.602-20.398 20.398 0 12 9.601 20.398 20.398 20.398h636c12 0 20.398-9.602 20.398-20.398 1.203-10.797-8.399-20.398-20.398-20.398zm-94.797 0h-116.4l-.004-145.2zm-330-145.2V450h-115.2z"/></svg>