<svg xmlns="http://www.w3.org/2000/svg" width="1600" height="1600" viewBox="0 0 1200 1200"><path d="M1018.7 366.06c-30.684-30.863-80.484-31.043-111.37-.406l-221.27 260.98 74.664 72.133 257.55-221.3c30.852-30.648 31.055-80.496.418-111.4zM493.78 906.73v66.375l247.4-252.73-74.844-73.895-259.84 260.25z"/><path d="M466.68 632.14V509.49H342.59V387.27H139.91v805.74h202.68v-137.96h124.09V932.4H342.59V632.15zM243.35 1025.6c-16.523 0-29.941-13.402-29.941-29.953 0-16.547 13.402-29.941 29.941-29.941 16.535 0 29.953 13.391 29.953 29.941 0 16.547-13.418 29.953-29.953 29.953m0-430.09c-16.523 0-29.941-13.402-29.941-29.941 0-16.523 13.402-29.953 29.941-29.953 16.535 0 29.953 13.414 29.953 29.953-.012 16.539-13.418 29.941-29.953 29.941M922.26 12.145l-224.48 197.3h152.53l-317.34 303.92 121.74-220.74h-96.793l129.27-280.43z"/></svg>