<svg xmlns="http://www.w3.org/2000/svg" width="1600" height="1600" viewBox="0 0 1200 1200"><path d="M457.49 237c0-46.273-37.523-83.734-83.785-83.734-46.211 0-83.746 37.465-83.746 83.734 0 46.246 37.523 83.746 83.746 83.746 46.262 0 83.785-37.5 83.785-83.746M892.42 651.74l297.38 83.957-83.953 297.37-297.38-83.957z"/><path d="M914.98 1014.1 310.35 718.24l-.469-371.72c0-65.27-68.207-83.062-120.83-35.398l-168.79 164.88c-7.164 7.176-10.727 15.816-10.727 26.125l-.004 476.11c0 18.227 6.301 33.492 18.984 45.758 12.637 12.238 27.66 18.371 45.047 18.371 18.277 0 33.648-6.144 46.262-18.371 12.637-12.266 18.973-27.539 18.973-45.758v-385.87l84.66-99.406.301 244.23c.024 23.891 19.414 43.246 43.297 43.246h.047c17.723-.023 32.902-10.727 39.59-25.969l281.63 137.81-90.383 150.05h200.11l-82.32-136.66 284.26 139.11z"/></svg>