<svg xmlns="http://www.w3.org/2000/svg" width="1600" height="1600" viewBox="0 0 1200 1200"><path d="m657.19 39.504 121.16.516-91.199 98.258-121.12-.516zM513.05 38.891l111.31.48-91.164 98.246-111.3-.468zM420.31 259.31l-111.24-.48 91.129-98.23 111.27.464zM398.58 282.76 282.97 407.39l-111.53-.18 115.89-124.93zM544.31 161.21l121.09.516-91.152 98.246-121.04-.516zM241.27 159.91l126.05.543-91.129 98.23-126.07-.527zM354.24 38.207l125.99.54-91.152 98.257-126.02-.539zM128.32 281.64l126.12.492-115.95 125L12 406.941zM530.86 937.01c-30.602 0-56.605 10.656-77.965 32.016-21.359 21.359-32.016 47.363-32.016 77.965 0 29.746 10.656 55.246 32.016 76.609 21.359 21.359 47.363 32.016 77.965 32.016 29.688 0 55.246-10.656 76.609-32.016 21.359-21.359 32.016-46.859 32.016-76.609 0-30.602-10.656-56.605-32.016-77.965-21.359-21.371-46.922-32.016-76.609-32.016m33.434 143.4c-9.29 9.29-20.398 13.945-33.434 13.945-12.973 0-24.133-4.644-33.434-13.945-9.238-9.29-13.883-20.398-13.883-33.434 0-13.945 4.645-25.273 13.883-34.105 9.29-8.785 20.461-13.199 33.434-13.199 13.031 0 24.133 4.414 33.434 13.199 9.29 8.844 13.945 20.172 13.945 34.105-.016 13.035-4.66 24.148-13.945 33.434"/><path d="M1149.1 996.84h-100.23l-.004-348.12c0-53.832-18.816-99.266-56.438-136.44-37.559-37.117-82.836-55.691-135.76-55.691l-122.68.004-181.16-173.23-121.4-.469-115.51 124.55 121.23.227 79.812-85.824 141.13 134.75-453.06.008c-53.879 0-99.383 18.59-136.49 55.69-37.117 37.165-55.69 82.61-55.69 136.44v246.47c0 39.036 13.944 72.407 41.761 100.29 27.875 27.817 61.31 41.763 100.29 41.763h224.21c2.773-40.285 18.527-74.508 47.316-102.61 28.79-28.105 63.574-42.215 104.43-42.215 39.95 0 74.508 14.113 103.74 42.215 29.23 28.105 44.762 61.87 46.691 101.26l506.82-.008c0-26.004-12.984-39.035-38.988-39.035zM537.8 683.55c0 26.004-13.488 38.988-40.402 38.988h-297.97c-26.004 0-38.988-12.973-38.988-38.988v-66.863c0-25.957 12.973-38.988 38.988-38.988h297.97c26.914 0 40.402 13.031 40.402 38.988zm392.71-1.414c0 26.977-13.031 40.402-39.035 40.402h-137.86c-25.957 0-38.988-13.43-38.988-40.402v-65.45c0-25.956 13.031-38.987 38.988-38.987h137.86c26.004 0 39.035 13.03 39.035 38.988z"/></svg>