<svg xmlns="http://www.w3.org/2000/svg" width="1600" height="1600" viewBox="0 0 1200 1200"><path d="M1136.1 291.37c-7.687-24.703-30.234-41.297-56.062-41.297-6 0-11.859.844-17.531 2.625l-80.859 25.312V87.93c0-46.781-29.062-74.156-73.312-74.156h-374.53c-45.141 0-76.781 26.391-76.781 74.156v363.71c-40.922 17.766-69.469 30.375-75.609 33.469-49.453 25.219-86.766 83.062-95.156 106.31-10.312 23.297-240.61 596.76-240.61 596.76h477.47s115.69-48.469 177.14-115.69c25.922-28.312 46.688-66.609 60.938-98.297h150.71c39.703 0 69.609-25.547 69.609-76.547v-43.312h51.141c32.391 0 58.781-26.391 58.781-58.781s-26.391-58.781-58.781-58.781h-51.141v-19.547h52.547c32.391 0 58.781-26.391 58.781-58.781s-26.391-58.781-58.781-58.781h-52.547v-19.547h52.547c32.391 0 58.781-26.391 58.781-58.781s-26.391-58.781-58.781-58.781h-52.547v-61.688l115.92-36.234c15-4.687 27.234-14.859 34.547-28.781 7.313-13.781 8.625-29.766 3.938-44.766zM928.82 910.08H601.11c-1.922 12.375-4.313 25.078-7.688 38.156-21.844 83.766-93.609 130.92-96.609 132.94-2.765 1.781-6 2.766-9.14 2.766-5.531 0-10.922-2.766-14.156-7.688-5.063-7.781-2.766-18.14 5.062-23.297.61-.375 63.844-42.375 82.453-113.3 19.781-75.234 9.844-141.94 9.844-142.69-.234-1.453-.14-2.766 0-4.219h191.16c39.234 0 78.375-23.625 78.375-69.938s-34.547-75.609-78.375-75.609h-324.47v-33.609H509.8V73.782h88.312c.375 21.47 13.781 33.375 33.141 33.375h176.53c18.938 0 31.312-12.375 31.688-33.375h89.625v836.29z"/><path d="m808.92 201.71-42.234-42.234-52.922 52.922-52.922-52.922-42.375 42.234 53.062 52.922-53.062 52.922 42.375 42.234 52.922-52.922 52.922 52.922 42.234-42.234-52.922-52.922zM714.47 427.92h-2.906c-.469 0-.938 0-1.453-.14-.469 0-.938-.141-1.453-.235-.47 0-.938-.234-1.453-.375-.47-.14-.938-.234-1.313-.375-.469-.14-.937-.234-1.312-.469-.47-.14-.844-.375-1.313-.469-.469-.234-.844-.375-1.312-.609s-.844-.375-1.313-.61-.844-.468-1.219-.702-.844-.47-1.219-.703-.843-.61-1.218-.844-.704-.61-1.078-.844c-.375-.375-.704-.61-1.079-.937-.375-.375-.703-.61-1.078-.938-.375-.375-.703-.703-.937-1.078-.375-.375-.61-.703-.938-1.078-.234-.375-.61-.703-.843-1.078s-.61-.703-.844-1.22c-.235-.374-.469-.843-.703-1.218s-.47-.844-.703-1.219c-.235-.468-.47-.843-.61-1.312-.234-.469-.375-.844-.61-1.313s-.374-.843-.468-1.312c-.14-.469-.375-.844-.469-1.313-.14-.468-.234-.937-.375-1.312-.14-.469-.234-.938-.375-1.453 0-.469-.14-.938-.234-1.453 0-.47-.14-.938-.234-1.453v-5.813c0-.469 0-.937.234-1.453 0-.469.14-.938.234-1.453 0-.469.235-.938.375-1.453.14-.469.235-.938.375-1.313.14-.469.235-.937.47-1.312.14-.469.374-.844.468-1.313.234-.469.375-.844.61-1.312s.468-.844.609-1.313c.234-.469.468-.844.703-1.219s.468-.843.703-1.218.469-.844.844-1.22.609-.702.843-1.077c.375-.375.61-.703.938-1.078.375-.375.61-.704.937-1.078.375-.375.703-.704 1.078-.938.375-.375.704-.61 1.079-.937.375-.375.703-.61 1.078-.844s.843-.61 1.218-.844.844-.469 1.22-.703.843-.469 1.218-.703c.469-.235.844-.469 1.313-.61.468-.234.843-.375 1.312-.609s.844-.375 1.313-.469c.468-.14.937-.375 1.312-.469.469-.14.938-.234 1.313-.375.468 0 .937-.234 1.453-.375.468 0 .937-.234 1.453-.234.468 0 .937-.14 1.453-.234h5.765c.47 0 .938 0 1.454.234.468 0 .937.14 1.453.235.468 0 .937.234 1.453.375.468.14.937.234 1.312.375.469.14.938.234 1.313.468.468.14.843.375 1.312.469.469.234.844.375 1.313.61s.843.374 1.312.609c.375.234.844.469 1.219.703s.844.469 1.219.703.844.469 1.219.844.703.61 1.078.844c.375.375.703.609 1.078.937.375.375.703.61 1.078.938.375.375.703.703.937 1.078.375.375.61.703.938 1.078.375.375.61.703.844 1.078s.609.703.843 1.219c.235.375.47.843.704 1.218s.468.844.703 1.22.468.843.609 1.312c.234.468.375.843.61 1.312s.374.844.468 1.313c.14.468.375.937.469 1.312.14.469.234.938.375 1.313.14.468.234.937.375 1.453 0 .469.14.937.234 1.453 0 .469.14.937.14 1.453v5.813c0 .468 0 .937-.14 1.453 0 .468-.14.937-.234 1.453 0 .468-.234.937-.375 1.453 0 .469-.234.937-.375 1.312-.14.47-.234.938-.469 1.313-.14.469-.375.844-.469 1.312-.234.47-.375.844-.609 1.313s-.469.844-.61 1.312c-.234.375-.468.844-.702 1.22s-.47.843-.704 1.218-.609.844-.843 1.219-.61.703-.844 1.078c-.375.375-.61.703-.938 1.078-.375.375-.609.703-.937 1.078-.375.375-.703.703-1.078.938-.375.375-.703.609-1.078.937-.375.375-.703.61-1.078.844s-.704.61-1.22.844c-.374.234-.843.468-1.218.703s-.844.468-1.219.703c-.469.234-.844.468-1.312.61-.47.234-.844.374-1.313.609s-.844.375-1.312.468c-.47.14-.938.375-1.313.469-.469.14-.937.234-1.312.375-.47 0-.938.234-1.453.375-.47 0-.938.234-1.454.234-.468 0-.937.141-1.453.141h-2.906zM685.31 490.45c0-16.078 13.078-29.156 29.156-29.156s29.156 13.078 29.156 29.156-13.078 29.156-29.156 29.156-29.156-13.078-29.156-29.156M714.47 611.39h-2.906c-.469 0-.938 0-1.453-.234-.469 0-.938-.141-1.453-.235-.47 0-.938-.234-1.453-.375-.47-.14-.938-.234-1.313-.375-.469-.14-.937-.234-1.312-.469-.47-.14-.844-.375-1.313-.468-.469-.235-.844-.375-1.312-.61s-.844-.375-1.313-.609-.844-.469-1.219-.703-.844-.469-1.219-.703-.843-.61-1.218-.844-.704-.61-1.078-.844-.704-.61-1.079-.937c-.375-.375-.703-.61-1.078-.938-.375-.375-.703-.703-.937-1.078-.375-.375-.61-.703-.938-1.078-.375-.375-.61-.703-.843-1.078s-.61-.703-.844-1.219c-.235-.375-.469-.844-.703-1.219s-.47-.843-.703-1.218c-.235-.47-.47-.844-.61-1.313-.234-.469-.375-.844-.61-1.312s-.374-.844-.468-1.313c-.14-.469-.375-.937-.469-1.312-.14-.47-.234-.938-.375-1.313s-.234-.937-.375-1.453c0-.469-.234-.938-.234-1.453 0-.469-.14-.938-.234-1.453v-5.813c0-.469 0-.937.234-1.453 0-.469.14-.937.234-1.453 0-.469.235-.937.375-1.453.14-.469.235-.938.375-1.313.14-.468.235-.937.47-1.312.14-.469.374-.844.468-1.313.234-.468.375-.843.61-1.312s.468-.844.609-1.313c.234-.375.468-.843.703-1.218s.468-.844.703-1.22.469-.843.844-1.218c.234-.375.609-.703.843-1.078.375-.375.61-.703.938-1.078.375-.375.61-.703.937-1.078.375-.375.703-.703 1.078-.938.375-.375.704-.61 1.079-.937.375-.375.703-.61 1.078-.844s.843-.61 1.218-.844.844-.469 1.22-.703.843-.469 1.218-.703.844-.469 1.313-.61c.468-.234.843-.374 1.312-.609s.844-.375 1.313-.469c.468-.14.937-.375 1.312-.468.375-.14.938-.235 1.313-.375.468-.14.937-.235 1.453-.375.468 0 .937-.235 1.453-.235.468 0 .937-.14 1.453-.234h5.765c.47 0 .938 0 1.454.234.468 0 .937.141 1.453.235.468 0 .937.234 1.453.375.468.14.937.234 1.312.375s.938.234 1.313.468c.468.141.843.375 1.312.47.469.234.844.374 1.313.609s.843.468 1.312.609c.375.234.844.469 1.219.703s.844.469 1.219.703.844.469 1.219.844c.375.234.703.61 1.078.844.375.375.703.61 1.078.937.375.375.703.61 1.078.938.375.375.703.703.937 1.078.375.375.61.703.938 1.078.375.375.61.703.844 1.078s.609.703.843 1.219c.235.375.47.844.704 1.219s.468.843.703 1.218c.234.47.468.844.609 1.313.234.469.375.844.61 1.312s.374.844.468 1.313c.14.469.375.937.469 1.312.14.47.234.938.375 1.313 0 .469.234.937.375 1.453 0 .469.234.938.234 1.453 0 .469.14.938.14 1.453v5.813c0 .468 0 .937-.14 1.453 0 .469-.14.937-.234 1.453 0 .469-.234.937-.375 1.453-.14.469-.234.938-.375 1.313-.14.468-.234.937-.469 1.312-.14.469-.375.844-.469 1.313-.234.468-.375.843-.609 1.312s-.375.844-.61 1.313c-.234.375-.468.843-.702 1.218s-.47.844-.704 1.22-.609.843-.843 1.218-.61.703-.844 1.078c-.375.375-.61.703-.938 1.078-.375.375-.609.703-.937 1.078-.375.375-.703.703-1.078.938-.375.375-.703.61-1.078.937-.375.375-.703.61-1.078.844s-.704.61-1.22.844c-.374.234-.843.468-1.218.703s-.844.469-1.219.703c-.469.234-.844.469-1.312.61-.47.234-.844.374-1.313.609s-.844.375-1.312.468c-.47.141-.938.375-1.313.47-.469.14-.937.234-1.312.374-.47 0-.938.235-1.453.375-.47 0-.938.235-1.454.235-.468 0-.937.14-1.453.234h-2.906z"/></svg>