<svg xmlns="http://www.w3.org/2000/svg" width="1600" height="1600" viewBox="0 0 1200 1200"><path d="M957.61 578.39c-66-45.609-82.781-135.61-37.219-201.61 45.609-66 135.61-82.781 201.61-37.219 66 45.609 82.781 135.61 37.219 201.61-45.609 66-135.61 82.781-201.61 37.219M858 430.78l-238.78-76.781v57.609l235.18 78z"/><path d="m540 722.39 264 26.391c9.61 0 18 9.61 16.781 20.391 0 9.61-9.61 16.781-19.219 16.781l-145.22-14.391s-99.609 148.78-154.78 391.22h348c28.781-42 86.391-128.39 126-196.78 110.39-188.39 74.391-366-109.22-382.78h-278.39l-2.39-271.22c3.609-92.391-122.39-99.609-129.61-6l-7.22 321.61s-7.218 91.219 92.392 93.609h-1.22zM418.78 286.78l-162-56.391s-60-19.219-84-61.219c-25.219-45.609 0-111.61 0-111.61l-52.781-16.781-102 307.22L70.78 364.78s13.219-69.609 62.391-88.781c39.609-15.609 106.78 7.219 106.78 7.219l180 58.78V286.78z"/><path d="m418.78 501.61-140.39-48c-26.391-9.61-34.781-32.391-28.781-49.219 2.39-7.219 13.219-28.781 51.609-16.781l117.61 40.781V387.61l-105.61-36c-52.781-16.781-88.781 9.61-99.609 40.781-12 33.609 2.39 79.219 51.609 98.391l153.61 52.781v-40.781z"/></svg>