<svg xmlns="http://www.w3.org/2000/svg" width="1600" height="1600" viewBox="0 0 1200 1200"><path d="M912.07 324.53c-103.11 0-193.05 56.305-240.9 139.82H114.48l-93.562 94.754c-14.641 14.891-13.801 27.516-.422 40.957l116.21 117.76 1.633.54 69.203-70.079 67.512 68.438 66.406-67.273 66.445 67.273 66.37-67.273 86.34 87.445h108.83c47.439 85.117 138.27 142.78 242.63 142.78 153.29 0 277.56-124.32 277.56-277.6.005-153.3-124.27-277.54-277.56-277.54zM650.91 584.22H208.32v-27.145h442.6zm323.92-92.613c17.102 0 30.938 13.848 30.938 30.898 0 17.051-13.836 30.805-30.938 30.805-17.004 0-30.816-13.754-30.816-30.805s13.812-30.898 30.816-30.898m-112.69 0c17.102 0 30.898 13.848 30.898 30.898 0 17.051-13.801 30.805-30.898 30.805-17.016 0-30.828-13.754-30.828-30.805s13.812-30.898 30.828-30.898m56.363 266.06c-78.805 0-142.93-64.129-142.93-142.93h28.488c0 63.133 51.324 114.49 114.45 114.49 63.145 0 114.53-51.359 114.53-114.49h28.477c0 78.805-64.164 142.93-143 142.93z"/></svg>