<svg xmlns="http://www.w3.org/2000/svg" width="1600" height="1600" viewBox="0 0 1200 1200"><path d="M734.21 111.84c0 52.883-42.816 95.773-95.746 95.773-52.906 0-95.746-42.898-95.746-95.773 0-52.895 42.84-95.773 95.746-95.773 52.918-.012 95.746 42.879 95.746 95.773M380.12 73.477c-72.742-17.629-145.79 27.035-163.33 99.695l-58.98 243.79 198.46 49.285-6.516 26.258-198.3-49.262-19.223 79.488c-14.137 58.117 10.297 86.305 68.555 101.38 8.52 2.172 101.69 23.641 138.83 32.16l-14.723 58.957c-2.27 9.035 3.239 18.254 12.312 20.496 1.442.336 5.856 1.309 7.262 1.285a16.93 16.93 0 0 0 16.262-12.816l119.1-487.37c17.56-72.652-27.082-145.78-99.703-163.35zm10.066 279.97-144.23-36.023 29.195-120.97 24.109 5.809-23.426 97.055 96.336 24.047 24.215-96.035 24.047 6.07z"/><path d="M1035.2 228.65H590.77c-3.54 0-10.367.55-13.199 1.356-52.43 8.988-71.664 71.352-71.664 71.352l-55.391 232.73 157.19-91.68-14.27-30.853c-3.11-6.718-.18-14.688 6.54-17.734 6.671-3.168 14.64-.214 17.745 6.516l18.77 40.453c.024.11.11.18.156.254.157.215.133.422.215.66l36.227 78.098 3.649 7.402c2.125 4.165 9.77 11.977 16.895 14.88l145.7 55.608-93.04 159.99-122.02-114.57 24.435-112.19-29.688-64.105-177.09 103.29-68.52 287.69-145.04 226.89c-5.375 7.57-8.063 16.57-8.063 27.312-2.137 18.18 2.7 33.938 14.461 47.426 11.746 13.332 26.785 21.06 44.977 23.27 26.773 2.063 47.113-8.64 60.996-32.184l154.73-242.81c3.191-6.492 7.453-15.492 12.863-27.422l30.77-129.6 143 117.29-169.06 290.59c-4.633 7.993-1.906 18.238 6.059 22.906a16.5 16.5 0 0 0 8.41 2.282 16.79 16.79 0 0 0 14.473-8.34l144.42-248.29-.203 196.82c6.48 31.078 26.27 48.203 59.46 51.469 18.18 1.055 33.962-4.274 47.34-16.055 13.345-11.891 20.579-26.293 21.638-43.367V1101.5l-1.211-245.52c0-19.391-4.5-38.746-16.812-51.023l-25.246-23.81 100.67-173.16c26.746 1.61 45.96-13.644 49.836-40.042 2.629-17.45-9-33.562-22.906-38.81l-150.02-53.425-58.79-161.34h345.06c23.665 0 42.84-19.188 42.84-42.852-.015-23.688-19.202-42.863-42.854-42.863z"/></svg>