<svg xmlns="http://www.w3.org/2000/svg" width="1600" height="1600" viewBox="0 0 1200 1200"><path d="M369.52 590.28c20.82-12.301 27.695-39.445 15.254-60.504-12.504-21.109-39.539-28.129-60.359-15.793-20.867 12.336-27.707 39.359-15.238 60.469 12.43 21.035 39.465 28.164 60.344 15.828"/><path d="M955.32 735.59c113.52-53.895 187.43-173.99 176.25-306.59-14.398-170.86-164.58-297.7-335.44-283.3-170.86 14.398-297.7 164.58-283.3 335.44 1.992 23.578 6.648 46.285 13.5 67.945-4.477-1.477-9.434-1.633-14.219.035l-187.3 65.867c-.215.07-5.941 2.184-6.168 2.27-10.68 3.73-19.066 16.105-21.84 23.543l-120.87 322.46c-.156.394-.168.757-.3 1.152-.337 1.02-.59 2.05-.794 3.098-.058.347-.133.695-.18 1.03-1.8 11.34 3.684 23.017 14.485 28.442 3.625 1.824 7.453 2.7 11.242 2.832L7.276 1067.38h1184.8l-.004-414.66zM604.31 390.13c13.754-55.789 48.277-101.24 94.715-124.69 9.29-4.691 20.594-.96 25.285 8.316 4.68 9.278.96 20.594-8.316 25.285-36.637 18.504-64.031 54.984-75.156 100.11-2.114 8.579-9.793 14.316-18.254 14.316-1.5 0-3-.168-4.524-.55-10.078-2.489-16.246-12.691-13.75-22.781zM372.35 693.27c8.016-18.852 13.68-39.168 13.969-53.062l140.44-49.297c5.184-1.812 9.18-5.398 11.746-9.805 52.188 117.49 174.47 194.72 309.79 183.32 15.406-1.297 30.445-3.742 45.07-7.164l-413.81 144.83c8.04-7.078 11.473-18.55 7.715-29.28l-37.078-106.07a27.13 27.13 0 0 0-21.625-17.88l-78.457-11.578zM225.55 984.9l88.68-176.29 91.512-4.79 30.359 86.868c3.758 10.738 13.598 17.594 24.301 18.109l-241.37 84.48a27.3 27.3 0 0 0 6.516-8.375z"/></svg>