<svg xmlns="http://www.w3.org/2000/svg" width="1600" height="1600" viewBox="0 0 1200 1200"><path d="M275.16 1105.4c-11.258 0-20.438-9.168-20.438-20.41 0-11.305 9.18-20.484 20.438-20.484 11.305 0 20.496 9.18 20.496 20.484-.012 11.254-9.191 20.41-20.496 20.41M213.8 1105.4c-11.258 0-20.426-9.168-20.426-20.41 0-11.305 9.168-20.484 20.426-20.484 11.305 0 20.496 9.18 20.496 20.484 0 11.254-9.191 20.41-20.496 20.41M152.45 1105.4c-11.258 0-20.438-9.168-20.438-20.41 0-11.305 9.191-20.484 20.438-20.484 11.316 0 20.438 9.18 20.438 20.484-.004 11.254-9.121 20.41-20.438 20.41M91.094 1105.4c-11.242 0-20.438-9.168-20.438-20.41 0-11.305 9.191-20.484 20.438-20.484 11.316 0 20.449 9.18 20.449 20.484-.004 11.254-9.137 20.41-20.449 20.41M29.746 1105.4c-11.258 0-20.438-9.168-20.438-20.41 0-11.305 9.18-20.484 20.438-20.484 11.305 0 20.496 9.18 20.496 20.484 0 11.254-9.191 20.41-20.496 20.41M522.86 817.54 397.52 668.12h99.672l-125.16-177.85h-226.5l207.62 121.57h-133.8zM682.62 197.4c46.176-.215 83.676-37.68 83.711-83.746-.035-46.367-37.535-83.734-83.711-83.676-46.188-.059-83.629 37.309-83.762 83.676.133 46.066 37.574 83.531 83.762 83.746"/><path d="M1076.4 966.74c-4.21 0-8.328.277-12.422.742l-114.82-414.25-.098-.012c18.648-.984 35.137-14.148 39.445-33.254 5.172-23.016-9.289-45.863-32.316-51.035l-177.93-39.996c-2.183-38.496-8.53-86.28-24.926-127.33-14.23-35.617-33.96-59.797-52.68-74.988-36.156-26.05-94.355-5.136-94.355 67.391l-.214 704.59c-28.836-57.434-88.285-96.973-156.82-96.973-48.168 0-93.086 19.164-126.47 53.902-7.106 7.391-6.864 19.164.527 26.258 7.39 7.118 19.152 6.875 26.258-.527 26.316-27.395 61.727-42.48 99.672-42.48 69.383 0 126.98 51.383 136.75 118.09H557.56c-9.492-51.18-54.406-90.109-108.31-90.109-60.793 0-110.24 49.453-110.24 110.26 0 60.781 49.453 110.24 110.24 110.24 50.484 0 93.047-34.152 106.07-80.53h305.51a24.88 24.88 0 0 0 18.863-8.653l127.64-148.08 9.539 34.344c-30.48 19.633-50.746 53.785-50.746 92.676 0 60.78 49.44 110.24 110.24 110.24 60.78 0 110.26-49.453 110.26-110.24.016-60.824-49.45-110.28-110.24-110.28zm-627.12 143.79c-18.504 0-33.551-15.047-33.551-33.539 0-18.504 15.059-33.562 33.551-33.562 18.504 0 33.551 15.059 33.551 33.562 0 18.492-15.047 33.539-33.551 33.539m536.34-211.69-136.18 158H699.82l72.648-515.4-69.047-15.445a12.83 12.83 0 0 1-9.406-8.258l-56.316-158.26c-2.363-6.672 1.152-13.992 7.8-16.355 6.672-2.351 13.98 1.14 16.356 7.813l53.93 151.51 178.66 40.078 97.332 351.28c-2.235 1.347-4.36 2.941-6.16 5.03zm90.781 211.69c-18.504 0-33.551-15.047-33.551-33.539 0-18.504 15.047-33.562 33.551-33.562 18.516 0 33.551 15.059 33.551 33.562 0 18.492-15.035 33.539-33.551 33.539"/></svg>