<svg xmlns="http://www.w3.org/2000/svg" width="1600" height="1600" viewBox="0 0 1200 1200"><path d="M819.6 841.2v-70.801h-204v-108l112.8-172.8H453.6l117.6 172.8v108H370.8V841.2h200.4v48H370.8v70.801h200.4v93.602H372v135.6h444v-135.6H615.6v-93.602h204V889.2h-204v-48z"/><path d="M789.6 487.2c-7.2 22.801-13.199 62.398-4.8 128.4 7.198 61.199 33.601 100.8 33.601 100.8h40.801v398.4c0 99.602 130.8 99.602 129.6 0l-.004-409.2c0-106.8-76.8-212.4-199.2-218.4zM398.4 487.2c7.2 22.801 13.199 62.398 4.8 128.4-7.198 61.199-33.601 100.8-33.601 100.8h-40.801v398.4c0 99.602-130.8 99.602-129.6 0l.004-409.2c0-106.8 76.8-212.4 199.2-218.4zM442.8 282c0 3.602-1.2 7.2-1.2 10.801 0 86.398 67.2 156 148.8 156 82.802 0 148.8-69.602 148.8-156 0-3.602 0-7.2-1.198-10.801zM784.8 213.6C775.198 124.799 723.601 52.8 655.2 24v135.6c0 8.398-6 14.398-14.398 14.398s-14.398-6-14.398-14.398l-.004-144c-12-2.402-22.797-3.602-34.797-3.602s-22.8 1.2-34.8 3.602v145.2c0 8.398-6 14.398-14.399 14.398s-14.398-6-14.398-14.398l-.004-135.6c-68.398 28.801-120 100.8-130.8 189.6h-50.398v37.199h488.4v-38.398z"/></svg>