<svg xmlns="http://www.w3.org/2000/svg" width="1600" height="1600" viewBox="0 0 1200 1200"><path d="M678.25 574.45c-7.379 0-14.148-4.934-16.141-12.406-6.973-26.125-16.812-51.742-29.242-76.164-70.805-139.13-214.38-218.28-349.02-192.64-9.035 1.813-17.809-4.2-19.547-13.285-1.727-9.059 4.223-17.82 13.285-19.547 149.23-28.43 307.59 58.008 385.09 210.29 13.5 26.508 24.18 54.336 31.754 82.715 2.375 8.914-2.914 18.086-11.844 20.461a16.7 16.7 0 0 1-4.336.578zM749.17 523.3h-.516c-9.214-.29-16.477-7.98-16.199-17.207.73-24.781 4.297-49.68 10.61-74.004 19.5-75.434 64.175-141.1 125.79-184.86 7.5-5.375 17.952-3.602 23.304 3.937 5.34 7.524 3.575 17.953-3.96 23.293-55.189 39.227-95.243 98.172-112.77 166-5.688 21.938-8.891 44.34-9.563 66.625-.266 9.067-7.695 16.22-16.695 16.22zM700.62 416.26c-8.387 0-15.637-6.3-16.598-14.832-2.594-23.113-7.906-46.211-15.742-68.605-27.133-77.473-84.035-142.95-156.12-179.63-8.23-4.188-11.496-14.258-7.309-22.488 4.176-8.23 14.242-11.484 22.488-7.309 79.668 40.56 142.54 112.86 172.49 198.37 8.688 24.77 14.555 50.316 17.426 75.91 1.032 9.18-5.566 17.45-14.746 18.48-.64.075-1.25.102-1.886.102zM316.69 400.16c-6.086 0-11.965-3.336-14.902-9.144l-29.363-57.684c-4.187-8.22-.91-18.301 7.309-22.488 8.218-4.176 18.289-.91 22.477 7.308l29.352 57.684c4.187 8.23.91 18.301-7.309 22.488a16.64 16.64 0 0 1-7.563 1.836zM189.09 380.51a16.67 16.67 0 0 1-11.004-4.129c-6.937-6.086-7.644-16.645-1.559-23.578l44.45-50.746c6.097-6.96 16.644-7.644 23.593-1.558 6.938 6.085 7.645 16.633 1.559 23.578l-44.449 50.746c-3.316 3.78-7.95 5.687-12.59 5.687M224.28 279.52a16.7 16.7 0 0 1-6.469-1.309l-65.566-27.539c-8.496-3.562-12.504-13.355-8.941-21.887 3.562-8.496 13.39-12.527 21.875-8.93l65.566 27.528c8.508 3.574 12.516 13.367 8.941 21.875-2.676 6.41-8.879 10.262-15.406 10.262zM268.21 242.77c-.875 0-1.754-.07-2.652-.227-9.11-1.441-15.324-10.008-13.871-19.129l8.93-56.074c1.452-9.132 10.007-15.406 19.128-13.883 9.121 1.442 15.336 10.008 13.883 19.13l-8.93 56.073c-1.308 8.239-8.421 14.11-16.487 14.11zM458.06 229.15c-2.328 0-4.703-.504-6.96-1.535-8.388-3.84-12.07-13.766-8.22-22.152l20.832-45.348c3.852-8.399 13.79-12.11 22.176-8.219 8.375 3.84 12.06 13.766 8.207 22.152l-20.832 45.348c-2.816 6.129-8.879 9.754-15.203 9.754zM488.35 98.113c-6.863 0-13.309-4.273-15.758-11.113l-19.055-53.594c-3.098-8.7 1.453-18.254 10.141-21.359 8.7-3.047 18.254 1.465 21.359 10.152l19.055 53.594c3.098 8.7-1.441 18.254-10.141 21.348-1.855.66-3.73.973-5.602.973zM541.13 108.98a16.7 16.7 0 0 1-14.762-8.879c-4.332-8.148-1.234-18.277 6.91-22.609l39.516-21c8.149-4.297 18.266-1.246 22.61 6.91 4.343 8.16 1.234 18.277-6.911 22.61l-39.527 21a16.75 16.75 0 0 1-7.836 1.968zM907.86 585.86c-1.777 0-3.613-.29-5.41-.91-8.746-3-13.367-12.504-10.38-21.238l16.849-49.031c2.988-8.735 12.48-13.38 21.254-10.38 8.722 3 13.367 12.517 10.355 21.255l-16.836 49.03c-2.39 6.919-8.871 11.274-15.832 11.274zM1006 558.6a16.7 16.7 0 0 1-11.426-4.5l-37.836-35.461c-6.73-6.312-7.078-16.895-.781-23.629 6.324-6.73 16.895-7.078 23.64-.781l37.849 35.449c6.742 6.312 7.078 16.895.758 23.629A16.66 16.66 0 0 1 1006 558.6zM465.56 134.15a16.59 16.59 0 0 1-11.676 3.781l-51.742-3.265c-9.215-.59-16.223-8.543-15.637-17.746.59-9.192 8.52-16.2 17.734-15.625l51.742 3.277c9.227.601 16.211 8.52 15.637 17.734-.32 4.8-2.613 9-6.059 11.844zM904.27 494.57c-3.168 2.606-7.273 4.066-11.688 3.781l-46.344-2.687c-9.203-.59-16.223-8.543-15.637-17.746.59-9.192 8.52-16.188 17.734-15.613l46.344 2.699c9.238.59 16.223 8.52 15.648 17.734-.324 4.789-2.605 9-6.059 11.832zM924.72 460.27c-7.367 0-14.125-4.922-16.129-12.383l-13.297-49.367c-2.41-8.914 2.867-18.07 11.773-20.496 8.89-2.34 18.098 2.867 20.473 11.797l13.32 49.367c2.398 8.93-2.867 18.086-11.785 20.496-1.437.39-2.926.586-4.355.586zM972.56 476.63a16.73 16.73 0 0 1-14.762-8.879c-4.332-8.16-1.234-18.277 6.926-22.598l36.816-19.586c8.16-4.332 18.266-1.246 22.609 6.91 4.32 8.16 1.234 18.277-6.91 22.598l-36.844 19.586a16.54 16.54 0 0 1-7.836 1.97zM868.09 232.62a16.6 16.6 0 0 1-7.644-1.871l-46.848-24.184c-8.22-4.235-11.426-14.305-7.2-22.523 4.246-8.207 14.328-11.41 22.523-7.176l46.86 24.18c8.195 4.235 11.41 14.305 7.187 22.512-2.977 5.762-8.809 9.063-14.88 9.063zM911.26 209.32c-.91 0-1.848-.086-2.785-.238-9.098-1.524-15.254-10.152-13.727-19.246l8.375-49.945c1.523-9.11 10.176-15.168 19.246-13.727 9.11 1.523 15.254 10.14 13.727 19.246l-8.364 49.945c-1.39 8.168-8.468 13.965-16.473 13.965zM943.43 244.13c-7.633 0-14.508-5.258-16.285-12.984-2.062-9 3.563-17.965 12.551-20.027l56.473-12.984c8.988-2.004 17.953 3.55 20.016 12.551 2.074 9-3.54 17.965-12.539 20.027l-56.473 12.984c-1.246.29-2.508.434-3.742.434zM945.68 331.12c-6.121 0-12.012-3.371-14.953-9.227l-20.762-41.328c-4.129-8.257-.805-18.289 7.441-22.44 8.243-4.141 18.29-.829 22.43 7.44l20.773 41.329c4.153 8.258.805 18.289-7.441 22.44a16.6 16.6 0 0 1-7.488 1.786zM259.5 670.99c-28.547 0-51.758 23.23-51.758 51.781 0 28.547 23.219 51.84 51.758 51.84 28.523 0 51.816-23.258 51.816-51.84.012-28.551-23.293-51.781-51.816-51.781M490.61 528.54c-32.219 0-58.414 26.207-58.414 58.414s26.195 58.465 58.414 58.465c32.195 0 58.465-26.242 58.465-58.465.012-32.207-26.27-58.414-58.465-58.414M733.77 639.3c-32.23 0-58.402 26.219-58.402 58.414 0 32.219 26.195 58.477 58.402 58.477 32.172 0 58.441-26.258 58.441-58.477.031-32.195-26.27-58.414-58.441-58.414M674.84 1193.9h121.74l.004-204.41h45.625l-.098-164.99c0-28.871-23.328-52.285-52.164-52.285h-108.8c-28.812 0-52.188 23.41-52.188 52.285l-.18 164.99h46.067zM432.07 1193.9h121.74l.004-275.8h45.562l-.106-203.15c0-28.883-23.352-52.273-52.152-52.273h-108.83c-28.812 0-52.164 23.387-52.164 52.273l-.109 203.15h46.066zM205.77 991.29v202.63h107.89V991.29h40.391l.012-155.12c0-25.609-20.746-46.344-46.355-46.344H211.06c-25.586 0-46.332 20.746-46.332 46.344l.203 155.12zM969.24 714.34c-28.535 0-51.758 23.23-51.758 51.781 0 28.547 23.23 51.828 51.758 51.828 28.523 0 51.816-23.258 51.816-51.828 0-28.551-23.289-51.781-51.816-51.781M915.5 1031.7v162.25h107.89V1031.7h40.391l.012-152.15c0-25.609-20.746-46.355-46.344-46.355h-96.66c-25.586 0-46.332 20.746-46.332 46.355l.203 152.15z"/></svg>