<svg xmlns="http://www.w3.org/2000/svg" width="1600" height="1600" viewBox="0 0 1200 1200"><path d="m408.37 491.03.121.07c10.621 6.54 65.242 28.98 126.47-28.402 24.59-24.973 36.238-62.988 36.238-62.988s-26.16 11.746-46.559 3.887c-13.824-5.363-27.602-21.887-30.18-25.188-6.36-7.152-14.28-13.246-23.508-17.438-35.988-16.332-78.504 0-94.836 36.324-15.96 35.449-1.441 76.285 32.254 93.734zM308.93 770.3l36.254-144.84 17.242.348-29.328 144.49h237.21l-29.328-144.49 17.242-.348L594.46 770.3h63.348l-46.332-179.98c-5.953-24.168-25.367-67.379-77.762-69.254h-164.45c-52.402 1.871-71.398 45.086-77.352 69.254L245.58 770.3zM697.33 876.59v31.297L497 907.883v-31.297l-487.81.004c0 43.285 35.41 78.707 78.695 78.707h1020.3c43.285 0 78.707-35.41 78.707-78.707z"/><path d="M1085.8 859.59H103.91V311.44c0-47.473 38.629-64.691 64.621-64.691h852.65c47.426 0 64.621 38.711 64.621 64.691zm-934.97-46.969h888.05v-501.18c-.55-17.723-13.465-17.723-17.699-17.723l-852.42-.004c-17.93.55-17.93 13.465-17.93 17.723z"/><path d="M738.5 335.65v195.56h233.7V335.65zm116.58 27.875c19.5 0 35.305 15.805 35.305 35.305s-15.805 35.305-35.305 35.305-35.305-15.805-35.305-35.305 15.805-35.305 35.305-35.305m72.945 133.68h-145.37v-22.512c0-17.508 12.84-33.961 31.559-38.184 10.223 11.102 24.574 18.289 40.859 18.289 16.344 0 30.719-7.262 40.957-18.434 19.02 3.973 32.004 20.484 32.004 38.172v22.668zM738.5 573.52v195.55h233.7V573.52zm116.58 27.875c19.5 0 35.305 15.805 35.305 35.305s-15.805 35.305-35.305 35.305-35.305-15.805-35.305-35.305c0-19.488 15.805-35.305 35.305-35.305m72.945 133.7h-145.37v-22.512c0-17.508 12.84-33.961 31.559-38.184 10.223 11.102 24.574 18.289 40.859 18.289 16.344 0 30.719-7.262 40.957-18.434 19.02 3.973 32.004 20.484 32.004 38.172v22.668z"/></svg>