<svg xmlns="http://www.w3.org/2000/svg" width="1600" height="1600" viewBox="0 0 1200 1200"><path d="M239.79 808.13c8.856-20.629 32.746-30.145 53.363-21.289l33.742 14.484-150.59-138.8c-17.293-15.949-18.359-42.898-2.496-60.266 16.02-17.316 42.984-18.445 60.336-2.484l160.85 148.26-160.73-240.49c-14.293-21.48-8.484-50.484 12.887-64.86 21.504-14.292 50.508-8.519 64.87 12.888l127.86 191.44 17.427 166.23c.973 8.988 8.93 15.406 17.902 14.53 6-.695 10.98-4.558 13.223-9.804 1.043-2.45 1.5-5.207 1.246-8.074l-9.707-93.863c-4.031-30.77-4.547-93.887 24.816-139.41 24.457-37.801 61.188-65.855 104.57-78.145 24.551-6.985 50.102 7.332 57.059 31.895 6.926 24.516-7.309 50.074-31.871 57.012-21.406 6.133-39.73 19.777-51.613 38.578-12.852 20.387-17.027 44.398-11.699 67.945 5.258 23.426 19.367 43.488 39.684 56.363 41.988 26.52 97.754 14.004 124.3-27.984 26.543-41.734 14.016-97.836-27.973-124.37-21.527-13.656-27.719-42.191-14.328-63.742 13.598-21.574 42.145-27.973 63.742-14.316 46.777 29.578 75.254 77.184 82.68 128.1l54.336 219.95 120.19 51.637.66 268.86-753.45-326.88c-20.625-8.82-30.156-32.723-21.285-53.387z"/><path d="M844.98 139.71c-16.777-17.281-41.363-22.391-62.785-15.156 1.234-.996 2.426-2.09 3.59-3.215 23.953-23.242 24.516-61.523 1.246-85.488-23.242-23.953-61.512-24.516-85.488-1.246-9.133 8.879-14.867 19.945-17.172 31.56-1.945-11.677-7.367-22.896-16.246-32.052-23.258-23.953-61.547-24.504-85.512-1.246-23.93 23.23-24.504 61.512-1.235 85.488a65 65 0 0 0 3.481 3.336c-21.191-7.883-45.91-3.516-63.203 13.273-23.965 23.258-24.504 61.523-1.262 85.5 16.79 17.27 41.398 22.367 62.785 15.156-1.222.996-2.41 2.09-3.59 3.215-23.953 23.258-24.516 61.535-1.246 85.488 23.258 23.953 61.512 24.504 85.488 1.246 3.168-3.059 5.762-6.48 8.114-9.996v203.15c0 4.933 4.02 8.988 8.976 8.988 4.906 0 8.942-4.043 8.942-8.988l-.008-202.19c2.137 3.336 4.523 6.562 7.367 9.515 23.281 23.953 61.56 24.516 85.5 1.246 23.965-23.258 24.527-61.523 1.262-85.477a66 66 0 0 0-3.492-3.347c21.18 7.883 45.91 3.504 63.215-13.273 23.965-23.238 24.539-61.531 1.273-85.484zM710.3 208.519c-15.707 15.254-40.801 14.891-56.051-.828-15.266-15.707-14.891-40.812.816-56.051 15.707-15.254 40.812-14.88 56.062.816 15.25 15.707 14.88 40.801-.828 56.062z"/></svg>