<svg xmlns="http://www.w3.org/2000/svg" width="1600" height="1600" viewBox="0 0 1200 1200"><path d="M618.85 978.07a19.8 19.8 0 0 1-19.848 19.848c-11.027 0-19.895-8.832-19.895-19.848s8.867-19.895 19.895-19.895c10.98 0 19.848 8.867 19.848 19.895m0 64.176c0 11.016-8.867 19.895-19.848 19.895a19.844 19.844 0 0 1-19.895-19.895c0-11.004 8.867-19.848 19.895-19.848 10.98-.012 19.848 8.844 19.848 19.848m0 64.227c0 10.98-8.867 19.848-19.848 19.848-11.027 0-19.895-8.867-19.895-19.848a19.85 19.85 0 0 1 19.895-19.895c10.98.012 19.848 8.879 19.848 19.895m0 64.176c0 10.98-8.867 19.895-19.848 19.895-11.027 0-19.895-8.914-19.895-19.895s8.867-19.871 19.895-19.871c10.98 0 19.848 8.89 19.848 19.871M558.04 978.07c0 11.016-8.867 19.848-19.883 19.848-10.691 0-19.883-8.832-19.883-19.848s9.191-19.895 19.883-19.895c11.004 0 19.883 8.867 19.883 19.895m0 64.176c0 11.016-8.867 19.895-19.883 19.895-10.691 0-19.883-8.867-19.883-19.895 0-11.004 9.191-19.848 19.883-19.848 11.004-.012 19.883 8.844 19.883 19.848m0 64.227c0 10.98-8.867 19.848-19.883 19.848-10.691 0-19.883-8.867-19.883-19.848 0-11.016 9.191-19.895 19.883-19.895 11.004.012 19.883 8.879 19.883 19.895M677.77 978.07c0 11.016-8.867 19.848-19.871 19.848-10.703 0-19.895-8.832-19.895-19.848s9.191-19.895 19.895-19.895c11 0 19.871 8.867 19.871 19.895m0 64.176c0 11.016-8.867 19.895-19.871 19.895-10.703 0-19.895-8.867-19.895-19.895 0-11.004 9.191-19.848 19.895-19.848a19.81 19.81 0 0 1 19.871 19.848m0 64.227c0 10.98-8.867 19.848-19.871 19.848-10.703 0-19.895-8.867-19.895-19.848 0-11.016 9.191-19.895 19.895-19.895a19.856 19.856 0 0 1 19.871 19.895M485.11 642.43c-11.715-75.914-11.988-157.5-.492-242.83 11.074-82.559 29.977-156.57 56.207-219.98.086-.203.527-1.223.55-1.297a10.67 10.67 0 0 1 13.2-6.422c5.363 1.727 8.293 7.465 6.574 12.816-20.531 63.613-33.145 137.18-37.465 218.62-4.586 85.078 2.293 165.43 20.125 239.09h241.4c12.109-75.012 12.793-156.67 1.441-241.46C751.673 140.527 649 42.327 618.33 18.427c0 0-7.262-6.11-20.074-6.672-9.851-.422-19.535 6.793-19.535 6.793-30.637 23.902-133.27 122.26-168.13 382.43-11.449 84.984-10.922 166.55.828 241.46z"/><path d="M789.31 664.71H406.67c-11.102 10.777-22.32 23.676-32.977 39.684-34.008 51.203-41.137 134.38-41.137 195.09 0 39.59 2.988 67.957 3.098 69.133l.383 3.516 3.046 2.785c4.079 3.805 11.867 7.402 21.54 6.168 5.062-.613 14.09-3.024 18.011-12.516l4.442-10.801c14.125-34.38 43.488-105.97 66.086-131.06 13.633-15.121 28.906-28.391 43.547-39.47v.313l.156 4.055c1.309 18.238 17.578 31.535 30.36 39.227-8.93 9.73-21.72 25.246-28.524 40.922-8.125 18.637-9.348 36.996-9.348 46.344l.973 16.066 224.55-.059.961-15.91c0-9.347-1.246-27.77-9.371-46.414-6.863-15.91-19.906-31.57-28.824-41.28 11.797-7.622 26.578-20.689 27.875-38.618l.144-4.14c0-.602-.023-1.211-.023-1.79 15.098 11.34 31.008 24.985 45.191 40.728 22.715 25.223 52.117 97.03 66.238 131.51l4.297 10.367c3.984 9.492 12.984 11.94 18.035 12.516 9.672 1.234 17.46-2.387 21.527-6.168l3.047-2.785.37-3.516c.122-1.176 3.11-29.484 3.11-69.07 0-60.77-7.117-143.94-41.16-195.14-10.652-16.008-21.887-28.906-32.984-39.672z"/></svg>