<svg xmlns="http://www.w3.org/2000/svg" width="1600" height="1600" viewBox="0 0 1200 1200"><path d="M975.04 445.62 800.22 254.6c-2.93-3.215-8.797-9.707-12.406-12.637-12.805-10.523-37.246-19.645-68.941-20.34h-37.57c-14.578-11.93-30.312-20.125-46.957-24.086 45.434-5.543 80.734-44.102 80.734-91.066 0-50.762-41.23-91.945-91.945-91.945-50.688 0-91.812 41.184-91.812 91.945 0 41.723 27.805 76.836 65.844 88.031h-221.31c-19.031 0-37.141 5.746-54.023 15.949l-24.551-65.594c-3.07-8.207-12.254-12.406-20.461-9.312-8.207 3.07-12.383 12.227-9.313 20.46l27.996 74.832c-51.098 50.004-85.055 146.99-85.055 260.9 0 166.67 72.66 297.23 165.39 297.23h112.82l.614 405.39c0 1.895.383 3.672.55 5.508h113.51c.169-1.836.54-3.613.54-5.507v-405.4h7.609c11.965 0 23.578-2.258 34.766-6.407l-.004 411.8c0 1.895.371 3.672.54 5.508h113.45c.167-1.836.55-3.613.55-5.508l.004-573.45c.574-2.23 1.2-4.39 1.754-6.648 1.441 2.605 3.11 5.125 5.101 7.5 9.29 11.102 22.621 16.824 36.047 16.824 10.621 0 21.29-3.59 30.098-10.934l136.71-114.36a47.02 47.02 0 0 0 16.738-32.88c.836-12.776-3.554-25.354-12.207-34.796zM536.26 226.27c-21.613 19.43-40.355 46.992-55.078 80.723h-200.2c24.434-49.465 58.199-80.723 94.871-80.723zM243.27 522.66h203.68c2.867 52.031 12.984 99.59 28.441 139.78h-200.85c-16.75-38.988-28.031-87.277-31.27-139.78zm202.86-31.777H242.26c.086-56.148 9.574-108.73 25.332-152.11h201.59c-14.535 44.246-22.973 96.039-23.055 152.11zM290.6 694.213h197.9v-2.281c13.453 26.746 29.555 48.91 47.762 65.27h-160.41c-32.086 0-61.918-23.926-85.258-62.988zm187.27-202.48c0-143.89 61.199-265.46 133.63-265.46s133.62 121.57 133.62 265.46c0 11.652-.54 23.074-1.309 34.391l-80.773-61.488c-6.996-5.316-16.957-3.973-22.262 3.012-5.316 6.984-3.96 16.957 3.024 22.262l96.086 73.14c-16.152 110.54-68.352 194.15-128.39 194.15-72.434 0-133.63-121.57-133.63-265.46zm325.8 38.703v-133.13l68.965 75.457z"/></svg>