<svg xmlns="http://www.w3.org/2000/svg" width="1600" height="1600" viewBox="0 0 1200 1200"><path d="m792.52 984.88 134.17-293.55c3.996-8.762 14.305-12.59 23.113-8.617 8.746 3.996 12.59 14.352 8.594 23.102l-127.56 279.07h354.96s-49.703-231.21-172.68-413.05c-34.586-54.06-124.75-103.4-191.44-27.742-63.887 72.492-125.81 317.81-125.81 317.81l-266.27-.156c-33.637 0-63.156 27.227-63.203 60.875-.059 33.719 27.203 61.055 60.898 61.117z"/><path d="m582.48 736.74-150.55-389c-10.957-28.391-41.137-49.801-70.223-49.801l-275.79.004c-17.102 0-32.004 7.414-40.871 20.363-9.266 13.512-10.738 31.234-4.02 48.59l119.02 307.57-130.84 211.64c-11.328 15.383-25.199 50.28-.937 79.129 15.602 18.539 40.441 21.55 54.852 21.55 4.129 0 234.31-.144 234.31-.144v-44.23l-165.72-.004c-6.012-.73-11.773-2.437-14.316-5.472-8.23-9.77 2.531-24.562 2.867-25.02l76.246-123.24c13.234 10.465 29.375 17.016 45.301 17.016h275.77c17.102 0 32.004-7.414 40.871-20.352 9.266-13.523 10.742-31.234 4.024-48.602zM261.8 752.51c-6.55 0-17.363-7.246-20.641-15.77L91.939 351.12h269.76c6.54 0 17.34 7.262 20.617 15.77l149.23 385.62zM659.52 494.52l.238.121c21.133 13.078 130.14 57.863 252.25-56.629 49.02-49.812 72.238-125.68 72.238-125.68s-52.117 23.496-92.809 7.79c-27.562-10.728-55.008-43.68-60.238-50.138-12.707-14.352-28.402-26.555-46.895-34.883-71.797-32.578-156.53-.012-189.23 72.47-31.707 70.663-2.761 152.09 64.438 186.95z"/></svg>