<svg xmlns="http://www.w3.org/2000/svg" width="1600" height="1600" viewBox="0 0 1200 1200"><path d="M1091.1 358.07c16.68-4.21 27.84-12.562 33.48-25.152l65.531-151.09c4.68-10.766 5.71-31.777-12.07-40.465-17.734-8.734-37.727 1.465-44.242 16.512l-54.551 118.98-162.05 27.965-200.47-169.49c-14.41-12.18-35.965-10.402-48.098 4.008-12.18 14.41-10.379 35.94 4.008 48.098l189.61 160.31-75.805 163.58c-7.246 15.898-10.066 31.934-8.473 48.203 1.234 12.492 4.621 23.46 9.91 33.145.254.59 54.516 112.22 54.516 112.22l-135.29-.446h-.156c-25.895 0-46.906 20.941-47.016 46.86-.047 25.98 20.914 47.101 46.883 47.147l210.82.696h.133c16.199 0 31.246-8.317 39.828-22.008a47.08 47.08 0 0 0 2.46-45.613l-53.41-109.41 123.19-51.637 48.204 130.5c7.43 18.203 33.203 32.578 55.223 24.672 24.37-8.735 36.613-32.63 27.926-54.875l-66.488-186.7c-5.04-10.223-5.52-16.13-23.074-23.891-13.766-6.121-37.344 2.617-38.594 3.289l-89.125 32.27 53.867-115.2z"/><path d="M1012.2 194.59c12.637 35.062-5.555 73.68-40.645 86.352-35.051 12.59-73.715-5.605-86.328-40.645-12.637-35.09 5.578-73.738 40.656-86.352 35.055-12.637 73.695 5.578 86.316 40.645zM42.18 591.12c-4.477 0-8.676-.793-12.625-2.363-8.148-3.446-14.461-9.742-17.879-17.902-3.156-8.149-3.156-17.09.254-25.262 6.574-16.31 26.578-24.457 42.875-17.63 8.16 3.423 14.484 9.743 17.64 17.88 3.423 8.172 3.423 17.113 0 24.996-4.991 12.395-17.112 20.28-30.265 20.28zm57.359-93.926c-7.883 0-15.266-2.629-21.312-7.633-6.574-5.52-10.777-13.668-11.566-22.344-.793-8.699 2.102-17.12 7.621-23.96 11.04-13.415 32.88-15.255 46.297-3.962 13.957 11.578 15.781 32.375 4.211 46.297-6.3 7.39-15.516 11.602-25.25 11.602zm594.28-36.562c-8.125 0-16.031-2.902-22.094-8.687-13.414-12.098-14.438-32.88-2.113-46.297 11.867-12.898 33.422-13.957 46.32-2.102 13.402 12.098 14.46 33.145 2.351 46.297-6.273 6.828-15.238 10.789-24.465 10.789zm-512.2-36.84c-11.039 0-21.312-5.27-27.359-14.473-4.992-7.367-6.574-16.055-4.992-24.742 1.836-8.687 6.828-16.031 14.207-20.785 14.473-9.996 35.773-5.52 45.516 8.977 9.996 14.977 6.047 35.496-9.215 45.504-5.52 3.671-11.844 5.52-18.156 5.52zm421.45-25.262c-5.258 0-10.262-1.309-14.734-3.672-7.883-3.707-13.68-10.535-16.57-18.96-2.64-8.15-2.113-17.09 1.836-24.974 7.883-15.805 28.152-22.633 44.207-14.746 7.621 3.961 13.68 10.535 16.297 18.938 2.902 8.438 2.363 17.363-1.57 24.996-5.774 11.328-17.102 18.418-29.465 18.418zm-322.54-22.883c-14.207 0-26.566-8.941-31.031-22.609-2.902-8.172-2.102-17.113 1.836-24.996s10.512-13.691 18.949-16.309c16.043-5.785 36.023 3.938 41.555 20.785 5.785 17.363-3.672 35.762-21.035 41.566-3.168 1.047-6.84 1.563-10.273 1.563zm218.36-12.902c-2.113 0-4.477-.254-6.574-.516-17.891-3.672-29.473-21.035-25.777-38.953 3.422-17.34 20.785-29.184 38.664-25.766 17.89 3.672 29.207 21.035 25.777 38.93-3.145 15.254-16.574 26.305-32.09 26.305zm-109.96-7.629c-17.363 0-31.836-13.668-32.879-31.03-.527-8.688 2.363-17.09 8.16-23.665 5.785-6.312 13.414-10.273 21.84-10.789.528-.277.781-.277 1.043-.277 19.211 0 33.672 13.69 34.727 31.055.528 8.687-2.629 17.09-8.41 23.664a32.7 32.7 0 0 1-22.633 11.039c-.277.004-1.848.004-1.848.004zM517.52 1029.7V498.45h-182v531.25H19.81v39.469H826.6V1029.7z"/></svg>