<svg xmlns="http://www.w3.org/2000/svg" width="1600" height="1600" viewBox="0 0 1200 1200"><path d="m735.98 243.59-180.39-.95c-31.992-.179-57.949 25.56-58.152 57.552-.18 31.934 25.586 57.91 57.551 58.117l72.215-.168c-52.859 77.426-220.01 295.68-194.66 410.38 13.621 61.477 51.254 107.06 74.785 128.99l-20.688 20.746c-20.844-18.793-46.031-46.691-63.168-80.328-46.801-92.113-35.137-193.73-35.137-193.73l-189.93 190.84 127.8 127.84s38.891 35.172 76.535 43.355c36.238 7.945 76.836-3.91 76.836-3.91l169.92 168.72h542.2l-453.55-449.35 63.516-187.89c4.117-14.016 26.016-95.941 22.332-104.26-45.562-162.61-58.957-186.53-88.008-185.94z"/><path d="m315.24 379.15 106.93 106.59c22.957 22.945 23.027 60.18.098 83.184-22.895 23.027-60.18 23.027-83.23.11l-106.81-106.56c-23.004-22.907-23.113-60.192-.192-83.208 22.965-23.008 60.25-23.008 83.203-.113zM214.69 480.05l106.89 106.57c22.945 22.906 23.074 60.168.098 83.172-22.922 23.004-60.18 23.027-83.172.098l-106.88-106.54c-22.97-22.883-23.09-60.18-.18-83.195 22.98-23.004 60.262-23.004 83.242-.11zM113.06 581.98l106.89 106.51c22.969 22.957 23.074 60.191.098 83.195-22.922 23.027-60.203 23.113-83.184.191l-106.87-106.61c-22.98-22.922-23.09-60.19-.133-83.195 22.934-23.02 60.219-23.055 83.195-.097zM521.79 381.14 358.83 218.58c19.273 5.27 42.816 9.816 66.805 9.816 10.992 0 22.066-.96 32.855-3.226 48.238-10.164 66.91-52.906 60.422-89.88-6.469-36.827-38.902-72.827-94.598-65.05-34.117 4.789-65.977 29.352-88.871 51.996V18.286h-40.105v136.95l-91.477-91.262c-22.848-23.027-60.109-23.148-83.172-.348-23.09 22.871-24.492 60.086-1.61 83.09l101.88 101.73 83.606-83.844 28.39 28.332-83.616 83.855 236.46 236.1c16.859-26.258 35.46-55.297 35.723-55.69 13.746-19.876 23.152-53.056.27-76.06zm-91.887-271.2c31.68-4.441 46.414 14.605 49.512 32.27 3.168 18.023-4.633 38.52-29.184 43.703-38.027 8.027-83.578-5.844-105.88-14.137 19.355-23.043 54.227-57.434 85.547-61.836z"/></svg>