<svg xmlns="http://www.w3.org/2000/svg" width="1600" height="1600" viewBox="0 0 1200 1200"><path d="M463.32 799.81H339.71c-22.176 0-40.188-17.977-40.188-40.188 0-22.164 18.012-40.164 40.188-40.164h123.61c22.176 0 40.188 18 40.188 40.164 0 22.211-18.012 40.188-40.188 40.188M463.32 898.57h-142.2c-22.188 0-40.176-17.988-40.176-40.211 0-22.129 17.977-40.152 40.176-40.152h142.2c22.176 0 40.188 18.023 40.188 40.152 0 22.238-18.012 40.211-40.188 40.211M463.32 997.31h-86.496c-22.188 0-40.188-17.977-40.188-40.164 0-22.176 18-40.176 40.188-40.176h86.496c22.176 0 40.188 18 40.188 40.176 0 22.188-18.012 40.164-40.188 40.164"/><path d="m733.63 710.69-86.449-97.5a39.8 39.8 0 0 0-15.133-10.559c-125.46-49.211-125.43-49.176-141.8-37.98l-103.5 66.805c-18.336 11.844-23.605 36.289-11.785 54.625 11.832 18.312 36.301 23.566 54.613 11.746l62.363-40.246c11.449 61.945 39.168 160.73 102.09 194.61 78 41.988 126.67 21.926 126.67 21.926v22.43s-50.844 10.129-97.332-5.965c-57.961-20.016-100.69-65.102-100.69-65.102v172.45h113.55s33.215-2.148 57.984-15.742c22.164-12.18 35.051-39.18 35.051-39.18h289.8v-232.3zM378.11 1020.7v111.9c0 31.273 25.332 56.617 56.617 56.617 31.273 0 56.617-25.355 56.617-56.617v-111.9zM588.66 13.008c-28.523 35.93-40.332 149.72-40.332 226.8l-.168 110.95c0 20.387-16.523 36.91-36.91 36.91s-36.91-16.523-36.91-36.91l-.047-110.95c0-77.074-11.809-190.87-40.332-226.8-28.523 35.93-40.332 149.72-40.332 226.8l-.168 110.95c0 20.387-16.523 36.91-36.91 36.91s-36.91-16.523-36.91-36.91l-.047-110.95c0-77.074-11.809-190.87-40.332-226.8-28.523 35.93-40.332 149.72-40.332 226.8v197.77c0 29.137 23.844 52.98 52.98 52.98h84.95v115.3l114.5-72.539v-42.758l84.636-.004c29.137 0 52.98-23.844 52.98-52.98v-197.77c.012-77.078-11.797-190.87-40.32-226.8z"/></svg>