<svg xmlns="http://www.w3.org/2000/svg" width="1600" height="1600" viewBox="0 0 1200 1200"><path d="m545.22 836.28-2.941-3.086c-5.555-5.855-11.305-11.914-20.555-17.879-30.023-19.379-67.152-25.512-99.266-16.465-27.168 7.656-48.77 25.621-60.793 50.594-3.73 7.754-6.059 17.016-7.454 26.352-18.145-8.555-39.852-12.625-64.402-6.66-44.617 10.848-67.57 46.176-63.793 96.227-51.815 6.758-85.296 39.602-87.12 87.562-1.094 28.777 8.566 53.746 27.949 72.19 18.3 17.427 44.387 27.313 71.207 27.313q4.7.002 9.394-.406c17.52-1.524 32.375-6.215 44.184-13.945 8.496-5.555 10.871-16.957 5.316-25.453-5.554-8.496-16.957-10.848-25.453-5.317-6.574 4.309-15.996 7.106-27.238 8.09-19.633 1.656-39.145-4.61-52.055-16.906-11.52-10.969-17.242-26.23-16.559-44.172 1.883-49.488 54.36-53.473 70.97-53.473.132 0 .238-.023.37 0a18.43 18.43 0 0 0 14.23-6.73 18.36 18.36 0 0 0 3.782-15.324c-8.496-41.566 2.785-66.434 33.516-73.906 47.762-11.617 76.043 36.348 77.184 38.328 5.004 8.843 16.246 11.94 25.055 6.949 8.832-5.004 11.94-16.223 6.949-25.055-3.996-7.055-10.234-15.551-18.324-23.867-.313-11.988 1.332-27.29 5.437-35.797 9.47-19.656 25.691-27.805 37.633-31.164 22.152-6.227 48.086-1.754 69.371 11.965 5.543 3.574 9.012 7.222 13.824 12.289l3.18 3.324c7.055 7.309 18.695 7.512 25.992.445 7.277-7.09 7.469-18.742.41-26.023z"/><path d="M423.67 1189c-3.277 0-6.602-.875-9.602-2.71-1.777-1.095-43.738-27.255-53.496-68.595-4.87-20.629-1.152-41.004 11.016-60.55 30.637-49.189 83.09-49.333 123.74-37.247-5.82-31.645-5.496-75.973 28.223-109.69 40.68-40.69 100.93-36.938 138.55-24.828 5.891-37.738 25.477-71.473 55.13-93.516 33.827-25.152 75.815-31.379 118.22-17.484 61.007 19.992 91.296 73.727 83.46 145.82 60.973.684 112.78 40.188 125.48 99.086 19.414 90.023-70.789 139.62-74.64 141.7-8.942 4.8-20.09 1.441-24.899-7.5-4.8-8.93-1.464-20.05 7.454-24.875 2.843-1.547 69.683-38.746 56.147-101.57-11.629-53.902-64.5-75.695-108.43-68.699-4.882.793-9.949-.48-13.922-3.469a18.34 18.34 0 0 1-7.175-12.422c-.395-3.132.058-5.363.636-8.183 7.536-37.391 10.367-103.34-55.535-124.93-30.742-10.066-60.863-5.785-84.852 12.047-26.855 19.969-43.008 54.887-42.145 91.14a18.37 18.37 0 0 1-9.73 16.657c-6.133 3.265-13.598 2.808-19.262-1.211-15.574-10.992-80.785-29.438-118.49 8.242-39.312 39.312-9.121 107.54-8.809 108.23 3.301 7.297 1.512 15.898-4.441 21.254-5.93 5.352-14.664 6.277-21.574 2.219-3.156-1.824-78.637-44.734-111.93 8.676-6.91 11.09-9.012 21.78-6.445 32.664 6.18 26.184 36.637 45.504 36.938 45.695 8.652 5.316 11.363 16.633 6.058 25.285-3.472 5.648-9.508 8.77-15.688 8.77z"/><path d="M792.28 1188.4c-4.8 0-9.59-1.871-13.188-5.578-7.078-7.285-6.898-18.926.383-25.992 33.312-32.34 34.633-83.688 3-116.9-18.684-19.61-43.117-30.973-67.078-31.176-18.695-.516-34.754 6.266-46.86 18.562-8.425 8.566-14.147 19.262-17.015 31.777-2.258 9.898-12.156 16.117-22.02 13.824-9.899-2.27-16.094-12.121-13.824-22.02 4.344-19.008 13.559-36.086 26.652-49.38 18.77-19.065 44.46-29.542 72.434-29.542.312 0 .625 0 .937.012 33.852.277 67.895 15.805 93.395 42.59 45.72 48.012 43.957 122.09-4.007 168.65a18.4 18.4 0 0 1-12.81 5.175zM610.59 672.91c0 7.453-6 13.414-13.414 13.414-7.453 0-13.453-5.977-13.453-13.414 0-7.453 6-13.441 13.453-13.441 7.414-.008 13.414 5.992 13.414 13.441m0 43.371c0 7.453-6 13.453-13.414 13.453-7.453 0-13.453-6-13.453-13.453 0-7.441 6-13.414 13.453-13.414 7.414-.004 13.414 5.984 13.414 13.414m0 43.426c0 7.43-6 13.414-13.414 13.414-7.453 0-13.453-6-13.453-13.414 0-7.453 6-13.441 13.453-13.441 7.414-.008 13.414 5.992 13.414 13.441m0 43.383c0 7.43-6 13.453-13.414 13.453-7.453 0-13.453-6.023-13.453-13.453 0-7.414 6-13.43 13.453-13.43 7.414-.012 13.414 6 13.414 13.43M569.47 672.91c0 7.453-6 13.414-13.441 13.414-7.223 0-13.441-5.977-13.441-13.414 0-7.453 6.215-13.441 13.441-13.441 7.441-.008 13.441 5.992 13.441 13.441m0 43.371c0 7.453-6 13.453-13.441 13.453-7.223 0-13.441-6-13.441-13.453 0-7.441 6.215-13.414 13.441-13.414 7.441-.004 13.441 5.984 13.441 13.414m0 43.426c0 7.43-6 13.414-13.441 13.414-7.223 0-13.441-6-13.441-13.414 0-7.453 6.215-13.441 13.441-13.441 7.441-.008 13.441 5.992 13.441 13.441M650.41 672.91c0 7.453-6 13.414-13.43 13.414-7.234 0-13.453-5.977-13.453-13.414 0-7.453 6.215-13.441 13.453-13.441 7.43-.008 13.43 5.992 13.43 13.441m0 43.371c0 7.453-6 13.453-13.43 13.453-7.234 0-13.453-6-13.453-13.453 0-7.441 6.215-13.414 13.453-13.414 7.43-.004 13.43 5.984 13.43 13.414m0 43.426c0 7.43-6 13.414-13.43 13.414-7.234 0-13.453-6-13.453-13.414 0-7.453 6.215-13.441 13.453-13.441 7.43-.008 13.43 5.992 13.43 13.441M520.18 439.98c-7.922-51.312-8.102-106.46-.336-164.15 7.488-55.812 20.27-105.84 37.992-148.7.059-.133.348-.828.371-.875a7.216 7.216 0 0 1 8.93-4.344c3.625 1.164 5.605 5.051 4.441 8.664-13.87 43.008-22.402 92.723-25.332 147.78-3.097 57.516 1.547 111.83 13.598 161.62h163.19c8.184-50.699 8.653-105.9.973-163.22-23.641-176.05-93.035-242.44-113.77-258.59 0 0-4.906-4.129-13.57-4.511-6.66-.29-13.2 4.586-13.2 4.586-20.71 16.164-90.085 82.645-113.65 258.5-7.737 57.445-7.378 112.59.563 163.22l49.81-.004z"/><path d="M725.81 461.09H467.16c-7.5 7.285-15.086 16.008-22.285 26.832-22.992 34.609-27.805 90.828-27.805 131.87 0 26.762 2.016 45.938 2.09 46.727l.265 2.375 2.063 1.883c2.762 2.566 8.016 5.004 14.566 4.176 3.422-.422 9.527-2.04 12.18-8.461l3-7.309c9.55-23.23 29.398-71.629 44.664-88.598 9.215-10.223 19.547-19.188 29.438-26.676v.215l.11 2.746c.874 12.336 11.878 21.312 20.53 26.52-6.035 6.574-14.688 17.062-19.285 27.66-5.496 12.602-6.324 25.008-6.324 31.332l.66 10.859 151.78-.039.649-10.754c0-6.324-.852-18.77-6.336-31.367-4.645-10.754-13.465-21.336-19.488-27.898 7.969-5.148 17.965-13.992 18.84-26.102l.097-2.797c0-.406-.011-.816-.011-1.21 10.199 7.667 20.965 16.882 30.55 27.526 15.36 17.051 35.23 65.594 44.774 88.895l2.902 7.008c2.688 6.406 8.785 8.062 12.191 8.46 6.54.829 11.809-1.62 14.543-4.175l2.063-1.883.253-2.375c.086-.793 2.102-19.934 2.102-46.69 0-41.075-4.812-97.298-27.816-131.9a162.5 162.5 0 0 0-22.309-26.845z"/></svg>