<svg xmlns="http://www.w3.org/2000/svg" width="1600" height="1600" viewBox="0 0 1200 1200"><path d="m176.5 315.73 188.8-76.414 76.414 188.8-188.8 76.414zM265.13 10.305l201.85 27.168-27.172 201.86-201.85-27.168zM622.22 628.44c39.098-7.824 64.57-46.32 56.652-85.871-7.969-39.648-46.234-65.281-85.367-57.434-39.191 7.848-64.523 46.211-56.605 85.836 7.898 39.527 46.105 65.316 85.32 57.469M867.86 427.31h202.55v202.54H867.86zM781.59 221.7l200.02-31.922 31.918 200-200.02 31.922z"/><path d="M943.55 643.61H427.66V505.96c0-20.16-16.344-36.504-36.504-36.504-20.172 0-36.516 16.344-36.516 36.504v174.17c0 20.16 16.344 36.504 36.516 36.504h143.88l-320.72 385.11c-.469.563-.672 1.078-1.094 1.645a44 44 0 0 0-2.914 4.367c-.277.504-.601 1.02-.828 1.523-8.965 16.68-6.805 37.824 7.066 52.152 8.762 9.059 20.438 13.61 32.125 13.61 11.184 0 22.391-4.188 31.066-12.59l218.76-211.4 145.04 42.311v151.74c0 24.695 20.004 44.711 44.688 44.711 24.695 0 44.7-20.016 44.7-44.71l.003-185.27c0-16.622-9.226-31.86-23.93-39.59l-115.81-60.72 71.63-69.238c22.151-22.14 38.878-51.266 42.862-73.68h235.86c20.172 0 36.516-16.344 36.516-36.504.012-20.148-16.332-36.492-36.504-36.492z"/></svg>