<svg xmlns="http://www.w3.org/2000/svg" width="1600" height="1600" viewBox="0 0 1200 1200"><path d="M991.45 262.55h37.688v-38.859h-743.53c-40.078 0-72.703 40.312-72.703 89.766s32.625 89.766 72.703 89.766h743.53v-38.859H991.45c-12.234-10.781-20.531-29.625-20.531-51s8.156-40.219 20.531-51zm-520.92 88.922c3.234 3.703 3 9.469-.61 12.844-1.687 1.547-3.843 2.39-5.859 2.39-2.39 0-4.687-.937-6.469-3-11.625-13.311-18.14-30.843-18.14-49.546 0-20.062 7.546-39.141 20.858-52.453 3.47-3.47 9-3.375 12.375.234s3.235 9.375-.14 12.844c-9.844 9.937-15.61 24.375-15.61 39.469 0 14.156 4.782 27.375 13.548 37.312zm54.094 0c3.234 3.703 3 9.469-.61 12.844-1.687 1.547-3.843 2.39-5.859 2.39-2.39 0-4.687-.937-6.469-3-11.625-13.311-18.14-30.843-18.14-49.546 0-20.062 7.546-39.141 20.858-52.453 3.47-3.47 9-3.375 12.375.234s3.235 9.375-.14 12.844c-9.844 9.937-15.61 24.375-15.61 39.469 0 14.156 4.782 27.375 13.548 37.312zm442.08 12.984h-366.71c-19.078 0-35.156-23.297-35.156-51s16.078-51 35.156-51h366.71c-9 13.781-14.531 31.547-14.531 51s5.39 37.078 14.531 51M1096.7 53.859h38.156V15.14h-743.53c-40.078 0-72.703 39.234-72.703 87.469s32.625 87.469 72.703 87.469h743.53v-38.859H1096.7c-12-10.453-20.062-28.312-20.062-48.609s7.922-38.156 20.062-48.609zm-690.14 86.672c3.234 3.61 3.14 9.14-.375 12.609-1.687 1.688-3.703 2.39-5.86 2.39-2.296 0-4.546-.937-6.234-2.765-11.766-12.844-18.14-29.766-18.14-47.766 0-19.312 7.546-37.781 20.858-50.625 3.469-3.375 8.86-3.14 12.141.469 3.235 3.61 3 9.234-.375 12.609-9.844 9.469-15.469 23.297-15.469 37.688 0 13.453 4.781 26.156 13.453 35.625zm54.141 0c3.234 3.61 3.14 9.14-.375 12.609-1.687 1.688-3.703 2.39-5.86 2.39-2.296 0-4.546-.937-6.234-2.765-11.766-12.844-18.14-29.766-18.14-47.766 0-19.312 7.546-37.781 20.858-50.625 3.469-3.375 8.86-3.14 12.141.469 3.235 3.61 3 9.234-.375 12.609-9.844 9.469-15.469 23.297-15.469 37.688 0 13.453 4.781 26.156 13.453 35.625zm167.63 0c3.234 3.61 3.14 9.234-.375 12.609-1.687 1.688-3.703 2.39-5.86 2.39-2.296 0-4.546-.937-6.234-2.765-11.766-12.844-18.14-29.766-18.14-47.766 0-19.312 7.546-37.781 20.858-50.625 3.469-3.375 8.86-3.14 12.141.469 3.235 3.61 3 9.234-.375 12.609-9.844 9.469-15.469 23.297-15.469 37.688 0 13.453 4.781 26.156 13.453 35.625zm443.63 10.688h-366.24c-19.078 0-35.156-22.312-35.156-48.609s16.078-48.609 35.156-48.609h366.24c-8.766 13.312-14.062 30.234-14.062 48.609s5.297 35.297 14.062 48.609M1098.4 471.84h46.312v-36.234l-788.63-1.219v189.24l788.53 1.078V588.33l-46.312-.14V471.8zM627.72 585h-18.234V471.23h18.234zm52.828 0h-18.234V471.23h18.234zm399.61 3.14-342.14-.937v-116.39l342.14.938zM1118.9 654.14l-379.22-.469c18.609 12 28.453 43.922 26.766 59.625 0 51.47-46.922 80.156-89.297 80.156l-168.37-.468.375-29.297 166.78.468c31.219 0 56.625-24.844 57-55.547 0-9.234-2.531-18.234-6.937-26.156-4.454-8.53-11.297-15.469-19.078-20.766-9.235-5.625-19.781-8.625-30.61-8.625l-295.22-.234s-23.39.14-44.766 5.156c-23.156 5.625-45 25.453-45 25.453l-252.94 186v316.08l273.61-225 322.92-53.39c28.078-2.86 65.062-24 65.062-24s60.141-57.61 147.61-88.548c119.86-42.469 271.45-41.625 271.45-41.625 27.938 0 50.625-22.219 50.625-49.547 0-27.375-22.688-49.547-50.766-49.547z"/></svg>