<svg xmlns="http://www.w3.org/2000/svg" width="1600" height="1600" viewBox="0 0 1200 1200"><path d="M881.2 91.609C598.99-64.641 242.88 36.214 87.36 316.379c-75.613 136.14-93.238 293.59-49.645 443.4 43.414 149.22 142.54 273.14 279.01 348.95 88.598 49.234 186.14 74.328 284.72 74.328 18.996 0 38.016-1.273 57.035-3.144-.91-8.606-.996-17.388.77-26.329 5.351-27.18 22.754-48.602 45.383-60.695-26.328-19.737-40.738-53.206-33.95-87.694 9.313-47.965 55.98-79.31 103.87-69.926 2.954.574 5.63 1.714 8.45 2.566.035-5.484.457-11.027 1.535-16.598 9.383-48.035 56.05-79.31 103.95-69.926 31.812 6.215 55.945 28.87 66.098 57.336 19.586-27.48 53.965-42.648 89.28-35.746 22.2 4.379 40.57 16.945 53.243 33.707 4.535-7.39 9.48-14.45 13.715-22.066 155.74-280.28 52.84-635.93-229.63-792.93zm-99.609 609.98-.047.07c-26.398 47.543-70.066 81.926-122.95 96.77-53.52 14.988-109.91 8.27-158.93-18.96-49.176-27.313-84.793-71.677-100.3-124.95-15.289-52.524-9.156-107.68 17.305-155.32 37.176-66.997 107.28-104.66 179.88-104.66 34.5 0 69.562 8.507 101.93 26.437 100.69 55.957 137.98 181.86 83.113 280.61zm208.71-176.91a34.8 34.8 0 0 1-9.55 1.344c-15.146 0-29.075-9.985-33.435-25.262-39.539-138.57-158.69-239.3-303.54-256.67-19.078-2.281-32.688-19.598-30.395-38.676 2.281-19.055 19.86-32.543 38.664-30.383 172.75 20.699 314.9 141.05 362.17 306.65 5.266 18.469-5.437 37.73-23.918 42.996z"/><path d="m761.84 1037.9 13.176-60.477 56.605 39.297zM883.91 1095.7l-3.84 43.297 49.957 15.742 23.051-55.102zM868.7 970.77l14.016 51.383 46.719-23.352-18.684-32.125z"/></svg>