<svg xmlns="http://www.w3.org/2000/svg" width="1600" height="1600" viewBox="0 0 1200 1200"><path d="M1185.7 282.12c4.813-11.785-20.27-38.352-87.203-71.148-183.96-90.156-578.46-175.69-701.09 23.891-1.945 3.168-3.602 6.371-4.871 9.504-9.563 23.387 1.8 39.863 14.438 46.895 5.82 3.238 17.125 8.148 23.438 12.504 48.19 33.254 37.5 69.12 19.078 106.64L153.7 117.546l17.867 99.348-132.26 118.15c-17.617 11.496-26.41 27.422-26.41 47.71 0 15.91 6.348 28.97 19.21 39.134 12.84 10.117 27.146 13.848 42.997 11.219l128-30 112.68 296.26h-151.42a43.76 43.76 0 0 0-35.242 17.844c-8.207 11.219-10.61 25.68-6.457 38.93l57.18 182.03c5.844 18.648 23.113 30.602 41.688 30.602 4.308 0 8.734-.66 13.094-2.004 23.05-7.234 35.844-31.766 28.62-54.77l-39.335-125.24h154.39v321.24c0 24.133 19.535 43.68 43.68 43.68 24.12 0 43.68-19.547 43.68-43.68l-.086-321.66 267.12-.266 65.398 88.234-85.773 218.05c-8.762 22.535 2.387 47.82 24.938 56.543 22.488 8.688 47.762-2.484 56.508-24.926l105.5-268.39-129.8-156.91s-9.637-11.676-.742-19.234c10.117-8.605 20.172 3.551 20.172 3.551l170.11 205.62-.254.203.324 218.54c0 24.145 19.547 43.691 43.691 43.691s43.691-19.547 43.691-43.69l.348-269.87-43.164-68.063v-245.77s34.273 22.262 41.426 72.215c7.152 49.957 1.738 189.46 1.738 189.46h83.305v-197.7c0-32.375-11.281-60.227-33.961-83.41-22.668-23.125-50.219-34.715-82.738-34.715l-341.21-.004c44.809-43.668 150.86-78.648 156.01-91.078-1.441-13.105-94.414-55.633-185.35-93.742-.035-.011-9.133-4.57-4.633-11.195 2.844-4.187 9.168-3.828 11.688-2.773 84.574 35.41 250.57 97.934 293.07 80.496 3.54-1.441 5.832-3.383 7.043-5.856-4.285-13.344-101.17-61.078-193.15-102.79-2.496-1.14-6.433-5.039-3.719-9.144 3.551-5.34 10.668-4.066 13.188-2.988 71.832 30.684 260.73 107.46 295.39 93.395 2.387-.973 2.82-2.028 3-2.461 1.442-11.496-81.133-55.477-179.63-98.125-2.484-1.067-6.156-4.656-3.191-8.664 3.707-5.016 10.766-3.313 13.309-2.364 138.04 50.82 280.77 91.031 290.33 70.2"/></svg>