<svg xmlns="http://www.w3.org/2000/svg" width="1600" height="1600" viewBox="0 0 1200 1200"><path d="M1032.8 51.613c-43.488 31.441-53.508 92.23-22.344 136.08 31.57 43.57 92.387 53.578 136.05 22.367 43.777-31.523 53.746-92.34 22.32-136.01-31.297-43.762-92.074-53.758-136.03-22.438zM532.34 875.24c0-91.043-73.836-164.88-164.88-164.88-91.055 0-164.88 73.836-164.88 164.88 0 .133.012.266.012.422h-.012v283.86h329.76l-.004-283.86h-.012c0-.156.012-.3.012-.422zm-164.89 63.422c-35.016 0-63.422-28.391-63.422-63.422 0-35.016 28.391-63.434 63.422-63.434 35.027 0 63.434 28.414 63.434 63.434-.004 35.02-28.395 63.422-63.434 63.422M177.19 362.16c-8.566 5.746-20.219 3.434-25.957-5.137-5.652-8.46-3.324-20.062 5.242-25.8 8.45-5.665 20.051-3.372 25.703 5.09 5.742 8.566 3.461 20.194-4.988 25.847zM114.39 404.21c-8.594 5.746-20.23 3.422-25.957-5.148-5.652-8.45-3.348-20.051 5.242-25.801 8.45-5.665 20.051-3.372 25.715 5.062 5.742 8.582 3.461 20.223-5 25.887zM51.613 446.23c-8.578 5.746-20.23 3.434-25.969-5.148-5.652-8.45-3.336-20.062 5.258-25.801 8.449-5.653 20.039-3.371 25.703 5.09 5.734 8.57 3.465 20.206-4.992 25.858z"/><path d="M119.54 399.06c-5.762 8.566-17.352 10.906-25.945 5.172-8.496-5.64-10.789-17.258-5.05-25.871 5.628-8.426 17.257-10.766 25.702-5.113 8.582 5.726 10.934 17.344 5.293 25.812z"/><path d="M107.63 407.04c10.117-2.05 16.715-11.902 14.676-22.02-1.992-9.996-11.844-16.547-21.984-14.508-9.96 2.004-16.535 11.844-14.52 21.805 2.004 10.105 11.867 16.691 21.828 14.723M77.508 315.57c5.746 8.606 3.434 20.207-5.148 25.969-8.461 5.652-20.062 3.371-25.824-5.23-5.653-8.461-3.336-20.063 5.113-25.728 8.578-5.75 20.195-3.457 25.859 4.989z"/><path d="M119.53 378.36c5.746 8.606 3.445 20.23-5.148 25.98-8.461 5.652-20.062 3.348-25.824-5.242-5.653-8.45-3.336-20.04 5.113-25.703 8.594-5.75 20.207-3.469 25.859 4.965z"/><path d="M114.36 373.23c8.617 5.734 10.922 17.387 5.207 25.957-5.676 8.45-17.258 10.789-25.836 5.05-8.45-5.64-10.766-17.27-5.148-25.737 5.703-8.555 17.355-10.895 25.777-5.27z"/><path d="M85.824 392.34c2.004 10.141 11.902 16.715 22.02 14.699 9.973-2.016 16.535-11.832 14.496-21.973-1.992-9.96-11.844-16.523-21.805-14.566-10.113 2.04-16.715 11.891-14.711 21.84M136.99 318.23c-2.004 10.152-11.879 16.738-21.973 14.699-10.008-1.969-16.598-11.797-14.566-21.938 2.004-9.973 11.82-16.586 21.781-14.578 10.125 1.992 16.703 11.848 14.758 21.816z"/><path d="M122.32 392.34c-1.992 10.141-11.902 16.703-21.984 14.711-9.996-1.992-16.57-11.82-14.578-21.949 2.016-9.973 11.867-16.547 21.781-14.578 10.16 1.992 16.738 11.832 14.781 21.816M107.63 466.48c-2.016 10.094-11.879 16.703-21.984 14.723-9.984-1.98-16.559-11.844-14.555-21.961 1.969-9.96 11.82-16.547 21.77-14.594 10.137 1.996 16.75 11.859 14.77 21.832zM26.23 392.35c10.152 2.027 20.004-4.598 21.973-14.688 1.992-10.008-4.598-19.836-14.699-21.852-9.996-1.934-19.859 4.621-21.816 14.605-2.004 10.102 4.586 19.941 14.543 21.934z"/><path d="M100.34 407.05c10.152 2.004 19.98-4.644 21.984-14.711 1.98-10.008-4.598-19.836-14.746-21.852-9.96-1.934-19.789 4.645-21.758 14.566-2.027 10.164 4.559 19.98 14.52 21.996zM174.49 421.71c10.094 1.992 19.969-4.621 21.973-14.711 1.969-9.973-4.621-19.836-14.746-21.816-9.984-1.992-19.824 4.621-21.793 14.555-2.004 10.141 4.594 19.992 14.566 21.973zM1008.1 243.43c-.54-52.094-59.988-94.176-122.99-48.793l-1.187.84h-.012l-292.14 209.62c-57.406 41.05-4.957 115.36 52.98 73.8l239.76-172.04 20.363 28.368-109.67 78.684 63.984 77.258c41.988-28.586 103.95-79.176 128.28-141.88 23.902-61.543 21.465-98.332 20.625-105.86z"/><path d="m767.61 429.34-98.723 70.836c-96.012 68.914-183-54.289-87.805-122.36l89.832-64.453-37.477-44.965-404 220.59c-10.992 5.363-21.742 11.496-32.172 18.312l-46.777-69.852c-5.484-8.195-11.426-10.754-18.227-6.203-6.348 4.246-6.203 11.867-1.262 19.246l47.137 70.414a306 306 0 0 0-7.586 6.047c-126.85 104.68-144.84 292.37-40.176 419.23a299.3 299.3 0 0 0 38.578 38.879V875.22c0-109.62 88.895-198.5 198.53-198.5 109.62 0 198.52 88.883 198.52 198.5v96.37c10.801-10.765 24.29-25.968 24.29-25.968s10.546-13.414 15.202-20.207l3.551-4.715 252.21-378.75z"/></svg>