<svg xmlns="http://www.w3.org/2000/svg" width="1600" height="1600" viewBox="0 0 1200 1200"><path d="M341.81 620.64c-7.379-33.91-15.539-71.473-15.637-71.977-4.836-26.496-23.473-60.012-59.629-60.254l-186.04-.215c-36.156-.226-65.641 29.016-65.93 65.113-.227 36.156 27.898 66.66 64.094 66.84zM83.426 649.33h186.8c36.145 0 65.531 29.34 65.531 65.555 0 36.156-29.398 65.461-65.531 65.461h-186.8c-36.145 0-65.531-29.305-65.531-65.461-.004-36.203 29.375-65.555 65.531-65.555M83.426 807.96h186.8c36.145 0 65.531 29.34 65.531 65.566 0 36.133-29.398 65.449-65.531 65.449h-186.8c-36.145 0-65.531-29.316-65.531-65.449-.004-36.227 29.375-65.566 65.531-65.566M83.426 968.28h186.8c36.145 0 65.531 29.293 65.531 65.52 0 36.215-29.398 65.555-65.531 65.555h-186.8c-36.145 0-65.531-29.34-65.531-65.555-.004-36.215 29.375-65.52 65.531-65.52M733.31 586.91S551.43 419.02 538.38 249.57c-6.887-89.762 37.094-154.77-20.195-182.54-68.449-33.238-135.06 66.742-161.03 151.19-50.832 165.6 33.445 575.46 143.65 645.96 59.062 37.789 124.67 44.113 160.4 42.926v32.629c-31.223 1.57-73.031-.59-112.93-13.656-109.39-35.797-180.13-125.21-180.13-125.21l.254 299.97 201.45.266s58.246-2.746 94.477-25.957c34.754-22.234 57.434-63.492 57.434-63.492l460.88-.961v-424.44z"/></svg>