<svg xmlns="http://www.w3.org/2000/svg" width="1600" height="1600" viewBox="0 0 1200 1200"><path d="M946.5 225.97c-36.938 0-71.809 8.531-103.13 23.34l-48.926-74.16c-.098-.145-.254-.215-.348-.348l53.746-107.47c4.453-8.953 3.985-19.559-1.261-28.043a28.77 28.77 0 0 0-24.492-13.668h-129.24c-15.926 0-28.812 12.898-28.812 28.812 0 15.91 12.898 28.812 28.812 28.812h82.645l-28.402 56.81-297.99-.005c-1.43-1.777-2.856-3.539-4.61-4.882l30.684-64.738a28.78 28.78 0 0 0-1.691-27.73 28.77 28.77 0 0 0-24.312-13.414l-155.07-.004c-15.926 0-28.812 12.898-28.812 28.812 0 15.91 12.898 28.812 28.812 28.812h109.56l-73.13 154.31c-24.491-8.41-50.651-13.188-77.964-13.188-131.96 0-239.36 108.09-239.36 241.09 0 131.89 107.4 239.2 239.36 239.2 132.89 0 241.05-107.3 241.05-239.2 0-85.164-44.473-159.95-111.27-202.85l33.574-70.848c.215.086.469.058.683.133l174.27 280.23c5.23 8.437 14.496 13.586 24.445 13.586h.301l90.996-1.008c11.641 122.09 114.73 217.99 239.88 217.99 131.98 0 239.36-108.17 239.36-241.01.012-131.99-107.39-239.38-239.36-239.38zM439.74 469.14c0 102.29-83.988 185.46-187.19 185.46-102.24 0-185.45-83.172-185.45-185.46 0-103.23 83.207-187.19 185.45-187.19 19.043 0 37.066 3.695 54.395 9.012l-76.715 161.88c-6.84 14.363-.695 31.547 13.668 38.34a28.45 28.45 0 0 0 12.336 2.808c10.777 0 21.121-6.097 26.004-16.488l76.777-161.99c48.66 33.84 80.723 89.977 80.723 153.62zm354.72-189.32c-45.695 36.996-77.281 90.324-86.184 150.89l-42.359.469 98.473-196.93zm30.262 45.863 67.957 102.98-129.76 1.441c8.125-41.605 30.648-77.738 61.801-104.43zm-338.98-127.99h232.52l-103.63 207.24zm460.75 454.66c-95.473 0-173.66-72.168-184.91-164.61l184.48-2.05c10.559-.134 20.207-6.012 25.141-15.313a28.86 28.86 0 0 0-1.379-29.375l-96.504-146.29c22.5-9.515 47.22-14.82 73.176-14.82 102.29 0 185.54 83.16 185.54 185.45-.004 103.07-83.258 187.01-185.55 187.01zM934.95 1059V919.34h188.48c-27.035-62.363-89.027-106.07-161.33-106.07-73.559 0-136.4 45.238-162.66 109.34h-407.3c-26.258-64.105-89.102-109.34-162.67-109.34-97.141 0-175.89 78.742-175.89 175.89 0 97.141 78.742 175.89 175.89 175.89 74.102 0 137.22-45.961 163.13-110.82l406.38.012c25.906 64.848 89.016 110.8 163.12 110.8 72.301 0 134.29-43.703 161.33-106.07H934.96zm-705.47 31.441c-55.934 0-101.27-45.336-101.27-101.28 0-55.934 45.336-101.27 101.27-101.27s101.28 45.336 101.28 101.27c-.016 55.945-45.352 101.28-101.28 101.28"/></svg>