<svg xmlns="http://www.w3.org/2000/svg" width="1600" height="1600" viewBox="0 0 1200 1200"><path d="M953.94 704.66v98.027H853.75V704.66zM953.94 853.14v98.027H853.75V853.14zM436.55 477.29v-34.715h-82.754c-2.723-23.578-11.832-45.18-25.379-63.18l57.949-58.008-24.527-24.527-57.805 57.77c-17.988-13.957-39.695-23.293-63.359-26.27v-81.641h-34.727v81.961c-23.41 3.324-44.797 12.793-62.496 26.867l-58.645-58.68-24.562 24.574 59.148 59.102c-13.117 17.809-21.852 38.965-24.527 62.016H10.081v34.715h85.523a129.9 129.9 0 0 0 25.777 60.035l-61.117 61.129L84.803 623l61.297-61.309c17.184 12.91 37.621 21.707 59.855 24.863v86.641h34.727V586.89c22.523-2.855 43.199-11.461 60.695-24.312l60.457 60.457 24.539-24.562-59.93-59.953c13.789-17.387 23.16-38.316 26.652-61.223h83.438l.004-.008zm-212.43 75.586c-52.715 0-95.461-42.73-95.461-95.496 0-52.703 42.73-95.449 95.461-95.449 52.727 0 95.461 42.742 95.461 95.449.023 52.766-42.723 95.496-95.461 95.496M601.15 583.22h-96.047l-52.957 98.043h96.012zM728.06 559.82l62.93-116.36-88.094-.312-63.047 116.68zM715.41 583.22h-88.234l-52.98 98.043h88.227zM508.56 802.69h88.176l52.992-98.027h-88.199zM495.9 826.09l-67.234 124.37 88.031.285 67.379-124.65zM535.5 704.66h-95.988l-52.98 98.027h95.965zM775.71 704.66h-99.922l-52.98 98.027h99.922zM676.92 443.07l-95.93-.32-63.238 117.07h96.059zM841.31 583.22h-99.875l-52.992 98.043h99.898z"/><path d="M249.77 826.18c-8.207-50.195-54.84-88.738-111.74-88.738v53.484H67.096c-9.36 0-16.906 7.57-16.906 16.906s7.559 16.906 16.906 16.906h70.945v37.465H67.096c-9.336 0-16.895 7.559-16.895 16.895s7.559 16.895 16.906 16.895h70.945v49.777c57.66 0 104.72-39.695 111.96-90.781h108.28l-51.359 95.09 95.734.29 67.199-124.27zM710.07 826.14l-99.91-.047-67.43 124.73 99.816.348zM1191.6 950.36 916.38 443.57l-99.406-.047-62.867 116.29h99.84l42.957-79.535 255.27 470.07z"/></svg>