<svg xmlns="http://www.w3.org/2000/svg" width="1600" height="1600" viewBox="0 0 1200 1200"><path d="M309.36 94.598c-.168-39.938-32.578-72.336-72.527-72.445-40.094.11-72.48 32.496-72.422 72.445-.047 40.031 32.328 72.445 72.422 72.504 39.949-.062 72.359-32.473 72.527-72.504M1034.7 90.574l-652.79.422h-.984c-47.184-.098-65.113 38.555-54.023 67.21 3.226 10.837 12.047 17.88 12.348 18.122l259.02 222.09a36.1 36.1 0 0 0 23.578 8.734c10.223 0 20.375-4.285 27.539-12.66 13.03-15.203 11.27-38.074-3.91-51.12l-82.403-70.646 150.65 63.816a36.1 36.1 0 0 0 14.125 2.89c14.125 0 27.54-8.292 33.383-22.128 7.813-18.445-.793-39.707-19.234-47.508l-90.926-38.52 385.26-58.621c13.668-2.184 35.664-18.035 35.664-40.285-.062-22.242-17.633-41.816-37.3-41.793zM471.18 883.86c-53.844-30.336-115.79-38.52-169.99-22.379-45.191 13.414-81.527 42.781-102.32 82.656-14.387 27.625-20.734 59.258-18.359 91.598 1.14 15.551 14.965 27.781 30.18 26.051 15.504-1.152 27.168-14.664 26.027-30.18-1.633-22.188 2.473-42.852 12.121-61.402 13.883-26.617 37.535-45.516 68.387-54.719 39.613-11.664 85.68-5.352 126.29 17.508 69.07 38.902 92.891 124.41 54.215 194.72-7.512 13.621-2.543 30.77 11.09 38.27a27.95 27.95 0 0 0 13.559 3.48c9.938 0 19.57-5.257 24.695-14.594 53.797-97.719 20.449-216.71-75.887-271.01z"/><path d="M1044.2 770.46c0-29.09-8.746-58.008-25.703-83.82-25.934-39.445-68.449-67.141-116.59-75.996-80.219-14.578-139.31 23.352-176.32 54.48-15.648-49.188-48.84-88.812-99.133-114.53-61.176-31.32-124.3-34.535-182.55-9.191-60.098 26.113-110.63 81.55-140.26 152.22-32.305-24.168-77.016-49.754-117.27-51.613-52.414-2.293-99.469 16.465-131.72 53.242-36.719 41.89-51.109 103.02-39.492 167.69 2.746 15.312 17.387 25.465 32.723 22.754 15.301-2.746 25.5-17.387 22.766-32.723-8.578-47.676 1.043-91.633 26.41-120.56 21-23.965 51.145-35.63 86.746-34.117 31.297 1.441 83.148 33.984 113.22 63.289 7.129 6.949 17.34 9.527 26.902 7.043 9.59-2.578 17.125-9.973 19.848-19.5 21-73.512 66.805-131.8 122.57-156.01 42.898-18.72 88.141-16.031 134.43 7.632 107.98 55.273 82.285 172.67 57.301 237.72-1.86 4.883-3.086 8.114-3.266 13.141a28.28 28.28 0 0 0 7.946 20.531 28.22 28.22 0 0 0 20.23 8.567c79.824 0 131.44 48.539 131.44 123.65 0 56.148-22.906 76.094-44.375 90.434-12.926 8.64-16.441 26.113-7.778 39.07 5.41 8.125 14.352 12.527 23.461 12.527 5.364 0 10.812-1.512 15.625-4.754 32.305-21.562 69.422-56.652 69.422-137.27 0-94.86-58.586-162.3-149.36-177 10.13-33.77 14.496-65.734 14.23-95.617 1.754-1.586 3.434-3.098 5.352-4.934 29.555-27.648 79.188-73.789 150.74-60.707 33.133 6.11 62.16 24.863 79.703 51.527 14.762 22.43 19.777 48.266 14.184 72.72a28.11 28.11 0 0 0 5.387 23.831 28.19 28.19 0 0 0 22.055 10.633h.097c71.953 0 119.54 38.867 121.19 98.988 1.032 37.703-10.355 69.625-32.89 92.316-20.63 20.844-48.782 31.547-80.544 31.332-18.96-.336-36.898-5.363-53.41-14.89-13.5-7.872-30.742-3.204-38.484 10.272-7.812 13.5-3.214 30.72 10.273 38.508 24.527 14.172 52.38 21.938 80.555 22.453 1.211.024 2.399.024 3.614.024 45.434 0 87.238-16.957 118.01-48 33.156-33.406 50.676-80.832 49.223-133.54-2.274-81.117-60.977-140.29-146.49-151.82z"/></svg>