<svg xmlns="http://www.w3.org/2000/svg" width="1600" height="1600" viewBox="0 0 1200 1200"><path d="M659.36 368.14c-.262 3.238-.809 6.383-.809 9.691 0 74.07 60.023 134.09 134.07 134.09 74.094 0 134.12-60.023 134.12-134.09 0-3.308-.57-6.453-.832-9.691z"/><path d="m1008.7 545.09-100.48.145-86.406 192.02v-194.07h-59.168v192.14l-85.383-189.74-305.95.476v-165.74l132.14-103.88c13.93-10.57 25.809-22.355 35.645-35.023l121.31 27.383v67.262h266.38v-66.312l46.262-10.309v232.38h37v-240.62l86.285-19.19-307.12-111.95-229.24 85.522c5.191-12.547 8.715-25.523 9.953-38.762 3.645-38.43-9.644-75.594-38.43-107.55-24.93-27.668-59.883-43.309-98.453-44.07-38.715-1.047-76.332 13.715-104.91 39.715l-275 212.71c-23.64 18.31-41.473 51.402-45.355 84.332-3.644 30.645 4.285 59.191 22.953 82.453 20.93 26.117 52.215 36.477 82.906 36.477 29.762 0 58.977-9.738 77.645-24.215l48.762-37.715V884.2h297.41v304.45h462.45l.356-438.19h44.262v438.19h145.43l-.004-481.57c.023-102.26-88.145-162-181.26-162zM347.99 86.93c22.094-22.715 52.262-34.594 84.355-34.738 28.215.547 53.691 11.883 71.691 31.855 21.668 24.047 31.715 51.477 29.07 79.309-2.906 30.738-21.383 60.43-52.262 83.832l-109.55 86.094v-25.785s90.809-70.57 95.738-75.617c15.809-16.215 24.332-37.617 24.047-60.262-.285-22.617-9.406-43.785-25.594-59.57-13.668-13.355-31.809-19.762-50.809-20.332-21.523-.523-67.262 14.383-67.762 62.406-.309 29.617 24.023 53.668 53.668 53.668 23.809 0 43.785-15.617 50.785-37.094.43-.762 1.43-4.262 1.617-5.238.356 2.238 1.094 4.382 1.117 6.668.168 12.738-4.617 24.809-13.547 33.953-24.738 25.355-65.57 25.93-91 1.168-33.594-32.746-34.309-86.723-1.57-120.32zM168.68 417.48c-25.855 20.023-83.07 26.285-109.07-6.168-15.57-19.453-16.809-40.645-15.117-55 3.191-26.785 18-49.168 31.285-59.453l212.41-164.31c-4.07 36.215 7.5 73.832 35.547 101.14 14 13.645 31.023 22.117 48.832 26.023z"/></svg>