<svg xmlns="http://www.w3.org/2000/svg" width="1600" height="1600" viewBox="0 0 1200 1200"><path d="M1122.9 289.22c-7.781-24.844-30.469-41.531-56.531-41.531-6 0-11.859.844-17.625 2.766l-81.469 25.453V84.148c0-47.297-29.297-74.766-73.922-74.766h-377.53c-45.469 0-77.391 26.625-77.391 74.766v366.71c-41.297 17.859-70.078 30.703-76.219 33.844-49.781 25.312-87.375 83.625-95.859 107.16-10.312 23.39-242.53 601.55-242.53 601.55h481.31s116.53-48.844 178.55-116.53c26.156-28.547 47.062-67.078 61.453-99h152.06c39.938 0 70.219-25.781 70.219-77.297v-43.688h51.609c32.625 0 59.297-26.531 59.297-59.156s-26.531-59.156-59.297-59.156h-51.609v-19.781h53.062c32.625 0 59.297-26.531 59.297-59.156s-26.531-59.297-59.297-59.297h-53.062v-19.688h53.062c32.625 0 59.297-26.531 59.297-59.297s-26.531-59.297-59.297-59.297h-53.062v-62.156l116.86-36.47c15.141-4.687 27.469-15 34.781-29.061 7.313-13.922 8.766-30 4.078-45.141zM914.03 912.85H583.66c-1.922 12.469-4.312 25.312-7.781 38.531-21.938 84.469-94.312 132-97.453 134.06-2.86 1.781-6 2.766-9.14 2.766-5.532 0-10.923-2.766-14.157-7.688-5.062-7.922-2.86-18.375 5.063-23.39.61-.376 64.312-42.704 83.062-114.14 19.922-75.845 9.937-143.16 9.844-143.76-.235-1.454-.141-2.767 0-4.22h192.61c39.469 0 78.938-23.766 78.938-70.453s-34.781-76.219-78.938-76.219h-327.14v-33.844h72.844l-.047-544.55h89.062c.375 21.61 13.922 33.703 33.375 33.703h177.94c19.078 0 31.547-12.469 31.922-33.703h90.375v843z"/><path d="M631.69 266.29c34.547 0 51.844 16.312 69 48.844 17.297-32.531 34.547-48.844 69.141-48.844 38.297 0 69.469 29.391 69.609 65.625 0 65.766-69.234 131.76-138.61 197.63-69.375-65.859-138.71-131.86-138.61-197.63 0-36.234 31.219-65.766 69.609-65.625z"/></svg>