<svg xmlns="http://www.w3.org/2000/svg" width="1600" height="1600" viewBox="0 0 1200 1200"><path d="M308.83 164.22c0 63.988-51.871 115.86-115.86 115.86S77.11 228.209 77.11 164.22 128.981 48.36 192.97 48.36s115.86 51.871 115.86 115.86M461.39 560.34c10.355 0 20.867-3.96 28.789-11.891l149.24-149.18c15.828-15.816 15.91-41.496.07-57.336-15.852-15.84-41.508-15.84-57.359 0l-120.49 118.63s-54.059-47.328-109.13-102.39c-23.773-23.762-52.62-44.148-92.113-44.148h-151.44c-38.23 0-78.168 36.348-78.168 81.469v281.54h299.5l.004-220.84 97.465 92.258c7.942 7.93 23.242 11.891 33.633 11.891z"/><path d="M421.05 50.832v301.49l36.156 38.184 27.375-27.277v-239.79h637.92v490.08h-701.45v63.516h764.95v-626.2zM193.88 941.65c-54.672 0-98.965-44.316-98.965-98.93 0-54.719 44.293-99 98.965-99 54.695 0 98.988 44.305 98.988 99 0 54.602-44.293 98.93-98.988 98.93M14.016 1159.2v-78.289c0-63.086 51.828-114.39 115.03-114.39h123.31c63.18 0 119.59 51.301 119.59 114.39v78.289zM600.94 941.65c-54.672 0-98.977-44.316-98.977-98.93 0-54.719 44.293-99 98.977-99 54.695 0 98.977 44.305 98.977 99-.016 54.602-44.281 98.93-98.977 98.93M421.05 1159.2v-78.289c0-63.086 51.828-114.39 115.02-114.39h123.35c63.168 0 119.55 51.301 119.55 114.39v78.289zM1008 941.65c-54.672 0-98.953-44.316-98.953-98.93 0-54.719 44.281-99 98.953-99 54.695 0 98.988 44.305 98.988 99 0 54.602-44.293 98.93-98.988 98.93M828.11 1159.2v-78.289c0-63.086 51.828-114.39 115.03-114.39h123.3c63.203 0 119.57 51.301 119.57 114.39v78.289z"/></svg>