<svg xmlns="http://www.w3.org/2000/svg" width="1600" height="1600" viewBox="0 0 1200 1200"><path d="M310.62 51.672c0 22.188 17.977 40.129 40.129 40.129h36.289l-190.77 67.262c-21.938 7.727-33.406 31.789-25.777 53.723 7.79 21.973 31.836 33.492 53.797 25.766l203.81-71.844-239.65 155.61c-21.336 13.922-27.371 42.504-13.586 63.887 13.945 21.359 42.527 27.434 63.91 13.598l190.64-123.91 80.629-144.07c4.367-7.754 14.113-10.5 21.91-6.191a16.19 16.19 0 0 1 8.184 14.05 16.1 16.1 0 0 1-2.028 7.801l-45.37 81.434c-15.696 26.34-40.755 83.438-31.849 136.21 7.465 43.836 29.844 83.63 64.465 111.68 19.547 15.91 48.301 12.863 64.2-6.695 15.851-19.57 12.886-48.3-6.696-64.188-17.039-13.906-28.344-33.434-31.812-55.117-3.73-23.53 1.86-46.969 15.863-66.238 13.922-19.199 34.547-31.934 58.008-35.676 48.434-7.715 94.164 25.402 101.9 73.836 7.812 48.238-25.402 94.273-73.895 101.96-24.84 4.008-41.566 27.504-37.824 52.285 3.938 24.863 27.348 41.81 52.262 37.836 54-8.617 98.375-40.715 124.97-84.012l135.06-178.44h149.79V11.508h-726.43c-22.148-.023-40.125 17.941-40.125 40.152z"/><path d="M604.97 663.34c4.61-2.93 6.637-14.664 6.637-18.926v-170.71c0-4.86-3.996-8.867-8.844-8.867-4.883 0-8.867 4.008-8.867 8.867v170.72c0 4.234 1.68 15.742 6.422 18.805-3.168-.059-6.301-.238-9.504-.238-275.28 0-499.23 223.93-499.23 499.18 0 9.48.324 18.887.851 28.246h57.383c-.59-9.348-.996-18.742-.996-28.246 0-89.04 26.555-171.95 72.035-241.4 11.352 14.449 26.508 27.637 42.562 24.023 32.914-7.453 54.852-100.43 84.145-92.965 29.242 7.402 62.172 63.227 117.04 40.883 54.852-22.297 32.605-101.75 54.852-137.61 8.723-14.027 22.031-24.926 36.371-33.383 11.555-.899 23.195-1.5 34.98-1.5 56.723 0 110.93 10.848 160.8 30.434 12.637 17.102 18.06 39.816 6.887 69.742-31.367 84.3-82.98-13.285-145.78 42.168-56.81 50.172-15.684 142-15.684 142s-77.578-22.801-149.91-3.73c-66.406 17.495-135.05 106.97-133.8 189.6h547.05c-58.836-74.09-139.08-50.989-117.53-114.84 24.12-71.618 114.1 27.804 182.81-29.45 33.422-27.863 39.816-81.059 39.84-117.85 42.527 67.895 67.21 148.04 67.21 233.89 0 9.504-.405 18.898-1.007 28.246h57.383c.527-9.36.84-18.77.84-28.246.027-270.52-216.27-491.3-484.94-498.84z"/></svg>