<svg xmlns="http://www.w3.org/2000/svg" width="1600" height="1600" viewBox="0 0 1200 1200"><path d="M258.38 993.24a16.67 16.67 0 0 1-10.078-3.383c-134.48-101.9-220.55-256.27-236.12-423.55-.852-9.191 5.902-17.34 15.098-18.203 9.098-.875 17.34 5.902 18.203 15.098 14.711 157.97 96 303.76 223.01 399.98 7.367 5.594 8.809 16.078 3.238 23.426-3.285 4.352-8.277 6.63-13.344 6.63zM393.1 1069.6c-2.09 0-4.2-.383-6.238-1.21a603 603 0 0 1-73.812-35.763c-8.016-4.586-10.801-14.797-6.215-22.812s14.809-10.789 22.824-6.215a571 571 0 0 0 69.684 33.77c8.566 3.446 12.719 13.188 9.277 21.742-2.633 6.528-8.898 10.488-15.52 10.488zM540.96 1107.5a16 16 0 0 1-2.016-.121 601 601 0 0 1-83.375-16.055c-8.93-2.387-14.219-11.555-11.844-20.461 2.387-8.941 11.594-14.23 20.473-11.844a569 569 0 0 0 78.73 15.156c9.168 1.105 15.707 9.434 14.605 18.613-1.023 8.473-8.234 14.71-16.574 14.71zM655.63 509.83c0 24.414-19.793 44.207-44.207 44.207-24.418 0-44.211-19.793-44.211-44.207s19.793-44.207 44.211-44.207c24.414 0 44.207 19.793 44.207 44.207"/><path d="M611.43 554.18c-24.445 0-44.328-19.895-44.328-44.352s19.883-44.34 44.328-44.34 44.328 19.883 44.328 44.34-19.887 44.352-44.328 44.352m0-88.414c-24.289 0-44.039 19.766-44.039 44.062 0 24.301 19.754 44.062 44.039 44.062 24.277 0 44.051-19.766 44.051-44.062 0-24.289-19.766-44.062-44.051-44.062"/><path d="M1106.8 601.96c-1.055 0-5.352.023-9.324.059a495.3 495.3 0 0 0 8.629-92.184c0-273.19-221.47-494.68-494.68-494.68s-494.68 221.48-494.68 494.68 221.48 494.68 494.68 494.68a495.7 495.7 0 0 0 89.09-8.063c30.469 103.7 130.14 184.41 241.13 184.41 138.7 0 242.35-121.56 242.38-230.26v-261.63c0-57.133-38.832-87.012-77.22-87.012zM271.91 469.23c20.367-171.86 166.33-301.45 339.52-301.45 55.043 0 109.75 13.414 158.23 38.785 6.816 3.563 9.457 11.988 5.89 18.805-3.574 6.816-12.011 9.457-18.804 5.879-44.508-23.281-94.754-35.605-145.31-35.605-159.07 0-293.14 119.02-311.84 276.85-.84 7.094-6.852 12.289-13.812 12.289-.54 0-1.106-.024-1.657-.098-7.652-.898-13.125-7.824-12.215-15.457zm-4.02 69.23c-.73-9.191 6.133-17.281 15.324-18.047 9.313-.73 17.22 6.191 18 15.215v.11c.782 9.144-6.07 17.28-15.277 18-.445.058-.949.058-1.39.058-8.629 0-15.934-6.746-16.656-15.336zm27.36 75.648c-7.477 0-14.103-5.074-16.106-12.266-1.234-4.355-.671-8.809 1.547-12.707 2.184-3.91 5.797-6.695 10.094-7.86 8.746-2.398 18.168 2.965 20.555 11.653 2.461 8.855-2.785 18.109-11.652 20.578-1.472.359-2.937.601-4.437.601zm29.16 55.449a16.35 16.35 0 0 1-7.356 1.727c-6.469 0-12.215-3.563-15.047-9.301-.047-.121-.047-.168-.11-.278-1.835-3.949-2.124-8.41-.671-12.539 1.39-4.234 4.402-7.632 8.426-9.59 2.34-1.175 4.789-1.726 7.355-1.726 6.406 0 12.098 3.504 14.941 9.191.047.06.047.122.11.122 3.992 8.296.597 18.328-7.649 22.395zm41.187 39.457c-.613 4.465-2.902 8.352-6.515 11.102-2.902 2.184-6.36 3.336-10.031 3.336a16.62 16.62 0 0 1-13.38-6.695c-5.519-7.356-4.007-17.891 3.337-23.398 2.953-2.243 6.406-3.348 10.03-3.348 5.294 0 10.2 2.46 13.38 6.707 2.676 3.535 3.84 7.906 3.18 12.297zm36.945 54.348c-3.18 3.457-7.644 5.398-12.37 5.398-4.067 0-8.028-1.5-11.09-4.246-.047-.047-.11-.097-.168-.097-3.29-3.024-5.231-7.141-5.399-11.605-.226-4.524 1.332-8.746 4.344-12.035 5.965-6.575 17.05-7.094 23.629-1.067 6.805 6.203 7.246 16.848 1.055 23.652zm208.89-71.941c-100.29 0-181.59-81.289-181.59-181.59s81.301-181.59 181.59-181.59c100.27 0 181.6 81.301 181.6 181.59-.003 100.29-81.316 181.59-181.6 181.59m522.43 259.19c-.023 83.293-84 180.11-192.23 180.11-106.78 0-200.45-93.312-200.47-199.69l-.023-3.742.023-149.32c2.375-20.953 11.93-31.598 28.332-31.598.098 0 .168.023.254.023l5.41.828c11.82 3.528 20.114 17.63 20.114 30.434v112.57h31.105l-.004-303.54c0-14.93 12.145-27.059 27.059-27.059 14.93 0 27.059 12.133 27.059 27.06v208.8h31.117l.004-285.65c0-7.223 2.82-14.005 7.933-19.13s11.891-7.933 19.13-7.933c14.913 0 27.058 12.145 27.058 27.059l-.004 285.65h31.105v-229.18c0-14.93 12.145-27.06 27.047-27.06 14.93 0 27.07 12.134 27.07 27.06v228.13h28.801v-115.27c0-14.902 12.145-27.047 27.06-27.047 16.43 0 27.058 14.46 27.058 36.852l.004 261.64z"/></svg>