<?xml version="1.0" encoding="UTF-8"?>
<svg width="1200pt" height="1200pt" version="1.1" viewBox="0 0 1200 1200" xmlns="http://www.w3.org/2000/svg">
 <path d="m869.88 193.17c-29.953 0-54.168 24.285-54.168 54.168v49l-90.809-257.5c-10.43-29.57-42.906-45.094-72.523-34.762-29.645 10.477-45.191 42.953-34.762 72.594l96.977 275.02-210.05-323.4c-18.785-28.832-57.355-36.977-86.238-18.309-28.832 18.785-37.047 57.355-18.309 86.238l167.19 257.31 194.5 108.83c10.453 5.8828 14.168 19.047 8.3555 29.523-4.0234 7.0703-11.383 11.094-18.953 11.094-3.5703 0-7.1914-0.90625-10.57-2.7383l-109.88-61.262c-35.547-21.168-112.59-55.023-183.86-42.977-59.145 10.047-112.83 40.309-150.69 86.977-21.453 26.406-17.406 65.191 9.0234 86.668 26.406 21.43 65.215 17.406 86.645-9.0469 18.738-23 45.07-38.238 74.383-42.906 31.738-5.0703 63.383 2.4766 89.406 21.355 25.93 18.832 43.07 46.668 48.145 78.309 10.43 65.406-34.285 127.07-99.691 137.57-65.07 10.5-127.19-34.285-137.57-99.691-5.4062-33.594-37.168-56.191-70.57-51.117-33.594 5.332-56.477 36.93-51.117 70.523 11.645 72.906 54.977 132.83 113.45 168.71l240.79 182.26-0.007813 174.39h325.07v-952.67c0.023437-29.879-24.215-54.164-54.164-54.164z"/>
</svg>
