<?xml version="1.0" encoding="UTF-8"?>
<svg width="1200pt" height="1200pt" version="1.1" viewBox="0 0 1200 1200" xmlns="http://www.w3.org/2000/svg">
 <path d="m1004.4 209.26h-315.02c49.465-20.578 74.316-76.621 55.766-127.48-19.066-52.285-76.777-79.395-129.06-60.336-52.559 19.164-79.285 77.062-60.215 129.35 10.031 27.527 30.828 47.965 55.883 58.453l-241.34-0.003906c-13.234 0-25.848 5.6172-34.691 15.457l-147.57 163.97c-17.242 19.164-15.684 48.672 3.4688 65.914 8.9141 8.0273 20.074 11.988 31.211 11.988 12.77 0 25.488-5.2188 34.703-15.457l133.66-148.51h65.809l-59.27 159.18c-10.934 27.324-26.41 61.488-10.02 104.75l51.996 147.77-139.98 141.6c-15.215 15.707-21.793 39.07-14.566 61.379 10.129 32.027 44.23 49.488 76.246 39.336 9.9961-3.0352 18.719-8.6758 25.379-15.719l170.81-171.94c9.9961-10.703 20.93-29.832 14.832-48.852l-37.367-101.59 186.13 74.461 52.188 223.41c0.49219 1.3438 0.71875 2.8086 1.2227 4.1758 10.141 32.027 44.328 49.754 76.355 39.613 30.035-9.7188 47.496-40.43 40.969-71.016l-58.848-255.18c-0.39453-1.0938-0.52734-2.2695-0.92578-3.3594-5.7109-17.34-18.145-30.348-33.527-37.066l-158.62-82.633 73.344-208.37h291.01c25.777 0 46.68-20.891 46.68-46.68 0.003906-25.785-20.863-46.617-46.648-46.617z"/>
 <path d="m533.39 978.3c13.391-16.223 33.66-26.578 56.34-26.578 22.766 0 43.094 10.43 56.484 26.773l99.73 0.16797c-19.883-67.488-82.273-116.79-156.2-116.79-73.754 0-136.02 49.031-156.07 116.26z"/>
 <path d="m644.94 1072.4c-13.379 15.492-33.133 25.332-55.211 25.332-22.176 0-42-9.9258-55.391-25.523l-100.48-0.16797c20.281 66.863 82.367 115.55 155.87 115.55 73.285 0 135.27-48.422 155.7-115.01z"/>
 <path d="m953.3 1052.8h-0.046876l-727.14-1.2383c-14.82-0.023438-26.809-12.059-26.785-26.879 0.023438-14.809 12.035-26.785 26.832-26.785h0.046876l727.14 1.2461c14.82 0.023437 26.809 12.059 26.785 26.879-0.023438 14.801-12.035 26.777-26.832 26.777z"/>
</svg>
