<?xml version="1.0" encoding="UTF-8"?>
<svg width="1200pt" height="1200pt" version="1.1" viewBox="0 0 1200 1200" xmlns="http://www.w3.org/2000/svg">
 <path d="m122.34 453.62c-4.7539 33.996-8.6406 72.758-8.6406 72.758l-100.05 187.62c-1.5234 3.457-2.2695 7.4414-2.2695 11.543 0 16.391 13.211 29.699 29.676 29.699h72.66v109.49c0 111.01 65.039 145.56 145.39 145.56h49.32v135.79h402.04l0.003907-307.99c85.836-67.453 141.06-200.4 141.06-318.04 0-22.715-2.3516-44.855-6.2539-66.434z"/>
 <path d="m844.46 414.23c-6.9023-157.51-114.98-298.81-275.54-340.69-160.43-41.797-339.41 39.051-406.88 162.88z"/>
 <path d="m1099.3 731.75c-48.059 0-87.156 39.109-87.156 87.133v94.523h-175.56v232.68h248.86v-232.68h-35.953v-94.523c0-27.457 22.344-49.766 49.801-49.766 27.434 0 49.766 22.309 49.766 49.766v104.76c0 10.32 8.3398 18.672 18.672 18.672 10.332 0 18.684-8.3398 18.684-18.672v-104.76c0.007812-48.023-39.086-87.133-87.109-87.133zm-137.86 323.18c-13.895 0-25.188-11.27-25.188-25.199 0-13.895 11.281-25.199 25.188-25.199 13.922 0 25.199 11.293 25.199 25.199 0 13.93-11.281 25.199-25.199 25.199z"/>
</svg>
