<?xml version="1.0" encoding="UTF-8"?>
<svg width="1200pt" height="1200pt" version="1.1" viewBox="0 0 1200 1200" xmlns="http://www.w3.org/2000/svg">
 <path d="m853.61 254.5c-145.21-98.617-306.09-155.16-441.32-155.16-106.64 0-189.93 36.168-234.49 101.79-8.1484 11.977-19.945 36.926-20.051 36.168-102.93 222.62-77.762 566.52 195.82 755.65 28.344 19.586 57.719 35.207 87.492 48.504h-401.1c-14.832 0-26.879 10.656-26.879 23.797 0 13.141 12.047 23.797 26.879 23.797h627.2c186.18 0.070313 364.66-86.496 465.01-201.07 1.1523-1.2227 15.625-17.902 20.484-25.105 103.81-152.97-30.324-425.92-299.04-608.37zm266.15 586.05c-36.961 54.434-108.54 84.383-201.61 84.383-127.52 0-280.25-54.035-419.05-148.25-123.05-83.555-220.55-188.3-274.51-295.07-52.078-102.94-57.012-194.61-13.906-258.12 36.961-54.434 108.55-84.383 201.61-84.383 127.49 0 280.16 54.035 418.95 148.25 250.6 170.16 380.02 418.34 288.52 553.19z"/>
 <path d="m580.12 471.82c0.43359-0.63672 2.0742-3.1094 2.4727-3.6367 23.34-34.391 88.211-61.188 121.95-74.016 71.555-22.559 42.254-101.9-21.875-138.31-144.8-82.273-330.66-84.203-396 12.035-0.34766 0.50391-1.5703 2.293-1.8594 2.7852-65.328 96.18 0.71875 247.22 108.34 345.29 75.77 69.168 174.16 60.359 163.22-3.5625 2.2031-34.672 0.84766-106.8 23.758-140.58z"/>
 <path d="m752.57 588.84c0.43359-0.60156 2.0273-3 2.4727-3.5742 23.293-34.414 24.266-104.57 23.762-140.68-5.4375-74.844 79.129-76.848 136.64-30.742 129.9 104.22 200.24 276.28 134.94 372.49-0.3125 0.49219-1.5703 2.2812-1.8477 2.8203-65.34 96.18-230.11 90.492-360.95 26.699-92.207-44.855-120.37-139.54-56.891-153.07 31.375-14.801 98.938-40.168 121.87-73.949z"/>
</svg>
