<?xml version="1.0" encoding="UTF-8"?>
<svg width="1200pt" height="1200pt" version="1.1" viewBox="0 0 1200 1200" xmlns="http://www.w3.org/2000/svg">
 <path d="m1191.9 272.5c-21.758-29.004-90.625 5.3047-90.625 5.3047l-159.25 80.473c22.105 14.496 40.273 29.785 55.152 45.395l160.07-72.562c0.015626 0 58.625-26.629 34.66-58.609z"/>
 <path d="m997.18 403.67-537.83 245.81-25.535-35.531 508.21-255.67c-84.145-55.02-191.45-116.44-457.59-103.14-339.13 16.957-498.79 240.35-483.43 388.28 26.891 258.67 363.71 331.62 499.41 339.18 335.75 18.684 481.71-116.84 478.18-191.34-3.3594-70.586-145.09-53.832-137.75-131.04 6.7305-70.535 167.96-6.6719 208.27-67.176 13.703-20.555 24.707-108.88-51.949-189.37zm-815.05 312.62c-28.559 0-51.695-23.23-51.695-51.77 0-28.465 23.137-51.707 51.695-51.707 28.547 0 51.695 23.242 51.695 51.707-0.011718 28.547-23.148 51.77-51.695 51.77zm57.395-182.4c-28.535 0-51.695-23.172-51.695-51.695 0-28.535 23.16-51.707 51.695-51.707 28.547 0 51.707 23.172 51.707 51.707 0.011719 28.523-23.148 51.695-51.707 51.695zm93.109 304c-28.559 0-51.707-23.16-51.707-51.707 0-28.535 23.148-51.719 51.707-51.719 28.547 0 51.684 23.184 51.684 51.719 0 28.547-23.137 51.707-51.684 51.707zm34.93-427.91c0-28.547 23.148-51.742 51.707-51.742s51.695 23.195 51.695 51.742c0 28.5-23.137 51.707-51.695 51.707s-51.707-23.207-51.707-51.707zm159.2 471.64c-28.535 0-51.695-23.172-51.695-51.73 0-28.535 23.16-51.695 51.695-51.695 28.559 0 51.707 23.16 51.707 51.695 0 28.559-23.148 51.73-51.707 51.73zm191.51-73.008c-30.613 0-55.43-24.793-55.43-55.391 0-30.613 24.816-55.391 55.43-55.391 30.59 0 55.414 24.781 55.414 55.391 0.011719 30.586-24.828 55.391-55.414 55.391z"/>
</svg>
