<?xml version="1.0" encoding="UTF-8"?>
<svg width="1200pt" height="1200pt" version="1.1" viewBox="0 0 1200 1200" xmlns="http://www.w3.org/2000/svg">
 <path d="m286.8 866.4c-7.1992 16.801-56.398 88.801-178.8 68.398-50.398-10.801-96-48-96-48s42-7.1992 60-33.602c12-18 15.602-49.199 16.801-55.199 2.3984-14.398 7.1992-27.602 14.398-40.801 31.199-49.199 96-63.602 146.4-33.602 49.203 32.406 64.801 93.605 37.203 142.8z"/>
 <path d="m142.8 417.6c-45.602-1.1992-81.602-38.398-80.398-84 1.1992-45.602 38.398-81.602 84-80.398 45.602 1.1992 81.602 38.398 80.398 84-1.1992 44.398-38.402 81.598-84 80.398z"/>
 <path d="m601.2 441.6h-74.398s-8.3984-94.801-8.3984-97.199c-1.1992-34.801-30-67.199-66-67.199h-123.6c-31.199 0-54 16.801-66 48l-74.398 175.2c-7.1992 16.801 0 34.801 16.801 42 3.6016 1.1992 8.3984 2.3984 13.199 2.3984 12 0 24-7.1992 30-19.199l50.398-116.4h150l6 74.398c1.1992 20.398 18 34.801 38.398 34.801h109.2c21.602 0 38.398-18 38.398-38.398-1.1953-21.605-17.996-38.402-39.598-38.402z"/>
 <path d="m1178.4 834-180-273.6c-12-15.602-31.199-25.199-51.602-24-20.398 1.1992-33.602 10.801-49.199 27.602l-184.8 206.4-15.602-14.398 70.801-78c-21.602-31.199-61.199-57.602-135.6-57.602-92.398 0-164.4 50.398-216 108v-254.4c0-27.602-21.602-49.199-49.199-49.199-27.602 0-49.199 21.602-49.199 49.199v411.6c0 6 2.3984 54 50.398 54l366-1.1992s67.199 0 97.199-39.602c1.1992-1.1992 9.6016-9.6016 16.801-21.602l106.8-171.6 124.8 204c9.6016 15.602 30 24 49.199 24 13.199 0 26.398-4.8008 38.398-13.199 26.402-20.402 30.004-56.402 10.801-86.402z"/>
</svg>
