<?xml version="1.0" encoding="UTF-8"?>
<svg width="1200pt" height="1200pt" version="1.1" viewBox="0 0 1200 1200" xmlns="http://www.w3.org/2000/svg">
 <path d="m644.33 427.89c-96.781-101.21-210.94-55.703-271.15-55.57-49.883 0.10938-74.004-1.7656-109.8-16.559-23.039-135.11 34.223-237.94 34.223-237.94s53.352 113.35 223.39 163.36c52.199 15.348 143.5 6.6953 210.06 128.35 35.543 65.016-11.148 198.38 35.543 242.86-97.816 4.4648-60.918-160.36-122.26-224.5z"/>
 <path d="m234.27 764.64s116.75 80.723 185.59 90.035c82.223 11.113 144.8-34.402 144.8-34.402-0.003906 0-198.32 55.031-420.41-192.31-146.7-163.42-123.36-390.12-123.36-390.12s164.87 164.41 326.59 172.16c60.156 2.8789 160.81-60.816 263.5 44.555 63.359 65.016 31.129 248.98 149.12 228.17 85.32-15.07-14.508-181.03 94.262-218.17 61.512-20.977 96.457 25.535 113.35 40.008 16.895 14.484 76.621 36.637 76.621 36.637s-82.129 20.328-89.965 60.047c-11.242 57.168 130.03 273.43-120.01 446.8-79.992 55.441-179.53 56.328-257.46 33.48-107.5-31.547-174.84-97.922-225.25-116.87-140.26-52.742-300.75 46.703-300.75 46.703s17.16-101.86 93.348-186.7c48.891-54.445 90.016-60.023 90.016-60.023zm665.57-221.74c9.3359 0 16.934-7.5703 16.934-16.945 0-9.3594-7.5977-16.934-16.934-16.934-9.3594 0-16.934 7.5703-16.934 16.934 0 9.375 7.5742 16.945 16.934 16.945z"/>
 <path d="m1172.2 649.37c-5.0898-2.8555-124.93-71.555-149.11-188.23-24.238-116.88 55.094-216.62 58.477-220.81l17.125 13.836c-0.75781 0.94922-76.117 96.023-54.023 202.51 22.152 106.98 137.2 172.86 138.34 173.51z"/>
 <path d="m994.89 283.3c31.152 40.621 14.652 89.004 14.652 89.004s-48.215 6.9961-82.164-37.246c-34.5-44.977-14.664-89.016-14.664-89.016 0-0.003906 48.207-7.0352 82.176 37.258z"/>
 <path d="m1088 380.53c-35.207 27.973-31.211 71.797-31.211 71.797s39.828 15.359 78.203-15.109c38.988-30.984 31.211-71.797 31.211-71.797 0 0.003906-39.852-15.383-78.203 15.109z"/>
</svg>
