<?xml version="1.0" encoding="UTF-8"?>
<svg width="1200pt" height="1200pt" version="1.1" viewBox="0 0 1200 1200" xmlns="http://www.w3.org/2000/svg">
 <path d="m1123.2 1050.3c-21.309-10.93-48.523-16.383-75.668-16.383-27.168 0-52.383 5.4531-75.715 16.383-21.238 9.1172-46.5 14.547-73.668 14.547-25.238 0-50.43-5.4531-73.738-14.547-23.238-10.93-48.5-16.383-75.668-16.383-27.145 0-52.332 5.4531-75.645 16.383-23.262 9.1172-48.453 14.547-73.738 14.547-27.145 0-52.332-5.4531-73.691-14.547-23.285-10.93-50.477-16.383-77.617-16.383-25.145 0-52.332 5.4531-75.617 16.383-21.383 9.1172-46.57 14.547-73.738 14.547-25.215 0-50.43-5.4531-73.668-14.547-23.332-10.93-48.547-16.383-75.668-16.383-27.191 0-52.355 5.4531-75.691 16.383-23.207 9.1211-48.422 14.57-73.684 14.57v-103.88c25.262 0 50.477-5.4531 73.738-14.547 23.309-10.93 48.5-16.5 75.691-16.5 27.145 0 52.332 5.5703 75.668 16.5 23.238 9.1172 48.453 14.547 73.668 14.547 27.168 0 52.332-5.4531 73.738-14.547 23.309-10.93 50.5-16.5 75.617-16.5 27.168 0 54.355 5.5703 77.617 16.5 21.355 9.1172 46.547 14.547 73.691 14.547 25.285 0 50.477-5.4531 73.738-14.547 23.309-10.93 48.5-16.5 75.645-16.5 27.168 0 52.43 5.5703 75.668 16.5 23.309 9.1172 48.5 14.547 73.738 14.547 27.168 0 52.43-5.4531 73.668-14.547 23.309-10.93 48.547-16.5 75.715-16.5 27.145 0 54.355 5.5703 75.668 16.5 23.285 9.1172 48.453 14.547 75.645 14.547v103.88c-27.246 0-52.438-5.4492-75.699-14.57z"/>
 <path d="m1123.2 783.52c-21.309-10.977-48.523-16.383-75.668-16.383-27.168 0-52.383 5.4062-75.715 16.383-19.523 8.3828-42.668 13.168-67.285 13.953v-453.26c0-80.762-65.762-146.5-146.55-146.5h-88.617v124.41h88.617c12.191 0 22.117 9.9297 22.117 22.117v426.17c-10.215-1.668-20.453-3.2148-31.309-3.2148-27.145 0-52.332 5.4062-75.645 16.383-23.262 9.1172-48.453 14.547-73.738 14.547-27.145 0-52.332-5.4531-73.691-14.547-23.285-10.977-50.477-16.383-77.617-16.383-22.645 0-46.617 5.0234-68.262 13.953v-203.33c0-7.5938 6.168-13.785 13.715-13.785h64.93v23.332h40.238v-123.76h-40.238v23.191l-64.93-0.003906c-50.168 0-90.953 40.809-90.953 91v219.98c-1.332 0-2.5 0.33203-3.8555 0.33203-25.215 0-50.43-5.4531-73.668-14.547-23.332-10.977-48.547-16.383-75.668-16.383-27.191 0-52.355 5.4062-75.691 16.383-23.258 9.0977-48.473 14.547-73.734 14.547v103.93c25.262 0 50.477-5.4531 73.738-14.5 23.309-10.977 48.5-16.453 75.691-16.453 27.145 0 52.332 5.4766 75.668 16.453 23.238 9.0703 48.453 14.5 73.668 14.5 27.168 0 52.332-5.4531 73.738-14.5 23.309-10.977 50.5-16.453 75.617-16.453 27.168 0 54.355 5.4766 77.617 16.453 21.355 9.0703 46.547 14.5 73.691 14.5 25.285 0 50.477-5.4531 73.738-14.5 23.309-10.977 48.5-16.453 75.645-16.453 27.168 0 52.43 5.4766 75.668 16.453 23.309 9.0703 48.5 14.5 73.738 14.5 27.168 0 52.43-5.4531 73.668-14.5 23.309-10.977 48.547-16.453 75.715-16.453 27.145 0 54.355 5.4766 75.668 16.453 23.285 9.0703 48.453 14.5 75.645 14.5l-0.007812-103.93c-27.238 0-52.43-5.4492-75.691-14.57z"/>
 <path d="m575.88 160.33h64.785v194.64h-64.785z"/>
 <path d="m535.45 206.48c-1.6445 0-3.3828-0.45312-4.8828-1.3828l-79.93-49.238c-4.4062-2.668-5.7617-8.4297-3.0469-12.809 2.7148-4.4062 8.5-5.7617 12.832-3.0469l79.93 49.215c4.4062 2.6914 5.7617 8.4531 3.0469 12.832-1.7578 2.8594-4.8086 4.4297-7.9492 4.4297z"/>
 <path d="m458.55 378.21c-3.1172 0-6.1914-1.5703-7.9297-4.4766-2.7148-4.3555-1.332-10.117 3.0469-12.809l76.906-47.332c4.332-2.7148 10.117-1.3555 12.832 3.0469 2.6914 4.3828 1.332 10.145-3.0469 12.832l-76.906 47.332c-1.5195 0.95312-3.2109 1.4062-4.9023 1.4062z"/>
 <path d="m535.45 268.69h-87.07c-5.1445 0-9.3086-4.1914-9.3086-9.332 0-5.168 4.168-9.332 9.3086-9.332h87.07c5.168 0 9.332 4.168 9.332 9.332 0 5.1406-4.1406 9.332-9.332 9.332z"/>
</svg>
