<?xml version="1.0" encoding="UTF-8"?>
<svg width="1200pt" height="1200pt" version="1.1" viewBox="0 0 1200 1200" xmlns="http://www.w3.org/2000/svg">
 <path d="m1139.1 1187.1 0.011719-355.54s-107.77-215.46-446.61-249.55l-92.258 385.33-92.23-385.33c-338.82 34.09-446.61 249.56-446.61 249.56l-0.42969 355.52z"/>
 <path d="m458.77 509.35-0.43359-0.26562c-122.68-63.516-175.48-212.29-117.66-341.29 59.699-132.3 213.09-188.76 345.53-132.25 113.03 48.23 123.31 132.94 188.55 160.41 73.441 30.938 145.36-5.7227 145.36-5.7227 0-0.003906-42.387 138.49-131.87 229.41-222.95 209.07-390.93 113.51-429.46 89.711z"/>
</svg>
