<?xml version="1.0" encoding="UTF-8"?>
<svg width="1200pt" height="1200pt" version="1.1" viewBox="0 0 1200 1200" xmlns="http://www.w3.org/2000/svg">
 <path d="m753.05 460.02 26.062-77.16-97.246-25.477-17.785-54.121-170.4-17.148 29.461 141.95 45.527-9.8164 24.996-78.562 18.539 5.3984-28.402 88.906-76.934 14.27-14.438-66.047s-167.66 53.461-269.21 205.77c-72.562 108.85-77.855 200.69-75.371 242.64-7.3086 4.4766-14.508 8.2695-21.227 10.848-53.258 20.473-89.566 15.695-90.145 15.648-14.195-0.046875-28.055 10.199-29.148 25.211-1.0938 15 10.199 28.055 25.211 29.148 0.86328 0.058594 7.4141 0.50391 17.855 0.50391 25.68 0 49.656-1.9219 95.785-19.656 14.258-5.4844 29.051-14.062 43.02-23.629-0.19141 1.5-0.33594 3.0117-0.33594 4.5703 0 19.02 15.422 34.453 34.453 34.453h224.73c19.031 0 34.453-15.422 34.453-34.453s-15.422-34.453-34.453-34.453h-98.605c56.855-24.887 115.18-65.902 90.684-124.59-30.047-71.941-175.7 11.566-175.7 11.566s32.09-44.027 105.83-63.383c13.43-3.5156 32.977-5.3984 49.234-4.2734l-33.852-72.035 15.949-7.9453 143.45 307.2c8.6406 18.395 30.469 26.258 48.852 17.617 18.383-8.6289 26.363-30.516 17.734-48.898l-84.266-178.31 76.285-186.61z"/>
 <path d="m1165.2 844.7c-6.1328-0.50391-60.422-6.6953-75.047-68.879-6.8164-28.945-4.4414-68.281-4.4023-68.914 0.16797-2.5547-0.3125-29.605-3.8867-42-16.68-57.887-103.3-87.672-205.78-70.391-23.797 4.0078-59.953 16.621-59.953 16.621s7.6211 46.402-17.09 71.258c-13.945 14.027-40.32 20.746-41.52 20.977-0.45703 0.085938-0.92578 0.058594-1.3672 0.13281-8.2305 1.3203-12-4.3086-12.66-7.7148-0.74219-3.8633 1.7773-7.6094 5.6406-8.3633 6.9258-1.3438 26.438-7.1875 35.496-15.973 17.902-17.375 13.523-56.809 13.523-56.809l-5.5781-88.02-43.895 34.598c-10.703-4.0664-22.488-6.3477-34.906-6.3477-12.035 0-23.508 2.125-33.949 5.9766l-40.922-34.344s-13.211 68.102-12.781 104.99c0.39453 34.199 25.656 63.156 61.055 72.996-1.1992 11.641 0.097656 24.527 4.5234 38.914 6.0352 19.586 22.414 35.688 45.395 47.664v85.871c0 16.715 13.547 30.266 30.277 30.266 16.715 0 30.266-13.547 30.266-30.266v-66.395c29.207 5.125 61.883 6 94.859 2.0508l-50.797 40.906c-13.02 10.488-15.07 29.543-4.5859 42.562 5.9883 7.4141 14.746 11.281 23.594 11.281 6.6602 0 13.379-2.1953 18.973-6.6953l90.793-73.141c0.45703-0.35938 0.79297-0.79297 1.2109-1.1875v50.125c0 16.715 13.559 30.266 30.266 30.266 16.715 0 30.277-13.547 30.277-30.266v-78.758c22.934 80.578 93.562 106.41 128.82 108.61 0.66016 0.046875 1.3086 0.070312 1.9688 0.070312 16.043 0 29.426-12.434 30.602-28.656 1.2188-16.902-11.551-31.625-28.422-33.02z"/>
</svg>
