<?xml version="1.0" encoding="UTF-8"?>
<svg width="1200pt" height="1200pt" version="1.1" viewBox="0 0 1200 1200" xmlns="http://www.w3.org/2000/svg">
 <path d="m245.83 309.07-0.12109 0.16797c-9.9727 12.66-66.492 64.488-166.74 21.973-41.16-19.367-72.371-60.504-72.371-60.504s37.129 2.5312 58.453-16.105c14.398-12.742 23.844-38.965 25.477-44.16 4.5703-11.578 11.52-22.5 20.867-31.777 36.574-36.023 95.617-35.125 131.77 1.8125 35.266 36.027 35.938 92.27 2.6602 128.59z"/>
 <path d="m917.75 289.39v125.99l-221.05 0.26562c-29.953 0-54.227 24.18-54.395 54.145l-319.74-127.23c-52.211-19.859-142.67-9.5508-100.25 130.39 28.848 95.195 78.324 263.99 78.637 265.05l-181.91 0.13672v325.37h52.031v-199.7h282.5v199.7h52.008l0.003907-287.79h126.81l98.555 288.24 1.7539-0.44531h461.65v-774.12l-276.61 0.003906zm0 703.02h-100.3s-102.89-300.2-103.31-300.86c-7.6328-28.586-33.648-49.668-64.609-49.668h-40.922v0.33594h-243.14v-21.191h121.63l-42.395-103.66-121.15-43.234 7.1172-19.957 311.62 111.09h275.47l-0.003906 427.15z"/>
</svg>
