<?xml version="1.0" encoding="UTF-8"?>
<svg width="1200pt" height="1200pt" version="1.1" viewBox="0 0 1200 1200" xmlns="http://www.w3.org/2000/svg">
 <path d="m990.02 885.17c-20.168 17.168-52.168 36.238-97.547 36.238-45.215 0-77.094-18.883-97.215-35.977-20.191 17.094-52.094 35.977-97.191 35.977-45.023 0-76.855-18.762-96.953-35.832-20.094 17.07-51.906 35.832-96.953 35.832-45.168 0-77.047-18.883-97.191-36.047-20.215 17.168-52.094 36.047-97.191 36.047-45.645 0-77.715-19.262-97.832-36.477-20.238 15.883-48.883 30.215-87.262 35.215l89.457 160.81h770.62l73.617-164.29c-24.785-4.8125-48.117-14.215-68.355-31.5z"/>
 <path d="m1197 767.67c-6.9297-19.023-20.617-28.668-40.809-28.668-14.906 0-28.645 5.668-36.953 11.617-86.43-168.71-329.48-289.24-521-289.24-180.17 0-427.29 120.83-514.26 289.91-8.0938-6.2383-22.523-12.285-38.047-12.285-20.145 0-33.883 9.6445-40.832 28.668-6.8828 18.832-4.5469 36.691 6.9297 53.07 19.43 27.883 60.832 45.145 100.59 41.617 40.57-4.1172 64.594-23.07 77.617-38.191l22.406-26.168 22.453 26.117c15.262 17.738 37.523 38.023 74.738 38.023 37.117 0 59.43-20.332 74.762-38.145l22.453-26.047 22.406 26.094c15.285 17.738 37.57 38.094 74.738 38.094 37.07 0 59.285-20.285 74.523-37.977l22.43-26.023 22.453 26.023c15.215 17.691 37.43 37.977 74.5 37.977 37.117 0 59.477-20.332 74.855-38.145l22.477-26.117 22.406 26.168c15.168 17.738 37.406 38.094 74.668 38.094 37.191 0 59.523-20.332 74.809-38.094l21.57-24.117s35.668 58.93 96.809 61.977l8.832 0.76172c2.3828 0.14453 4.2383 0.14453 6.168 0.14453 35.832 0 71.762-16.93 89.43-42.094 11.445-16.355 13.73-34.211 6.875-53.043zm-727.48-157.74c-23.715 29.406-49.738 26.855-61 16.191-11.855-11.191-15.355-36.547 12.738-61.809 27.645-25 71.215-27.023 71.215-27.023 0-0.003906 0.42969 43.641-22.953 72.641zm128.02 56.332c-16.5 0-38.57-16.977-35.383-57.117 3.1445-39.57 35.383-72.977 35.383-72.977s32.238 33.406 35.383 72.977c3.2109 40.141-18.051 57.117-35.383 57.117zm182.41-40.145c-11.238 10.668-37.262 13.238-61-16.191-23.355-29-22.93-72.645-22.93-72.645s43.57 2.0234 71.191 27.023c28.141 25.242 24.617 50.625 12.738 61.812z"/>
 <path d="m617.14 400.83c-1.0703 0-2.1445-0.14453-3.2148-0.38281-23.691-4.6914-67.594-30.668-64.262-95.094 1.7617-34.383 23.594-51.145 41.168-64.57 15.5-11.906 24.262-19.332 24.645-33.215 1.0938-43.309-32.715-66.047-34.168-67.094-7.5234-4.9531-9.6914-15.094-4.7852-22.691 4.9766-7.5 14.977-9.7617 22.645-4.9531 2.0469 1.4062 50.762 33.332 49.191 95.594-0.76172 30.215-21.145 45.883-37.523 58.43-16.977 13.023-27.383 21.906-28.355 40.168-2.5703 50.762 33.832 60.262 38.023 61.238 8.7852 1.9297 14.477 10.594 12.617 19.453-1.6016 7.7383-8.3867 13.117-15.98 13.117z"/>
 <path d="m747.45 400.83c-0.95312 0-1.9766-0.14453-2.9531-0.26172-20.262-3.7148-57.762-24.332-54.953-75.617 1.5938-27.93 21.023-41.691 35.168-51.715 12.855-9 18.145-13.477 18.309-21.191 0.83203-29.691-24.785-45.645-25.855-46.262-7.7148-4.6914-10.238-14.785-5.6172-22.547 4.6445-7.7617 14.785-10.355 22.453-5.7148 1.7617 1.0234 43.262 26.145 41.93 75.43-0.69141 24.93-18.168 37.262-32.191 47.168-13.168 9.3828-20.617 15.168-21.285 26.738-1.9766 35.477 26.715 41.117 27.953 41.383 8.9531 1.5938 14.855 10.145 13.262 19.145-1.4805 7.8516-8.457 13.445-16.219 13.445z"/>
 <path d="m473.29 400.83c-0.95312 0-1.9531-0.14453-2.9531-0.26172-20.262-3.7148-57.809-24.332-54.93-75.617 1.5703-27.93 20.977-41.691 35.145-51.715 12.855-9 18.094-13.477 18.309-21.191 0.80859-29.691-24.809-45.645-25.855-46.262-7.7383-4.6914-10.238-14.785-5.5938-22.547 4.5938-7.7617 14.594-10.355 22.383-5.7148 1.8086 1.0234 43.309 26.145 41.953 75.43-0.69141 24.93-18.191 37.262-32.238 47.215-13.168 9.332-20.668 15.117-21.309 26.668-1.8555 33.477 23.168 40.332 28.215 41.383 8.8086 1.7852 14.617 10.406 12.906 19.285-1.4844 7.8047-8.3164 13.328-16.031 13.328z"/>
</svg>
