<?xml version="1.0" encoding="UTF-8"?>
<svg width="1200pt" height="1200pt" version="1.1" viewBox="0 0 1200 1200" xmlns="http://www.w3.org/2000/svg">
 <path d="m1062.2 493.66c-14.109-266.71-235.52-479.36-505.69-479.36-279.24 0-506.43 227.18-506.43 506.44v659.55h292.66v-659.56c0-117.88 95.891-213.78 213.77-213.78 108.68 0 198.49 81.59 211.87 186.71h-81.07v66.516h458.63v-66.516z"/>
 <path d="m1011.2 651c-7.4414 0-14.773-3.0469-19.957-8.375-1.3203-1.1992-2.5312-2.6641-3.6016-4.2617-0.92578-1.4531-1.8594-3.1797-2.5195-4.9219-0.80469-1.5859-1.3203-3.457-1.5977-5.1836-0.40625-1.8594-0.66016-3.7305-0.66016-5.5938 0-1.7266 0.26563-3.6016 0.66016-5.4609 0.27734-1.8594 0.79297-3.5898 1.5977-5.3164 0.66016-1.7383 1.5977-3.3242 2.5195-4.7891 1.0664-1.5977 2.2695-3.0586 3.6016-4.3906 10.512-10.512 29.27-10.512 39.91 0 1.3203 1.3203 2.5312 2.7969 3.457 4.3906 1.0664 1.4648 2.0039 3.0469 2.6641 4.7891 0.66016 1.7266 1.1992 3.457 1.5977 5.3164 0.40625 1.8594 0.52734 3.7305 0.52734 5.4609 0 1.8594-0.13281 3.7305-0.52734 5.5938-0.40625 1.7266-0.9375 3.6016-1.5977 5.1836-0.66016 1.7383-1.5977 3.4688-2.6641 4.9219-0.92578 1.5977-2.1367 3.0586-3.457 4.2617-5.3242 5.3164-12.512 8.375-19.953 8.375z"/>
 <path d="m982.96 823.52c0-15.562 12.637-28.199 28.199-28.199s28.199 12.637 28.199 28.199-12.637 28.199-28.199 28.199-28.199-12.633-28.199-28.199zm0-100.43c0-15.562 12.637-28.199 28.199-28.199s28.199 12.637 28.199 28.199-12.637 28.199-28.199 28.199-28.199-12.637-28.199-28.199z"/>
 <path d="m1011.2 952.16c-7.4414 0-14.773-2.9297-19.957-8.2305-1.3203-1.3438-2.5312-2.7969-3.6016-4.2617-0.92578-1.5977-1.8594-3.1914-2.5195-4.9219-0.80469-1.7266-1.3203-3.457-1.5977-5.3281-0.40625-1.7266-0.52734-3.5898-0.52734-5.4492 0-1.8711 0.13281-3.7305 0.52734-5.4609 0.27734-1.8711 0.79297-3.6016 1.5977-5.3281 0.66016-1.7266 1.5977-3.3242 2.5195-4.9219 1.0664-1.4531 2.2695-2.9297 3.6016-4.2461 6.5156-6.5156 16.223-9.5898 25.414-7.7148 1.8594 0.38281 3.5898 0.92578 5.3164 1.5977 1.7383 0.66016 3.3242 1.5859 4.9219 2.6523 1.4648 0.9375 2.9414 2.1367 4.2617 3.4688 1.3203 1.3203 2.5312 2.7969 3.457 4.2461 1.0664 1.5977 1.8711 3.1914 2.6641 4.9219 0.66016 1.7266 1.1992 3.457 1.5977 5.3281 0.40625 1.7266 0.52734 3.5898 0.52734 5.4609 0 1.8594-0.13281 3.7188-0.52734 5.4492-0.40625 1.8711-0.9375 3.6016-1.5977 5.3281-0.79297 1.7266-1.5977 3.3242-2.6641 4.9219-0.92578 1.4648-2.1367 2.9297-3.457 4.2617-1.3203 1.3203-2.7969 2.5195-4.2617 3.5898-1.5977 0.9375-3.1797 1.8594-4.9219 2.5312-1.7266 0.66016-3.457 1.1992-5.3164 1.5859-1.7266 0.38672-3.5977 0.51953-5.457 0.51953z"/>
 <path d="m888.37 1070.2c0-15.695 12.637-28.332 28.199-28.332 15.707 0 28.332 12.637 28.332 28.332 0 15.562-12.625 28.199-28.332 28.199-15.562 0-28.199-12.637-28.199-28.199zm0-89.387c0-15.562 12.637-28.332 28.199-28.332 15.707 0 28.332 12.77 28.332 28.332s-12.625 28.199-28.332 28.199c-15.562 0-28.199-12.648-28.199-28.199zm0-89.402c0-15.562 12.637-28.199 28.199-28.199 15.707 0 28.332 12.637 28.332 28.199s-12.625 28.199-28.332 28.199c-15.562 0.015626-28.199-12.633-28.199-28.199zm0-89.398c0-15.562 12.637-28.188 28.199-28.188 15.707 0 28.332 12.625 28.332 28.188 0 15.707-12.625 28.344-28.332 28.344-15.562 0-28.199-12.637-28.199-28.344zm0-89.258c0-15.562 12.637-28.188 28.199-28.188 15.707 0 28.332 12.625 28.332 28.188 0 15.574-12.625 28.199-28.332 28.199-15.562 0-28.199-12.621-28.199-28.199zm0-89.387c0-15.562 12.637-28.199 28.199-28.199 15.707 0 28.332 12.637 28.332 28.199s-12.625 28.199-28.332 28.199c-15.562 0-28.199-12.637-28.199-28.199z"/>
 <path d="m916.57 1187.7c-1.8594 0-3.7188-0.26562-5.4609-0.66016-1.8594-0.26563-3.5898-0.79297-5.3164-1.5977-1.7266-0.66016-3.3242-1.5859-4.7891-2.5195-1.5977-1.0664-3.0469-2.2578-4.3906-3.6016-5.1836-5.1836-8.2422-12.492-8.2422-19.957 0-1.7266 0.14453-3.7188 0.52734-5.4492 0.40625-1.8711 0.9375-3.6016 1.5977-5.3281 0.80469-1.7266 1.5977-3.3242 2.6641-4.9219 1.0664-1.4648 2.1367-2.9297 3.457-4.2617 10.512-10.512 29.543-10.512 39.91 0 1.3438 1.3438 2.5312 2.7969 3.6016 4.2617 0.92578 1.5977 1.8594 3.1914 2.5195 4.9219 0.80469 1.7266 1.3438 3.457 1.5977 5.3281 0.40625 1.7266 0.66016 3.7188 0.66016 5.4492 0 7.4531-3.0469 14.773-8.375 19.957-1.1992 1.3438-2.6523 2.5312-4.2461 3.6016-1.4648 0.9375-3.1914 1.8594-4.9219 2.5195-1.5977 0.80469-3.457 1.3438-5.1953 1.5977-1.875 0.39844-3.7227 0.66016-5.5977 0.66016z"/>
 <path d="m793.79 920.9c0-15.695 12.637-28.332 28.332-28.332 15.562 0 28.199 12.637 28.199 28.332 0 15.562-12.637 28.199-28.199 28.199-15.684 0.003907-28.332-12.633-28.332-28.199zm0-98.445c0-15.562 12.637-28.188 28.332-28.188 15.562 0 28.199 12.625 28.199 28.188 0 15.574-12.637 28.344-28.199 28.344-15.684 0.011719-28.332-12.77-28.332-28.344zm0-98.293c0-15.562 12.637-28.199 28.332-28.199 15.562 0 28.199 12.637 28.199 28.199s-12.637 28.199-28.199 28.199c-15.684 0-28.332-12.637-28.332-28.199zm0-98.305c0-15.707 12.637-28.332 28.332-28.332 15.562 0 28.199 12.625 28.199 28.332 0 15.562-12.637 28.199-28.199 28.199-15.684 0-28.332-12.633-28.332-28.199z"/>
 <path d="m822.13 1047.4c-1.8594 0-3.7305-0.13281-5.5938-0.52734-1.7266-0.26562-3.6016-0.92578-5.3281-1.5977-1.5977-0.66016-3.3242-1.5859-4.7773-2.5195-1.5977-1.0664-3.0586-2.2578-4.2617-3.6016-1.3203-1.3203-2.5312-2.7969-3.6016-4.2461-0.92578-1.5977-1.8594-3.1914-2.5195-4.9219-0.80469-1.7266-1.3438-3.457-1.5977-5.3281-0.40625-1.7266-0.66016-3.5898-0.66016-5.4609 0-1.8594 0.26562-3.7188 0.66016-5.4492 0.26562-1.8711 0.79297-3.6016 1.5977-5.3281 0.66016-1.7266 1.5977-3.3242 2.5195-4.9219 1.0664-1.4648 2.2695-2.9297 3.6016-4.2617 10.512-10.512 29.398-10.512 39.91 0 1.3203 1.3438 2.3867 2.7969 3.457 4.2617 1.0664 1.5977 1.8711 3.1914 2.6641 4.9219 0.66016 1.7266 1.1992 3.457 1.5977 5.3281 0.40625 1.7266 0.52734 3.5898 0.52734 5.4492 0 1.8711-0.13281 3.7305-0.52734 5.4609-0.40625 1.8711-0.9375 3.6016-1.5977 5.3281-0.79297 1.7266-1.5977 3.3242-2.6641 4.9219-1.0664 1.4531-2.1367 2.9297-3.457 4.2461-5.3203 5.332-12.512 8.2461-19.949 8.2461z"/>
</svg>
