<?xml version="1.0" encoding="UTF-8"?>
<svg width="1200pt" height="1200pt" version="1.1" viewBox="0 0 1200 1200" xmlns="http://www.w3.org/2000/svg">
 <path d="m475.33 317.64c-74.797-15-123.38-88.598-108.28-164.21 15.191-75.758 88.332-124.79 163.18-109.8 74.93 15.023 123.34 88.332 108.2 164.14-15.117 75.574-88.137 124.84-163.1 109.87"/>
 <path d="m1109.2 1008.7h-257.95s230.66-254.27 231.67-255.71c8.5547-8.9023 15.672-17.387 21.863-28.055 32.004-55.055 26.172-126.55-18.719-167.5-0.44531-0.57422-275.34-273.39-275.34-273.39-24.793-25.391-50.867-40.031-77.363-42.504-49.176-4.5977-82.68 34.836-92.676 50.809l-210.3 352.94h-189.07v-51.227c0-10.176-8.2422-18.422-18.395-18.422-10.176 0-18.422 8.2422-18.422 18.422v51.227h-30.133c-39.66 0-71.797 32.137-71.797 71.785 0 39.684 32.148 71.832 71.797 71.832h30.133v229.36c-146.75 9.6953-199.12 132.7-199.12 132.7h435.06s-63.434-122.18-199.13-132.56l0.003906-229.48h229.87c25.297 0 48.742-13.309 61.691-35.09l126.48-212.26 163.13 164.39-165.18 304.78c-7.5977 13.129-29.723 57.098-13.199 94.895 12.961 29.676 36.504 45.324 62.82 45.324h402.25c43.906 0 78.828-31.801 78.828-71.258 0.019531-39.246-32.68-71-78.809-71z"/>
 <path d="m49.223 459.98c-5.3633 30.266 17.027 67.211 56.219 88.609 39.168 21.383 82.367 20.281 104.93-0.58984 5.3633-30.266-17.051-67.211-56.219-88.609-39.18-21.395-82.379-20.277-104.93 0.58984z"/>
 <path d="m107.75 267.97c-21.059 22.367-22.559 65.543-1.5117 104.91 21.047 39.348 57.805 62.102 88.105 56.988 21.07-22.367 22.559-65.555 1.5117-104.93-21.047-39.344-57.793-62.074-88.105-56.973z"/>
 <path d="m361.25 359.79c14.977 26.832 5.8906 69.086-24.109 102.13-30 33.023-71.184 46.129-99.336 33.793-14.977-26.82-5.9023-69.086 24.109-102.12 30-33.039 71.188-46.129 99.336-33.805z"/>
</svg>
