<?xml version="1.0" encoding="UTF-8"?>
<svg width="1200pt" height="1200pt" version="1.1" viewBox="0 0 1200 1200" xmlns="http://www.w3.org/2000/svg">
 <path d="m658.92 466.14v-105.8c0-18.984 15.422-34.402 34.414-34.402 18.996 0 34.367 15.422 34.367 34.402v105.8c0 18.984-15.371 34.379-34.367 34.379-18.996 0-34.414-15.395-34.414-34.379z"/>
 <path d="m574.39 466.14v-121.7c0-19.043 15.406-34.402 34.43-34.402 18.984 0 34.367 15.359 34.367 34.402v121.7c0 18.984-15.383 34.379-34.367 34.379-19.02 0-34.43-15.395-34.43-34.379z"/>
 <path d="m489.88 466.14v-74.027c0-18.984 15.395-34.402 34.402-34.402 18.984 0 34.367 15.422 34.367 34.402v74.027c0 18.984-15.383 34.379-34.367 34.379-19.004 0-34.402-15.395-34.402-34.379z"/>
 <path d="m735.25 697.52 83.426-73.934c4.043-3.6133 7.0938-8.0156 9.0469-12.996 42.133-107.39 42.098-107.36 32.52-121.36l-57.191-88.633c-10.141-15.707-31.031-20.207-46.754-10.055-15.695 10.078-20.219 31.043-10.094 46.727l34.5 53.41c-53.074 9.7422-137.64 33.516-166.62 87.371-35.977 66.719-18.781 108.45-18.781 108.45h-19.141s-8.6992-43.559 5.1133-83.375c17.09-49.609 55.68-86.184 55.68-86.184l-147.61 0.003907v97.199s1.8242 28.453 13.488 49.645c10.402 18.949 33.516 30.012 33.516 30.012v228.84h198.9z"/>
 <path d="m1194.3 326.75-376.06 56.512 86.078 127.79h115.71z"/>
 <path d="m468.76 430.37-140.56 25.465 109.79-102.18-425.06 98.207h234.11l-87.25 68.75 308.53-0.13281z"/>
</svg>
