<?xml version="1.0" encoding="UTF-8"?>
<svg width="1200pt" height="1200pt" version="1.1" viewBox="0 0 1200 1200" xmlns="http://www.w3.org/2000/svg">
 <path d="m177.67 557.45s136.07-51.434 265.41-56.207c132.9-4.8945 265.11 39.035 265.11 39.035s26.555 10.883 22.129 26.543c-5.7734 20.473-23.891 15.91-34.609 15.602-12.492-0.35938-49.98-6.2383-122.52-5.2812-53.699 0.69531-97.598 9.9609-97.598 9.9609s67.105 45.277 70.234 95.23c1.0781 17.039-6.6133 29.23-13.98 36.898-11.594-15.875-32.004-40.141-58.883-56.867-31.367-19.621-52.043-23.398-52.922-23.555-6.8047-1.1758-13.344 3.3359-14.543 10.199-1.1992 6.793 3.3359 13.273 10.117 14.508 0.43359 0.097656 17.484 3.5391 44.039 20.148 30.504 19.031 52.188 50.184 58.957 60.637-1.1406 8.5547-3.8164 19.309-9.9961 28.57-3.7305 5.6055-8.3281 8.8086-12.938 10.609-9.4805-14.016-23.219-31.246-40.32-43.98-24.625-18.348-40.945-22.164-42.719-22.523-6.793-1.4023-13.43 2.9141-14.855 9.707-1.4141 6.7422 2.8672 13.355 9.5898 14.832 0.49219 0.13281 13.199 3.3477 33 18.121 13.055 9.7188 24.059 22.992 32.16 34.535-1.6914 8.4727-5.2422 19.934-12.539 25.559-28.391 21.852-57.781 0-57.781 0l-37.199-28.094s-31.188 16.906-56.148 16.379c-62.34-1.3086-131.46-44.473-131.46-44.473z"/>
 <path d="m1.4297 523.08h143.54v312.13h-143.54z"/>
 <path d="m842.15 323.72c-14.074 13.414-30.852 20.051-50.387 20.051-19.477 0-36.07-6.6484-49.777-20.051-13.738-13.32-20.578-29.746-20.578-49.273 0-19.477 6.8398-35.902 20.578-49.262 13.715-13.332 30.301-20.027 49.777-20.027 19.535 0 36.312 6.6953 50.387 20.027 14.113 13.355 21.098 29.785 21.098 49.262-0.003906 19.527-7 35.953-21.098 49.273z"/>
 <path d="m640.19 932.89 194.89-291.32-58.234-227.59c-3.6367-16.176-0.98438-36.973 22.871-48.445l240.93-106.57c17.062-7.5234 37.031 0.20312 44.594 17.242 7.5469 17.074-0.16797 37.043-17.242 44.594l-101.15 44.723h186.1c18.672 0 33.793 15.145 33.793 33.816 0 18.672-15.133 33.805-33.793 33.805h-206.77l65.074 246.12c2.1484 8.6523 2.1953 30.215 1.4883 38.148l-31.43 235c-1.4648 11.543-7.043 20.746-16.766 27.602-9.7578 6.8633-20.426 9.1914-31.98 7.0312-11.531-2.1484-20.543-7.7383-27.023-16.766-6.5508-9.0234-9.0352-19.32-7.5977-30.852l30.324-237.2-10.848-34.645-203.61 306.5c-9.3594 14.438-21.672 21.66-36.828 21.66-11.543 0-21.445-4.1875-29.785-12.445-8.2695-8.3164-12.395-18.277-12.395-29.809-0.011718-7.2344 1.7148-14.059 5.3984-20.59z"/>
</svg>
