<?xml version="1.0" encoding="UTF-8"?>
<svg width="1200pt" height="1200pt" version="1.1" viewBox="0 0 1200 1200" xmlns="http://www.w3.org/2000/svg">
 <path d="m627.71 346.09c0 84.684-68.648 153.34-153.33 153.34-84.684 0-153.34-68.652-153.34-153.34s68.652-153.33 153.34-153.33c84.684 0 153.33 68.648 153.33 153.33z"/>
 <path d="m899.67 238.55v351.57c0 43.023 35.023 78.117 78.094 78.117 43 0 78-35.094 78-78.117v-351.57zm78.262 381.29c-14.309 0-26.023-11.594-26.023-25.977 0-14.383 11.668-25.977 26.023-25.977 14.355 0 26.023 11.57 26.023 25.977 0 14.383-11.668 25.977-26.023 25.977z"/>
 <path d="m965.19 218.5c-47.883 0-91.809-31.953-105.07-80.332-3.9766-14.477 4.5938-29.5 19.191-33.43 14.738-4.0469 29.5 4.5938 33.406 19.07 7.9297 28.906 37.57 46.309 66.691 38.191 14-3.7383 25.668-12.785 32.883-25.332 7.2383-12.617 9.1172-27.262 5.3086-41.215-5.7148-21.047-23.43-36.594-45.145-39.5-14.906-1.9766-25.332-15.715-23.309-30.691 1.9531-14.977 15.547-25.215 30.715-23.332 43.383 5.9297 78.883 37 90.355 79.285 7.6445 28 3.9062 57.355-10.57 82.57-14.43 25.285-37.855 43.383-65.953 50.977-9.5273 2.4531-19.125 3.7383-28.504 3.7383z"/>
 <path d="m904.31 679.36c-28.047-20.117-43.883-52.906-43.883-90v-56.547l-508.64 0.5-42.57 0.19141c-126.81 0-207.09 106.12-207.09 214.48v378.45c-0.30859 98.07 127.59 98.07 127.59 0l0.003906-368.1h40.145l0.19141 439.21h425.55l-0.003906-518.19z"/>
</svg>
