<?xml version="1.0" encoding="UTF-8"?>
<svg width="1200pt" height="1200pt" version="1.1" viewBox="0 0 1200 1200" xmlns="http://www.w3.org/2000/svg">
 <path d="m869.71 1147.1-106.25-55.777 0.046875-0.097656-44.902 15.805 51.086-198.29c-3.2539 0.3125-6.5156 0.5625-9.7695 0.5625-20.137 0-36.383-6.0234-48.324-12.562l-34.094 224.77-41.426 14.578-17.891 63.863h241.29c18.539 0 27.852-9.3242 27.852-27.898-0.023437-10.75-5.9297-19.043-17.617-24.957z"/>
 <path d="m778.49 185.38c-21.012-20.52-31.523-45.973-31.523-76.32 0-29.305 10.512-54.516 31.523-75.527 21.086-21 46.262-31.586 75.602-31.586 29.375 0 54.516 10.586 75.602 31.586 21.023 21.012 31.523 46.223 31.523 75.527 0 30.348-10.5 55.801-31.523 76.32-21.086 20.531-46.223 30.828-75.602 30.828-29.344 0-54.52-10.281-75.602-30.828z"/>
 <path d="m1138.2 492.86c-10.285-10.285-22.738-15.434-37.453-15.434h-177.67l-85.078-195.18c-1.0078-1.9219-2.4609-5.3281-4.4023-10.273l-1.5-2.9297h-1.4414c-17.629-38.172-46.992-58.164-88.094-60.121-7.8008 0-15.145 0.96094-21.961 2.9141l-469.66 110.03c-14.641 2.9297-25.922 10.523-33.742 22.777-7.8359 12.238-9.793 25.668-5.8672 40.355 2.9297 13.68 10.512 24.434 22.754 32.242 12.191 7.8945 25.691 10.285 40.355 7.3555l312.55-74.82-237.73 393.28h-255.32s-53.281 4.4414-49.754 60.371c3.9102 61.777 84.469 57.012 84.469 57.012h269.04c34.223 0 58.691-11.711 73.402-35.16l71.879-118.91 161.43 159.97s36.289 39.203 93.742 13.727c39.781-17.652 52.801-85.656 6.1094-126.74l-132.11-130.6 115.91-190.8 52.848 118.89c8.8672 22.43 28.812 31.824 48.434 32.242h209.9c14.688 0 27.168-5.125 37.453-15.422 10.246-10.273 15.863-22.691 16.871-37.344 0.039063-14.695-5.1094-27.164-15.355-37.438zm-372.88 306.4c12.254 0 22.152 9.9492 22.152 22.152 0 12.254-9.8984 22.141-22.152 22.141-12.215 0-22.141-9.8867-22.141-22.141 0.011718-12.195 9.9375-22.152 22.141-22.152z"/>
</svg>
