<?xml version="1.0" encoding="UTF-8"?>
<svg width="1200pt" height="1200pt" version="1.1" viewBox="0 0 1200 1200" xmlns="http://www.w3.org/2000/svg">
 <path d="m1137.6 291.6c-7.1992-25.199-30-40.801-56.398-40.801-6 0-12 1.1992-18 2.3984l-80.398 25.199v-190.8c0-46.801-28.801-74.398-73.199-74.398h-375.61c-45.602 0-76.801 26.398-76.801 74.398v364.8c-40.801 18-69.602 30-75.602 33.602-49.199 25.199-86.398 82.801-94.801 106.8-10.797 21.598-241.2 596.4-241.2 596.4h477.6s115.2-48 177.6-115.2c26.398-28.801 46.801-67.199 61.199-98.398h151.2c39.602 0 69.602-25.199 69.602-76.801v-43.199h51.602c32.398 0 58.801-26.398 58.801-58.801 0-32.398-26.398-58.801-58.801-58.801h-51.602v-19.199h52.801c32.398 0 58.801-26.398 58.801-58.801 0-32.398-26.398-58.801-58.801-58.801h-52.801v-19.199h52.801c32.398 0 58.801-26.398 58.801-58.801 0-32.398-26.398-58.801-58.801-58.801h-52.801v-61.199l116.4-36c14.398-4.8008 27.602-14.398 34.801-28.801 5.9961-16.797 8.3945-32.398 3.5977-46.797zm-207.6 619.2h-328.8c-2.3984 12-4.8008 25.199-7.1992 38.398-21.602 84-93.602 130.8-97.199 133.2-2.3984 2.3984-6 2.3984-9.6016 2.3984-6 0-10.801-2.3984-14.398-7.1992-4.8008-8.3984-2.3984-18 4.8008-22.801 1.1992 0 63.602-42 82.801-112.8 19.199-75.602 9.6016-141.6 9.6016-142.8v-3.6016h190.8c39.602 0 78-24 78-69.602 0-46.801-34.801-75.602-78-75.602l-322.8 0.007813v-33.602h72v-541.2h88.801c0 21.602 14.398 33.602 33.602 33.602h176.4c19.199 0 31.199-12 31.199-33.602h90z"/>
 <path d="m567.6 237.6v105.6l104.4-0.003906v-105.6zm19.199 85.199v-66h66v66z"/>
 <path d="m602.4 272.4v34.801h34.801v-34.801z"/>
 <path d="m567.6 444v105.6h104.4v-105.6zm19.199 85.199v-66h66v66z"/>
 <path d="m602.4 478.8v34.801h34.801v-34.801z"/>
 <path d="m768 237.6v105.6h105.6v-105.6zm19.199 85.199v-66h66v66z"/>
 <path d="m802.8 272.4v34.801h34.801v-34.801z"/>
 <path d="m596.4 402v-42h-28.797v67.199h67.199v-25.199z"/>
 <path d="m714 291.6v-28.801h38.398v-25.199h-62.398v69.598h21.602v36h43.199v-51.598z"/>
 <path d="m682.8 360h-72v25.199h46.801v43.199h25.199z"/>
 <path d="m873.43 426.81h-74.398v-25.199h74.398z"/>
 <path d="m872.81 385.47h-32.398v-25.199h32.398z"/>
 <path d="m826.8 360h-126v58.801h21.602v30h-33.602v40.801h39.602v-26.398h37.199v-36h16.801v-43.199h43.199v-24.004zm-68.402 25.199v28.801h-32.398v-28.801z"/>
 <path d="m837.6 519.6h-44.402v28.797h79.199v-51.598h-34.797z"/>
 <path d="m798 444v26.398h-32.398v32.402h-75.602v45.598h79.199v-28.797h24v-22.801h39.602v-26.402h39.598v-26.398z"/>
</svg>
