<?xml version="1.0" encoding="UTF-8"?>
<svg width="1200pt" height="1200pt" version="1.1" viewBox="0 0 1200 1200" xmlns="http://www.w3.org/2000/svg">
 <path d="m1042.7 698.83v-219.96h-750v-461.65h-54.469v461.66h-166.12v64.02h2.0273v643.69h968.55v-265.38h94.871v-222.38zm-406.79-94.5h275.77v85.246h-275.77zm-115.23 456.82h-339.47v-37.645h339.47zm0-104.81h-339.47v-37.621h339.47zm0-104.77h-339.47v-37.645h339.47zm0-104.8h-339.47v-37.633h339.47zm0-104.8h-339.47v-37.633h339.47zm253.84 428.46c-78.406 0-141.97-63.574-141.97-141.98 0-78.395 63.562-141.94 141.97-141.94 78.406 0 141.95 63.539 141.95 141.94 0 78.406-63.539 141.98-141.95 141.98z"/>
</svg>
