<?xml version="1.0" encoding="UTF-8"?>
<svg width="1200pt" height="1200pt" version="1.1" viewBox="0 0 1200 1200" xmlns="http://www.w3.org/2000/svg">
 <path d="m565.95 534.6c-86.676 0-157.3-70.547-157.3-157.27 0-87.035 70.598-157.54 157.3-157.54 87.133 0 157.54 70.477 157.54 157.54 0 86.723-70.43 157.27-157.54 157.27z"/>
 <path d="m767.33 978.78h425.27s-59.543-277-206.88-494.86c-41.426-64.766-149.45-123.9-229.36-33.254-76.547 86.844-150.74 380.76-150.74 380.76l-159.65-0.097656 57.156-46.223-261.28-331.51-63.395 98.207-86.734-108.98-83.965 318.27 177.24 216.79 280.69 0.058594 255.76 0.83984 160.74-351.7c4.8008-10.512 17.16-15.086 27.695-10.32 10.477 4.7891 15.098 17.195 10.297 27.672zm-522.04-452.05 198.39 251.75-51.66 41.762-185.62-233.28zm-190.86 224.22 56.797-215.28 235.23 295.62-39.191-0.035156h-0.13281c-40.297 0-73.008 32.629-73.066 72.949-0.011719 11.195 2.6641 21.66 7.1406 31.141l-36.047-0.011719z"/>
</svg>
