<?xml version="1.0" encoding="UTF-8"?>
<svg width="1200pt" height="1200pt" version="1.1" viewBox="0 0 1200 1200" xmlns="http://www.w3.org/2000/svg">
 <path d="m545.35 525.89c-90.996 0-165.14-74.062-165.14-165.12 0-91.379 74.125-165.39 165.14-165.39 91.488 0 165.39 73.992 165.39 165.39 0 91.047-73.953 165.12-165.39 165.12z"/>
 <path d="m740.86 1008.2h446.5s-62.52-290.82-217.21-519.55c-43.488-68.004-156.91-130.08-240.8-34.906-80.352 91.172-158.26 399.75-158.26 399.75s-43.754-0.035156-99.562-0.070313l-171.3-180.21c-21.047-22.211-47.363-44.902-83.074-44.902h-166.95c-24.469 0-33.348 14.531-36.035 20.785-4.2461 9.8984-7.1523 31.008 21.289 60.961l152.05 160.2c-18.383 14.016-30.805 35.375-30.84 59.652-0.070312 42.395 34.211 78.156 76.586 78.227l459.42 0.070313 168.74-369.25c5.0508-11.027 18.012-15.828 29.074-10.836 11.004 5.0391 15.852 18.059 10.812 29.051zm-674.22-327.76c-3.3008-3.4805-5.7734-6.5508-7.5859-9.1211h158.07c15.445 0 30.949 9.4062 51.875 31.5l143.12 150.57c-86.473-0.046875-175.97-0.085937-175.99-0.085937-1.6797 0-3.2891 0.37109-4.957 0.48047z"/>
 <path d="m328.77 641.66-21.012-19.512 88.836-95.785 21.012 19.512z"/>
 <path d="m374.33 703.56-10.836-26.531 155.58-63.598 10.836 26.52z"/>
 <path d="m271.32 595.11-28.25-4.7656 26.559-157.22 28.258 4.75z"/>
 <path d="m162.43 590.23-38.727-189.04 28.094-5.7578 38.711 189.05z"/>
</svg>
