<?xml version="1.0" encoding="UTF-8"?>
<svg width="1200pt" height="1200pt" version="1.1" viewBox="0 0 1200 1200" xmlns="http://www.w3.org/2000/svg">
 <path d="m331.09 252.76c-11.047 35.953 9.1445 76.023 46.43 87.523 37.406 11.477 77.762-9.9297 88.762-45.93 11.547-37.332-9.8086-77.691-47.215-89.215-37.238-11.473-76.426 10.242-87.977 47.621z"/>
 <path d="m1039.5 644.98c-23.355 0-45.523 5.2148-65.547 14.355l-28.691-48.855c-0.30859-0.90625-0.85547-1.7148-1.168-2.5938 16.547-1.0469 31.191-12.262 36.094-28.309 6.8086-21.93-4.7383-43.715-26.668-50.453l-72.453-27.883-98.953-168.48c-3-5.0938-8.4766-8.2148-14.383-8.2148h-76.883c-9.2148 0-16.668 7.4531-16.668 16.645s7.4531 16.668 16.668 16.668h67.332l72.953 124.19-95.441-36.766c-30.43-13.883-57.668 0.52344-72.07 9.0703-8.0234 4.8086-141.76 82.477-141.76 82.477-2.8086 2-8 4.4062-13.617 4.2852-2.0938-0.046876-5.8555-2.0938-7.5938-3.4766l-67.215-53.07c-4.1719-3.2852-4.8867-9.332-1.5742-13.477 3.2852-4.1445 9.3555-4.8555 13.5-1.5703l62.285 49.238 151.21-139.14 0.23828-0.28516c1.1172-1.168 1.5234-2.6172 2.4297-3.8828 1.3086-1.8828 2.6445-3.6172 3.5234-5.668 0.85547-1.9766 1.3086-3.9766 1.7383-6.0234 0.5-2.0938 0.97656-4.0938 1.0469-6.2617 0.070313-2.1172-0.28516-4.1172-0.61719-6.2383-0.33203-2.1172-0.61719-4.168-1.3828-6.1914-0.78516-2.0703-1.9531-3.9062-3.1445-5.8086-0.80859-1.332-1.1914-2.8555-2.2148-4.0703-0.45312-0.54688-1.1172-0.78516-1.5938-1.3086-0.47656-0.5-0.64453-1.168-1.168-1.6445-1.168-1.0703-2.5938-1.5234-3.8555-2.4297-1.832-1.3086-3.5938-2.6172-5.6445-3.5-1.9766-0.88281-4-1.3086-6.0938-1.7852-2.0703-0.47656-4.0469-0.95312-6.168-1.0234-2.168-0.046875-4.2148 0.30859-6.3555 0.64453-2.0703 0.33203-4.0938 0.61719-6.1172 1.3828-2.0938 0.76172-3.9297 1.9297-5.8555 3.1172-1.332 0.83203-2.832 1.168-4.0469 2.1914l-124.07 97c-12.43-24.57-24.691-46.477-32.477-54.594-12.809-13.355-40.047-28.309-74.477-15.5-31.977 11.906-37.191 40.547-37.191 40.547-10.594 24.906 8.5938 59.43 8.5938 59.43l97.57 186.38c7.1172 13.5 20.145 21.738 34.215 26.094 20.617 6.4062 43.453-1.3828 62.57-16.117l174.59-118.55 84.07 28.762c-23.668 16.5-39.238 43.832-39.238 74.809 0 0.61719 0.19141 1.2148 0.19141 1.832l-313.33 60.738-149.38-275.69c-5.0469-9.332-16.738-12.762-26.047-7.7383-9.332 5.0469-12.809 16.715-7.7383 26.047l29.855 55.117-41.855 89.047c-20.953-7.8555-43.547-12.383-67.215-12.383-106.02 0.003906-192.24 86.195-192.24 192.22 0 105.98 86.215 192.19 192.19 192.19 106 0 192.21-86.215 192.21-192.19 0-6.4062-0.35547-12.691-0.97656-18.93l391.17-75.809c13.645 33.285 46.309 56.832 84.453 56.832 17.738 0 34.191-5.3086 48.191-14.094-16.57 25.047-26.285 55.023-26.285 87.238 0 87.453 71.094 158.57 158.55 158.57s158.57-71.117 158.57-158.57c0.019531-87.43-71.098-158.55-158.55-158.55zm-766.48-7.2617c31.477 19.57 55.43 50.07 66.355 86.238l-117.59 22.785zm-80.855 284.33c-84.785 0-153.76-68.977-153.76-153.76 0-84.809 68.953-153.76 153.76-153.76 17.832 0 34.883 3.2148 50.809 8.832l-65.332 138.93c-2.668 5.6914-1.9297 12.383 1.9297 17.332 3.1914 4.0938 8.0703 6.4531 13.145 6.4531 1.0469 0 2.1172-0.09375 3.168-0.33203l149.45-28.977c0.28516 3.8555 0.59375 7.6172 0.59375 11.547-0.003906 84.738-68.98 153.74-153.77 153.74zm184.95-205.38c-13.5-48.309-45.383-88.883-87.668-113.86l31.5-67 94.047 173.52zm481.9-24.715c-29.168 0-52.883-23.691-52.883-52.855 0-29.168 23.715-52.855 52.883-52.855s52.855 23.691 52.855 52.855c0.003906 29.164-23.688 52.855-52.855 52.855zm180.48 231.71c-66.238 0-120.12-53.906-120.12-120.14 0-38.023 18.07-71.523 45.715-93.57l60.547 103.05c3.1172 5.3086 8.668 8.2383 14.383 8.2383 2.8555 0 5.7383-0.73828 8.4297-2.2852 7.9297-4.668 10.57-14.883 5.9297-22.809l-60.855-103.55c14.191-5.8828 29.668-9.2148 45.977-9.2148 66.262 0 120.14 53.906 120.14 120.12-0.007812 66.262-53.891 120.17-120.15 120.17z"/>
</svg>
