<?xml version="1.0" encoding="UTF-8"?>
<svg width="1200pt" height="1200pt" version="1.1" viewBox="0 0 1200 1200" xmlns="http://www.w3.org/2000/svg">
 <path d="m631.29 452.44c0 15.797-12.809 28.605-28.609 28.605s-28.609-12.809-28.609-28.605c0-15.801 12.809-28.609 28.609-28.609s28.609 12.809 28.609 28.609z"/>
 <path d="m631.29 545.36c0 15.801-12.809 28.609-28.609 28.609s-28.609-12.809-28.609-28.609 12.809-28.605 28.609-28.605 28.609 12.805 28.609 28.605z"/>
 <path d="m631.29 638.29c0 15.797-12.809 28.605-28.609 28.605s-28.609-12.809-28.609-28.605c0-15.801 12.809-28.609 28.609-28.609s28.609 12.809 28.609 28.609z"/>
 <path d="m715.61 452.44c0 15.793-12.805 28.594-28.598 28.594s-28.598-12.801-28.598-28.594 12.805-28.598 28.598-28.598 28.598 12.805 28.598 28.598z"/>
 <path d="m715.61 545.36c0 15.793-12.805 28.598-28.598 28.598s-28.598-12.805-28.598-28.598 12.805-28.594 28.598-28.594 28.598 12.801 28.598 28.594z"/>
 <path d="m715.61 638.29c0 15.793-12.805 28.594-28.598 28.594s-28.598-12.801-28.598-28.594 12.805-28.598 28.598-28.598 28.598 12.805 28.598 28.598z"/>
 <path d="m897.1 575.94c-5.3516-17.16-21.023-28.691-39.023-28.691-4.1289 0-8.2422 0.625-12.215 1.8711l-56.258 17.578v-185.94c0-32.594-20.258-51.59-51.035-51.59h-182.82c-31.402 0-53.461 18.406-53.461 51.59v281.95c-28.5 12.359-98.004 45.973-102.27 48.156-34.402 17.52-60.348 57.742-66.203 73.969-7.1289 16.211-167.44 415.33-167.44 415.33h332.27s80.484-33.73 123.34-80.461c18.047-19.703 32.461-46.367 42.445-68.363h76.738c27.625 0 48.445-17.809 48.445-53.328v-30.18h35.617c22.535 0 40.871-18.348 40.871-40.859 0-22.57-18.336-40.895-40.871-40.895h-35.617v-13.645h36.562c22.559 0 40.895-18.324 40.895-40.859 0-22.57-18.336-40.895-40.895-40.895h-36.562v-13.645h36.562c22.559 0 40.895-18.348 40.895-40.895 0-22.512-18.336-40.859-40.895-40.859h-36.562v-42.898l80.664-25.223c10.43-3.2539 18.961-10.355 24.023-20.039 5.0664-9.6953 6.0508-20.738 2.8008-31.188zm-144.22 380.7h-0.28906v13.883h-196.04c-0.69531 18.035-3 39.719-8.9648 62.555-15.18 58.285-65.148 91.164-67.262 92.531-1.957 1.2734-4.1523 1.8594-6.3242 1.8594-3.8281 0-7.5977-1.8594-9.8281-5.3164-3.5039-5.4102-1.9453-12.637 3.4805-16.164 0.43359-0.26562 44.398-29.52 57.336-78.793 13.738-52.367 6.8633-98.809 6.8164-99.277-0.13281-0.98438-0.12109-1.9336 0-2.9141h133.02c27.266 0 54.516-16.402 54.516-48.672 0-32.242-24.012-52.547-54.516-52.547l-225.85 0.003906v-23.391h99.926l-0.003907-426.97h213.98z"/>
 <path d="m457.15 106.51c7.1641 7.1406 18.73 7.1992 25.895 0 89.039-89.027 233.96-89.062 322.97 0l1.2969 1.4766c6.707 7.1641 18.684 7.3672 25.957 0.25391 7.2227-7.1172 7.3555-18.695 0.23828-25.871-0.39453-0.55078-0.97266-1.1875-1.5586-1.8125-103.33-103.31-271.52-103.31-374.83 0-7.1523 7.1992-7.1406 18.812 0.035156 25.953"/>
 <path d="m514.27 163.67c7.1758 7.1758 18.73 7.1758 25.895 0 57.516-57.516 151.18-57.469 208.71 0.035156l1.2734 1.4297c6.6484 7.2344 18.707 7.4023 25.922 0.27734 7.2461-7.1055 7.3789-18.73 0.28906-25.945-0.45703-0.5625-0.99609-1.1289-1.5586-1.6914-71.844-71.867-188.75-71.879-260.55-0.070313-7.1562 7.1836-7.1445 18.766 0.019532 25.965"/>
 <path d="m568.4 217.79c7.2109 7.1641 18.758 7.1758 25.945 0.011719 27.504-27.434 72-27.66 99.742-0.625 0.55078 0.71875 1.1172 1.3906 1.7031 2.0273 6.793 6.7695 18.625 7.5 25.945 0.53906 7.3203-6.9961 7.5703-18.625 0.55078-25.969 0.10938 0-0.70703-0.98438-1.5703-1.8828-42.023-42.012-110.29-41.977-152.32-0.046875-7.1875 7.2109-7.1484 18.781 0 25.945"/>
 <path d="m663.32 241c-10.031-10.008-26.281-10.02-36.277-0.011719-10.055 10.008-9.9961 26.293-0.011719 36.324 10.008 10.008 26.258 10.008 36.324-0.035156 10.008-10.02 10.008-26.246-0.035156-36.277"/>
</svg>
