<?xml version="1.0" encoding="UTF-8"?>
<svg width="1200pt" height="1200pt" version="1.1" viewBox="0 0 1200 1200" xmlns="http://www.w3.org/2000/svg">
 <path d="m532.44 921.89-384.18-811.52c-7.2227-15.215-25.355-21.695-40.586-14.531-15.227 7.1992-21.695 25.379-14.484 40.559 0 0 39.254 210.82 138.57 414.55 4.3672 8.8672 8.8555 17.617 13.297 26.496l-219.2 407.52c-2.2695 4.8711-33.098 66.707-5.1367 111.32 14.699 32.484 50.699 42.301 72.047 44.016 1.8594 0.14453 3.6484 0.21484 5.2812 0.25391l244.67 0.14453c16.766 1.332 31.465-11.258 32.797-27.961 1.3438-16.777-11.148-31.477-27.91-32.809l-245.91-0.23828c-1.0195-0.097656-2.0508-0.046875-3.0859-0.023437-0.19141-0.097657-15.793-0.19141-21.109-12-15.684-18 1.2109-51.516 3.4336-56.652l199.55-367.4c92.375 165.96 196.92 304.31 196.92 304.31 4.8594 10.262 14.629 16.523 25.117 17.363 5.1367 0.42188 10.488-0.49219 15.422-2.832 15.223-7.168 21.75-25.348 14.504-40.566z"/>
 <path d="m458.26 1081.2h408.41v59.578h-408.41z"/>
 <path d="m1175.8 352.04c-19.199-69.266-70.727-165.09-207.38-228.2-236.94-109.43-514.84 109.63-641.55 229.77l137.1 288.74 33.48-35.902c121.81-131.95 289.78-226.79 346.46-212.94 25.414 6.2148 40.801 21 45.539 37.5 7.4023 25.621-13.152 74.293-27.086 99.816l-50.461 98.27 272.61 118.74 31.98-60.348c21.797-44.988 101.18-184.24 59.312-335.44zm-128.51 305.17c-11.902-0.96094-20.809-11.387-19.836-23.293 0.92578-11.93 11.387-20.832 23.305-19.871 11.914 0.96094 20.797 11.387 19.836 23.316-0.92578 11.918-11.367 20.809-23.305 19.848z"/>
 <path d="m824.03 684.91c-27.695 25.031-88.535 83.809-128.38 150.61-54.457 91.285-72.539 201.74-72.539 201.74s-2.0742 22.969 11.219 26.207c17.34 4.1523 20.867-10.379 24.77-18 4.4883-8.9023 14.508-37.523 42.926-88.078 21.035-37.355 44.688-64.402 44.688-64.402s7.8242 65.316 43.609 87.684c12.203 7.5977 24.121 7.1523 32.641 5.0156-7.3203-14.461-17.426-38.578-19.535-64.199-2.543-29.879 2.5664-45.91 2.8203-46.598 1.7031-5.2305 7.5352-8.0156 13.078-6.1445 5.4492 1.9688 8.543 7.7148 6.8281 13.008-0.10938 0.37109-4.0312 13.668-1.9062 38.977 2.3867 29.137 17.137 56.809 22.309 65.785 6.7812 2.6992 15.742 5.1836 24.91 4.5234 5.5938-0.30078 9.7188-2.2578 12.816-4.7773-6.7305-12.277-14.242-28.871-17.125-46.031-4.1875-24.66-0.74219-37.621-0.32422-39.047 1.5469-5.2695 7.2852-8.2578 12.852-6.4453 5.5312 1.6914 8.7734 7.3789 7.2852 12.684-0.070312 0.39453-2.5195 10.598 0.79297 30.422 2.2578 13.152 7.7891 26.16 13.246 36.469 6.9492 2.2578 16.754 4.332 23.711 1.5977 27.047-11.16 22.094-40.57 22.094-40.57l-6.5391-37.453s24.434-15.023 33.602-32.785c20.34-39.395 18.238-95.785 17.52-107.7z"/>
</svg>
