<?xml version="1.0" encoding="UTF-8"?>
<svg width="1200pt" height="1200pt" version="1.1" viewBox="0 0 1200 1200" xmlns="http://www.w3.org/2000/svg">
 <path d="m740.4 736.8h-81.598l-44.402 84h81.602z"/>
 <path d="m848.4 717.6 54-99.602h-75.598l-52.801 99.602z"/>
 <path d="m837.6 736.8h-74.402l-45.598 84h75.598z"/>
 <path d="m662.4 924h74.402l45.598-84h-75.598z"/>
 <path d="m651.6 943.2-57.602 106.8h75.602l56.398-106.8z"/>
 <path d="m685.2 840h-81.598l-45.602 84h81.602z"/>
 <path d="m547.2 943.2-56.398 105.6h81.598l56.402-105.6z"/>
 <path d="m889.2 840h-85.199l-44.398 84h85.199z"/>
 <path d="m805.2 618h-81.598l-54 99.602h81.598z"/>
 <path d="m956.4 717.6 52.801-98.402-85.199-1.1992-52.801 99.602z"/>
 <path d="m945.6 736.8h-85.203l-45.598 84h85.199z"/>
 <path d="m21.602 648 150 55.199c1.1992 2.3984 2.3984 3.6016 3.6016 6v342h37.199l-0.003906-229.2 27.602 58.801c1.1992 2.3984 6 8.3984 13.199 8.3984l3.6016-1.1992c7.1992-3.6016 9.6016-12 7.1992-18l-43.199-162c4.8008-6 6-13.199 4.8008-20.398 10.801-3.6016 21.602-9.6016 26.398-12 6-3.6016 9.6016-8.3984 9.6016-9.6016l64.801-100.8c3.6016-7.1992 2.3984-14.398-3.6016-18l-1.1992-1.1992-6-1.1992c-6 0-10.801 4.8008-10.801 4.8008l-109.2 114h-3.6016c-3.6016 0-7.1992 2.3984-10.801 3.6016-10.801-10.801-19.199-18-22.801-20.398-7.1992-4.8008-12-4.8008-13.199-4.8008l-117.6-19.199c-6 0-13.199 2.3984-15.602 10.801-1.1953 7.1953 3.6055 13.195 9.6055 14.395z"/>
 <path d="m64.801 483.6v-3.6016 3.6016l313.2 1.1992c1.1992 1.1992 1.1992 2.3984 2.3984 2.3984v564h61.199l0.003906-433.2 104.4 148.8c1.1992 2.3984 6 6 12 6 2.3984 0 4.8008-1.1992 6-2.3984 8.3984-4.8008 6-14.398 3.6016-18l-123.6-276c4.8008-8.3984 7.1992-18 6-26.398-1.1992-4.8008-2.3984-9.6016-4.8008-14.398 14.398-9.6016 43.199-28.801 51.602-38.398 6-6 10.801-13.199 10.801-16.801l80.398-211.2c1.1992-7.1992 0-14.398-8.3984-18l-4.8008-1.1992c-6 0-10.801 4.8008-12 8.3984l-156 256.79c-13.199 0-25.199 6-32.398 15.602-2.3984 2.3984-3.6016 4.8008-4.8008 8.3984-18-8.3984-46.801-20.398-58.801-22.801-9.6016-2.3984-20.398-1.1992-21.602-1.1992l-228 40.801c-7.1992 2.3984-13.199 7.1992-12 15.602 1.1992 7.1992 7.1992 12 15.602 12z"/>
 <path d="m834 943.2h-85.199l-57.602 106.8h85.199z"/>
 <path d="m1020 798h-66l-36 67.199h66z"/>
 <path d="m1099.2 798h-61.199l-36 67.199h60z"/>
 <path d="m956.4 948h61.203l36-67.199h-60z"/>
 <path d="m948 963.6-45.602 86.398h60l46.801-86.398z"/>
 <path d="m975.6 880.8h-66l-36 67.199h64.797z"/>
 <path d="m864 963.6-45.602 85.199 66 1.1992 45.602-86.398z"/>
 <path d="m1140 880.8h-68.398l-36 67.199h68.398z"/>
 <path d="m1185.6 798h-68.402l-37.199 67.199h68.398z"/>
 <path d="m1095.6 963.6h-68.402l-46.801 86.398h68.402z"/>
</svg>
