<?xml version="1.0" encoding="UTF-8"?>
<svg width="1200pt" height="1200pt" version="1.1" viewBox="0 0 1200 1200" xmlns="http://www.w3.org/2000/svg">
 <path d="m650.29 414.12v461.71h292.41v-461.71zm147.14 426.14c-14.883 0-26.953-12.047-26.953-26.93 0-14.855 12.07-26.953 26.953-26.953 14.855 0 26.906 12.094 26.906 26.953-0.003907 14.883-12.051 26.93-26.906 26.93zm83.715-87.547h-169.29l-0.003906-277.02h169.29z"/>
 <path d="m613.38 756.93v-490.57h-611.07v490.57h274.76v54.047l-134.66 0.003906v68.238h330.88v-68.238h-134.69v-54.047zm-92-40.762c-14.906 0-26.93-12.023-26.93-26.93 0-14.855 12.023-26.906 26.93-26.906 14.883 0 26.93 12.047 26.93 26.906-0.003906 14.906-12.074 26.93-26.93 26.93zm-454.34-91.645v-293.41h481.57v293.41z"/>
 <path d="m981.14 547.52v328.31h215.43l-0.003907-328.31zm106.74 294.17c-13 0-23.57-10.5-23.57-23.57 0-12.953 10.57-23.547 23.57-23.547 13.047 0 23.547 10.594 23.547 23.547 0.023437 13.047-10.5 23.57-23.547 23.57zm52.902-77.406h-103.91v-161.62h103.91z"/>
</svg>
