<?xml version="1.0" encoding="UTF-8"?>
<svg width="1200pt" height="1200pt" version="1.1" viewBox="0 0 1200 1200" xmlns="http://www.w3.org/2000/svg">
 <path d="m976.23 661.54c13.848-36.254 12.227-75.949-4.5703-111.71-15.348-32.652-42.516-59.496-75.863-75.719 1.5586-28.859-6.2383-56.914-20.914-81.602l305.91-273.29-36.457-40.789-305.18 272.64c-15.18-12.383-32.723-22.715-52.789-29.543-17.172-5.8555-35.125-8.7852-53.062-9.1211l167.41-255.53-45.742-29.988-181.52 277.02c-18.289-19.57-41.496-35.051-68.34-44.184-18.266-6.2148-37.246-9.3828-56.41-9.3828-63.336 0-120.43 35.027-145.44 88.355-65.734 1.1875-124.21 40.129-146.05 97.535-6.1094 15.852-9.2266 32.555-9.3477 49.32-59.352 6.4688-110.59 43.668-130.8 96.637-10.082 26.508-11.461 54.516-5.5469 81.168h-97.523c0 293.74 238.08 531.84 531.77 531.84 293.73 0 531.84-238.1 531.84-531.84h-102.2c0.25-0.625 0.58594-1.1875 0.83594-1.8242zm-787.63-52.066c11.027-28.922 42.266-48.359 77.723-48.359 6.5742 0 13.199 0.66016 19.668 2.0039l69.422 14.23-26.172-65.832c-4.4023-11.09-8.0742-28.379-0.5625-47.879 12.805-33.625 53.953-54.203 94.836-46.906l37.078 6.5625 7.1758-36.949c0.80469-4.1523 1.8125-7.7773 2.9883-10.934 11.09-29.027 42.406-48.527 77.953-48.527 10.738 0 21.395 1.7656 31.703 5.293 24.719 8.4375 43.934 25.754 52.668 47.594l15.875 39.48 37.586-19.934c22.211-11.797 50.172-13.871 75.18-5.3398 6.9492 2.375 13.211 5.6289 19.078 9.2539l-170.3 152.13 36.445 40.789 168.78-150.79c4.5352 13.344 4.9922 27.707 0.40625 41.664l-12.887 39.277 40.188 9.8281c2.4102 0.58984 4.8711 1.2344 7.8125 2.2695 23.074 7.8359 41.688 23.879 51.145 43.957 7.8711 16.789 8.7227 35.23 2.3281 51.91-4.3906 11.52-12.156 21.254-22.043 29.102l-690.76-0.003906c-8.6367-17.004-10.113-36.059-3.3086-53.891z"/>
</svg>
