<?xml version="1.0" encoding="UTF-8"?>
<svg width="1200pt" height="1200pt" version="1.1" viewBox="0 0 1200 1200" xmlns="http://www.w3.org/2000/svg">
 <path d="m145.91 927.19v272.81h904.91l-0.003906-272.81zm452.45 191.83c-30.645 0-55.453-24.809-55.453-55.43 0-30.594 24.809-55.406 55.453-55.406 30.617 0 55.43 24.809 55.43 55.406 0 30.621-24.809 55.43-55.43 55.43z"/>
 <path d="m673.07 634.93c0 41.234-33.43 74.664-74.664 74.664-41.238 0-74.668-33.43-74.668-74.664 0-41.238 33.43-74.668 74.668-74.668 41.234 0 74.664 33.43 74.664 74.668z"/>
 <path d="m1193 239.41c9.8555-10.738 9.1172-27.383-1.6172-37.215-10.691-9.832-27.309-9.0703-37.168 1.6172l-286.02 251.38c-68.191-70.785-163.81-115-269.83-115-12.406 0-24.645 0.73828-36.738 1.9062-7.4531-21.883-19.43-45.07-38.668-63.617-26.547-25.645-61.855-37.383-104.38-35.5-91.406 4.4297-153.86 89.57-178.88 130.81l-193.43-169.98c-9.8086-10.691-26.477-11.453-37.191-1.6172-10.715 9.832-11.43 26.477-1.5938 37.215l265.67 289.5c-31.594 54.93-49.953 118.48-49.953 186.45 0 58.547 13.832 113.79 37.785 163.19h674.69c10.168-20.977 18.07-43.191 24.285-66.07 63.215-25.855 231.71-102.93 214.95-184.83-2.7852-13.57-11.047-24.383-23.906-31.285-38.57-20.645-122.48-2.5703-191.59 18.43-8.2617-29.332-19.738-57.355-34.383-83.355zm-928.83 155.88c20.047-33.953 76.738-116.59 155.88-120.43 33.645-1.5703 60.645 7.332 80.57 26.5 13.523 12.977 22.309 29.383 28.383 45.57-77.168 14.477-146.07 52.406-198.86 106.38zm334.09 395.55c-86.07 0-155.86-69.809-155.86-155.91 0-86.07 69.785-155.91 155.86-155.91 86.094 0 155.91 69.832 155.91 155.91 0 86.098-69.809 155.91-155.91 155.91zm537.69-166.33c5.668 3 7.0469 6.5 7.668 9.5 8.4297 41.309-88.406 101.67-175.45 140.21 3.1172-19.238 5.2852-38.809 5.2852-58.906 0-23.715-2.9531-46.691-7.2148-69.168 70-21.379 142.62-36.094 169.71-21.641z"/>
</svg>
