<?xml version="1.0" encoding="UTF-8"?>
<svg width="1200pt" height="1200pt" version="1.1" viewBox="0 0 1200 1200" xmlns="http://www.w3.org/2000/svg">
 <path d="m618.85 978.07c0 11.016-8.8672 19.848-19.848 19.848-11.027 0-19.895-8.832-19.895-19.848 0-11.016 8.8672-19.895 19.895-19.895 10.98 0 19.848 8.8672 19.848 19.895zm0 64.176c0 11.016-8.8672 19.895-19.848 19.895-11.027 0-19.895-8.8672-19.895-19.895 0-11.004 8.8672-19.848 19.895-19.848 10.98-0.011719 19.848 8.8438 19.848 19.848zm0 64.227c0 10.98-8.8672 19.848-19.848 19.848-11.027 0-19.895-8.8672-19.895-19.848 0-11.016 8.8672-19.895 19.895-19.895 10.98 0.011719 19.848 8.8789 19.848 19.895zm0 64.176c0 10.98-8.8672 19.895-19.848 19.895-11.027 0-19.895-8.9141-19.895-19.895 0-10.98 8.8672-19.871 19.895-19.871 10.98 0 19.848 8.8906 19.848 19.871z"/>
 <path d="m558.04 978.07c0 11.016-8.8672 19.848-19.883 19.848-10.691 0-19.883-8.832-19.883-19.848 0-11.016 9.1914-19.895 19.883-19.895 11.004 0 19.883 8.8672 19.883 19.895zm0 64.176c0 11.016-8.8672 19.895-19.883 19.895-10.691 0-19.883-8.8672-19.883-19.895 0-11.004 9.1914-19.848 19.883-19.848 11.004-0.011719 19.883 8.8438 19.883 19.848zm0 64.227c0 10.98-8.8672 19.848-19.883 19.848-10.691 0-19.883-8.8672-19.883-19.848 0-11.016 9.1914-19.895 19.883-19.895 11.004 0.011719 19.883 8.8789 19.883 19.895z"/>
 <path d="m677.77 978.07c0 11.016-8.8672 19.848-19.871 19.848-10.703 0-19.895-8.832-19.895-19.848 0-11.016 9.1914-19.895 19.895-19.895 11 0 19.871 8.8672 19.871 19.895zm0 64.176c0 11.016-8.8672 19.895-19.871 19.895-10.703 0-19.895-8.8672-19.895-19.895 0-11.004 9.1914-19.848 19.895-19.848 11-0.011719 19.871 8.8438 19.871 19.848zm0 64.227c0 10.98-8.8672 19.848-19.871 19.848-10.703 0-19.895-8.8672-19.895-19.848 0-11.016 9.1914-19.895 19.895-19.895 11 0.011719 19.871 8.8789 19.871 19.895z"/>
 <path d="m485.11 642.43c-11.715-75.914-11.988-157.5-0.49219-242.83 11.074-82.559 29.977-156.57 56.207-219.98 0.085937-0.20313 0.52734-1.2227 0.55078-1.2969 2.0742-5.4102 7.8477-8.0898 13.199-6.4219 5.3633 1.7266 8.293 7.4648 6.5742 12.816-20.531 63.613-33.145 137.18-37.465 218.62-4.5859 85.078 2.293 165.43 20.125 239.09h241.4c12.109-75.012 12.793-156.67 1.4414-241.46-34.977-260.44-137.65-358.64-168.32-382.54 0 0-7.2617-6.1094-20.074-6.6719-9.8516-0.42188-19.535 6.793-19.535 6.793-30.637 23.902-133.27 122.26-168.13 382.43-11.449 84.984-10.922 166.55 0.82812 241.46z"/>
 <path d="m789.31 664.71h-382.64c-11.102 10.777-22.32 23.676-32.977 39.684-34.008 51.203-41.137 134.38-41.137 195.09 0 39.59 2.9883 67.957 3.0977 69.133l0.38281 3.5156 3.0469 2.7852c4.0781 3.8047 11.867 7.4023 21.539 6.168 5.0625-0.61328 14.09-3.0234 18.012-12.516l4.4414-10.801c14.125-34.379 43.488-105.97 66.086-131.06 13.633-15.121 28.906-28.391 43.547-39.469v0.3125l0.15625 4.0547c1.3086 18.238 17.578 31.535 30.359 39.227-8.9297 9.7305-21.719 25.246-28.523 40.922-8.125 18.637-9.3477 36.996-9.3477 46.344l0.97266 16.066 224.55-0.058593 0.96094-15.91c0-9.3477-1.2461-27.77-9.3711-46.414-6.8633-15.91-19.906-31.57-28.824-41.281 11.797-7.6211 26.578-20.688 27.875-38.617l0.14453-4.1406c0-0.60156-0.023437-1.2109-0.023437-1.7891 15.098 11.34 31.008 24.984 45.191 40.727 22.715 25.223 52.117 97.031 66.238 131.51l4.2969 10.367c3.9844 9.4922 12.984 11.941 18.035 12.516 9.6719 1.2344 17.461-2.3867 21.527-6.168l3.0469-2.7852 0.37109-3.5156c0.12109-1.1758 3.1094-29.484 3.1094-69.07 0-60.77-7.1172-143.94-41.16-195.14-10.652-16.008-21.887-28.906-32.984-39.672z"/>
</svg>
