<?xml version="1.0" encoding="UTF-8"?>
<svg width="1200pt" height="1200pt" version="1.1" viewBox="0 0 1200 1200" xmlns="http://www.w3.org/2000/svg">
 <path d="m918.38 380.15c19.285-38.23 65.902-53.461 104-34.211 38.148 19.199 53.461 65.809 34.094 104.1-19.43 38.113-66.012 53.363-104.06 34.117-38.113-19.324-53.379-65.957-34.035-104.01z"/>
 <path d="m582.35 931.02-542.1-0.011719v252.07h211l160.14-161.69h170.96z"/>
 <path d="m942.56 298.82-0.12109-0.085938c-12.457-7.2344-65.09-50.449-40.246-143.96 11.941-38.617 44.195-71.219 44.195-71.219s2.3516 32.988 21.469 49.43c12.996 11.113 37.309 16.043 42.059 16.895 10.754 2.5547 21.254 7.2734 30.562 14.352 36.238 27.648 42.852 79.738 14.902 116.15-27.281 35.594-76.699 43.129-112.82 18.445z"/>
 <path d="m1135.7 650.04c-22.488-73.836-49.379-91.199-71.543-108.5-24.504-19.105-53.914-25.141-94.055-26.102l-101.09-0.44531-0.097656-303.12c-0.75781-24.121-13.02-58.43-35.305-81.492-18.898-19.547-100.49-84.266-232.13-23.977-79.078 36.227-126.94 102.48-139.08 175.33l165.79 0.003906c12.695-8.7734 28.957-16.055 49.922-20.328 65.52-13.355 101.46 8.0508 115.84 18.133v226.22c0 0.88672 0.20312 1.7266 0.25391 2.6055v41.543c0 25.414 20.832 34.922 28.117 37.32l140.44 37.738c1.8945 1.9062 5.7109 5.8438 5.7109 5.8438 0 0.058594 21.215 23.363 31.391 56.062 3.6016 11.23 4.6094 22.488 4.2344 33.191 0 0-142.88-91.934-156.11-93.059-9.3594-3.9258-21.719-3.6719-31.309 0.66016-13.633 6.1797-22.465 20.027-22.465 35.34v198.73c0 21.301 16.801 38.617 37.691 38.617 20.734 0 37.559-17.305 37.559-38.617v-118.87l88.883 88.906-149.5 121.71c-9.3711 7.6328-14.242 18.898-14.242 30.289v163.49c0 21.434 16.859 38.746 37.727 38.746 20.82 0 37.754-17.305 37.754-38.746v-131.16s197.64-107.61 237.19-158.1c25.367-32.293 62.051-97.789 28.426-207.96z"/>
 <path d="m130.63 315.2v-302.58h-90.387v885.79h716.2l0.003906-583.21zm85.465 458.62h-85.465v-305.98c0-23.566 19.105-42.672 42.66-42.672 23.566 0 42.672 19.105 42.672 42.672h0.13281zm151.23 0h-85.477v-305.98c0-23.566 19.105-42.672 42.672-42.672s42.672 19.105 42.672 42.672h0.13281zm151.23 0h-85.465l0.003907-305.98c0-23.566 19.105-42.672 42.66-42.672 23.566 0 42.672 19.105 42.672 42.672h0.13281zm151.23 0h-85.465v-305.98c0-23.566 19.105-42.672 42.672-42.672s42.672 19.105 42.672 42.672h0.13281v305.98z"/>
</svg>
