<?xml version="1.0" encoding="UTF-8"?>
<svg width="1200pt" height="1200pt" version="1.1" viewBox="0 0 1200 1200" xmlns="http://www.w3.org/2000/svg">
 <path d="m960.35 494.83c-39.625-129.24-160.03-223.52-302.11-223.52-104 0-196.15 50.746-253.77 128.53h-108.14l0.003906-137.12h-68.93v137.12h-76.223v375.21h76.223v128.52h68.941v-128.52h108.42c57.625 77.578 149.65 128.18 253.49 128.18 144.95 0 267.1-98.219 304.15-231.52h80.352v-176.88h-82.406zm-664.01 176.89v-168.54h57.66c-7.4141 26.832-11.711 54.938-11.711 84.086 0 29.281 4.3086 57.539 11.797 84.457zm361.91 162.58c-125.9 0-229.93-94.789-244.96-216.71h158.88l-58.969 58.957c-13.465 13.477-13.465 35.27 0 48.742 6.7188 6.7305 15.539 10.094 24.371 10.094 8.8203 0 17.652-3.3594 24.371-10.094l58.98-58.98v83.41c0 19.043 15.434 34.465 34.465 34.465s34.477-15.422 34.477-34.465v-83.363l58.934 58.934c6.7422 6.7305 15.551 10.094 24.371 10.094 8.8086 0 17.641-3.3594 24.359-10.094 13.465-13.477 13.465-35.27 0-48.742l-58.969-58.957h83.398c19.066 0 34.477-15.445 34.477-34.477 0-19.043-15.406-34.488-34.477-34.488h-83.375l58.945-58.934c13.465-13.477 13.465-35.281 0-48.742-13.453-13.465-35.293-13.465-48.742 0l-58.934 58.945v-83.375c0-19.031-15.445-34.477-34.477-34.477s-34.465 15.445-34.465 34.477v83.41l-58.98-58.98c-13.453-13.465-35.293-13.465-48.742 0-13.465 13.465-13.465 35.27 0 48.742l58.934 58.934h-157.57c18.637-117.89 120.66-208.4 243.7-208.4 136.22 0 247.04 110.81 247.04 247.01 0.003907 136.2-110.83 247.07-247.04 247.07zm-40.234-251.17c0-22.223 18.023-40.234 40.234-40.234 22.246 0 40.262 18.012 40.262 40.234 0 22.211-18.012 40.262-40.262 40.262-22.211-0.003906-40.234-18.051-40.234-40.262z"/>
 <path d="m1051.8 121.95h-901.91c-76.02 0-137.87 61.848-137.87 137.87v654.89c0 67.859 49.32 124.29 113.96 135.65v82.68h157.51v-80.449h634.73v80.449h157.49v-82.68c64.656-11.352 113.98-67.777 113.98-135.65v-654.89c0-76.02-61.859-137.87-137.89-137.87zm68.961 792.77c0 38.027-30.949 68.941-68.953 68.941h-901.92c-38.004 0-68.93-30.91-68.93-68.941v-654.9c0-38.016 30.926-68.93 68.93-68.93h901.91c38.004 0 68.953 30.91 68.953 68.93v654.9z"/>
</svg>
