<?xml version="1.0" encoding="UTF-8"?>
<svg width="1200pt" height="1200pt" version="1.1" viewBox="0 0 1200 1200" xmlns="http://www.w3.org/2000/svg">
 <path d="m1167.5 946.41h-163.43v-30.227h163.43z"/>
 <path d="m180.07 946.41h-163.44v-30.227h163.44z"/>
 <path d="m669.06 1104.5h-277.85v-30.227h277.85z"/>
 <path d="m775.29 1186.2h-204.29v-30.238h204.29z"/>
 <path d="m485.51 1186.2h-204.29v-30.238h204.29z"/>
 <path d="m897.86 1104.5h-163.44v-30.227h163.44z"/>
 <path d="m812.54 992.53v-46.117h126.18v-30.238h-126.18v-326.81h-139.4v-95.688h-171.76v231.84h-109.81v190.66h-143.18v30.238h143.18v46.117h-196.48v30.238h792.66v-30.238zm-304.45-41.461h-51.434v-51.445h51.434zm0-103.99h-51.434v-51.434h51.434zm119.69 103.99h-51.445v-51.445h51.445zm0-103.99h-51.445v-51.434h51.445zm130.95-0.011719h-51.434v-51.422h51.434zm0-106.99h-51.434v-51.434h51.434z"/>
 <path d="m1171.6 777.61v-30.238h-64.922v-182.2h-138.57v-280.48h-131.07v-276.8h-193.73v459.8h55.801v95.688h139.39v301.26l247.27 0.058593v-30.238h-117.7v-56.855zm-373.88-269.81h-50.398v-51.758h50.398zm0-106.24h-50.398v-51.758h50.398zm108.97 0h-50.398v-51.758h50.398z"/>
 <path d="m391.4 148.32v392.33h-151.2v206.72h-151.36v30.238h151.34v56.855h-101.65v30.238h226.68l0.35938-165.17h109.81v-231.84h119.23l0.003906-319.38zm-10.402 500.1h-50.398v-51.758h50.398zm152.53-238.67h-50.398v-51.758h50.398zm0-106.25h-50.398v-51.758h50.398z"/>
</svg>
