<?xml version="1.0" encoding="UTF-8"?>
<svg width="1200pt" height="1200pt" version="1.1" viewBox="0 0 1200 1200" xmlns="http://www.w3.org/2000/svg">
 <path d="m1177.3 712.64c-16.801-34.152-66.648-49.414-100.98-32.375l-265.25 133.93c4.0781 16.754 6.3828 45.742 0.89844 62.785-16.211 48.973-77.785 75.215-126.56 59.52l-179.36-58.176 8.4844-31.176 179.28 58.188c35.902 11.375 74.711-8.3867 86.699-44.352 3.3008-10.906 3.9102-22.477 1.7266-33.266-1.9805-11.711-7.0312-22.332-14.113-31.559-8.5664-10.078-19.586-17.387-32.016-21.324l-327.37-105.57s-26.988-8.3398-53.543-10.188c-28.812-2.0273-61.512 13.344-61.512 13.344l-283.75 140.27v302.89l238-143.38 372.31 70.488c27.266 6.7812 56.398 3.168 78.875-7.2227l443.18-221.82c47.16-23.363 52.176-66.457 35.004-101z"/>
 <path d="m539.17 254.33c-11.316 35.723 10.285 84.551 54.84 117.52 44.531 32.965 97.535 39.383 128.41 18.145 11.316-35.734-10.285-84.574-54.84-117.54-44.566-32.988-97.559-39.398-128.41-18.121z"/>
 <path d="m746.84 64.738c-35.555 12.312-62.426 60.422-63.047 118.23-0.625 57.793 25.262 106.5 60.602 119.55 35.543-12.312 62.461-60.457 63.059-118.26 0.60938-57.797-25.285-106.49-60.613-119.53z"/>
 <path d="m919.22 633.16c-27-14.051-36.684 7.5352-58.414-13.586-16.43-15.961-8.1484-36.18-35.328-45.215-25.586-8.5195-37.117 8.9883-52.344 16.141v-189.41c27.926 11.879 66.84 11.664 105.13-3.3359 52.668-20.629 86.953-62.426 85.344-99.852-24.781-28.391-78.707-35.605-131.39-14.988-48.289 18.926-81.145 54.926-84.996 89.762-0.27734 1.0312-0.35938 2.8203-0.35938 3.9492v213.13c-22.43-10.691-18.289-34.703-38.23-38.016-27.191-4.5234-32.16 26.699-53.902 26.699-21.742 0-25.703-12.406-68.844-9.0703-51.613 3.9844-100.31 44.41-133.64 79.922l293.84 94.766c18.059 5.6875 34.285 16.488 46.754 31.176l0.98438 1.2227c1.9062 2.4609 3.6836 4.9922 5.3398 7.5586l168.09-84.875c-11.758-27.395-27.992-55.582-48.035-65.984z"/>
</svg>
