<?xml version="1.0" encoding="UTF-8"?>
<svg width="1200pt" height="1200pt" version="1.1" viewBox="0 0 1200 1200" xmlns="http://www.w3.org/2000/svg">
 <path d="m818.9 79.766c0 44.051-35.711 79.762-79.766 79.762-44.051 0-79.762-35.711-79.762-79.762 0-44.055 35.711-79.766 79.762-79.766 44.055 0 79.766 35.711 79.766 79.766z"/>
 <path d="m629.06 1006.1c0 28.027-22.723 50.746-50.75 50.746s-50.746-22.719-50.746-50.746 22.719-50.75 50.746-50.75 50.75 22.723 50.75 50.75z"/>
 <path d="m886.53 449.95-128.14-54.828 10.488-50.387c15.84-78.516-3.3477-160.5-55.824-172.46-39.613-8.9883-89.148 10.355-108.05 93.109l-55.598 241.62c-11.293 50.672 26.027 174.33 26.027 174.33l-43.211 136.61c-84.707 20.773-147.79 97.141-147.79 188.17 0 106.86 86.941 193.89 193.87 193.89 106.91 0 193.87-87.012 193.87-193.89 0-23.113-4.3438-45.07-11.797-65.531 10.598-27.406 10.871-56.594 0.16797-84.422-7.4648-19.309-20.258-38.242-28.5-49.332l92.82-289.95 27.625 12.266c5.0508 2.1953 10.309 3.3477 15.504 3.5156 17.242 0.60156 33.926-9.2148 41.172-26.09 9.3633-21.875-0.71875-47.219-22.641-56.625zm-308.22 678.45c-67.441 0-122.29-54.898-122.29-122.29 0-67.441 54.852-122.33 122.29-122.33s122.29 54.887 122.29 122.33c0 67.383-54.852 122.29-122.29 122.29zm107.38-323.98c-2.3281 7.3086-0.76953 15.383 4.1875 21.266 0.19141 0.23828 20.16 24.168 28.836 46.621 0.14453 0.37109 0.12109 0.69531 0.23828 1.0195-21.098-22.285-47.258-39.758-76.895-50.148l92.746-317.88-83.688-35.258c-4.957-2.1016-8.125-7.0312-7.9062-12.406l5.6992-155.07c0.30078-7.1406 6.4453-13.262 13.379-12.457 7.1758 0.25391 12.742 6.2539 12.457 13.402l-5.3984 146.16 114.25 48.898z"/>
 <path d="m529.46 401.09h-242.12v-25.863h242.12z"/>
 <path d="m551.73 328.52h-160.96v-25.871h160.96z"/>
 <path d="m509.71 474.73h-160.95v-25.871h160.95z"/>
</svg>
