<?xml version="1.0" encoding="UTF-8"?>
<svg width="1200pt" height="1200pt" version="1.1" viewBox="0 0 1200 1200" xmlns="http://www.w3.org/2000/svg">
 <path d="m1061.9 281.43v-30.781h-548.69v30.781h46.883v93.551h-46.883v30.77h548.69v-30.77h-53.352v-93.551zm-338.28 0h50.172v93.551h-50.172zm-21.039 93.551h-50.207v-93.551h50.207zm92.281-93.551h50.148v93.551h-50.148zm71.207 0h50.172v93.551h-50.172zm-284.9 0h50.172v93.551h-50.172zm406.32 93.551h-50.172v-93.551h50.172z"/>
 <path d="m958.92 787.4c-19.117-19.105-42.73-28.789-70.141-28.789-26.641 0-49.836 9.6953-68.965 28.789-19.152 19.055-28.859 42.227-28.859 68.977 0 27.516 9.7188 51.121 28.859 70.164 19.129 19.055 42.324 28.754 68.965 28.754 27.406 0 51.023-9.6953 70.141-28.754 19.141-19.043 28.812-42.648 28.812-70.164 0.007813-26.746-9.6758-49.918-28.812-68.977zm-41.102 97.98c-8.1133 8.0898-17.746 12.145-29.039 12.145s-21-4.0547-29.074-12.145c-8.0391-8.0508-12.059-17.688-12.059-29.004 0-11.219 4.0195-20.941 12.059-29.016 8.0742-8.0156 17.785-12.133 29.074-12.133 11.293 0 20.93 4.1172 29.039 12.133 8.0742 8.0742 12.059 17.797 12.059 29.016 0 11.328-3.9844 20.953-12.059 29.004z"/>
 <path d="m280.43 789.14c-19.043-18.684-42.227-28.164-68.902-28.164-27.406 0-51.012 9.4805-70.199 28.164-19.105 18.84-28.812 42.227-28.812 69.574 0 26.676 9.6719 49.906 28.812 68.965 19.129 19.164 42.73 28.922 70.199 28.922 26.676 0 49.895-9.7578 68.941-28.859 19.129-19.117 28.824-42.277 28.824-69.023-0.003907-27.363-9.6992-50.812-28.863-69.578zm-39.902 98.746c-8.0156 8.0742-17.711 11.965-29.004 11.965-11.305 0-20.965-3.8867-29.039-11.965-8.0625-8.1367-12.07-17.762-12.07-29.184 0-11.207 4.0078-20.844 12.07-28.922 8.0742-8.0508 17.734-12.18 29.039-12.18 11.293 0 20.988 4.1289 29.004 12.18 8.0625 8.0742 12.086 17.723 12.086 28.922 0.011719 11.426-4.0195 21.051-12.086 29.184z"/>
 <path d="m607.8 607.41v-134.07c-0.53906-11.977-4.8945-22.199-13.273-30.613-8.9883-9.0859-19.633-13.598-31.945-13.598l-149.22 0.25391c-16.164 0-34.656 8.1016-42.742 23.125l-92.699 145.15h-169.37c-38.746 0-70.141 28.848-70.141 64.523v10.344h0.17969v30.574 45.613h-29.051v56.879c0 20.102 10.105 30.227 30.266 30.227h27.793c2.4102-33.84 17.988-62.711 46.559-86.531 28.633-23.699 60.66-35.605 96.145-35.605 35.473 0 67.691 11.902 96.758 35.605 29.016 23.82 44.723 52.691 47.148 86.531l253.59 0.003907zm-77.246-23.242c0 15.324-7.6328 23.004-23.016 23.004h-148.11c-8.3164 0-12.539-4.1641-12.539-12.457 0-2.9141 0.73047-5.2422 2.0898-7.2969l50.184-87.266c5.4102-8.6172 12.406-11.184 22.078-11.184h86.305c15.383 0 23.016 7.6914 23.016 22.98z"/>
 <path d="m635.63 429.28v406.54h110.46c2.3984-33.84 17.941-62.93 46.535-87.109 28.656-24.227 60.66-36.238 96.168-36.238 35.484 0 67.703 12.012 96.742 36.238 27.973 23.328 43.43 51.238 46.668 83.531v3.8398c0.035156 0.22656 0.058594 0.42188 0.085937 0.64844h126.07c20.438 0 30.695-10.273 30.695-30.684v-377.06zm453.59 176.61-230.82-0.023437c-11.352 28.766-38.293 48.996-69.719 48.961-31.391 0.023437-58.285-20.195-69.707-48.961h78.012l-0.011719-62.266h-77.641c11.555-28.309 38.258-48.168 69.359-48.121 31.969 0 59.23 21 70.273 50.652h230.26c16.5-0.023437 29.867 13.344 29.867 29.867 0.035156 16.5-13.359 29.891-29.871 29.891z"/>
</svg>
