<?xml version="1.0" encoding="UTF-8"?>
<svg width="1200pt" height="1200pt" version="1.1" viewBox="0 0 1200 1200" xmlns="http://www.w3.org/2000/svg">
 <path d="m663.41 555.07c0 35.141-28.484 63.625-63.621 63.625-35.141 0-63.625-28.484-63.625-63.625 0-35.137 28.484-63.621 63.625-63.621 35.137 0 63.621 28.484 63.621 63.621z"/>
 <path d="m728.77 931.49-94.418-128.57c-0.64844-0.88672-1.3438-1.7539-2.0508-2.5664-0.26563-0.30078-0.5625-0.58984-0.85156-0.88672-0.45703-0.46875-0.89844-0.98438-1.3906-1.4414-0.33594-0.32422-0.70703-0.66016-1.0781-0.97266-0.43359-0.37109-0.875-0.76953-1.3086-1.1406-0.39453-0.33594-0.83984-0.625-1.2461-0.9375-0.43359-0.30078-0.85156-0.64844-1.2969-0.9375-0.44531-0.30078-0.89844-0.58984-1.3789-0.86328-0.42188-0.26562-0.83984-0.52734-1.2852-0.78125-0.48047-0.25391-0.98438-0.50391-1.4883-0.74219-0.43359-0.25391-0.86328-0.48047-1.3086-0.68359-0.51562-0.22656-1.0195-0.43359-1.5469-0.64844-0.44531-0.17969-0.88672-0.35937-1.3555-0.52734-0.51562-0.17969-1.043-0.35938-1.5859-0.51562-0.46875-0.15625-0.9375-0.27734-1.3906-0.39453-0.53906-0.14453-1.0938-0.26562-1.6445-0.40625-0.45703-0.10937-0.9375-0.20312-1.4023-0.27734-0.55078-0.097657-1.1172-0.19141-1.668-0.25391-0.48047-0.070312-0.96094-0.13281-1.4297-0.17969-0.5625-0.046875-1.1289-0.085937-1.7031-0.12109-0.48047-0.011719-0.96094-0.023437-1.4414-0.046875-0.5625 0-1.1289 0-1.7148 0.023438-0.48047 0.011718-0.96094 0.046875-1.4297 0.085937-0.57422 0.035157-1.1406 0.097657-1.7148 0.15625-0.49219 0.058594-0.96094 0.13281-1.4297 0.20312-0.57422 0.097656-1.1406 0.19141-1.7148 0.30078-0.48047 0.097656-0.96094 0.22656-1.4414 0.34766-0.5625 0.13281-1.1172 0.26562-1.6797 0.43359-0.48047 0.14453-0.98438 0.30078-1.4648 0.48047-0.52734 0.17969-1.0547 0.34766-1.5703 0.5625-0.15625 0.070313-0.30078 0.10938-0.44531 0.16797l-103.37 42.156c6.8984-15.348 72.035-124.31 72.035-124.31l76.727 78.852c6.2891 6.4805 14.676 9.7305 23.039 9.7305 8.0742 0 16.176-3.0117 22.414-9.0977 12.719-12.383 13.008-32.734 0.61328-45.457 0 0-112.14-115.21-112.64-115.66-15.551-14.207-33.434-13.559-53.016-7.5977-10.188 3.1094-72.035 27.66-117.37 102.05-50.473 82.824-58.871 155.2-58.738 173.64 0.097656 14.605 2.7617 47.34 22.715 60.301 16.969 10.992 35.027 11.508 48.371 5.5547l181.63-87.898 75.898 103.37c7.3672 10.031 18.781 15.336 30.336 15.336 7.7266 0 15.516-2.375 22.234-7.2852 16.684-12.297 20.309-35.816 7.9961-52.555z"/>
 <path d="m1111.5 1033.3-519.57-703.98-504.26 683.23-79.512-58.695 583.77-790.95 599.09 811.71z"/>
</svg>
