<?xml version="1.0" encoding="UTF-8"?>
<svg width="1200pt" height="1200pt" version="1.1" viewBox="0 0 1200 1200" xmlns="http://www.w3.org/2000/svg">
 <path d="m708.02 828.09h-136.33c-7.6914 0-13.957 6.2383-13.957 13.957 0 7.668 6.2656 13.895 13.957 13.895h136.33c7.7148 0 13.957-6.2539 13.957-13.895 0-7.7188-6.2539-13.957-13.957-13.957z" fill="#010101"/>
 <path d="m488.2 828.09h-322.4c-7.7031 0-13.957 6.2383-13.957 13.957 0 7.668 6.2539 13.895 13.957 13.895h322.4c7.6797 0 13.922-6.2539 13.922-13.895 0-7.7188-6.2422-13.957-13.922-13.957z" fill="#010101"/>
 <path d="m958.16 620.96c0 7.7148 6.2539 13.957 13.945 13.957h93.637c7.7383 0 13.969-6.2539 13.969-13.957 0-7.6797-6.2539-13.934-13.969-13.934h-93.637c-7.7188 0.003906-13.945 6.2539-13.945 13.934z" fill="#010101"/>
 <path d="m930.05 828.09h-136.32c-7.7148 0-13.945 6.2383-13.945 13.957 0 7.668 6.2539 13.895 13.945 13.895h136.32c7.7148 0 13.934-6.2539 13.934-13.895 0.011719-7.7188-6.2266-13.957-13.934-13.957z" fill="#010101"/>
 <path d="m1124.4 753.99h-90.457c-7.7031 0-13.945 6.2266-13.945 13.934 0 7.7031 6.2539 13.945 13.945 13.945h90.457c7.7031 0 13.945-6.2539 13.945-13.945 0-7.7148-6.2422-13.934-13.945-13.934z" fill="#010101"/>
 <path d="m1186.1 678.19h-299.7c7.0547-25.211 17.195-53.988 31.789-82.957 41.711-82.738 136.67-166.75 136.67-166.75l-1.7148-84.43-615.64 437.83h528.05c7.7031 0 13.945-6.2539 13.945-13.945 0-7.7266-6.2539-13.945-13.945-13.945h-94.02c0.85156-8.2812 3.0117-25.488 7.9336-47.867h306.62c7.6797 0 13.895-6.2539 13.895-13.969 0.011719-7.7148-6.2148-13.965-13.883-13.965z" fill="#010101"/>
 <path d="m920.71 407.72c-6.1797 0.83984-12.504 1.2617-18.91 0.94922-27.238-1.332-46.199-31.355-46.199-31.355l-252.59 167.79-77.93-116.03 55.633-35.93-19.547-30.277-169.85 110.11-77.93-112.49-27.996 19.379 77.34 111.64-76.836 49.848-130.3-189.14-28.02 19.32 129.77 188.35-169.2 109.69 20.844 33.012 57.77-37.453 57.562 88.836h-210.37c-7.6914 0.011719-13.945 6.2305-13.945 13.945s6.2539 13.945 13.945 13.945h377.94zm-475.8 108.5 75.562 112.07-55.859 37.656-75.574-112.04zm-86.723 56.914 75.562 112.02-52.488 35.41-75.574-112.04z" fill="#010101"/>
</svg>
