<?xml version="1.0" encoding="UTF-8"?>
<svg width="1200pt" height="1200pt" version="1.1" viewBox="0 0 1200 1200" xmlns="http://www.w3.org/2000/svg">
 <path d="m706.09 974.66c0-11.664 9.4688-21.109 21.109-21.109 11.664 0 21.109 9.4453 21.109 21.109 0 11.664-9.4453 21.109-21.109 21.109-11.645 0-21.109-9.4453-21.109-21.109zm0-70.355c0-11.664 9.4688-21.109 21.109-21.109 11.664 0 21.109 9.4453 21.109 21.109 0 11.664-9.4453 21.109-21.109 21.109-11.645-0.003907-21.109-9.4453-21.109-21.109zm0-70.379c0-11.664 9.4688-21.109 21.109-21.109 11.664 0 21.109 9.4453 21.109 21.109 0 11.664-9.4453 21.109-21.109 21.109-11.645-0.003906-21.109-9.4453-21.109-21.109zm0-70.359c0-11.664 9.4688-21.109 21.109-21.109 11.664 0 21.109 9.4453 21.109 21.109 0 11.664-9.4453 21.109-21.109 21.109-11.645 0-21.109-9.4453-21.109-21.109z"/>
 <path d="m617.77 902.84c0-11.664 9.4688-21.109 21.133-21.109 11.641 0 21.109 9.4453 21.109 21.109s-9.4688 21.109-21.109 21.109c-11.668 0-21.133-9.4453-21.133-21.109zm0-70.355c0-11.664 9.4688-21.133 21.133-21.133 11.641 0 21.109 9.4688 21.109 21.133 0 11.641-9.4688 21.109-21.109 21.109-11.668 0-21.133-9.4688-21.133-21.109z"/>
 <path d="m643.12 590.33c18.133-5.8086 31.621-17.293 40.477-34.453 8.7969-17.102 10.32-34.766 4.5117-52.895-5.8203-18.059-17.258-31.5-34.465-40.355-17.137-8.832-34.789-10.355-52.789-4.5703-18.121 5.8086-31.621 17.293-40.43 34.402-8.8203 17.137-10.355 34.801-4.5586 52.934 5.7617 18.012 17.281 31.5 34.402 40.309 17.188 8.8633 34.777 10.352 52.852 4.6289z"/>
 <path d="m573.62 382.6c0-11.664 9.4688-21.133 21.109-21.133 11.664 0 21.109 9.4688 21.109 21.133 0 11.641-9.4453 21.109-21.109 21.109-11.629-0.015625-21.109-9.4844-21.109-21.109zm0-70.395c0-11.664 9.4688-21.109 21.109-21.109 11.664 0 21.109 9.4453 21.109 21.109s-9.4453 21.109-21.109 21.109c-11.629 0-21.109-9.4336-21.109-21.109zm0-70.344c0-11.664 9.4688-21.133 21.109-21.133 11.664 0 21.109 9.4688 21.109 21.133 0 11.641-9.4453 21.109-21.109 21.109-11.629 0-21.109-9.4688-21.109-21.109z"/>
 <path d="m661.96 382.6c0-11.664 9.4453-21.133 21.109-21.133 11.641 0 21.109 9.4688 21.109 21.133 0 11.641-9.4688 21.109-21.109 21.109-11.68-0.015625-21.109-9.4844-21.109-21.109zm0-70.395c0-11.664 9.4453-21.109 21.109-21.109 11.641 0 21.109 9.4453 21.109 21.109s-9.4688 21.109-21.109 21.109c-11.68 0-21.109-9.4336-21.109-21.109zm0-70.344c0-11.664 9.4453-21.133 21.109-21.133 11.641 0 21.109 9.4688 21.109 21.133 0 11.641-9.4688 21.109-21.109 21.109-11.68 0-21.109-9.4688-21.109-21.109z"/>
 <path d="m750.28 452.94c0-11.664 9.4453-21.109 21.109-21.109 11.641 0 21.109 9.4453 21.109 21.109 0 11.641-9.4688 21.109-21.109 21.109-11.68-0.003906-21.109-9.4727-21.109-21.109zm0-70.344c0-11.664 9.4453-21.133 21.109-21.133 11.641 0 21.109 9.4688 21.109 21.133 0 11.641-9.4688 21.109-21.109 21.109-11.68-0.015625-21.109-9.4844-21.109-21.109zm0-70.395c0-11.664 9.4453-21.109 21.109-21.109 11.641 0 21.109 9.4453 21.109 21.109s-9.4688 21.109-21.109 21.109c-11.68 0-21.109-9.4336-21.109-21.109zm0-70.379c0-11.641 9.4453-21.109 21.109-21.109 11.641 0 21.109 9.4688 21.109 21.109 0 11.664-9.4688 21.133-21.109 21.133-11.68 0.011719-21.109-9.457-21.109-21.133z"/>
 <path d="m838.56 452.94c0-11.664 9.4453-21.109 21.109-21.109 11.664 0 21.109 9.4453 21.109 21.109 0 11.641-9.4453 21.109-21.109 21.109-11.664-0.003906-21.109-9.4727-21.109-21.109zm0-70.344c0-11.664 9.4453-21.133 21.109-21.133 11.664 0 21.109 9.4688 21.109 21.133 0 11.641-9.4453 21.109-21.109 21.109-11.664-0.015625-21.109-9.4844-21.109-21.109zm0-70.395c0-11.664 9.4453-21.109 21.109-21.109 11.664 0 21.109 9.4453 21.109 21.109s-9.4453 21.109-21.109 21.109c-11.664 0-21.109-9.4336-21.109-21.109zm0-70.379c0-11.641 9.4453-21.109 21.109-21.109 11.664 0 21.109 9.4688 21.109 21.109 0 11.664-9.4453 21.133-21.109 21.133-11.664 0.011719-21.109-9.457-21.109-21.133z"/>
 <path d="m926.88 523.3c0-11.641 9.4453-21.109 21.109-21.109 11.664 0 21.109 9.4688 21.109 21.109 0 11.664-9.4453 21.109-21.109 21.109-11.664-0.003906-21.109-9.4453-21.109-21.109zm0-70.355c0-11.664 9.4453-21.109 21.109-21.109 11.664 0 21.109 9.4453 21.109 21.109 0 11.641-9.4453 21.109-21.109 21.109-11.664-0.003906-21.109-9.4727-21.109-21.109zm0-70.383c0-11.641 9.4453-21.109 21.109-21.109 11.664 0 21.109 9.4688 21.109 21.109 0 11.664-9.4453 21.133-21.109 21.133-11.664 0-21.109-9.4688-21.109-21.133zm0-70.355c0-11.664 9.4453-21.109 21.109-21.109 11.664 0 21.109 9.4453 21.109 21.109s-9.4453 21.109-21.109 21.109c-11.664 0-21.109-9.4336-21.109-21.109zm0-70.344c0-11.664 9.4453-21.133 21.109-21.133 11.664 0 21.109 9.4688 21.109 21.133 0 11.641-9.4453 21.109-21.109 21.109-11.664 0-21.109-9.4688-21.109-21.109z"/>
 <path d="m544.51 116.86v73.934h461.51v-73.934h-219.05v-53.484c0-30.48-24.805-55.285-55.285-55.285h-354.6c-30.48 0-55.285 24.805-55.285 55.285v53.484h-131.79v1070.8h295.29v-480.93l132.56 64.043c3.5156 1.6914 7.1875 2.6523 10.883 3.0977 0.32422 0.046875 0.64844 0.13281 0.97266 0.16797 3.5391 0.34766 7.043 0.046875 10.453-0.66016 0.49219-0.10938 0.94922-0.16797 1.4414-0.28906 3.3125-0.83984 6.4453-2.1836 9.3828-3.9727 0.48047-0.28906 0.96094-0.55078 1.4297-0.88672 2.8438-1.8945 5.4102-4.2227 7.6445-6.9844 0.19141-0.21484 0.46875-0.33594 0.64844-0.57422l73.453-104.55 0.88672 2.2188 169.2 181.11 0.25391 299.35c-0.25391 18.203 7.8242 35.566 24.086 43.934 10.895 5.6172 29.902 6.4688 41.461 2.4609 11.605-3.8984 20.16-11.316 25.777-22.211 3.0586-5.9648 4.6211-16.883 4.7383-24.48l0.9375-376.02c0-17.293-3.625-40.199-22.754-62.328l-146.88-151.04s-41.438-46.766-93.816-24.289c-12.973 5.5664-21.492 15.059-26.914 25.117l-91.402 144.14-134.45-64.957v-512.29h-131.81v-53.484c0-13.02 10.598-23.617 23.617-23.617h354.6c13.02 0 23.617 10.598 23.617 23.617v53.484z"/>
</svg>
