<?xml version="1.0" encoding="UTF-8"?>
<svg width="1200pt" height="1200pt" version="1.1" viewBox="0 0 1200 1200" xmlns="http://www.w3.org/2000/svg">
 <path d="m689.84 219.77c57.527-11.52 94.957-68.16 83.316-126.32-11.711-58.285-67.98-96-125.55-84.457-57.648 11.543-94.906 67.945-83.258 126.27 11.652 58.137 67.836 96.035 125.5 84.516"/>
 <path d="m1003.2 296.27c-2.1016 0-4.2109-0.46875-6.0586-1.4023-7.3203-3.2539-10.586-11.855-7.2109-19.188 3.2539-7.0938 12.098-10.477 19.309-7.2109 3.4805 1.6211 6.1562 4.5352 7.5586 8.1484 1.3906 3.6016 1.1641 7.5586-0.46875 11.039-2.3164 5.2383-7.4414 8.6133-13.129 8.6133zm-42.359-19.32c-2.0898 0-4.1875-0.46875-6.0469-1.3906-3.4922-1.5117-6.2891-4.4141-7.5586-8.1367-1.4023-3.6133-1.2852-7.5703 0.33594-11.051 3.2656-7.1055 12.109-10.477 19.309-7.2109 3.4922 1.6211 6.168 4.5352 7.5586 8.1484 1.4023 3.6016 1.1641 7.5586-0.45703 11.172-2.3164 5.0938-7.4297 8.4688-13.141 8.4688zm-42.348-19.309c-2.0898 0-4.1875-0.45703-6.0469-1.3789-7.3203-3.2656-10.477-11.867-7.2109-19.199 3.2539-7.1055 12.215-10.477 19.309-7.2109 7.2109 3.3711 10.465 11.988 7.2109 19.309-2.4375 5.1094-7.5508 8.4805-13.262 8.4805zm-42.336-19.309c-2.1016 0-4.0664-0.46875-6.0586-1.2852-7.3086-3.3711-10.465-11.988-7.1992-19.309 3.2539-7.0938 12.098-10.465 19.309-7.2109 3.4805 1.6328 6.1562 4.5352 7.5586 8.1484 1.3789 3.7305 1.1641 7.5586-0.35938 11.172-2.4258 5.1133-7.5508 8.4844-13.25 8.4844zm-42.348-19.309c-2.1016 0-4.1992-0.46875-6.0469-1.2852-7.332-3.3711-10.477-11.988-7.2344-19.309 3.2656-7.0938 12.238-10.465 19.32-7.2109 7.332 3.3711 10.465 11.988 7.2109 19.309-2.4258 5.125-7.5508 8.4961-13.25 8.4961z"/>
 <path d="m977.8 177.96c-0.69531 0-1.3906 0-2.1016-0.10938-8.0156-1.1758-13.488-8.4961-12.324-16.512 1.0547-7.7891 8.4844-13.379 16.535-12.336 7.8945 1.1758 13.367 8.6172 12.203 16.512-1.043 7.0938-7.2109 12.445-14.312 12.445zm-46.059-6.6367c-0.70703 0-1.3906-0.12109-2.207-0.22656-3.7305-0.46875-7.1172-2.5547-9.4219-5.5938-2.3281-3.1328-3.3711-6.9727-2.7969-10.812 1.1641-7.7891 8.4961-13.5 16.523-12.324 3.8281 0.57422 7.2109 2.5547 9.5391 5.6875 2.3164 3.1445 3.2539 6.9844 2.6875 10.824-1.0508 7.0938-7.2422 12.445-14.324 12.445zm-46.066-6.7578c-0.69531 0-1.3906 0-2.1016-0.10938-3.8398-0.57422-7.2109-2.5547-9.5391-5.7109-2.3164-3.1328-3.3594-6.9727-2.7852-10.812 1.1758-7.6797 8.4844-13.5 16.523-12.215 7.9062 1.1641 13.379 8.4961 12.312 16.402-1.043 7.1055-7.3164 12.445-14.41 12.445zm-46.066-6.6094c-0.70703 0-1.3906-0.12109-2.0898-0.12109-7.9219-1.1641-13.5-8.6055-12.336-16.523 1.1641-7.7891 8.4961-13.488 16.512-12.324 7.9062 1.1523 13.5 8.6055 12.336 16.512-1.043 7.1055-7.2227 12.457-14.422 12.457z"/>
 <path d="m819.23 257.48c-5.1016-6.0117-35.566-39.949-68.82-32.641-10.535 2.3281-19.668 8.4844-27.371 18.254-8.5078-5.9648-18.816-9.5273-30-9.5273-28.906 0-52.344 23.438-52.344 52.344v59.93l-64.43-119.65c-6.8633-12.742-44.641-73.332-94.969-67.246-20.316 2.4609-39.551 8.0391-54.551 24.012l-232.44 230.87c-9.6367 9.6602-14.398 21.383-14.398 35.305v658.16c0 24.613 8.543 45.156 25.633 61.777 17.09 16.523 37.402 24.805 60.91 24.805 24.613 0 45.422-8.2812 62.508-24.805 17.09-16.633 25.656-37.176 25.656-61.777l0.003906-536.3 157.07-158.29 127.68 157.68c16.586 20.172 29.676 35.449 53.664 35.449 4.2461 0 8.543-0.50391 12.793-1.5977 23.258-5.8555 39.562-26.773 39.562-50.762v-48.91l98.184 27.023 15.91-103.37 142.14 11.449zm17.582 142.05-15.133 98.281-76.297-21v-190.91c0-7.6797-1.7539-14.902-4.7148-21.469 4.668-7.5859 9.8867-12.227 15.469-13.465 15.648-3.5039 36.781 16.754 42.926 24.098l132.14 132.06z"/>
</svg>
