<?xml version="1.0" encoding="UTF-8"?>
<svg width="1200pt" height="1200pt" version="1.1" viewBox="0 0 1200 1200" xmlns="http://www.w3.org/2000/svg">
 <path d="m600.21 1.5469c-174.86 0-316.6 141.73-316.6 316.25 0 116.9 63.742 218.89 158.28 273.67v172.66h48.758v-120.8h41.605v120.79h47.855v-120.79h41.605v120.79h48.73v-120.79h41.605v120.79h46.414v-172.66c94.523-54.781 158.3-156.73 158.3-273.67 0-174.5-141.76-316.24-316.56-316.24zm-116.75 480.95c-43.309 0-78.445-35.062-78.445-78.348 0-43.285 35.137-78.301 78.445-78.301 43.332 0 78.469 35.016 78.469 78.301 0 43.273-35.137 78.348-78.469 78.348zm67.402 95.902 50.398-87.238 50.352 87.238zm168.06-95.902c-43.332 0-78.457-35.062-78.457-78.348 0-43.285 35.125-78.301 78.457-78.301 43.332 0 78.445 35.016 78.445 78.301-0.003906 43.273-35.113 78.348-78.445 78.348z"/>
 <path d="m1035 969.43c-8.1602-3.3477-16.789-5.0898-25.754-5.0898-28.559 0-54.91 17.398-65.543 43.262l-1.8359 4.4766-216.74-87.926 216.74-87.926 1.8594 4.4883c10.609 25.883 36.938 43.246 65.496 43.246 8.9141 0 17.594-1.668 25.754-5.0273 17.316-7.1289 30.816-20.531 38.027-37.754 7.2461-17.258 7.3086-36.289 0.22656-53.566-6.9375-16.824-19.957-30.098-36.719-37.43l-4.2969-1.8711 1.7266-4.4023c6.7812-16.98 6.7422-35.578-0.10938-52.332-10.621-25.859-36.996-43.246-65.605-43.246-8.9531 0-17.605 1.7148-25.754 5.0742-35.664 14.676-52.754 55.621-38.137 91.285l1.8594 4.5352-306.01 124.14-306.01-124.14 1.8477-4.5352c14.641-35.699-2.4961-76.645-38.172-91.285-8.1484-3.3359-16.801-5.0508-25.738-5.0508-28.609 0-54.973 17.375-65.566 43.223-6.9102 16.777-6.9727 35.375-0.16797 52.332l1.7539 4.4023-4.2969 1.8711c-16.766 7.3789-29.809 20.688-36.695 37.43-7.0664 17.27-6.9961 36.301 0.23828 53.566 7.2227 17.242 20.699 30.648 37.957 37.715 8.1953 3.3594 16.871 5.0898 25.824 5.0898 28.547 0 54.863-17.387 65.496-43.273l1.8242-4.4883 216.7 87.926-216.7 87.926-1.8242-4.4766c-10.645-25.895-36.973-43.285-65.496-43.285-8.9648 0-17.652 1.7383-25.812 5.1133-17.242 7.0781-30.719 20.473-37.957 37.754-7.2344 17.281-7.2969 36.289-0.25391 53.531 6.8867 16.777 19.934 30.059 36.684 37.379l4.3086 1.9062-1.7539 4.3672c-6.7812 17.016-6.7305 35.629 0.15625 52.367 10.609 25.883 36.961 43.246 65.578 43.246 8.9297 0 17.594-1.668 25.738-5.0273 35.699-14.676 52.824-55.691 38.172-91.355l-1.8477-4.5352 306.01-124.07 306.01 124.07-1.8594 4.5352c-14.664 35.652 2.4492 76.656 38.16 91.379 8.1133 3.3008 16.738 4.9805 25.598 4.9805h0.035157c28.668 0 55.094-17.375 65.746-43.234 6.8281-16.766 6.8516-35.352 0.097657-52.391l-1.7539-4.3672 4.2969-1.8828c16.777-7.3203 29.82-20.605 36.742-37.379 14.594-35.723-2.5664-76.668-38.254-91.27z"/>
</svg>
