<?xml version="1.0" encoding="UTF-8"?>
<svg width="1200pt" height="1200pt" version="1.1" viewBox="0 0 1200 1200" xmlns="http://www.w3.org/2000/svg">
 <path d="m711.37 339.39c41.027 0 75.457-28.355 84.996-66.469h391.18v-42.422l-391.18 0.003906c-9.5391-38.113-43.969-66.469-84.996-66.469-37.645 0-69.719 23.891-82.129 57.266-18.852-21.098-58.094-18.086-70.871 9.2031h-542.35v42.422h538.19v483.47c0 9.9961-26.941 9.9961-26.941 0l0.003906-190.53c0-69.289-93.098-66.227-93.098 0v330.55c0 65.41 171.59 175.44 171.59 175.44v120.54h360.9v-642.16c0-57.07-84.637-57.07-84.637 0v96.875c0 9.2266-23.867 9.2266-23.867 0v-156.99c0-57.086-85.414-57.086-85.414 0v157c0 9.2266-23.832 9.2266-23.832 0l-0.003906-209.23c0-57.023-85.43-57.023-85.43 0v209.23c0 9.2266-23.844 9.2266-23.844 0l0.003907-345.18c15.852 22.605 42.082 37.449 71.734 37.449zm0-129.29c22.945 0 41.629 18.66 41.629 41.617 0 22.945-18.684 41.617-41.629 41.617-22.945 0-41.617-18.672-41.617-41.617 0.003906-22.957 18.676-41.617 41.617-41.617z"/>
 <path d="m1187.5 425.05h-408.36v-48.48h408.36z"/>
 <path d="m511.88 379.61h-128.94c-9.5273-38.102-43.969-66.469-84.984-66.469-41.016 0-75.457 28.355-84.984 66.469h-196.96v42.422h196.97c9.5273 38.102 43.957 66.469 84.984 66.469 41.016 0 75.445-28.367 84.984-66.469h128.94l-0.003907-42.422zm-213.92 62.82c-22.957 0-41.617-18.66-41.617-41.617 0-22.945 18.66-41.617 41.617-41.617 22.945 0 41.617 18.672 41.617 41.617-0.003906 22.957-18.676 41.617-41.617 41.617z"/>
 <path d="m1187.5 81.406h-617.21c-9.5273-38.113-43.957-66.469-84.973-66.469-41.027 0-75.457 28.355-84.984 66.469h-384.36v42.406h384.36c9.5156 38.113 43.957 66.469 84.984 66.469 41.016 0 75.445-28.355 84.973-66.469h617.21zm-702.18 62.82c-22.957 0-41.617-18.66-41.617-41.617s18.66-41.617 41.617-41.617 41.605 18.66 41.605 41.617-18.66 41.617-41.605 41.617z"/>
</svg>
