<?xml version="1.0" encoding="UTF-8"?>
<svg width="1200pt" height="1200pt" version="1.1" viewBox="0 0 1200 1200" xmlns="http://www.w3.org/2000/svg">
 <path d="m1031.4 472.6c-12.938 42.574 11.027 87.562 53.617 100.56 42.551 12.887 87.562-11.09 100.5-53.652 12.91-42.551-11.062-87.59-53.594-100.52-42.59-12.938-87.566 11.027-100.52 53.617z"/>
 <path d="m961.84 788.06 19.141-35.316-482.57-292.54v-90.406l484.88 378.62-2.3047 4.3086 119.75 72.574 64.188-121.49c5.9648-11.328 8.9766-22.273 9.0859-32.855 0.14453-19.453-7.2617-36.098-22.188-50.039-14.953-13.848-32.23-20.891-51.66-21.023-25.273-0.15625-43.969 11.953-56.375 36.156l-41.184 76.535-504.18-393.71v-48.215c0-33.238-26.965-60.203-60.203-60.203s-60.191 26.965-60.191 60.203v116.55l-246.77-149.59v-50.652c0-33.238-26.953-60.191-60.203-60.191-33.238 0-60.191 26.953-60.191 60.191v511.75c0 33.254 26.953 60.215 60.191 60.215h124.29c-0.53906 3.2539-0.89844 6.5625-0.89844 9.9609v250.78c0 33.254 26.965 60.203 60.203 60.203 33.238 0 60.191-26.953 60.191-60.203v-250.79c0-3.3945-0.34766-6.7188-0.88672-9.9609h124.27c33.238 0 60.203-26.953 60.203-60.215l-0.003906-191.59 463.52 280.99-5.7461 10.656-164.18-48.023c-3.3359-0.25391-6.6953-0.40625-10.008-0.39453-13.309-0.13281-26.027 5.7109-38.219 17.398-0.58984 0.58984-0.99609 1.2227-1.5586 1.8125-2.6172 2.3516-5.0625 4.9688-7.1523 8.0039l-157.86 228.88c-14.629 21.215-9.2773 50.258 11.914 64.895 8.0898 5.5781 17.305 8.2422 26.449 8.2422 14.809 0 29.387-7.0195 38.449-20.16l135.96-197.1 194.66 62.148c7.2852 1.8711 14.125 2.8906 20.629 2.9766 27.422 0.14453 48.07-12.816 62.039-38.879l14.641-27.73zm-583.82-149.52h-246.77v-353.99l246.77 149.59z"/>
</svg>
