<?xml version="1.0" encoding="UTF-8"?>
<svg width="1200pt" height="1200pt" version="1.1" viewBox="0 0 1200 1200" xmlns="http://www.w3.org/2000/svg">
 <path d="m386.48 1159.2h677.43v40.855h-677.43z"/>
 <path d="m1012.1 934.09-11.168-39.309 5.5703 19.668-5.668-19.645c0.5-0.16797 49.809-15.168 95.715-70.809 49.383-60.168 60.953-112.43 61.094-112.93l39.977 8.2852c-0.47656 2.5-13.238 62.07-69.57 130.57-54.496 66.168-113.47 83.48-115.95 84.168z"/>
 <path d="m965.17 851.71-11.285-39.285c0.33203-0.070313 32.07-9.9297 61.883-46.07 32.477-39.453 40.191-73.691 40.238-74.047l39.977 8.3555c-0.33203 1.7852-9.3555 43.832-48.715 91.691-38.359 46.57-80.336 58.855-82.098 59.355z"/>
 <path d="m1125 491.5-282.95-59.238c-1.2852-0.11719-2.5469-0.40625-3.832-0.59375-19.953-2.5234-38.977 4.0234-52.906 16.355l-147.81 140.95-147.52-135.81 204.55-204.86c9.9766-8.6172 16.715-21.145 17.855-35.383 2.1172-28.523-19.238-53.332-47.715-55.523-15.383-1.1172-29.594 4.5-39.809 14.355l-292.36 269.14c2.3086-7.4297 3.9531-15.117 4.6445-23.191 4.9531-59.523-39.262-111.74-98.855-116.69-59.523-4.9531-111.74 39.168-116.76 98.691-4.9531 59.691 39.215 111.83 98.809 116.76 24.617 2.0703 47.762-4.5703 67.047-16.953l-97.691 215.24-164.76 94.645c-11.953 7.1914-20.977 19.238-23.93 33.953-5.5703 28 12.57 55.383 40.547 60.977 11.859 2.332 23.645 0.42578 33.621-4.7422l168.21-96.43c6.9062-4.4766 12.691-10.594 16.906-18l71.383-120.12 150.64 122.55c35.215 27.477 53.977 42.617 92.191 52.43l180.83 22.145 72.238 207.79c8.4531 22.691 42.168 35.406 59.215 34.691 31.07-1.3555 49.383-18.832 54.07-55.594 1.4531-11.5-0.070313-22.617-3.9766-32.645l-87.262-245.57c-7.6914-17.93-22.855-31.883-42.094-37.785l-84.809-39.453 126.36-122.07 248.29 51.168c1.5234 0.38281 3.1172 0.64453 4.5469 0.76172 36.855 4.6172 70.383-21.309 75-58.094 4.3984-34.555-18.41-66.363-51.91-73.863z"/>
</svg>
