<?xml version="1.0" encoding="UTF-8"?>
<svg width="1200pt" height="1200pt" version="1.1" viewBox="0 0 1200 1200" xmlns="http://www.w3.org/2000/svg">
 <path d="m987.42 226.22c-14.27 14.113-14.438 37.043-0.28906 51.266 175.56 177.45 174.11 464.57-3.3828 640.12l-3 2.5078c-14.242 13.199-14.785 36.926-0.76953 51.445 14.051 14.352 36.996 14.809 51.266 0.74219 1.1406-0.80469 2.3516-1.8828 3.6484-3.0586 205.81-203.71 207.66-536.99 3.9609-742.85-14.211-14.234-37.191-14.332-51.434-0.17188z"/>
 <path d="m873.47 338.81c-14.242 14.113-14.363 37.02-0.25391 51.371 113.44 114.57 112.37 300.14-2.2578 413.55l-2.7969 2.5078c-14.473 13.094-14.914 37.043-0.875 51.383 14.051 14.449 37.066 14.867 51.395 0.82812 1.1992-0.85156 2.2578-1.9453 3.4219-3.0234 143.21-141.65 144.42-373.27 2.9297-516.41-14.242-14.281-37.152-14.34-51.562-0.21484z"/>
 <path d="m765.68 445.57c-14.293 14.148-14.449 37.055-0.30078 51.383 54.086 54.742 54.07 142.98 0.22656 197.64-1.4883 1.0547-2.832 2.1719-4.0938 3.3008-13.523 13.414-15.047 36.828-1.3203 51.469 13.789 14.543 36.863 15.156 51.445 1.3555 0 0.19141 2.0156-1.332 3.7695-3.1211 83.699-82.883 84.359-218.14 1.6562-301.78-14.172-14.324-37.125-14.422-51.383-0.25z"/>
 <path d="m733.71 597.2c0 28.109-22.785 50.895-50.891 50.895s-50.891-22.785-50.891-50.895c0-28.105 22.785-50.891 50.891-50.891s50.891 22.785 50.891 50.891z"/>
 <path d="m122.43 155.65h254.89v158.12h-254.89z"/>
 <path d="m122.43 886.07h254.89v153.64h-254.89z"/>
 <path d="m244.59 674.28c-6.5391 0-12.84-2.6055-17.496-7.2461l-84.684-84.695c-9.6602-9.6719-9.6602-25.344 0-35.004 9.6719-9.6602 25.332-9.6602 35.004 0l64.598 64.598 91.453-121.01c8.2422-10.934 23.762-13.066 34.656-4.8125 10.906 8.2305 13.066 23.746 4.8125 34.656l-108.59 143.7c-4.2969 5.7227-10.895 9.2773-18.023 9.7578-0.58203 0.03125-1.168 0.054688-1.7305 0.054688z"/>
 <path d="m558.34 452.95h-68.688v-30.324c0-40.812-34.285-74.016-76.414-74.016h-326.18c-42.133 0-76.414 33.215-76.414 74.016v354.56c0 40.824 34.285 74.039 76.414 74.039h326.18c42.133 0 76.414-33.215 76.414-74.039v-225.88h68.688zm-133.08 324.25c0 5.2422-5.5078 9.6602-12.035 9.6602h-326.18c-6.5156 0-12.035-4.4141-12.035-9.6602v-354.56c0-5.2188 5.5078-9.6367 12.035-9.6367h326.18c6.5273 0 12.035 4.4141 12.035 9.6367z"/>
</svg>
