<?xml version="1.0" encoding="UTF-8"?>
<svg width="1200pt" height="1200pt" version="1.1" viewBox="0 0 1200 1200" xmlns="http://www.w3.org/2000/svg">
 <path d="m129.6 458.38c12.73 0 23.074-10.355 23.074-23.102 0-12.758-10.344-23.113-23.074-23.113-12.805 0-23.125 10.344-23.125 23.113 0 12.746 10.332 23.102 23.125 23.102z"/>
 <path d="m219.43 458.38c12.73 0 23.074-10.355 23.074-23.102 0-12.758-10.344-23.113-23.074-23.113-12.805 0-23.125 10.344-23.125 23.113 0 12.746 10.332 23.102 23.125 23.102z"/>
 <path d="m309.28 458.38c12.73 0 23.074-10.355 23.074-23.102 0-12.758-10.344-23.113-23.074-23.113-12.805 0-23.125 10.344-23.125 23.113 0 12.746 10.332 23.102 23.125 23.102z"/>
 <path d="m332.77 352.26c33.227 0 60.266 27.035 60.266 60.266v0.55078l0.85156 46.812c0.19141 10.414 5.7617 19.992 14.711 25.32l55.008 32.676-130.84-0.003907h-222.72c-33.227 0-60.266-27.035-60.266-60.266v-45.098c0-33.227 27.035-60.266 60.266-60.266l222.72 0.007813m0-30.098h-222.72c-49.691 0-90.348 40.656-90.348 90.348v45.098c0 49.691 40.656 90.348 90.348 90.348h463.11l-149.2-88.633-0.85156-46.812c0.003906-49.691-40.652-90.348-90.344-90.348z"/>
 <path d="m85.848 609.5c5.2695 5.207 5.3281 13.668 0.10938 18.926-64.789 65.484-64.246 171.45 1.2461 236.23l1.1055 0.92578c5.2578 4.8711 5.4492 13.633 0.28906 18.984-5.1953 5.293-13.656 5.4727-18.926 0.27734-0.42188-0.30078-0.86328-0.69531-1.3438-1.1289-75.949-75.168-76.621-198.17-1.4531-274.13 5.2344-5.2812 13.719-5.3164 18.973-0.085938z"/>
 <path d="m134.33 651.05c5.2578 5.207 5.3047 13.668 0.085937 18.961-41.855 42.277-41.461 110.77 0.83984 152.62l1.0312 0.92578c5.3398 4.8242 5.5078 13.668 0.32422 18.961-5.1836 5.3281-13.68 5.4844-18.973 0.3125-0.43359-0.3125-0.82812-0.71875-1.2617-1.1172-52.848-52.273-53.293-137.75-1.0781-190.57 5.2656-5.2852 13.715-5.2969 19.031-0.089844z"/>
 <path d="m180.54 690.45c5.2695 5.2188 5.3281 13.68 0.10938 18.961-19.957 20.207-19.957 52.766-0.085938 72.949 0.55078 0.38281 1.043 0.79297 1.5117 1.2227 4.9922 4.957 5.5547 13.598 0.49219 18.996-5.0898 5.3633-13.609 5.5938-18.984 0.50391 0 0.058594-0.74219-0.49219-1.3906-1.1523-30.875-30.59-31.129-80.508-0.61328-111.37 5.2344-5.3086 13.707-5.3438 18.961-0.10938z"/>
 <path d="m522.62 609.5c-5.2695 5.207-5.3281 13.668-0.10938 18.926 64.789 65.484 64.246 171.45-1.2461 236.23l-1.1055 0.92578c-5.2578 4.8711-5.4492 13.633-0.28906 18.984 5.1953 5.293 13.656 5.4727 18.926 0.27734 0.42188-0.30078 0.86328-0.69531 1.3438-1.1289 75.949-75.168 76.621-198.17 1.4531-274.13-5.2344-5.2812-13.719-5.3164-18.973-0.085938z"/>
 <path d="m474.14 651.05c-5.2578 5.207-5.3047 13.668-0.085937 18.961 41.855 42.277 41.461 110.77-0.83984 152.62l-1.0312 0.92578c-5.3398 4.8242-5.5078 13.668-0.32422 18.961 5.1836 5.3281 13.68 5.4844 18.973 0.3125 0.43359-0.3125 0.82812-0.71875 1.2617-1.1172 52.848-52.273 53.293-137.75 1.0781-190.57-5.2695-5.2852-13.715-5.2969-19.031-0.089844z"/>
 <path d="m427.93 690.45c-5.2695 5.2188-5.3281 13.68-0.10938 18.961 19.957 20.207 19.957 52.766 0.085937 72.949-0.55078 0.38281-1.043 0.79297-1.5117 1.2227-4.9922 4.957-5.5547 13.598-0.49219 18.996 5.0898 5.3633 13.609 5.5938 18.984 0.50391 0 0.058594 0.74219-0.49219 1.3906-1.1523 30.875-30.59 31.129-80.508 0.61328-111.37-5.2344-5.3086-13.707-5.3438-18.961-0.10938z"/>
 <path d="m729.91 545.23c-82.078 0-148.97-66.84-148.97-149 0-82.453 66.828-149.26 148.97-149.26 82.586 0 149.29 66.73 149.29 149.26 0 82.176-66.73 149-149.29 149z"/>
 <path d="m1187.8 925.46s-54.156-179.62-188.21-320.96c-37.656-41.93-138.79-82.031-208.5-21.625-120.46 104.58-120.46 342.59-120.46 342.59z"/>
 <path d="m228.68 647.16h151.15v188.99h-151.15z"/>
 <path d="m228.68 854.09h151.15v71.363h-151.15z"/>
</svg>
