<?xml version="1.0" encoding="UTF-8"?>
<svg width="1200pt" height="1200pt" version="1.1" viewBox="0 0 1200 1200" xmlns="http://www.w3.org/2000/svg">
 <path d="m448.11 403.66-90.566 278.7 237.14 172.25 237.01-172.25-90.539-278.7z"/>
 <path d="m600.9 15.805c-322.75 0-585.34 262.56-585.34 585.3 0 322.74 262.59 585.3 585.34 585.3 322.74 0 585.3-262.56 585.3-585.3 0-322.74-262.56-585.3-585.3-585.3zm-141.93 1098.2 26.711-86.797-240.84-166.88-68.305 61.441c-61.426-81.062-100.04-180-106.69-287.7l115.18-21.863 82.309-255.68-89.664-77.629c60.348-79.078 142.12-140.63 236.81-176.17l30.289 111.41h293.04l38.484-115.45c98.82 34.586 184.23 97.379 246.84 178.87l-94.645 83.207 82.332 255.67 121.05 18.625c-6.6016 103.81-42.875 199.45-100.7 278.77l-79.043-59.258-240.85 166.9 40.105 90.324c-47.773 14.113-98.184 21.984-150.47 21.984-49.203 0.011719-96.676-7.2383-141.94-19.766z"/>
</svg>
