<?xml version="1.0" encoding="UTF-8"?>
<svg width="1200pt" height="1200pt" version="1.1" viewBox="0 0 1200 1200" xmlns="http://www.w3.org/2000/svg">
 <path d="m558.95 389.88v-45.5h-108.45c-3.5703-30.906-15.5-59.215-33.262-82.809l75.953-76.023-32.145-32.145-75.762 75.715c-23.57-18.285-52.023-30.523-83.047-34.43v-107h-45.523v107.43c-30.691 4.3555-58.715 16.762-81.906 35.215l-76.855-76.906-32.191 32.215 77.523 77.453c-17.191 23.332-28.645 51.07-32.145 81.285h-111.14v45.5h112.09c4.4766 29.355 16.383 56.238 33.785 78.691l-80.094 80.117 32.168 32.191 80.332-80.355c22.523 16.93 49.309 28.453 78.453 32.594v113.55h45.523v-113.12c29.523-3.7383 56.617-15.023 79.547-31.855l79.238 79.238 32.168-32.191-78.547-78.57c18.07-22.785 30.355-50.215 34.93-80.238l109.36-0.003906zm-278.43 99.07c-69.094 0-125.12-56-125.12-125.17 0-69.07 56-125.09 125.12-125.09 69.117 0 125.12 56.023 125.12 125.09 0.027344 69.168-55.996 125.17-125.12 125.17z"/>
 <path d="m663.09 614.79h-125.88l-69.406 128.5h125.84z"/>
 <path d="m829.43 584.12 82.477-152.52-115.45-0.40234-82.645 152.93z"/>
 <path d="m812.86 614.79h-115.64l-69.453 128.5h115.64z"/>
 <path d="m541.74 902.43h115.57l69.453-128.48h-115.59z"/>
 <path d="m525.14 933.09-88.121 163 115.38 0.38281 88.309-163.38z"/>
 <path d="m577.05 773.95h-125.81l-69.43 128.48h125.76z"/>
 <path d="m365.24 933.09-87.785 162.5 125.48 0.38281 88.07-162.88z"/>
 <path d="m891.88 773.95h-130.95l-69.453 128.48h130.98z"/>
 <path d="m762.41 431.09-125.74-0.42578-82.883 153.45h125.91z"/>
 <path d="m994.43 584.12 82.094-151.97-130.55-0.45312-82.406 152.43z"/>
 <path d="m977.86 614.79h-130.9l-69.453 128.5h130.93z"/>
 <path d="m1176.8 980.43h-92.977v-49.094h92.977c12.262 0 22.168-9.9297 22.168-22.168s-9.9062-22.168-22.168-22.168h-92.977v-70.094c-74.57 0-135.69 50.523-146.45 116.31l-262.47-0.12109-88.383 163.48 130.83 0.45313 68.07-126.05h151.64c9.4766 66.953 71.168 118.98 146.74 118.98v-65.238h92.977c12.262 0 22.168-9.9062 22.168-22.145 0-12.238-9.9062-22.141-22.145-22.141z"/>
</svg>
