<?xml version="1.0" encoding="UTF-8"?>
<svg width="1200pt" height="1200pt" version="1.1" viewBox="0 0 1200 1200" xmlns="http://www.w3.org/2000/svg">
 <path d="m674.02 685.3c-25.246-24.719-55.98-37.273-91.309-37.273-36.312 0-67.609 12.562-93.012 37.273-25.273 24.949-38.16 55.945-38.16 92.195 0 35.328 12.84 66.109 38.16 91.367 25.391 25.379 56.629 38.27 93.012 38.27 35.328 0 66.109-12.887 91.367-38.242 25.32-25.285 38.148-56.051 38.148-91.402-0.023437-36.258-12.828-67.336-38.207-92.188zm-52.883 130.81c-10.609 10.668-23.449 15.863-38.426 15.863-14.988 0-27.793-5.2188-38.496-15.863-10.668-10.738-15.984-23.496-15.984-38.617 0-14.855 5.3164-27.637 15.984-38.316 10.715-10.727 23.508-16.199 38.496-16.199 14.977 0 27.805 5.4727 38.426 16.199 10.715 10.691 16.043 23.461 16.043 38.316 0 15.121-5.3398 27.898-16.043 38.617z"/>
 <path d="m353.53 631.74-0.20312-114.7c0-47.242 41.629-85.488 92.953-85.488h224.4l115.81-214.7c13.598-22.656 42.191-30.648 63.602-30.648h342.7v71.113h-83.438c-14.496 0-26.16 11.664-26.16 26.195l0.023438 141.18 109.57 0.53906 0.003906 342.89-431.71-0.16797s6.0352-59.891-32.305-109.87c-35.027-45.66-91.633-70.414-150.06-70.414-47.051 0-87.086 13.367-125.06 44.785-37.859 31.57-58.5 69.793-61.691 114.65h-36.852c-26.676 0-40.094-13.43-40.094-40.02v-75.336zm668.81-206.79-0.12109-136.3c0-20.352-10.129-30.527-30.48-30.527h-131.17c-12.793 0-22.078 3.457-29.258 14.902l-73.934 151.92z"/>
 <path d="m414.09 940.21c-17.629-59.258-72.336-102.52-137.17-102.52-64.836 0-119.53 43.246-137.16 102.52h-119.46v48.793h1172.5v-48.793z"/>
 <path d="m119.79 839.3-105.39-65.184 16.164-26.148 105.4 65.184z"/>
 <path d="m187.75 764.62-53.82-112.75 27.742-13.246 53.82 112.75z"/>
</svg>
