<?xml version="1.0" encoding="UTF-8"?>
<svg width="1200pt" height="1200pt" version="1.1" viewBox="0 0 1200 1200" xmlns="http://www.w3.org/2000/svg">
 <path d="m698.52 271.76v157.33h134.17c12.215 0 22.57 4.2617 31.145 12.809 8.5234 8.5234 12.785 18.883 12.785 31.117 0 13-4.4766 24.023-13.406 32.953l-150.02 149.98c-8.9531 13.047-21.57 19.547-37.809 19.547-13.023 0-23.809-4.5-32.332-13.43-8.5234-9-12.785-19.5-12.785-31.715 0-8.1445 2.0234-15.883 6.0938-23.168l85.406-85.355h-246.43l84.168 85.355c4.0469 7.2852 6.0938 15.023 6.0938 23.168 0 12.215-4.4766 22.715-13.43 31.715-8.9531 8.9297-19.5 13.43-31.738 13.43-16.238 0-28.832-6.5-37.785-19.547l-150.02-151.21c-8.9531-8.9766-13.43-19.5-13.43-31.715 0-12.238 4.2617-22.594 12.809-31.117 8.5469-8.5234 18.906-12.809 31.117-12.809h134.19v-159.76l-119.55 119.5c-7.3086 7.3555-16.285 11.023-26.832 11.023-25.215 0-37.809-12.617-37.809-37.832 0-9.7617 3.6445-17.906 10.977-24.406l153.67-153.67c11.406-12.191 25.617-18.355 42.668-18.355h152.5c17.094 0 31.715 6.168 43.93 18.355l152.48 153.67c7.3086 6.4766 10.93 15.094 10.93 25.617 0 24.406-12.145 36.617-36.547 36.617-11.406 0-20.738-3.6914-28.07-11.023z"/>
 <path d="m546.64 128.45c-14.215-14.262-21.332-31.523-21.332-51.883 0-20.238 7.1172-37.57 21.332-51.809 14.238-14.191 31.523-21.332 51.832-21.332 20.309 0 37.617 7.1445 51.883 21.332 14.215 14.238 21.309 31.57 21.309 51.809 0 20.355-7.0938 37.617-21.309 51.883-14.285 14.238-31.57 21.332-51.883 21.332-20.309 0-37.594-7.1172-51.832-21.332z"/>
 <path d="m868.29 1200h-543.17c-13.668 0-24.738-11.094-24.738-24.715 0-13.645 11.07-24.715 24.738-24.715h333.52l-342.45-81.879c-11.594-2.7148-19.547-13.383-18.906-25.285 0.64453-11.977 9.7383-21.738 21.57-23.262l348.19-43.977-348.05-42.07c-11.953-1.5-21.145-11.355-21.715-23.383-0.52344-12.047 7.668-22.785 19.453-25.285l327.93-71.285h-319.55c-13.668 0-24.738-11.07-24.738-24.691 0-13.645 11.07-24.738 24.738-24.738h549.52c12.645 0 23.262 9.5234 24.547 22.094 1.3555 12.5-6.9531 24.117-19.332 26.785l-409.59 89.047 401.02 48.453c12.383 1.5 21.691 12 21.738 24.5 0.023437 12.43-9.2148 23.023-21.645 24.57l-411.76 52.07 414.45 99.047c12.145 2.8828 20.238 14.477 18.762 26.906-1.4492 12.43-12 21.812-24.547 21.812z"/>
</svg>
