<?xml version="1.0" encoding="UTF-8"?>
<svg width="1200pt" height="1200pt" version="1.1" viewBox="0 0 1200 1200" xmlns="http://www.w3.org/2000/svg">
 <path d="m471.77 120.31c0 56.035-45.426 101.46-101.46 101.46s-101.46-45.426-101.46-101.46 45.426-101.46 101.46-101.46 101.46 45.426 101.46 101.46z"/>
 <path d="m492.98 248.98h-234.93c-69.516 0-127.08 56.664-127.08 127.43v328.67c0 58.57 82.344 58.57 82.344 0v-320.63h33.527l0.23828 747.88c0 30.371 24.637 55.043 54.996 55.043 30.445 0 55.078-24.672 55.078-55.043l-0.17969-416.48h37.043l-0.15625 416.48c0 30.371 24.613 55.043 55.055 55.043 30.371 0 55.008-24.672 55.008-55.043l0.25391-747.88h33.492v320.63c0 58.57 82.355 58.57 82.355 0l0.003906-328.67c0-70.762-57.551-127.43-127.05-127.43z"/>
 <path d="m742.49 11.293v1179.8h321.76l-0.003906-1179.8zm279.79 1137.9h-237.83v-104h159.95v-47.16h-159.95v-93.648h93.254v-44.676h-93.254v-93.648h159.95v-47.172h-159.95v-93.66h93.254l-0.003906-44.652h-93.254v-93.66h159.95v-47.16h-159.95v-93.648h93.254l-0.003906-44.648h-93.254v-93.648h159.95v-47.16h-159.95v-107.36h237.83z"/>
</svg>
