<?xml version="1.0" encoding="UTF-8"?>
<svg width="1200pt" height="1200pt" version="1.1" viewBox="0 0 1200 1200" xmlns="http://www.w3.org/2000/svg">
 <path d="m174.89 806.12h876.5v386.95h-876.5z"/>
 <path d="m689.16 49.801c0 23.148-18.766 41.914-41.918 41.914-23.148 0-41.914-18.766-41.914-41.914 0-23.148 18.766-41.918 41.914-41.918 23.152 0 41.918 18.77 41.918 41.918z"/>
 <path d="m899.64 465.25v-117.35c0-19.188-6.707-35.746-20.172-49.5-13.453-13.738-29.797-20.578-49.094-20.578l-155.24-0.003906c9.9258-7.2344 16.441-18.852 16.441-32.074v-103.32c0-21.602-17.293-39.18-38.809-39.66-0.21484 0-156.45-0.058593-156.45-0.058593-10.824 0-19.586 8.7734-19.586 19.586 0 10.824 8.7617 19.598 19.586 19.598h115.85c0 0.17969-0.023438 75.59-0.023438 75.59-24.504 0-66.73-0.046875-70.164-0.046875-17.676-0.92578-33.516 14.664-33.516 33.086 0 1.9219 0.070312 4.4883 0.10938 5.8086l-183.89-166.89-0.12109 52.754-75.121 68.977c-10.441 6.8398-15.672 16.297-15.672 28.309 0 9.457 3.7695 17.23 11.41 23.258 7.6211 5.9766 16.105 8.1953 25.5 6.6484l75.973-17.797 69.695 162.65h-89.855c-8.2422 0-16.02 3.9609-20.902 10.609-4.8594 6.6602-6.2891 15.254-3.8398 23.102l33.938 108c3.4805 11.09 13.738 18.18 24.742 18.18 2.5547 0 5.1836-0.38281 7.7539-1.2109 13.68-4.2852 21.277-18.852 16.98-32.496l-23.34-74.328h91.621v190.66c0 12.887 9.3945 23.52 21.695 25.523l-135.9-0.007812v97.727h547.81v-97.727h-58.414c12.121-2.1484 21.348-12.742 21.348-25.523l0.21484-160.51-25.598-40.43 0.003907-135.3 25.598 29.051v115.7zm-394.34 191.49-0.046875-190.95h150.59l38.734 52.273-51.688 131.73c-4.8711 12.562 0.67188 26.543 12.445 32.461h-171.72c12.297-2.0039 21.684-12.625 21.684-25.516zm173.42 25.516c5.5312-2.7617 10.094-7.4883 12.504-13.703l63.406-161.64-34.031-41.125h27.227l50.258 60.758-0.14453 0.097657 0.20312 130.08c0 12.781 9.2266 23.375 21.359 25.523l-140.78-0.003906z"/>
</svg>
