<?xml version="1.0" encoding="UTF-8"?>
<svg width="1200pt" height="1200pt" version="1.1" viewBox="0 0 1200 1200" xmlns="http://www.w3.org/2000/svg">
 <path d="m945.07 819.16h-675.32v-58.141h675.32z"/>
 <path d="m383.53 468.74c42.492-8.5078 70.129-50.34 61.535-93.301-8.6406-43.043-50.207-70.895-92.723-62.375-42.574 8.5312-70.105 50.184-61.488 93.254 8.5938 42.938 50.09 70.934 92.676 62.422"/>
 <path d="m847.82 437.52c-42.492-8.5078-70.129-50.34-61.535-93.301 8.6523-43.043 50.219-70.895 92.723-62.375 42.59 8.5312 70.117 50.184 61.477 93.254-8.5664 42.945-50.078 70.93-92.664 62.422"/>
 <path d="m1179.4 612.06-171.67-170.52c-11.051-11.797-24.469-17.734-40.262-17.734-16.57 0-30.406 5.9297-41.426 17.734 0 0-4.1055 4.5234-5.7461 6.9727l-111.37 165.13-107.77-76.105c-17.543-12.395-41.832-8.2305-54.238 9.3359-12.383 17.543-8.2188 41.832 9.3359 54.227l140.26 99.047c6.6133 4.6797 14.461 7.1406 22.453 7.1406 2.3281 0 4.6797-0.21484 7.0078-0.64844 10.285-1.8828 19.391-7.8359 25.246-16.523l69.637-103.25 140.18 141.25v396.11c0 18.168 6.3359 33.336 18.961 45.637 12.602 12.203 27.984 18.312 46.152 18.312 17.375 0 32.387-6.1211 45-18.312 12.613-12.289 18.91-27.469 18.91-45.637v-486.11c-0.015625-10.285-3.5195-18.938-10.656-26.066z"/>
 <path d="m406.84 211.5c-35.699 0-64.754-29.027-64.754-64.715 0-35.699 29.039-64.738 64.754-64.738 35.688 0 64.715 29.039 64.715 64.738 0 35.688-29.039 64.715-64.715 64.715zm0-99.371c-19.117 0-34.68 15.551-34.68 34.668 0 19.094 15.551 34.633 34.68 34.633 19.105 0 34.645-15.539 34.645-34.633 0-19.117-15.539-34.668-34.645-34.668z"/>
 <path d="m743.8 137.82c-35.711 0-64.754-29.027-64.754-64.703 0-35.699 29.051-64.738 64.754-64.738 35.688 0 64.715 29.039 64.715 64.738 0 35.676-29.027 64.703-64.715 64.703zm0-99.371c-19.129 0-34.691 15.551-34.691 34.668 0 19.094 15.562 34.633 34.691 34.633 19.105 0 34.645-15.539 34.645-34.633 0-19.117-15.543-34.668-34.645-34.668z"/>
 <path d="m664.79 333.52-21.254-21.262-49.668 49.668-49.668-49.668-21.262 21.262 49.668 49.668-49.668 49.656 21.262 21.266 49.668-49.656 49.668 49.656 21.254-21.266-49.656-49.656z"/>
 <path d="m491.23 138.32-5.5664-29.543 70.836-13.355 5.5664 29.555zm98.691-18.602-5.5664-29.543 70.836-13.355 5.5664 29.555z"/>
 <path d="m617.59 303.7-25.727-15.574 37.332-61.656 25.727 15.574zm52.031-85.906-25.738-15.574 37.332-61.656 25.727 15.574z"/>
 <path d="m545.7 629.46h-147l-122.04-180.94c-1.6445-2.4375-21.613-25.766-47.16-24.695-15.109 0.625-29.219 5.9297-40.285 17.723l-171.67 170.52c-7.1289 7.1406-10.645 15.793-10.645 26.074v486.1c0 18.18 6.3125 33.348 18.926 45.637 12.625 12.203 27.625 18.312 45 18.312 18.168 0 33.539-6.1211 46.152-18.312 12.625-12.277 18.961-27.457 18.961-45.637v-396.11l140.17-141.25 69.648 103.25c7.2344 10.738 19.32 17.16 32.258 17.16h167.69c21.492 0 38.914-17.426 38.914-38.914-0.011719-21.48-17.438-38.914-38.918-38.914z"/>
</svg>
