<?xml version="1.0" encoding="UTF-8"?>
<svg width="1200pt" height="1200pt" version="1.1" viewBox="0 0 1200 1200" xmlns="http://www.w3.org/2000/svg">
 <path d="m294 396c0 66-52.801 118.8-118.8 118.8s-117.6-52.801-117.6-118.8 52.801-118.8 118.8-118.8c65.996 0 117.6 54 117.6 118.8"/>
 <path d="m451.2 801.6c10.801 0 21.602-3.6016 30-12l152.4-152.4c15.602-15.602 16.801-42 0-58.801-16.801-16.801-42-16.801-58.801 0l-123.6 121.2s-55.199-48-111.6-104.4c-24-24-54-45.602-94.801-45.602h-154.8c-39.602 0-80.398 37.199-80.398 82.801v288h306v-225.6l99.602 94.801c9.5977 7.1992 25.195 12 35.996 12z"/>
 <path d="m409.2 588 37.199 39.602 27.602-27.602v-246h652.8v501.6h-717.6v64.797h782.4v-640.8h-782.4z"/>
 <path d="m844.8 715.2c18 0 32.398 14.398 32.398 32.398s-14.398 32.398-32.398 32.398-32.398-14.398-32.398-32.398c-0.003906-17.996 14.398-32.398 32.398-32.398m0 93.602c33.602 0 61.199-27.602 61.199-61.199 0-33.602-27.602-61.199-61.199-61.199-33.602 0-61.199 27.602-61.199 61.199 0 33.598 27.598 61.199 61.199 61.199"/>
 <path d="m666 432c18 0 32.398 14.398 32.398 32.398s-14.398 32.398-32.398 32.398-32.398-14.398-32.398-32.398c-1.2031-18 14.398-32.398 32.398-32.398m0 94.801c33.602 0 61.199-27.602 61.199-61.199 0-33.602-27.602-61.199-61.199-61.199-33.602 0-61.199 27.602-61.199 61.199 0 33.598 27.598 61.199 61.199 61.199"/>
 <path d="m919.2 465.6 19.199-20.402 48 46.801 46.801-46.801 20.402 20.402-48 46.797 48 46.801-20.402 20.402-46.801-46.801-48 46.801-19.199-20.402 46.801-46.801z"/>
 <path d="m811.2 508.8 4.8008-27.602-66-13.199-6 28.801zm93.602 18 4.8008-27.602-67.199-13.199-4.8008 27.602z"/>
 <path d="m735.6 602.4 24-14.398-34.801-58.801-24 14.398zm49.199 81.602 24-14.398-34.801-58.801-24 14.398z"/>
</svg>
