<?xml version="1.0" encoding="UTF-8"?>
<svg width="1200pt" height="1200pt" version="1.1" viewBox="0 0 1200 1200" xmlns="http://www.w3.org/2000/svg">
 <path d="m936.47 19.688-200.86 347.76h164.29v69.938c0 12.375-1.6875 24-4.7812 33.938-12.703 42.609-55.547 74.625-99.844 74.625h-73.219s-84.844-0.9375-84.844-0.9375v0.70312l-193.22-0.70312c-7.3125 0-15 0-23.766 0.60938-37.453 2.3906-74.062 17.297-103.55 42.234-29.297 25.078-49.922 58.781-58.078 93.703-2.8594 10.547-3.9375 20.766-4.7812 29.859l-0.375 43.781c-103.45 16.547-182.76 106.08-182.76 214.08 0 119.62 97.312 217.08 217.08 217.08s217.08-97.312 217.08-217.08c0-106.45-77.156-195.14-178.45-213.37v-29.625l0.46875-9.7031c0.46875-5.3906 1.0781-10.781 2.7656-17.156 4.9219-21 17.156-40.922 34.547-55.688 17.297-14.625 38.859-23.531 60.938-24.938 6.7031-0.46875 12.469-0.46875 18.375-0.375l278.53 1.0781v-19.078l0.14062 19.078h73.312c76.453 0 147.84-53.297 169.78-126.61 5.0625-16.453 7.7812-35.297 7.9219-54.938v-70.312h164.29zm-557.63 949.55c0 50.297-40.922 91.078-91.078 91.078s-91.078-40.781-91.078-91.078 40.781-91.078 91.078-91.078 91.078 40.781 91.078 91.078z"/>
 <path d="m552 108-92.156-92.156-132.61 132.61-132.61-132.61-92.156 92.156 132.61 132.61-132.61 132.47 92.156 92.156 132.61-132.61 132.61 132.61 92.156-92.156-132.61-132.47z"/>
 <path d="m1095.9 815.06-92.156-92.203-132.47 132.61-132.61-132.61-92.156 92.203 132.61 132.56-132.61 132.61 92.156 92.062 132.61-132.52 132.47 132.52 92.156-92.062-132.47-132.61z"/>
</svg>
