<?xml version="1.0" encoding="UTF-8"?>
<svg width="1200pt" height="1200pt" version="1.1" viewBox="0 0 1200 1200" xmlns="http://www.w3.org/2000/svg">
 <path d="m595.18 299.2h-0.16797-0.16797c-30.266 0-54.793-28.871-54.793-105.1 0-62.184 34.559-182.47 54.793-182.47 0.046875 0 0.10938 0.011719 0.16797 0.011719 0.046876 0 0.10938-0.011719 0.16797-0.011719 20.219 0 54.781 120.29 54.781 182.47 0 76.227-24.527 105.1-54.781 105.1z"/>
 <path d="m283.23 210.62c-0.011719 0.046875-0.035156 0.097656-0.058594 0.13281-0.011719 0.046876-0.035156 0.10938-0.058593 0.15625-10.824 25.883 4.9688 57.145 69.805 84.238 52.895 22.105 167.58 35.305 174.82 18 0.011719-0.046875 0.023438-0.10938 0.046875-0.15625 0.023438-0.035156 0.046875-0.085938 0.070313-0.13281 7.2344-17.316-82.727-89.641-135.62-111.74-64.859-27.109-98.184-16.383-109 9.5039z"/>
 <path d="m912.17 210.62c0.011719 0.046875 0.035156 0.097656 0.058593 0.13281 0.011719 0.046876 0.035157 0.10938 0.058594 0.15625 10.824 25.883-4.9688 57.145-69.805 84.238-52.895 22.105-167.58 35.305-174.8 18-0.011719-0.046875-0.023437-0.10938-0.035156-0.15625-0.035156-0.035156-0.058594-0.085938-0.085937-0.13281-7.2461-17.316 82.727-89.641 135.62-111.74 64.84-27.109 98.164-16.383 108.99 9.5039z"/>
 <path d="m598.85 350.32c-0.38281 0-0.76953 0.011719-1.1523 0.011719-0.39453 0-0.76953-0.011719-1.1641-0.011719-209.59 0-379.5 84.336-379.5 306.97 0 181.66 239.33 532.98 379.5 532.98 0.38281 0 0.76953-0.023437 1.1641-0.023437 0.37109 0 0.75781 0.023437 1.1523 0.023437 140.17 0 379.5-351.32 379.5-532.98 0-222.64-169.91-306.97-379.5-306.97zm61.969 138.38c14.438 0 26.148 15.035 26.148 33.602 0 18.562-11.711 33.613-26.148 33.613s-26.148-15.047-26.148-33.613c0-18.566 11.711-33.602 26.148-33.602zm-128.61 0c14.449 0 26.148 15.035 26.148 33.602 0 18.562-11.699 33.613-26.148 33.613-14.438 0-26.148-15.047-26.148-33.613 0-18.566 11.715-33.602 26.148-33.602zm-191.72 195.72c-14.449 0-26.148-15.047-26.148-33.613 0-18.574 11.711-33.637 26.148-33.637s26.137 15.059 26.137 33.637c0 18.562-11.715 33.613-26.137 33.613zm63.121 131.83c-14.449 0-26.16-15.035-26.16-33.625 0-18.551 11.711-33.613 26.16-33.613 14.438 0 26.148 15.059 26.148 33.613 0 18.586-11.715 33.625-26.148 33.625zm0-260.34c-14.449 0-26.16-15.047-26.16-33.613 0-18.562 11.711-33.602 26.16-33.602 14.438 0 26.148 15.035 26.148 33.602s-11.715 33.613-26.148 33.613zm64.305 378.49c-14.449 0-26.148-15.07-26.148-33.625 0-18.574 11.711-33.613 26.148-33.613s26.148 15.035 26.148 33.613c-0.011719 18.555-11.723 33.625-26.148 33.625zm1.1641-249.98c-14.438 0-26.148-15.047-26.148-33.613 0-18.574 11.711-33.637 26.148-33.637 14.449 0 26.148 15.059 26.148 33.637 0 18.562-11.699 33.613-26.148 33.613zm63.133 64.594c14.449 0 26.148 15.059 26.148 33.613 0 18.59-11.699 33.625-26.148 33.625-14.438 0-26.148-15.035-26.148-33.625 0-18.555 11.715-33.613 26.148-33.613zm1.1875 312.97c-14.449 0-26.148-15.047-26.148-33.613 0-18.551 11.711-33.613 26.148-33.613s26.137 15.059 26.137 33.613c0 18.566-11.699 33.613-26.137 33.613zm63.121-127.59c-14.449 0-26.148-15.07-26.148-33.625 0-18.574 11.699-33.613 26.148-33.613 14.438 0 26.148 15.035 26.148 33.613 0 18.555-11.711 33.625-26.148 33.625zm1.1875-249.98c-14.449 0-26.16-15.047-26.16-33.613 0-18.574 11.711-33.637 26.16-33.637 14.438 0 26.148 15.059 26.148 33.637-0.011719 18.562-11.711 33.613-26.148 33.613zm63.109 64.594c14.438 0 26.148 15.059 26.148 33.613 0 18.59-11.711 33.625-26.148 33.625s-26.148-15.035-26.148-33.625c0.011719-18.555 11.711-33.613 26.148-33.613zm1.1875 312.97c-14.426 0-26.148-15.047-26.148-33.613 0-18.551 11.723-33.613 26.148-33.613 14.438 0 26.16 15.059 26.16 33.613 0 18.566-11.723 33.613-26.16 33.613zm63.121-127.59c-14.426 0-26.148-15.07-26.148-33.625 0-18.574 11.723-33.613 26.148-33.613 14.438 0 26.16 15.035 26.16 33.613-0.011718 18.555-11.727 33.625-26.16 33.625zm1.1758-249.98c-14.438 0-26.137-15.047-26.137-33.613 0-18.574 11.699-33.637 26.137-33.637s26.148 15.059 26.148 33.637c0 18.562-11.703 33.613-26.148 33.613zm63.145 131.83c-14.449 0-26.16-15.035-26.16-33.625 0-18.551 11.711-33.613 26.16-33.613 14.426 0 26.137 15.059 26.137 33.613-0.003906 18.586-11.715 33.625-26.137 33.625zm0-260.34c-14.449 0-26.16-15.047-26.16-33.613 0-18.562 11.711-33.602 26.16-33.602 14.426 0 26.137 15.035 26.137 33.602-0.003906 18.566-11.715 33.613-26.137 33.613zm65.484 128.51c-14.449 0-26.16-15.047-26.16-33.613 0-18.574 11.711-33.637 26.16-33.637 14.426 0 26.137 15.059 26.137 33.637-0.003906 18.562-11.715 33.613-26.137 33.613z"/>
</svg>
