<?xml version="1.0" encoding="UTF-8"?>
<svg width="1200pt" height="1200pt" version="1.1" viewBox="0 0 1200 1200" xmlns="http://www.w3.org/2000/svg">
 <path d="m688.15 642.59v-144.03h21.07l0.046875 144.02h161.77l0.046875-144.02h21.07v144.02h51.828l0.003907-149.07c0-44.52-36.203-80.195-79.945-80.195h-147.79c-43.715 0-79.945 35.676-79.945 80.195v149.07z"/>
 <path d="m848.88 317.73v-0.12109l0.15625-18.66c-1.3789-32.219-27.742-58.066-60.359-58.094-32.438-0.046875-58.656 25.43-60.445 57.395l-49.309-0.046875-0.023437 19.176z"/>
 <path d="m727.92 338.65c0.67188 32.867 27.348 59.328 60.359 59.375 32.734 0.023437 59.316-26.016 60.434-58.535v-0.13281c0.023437-0.16797 0.046875-0.66016 0.046875-0.88672z"/>
 <path d="m976.91 980.12v-0.68359c0 0.23828-0.023438 0.43359-0.023438 0.68359z"/>
 <path d="m929.77 979.44c0-89.508-72.863-162.37-162.41-162.37-90.301 0-163.84 72.863-163.84 162.37 0 0.23828 0.023438 0.43359 0.023438 0.68359h119.26c-0.60156 2.9297-0.94922 5.9766-0.94922 9.0859 0 24.672 19.992 44.773 44.773 44.773 24.793 0 44.746-20.113 44.746-44.773 0-3.1094-0.3125-6.1562-0.92578-9.0859h119.26c0.007812-0.25391 0.058594-0.44531 0.058594-0.68359z"/>
 <path d="m242.06 676.36v303.76h78.133v99.602c-7.9336-4.0078-16.789-6.5039-26.316-6.5039-32.438 0-58.586 26.293-58.586 58.598 0 32.281 26.148 58.586 58.586 58.586s58.559-26.293 58.559-58.586v-151.69h203.95c0-0.25391-0.035156-0.44531-0.035156-0.68359 0-115.56 94.656-209.57 211-209.57 115.55 0 209.54 94.008 209.54 209.57v-303.08z"/>
 <path d="m929.72 980.12c-0.38281 89.902-73.031 162.98-162.35 162.98-90.059 0-163.45-73.078-163.81-162.98h-47.148c0.37109 115.98 94.848 210.25 210.97 210.25 115.29 0 209.14-94.262 209.52-210.25z"/>
 <path d="m242.06 527.95h286.59v114.64h-286.59z"/>
 <path d="m242.06 459h286.59v46.223h-286.59z"/>
 <path d="m1074 127.92-470.39-115.79-473.04 116.53v62.027h452v200.5h39.43v-200.5h451.99z"/>
</svg>
