<?xml version="1.0" encoding="UTF-8"?>
<svg width="1200pt" height="1200pt" version="1.1" viewBox="0 0 1200 1200" xmlns="http://www.w3.org/2000/svg">
 <path d="m254.26 681.35-148.11 113.94c-12.289 8.6055-24.695 12.828-37.02 12.828-15.336 0-27.77-6.4688-37.715-19.164-10.02-12.91-14.977-25.465-14.977-37.859 0-14.258 5.6758-25.523 17.062-34.176l185.1-145.19c6.6836-6.6484 18.625-9.9844 35.652-9.9844 11.387 0 23.797 1.3438 37.105 4.2617l78.289 22.68z"/>
 <path d="m710.5 325.18c-3.9844-49.5-39.301-92.746-90.324-103.63-62.305-13.234-123.6 26.473-136.87 88.703-12.324 58.141 21.66 114.8 76.836 132.96z"/>
 <path d="m436.4 539.35 76.008-58.906-207.15-153.13c-20.617-15.301-49.535-10.848-64.727 9.6953-15.227 20.566-10.848 49.535 9.6953 64.727z"/>
 <path d="m1155.9 137.22c-21.805-21.73-48.492-32.723-79.738-32.723-25.609 0-47.953 7.6328-66.863 23.074l-775.33 616.05c-18.805 15.254-31.055 35.699-36.695 61.285-4.7773 19.969-3.2891 40.895 4.1875 62.773-39.805 24.742-59.699 61.789-59.699 111.23 0 35.125 12.574 65.34 37.754 90.516 25.129 25.129 55.223 37.777 90.406 37.777 36.012 0 66.742-12.66 91.922-37.777 25.129-25.176 37.68-55.285 37.68-90.434 0-35.988-12.539-66.648-37.68-91.812-25.164-25.055-55.906-37.715-91.922-37.715-5.6406 0-14.258 1.332-25.609 4.2344-5.7109-14.258-7.0781-27.516-4.2969-39.887 3.793-15.109 11.387-27.516 22.848-37.055l46.945-36.961 239.34 78.324c9.3594 2.8086 18.949 4.1641 28.465 4.1641 44.594 0 74.016-20.832 88.262-62.641l4.2617-12.758 51.277 122.47c-40.789 24.707-61.223 61.246-61.223 109.64 0 35.148 12.574 65.258 37.777 90.434 25.176 25.129 55.691 37.777 91.801 37.777 35.16 0 65.242-12.66 90.445-37.777 25.262-25.176 37.715-55.285 37.715-90.434 0-35.988-12.445-66.648-37.715-91.812-25.211-25.055-55.285-37.715-90.445-37.715-7.5977 0-16.633 1.332-27.047 4.2344l-71.258-170.89 118.16-340.51 225.14-179.39c11.426-9.5391 25.199-14.316 41.258-14.316 19.02 0 35.16 6.8398 48.492 20.004 13.309 13.273 20.004 29.438 20.004 48.457 0 22.895-9.0859 41.23-27.133 55.535-11.461 8.6055-12.324 18.984-2.8438 31.355 9.5039 10.453 19.957 10.992 31.344 1.4531 28.453-22.812 42.742-52.246 42.742-88.344-0.007812-31.348-10.93-58-32.734-79.84zm-885.98 784.92c16.129 0 29.652 5.4258 40.609 16.309 10.883 10.871 16.414 24.445 16.414 40.535 0 15.289-5.5312 28.273-16.414 39.266-10.957 10.801-24.48 16.234-40.609 16.234-15.156 0-28.273-5.4258-39.168-16.234-10.883-10.992-16.344-23.977-16.344-39.266 0-16.094 5.4609-29.664 16.344-40.535 10.883-10.887 24.012-16.309 39.168-16.309zm479.25 16.309c10.883-10.883 24.48-16.309 40.609-16.309 15.156 0 28.32 5.4258 39.168 16.309 10.883 10.871 16.523 24.445 16.523 40.535 0 15.289-5.6406 28.273-16.523 39.266-10.836 10.801-24.012 16.234-39.168 16.234-16.129 0-29.723-5.4258-40.609-16.234-10.836-10.992-16.297-23.977-16.297-39.266-0.011719-16.094 5.4492-29.664 16.297-40.535z"/>
</svg>
