<?xml version="1.0" encoding="UTF-8"?>
<svg width="1200pt" height="1200pt" version="1.1" viewBox="0 0 1200 1200" xmlns="http://www.w3.org/2000/svg">
 <path d="m299.3 366.56h222.48l-20.828 187.41c-125.33 32.094-226.85 123.54-272.98 242.57 62.84 20.344 88.332 20.129 151.2-0.72656 61.949-20.434 82.594-20.434 144.54 0 63.609 21.109 88.691 21.109 153.48 0 61.016-19.746 79.445-21.121 144.55 0 63.598 20.812 89.156 21.062 150.87 0.83594-46.121-119.1-147.66-210.57-273.04-242.68l-20.82-187.42h222.48c16.629 0 30.105-13.477 30.105-30.098 0-16.625-13.477-30.102-30.105-30.102h-229.17l-25.188-226.66h-0.074218c-0.64062-25.211-21.234-45.465-46.598-45.465-25.668 0-46.484 20.734-46.641 46.371l-25.09 225.75h-229.18c-16.625 0-30.102 13.477-30.102 30.102-0.003906 16.633 13.473 30.105 30.098 30.105z"/>
 <path d="m1119.7 1021.2c-61.879-20.434-82.641-20.434-144.46 0-63.652 21.121-88.945 21.121-153.46 0-65.109-21.109-83.539-19.738-144.55 0-64.785 21.121-89.867 21.121-153.48 0-61.949-20.434-82.594-20.434-144.54 0-63.637 21.121-88.906 21.121-153.46 0-31.441-10.215-55.992-15.438-73.004-15.438-16.016 0-40.055 5.2227-71.57 15.438-29.332 9.6289-52.746 14.289-71.102 15.188v95.137l0.24219 3.7656c10.859-5.918 35.348-11.125 66.891-21.344 66.301-21.676 89.895-20.469 152.65 0 61.148 19.832 79.727 21.215 144.6 0 64.434-21.121 89.395-21.121 154.23 0 64.805 21.121 83.352 19.832 144.61 0 62.625-20.66 86.074-21.75 152.6 0 60.828 19.832 79.445 21.121 144.59 0 64.531-21.121 89.805-21.121 153.44 0 27.32 9.1016 49.504 14.148 66.141 15.199l0.50781-92.652c-14.023 1.9141-39.078-4.6836-70.867-15.293z"/>
 <path d="m1119.7 860.57c-61.879-20.43-82.641-20.43-144.46 0-63.652 21.121-88.945 21.121-153.46 0-65.109-21.121-83.539-19.738-144.55 0-64.785 21.121-89.867 21.121-153.48 0-61.949-20.43-82.594-20.43-144.54 0-63.637 21.121-88.906 21.121-153.46 0-31.441-10.215-55.992-15.438-73.004-15.438-16.016 0-40.055 5.2227-71.57 15.438-29.332 9.6289-52.746 14.289-71.102 15.188v95.137l0.24219 3.7656c10.859-5.918 35.348-11.125 66.891-21.34 66.301-21.68 89.895-20.477 152.65 0 61.148 19.832 79.727 21.207 144.6 0 64.434-21.117 89.395-21.117 154.23 0 64.805 21.109 83.352 19.832 144.61 0 62.625-20.66 86.074-21.754 152.6 0 60.828 19.832 79.445 21.109 144.59 0 64.531-21.117 89.805-21.117 153.44 0 27.32 9.1016 49.504 14.145 66.141 15.207v-90.426c-15.523 0-38.57-6.9297-70.359-17.531z"/>
</svg>
