<?xml version="1.0" encoding="UTF-8"?>
<svg width="1200pt" height="1200pt" version="1.1" viewBox="0 0 1200 1200" xmlns="http://www.w3.org/2000/svg">
 <path d="m244.09 195.25c0 54.848-44.465 99.309-99.312 99.309-54.852 0-99.312-44.461-99.312-99.309 0-54.852 44.461-99.312 99.312-99.312 54.848 0 99.312 44.461 99.312 99.312z"/>
 <path d="m1133.2 79.598 31.992-68.594-64.512 39.625c-1.8125 1.1289-183.79 112.2-283.74 112.2-39.551 0-63.73-10.668-91.68-23.051-36.324-16.078-77.508-34.309-156.57-34.309-15.742 0-32.723 0.75781-50.473 2.2188-145.07 11.941-273.57 154.78-278.97 160.85 0 0-29.375 30.254-37.57 53.172-3.6367 10.957-5.4844 22.008-5.4844 33 0 22.922 7.3203 44.461 21.996 64.691l184.22 184.22-160.05 196.44c-0.32422 0.39453-26.914 28.969-7.9453 67.836l136.22 281.51c10.969 22.703 33.648 35.891 57.254 35.891 9.3008 0 18.73-2.0391 27.648-6.3359 31.598-15.312 44.82-53.328 29.52-84.91l-116.33-240.43s209.9-206.43 210.89-207.52l0.16797 0.023438c21.277-21.098 31.906-45.852 31.906-74.242 0-29.328-10.078-54.086-30.289-74.293l-80.828-79.988c44.293 11.953 90.672 28.234 128.52 50.352 90.145 52.703 166.85 201.43 167.61 202.95l36.469 71.375 6.4336-79.895c3.5508-44.004 21.289-166.4 60.227-203.63 15.898-15.168 41.016-3.8516 66.707 7.9688 18.527 8.5078 36.023 16.57 53.641 16.57h0.023438c20.473 0 36.793-11.258 45.961-31.68 17.676-39.445 6.8047-77.723-2.8203-111.5-6.2891-22.164-12.238-43.078-9-60.539 7.7891-42.145 59.555-158.63 78.863-199.97zm-113.59 272.94c8.2305 28.859 15.984 56.125 5.0508 80.484-1.6914 3.7695-2.9648 4.6562-4.5 4.8125-7.6562 0-22.008-6.5898-34.656-12.422-20.16-9.2773-43.008-19.789-66.852-19.789-19.246 0-36.156 6.8047-50.219 20.258-36.383 34.777-55.668 109.8-65.352 165.68-33.312-52.309-88.055-126.01-151.05-162.86-64.766-37.824-149.53-59.82-213.04-72.023l-0.67188-0.66016 338.46-1.3789c12.816 0 23.867-4.5469 33.059-13.703 9.1797-9.2031 13.715-20.184 13.715-33.047 0-12.816-4.5352-23.773-13.715-32.965-9.1914-9.1445-20.242-13.801-33.059-13.801h-464.99c45.758-40.859 126.45-101.24 210.17-108.13 16.5-1.3555 32.23-2.0625 46.738-2.0625 69.445 0 104.4 15.469 138.19 30.434 29.914 13.246 60.887 26.953 110.06 26.953 74.074 0 180.32-49.355 246.65-84.516-21.312 49.152-47.773 114.24-53.965 147.49-5.207 27.906 2.5234 55.039 9.9727 81.246z"/>
</svg>
