<?xml version="1.0" encoding="UTF-8"?>
<svg width="1200pt" height="1200pt" version="1.1" viewBox="0 0 1200 1200" xmlns="http://www.w3.org/2000/svg">
 <path d="m830.65 532.43h-459.07v-52.465h459.07z"/>
 <path d="m830.65 637h-459.07v-52.477h459.07z"/>
 <path d="m830.65 741.54h-459.07v-52.477h459.07z"/>
 <path d="m1057.8 483.12h-69.371v-36.203l-10.883-8.0391c-68.992-51.16-212.62-157.7-375.14-157.7-166.71 0-314.72 111.96-377.91 159.76l-10.656 8.0742v34.105h-69.395c-70.379 0-127.64 57.238-127.64 127.64 0 70.367 57.266 127.62 127.64 127.62h69.395v34.141l10.645 8.0273c87.551 66.277 224.18 145.27 377.93 145.27 120.86 0 247.07-48.191 375.13-143.17l10.883-8.0391v-36.238h69.371c70.391 0 127.64-57.254 127.64-127.62 0-70.398-57.242-127.64-127.64-127.64zm-913.36 203.88c-42.047 0-76.273-34.211-76.273-76.246 0-42.059 34.223-76.273 76.273-76.273h69.395v152.52zm790.28 60.445c-114.8 82.727-226.56 124.66-332.32 124.66-132.9 0-253.75-66.938-334.86-126.41v-269.91c95.184-70.98 208.6-140.9 334.86-140.9 137.07 0 264.49 89.09 332.32 139.08zm123.07-60.445h-69.371l-0.003907-152.51h69.371c42.059 0 76.262 34.211 76.262 76.273 0.011719 42.023-34.199 76.234-76.258 76.234z"/>
</svg>
