<?xml version="1.0" encoding="UTF-8"?>
<svg width="1200pt" height="1200pt" version="1.1" viewBox="0 0 1200 1200" xmlns="http://www.w3.org/2000/svg">
 <path d="m1088 96.875h-976.64c-61.367 0-111.31 49.945-111.31 111.32v654.01c0 61.379 49.945 111.31 111.31 111.31h439.88c20.629 53.605 136.82 128.16 136.82 128.16v98.316h294.43v-226.48h105.5c61.367 0 111.3-49.934 111.3-111.31v-654.01c0-61.391-49.934-111.32-111.3-111.32zm-5.2695 760.07h-100.23v-169.77c0-46.586-69.059-46.586-69.059 0v67.969c0 7.5352-19.453 7.5352-19.453 0v-117.05c0-46.57-69.695-46.57-69.695 0v117.05c0 7.5352-19.453 7.5352-19.453 0v-159.64c0-46.547-69.695-46.547-69.695 0v159.64c0 7.5352-19.453 7.5352-19.453 0v-323.94c0-46.453-69.695-46.453-69.695 0v413.07c0 8.1719-21.973 8.1719-21.973 0v-155.41c0-56.531-75.961-54.023-75.961 0v168.09h-431.46v-643.5h966.11v643.49zm58.32-298.57c-12.551 0-22.727-10.176-22.727-22.715 0-12.551 10.176-22.738 22.727-22.738 12.562 0 22.738 10.176 22.738 22.738 0 12.539-10.176 22.715-22.738 22.715z"/>
 <path d="m630.62 484c0 10.961-8.8867 19.848-19.848 19.848-10.965 0-19.848-8.8867-19.848-19.848 0-10.961 8.8828-19.848 19.848-19.848 10.961 0 19.848 8.8867 19.848 19.848z"/>
 <path d="m771.54 484c0 10.961-8.8867 19.848-19.848 19.848-10.961 0-19.848-8.8867-19.848-19.848 0-10.961 8.8867-19.848 19.848-19.848 10.961 0 19.848 8.8867 19.848 19.848z"/>
 <path d="m697.97 352.11c0 10.969-8.8906 19.859-19.859 19.859s-19.863-8.8906-19.863-19.859 8.8945-19.863 19.863-19.863 19.859 8.8945 19.859 19.863z"/>
 <path d="m642.96 371.99c0 10.961-8.8867 19.848-19.848 19.848-10.965 0-19.848-8.8867-19.848-19.848 0-10.961 8.8828-19.848 19.848-19.848 10.961 0 19.848 8.8867 19.848 19.848z"/>
 <path d="m755.46 371.99c0 10.969-8.8906 19.859-19.859 19.859s-19.863-8.8906-19.863-19.859 8.8945-19.859 19.863-19.859 19.859 8.8906 19.859 19.859z"/>
 <path d="m616.74 423.28c0 10.969-8.8906 19.859-19.859 19.859s-19.859-8.8906-19.859-19.859 8.8906-19.863 19.859-19.863 19.859 8.8945 19.859 19.863z"/>
 <path d="m784.02 423.28c0 10.961-8.8867 19.848-19.848 19.848s-19.848-8.8867-19.848-19.848c0-10.965 8.8867-19.848 19.848-19.848s19.848 8.8828 19.848 19.848z"/>
</svg>
