<?xml version="1.0" encoding="UTF-8"?>
<svg width="1200pt" height="1200pt" version="1.1" viewBox="0 0 1200 1200" xmlns="http://www.w3.org/2000/svg">
 <path d="m605.66 1188.6c-327.73 0-594.35-266.59-594.35-594.3 0-327.72 266.63-594.35 594.35-594.35s594.34 266.63 594.34 594.35c0 327.71-266.63 594.3-594.34 594.3zm0-1166.7c-315.62 0-572.4 256.77-572.4 572.39 0 315.57 256.77 572.35 572.4 572.35 315.6 0 572.38-256.77 572.38-572.35 0-315.62-256.79-572.39-572.38-572.39zm0 1022.6c-248.26 0-450.23-201.96-450.23-450.18 0-248.26 201.96-450.24 450.23-450.24 248.22 0 450.18 201.98 450.18 450.24-0.011719 248.22-201.97 450.18-450.18 450.18zm0-878.47c-236.15 0-428.27 192.13-428.27 428.28 0 236.14 192.12 428.23 428.27 428.23 236.11 0 428.23-192.1 428.23-428.23-0.011719-236.15-192.13-428.28-428.23-428.28z"/>
 <path d="m607.71 353.04c-44.426 0-85.957 12.238-121.78 33.215 3.875 5.6523 6.1445 12.48 6.1445 19.848 0 19.5-15.805 35.281-35.305 35.281-10.164 0-19.246-4.3672-25.691-11.242-40.441 43.273-65.398 101.17-65.398 164.93 0 133.44 108.56 242 242.03 242 133.43 0 242.02-108.57 242.02-242 0-133.45-108.59-242.03-242.02-242.03zm0 425.18c-100.99 0-183.14-82.176-183.14-183.14 0-77.965 49.043-144.5 117.83-170.89 6.2031-10.141 17.281-16.98 30.023-16.98 6.9727 0 13.414 2.0898 18.887 5.5547 5.4102-0.48047 10.871-0.82812 16.402-0.82812 100.98 0 183.13 82.164 183.13 183.14-0.007812 100.97-82.148 183.14-183.13 183.14z"/>
 <path d="m607.71 428.39c-0.97266 0-1.9062 0.13281-2.8789 0.14453 1.8477 4.2734 2.8789 8.9883 2.8789 13.945 0 19.477-15.781 35.281-35.293 35.281-18.875 0-34.188-14.902-35.102-33.562-56.773 26.605-96.289 84.133-96.289 150.86 0 91.906 74.773 166.67 166.68 166.67s166.68-74.762 166.68-166.67c-0.007813-91.898-74.766-166.67-166.68-166.67zm0 263.38c-25.367 0-48.371-9.8398-65.617-25.836-4.9336 2.6172-10.465 4.2344-16.43 4.2344-19.477 0-35.27-15.781-35.27-35.258 0-14.438 8.6641-26.762 21.035-32.242-0.19141-2.5195-0.38281-5.0391-0.38281-7.5977 0-53.398 43.273-96.695 96.672-96.695 53.398 0 96.695 43.285 96.695 96.695-0.019531 53.391-43.301 96.699-96.703 96.699z"/>
 <path d="m603.98 261.17c-183.09 0-331.5 148.4-331.5 331.5 0 140.99 88.031 261.3 212.1 309.24-10.859 6.0117-18.301 17.438-18.301 30.742 0 19.465 15.816 35.281 35.281 35.281 19.5 0 35.293-15.816 35.293-35.281 0-5.8906-1.5859-11.375-4.1406-16.246 22.969 5.0273 46.789 7.7539 71.27 7.7539 183.1 0 331.5-148.39 331.5-331.5-0.015625-183.1-148.41-331.49-331.5-331.49zm3.7305 592.38c-142.54 0-258.49-115.95-258.49-258.48 0-70.066 28.055-133.67 73.477-180.27-0.71875-2.7969-1.2109-5.6758-1.2109-8.6992 0-19.477 15.805-35.27 35.281-35.27 5.7461 0 11.09 1.5 15.887 3.9375 39.324-24.203 85.586-38.195 135.05-38.195 142.52 0 258.48 115.97 258.48 258.5 0 142.54-115.95 258.47-258.47 258.47z"/>
 <path d="m956.32 1005c19.465 0 35.281-15.77 35.281-35.242 0-19.523-15.816-35.293-35.281-35.293-19.512 0-35.293 15.77-35.293 35.293 0 19.473 15.781 35.242 35.293 35.242z"/>
</svg>
