<?xml version="1.0" encoding="UTF-8"?>
<svg width="1200pt" height="1200pt" version="1.1" viewBox="0 0 1200 1200" xmlns="http://www.w3.org/2000/svg">
 <path d="m1198.3 684.37-80.062-48.383-21.301-146.24c-3.1328-37.609-34.559-67.199-72.91-67.199h-116.98v-77.23h-154.49v77.23h-122.96c-38.328 0-69.781 29.594-72.91 67.199l-21.035 146.1-80.316 48.527 0.19141 234.45h41.113l-0.070312 76.727c0 32.988 26.676 59.699 59.629 59.699s59.629-26.711 59.629-59.699l-0.058594-76.727h422.21l-0.085938 76.727c0 32.988 26.699 59.699 59.578 59.699 32.965 0 59.664-26.711 59.664-59.699l-0.085938-76.727h41.102zm-643.62 130.95c-27.59 0-49.934-22.402-49.934-50.027 0-27.613 22.344-50.016 49.934-50.016 27.562 0 49.957 22.402 49.957 50.016-0.011719 27.621-22.402 50.027-49.957 50.027zm95.305 19.129 0.085938-89.902c0-12.445 10.105-22.586 22.535-22.586h307.86c12.445 0 22.535 10.141 22.535 22.586l0.070313 89.902zm-49.957-207.27 8.9141-134.62c1.6445-19.535 17.977-19.199 37.871-19.199h360.13c19.906 0 36.215-0.33594 37.922 19.199l8.8906 134.62zm498.93 188.14c-27.562 0-49.934-22.402-49.934-50.027 0-27.613 22.367-50.016 49.934-50.016 27.59 0 49.934 22.402 49.934 50.016-0.003906 27.621-22.348 50.027-49.934 50.027z"/>
 <path d="m260.75 267.37c0 38.207-30.973 69.18-69.18 69.18-38.207 0-69.18-30.973-69.18-69.18 0-38.207 30.973-69.18 69.18-69.18 38.207 0 69.18 30.973 69.18 69.18z"/>
 <path d="m110.38 355.55 159.07-0.097656 0.023438-0.15625 233.96-71.316c49.117-13.5 65.664 47.484 22.273 61.43l-234.14 79.297 0.070312 593.8c0 22.559-18.289 40.883-40.883 40.883-22.609 0-40.883-18.324-40.883-40.883l-0.058594-313.97h-36.516l0.097656 313.97c0 22.559-18.312 40.883-40.883 40.883-22.598 0-40.906-18.324-40.906-40.883l-0.19141-557.98-29.242-0.61328v217.97c0 43.859-62.316 43.859-62.184 0l-0.0078125-222.6c0.023438-67.656 42.766-99.734 110.4-99.734z"/>
</svg>
