<?xml version="1.0" encoding="UTF-8"?>
<svg width="1200pt" height="1200pt" version="1.1" viewBox="0 0 1200 1200" xmlns="http://www.w3.org/2000/svg">
 <path d="m168.51 183.08 102.68-178.13 223.8 129-102.68 178.13z"/>
 <path d="m814.32 334.34 15.418-26.75 68.723 39.613-15.418 26.75z"/>
 <path d="m1015.8 434.27-27.035-15.578-34.262 59.449-98.867-56.977 15.938-27.66-368.18-212.2-65.883 114.34 368.17 212.2 15.938-27.648 125.9 72.551z"/>
 <path d="m893.44 1159.9-251.58-710.26c-0.070313-0.21484-0.19141-0.37109-0.26562-0.5625-0.30078-0.81641-0.70703-1.5703-1.1055-2.3516-0.25391-0.49219-0.50391-1.0078-0.78125-1.4531-4.0781-6.6133-11.328-11.051-19.68-11.051-9.0234 0-16.777 5.2188-20.594 12.77-0.16797 0.28906-0.33594 0.5625-0.49219 0.88672-0.14453 0.32422-0.27734 0.64844-0.40625 0.97266-0.10938 0.26562-0.23828 0.50391-0.33594 0.79297l-251.57 710.25c-4.2734 12.059 2.0391 25.297 14.102 29.566 2.5547 0.91016 5.1719 1.332 7.7383 1.332 9.5391 0 18.469-5.9297 21.828-15.434l68.879-194.48h137.7v186.74c0 12.793 10.367 23.172 23.16 23.172 12.793 0 23.172-10.367 23.172-23.172v-186.74h137.7l68.879 194.48c3.3594 9.5039 12.289 15.434 21.828 15.434 2.5664 0 5.1836-0.42187 7.7383-1.332 12.051-4.2617 18.375-17.508 14.094-29.566zm-422.43-212.46 97.559-275.44h28.285v275.44zm172.19 0v-275.44h28.285l97.559 275.44z"/>
</svg>
