<?xml version="1.0" encoding="UTF-8"?>
<svg width="1200pt" height="1200pt" version="1.1" viewBox="0 0 1200 1200" xmlns="http://www.w3.org/2000/svg">
 <path d="m221.05 673.05h142.46v142.48h-142.46z"/>
 <path d="m422.45 673.05h142.49v142.48h-142.49z"/>
 <path d="m623.87 673.05h142.46v142.48h-142.46z"/>
 <path d="m422.45 472.16h142.49v142.46h-142.49z"/>
 <path d="m623.87 472.16h142.46v142.46h-142.46z"/>
 <path d="m221.05 873.96h142.46v142.5h-142.46z"/>
 <path d="m422.45 873.96h142.49v142.5h-142.49z"/>
 <path d="m623.87 873.96h142.46v142.5h-142.46z"/>
 <path d="m825.25 673.05h142.48v142.48h-142.48z"/>
 <path d="m825.25 873.96h142.48v142.5h-142.48z"/>
 <path d="m1177.6 397.13c-7.5977-40.969-41.195-74.879-100.39-112.46-94.129-60.145-233.98-91.285-419.62-93.562-18.719-0.22656-106.37-0.22656-125.09 0-185.64 2.2812-325.49 33.422-419.59 93.562-59.219 37.586-92.82 71.496-100.39 112.46v138.67c0 20.617 10.488 30.863 32.902 30.863h240.75c22.441 0 33.684-10.246 33.684-30.863v-126.67h0.32422c0-28.969 35.387-46.812 106.15-53.688 32.82-3.2266 304.63-3.2266 337.49 0 70.738 6.875 106.13 24.719 106.13 53.688h0.33594v126.67c0 20.617 11.242 30.863 33.648 30.863h240.77c22.441 0 32.914-10.246 32.914-30.863v-138.67z"/>
</svg>
