<?xml version="1.0" encoding="UTF-8"?>
<svg width="1200pt" height="1200pt" version="1.1" viewBox="0 0 1200 1200" xmlns="http://www.w3.org/2000/svg">
 <path d="m533.53 159.46c111.09 0 201.1 90 201.1 201.12 0 111.04-90.012 201.14-201.1 201.14-111.11 0-201.13-90.098-201.13-201.14 0.011718-111.11 90.039-201.12 201.13-201.12z"/>
 <path d="m1184.2 801.35-275.55-420.52c-28.777-43.934-87.742-56.219-131.73-27.445-43.957 28.801-56.258 87.793-27.445 131.75l111.09 169.5-116-45.887c-9.2891-3.6719-11.809-4.6445-24.898-7.0195-12.492-1.7773-21.949-3.1562-33.227-3.1562h-455.85c-133.27-0.011718-230.55 77.102-230.55 213.05v342.28h165.27l0.070313-283.29h48.695v283.29h553.59v-331.38l301.98 119.47c11.375 4.4883 23.23 6.6719 34.98 6.6719 27.984 0 55.297-12.395 73.766-35.051 26.215-32.16 28.543-77.559 5.8398-112.26z"/>
</svg>
