<?xml version="1.0" encoding="UTF-8"?>
<svg width="1200pt" height="1200pt" version="1.1" viewBox="0 0 1200 1200" xmlns="http://www.w3.org/2000/svg">
 <path d="m722.11 198.23c-1.0664-1.8945-23.137-41.102-56.629-62.496-35.746-22.859-93.254-25.621-93.254-25.621l-480.23 0.003906c-35.688 0-64.703 28.969-64.703 64.691 0 35.785 29.004 64.715 64.703 64.715h40.488v30.602h-40.488c-35.688 0-64.703 28.969-64.703 64.68 0 35.746 29.004 64.668 64.703 64.668h40.488v27.301h-40.488c-35.688 0-64.703 28.969-64.703 64.633 0 35.797 29.004 64.715 64.703 64.715h40.488v28.738l-45.18 0.085937c-35.734 0.17969-63.504 30.254-63.277 66.012 0.28906 35.605 29.398 64.488 65.09 64.246l43.355-0.058594 225.5 0.10938c-14.52 102.72-15.254 202.87 4.2617 266.51 25.645 83.363 91.402 182.09 158.98 149.26 56.555-27.406 13.129-91.559 19.945-180.18 12.883-167.32 192.44-333.07 192.44-333.07l443.63 0.68359-0.003906-419.12z"/>
</svg>
