<?xml version="1.0" encoding="UTF-8"?>
<svg width="1200pt" height="1200pt" version="1.1" viewBox="0 0 1200 1200" xmlns="http://www.w3.org/2000/svg">
 <path d="m959.61 186.77c-36.457 0-66.109 29.652-66.109 66.109 0 36.457 29.652 66.168 66.109 66.168 36.406 0 66.168-29.711 66.168-66.168 0-36.445-29.762-66.109-66.168-66.109z"/>
 <path d="m1029.2 801.95v-210.7h53.148l-0.097656-186.7c0-32.699-26.426-59.16-59.027-59.16l-123.13-0.003907c-32.629 0-59.062 26.461-59.062 59.16l-0.19141 186.7h53.664v210.71l-195.57 0.003907v212.99h79.848l0.003906-133.16h410.34v-79.836z"/>
 <path d="m498.54 808.62c26.699-4.1992 48.77-16.512 66.324-36.781 17.652-20.195 26.473-44.23 26.473-71.941v-403.04c0-29.832-10.645-55.391-31.969-76.754-21.422-21.312-47.594-31.934-78.383-31.934l-305.5 0.003906c-31.031 0-57.07 10.609-78.383 31.934-21.312 21.348-31.969 46.922-31.969 76.754v403.03c0 27.719 9.0469 51.996 27.254 72.77 18.086 20.762 39.926 32.746 65.543 35.977l-139.11 206.3h78.277l13.332-19.859 435.56-0.003906 13.367 19.859h78.254zm-51.156-99.984c-28.5 0-51.648-23.125-51.648-51.672 0-28.5 23.148-51.613 51.648-51.613 28.523 0 51.637 23.113 51.637 51.613 0 28.547-23.098 51.672-51.637 51.672zm-315.07-272.66v-128.98c0-14.879 4.8242-27.145 14.41-36.805 9.4805-9.5742 21.742-14.363 36.719-14.363h289.48c14.977 0 27.457 4.8125 37.57 14.363 10.211 9.6602 15.277 21.938 15.277 36.805v128.98c0 14.965-5.0508 27.254-15.277 36.816-10.129 9.5898-22.609 14.316-37.57 14.316h-289.48c-14.977 0-27.254-4.7266-36.719-14.316-9.5898-9.5664-14.414-21.852-14.414-36.816zm25.129 220.99c0-28.5 23.137-51.613 51.648-51.613 28.512 0 51.66 23.113 51.66 51.613 0 28.547-23.148 51.672-51.66 51.672-28.516 0-51.648-23.125-51.648-51.672zm-2.1836 271.46 36.277-54.203h273.42l36.395 54.203z"/>
</svg>
