<?xml version="1.0" encoding="UTF-8"?>
<svg width="1200pt" height="1200pt" version="1.1" viewBox="0 0 1200 1200" xmlns="http://www.w3.org/2000/svg">
 <path d="m627.6 8.3984c-56.398-12-112.8 24-124.8 81.602-12 56.398 24 112.8 81.602 124.8 56.398 12 112.8-24 124.8-81.602 11.996-57.598-24.004-112.8-81.602-124.8z"/>
 <path d="m271.2 1126.8c-14.398-15.602-38.398-16.801-54-2.3984-15.602 14.398-16.801 38.398-2.3984 54 14.398 15.602 38.398 16.801 54 2.3984 15.598-14.402 16.801-38.402 2.3984-54z"/>
 <path d="m108 1126.8c-14.398-15.602-38.398-16.801-54-2.3984-15.602 14.398-16.801 38.398-2.3984 54 14.398 15.602 38.398 16.801 54 2.3984 15.598-14.402 16.797-38.402 2.3984-54z"/>
 <path d="m1036.8 1060.8-171.6-157.2 9.6016-285.6c0-22.801-2.3984-45.602-3.6016-51.602-2.3984-15.602-7.1992-36-10.801-46.801l-72-218.4c-15.602-39.602-52.801-69.602-98.398-73.199-26.398-2.3984-61.199 13.199-79.199 30-1.1992 1.1992-2.3984 2.3984-2.3984 2.3984l-1.1992 1.1992c-1.1992 1.1992-3.6016 3.6016-4.8008 6 0 1.1992-1.1992 1.1992-1.1992 2.3984l-123.6 180-212.4 0.003906c-30 0-55.199 25.199-55.199 55.199 0 22.801 14.398 42 33.602 50.398v146.4l-160.8 0.003906c-22.801 0-42 19.199-42 42v360c26.398-20.398 63.602-18 86.398 7.1992 8.3984 8.3984 13.199 19.199 15.602 30h38.398c2.3984-13.199 8.3984-25.199 19.199-34.801 22.801-21.602 57.602-21.602 81.602-3.6016v-544.8h223.2c18 0 34.801-8.3984 45.602-24l61.199-88.801 51.602 183.6s-145.2 103.2-166.8 117.6c-28.801 19.199-48 43.199-49.199 85.199l1.1992 292.8c0 79.199 120 81.602 120 0l1.1992-274.8 158.4-90v171.6c0 21.602 19.199 37.199 26.398 42l196.8 178.8c73.203 59.996 147.6-37.203 85.203-91.203z"/>
 <path d="m1158 483.6-24-75.602-188.4 63.602-8.3984-25.199 188.4-63.602-75.602-231.6c-22.801-69.602-97.199-106.8-165.6-84-69.602 22.801-106.8 97.199-84 165.6l153.6 463.2c2.3984 7.1992 9.6016 12 16.801 10.801 1.1992 0 6-1.1992 7.1992-2.3984 8.3984-2.3984 13.199-12 10.801-20.398l-19.199-56.398c34.801-10.801 123.6-39.602 132-42 54-16.805 75.598-46.805 56.398-102zm-301.2-258 22.801-7.1992 31.199 91.199 91.199-31.199-30-92.398 22.801-7.1992 37.199 115.2-136.8 46.801z"/>
</svg>
