<?xml version="1.0" encoding="UTF-8"?>
<svg width="1200pt" height="1200pt" version="1.1" viewBox="0 0 1200 1200" xmlns="http://www.w3.org/2000/svg">
 <path d="m971.06 528.36v-448.01c0-56.219-49.754-70.43-75.121-74.09l-594.74 0.23828c-25.922 3.8633-75.047 18.371-75.047 73.871v447.99h-162.73v626.17c0 20.473 16.598 37.105 37.094 37.105h67.5c20.496 0 37.105-16.633 37.105-37.105l-0.003906-133.55h42.648v133.55c0 20.473 16.621 37.105 37.105 37.105h67.512c20.473 0 37.078-16.633 37.078-37.105l-0.46875-134.72h416.34l0.070313 134.72c0 20.473 16.621 37.105 37.105 37.105h69.254c20.508 0 37.105-16.633 37.105-37.105l-0.003907-133.55h42.672v133.55c0 20.473 16.598 37.105 37.117 37.105h67.5c20.496 0 37.078-16.633 37.078-37.105l0.5625-626.17zm-605.07 251.63h-157.49v-70.766h157.49zm-67.895-456.39v-201.36h279.6v201.36zm476.06 456.39h-338.35v-311.43h338.35zm-154.63-456.39v-201.36h279.02v201.36zm369.2 456.39h-155.9v-70.766h155.89v70.766z"/>
 <path d="m106.57 125.57h80.629v244.51h-80.629z"/>
 <path d="m1009.4 125.57h80.652v244.51h-80.652z"/>
</svg>
