<?xml version="1.0" encoding="UTF-8"?>
<svg width="1200pt" height="1200pt" version="1.1" viewBox="0 0 1200 1200" xmlns="http://www.w3.org/2000/svg">
 <path d="m732.85 503.36h-273.05c-5.293 0-9.5898-4.8242-9.5898-10.789 0-5.9531 4.2969-10.789 9.5898-10.789h273.05c5.293 0 9.5898 4.8359 9.5898 10.789s-4.2852 10.789-9.5898 10.789z"/>
 <path d="m151.41 366.07c0 40.707-32.996 73.707-73.703 73.707-40.703 0-73.703-33-73.703-73.707 0-40.703 33-73.703 73.703-73.703 40.707 0 73.703 33 73.703 73.703z"/>
 <path d="m551.34 809.2-137.47-129.59c-8.5195-8.4609-19.703-12.742-33.527-12.742l-148.52-0.003907-58.262-132.74h220.93c21.66 0 39.215-17.555 39.215-39.215s-17.555-39.215-39.215-39.215l-301.18 0.019532c-22.367 0-41.52 7.8008-57.516 23.207-15.984 15.469-23.93 34.309-23.93 56.676 0 6.4336 1.0312 12.805 3.1797 19.176l72.66 168c13.836 31.98 38.328 47.891 73.5 47.891h203.2l118.22 113.64c9.6133 8.4727 21.324 12.781 35.172 12.781 32.953 0 49.523-16.512 49.523-49.547 0.003907-14.867-5.3945-27.695-15.98-38.34z"/>
 <path d="m1190.4 366.07c0 40.707-32.996 73.707-73.703 73.707-40.703 0-73.703-33-73.703-73.707 0-40.703 33-73.703 73.703-73.703 40.707 0 73.703 33 73.703 73.703z"/>
 <path d="m643.07 809.2 137.47-129.59c8.5195-8.4609 19.703-12.742 33.539-12.742h148.51l58.262-132.74h-220.93c-21.66 0-39.227-17.555-39.227-39.215s17.566-39.215 39.227-39.215l301.18 0.023438c22.367 0 41.52 7.8008 57.516 23.207 15.984 15.469 23.93 34.309 23.93 56.676 0 6.4336-1.0547 12.805-3.2031 19.176l-72.648 168c-13.836 31.98-38.34 47.891-73.5 47.891h-203.19l-118.23 113.64c-9.625 8.4727-21.312 12.781-35.172 12.781-32.953 0-49.523-16.512-49.523-49.547 0.011719-14.871 5.4219-27.699 15.992-38.344z"/>
</svg>
