<?xml version="1.0" encoding="UTF-8"?>
<svg width="1200pt" height="1200pt" version="1.1" viewBox="0 0 1200 1200" xmlns="http://www.w3.org/2000/svg">
 <path d="m494.53 326.57-269.41 331.77c-40.922-0.80469-108.28-2.4609-129.32-2.207-118.36 0-118.36 107.62-0.91016 107.62 17.832 0.17969 69.504 1.6094 131.04 1.6328l268.62 321.98h87.961l-161.51-333.58 251.69-9.8984 77.891 103.04 57.059 0.42188s-33.816-94.609-33.504-136.37c0.30078-41.773 30.383-150.39 30.383-150.39l-56.941 1.9688-75.098 109.86-252.05-7.6211 162.01-338.22z"/>
 <path d="m860.09 744.68c-19.129 0-34.523-15.66-34.523-34.512 0-19.141 15.395-34.535 34.523-34.535 19.117 0 34.512 15.395 34.512 34.535 0 18.852-15.398 34.512-34.512 34.512zm104.61-18.852c-14.328 0-27.348-9.0234-32.387-22.297-6.6484-18.086 2.6523-37.992 20.438-44.34 17.258-6.6484 37.98 2.9023 44.34 20.426 3.1914 8.5078 2.6641 17.785-1.0664 26.293-3.9727 8.2305-10.871 14.605-19.379 17.785-3.9766 1.582-7.9609 2.1328-11.945 2.1328zm91.344-53.918c-10.094 0-19.379-4.2461-26.027-11.953-6.1094-6.8867-9.0234-15.91-8.2305-24.949 0.78125-9.3008 5.0391-17.52 11.953-23.652 13.801-11.914 36.648-10.078 48.59 3.7422 6.1094 6.8984 9.0352 15.926 8.2305 24.949-0.78125 9.3008-5.0391 17.785-11.941 23.652-6.375 5.2852-14.352 8.2109-22.574 8.2109zm67.441-82.043c-5.8438 0-11.688-1.5859-16.727-4.2461-16.738-9.2773-22.57-30.516-13.547-46.98 9.0234-15.949 30.805-22.332 47.004-13.273 16.465 9.2773 22.57 30.254 13.262 46.98-6.1016 10.621-17.512 17.52-29.992 17.52zm34.512-100.37c-1.8477 0-3.4453-0.25391-5.293-0.51562-9.2891-1.3203-17.27-6.1211-22.57-13.535-5.5781-7.4414-7.7031-16.754-6.1094-25.777 2.6523-18.301 20.438-31.586 39.289-28.68 18.59 2.9297 31.598 20.461 28.68 39.312-2.6523 16.969-16.992 29.195-33.996 29.195zm-2.375-106.22c-16.465 0-30.539-11.676-33.996-27.613-1.5859-9.0234 0-18.312 5.3164-26.004 5.0391-7.7031 12.742-12.758 21.758-14.605 18.852-3.7305 36.91 8.7461 40.645 27.07 1.8477 8.7617 0 18.047-5.0508 25.754-5.0391 7.7031-13.02 13.02-22.043 14.629-2.3828 0.51562-4.5078 0.76953-6.6289 0.76953zm-39.312-98.773c-11.953 0-22.824-6.1211-29.207-16.211-4.7773-7.9688-6.3594-16.992-4.2461-26.004 2.125-9.0234 7.4414-16.727 15.395-21.516 15.684-9.8281 37.715-4.5117 47.531 11.148 4.7891 7.7031 6.3828 17.004 4.2461 26.027-2.125 9.0234-7.7031 16.727-15.395 21.504-5.5703 3.1914-11.941 5.0508-18.324 5.0508zm-70.883-78.852c-7.7031-0.28906-15.156-2.6758-21.254-7.4414-7.1641-5.5781-11.941-13.824-12.996-22.848-1.0664-9.2773 1.5977-18.301 7.1758-25.488 11.148-14.605 33.719-17.531 48.312-6.0977 0.26562 0.25391 0.52734 0.51562 0.52734 0.51562 6.9102 5.5781 11.426 13.535 12.492 22.586 1.0664 9.0234-1.332 18.047-7.1758 25.488-6.3711 8.2344-16.465 13.285-27.082 13.285zm-94.008-49.656c-3.4453 0-6.8984-0.53906-10.355-1.6094-8.7461-2.9023-15.926-9.0234-20.172-16.992-4.2461-8.2188-5.0625-17.531-2.1367-26.27 5.5781-17.809 25.5-28.164 43.285-22.586 18.059 5.832 28.152 25.234 22.297 43.273-4.5039 14.355-17.777 24.184-32.918 24.184zm-105.14-14.34c-18.852 0-34.535-15.406-34.535-34.246 0-19.141 15.684-34.535 34.535-34.535 19.105 0 34.512 15.406 34.512 34.535 0 18.84-15.41 34.246-34.512 34.246zm-106.74 0c-19.129 0-34.523-15.406-34.523-34.246 0-19.141 15.395-34.535 34.523-34.535 19.117 0 34.512 15.406 34.512 34.535 0 18.84-15.395 34.246-34.512 34.246zm-106.75 0c-19.129 0-34.523-15.406-34.523-34.246 0-19.141 15.406-34.535 34.523-34.535 18.852 0 34.512 15.406 34.512 34.535 0 18.84-15.648 34.246-34.512 34.246zm-106.74 0c-19.129 0-34.523-15.406-34.523-34.246 0-19.141 15.395-34.535 34.523-34.535 18.852 0 34.512 15.406 34.512 34.535 0 18.84-15.66 34.246-34.512 34.246zm-106.74 0c-19.129 0-34.523-15.406-34.523-34.246 0-19.141 15.406-34.535 34.523-34.535 18.852 0 34.246 15.406 34.246 34.535 0 18.84-15.395 34.246-34.246 34.246zm-106.75 0c-19.129 0-34.523-15.406-34.523-34.246 0-19.141 15.406-34.535 34.523-34.535 18.852 0 34.246 15.406 34.246 34.535 0.015625 18.84-15.395 34.246-34.246 34.246z"/>
</svg>
