<?xml version="1.0" encoding="UTF-8"?>
<svg width="1200pt" height="1200pt" version="1.1" viewBox="0 0 1200 1200" xmlns="http://www.w3.org/2000/svg">
 <path d="m842.24 792.06c0-18.238 14.676-32.914 32.902-32.914 18.215 0 32.891 14.676 32.891 32.914 0 18.215-14.676 32.891-32.891 32.891-18.211 0.003906-32.902-14.672-32.902-32.891zm101.74-6.3242c-6.3242-16.98 2.293-35.965 19.488-42.289 16.957-6.3242 35.93 2.543 42.266 19.5 6.0859 16.957-2.5195 35.93-19.488 42.266-3.793 1.2617-7.5859 2.0273-11.375 2.0273-13.43-0.011719-26.078-8.3633-30.891-21.504zm93.133-41.52c-11.902-13.668-10.117-34.402 3.5508-46.309 13.656-11.641 34.414-10.105 46.297 3.5625 11.902 13.906 10.129 34.668-3.5391 46.309-6.0859 5.3164-13.934 8.0742-21.266 8.0742-9.3477 0.003907-18.469-4.0508-25.043-11.637zm72.887-70.859c-15.695-8.8438-21.516-28.836-12.648-44.785 8.8555-15.961 28.848-21.527 44.797-12.648 15.938 8.8438 21.516 28.836 12.648 44.785-6.0703 10.633-17.207 16.703-28.598 16.703-5.5781 0-11.137-1.2578-16.199-4.0547zm44.039-91.859c-17.965-3.0352-30.371-19.754-27.59-37.465 2.7969-17.965 19.754-30.348 37.715-27.574 17.711 2.7969 30.109 19.5 27.336 37.465-2.5312 16.188-16.465 27.828-32.398 27.828-1.7734-0.003906-3.2969-0.003906-5.0625-0.25391zm-29.629-127.3c-3.5391-17.723 8.1133-35.172 25.812-38.723 17.723-3.5391 35.184 8.1133 38.723 25.824 3.5508 17.723-7.8477 35.172-25.812 38.723-2.0273 0.25391-4.2969 0.49219-6.5898 0.49219-15.164 0-28.832-10.633-32.133-26.316zm-32.891-83.266c-9.6133-15.422-4.8125-35.688 10.633-45.301 15.434-9.3711 35.688-4.8008 45.301 10.633 9.3711 15.445 4.8125 35.688-10.633 45.301-5.5664 3.2891-11.387 4.8242-17.461 4.8242-10.883-0.015625-21.516-5.3203-27.84-15.457zm-59.977-66.793c-14.172-11.148-16.691-31.883-5.5547-46.066 11.137-14.438 31.883-16.957 46.055-5.5547 14.426 11.125 16.957 31.633 5.8203 46.066-6.5742 8.3281-16.199 12.648-26.062 12.648-7.0938-0.003906-14.184-2.3047-20.258-7.0938zm-79.211-41.773c-17.207-5.5547-26.832-24.047-21.254-41.242 5.5547-17.449 24.035-27.086 41.242-21.504 17.207 5.5547 26.832 24.047 21.254 41.242-4.2969 14.16-17.195 23.027-31.379 23.027-3.2734 0.011719-6.5742-0.51562-9.8633-1.5234zm-123.24-44.781c0-18.238 14.676-32.891 32.902-32.891 18.215 0 32.891 14.652 32.891 32.891 0 17.965-14.676 32.891-32.891 32.891-18.227 0-32.902-14.918-32.902-32.891zm-101.74 0c0-18.238 14.676-32.891 32.902-32.891 18.215 0 32.891 14.652 32.891 32.891 0 17.965-14.676 32.891-32.891 32.891-18.227 0-32.902-14.918-32.902-32.891zm-101.73 0c0-18.238 14.676-32.891 32.902-32.891 17.965 0 32.891 14.652 32.891 32.891 0 17.965-14.93 32.891-32.891 32.891-18.227 0-32.902-14.918-32.902-32.891zm-101.74 0c0-18.238 14.676-32.891 32.902-32.891 17.965 0 32.891 14.652 32.891 32.891 0 17.965-14.93 32.891-32.891 32.891-18.227 0-32.902-14.918-32.902-32.891zm-101.73 0c0-18.238 14.676-32.891 32.652-32.891 18.227 0 32.902 14.652 32.902 32.891 0 17.965-14.676 32.891-32.902 32.891-17.965 0-32.652-14.918-32.652-32.891zm-101.72 0c0-18.238 14.676-32.891 32.652-32.891 18.227 0 32.902 14.652 32.902 32.891 0 17.965-14.676 32.891-32.902 32.891-17.977 0-32.652-14.918-32.652-32.891z"/>
 <path d="m684.97 625.85h-375.46v-60.406h-17.82l-33.648 60.406h-147.67c-54.395 0-98.891 44.508-98.891 98.902v120.64c0 54.395 44.508 98.902 98.891 98.902h147.67l33.648 60.406h17.82v-60.414h375.46c54.395 0 98.902-44.508 98.902-98.902v-120.62c-0.011719-54.398-44.52-98.906-98.902-98.906zm-334.08 266.06-129 26.449c-21.73-38.844-34.488-84.383-34.488-133.3 0-48.91 12.758-94.465 34.488-133.3l129 26.449c-13.703 32.52-21.492 68.664-21.492 106.85 0.011718 38.199 7.8008 74.328 21.492 106.85zm342.27 16.141-85.344-9.2383c8.4375-33.926 13.234-71.594 13.234-111.39 0-39.133-4.6797-76.141-12.852-109.61l85.414-9.2383c9.6836 35.809 15.277 76.066 15.277 118.85 0.011719 43.484-5.7461 84.383-15.73 120.63z"/>
</svg>
