<?xml version="1.0" encoding="UTF-8"?>
<svg width="1200pt" height="1200pt" version="1.1" viewBox="0 0 1200 1200" xmlns="http://www.w3.org/2000/svg">
 <path d="m468 877.2c-54-30-115.2-38.398-169.2-22.801-45.602 13.199-81.602 43.199-102 82.801-14.398 27.602-20.398 58.801-18 91.199 1.1992 15.602 14.398 27.602 30 26.398 15.602-1.1992 27.602-14.398 26.398-30-1.1992-21.602 2.3984-43.199 12-61.199 14.398-26.398 37.199-45.602 68.398-55.199 39.602-12 85.199-4.8008 126 18 68.398 38.398 92.398 124.8 54 194.4-7.1992 13.199-2.3984 31.199 10.801 38.398 4.8008 2.3984 8.3984 3.6016 13.199 3.6016 9.6016 0 19.199-4.8008 25.199-14.398 52.805-97.199 19.203-216-76.797-271.2z"/>
 <path d="m1040.4 764.4c0-28.801-8.3984-57.602-25.199-84-26.398-39.602-68.398-67.199-116.4-75.602-80.398-14.398-139.2 22.801-176.4 54-15.602-49.199-49.199-88.801-99.602-114-61.199-31.199-123.6-34.801-182.4-9.6016-60 26.398-110.4 81.602-140.4 152.4-32.398-24-76.801-49.199-117.6-51.602-52.801-2.3984-99.602 16.801-132 52.801-37.199 42-51.602 103.2-39.602 168 2.3984 15.602 16.801 25.199 32.398 22.801 15.602-2.3984 25.199-16.801 22.801-32.398-8.3984-48 1.1992-91.199 26.398-120 20.398-24 51.602-36 86.398-33.602 31.199 1.1992 82.801 33.602 112.8 63.602 7.1992 7.1992 16.801 9.6016 26.398 7.1992 9.6016-2.3984 16.801-9.6016 20.398-19.199 20.398-73.199 67.199-132 122.4-156 43.199-19.199 87.602-15.602 134.4 7.1992 108 55.199 81.602 172.8 57.602 237.6-2.3984 4.8008-3.6016 8.3984-3.6016 13.199 0 7.1992 2.3984 15.602 8.3984 20.398 4.8008 6 12 8.3984 20.398 8.3984 79.199 0 130.8 48 130.8 123.6 0 56.398-22.801 75.602-44.398 90-13.199 8.3984-16.801 26.398-7.1992 39.602 6 8.3984 14.398 12 24 12 4.8008 0 10.801-1.1992 15.602-4.8008 32.398-21.602 69.602-56.398 69.602-136.8 0-94.801-58.801-162-148.8-176.4 9.6016-33.602 14.398-66 14.398-96l4.8008-4.8008c30-27.602 79.199-73.199 150-61.199 33.602 6 62.398 25.199 79.199 51.602 14.398 22.801 19.199 48 14.398 73.199-2.3984 8.3984 0 16.801 4.8008 24 4.8008 7.1992 13.199 10.801 21.602 10.801 72 0 120 38.398 121.2 98.398 1.1992 37.199-10.801 69.602-32.398 92.398-20.398 20.398-49.199 31.199-80.398 31.199-19.199 0-37.199-4.8008-52.801-14.398-13.199-8.3984-31.199-3.6016-38.398 10.801-8.3984 13.199-3.6016 31.199 10.801 38.398 24 14.398 52.801 21.602 80.398 22.801h3.6016c45.602 0 87.602-16.801 117.6-48 33.602-33.602 50.398-80.398 49.199-133.2-1.1992-83.996-59.996-142.8-145.2-154.8z"/>
 <path d="m550.8 170.4c54 0 106.8 1.1992 154.8 4.8008-25.199-57.602-88.801-97.199-164.4-97.199-75.602 0-140.4 40.801-164.4 99.602 53.996-6 112.8-7.2031 174-7.2031z"/>
 <path d="m550.8 202.8c-277.2 0-501.6 44.398-501.6 99.602 0 55.199 224.4 99.602 501.6 99.602 277.2 0 501.6-44.398 501.6-99.602-0.003906-55.203-225.6-99.602-501.6-99.602zm2.3984 148.8c-49.199 0-88.801-8.3984-88.801-18 0-9.6016 39.602-18 88.801-18s88.801 8.3984 88.801 18c0 9.5977-39.602 18-88.801 18z"/>
</svg>
