<?xml version="1.0" encoding="UTF-8"?>
<svg width="1200pt" height="1200pt" version="1.1" viewBox="0 0 1200 1200" xmlns="http://www.w3.org/2000/svg">
 <path d="m326.5 414.42c-11.438 0-20.734-9.2891-20.734-20.723 0-11.438 9.2891-20.723 20.734-20.723 11.449 0 20.723 9.2891 20.723 20.723 0 11.434-9.2852 20.723-20.723 20.723zm0-66.324c-11.438 0-20.734-9.2773-20.734-20.723 0-11.449 9.2891-20.723 20.734-20.723 11.449 0 20.723 9.2891 20.723 20.723s-9.2852 20.723-20.723 20.723zm0-66.324c-11.438 0-20.734-9.2773-20.734-20.723 0-11.449 9.2891-20.723 20.734-20.723 11.449 0 20.723 9.2773 20.723 20.723 0 11.445-9.2852 20.723-20.723 20.723zm0-66.312c-11.438 0-20.734-9.2773-20.734-20.723 0-11.449 9.2891-20.723 20.734-20.723 11.449 0 20.723 9.2773 20.723 20.723 0 11.445-9.2852 20.723-20.723 20.723z"/>
 <path d="m420.42 352.25c-11.438 0-20.723-9.2891-20.723-20.723 0-11.438 9.2891-20.723 20.723-20.723 11.438 0 20.723 9.2891 20.723 20.723 0 11.438-9.2891 20.723-20.723 20.723zm0-66.32c-11.438 0-20.723-9.2891-20.723-20.723 0-11.449 9.2891-20.734 20.723-20.734 11.438 0 20.723 9.2891 20.723 20.734 0 11.434-9.2891 20.723-20.723 20.723zm0-66.312c-11.438 0-20.723-9.2891-20.723-20.723 0-11.449 9.2891-20.734 20.723-20.734 11.438 0 20.723 9.2891 20.723 20.734 0 11.434-9.2891 20.723-20.723 20.723zm0-66.324c-11.438 0-20.723-9.2891-20.723-20.723 0-11.449 9.2891-20.734 20.723-20.734 11.438 0 20.723 9.2891 20.723 20.734 0 11.434-9.2891 20.723-20.723 20.723z"/>
 <path d="m514.41 317.91c-11.449 0-20.723-9.2891-20.723-20.723 0-11.363 9.2773-20.723 20.723-20.723 11.352 0 20.723 9.3594 20.723 20.723 0.003906 11.438-9.3672 20.723-20.723 20.723zm0-66.309c-11.449 0-20.723-9.2891-20.723-20.723 0-11.363 9.2773-20.734 20.723-20.734 11.352 0 20.723 9.3594 20.723 20.734 0.003906 11.434-9.3672 20.723-20.723 20.723zm0-66.324c-11.449 0-20.723-9.2891-20.723-20.723 0-11.363 9.2773-20.734 20.723-20.734 11.352 0 20.723 9.3711 20.723 20.734 0.003906 11.445-9.3672 20.723-20.723 20.723zm0-66.312c-11.449 0-20.723-9.2891-20.723-20.723 0-11.363 9.2773-20.734 20.723-20.734 11.352 0 20.723 9.3711 20.723 20.734 0.003906 11.434-9.3672 20.723-20.723 20.723zm0-66.23c-11.449 0-20.723-9.3711-20.723-20.809 0-11.363 9.2773-20.734 20.723-20.734 11.352 0 20.723 9.3711 20.723 20.734 0.003906 11.438-9.3672 20.809-20.723 20.809z"/>
 <path d="m608.34 274.23c-11.449 0-20.723-9.2773-20.723-20.723 0-11.449 9.2773-20.723 20.723-20.723 11.449 0 20.723 9.2773 20.723 20.723 0 11.449-9.2852 20.723-20.723 20.723zm0-66.309c-11.449 0-20.723-9.2773-20.723-20.723 0-11.438 9.2773-20.723 20.723-20.723 11.449 0 20.723 9.2773 20.723 20.723 0 11.434-9.2852 20.723-20.723 20.723zm0-66.324c-11.449 0-20.723-9.2773-20.723-20.723 0-11.438 9.2773-20.723 20.723-20.723 11.449 0 20.723 9.2773 20.723 20.723 0 11.445-9.2852 20.723-20.723 20.723zm0-66.312c-11.449 0-20.723-9.2773-20.723-20.723 0-11.438 9.2773-20.723 20.723-20.723 11.449 0 20.723 9.2773 20.723 20.723 0 11.434-9.2852 20.723-20.723 20.723z"/>
 <path d="m702.25 323.89c-11.438 0-20.723-9.2891-20.723-20.723 0-11.449 9.2773-20.723 20.723-20.723 11.449 0 20.734 9.2773 20.734 20.723 0 11.438-9.2891 20.723-20.734 20.723zm0-66.312c-11.438 0-20.723-9.2891-20.723-20.723 0-11.363 9.2773-20.723 20.723-20.723 11.449 0 20.734 9.3594 20.734 20.723 0 11.438-9.2891 20.723-20.734 20.723zm0-66.32c-11.438 0-20.723-9.2773-20.723-20.723 0-11.449 9.2773-20.723 20.723-20.723 11.449 0 20.734 9.2773 20.734 20.723 0 11.445-9.2891 20.723-20.734 20.723zm0-66.312c-11.438 0-20.723-9.2773-20.723-20.723 0-11.449 9.2773-20.723 20.723-20.723 11.449 0 20.734 9.2773 20.734 20.723 0 11.434-9.2891 20.723-20.734 20.723z"/>
 <path d="m796.27 361.95c-11.449 0-20.734-9.2891-20.734-20.734 0-11.438 9.2773-20.723 20.734-20.723 11.34 0 20.723 9.2891 20.723 20.723 0 11.445-9.3711 20.734-20.723 20.734zm0-66.312c-11.449 0-20.734-9.2891-20.734-20.723 0-11.438 9.2773-20.734 20.734-20.734 11.34 0 20.723 9.2891 20.723 20.734 0 11.422-9.3711 20.723-20.723 20.723zm0-66.324c-11.449 0-20.734-9.2891-20.734-20.723 0-11.438 9.2773-20.734 20.734-20.734 11.34 0 20.723 9.2891 20.723 20.734 0 11.434-9.3711 20.723-20.723 20.723zm0-66.312c-11.449 0-20.734-9.2891-20.734-20.723 0-11.438 9.2773-20.734 20.734-20.734 11.34 0 20.723 9.2891 20.723 20.734 0 11.434-9.3711 20.723-20.723 20.723zm0-66.312c-11.449 0-20.734-9.2891-20.734-20.723 0-11.449 9.2773-20.734 20.734-20.734 11.34 0 20.723 9.2891 20.723 20.734 0 11.422-9.3711 20.723-20.723 20.723z"/>
 <path d="m890.18 424.78c-11.438 0-20.734-9.2773-20.734-20.723 0-11.449 9.2891-20.734 20.734-20.734 11.449 0 20.734 9.2891 20.734 20.734-0.011719 11.445-9.2969 20.723-20.734 20.723zm0-66.312c-11.438 0-20.734-9.2773-20.734-20.723 0-11.449 9.2891-20.734 20.734-20.734 11.449 0 20.734 9.2891 20.734 20.734-0.011719 11.434-9.2969 20.723-20.734 20.723zm0-66.324c-11.438 0-20.734-9.2773-20.734-20.723 0-11.449 9.2891-20.734 20.734-20.734 11.449 0 20.734 9.2891 20.734 20.734-0.011719 11.445-9.2969 20.723-20.734 20.723zm0-66.312c-11.438 0-20.734-9.2773-20.734-20.723 0-11.449 9.2891-20.723 20.734-20.723 11.449 0 20.734 9.2773 20.734 20.723-0.011719 11.434-9.2969 20.723-20.734 20.723z"/>
 <path d="m758.54 712.04c-6.625 7.6328-17.398 14.652-31.246 14.652-16.285 0-28.402-10.297-34.344-19.969l-1.9219-3.7188c-12.73-29.664-39.168-50.594-70.246-57.012v171.35h-24.863v-173.27c-37.645 1.7383-71.004 24.445-85.812 58.934l-0.89844 1.8828c-5.293 10.234-18 22.176-36.434 22.176-10.691 0-19.391-4.4141-25.801-10.176v118.11c0 17.016 12.18 25.777 24.828 26.449v0.26563l145.05-0.085938v24.852h-93.77l-0.046875 274.16c0 18.371 14.902 33.277 33.289 33.277 18.406 0 33.301-14.902 33.301-33.277l0.011719-230.91h24.828l0.011719 230.91c0 18.371 14.891 33.277 33.301 33.277 18.371 0 33.266-14.902 33.266-33.277l-0.035156-415.97h21.852v176.75c0 35.438 55.766 35.438 55.766 0l-0.003906-207.67c0.023438-0.5625-0.0625-1.125-0.085937-1.7031zm-235.46 100.21h-23.34v-67.43l23.352-0.16797z"/>
 <path d="m969.78 662.48c-34.621-161.54-174.18-284.68-344.88-296.26v-46.488c0-9.1562-7.4023-16.586-16.57-16.586-9.1562 0-16.57 7.4297-16.57 16.586v45.66c-178.68 3.1445-327.11 128.34-363.86 294.9 0 0-1.4648 7.6094 6.6836 9.625 5.8203 1.4414 10.5-5.4258 10.5-5.4258 23.23-30.133 59.844-49.621 101.11-49.621 52.633 0 97.789 31.609 117.13 76.68 0 0 3.2656 6.4922 9.457 6.4922 7.2969 0 10.668-6.4922 10.668-6.4922 19.344-45.07 64.5-76.68 117.12-76.68 52.633 0 97.777 31.609 117.13 76.68 0 0 3.7422 6.1211 9.6133 6.1211 6.8984 0 10.512-6.1211 10.512-6.1211 19.332-45.07 64.488-76.68 117.13-76.68 41.773 0 76.715 19.223 99.875 50.004 0 0 5.6172 6.5391 10.934 5.0391 5.0508-1.4336 4.0078-7.4336 4.0078-7.4336z"/>
</svg>
