<?xml version="1.0" encoding="UTF-8"?>
<svg width="1200pt" height="1200pt" version="1.1" viewBox="0 0 1200 1200" xmlns="http://www.w3.org/2000/svg">
 <path d="m560.52 21.996c-42.406 19.297-62.879 70.859-42.887 114.76 20.039 44.102 72.973 63.793 115.38 44.484 43.992-20.016 63.816-72.852 43.754-116.91-19.934-43.926-72.242-62.367-116.25-42.328z"/>
 <path d="m989.14 207.43h-770.69c-22.188 0-40.188 17.988-40.188 40.188 0 22.188 18 40.188 40.188 40.188h283.64l-67.273 211.82c-5.1484 14.051-5.8906 32.016-3.2656 41.148l9.5625 33.254h-31.5c-15.48 0-28.031 12.551-28.031 28.031 0 15.492 12.562 28.043 28.031 28.043h47.594l38.449 133.75c-72.672 36.457-122.8 111.54-122.8 198.29 0 122.26 101.54 225.53 221.72 225.53 124.33 0 225.49-101.16 225.49-225.53 0-76.297-39.359-143.7-99.109-183.66 0 0 97.738-173 97.824-173.24 2.0742-3.793 3.8398-7.8008 4.8711-12.227 6.3242-26.578-10.094-53.242-36.648-59.543l-170.21-40.453s44.172-72.324 59.617-148.56c4.5-22.117 2.5195-42.781-1.1172-56.676h313.79c22.188 0 40.176-18 40.176-40.188 0.027343-22.184-17.961-40.172-40.137-40.172zm-230.87 754.71c0 90.266-73.441 163.71-163.68 163.71-86.664 0-159.91-74.953-159.91-163.71 0-57.266 32.016-108.54 78.648-136.86l48.562 168.98c6.8516 23.242 28.488 35.797 47.496 35.797 4.0312 0 8.1484-0.49219 12.254-1.5352 26.461-6.7422 42.445-33.684 35.723-60.156l-20.102-78.852c14.004-2.4961 26.902-10.633 34.441-23.953l18.648-32.977c41.059 29.133 67.918 76.281 67.918 129.55zm-67.5-331.11-63.289 111.84c-9.2539-1.3203-18.613-2.1953-28.176-2.375l-27.887-109.46z"/>
</svg>
