<?xml version="1.0" encoding="UTF-8"?>
<svg width="1200pt" height="1200pt" version="1.1" viewBox="0 0 1200 1200" xmlns="http://www.w3.org/2000/svg">
 <path d="m176.5 315.73 188.8-76.414 76.414 188.8-188.8 76.414z"/>
 <path d="m265.13 10.305 201.85 27.168-27.172 201.86-201.85-27.168z"/>
 <path d="m622.22 628.44c39.098-7.8242 64.57-46.32 56.652-85.871-7.9688-39.648-46.234-65.281-85.367-57.434-39.191 7.8477-64.523 46.211-56.605 85.836 7.8984 39.527 46.105 65.316 85.32 57.469"/>
 <path d="m867.86 427.31h202.55v202.54h-202.55z"/>
 <path d="m781.59 221.7 200.02-31.922 31.918 200-200.02 31.922z"/>
 <path d="m943.55 643.61h-515.89v-137.65c0-20.16-16.344-36.504-36.504-36.504-20.172 0-36.516 16.344-36.516 36.504v174.17c0 20.16 16.344 36.504 36.516 36.504h143.88l-320.72 385.11c-0.46875 0.5625-0.67188 1.0781-1.0938 1.6445-1.0664 1.4023-2.0273 2.8555-2.9141 4.3672-0.27734 0.50391-0.60156 1.0195-0.82812 1.5234-8.9648 16.68-6.8047 37.824 7.0664 52.152 8.7617 9.0586 20.438 13.609 32.125 13.609 11.184 0 22.391-4.1875 31.066-12.59l218.76-211.4 145.04 42.312v151.74c0 24.695 20.004 44.711 44.688 44.711 24.695 0 44.699-20.016 44.699-44.711l0.003906-185.27c0-16.621-9.2266-31.859-23.93-39.59l-115.81-60.719 71.629-69.238c22.152-22.141 38.879-51.266 42.863-73.68h235.86c20.172 0 36.516-16.344 36.516-36.504 0.011719-20.148-16.332-36.492-36.504-36.492z"/>
</svg>
