<?xml version="1.0" encoding="UTF-8"?>
<svg width="1200pt" height="1200pt" version="1.1" viewBox="0 0 1200 1200" xmlns="http://www.w3.org/2000/svg">
 <path d="m734.2 908.29v-201.65h-181.5v-195.88h-181.5v-201.67h-181.5v-201.66h-181.49v1002.5h907.48v-201.67z"/>
 <path d="m1185.1 208.71c-0.14453 43.32-35.305 78.516-78.742 78.719-43.43-0.20312-78.648-35.398-78.719-78.719 0.070313-43.57 35.281-78.73 78.719-78.66 43.426-0.070313 78.598 35.078 78.742 78.66z"/>
 <path d="m1008.1 565.46s-16.859-118.75 29.844-190.38c29.137-44.641 54.422-60.348 59.746-63.348 34.402-24.156 90-4.9805 89.891 57.719v291.46c0.097657 56.988-73.332 57.551-73.332 0l0.003907-238.26h-28.211v238.25c0 53.398 32.762 71.375 65.09 71.375 0 0 24.551-0.17969 35.809-17.051l-0.72656 361.66c0.023437 23.328-21.266 42.254-47.664 42.312-26.387 0-47.711-18.887-47.762-42.238l-82.688-511.49"/>
</svg>
