<?xml version="1.0" encoding="UTF-8"?>
<svg width="1200pt" height="1200pt" version="1.1" viewBox="0 0 1200 1200" xmlns="http://www.w3.org/2000/svg">
 <path d="m1199.7 389.07h-115.36l-24.301-184.32s-12.301-104.95-24.742-118.15c-15.551-16.488-34.848-18.168-34.848-18.168h-799.52s-19.285 1.6797-34.848 18.168c-12.434 13.199-24.758 118.15-24.758 118.15l-24.312 184.32h-114.23v178.82l88.754 14.23-11.605 87.973v486.97c0 22.859 18.539 41.449 41.438 41.449h75.422c22.922 0 41.473-18.59 41.473-41.449v-115.22h724.89v115.22c0 22.859 18.539 41.449 41.438 41.449h75.434c22.895 0 41.438-18.59 41.438-41.449v-486.97l-11.578-87.781 89.844-14.41-0.011719-178.84zm-962.1 450.55c-40.211 0-72.793-32.566-72.793-72.781 0-40.199 32.594-72.781 72.793-72.781 40.188 0 72.781 32.594 72.781 72.781 0 40.211-32.578 72.781-72.781 72.781zm583.26-8.8555h-443.91v-47.797h444.16zm0.37109-77.199h-444.28v-47.797h444.5zm141.94 86.055c-40.199 0-72.781-32.566-72.781-72.781 0-40.199 32.594-72.781 72.781-72.781s72.793 32.594 72.793 72.781c-0.003906 40.211-32.605 72.781-72.793 72.781zm-805-319.74 33.434-296.2h814.32l37.211 296.2z"/>
</svg>
