<?xml version="1.0" encoding="UTF-8"?>
<svg width="1200pt" height="1200pt" version="1.1" viewBox="0 0 1200 1200" xmlns="http://www.w3.org/2000/svg">
 <path d="m809.24 1161.7-31.754-81.266h36.648l-185.16-465.14c-3.3242-8.3516-11.23-13.547-19.691-13.836l-0.12109-0.33594h-74.832l0.16797 0.40625c-2.4727 0.085937-4.957 0.50391-7.3789 1.4648-7.2344 2.8789-12.035 9.1797-13.414 16.297l-215.46 540.79c-4.5 11.258 0.99609 24.07 12.266 28.586 2.6758 1.0547 5.4375 1.5469 8.1484 1.5469 8.7344 0 16.992-5.2305 20.438-13.836l37.945-95.93h39.324l121.31-304.74v392.41c0 12.156 9.8398 21.996 21.996 21.996 12.145 0 21.996-9.8398 21.996-21.996l-0.003907-368.59 111.83 280.91h36.648l38.242 97.535c3.4336 8.6289 11.711 13.859 20.438 13.859 2.7109 0 5.4727-0.50391 8.1367-1.5859 11.277-4.4805 16.785-17.25 12.285-28.531zm-114.13-196.12-97.297-244.4h25.969l97.285 244.4z"/>
 <path d="m518.02 184.93c17.676 52.199 66.961 89.82 125.1 89.82 72.973 0 132.16-59.184 132.16-132.19 0-72.973-59.184-132.16-132.16-132.16-58.141 0-107.43 37.633-125.1 89.809-17.676-52.176-66.961-89.809-125.1-89.809-72.973 0-132.16 59.184-132.16 132.16 0 72.996 59.184 132.19 132.16 132.19 58.141 0 107.43-37.621 125.1-89.82z"/>
 <path d="m643.12 274.75h-263.59v46.355h-116.39v45.816h116.39v138.01h161.19c-10.152 8.2578-16.766 20.688-16.766 34.789 0 4.9453 0.98438 9.6133 2.4609 14.051h-263.28v31.008h304.26v-0.15625c0.53906 0.011719 1.0547 0.15625 1.5977 0.15625 24.875 0 45.047-20.184 45.047-45.059 0-14.102-6.6133-26.531-16.766-34.789h121v-91.68h56.977v-138.5zm4.8828 158.06h-81.527v-68.449h81.527z"/>
 <path d="m793.77 325.79v32.59l150.3 67.742v-168.06z"/>
</svg>
