<?xml version="1.0" encoding="UTF-8"?>
<svg width="1200pt" height="1200pt" version="1.1" viewBox="0 0 1200 1200" xmlns="http://www.w3.org/2000/svg">
 <path d="m10.43 1087.8h1096.1l-0.003906-46.824h-292.95l100.07-102.98-250.09-241.52 524.82-578.65h-337.52l-178.5 113.61h-263.6c-17.566-0.26562-31.812 8.125-40.992 21.516l-122.7 160.91c-5.7227 7.5703-15.434 29.125-7.8711 49.211 0 0 3.3711 12.371 8.5664 31.523l104.55-127.15c5.6055-6.8633 15.719-7.8477 22.586-2.1953 3.8984 3.1797 5.8906 7.7656 5.8906 12.395 0 3.6133-1.2109 7.2344-3.6953 10.211l-118.85 144.56c20.387 73.691 51.562 184.29 64.535 220.13l-136.21 140.2 153.52 148.25h-327.68zm389.39-607.07c26.688-22.105 61.559-31.883 98.207-27.613 53.688 6.3242 97.246 48.504 105.88 102.48 4.1055 25.98 0.35937 45.695-13.523 70.188l-75.551-72.973-47.102 48.48-72.816-115.64c1.7305-1.6094 3.0977-3.4453 4.9102-4.918zm10.98 173.39c0.73047 1.1641 1.5352 2.2695 2.3867 3.3242l-21.457 22.078c-14.52-42.145-27.359-84.023-31.824-106.23zm-162.68 237.6 267.72-275.57 48.91 47.23c-9.6719 12.695-21.098 26.914-34.703 43.645l-6.8984 8.4844c-15.887 19.633-12.875 48.371 6.6602 64.246 19.598 15.887 48.359 12.949 64.297-6.6602l39.336-43.367 216.73 209.28-99.086 101.96h-348.41z"/>
</svg>
