<?xml version="1.0" encoding="UTF-8"?>
<svg width="1200pt" height="1200pt" version="1.1" viewBox="0 0 1200 1200" xmlns="http://www.w3.org/2000/svg">
 <path d="m994.23 457.52v153.8c0 9.9102 25.586 9.9102 25.586 0v-89.316c0-61.211 90.742-61.211 90.742 0v673.92h-386.96v-129.18s-183.96-118.02-183.96-188.14v-354.39c0-71.004 99.805-74.316 99.805 0v204.24c0 10.715 28.883 10.715 28.883 0v-571.16c0-61.043 91.57-61.043 91.57 0v454.02c0 9.9102 25.586 9.9102 25.586 0v-209.81c0-61.152 91.559-61.152 91.559 0v209.81c0 9.9102 25.57 9.9102 25.57 0l0.003907-153.8c0-61.223 91.617-61.223 91.617 0z"/>
 <path d="m610 257.44c-8.5312 0-16.906-4.1055-22.02-11.688-16.883-24.996-25.812-54.191-25.812-84.469 0-83.281 67.766-151.04 151.02-151.04 83.281 0 151.04 67.766 151.04 151.04 0 29.34-8.4258 57.84-24.406 82.391-8.0508 12.289-24.48 15.77-36.758 7.7539-12.289-8.0156-15.758-24.445-7.7539-36.758 10.344-15.898 15.828-34.344 15.828-53.387 0-54-43.934-97.934-97.945-97.934-53.977 0-97.906 43.945-97.906 97.934 0 19.633 5.7734 38.566 16.715 54.719 8.1836 12.168 5.0273 28.668-7.1406 36.887-4.5781 3.0742-9.75 4.5508-14.863 4.5508z"/>
 <path d="m1017.9 201.43c-52.078 0-94.465-42.383-94.465-94.5 0-52.078 42.383-94.477 94.465-94.477 52.094 0 94.5 42.383 94.5 94.477 0 52.113-42.406 94.5-94.5 94.5zm0-137.51c-23.723 0-43.02 19.297-43.02 43.008 0 23.746 19.297 43.031 43.02 43.031 23.746 0 43.043-19.297 43.043-43.031 0-23.715-19.293-43.008-43.043-43.008z"/>
 <path d="m414.14 201.43c-52.094 0-94.477-42.383-94.477-94.5 0-52.078 42.371-94.477 94.477-94.477 52.094 0 94.488 42.383 94.488 94.477 0 52.113-42.398 94.5-94.488 94.5zm0-137.51c-23.723 0-43.02 19.297-43.02 43.008 0 23.746 19.297 43.031 43.02 43.031 23.734 0 43.02-19.297 43.02-43.031 0.011719-23.715-19.285-43.008-43.02-43.008z"/>
 <path d="m156.5 201.43c-52.105 0-94.477-42.383-94.477-94.5 0-52.078 42.371-94.477 94.477-94.477 52.094 0 94.488 42.383 94.488 94.477 0 52.113-42.395 94.5-94.488 94.5zm0-137.51c-23.723 0-43.008 19.297-43.008 43.008 0 23.746 19.297 43.031 43.008 43.031 23.734 0 43.02-19.297 43.02-43.031 0-23.715-19.285-43.008-43.02-43.008z"/>
</svg>
