<?xml version="1.0" encoding="UTF-8"?>
<svg width="1200pt" height="1200pt" version="1.1" viewBox="0 0 1200 1200" xmlns="http://www.w3.org/2000/svg">
 <path d="m972.47 249.42c0 72.277-58.594 130.87-130.87 130.87-72.281 0-130.88-58.594-130.88-130.87 0-72.281 58.594-130.88 130.88-130.88 72.277 0 130.87 58.594 130.87 130.88z"/>
 <path d="m374.99 445.49v-114.66h-45.047v114.66c-27.238 9.3945-46.945 35.004-46.945 65.41v244.18h138.95v-244.18c0.011719-30.43-19.691-56.016-46.957-65.41z"/>
 <path d="m70.934 478.75v89.641c0 41.699 29.977 76.465 69.469 84.121v102.56h32.531v-102.56c39.516-7.6562 69.492-42.422 69.492-84.121v-89.641zm138.96 89.637c0 29.34-23.855 53.219-53.219 53.219-29.328 0-53.195-23.879-53.195-53.219v-57.109h106.41z"/>
 <path d="m930.37 419.43-185.2-0.12109v177.44h185.2z"/>
 <path d="m998.94 419.45h-27.648l-0.097657 596.12-267.2-0.003907 0.25391-596.29h-34.246c-103.86 0-180.65 84.695-180.65 190.31v171.96h-454.78c-12.434 0-22.523 10.105-22.523 22.535 0 12.422 10.094 22.512 22.523 22.512h213.55c-68.953 12.984-63.887 114.25 15.191 114.25h283.51v-0.30078c29.039 0.19141 58.211-21.73 58.211-65.676l0.003906-253.21h36.852l-0.10938 451.05h392.38l0.097656-451.05h36.141v387.02c0 88.234 115.02 88.234 114.74 0l0.003906-396.38c0.023438-97.395-72.156-192.85-186.2-192.85z"/>
</svg>
