<?xml version="1.0" encoding="UTF-8"?>
<svg width="1200pt" height="1200pt" version="1.1" viewBox="0 0 1200 1200" xmlns="http://www.w3.org/2000/svg">
 <path d="m844.26 552.28h-5.2422c-13.176 0-25.812 1.8008-37.945 4.957l-174.49-59.496-57.383-226c-7.3438-33.59-42.539-72.035-95.543-73.656-17.316-0.52734-45.852 7.5234-60.191 22.812l-201.18 199.2c-33.059 29.387-34.645 71.375-34.871 100.77v583.97c0 23.52 8.1719 43.188 24.504 59.102 16.332 15.793 35.746 23.711 58.262 23.711 23.508 0 43.43-7.9062 59.762-23.711 16.332-15.91 24.539-35.578 24.539-59.102l-0.007813-170.56h-83.594v-24.949h169.16v-403.57l59.52-59.988 48.77 111.09c0.32422 0.74219 0.82812 1.3789 1.2109 2.1133 0.66016 1.332 1.4023 2.5664 2.1719 3.8164 1.2969 2.0898 2.6875 4.0547 4.2461 5.9297 0.9375 1.1055 1.8594 2.1953 2.8672 3.2148 1.8242 1.8477 3.8164 3.4688 5.9023 5.0039 1.0195 0.74219 1.957 1.5703 3.0117 2.2578 3.2891 2.0391 6.7305 3.8164 10.441 5.0898l137.03 46.738c-19.43 31.98-30.793 71.746-30.793 115.95v412.81c0 12.395 10.066 22.465 22.465 22.465 12.395 0 22.453-10.066 22.453-22.465l0.003906-263.06h244.59v263.07c0 12.395 10.043 22.465 22.441 22.465 12.406 0 22.465-10.066 22.465-22.465l-0.003906-412.82c0.011719-110.99-70.754-194.69-164.57-194.69zm-94.992 93.766 27.238 9.2656c5.3867 1.8359 10.871 2.7227 16.262 2.7227 20.977 0 40.559-13.188 47.711-34.152 3.0469-8.9297 3.2539-18.086 1.4023-26.688h2.375c64.766 0 114.34 58.078 119.18 137.04h-243.62c2.1133-34.426 12.754-64.809 29.449-88.188zm-29.918 205.74v-72.625h244.59v72.637h-244.59z"/>
 <path d="m666.46 221.53-0.19141 0.035156c-16.957 6.7422-101.64 25.402-175.59-72.949-29.125-42.48-36.359-100.37-36.359-100.37s34.777 23.676 66.289 17.461c21.289-4.2344 45.348-24.59 49.969-28.703 11.004-8.7852 23.953-15.602 38.41-19.273 56.148-14.496 113.39 19.871 127.86 76.535 13.992 55.18-17.328 110.57-70.391 127.26z"/>
</svg>
