<?xml version="1.0" encoding="UTF-8"?>
<svg width="1200pt" height="1200pt" version="1.1" viewBox="0 0 1200 1200" xmlns="http://www.w3.org/2000/svg">
 <path d="m837.05 156.59v-75.352h107.29v-64.5h-288.79v64.5h107.26v75.348h-93.707c-97.391 0-176.59 79.199-176.59 176.53v89.281h136.22v-89.242c0-22.309 18.121-40.414 40.355-40.414h291.76v-136.15z"/>
 <path d="m574.46 451.61h25.223v163.21h-25.223z"/>
 <path d="m518.55 451.61h25.223v163.21h-25.223z"/>
 <path d="m339.12 951.24h25.211v248.76h-25.211z"/>
 <path d="m435.14 951.24h25.223v248.76h-25.223z"/>
 <path d="m531.17 951.24h25.223v248.76h-25.223z"/>
 <path d="m627.19 951.24h25.223v248.76h-25.223z"/>
 <path d="m723.21 951.24h25.223v248.76h-25.223z"/>
 <path d="m238.98 682.18c0 20.918-16.957 37.871-37.871 37.871-20.918 0-37.875-16.953-37.875-37.871 0-20.914 16.957-37.871 37.875-37.871 20.914 0 37.871 16.957 37.871 37.871z"/>
 <path d="m343.64 682.18c0 20.918-16.957 37.871-37.871 37.871-20.918 0-37.875-16.953-37.875-37.871 0-20.914 16.957-37.871 37.875-37.871 20.914 0 37.871 16.957 37.871 37.871z"/>
 <path d="m448.31 682.18c0 20.918-16.957 37.871-37.871 37.871-20.918 0-37.875-16.953-37.875-37.871 0-20.914 16.957-37.871 37.875-37.871 20.914 0 37.871 16.957 37.871 37.871z"/>
 <path d="m552.98 682.18c0 20.918-16.957 37.871-37.871 37.871-20.918 0-37.875-16.953-37.875-37.871 0-20.914 16.957-37.871 37.875-37.871 20.914 0 37.871 16.957 37.871 37.871z"/>
 <path d="m657.65 682.18c0 20.918-16.957 37.871-37.871 37.871-20.918 0-37.875-16.953-37.875-37.871 0-20.914 16.957-37.871 37.875-37.871 20.914 0 37.871 16.957 37.871 37.871z"/>
 <path d="m762.3 682.18c0 20.91-16.953 37.859-37.859 37.859-20.91 0-37.863-16.949-37.863-37.859 0-20.91 16.953-37.859 37.863-37.859 20.906 0 37.859 16.949 37.859 37.859z"/>
 <path d="m866.98 682.18c0 20.918-16.957 37.871-37.871 37.871-20.918 0-37.875-16.953-37.875-37.871 0-20.914 16.957-37.871 37.875-37.871 20.914 0 37.871 16.957 37.871 37.871z"/>
 <path d="m971.65 682.18c0 20.918-16.957 37.871-37.871 37.871-20.918 0-37.875-16.953-37.875-37.871 0-20.914 16.957-37.871 37.875-37.871 20.914 0 37.871 16.957 37.871 37.871z"/>
 <path d="m238.98 786.55c0 20.918-16.957 37.875-37.871 37.875-20.918 0-37.875-16.957-37.875-37.875 0-20.914 16.957-37.871 37.875-37.871 20.914 0 37.871 16.957 37.871 37.871z"/>
 <path d="m343.64 786.55c0 20.918-16.957 37.875-37.871 37.875-20.918 0-37.875-16.957-37.875-37.875 0-20.914 16.957-37.871 37.875-37.871 20.914 0 37.871 16.957 37.871 37.871z"/>
 <path d="m448.31 786.55c0 20.918-16.957 37.875-37.871 37.875-20.918 0-37.875-16.957-37.875-37.875 0-20.914 16.957-37.871 37.875-37.871 20.914 0 37.871 16.957 37.871 37.871z"/>
 <path d="m552.98 786.55c0 20.918-16.957 37.875-37.871 37.875-20.918 0-37.875-16.957-37.875-37.875 0-20.914 16.957-37.871 37.875-37.871 20.914 0 37.871 16.957 37.871 37.871z"/>
 <path d="m657.65 786.55c0 20.918-16.957 37.875-37.871 37.875-20.918 0-37.875-16.957-37.875-37.875 0-20.914 16.957-37.871 37.875-37.871 20.914 0 37.871 16.957 37.871 37.871z"/>
 <path d="m762.3 786.55c0 20.91-16.953 37.859-37.859 37.859-20.91 0-37.863-16.949-37.863-37.859 0-20.91 16.953-37.859 37.863-37.859 20.906 0 37.859 16.949 37.859 37.859z"/>
 <path d="m866.98 786.55c0 20.918-16.957 37.875-37.871 37.875-20.918 0-37.875-16.957-37.875-37.875 0-20.914 16.957-37.871 37.875-37.871 20.914 0 37.871 16.957 37.871 37.871z"/>
 <path d="m971.65 786.55c0 20.918-16.957 37.875-37.871 37.875-20.918 0-37.875-16.957-37.875-37.875 0-20.914 16.957-37.871 37.875-37.871 20.914 0 37.871 16.957 37.871 37.871z"/>
 <path d="m238.98 786.55c0 20.918-16.957 37.875-37.871 37.875-20.918 0-37.875-16.957-37.875-37.875 0-20.914 16.957-37.871 37.875-37.871 20.914 0 37.871 16.957 37.871 37.871z"/>
 <path d="m343.64 786.55c0 20.918-16.957 37.875-37.871 37.875-20.918 0-37.875-16.957-37.875-37.875 0-20.914 16.957-37.871 37.875-37.871 20.914 0 37.871 16.957 37.871 37.871z"/>
 <path d="m448.31 786.55c0 20.918-16.957 37.875-37.871 37.875-20.918 0-37.875-16.957-37.875-37.875 0-20.914 16.957-37.871 37.875-37.871 20.914 0 37.871 16.957 37.871 37.871z"/>
 <path d="m552.98 786.55c0 20.918-16.957 37.875-37.871 37.875-20.918 0-37.875-16.957-37.875-37.875 0-20.914 16.957-37.871 37.875-37.871 20.914 0 37.871 16.957 37.871 37.871z"/>
 <path d="m657.65 786.55c0 20.918-16.957 37.875-37.871 37.875-20.918 0-37.875-16.957-37.875-37.875 0-20.914 16.957-37.871 37.875-37.871 20.914 0 37.871 16.957 37.871 37.871z"/>
 <path d="m762.3 786.55c0 20.91-16.953 37.859-37.859 37.859-20.91 0-37.863-16.949-37.863-37.859 0-20.91 16.953-37.859 37.863-37.859 20.906 0 37.859 16.949 37.859 37.859z"/>
 <path d="m866.98 786.55c0 20.918-16.957 37.875-37.871 37.875-20.918 0-37.875-16.957-37.875-37.875 0-20.914 16.957-37.871 37.875-37.871 20.914 0 37.871 16.957 37.871 37.871z"/>
 <path d="m971.65 786.55c0 20.918-16.957 37.875-37.871 37.875-20.918 0-37.875-16.957-37.875-37.875 0-20.914 16.957-37.871 37.875-37.871 20.914 0 37.871 16.957 37.871 37.871z"/>
 <path d="m238.98 890.9c0 20.918-16.957 37.875-37.871 37.875-20.918 0-37.875-16.957-37.875-37.875 0-20.914 16.957-37.871 37.875-37.871 20.914 0 37.871 16.957 37.871 37.871z"/>
 <path d="m343.64 890.9c0 20.918-16.957 37.875-37.871 37.875-20.918 0-37.875-16.957-37.875-37.875 0-20.914 16.957-37.871 37.875-37.871 20.914 0 37.871 16.957 37.871 37.871z"/>
 <path d="m448.31 890.9c0 20.918-16.957 37.875-37.871 37.875-20.918 0-37.875-16.957-37.875-37.875 0-20.914 16.957-37.871 37.875-37.871 20.914 0 37.871 16.957 37.871 37.871z"/>
 <path d="m552.98 890.9c0 20.918-16.957 37.875-37.871 37.875-20.918 0-37.875-16.957-37.875-37.875 0-20.914 16.957-37.871 37.875-37.871 20.914 0 37.871 16.957 37.871 37.871z"/>
 <path d="m657.65 890.9c0 20.918-16.957 37.875-37.871 37.875-20.918 0-37.875-16.957-37.875-37.875 0-20.914 16.957-37.871 37.875-37.871 20.914 0 37.871 16.957 37.871 37.871z"/>
 <path d="m762.3 890.9c0 20.91-16.953 37.863-37.859 37.863-20.91 0-37.863-16.953-37.863-37.863 0-20.906 16.953-37.859 37.863-37.859 20.906 0 37.859 16.953 37.859 37.859z"/>
 <path d="m866.98 890.9c0 20.918-16.957 37.875-37.871 37.875-20.918 0-37.875-16.957-37.875-37.875 0-20.914 16.957-37.871 37.875-37.871 20.914 0 37.871 16.957 37.871 37.871z"/>
 <path d="m971.65 890.9c0 20.918-16.957 37.875-37.871 37.875-20.918 0-37.875-16.957-37.875-37.875 0-20.914 16.957-37.871 37.875-37.871 20.914 0 37.871 16.957 37.871 37.871z"/>
</svg>
