<?xml version="1.0" encoding="UTF-8"?>
<svg width="1200pt" height="1200pt" version="1.1" viewBox="0 0 1200 1200" xmlns="http://www.w3.org/2000/svg">
 <path d="m1118.9 988.55c-61.906-19.812-82.68-19.812-144.53 0-63.695 20.484-89.004 20.484-153.54 0-65.137-20.473-83.578-19.141-144.62 0-64.824 20.484-89.902 20.484-153.55 0-61.992-19.812-82.633-19.812-144.61 0-63.672 20.484-88.957 20.484-153.54 0-31.453-9.8984-56.027-14.965-73.043-14.965-16.02 0-40.078 5.0625-71.605 14.965-29.352 9.3359-52.777 13.848-71.137 14.723v92.242l0.23828 3.6484c10.871-5.7344 35.363-10.789 66.926-20.699 66.336-21.012 89.941-19.848 152.72 0 61.176 19.223 79.766 20.566 144.67 0 64.465-20.484 89.449-20.484 154.32 0 64.836 20.484 83.387 19.223 144.68 0 62.652-20.027 86.125-21.086 152.66 0 60.863 19.223 79.488 20.484 144.67 0 64.57-20.484 89.855-20.484 153.52 0 27.336 8.8203 49.523 13.715 66.168 14.734l0.51562-89.832c-14.051 1.875-39.121-4.5312-70.918-14.816z"/>
 <path d="m487.12 668.22v-1.8828c-37.379-8.6992-60.637-5.375-109.05 10.105-63.672 20.484-88.957 20.484-153.54 0-31.453-9.8984-56.027-14.965-73.043-14.965-16.02 0-40.078 5.0625-71.605 14.965-29.352 9.3359-52.777 13.848-71.137 14.723v92.242l0.23828 3.6484c10.871-5.7344 35.363-10.789 66.926-20.688 66.336-21.023 89.941-19.848 152.72 0 61.176 19.223 79.766 20.555 144.67 0 23.531-7.4766 41.785-12.18 58.656-14.207 10.332-32.246 29.254-61.25 55.164-83.941z"/>
 <path d="m1118.9 676.44c-61.906-19.812-82.68-19.812-144.53 0-63.695 20.484-89.004 20.484-153.54 0-36.168-11.363-57.938-15.996-80.594-14.594v9.5156c25.234 23.398 43.402 53.137 52.883 85.871 9.5625 2.3633 19.98 5.3867 31.812 9.1328 60.863 19.223 79.488 20.473 144.66 0 64.57-20.473 89.855-20.473 153.52 0 27.336 8.8203 49.523 13.715 66.168 14.746v-87.672c-15.516 0.003906-38.582-6.7305-70.379-17z"/>
 <path d="m584.33 128.53h58.754v211.56h-58.754zm-45.793-45.793v160.01h-155.7v51.492h155.7v96.301h-155.7v51.492h155.7v96.336h-155.7v51.492h155.7v103.95c-38.496 24.371-64.188 67.043-64.188 115.92 0 75.863 61.512 137.4 137.44 137.4 75.898 0 137.44-61.535 137.44-137.4 0-47.281-23.93-89.039-60.383-113.75l-0.003906-613.24z"/>
 <path d="m423.24 820.37c-12.961 2.4258-27.336 6.4336-45.18 12.133-63.672 20.484-88.957 20.484-153.54 0-31.453-9.8984-56.027-14.965-73.043-14.965-16.02 0-40.078 5.0625-71.605 14.965-29.352 9.3359-52.777 13.848-71.137 14.723v92.242l0.23828 3.6484c10.871-5.7344 35.363-10.789 66.926-20.699 66.336-21.012 89.941-19.848 152.72 0 61.176 19.223 79.766 20.566 144.67 0 32.113-10.199 54.422-15.312 76.738-15.348-15.477-25.582-25.027-55.113-26.793-86.699z"/>
 <path d="m1118.9 832.5c-61.906-19.812-82.68-19.812-144.53 0-63.695 20.484-89.004 20.484-153.54 0-7.5977-2.3867-14.508-4.4531-20.977-6.2539-2.6289 30.156-12.359 58.309-27.539 82.754 14.988 2.3516 31.668 6.7812 52.621 13.43 60.863 19.223 79.488 20.484 144.66 0 64.57-20.484 89.855-20.484 153.52 0 27.336 8.8203 49.523 13.715 66.168 14.734l0.51562-89.832c-14.031 1.8594-39.102-4.5352-70.898-14.832z"/>
</svg>
