<?xml version="1.0" encoding="UTF-8"?>
<svg width="1200pt" height="1200pt" version="1.1" viewBox="0 0 1200 1200" xmlns="http://www.w3.org/2000/svg">
 <path d="m1145.8 456.33v-134.95h-54.547v134.95h-31.977v-207.69h-121.24v207.69h-49.355v-6.0938c0-20.355-19.145-36.832-39.477-36.832-20.332 0-38.523 16.477-38.523 36.832v6.0938h-424.52v-6.0938c0-20.355-18.191-36.832-38.5-36.832-20.355 0-39.477 16.477-39.477 36.832v6.0938h-49.047v-207.69h-121.19v207.69h-32v-134.95l-54.574 0.003906v134.95l-49.926-0.003907v42.43h49.953v146.86h54.57v-146.86h32v207.43h121.19v-207.43h49.047v170.02c0 24.477 15.238 47.738 41.191 47.738h126.74v276.02h243.55l1.0938-276.02h126.76c25.977 0 41.168-23.262 41.168-47.738v-170.02h49.355v207.43h121.24v-207.43h31.977v146.86h54.547v-146.86h51.523v-42.43zm-546.81 464.24c-7.8555 0-14.215-6.3828-14.215-14.215 0-7.8555 6.3828-14.215 14.215-14.215 7.832 0 14.215 6.3555 14.215 14.215-0.023437 7.8359-6.3828 14.215-14.215 14.215zm211.69-288.64-120.81-0.5c-12.43 38.93-48.906 67.168-91.883 67.168-42.883 0-79.285-28.117-91.785-66.906l-120.05 0.21484v-133.19h424.52z"/>
 <path d="m673.19 602.17c0 41.551-33.688 75.238-75.238 75.238-41.555 0-75.238-33.688-75.238-75.238 0-41.555 33.684-75.238 75.238-75.238 41.551 0 75.238 33.684 75.238 75.238z"/>
</svg>
