<?xml version="1.0" encoding="UTF-8"?>
<svg width="1200pt" height="1200pt" version="1.1" viewBox="0 0 1200 1200" xmlns="http://www.w3.org/2000/svg">
 <path d="m865.39 904.82c-5.0508-39.145-15.527-90.707-33.672-156.5-61.441-222.8-240.54-408.28-240.54-408.28 1.6211 3.2773 122.18 305.02 151 396.54 13.777 39.516 30.73 97.645 43.066 149.14 5.9766 1.6445 12.422 3.5742 19.5 5.7969 24.938 7.9219 43.227 12.348 60.648 13.309z"/>
 <path d="m989.34 521.89c-19.211 71.184-35.027 145.77-35.027 145.77s-13.559-59.891-44.062-112.99c-81.637-173.39-202.48-259.84-267.61-299.71-6.0977-3.7188-10.824-3.5625-14.051 0.40625-5.2305 6.4688-3.3477 8.5078 20.195 33.48 44.688 47.41 146.8 166.52 201.57 294.06 45.562 106.12 41.531 239.5 31.859 321.72 16.633-1.2344 34.152-5.5664 57.602-13.117 22.262-7.1289 38.449-11.293 53.555-12.59 25.164-164.22 75.457-457.22 138.91-644.06l1.3086-2.543c0.015625 0.015624-80.973 77.164-144.25 289.59z"/>
 <path d="m1067 950.61c-54.469-17.438-72.742-17.438-127.15 0-56.039 18.023-78.301 18.023-135.09 0-57.312-18.012-73.523-16.836-127.23 0-57.023 18.023-79.094 18.023-135.1 0-54.539-17.438-72.695-17.438-127.22 0-56.016 18.023-78.266 18.023-135.09 0-27.672-8.7109-49.297-13.164-64.262-13.164-14.102 0-35.27 4.4531-63 13.164-25.824 8.2188-46.43 12.191-62.578 12.949v81.156l0.20312 3.2148c9.5625-5.0508 31.117-9.4922 58.883-18.203 58.367-18.492 79.129-17.461 134.38 0 53.82 16.922 70.176 18.098 127.29 0 56.723-18.023 78.695-18.023 135.77 0 57.035 18.023 73.367 16.922 127.29 0 55.129-17.617 75.77-18.551 134.32 0 53.555 16.922 69.926 18.023 127.27 0 56.809-18.023 79.043-18.023 135.06 0 24.047 7.7656 43.57 12.07 58.211 12.961l0.45703-79.043c-12.371 1.6406-34.426-3.9883-62.398-13.035z"/>
 <path d="m1067 1088.1c-54.469-17.438-72.742-17.438-127.15 0-56.039 18.023-78.301 18.023-135.09 0-57.312-18.012-73.523-16.836-127.23 0-57.023 18.023-79.094 18.023-135.1 0-54.539-17.438-72.695-17.438-127.22 0-56.016 18.023-78.266 18.023-135.09 0-27.672-8.7109-49.297-13.164-64.262-13.164-14.102 0-35.27 4.4531-63 13.164-25.824 8.2188-46.43 12.191-62.578 12.949v81.156l0.20312 3.2148c9.5625-5.0508 31.117-9.4922 58.883-18.203 58.367-18.492 79.129-17.461 134.38 0 53.82 16.922 70.176 18.098 127.29 0 56.723-18.023 78.695-18.023 135.77 0 57.035 18.023 73.367 16.922 127.29 0 55.129-17.617 75.77-18.551 134.32 0 53.555 16.922 69.926 18.023 127.27 0 56.809-18.023 79.043-18.023 135.06 0 24.047 7.7656 43.57 12.07 58.211 12.961l0.45703-79.043c-12.371 1.6406-34.426-3.9883-62.398-13.035z"/>
 <path d="m327.85 581.32 14.688 23.16c7.2734 11.473 72.625 115.7 148.97 274.69 14.352 1.5469 29.93 5.6523 50.902 12.348 55.992 18.012 78.059 18.012 135.1 0 22.523-7.0664 38.449-11.328 53.578-12.625-2.7969-12.637-6.0977-25.477-10.02-38.125-22.715-73.176-158.15-342.38-159.52-345.1l-12.43-24.668 6.7695 26.773c2.8555 11.316 61.391 242.88 82.738 321.24-27.949-47.555-94.246-159.06-98.461-166.13-2.5664-9.1328-49.152-177.3-40.453-296.99 6.6836-187.13 55.824-325.39 56.328-326.76l5.1602-14.305-10.262 11.219c-1.1992 1.3203-120.45 135.42-104.16 430.57 1.3789 35.82 5.1602 74.016 10.98 111.14-37.512-44.426-98.832-86.363-99.492-86.809l-15.191-10.332 11.051 14.676c0.74219 0.98438 74.34 98.844 122.48 180.09 5.8906 26.555 17.398 64.402 27.551 97.812 4.0312 13.285 7.9336 26.113 11.305 37.633-65.652-97.246-167.23-199.16-168.31-200.24z"/>
 <path d="m367.13 903.59c13.922-1.9688 29.016-5.9531 48.047-12.07 4.9062-1.5703 9.4336-2.9414 13.801-4.2227-40.727-80.594-90.973-192.77-110.11-288.46-34.668-148.38 15.324-252.95 15.816-253.98 0 0-133.4 175.61-7.4648 476.5 13.922 33.285 27.398 60.285 39.914 82.234z"/>
 <path d="m238.68 880.82c11.762 2.1602 25.559 5.6992 41.398 10.691 17.566 5.5664 31.812 9.4062 44.785 11.531-0.15625-0.49219-0.27734-0.99609-0.43359-1.4883-51.957-165.14-235.09-378.59-236.94-380.72l-17.711-20.52 12.73 23.93c0.66016 1.2461 69.84 133.77 148.08 335 2.7852 7.1602 5.4141 14.375 8.0898 21.574z"/>
</svg>
