<?xml version="1.0" encoding="UTF-8"?>
<svg width="1200pt" height="1200pt" version="1.1" viewBox="0 0 1200 1200" xmlns="http://www.w3.org/2000/svg">
 <path d="m782.28 327.05c0 46.922-38.039 84.961-84.961 84.961-46.922 0-84.961-38.039-84.961-84.961s38.039-84.957 84.961-84.957c46.922 0 84.961 38.035 84.961 84.957z"/>
 <path d="m266.58 898.12c-93.383 0-169.09-75.719-169.09-169.09 0-35.172 10.754-67.824 29.137-94.883l-64.367-64.199c-34.262 43.957-54.863 99.035-54.863 159.09 0 143.14 116.04 259.19 259.2 259.19 60.266 0 115.6-20.746 159.62-55.246l-64.402-64.246c-27.133 18.52-59.906 29.395-95.234 29.395z"/>
 <path d="m1018 637.75c-43.297 0-82.848 15.805-113.4 41.844l-114.85-108.74c-3.4922-3.3008-8.1133-5.1484-12.898-5.1484h-92.23c-10.355 0-18.758 8.3984-18.758 18.758 0 10.355 8.3984 18.758 18.758 18.758h84.742l27.805 26.328-279.52 35.734c-8.0039-31.355-21.66-60.457-39.887-86.102 15.898-12.227 55.199-40.559 63.359-45.215 0.88672-0.52734 12-7.8828 24.742-16.633 12.73-8.7109 27.156-18.047 31.801-21.203 15.625-10.02 25.754-23.52 30.023-40.066 6.4219-25.945-0.63672-45.168-24.215-65.809-5.5781-5.0273-15.203-14.426-21.227-20.832-6-6.3945-11.496-11.891-12.215-12.086-0.71875-0.17969-3.8164-3.0234-6.7422-6.6016-2.9766-3.3125-24.07-24.625-47.148-47.184-23.137-22.32-55.152-53.855-71.258-69.758-27.602-26.809-30.602-29.125-42.816-32.27-7.4883-1.6914-17.219-2.6523-21.719-2.0273-4.5703 0.86328-28.008 11.461-52.262 24.121-24.156 12.434-78.996 39.359-91.957 45.996-35.629 18.168-44.988 24.719-51.371 35.605-20.242 34.906 8.5312 80.953 47.543 76.414 10.285-1.1641 15.695-3.3594 41.988-17.027 10.98-5.8789 86.844-43.98 96.613-49.129 3.1914-1.5 6.8164-2.5938 8.0039-2.2812 1.2109 0.3125 13.02 11.004 26.074 23.844 12.758 12.996 25.273 24.926 27.551 27.035 6.4336 5.7461 9.6953 3.0117-62.965 52.812-19.488 13.117-44.902 30.336-56.305 37.883-9.2773 6.1328-18.742 12.637-23.711 16.223-7.5977-0.67188-15.238-1.1641-23.016-1.1641-68.508 0-130.63 26.785-176.98 70.199l63.781 63.66c29.988-27.109 69.602-43.754 113.2-43.754 75.156 0 138.77 49.055 160.79 116.89l-164.94 21.07c-17.125 2.1953-29.23 17.855-27.047 34.98 2.0156 15.781 15.469 27.289 30.984 27.289 1.3086 0 2.6523-0.085938 3.9961-0.25391l164.84-21.086c-2.293 39.574-18.145 75.457-43.043 103.15l63.77 63.637c43.211-46.309 69.852-108.27 69.852-176.59 0-0.58984-0.070312-1.1758-0.070312-1.7539l330-41.953 23.051 21.758c-22.332 29.398-35.762 65.965-35.762 105.73 0 96.695 78.383 175.07 175.07 175.07 96.695 0 175.07-78.371 175.07-175.07 0-96.68-78.398-175.05-175.09-175.05zm0 294.04c-65.699 0-118.97-53.27-118.97-118.98 0-24.84 7.6445-47.914 20.688-66.996l85.402 80.641c1.2617 1.1758 2.7461 1.8711 4.2109 2.6641 0.63672 0.33594 1.1992 0.91016 1.8594 1.1758 2.1953 0.85156 4.5117 1.2734 6.8047 1.2734 4.9805 0 9.9492-1.9688 13.633-5.8555 0 0 0-0.011719 0.011719-0.023438h0.011718c0.53906-0.5625 0.73047-1.2852 1.1758-1.9062 1.0547-1.4023 2.1602-2.7969 2.7617-4.3906 0.40625-1.1523 0.38281-2.3633 0.57422-3.5625 0.21484-1.1875 0.625-2.3281 0.60156-3.5273-0.058594-1.7383-0.625-3.4062-1.1406-5.0742-0.21484-0.63672-0.15625-1.3086-0.43359-1.9453-0.89844-2.0508-2.2812-3.8984-3.9258-5.5781-0.16797-0.14453-0.21484-0.34766-0.35938-0.49219 0-0.011719 0-0.011719-0.011719-0.023438l-2.5938-2.4375-82.621-78.254c20.051-15.406 45.07-24.672 72.312-24.672 65.711 0 118.98 53.293 118.98 118.99 0.007813 65.703-53.273 118.97-118.97 118.97z"/>
</svg>
