<?xml version="1.0" encoding="UTF-8"?>
<svg width="1200pt" height="1200pt" version="1.1" viewBox="0 0 1200 1200" xmlns="http://www.w3.org/2000/svg">
 <path d="m1094 674.43v-307.24c0-19.762-16-35.762-35.762-35.762-19.785 0-35.785 16-35.785 35.762v32.309l-59.953-170.02c-6.9297-19.523-28.262-29.809-47.93-22.906-19.547 6.8828-29.785 28.309-22.906 47.93l60.355 169.33-134.95-201.21c-12.406-19.117-37.883-24.383-56.93-12.117-19.07 12.406-24.453 37.855-12.117 56.906l106.17 163.43 132.02 84.383c6.6445 4.2383 8.5938 13.094 4.3555 19.762-2.7148 4.2617-7.3555 6.5703-12.047 6.5703-2.668 0-5.332-0.71484-7.7383-2.2617l-140.02-88.715c-44.617-30.906-99.215-51.93-159.57-58.145-23.262-2.2148-43.832 14.5-46.238 37.594-2.3828 23.145 14.453 43.855 37.57 46.238 102.88 10.57 183.71 74.523 196.64 155.55 13.977 87.523-38.168 195.93-135.21 211.45-5.7383 0.90625-11.953 2.1172-18.406 3.3828-11.93 2.2383-28.262 5.5938-35.977 4.6172-23.309-1.8828-43.762 14.785-46 37.953-2.1914 23.145 14.785 43.738 37.953 45.977 3.4766 0.30859 7.0234 0.5 10.57 0.5h277.26l15.5 60.453h230.55z"/>
 <path d="m110.02 674.43v-307.24c0-19.762 16-35.762 35.762-35.762 19.762 0 35.762 16 35.762 35.762v32.309l59.953-170.02c6.9062-19.523 28.285-29.809 47.93-22.906 19.547 6.8828 29.832 28.309 22.906 47.93l-60.355 169.33 134.98-201.24c12.43-19.117 37.855-24.383 56.93-12.117 19.07 12.406 24.477 37.855 12.094 56.906l-106.12 163.43-132.02 84.383c-6.6172 4.2383-8.5938 13.094-4.332 19.762 2.7148 4.2617 7.332 6.5703 12.023 6.5703 2.6445 0 5.3086-0.71484 7.7383-2.2617l140-88.715c44.645-30.906 99.191-51.93 159.57-58.145 23.262-2.2148 43.855 14.5 46.238 37.594 2.3828 23.145-14.453 43.855-37.57 46.238-102.83 10.57-183.67 74.523-196.59 155.55-13.977 87.523 38.145 195.93 135.19 211.45 5.7148 0.90625 11.93 2.1172 18.43 3.3828 11.883 2.2383 28.238 5.5938 35.977 4.6172 23.332-1.8828 43.715 14.785 45.977 37.953 2.168 23.145-14.809 43.738-37.93 45.977-3.5 0.30859-7.0703 0.5-10.617 0.5h-277.23l-15.523 60.453-230.55-0.003906z"/>
</svg>
