<?xml version="1.0" encoding="UTF-8"?>
<svg width="1200pt" height="1200pt" version="1.1" viewBox="0 0 1200 1200" xmlns="http://www.w3.org/2000/svg">
 <path d="m1165.6 349.02c-3.5703-31.309-28.57-56.617-74.883-75.855-59.191-24.262-127.59-36.383-205.31-36.383-77.691 0-146.14 12.117-205.33 36.383-46.332 19.238-71.594 44.547-75.883 75.855l-29.977 233.14v320.83h52.43v50.191c0 30.645 14.977 45.953 44.93 45.953 29.906 0 44.883-15.309 44.883-45.953v-50.191h337.93v50.191c0 30.645 14.953 45.953 44.906 45.953 29.93 0 44.883-15.309 44.883-45.953v-50.191h52.43l-0.007812-320.81zm-395.45-56.117h229.67c11.645 0 17.477 6.9531 17.477 20.977 0 14.57-5.832 21.832-17.477 21.832h-229.67c-11.047 0-16.617-7.2852-16.617-21.832-0.027344-14 5.5664-20.977 16.617-20.977zm-141.36 281.79 24.547-183.88c2.168-13.57 10.355-20.355 24.594-20.355h414.93c14.262 0 22.43 6.7852 24.594 20.355l24.547 183.88 1.1172 6.4531c0 16.355-8.5703 24.547-25.668 24.547h-464.11c-17.07 0-25.645-8.1914-25.645-24.547zm75.93 217.62c-9.2617 8.8555-20.691 13.355-34.238 13.355-12.832 0-23.883-4.4766-33.168-13.355-9.2617-8.9531-13.855-20.215-13.855-33.691 0-12.883 4.5938-23.93 13.855-33.145 9.2852-9.332 20.332-13.93 33.168-13.93 13.547 0 25 4.5938 34.238 13.93 9.2383 9.2148 13.883 20.262 13.883 33.145-0.003906 13.5-4.668 24.738-13.883 33.691zm427.71 0c-9.2617 8.8555-20.332 13.355-33.145 13.355-12.832 0-23.906-4.4766-33.168-13.355-9.3086-8.9531-13.906-20.215-13.906-33.691 0-12.883 4.5938-23.93 13.906-33.145 9.2617-9.332 20.332-13.93 33.168-13.93 12.809 0 23.883 4.5938 33.145 13.93 9.3086 9.2148 13.93 20.262 13.93 33.145-0.027344 13.5-4.6445 24.738-13.93 33.691z"/>
 <path d="m179.36 926.59c12.355-12.523 12.43-32.547 0-44.906-154.38-154.38-154.43-405.59 0-559.93l2.5234-2.2617c12.43-11.617 12.785-32.383 0.47656-45-12.355-12.477-32.406-12.762-44.855-0.38281-0.95312 0.69141-2.0234 1.6445-3.168 2.6914-179.09 179.17-179.09 470.69 0 649.79 12.477 12.363 32.621 12.363 45.023 0.003906z"/>
 <path d="m278.45 827.48c12.406-12.406 12.406-32.43 0-44.906-99.738-99.645-99.645-262.02 0.023437-361.79l2.4766-2.2148c12.523-11.477 12.832-32.406 0.47656-44.906-12.309-12.57-32.453-12.832-44.977-0.5-0.97656 0.76172-1.9297 1.7148-2.9297 2.6914-124.62 124.52-124.62 327.12-0.14453 451.71 12.453 12.359 32.574 12.359 45.074-0.09375z"/>
 <path d="m372.24 733.67c12.43-12.453 12.43-32.547 0.023438-45-47.547-47.617-47.953-124.79-1.0703-172.86 1.2617-0.97656 2.4062-1.9062 3.4766-2.9766 11.785-11.785 13.047-32.285 0.95312-44.977-12.145-12.668-32.262-13.117-45-1 0-0.14453-1.7148 1.2383-3.2617 2.7617-72.883 72.832-72.809 191.17-0.070313 264.02 12.496 12.473 32.543 12.379 44.949 0.023438z"/>
 <path d="m412.48 569.12c-17.355 17.383-17.406 45.617-0.023437 62.906 17.355 17.5 45.594 17.355 63 0.09375 17.355-17.383 17.355-45.594-0.09375-63.07-17.359-17.332-45.453-17.332-62.883 0.070313z"/>
</svg>
