<?xml version="1.0" encoding="UTF-8"?>
<svg width="1200pt" height="1200pt" version="1.1" viewBox="0 0 1200 1200" xmlns="http://www.w3.org/2000/svg">
 <path d="m697.56 877.23v31.379l-200.79 0.003907v-31.379l-488.96-0.003906c0 43.391 35.496 78.887 78.887 78.887h1022.7c43.391 0 78.887-35.496 78.887-78.887z"/>
 <path d="m1087 860.22h-984.22v-549.5c0-47.531 38.723-64.801 64.777-64.801h854.66c47.531 0 64.777 38.746 64.777 64.801zm-937.18-47.086h890.15v-502.42c-0.55078-17.711-13.5-17.711-17.746-17.711h-854.44c-17.965 0.55078-17.965 13.453-17.965 17.711z"/>
 <path d="m350.28 511.08c9.3359 9.4336 24.504 9.5508 33.898 0.19141 117.36-116.11 307.25-115.15 423.35 2.2422l1.6562 1.9805c8.7344 9.4219 24.422 9.7812 34.02 0.50391 9.4922-9.2891 9.793-24.469 0.49219-33.898-0.52734-0.75781-1.2461-1.5586-2.0273-2.4102-134.71-136.12-355.13-137.34-491.27-2.6172-9.418 9.3984-9.4766 24.59-0.11719 34.008z"/>
 <path d="m424.74 586.45c9.3359 9.4219 24.48 9.5039 33.973 0.16797 75.781-75.023 198.5-74.316 273.52 1.4883l1.6562 1.8477c8.6641 9.5742 24.504 9.8633 33.984 0.57422 9.5508-9.2891 9.8281-24.516 0.55078-33.996-0.5625-0.79297-1.2852-1.4883-2.0039-2.2578-93.684-94.715-246.88-95.52-341.53-1.9336-9.4414 9.4258-9.4805 24.582-0.14453 34.109z"/>
 <path d="m495.35 657.73c9.3594 9.457 24.504 9.5508 33.984 0.20312 36.203-35.773 94.559-35.762 130.71-0.15625 0.69531 0.98438 1.4414 1.8711 2.1836 2.7109 8.8672 8.9414 24.359 9.9492 34.043 0.875 9.625-9.1211 10.02-24.383 0.89844-34.02 0.13281 0-0.875-1.332-2.0625-2.4961-54.816-55.355-144.27-55.789-199.59-1.0938-9.4766 9.3672-9.5469 24.559-0.17578 33.977z"/>
 <path d="m629.29 712.54c0 18.59-15.07 33.66-33.66 33.66-18.59 0-33.66-15.07-33.66-33.66s15.07-33.66 33.66-33.66c18.59 0 33.66 15.07 33.66 33.66z"/>
</svg>
