<?xml version="1.0" encoding="UTF-8"?>
<svg width="1200pt" height="1200pt" version="1.1" viewBox="0 0 1200 1200" xmlns="http://www.w3.org/2000/svg">
 <path d="m1131.1 603.72s18.238 82.262-27.121 122.81c-1.9805 1.7656-5.125 3.6602-8.7852 5.8906 34.152-78.371-12.805-152.2-12.805-152.2s0.43359 62.711-38.438 89.785c110.34-266.55-179-334.51-179-334.51s104 153.8 36.445 257c22.668-83.305-15.66-152.61-15.66-152.61s-15.156 83.652-50.004 116.28c-4.8242 4.5234 5.9648-12.504 8.5664-26.914 15.949-88.32-28.234-162.64-28.234-162.64s-10.535 46.738-33.086 82.02l-59.566-104.47 42.215 8.1602-94.777-166.79-94.535 159.16 45.816-10.727-103.14 146.5 72.938-23.23-82.691 126.88-62.027-109.73 33 6.4453-74.102-131.59-73.934 125.57 35.82-8.4727-80.711 118.98 68.773-21.781-97.164 136.62 63.145-12.77-54.91 64.969-84.758-130.25-89.125 131.04 43.188-8.832-94.32 140.22 79.922-38.773-116.58 159.89 287.22-0.34766h755.61c260.1-151.41 82.824-401.58 82.824-401.58m-316.7-99.973-13.895-24.395c6.3359-10.066 11.027-20.844 14.891-31.477 9 49.078 1.2109 86.578-18.121 120.72l-56.363-99.875zm-258.78 62.176c21.312 52.777-8.7617 106.87-28.117 131.09l-36.828-67.246c27.77-11.812 54.707-42.055 64.945-63.844m-52.227 27.152-17.316 26.594-25.188-47.027zm222.53 292.82c-38.977 65.93-127.01 73.559-147.94 76.477-4.4766 0.625-66.277-64.703-66.277-64.703l97.199 4.8828-101.71-97.453 75.793 6.7422-110.39-115.38 67.812 21.898-10.234-16.344c9.6602-4.7148 23.578-13.441 33.898-27.863 18.145-25.344 27.781-48.73 27.781-48.73s3.8398 24.793 0.20312 46.621c-4.2852 25.645-18.324 52.812-18.324 52.812 83.305-49.98 53.051-147.64 36.227-179.17 99.637 48.996 93.805 168.05 45.215 219.42 21.406-1.4766 47.566-22.512 51-34.441 3.2266 15.301 6.1797 58.391-45.434 94.141 43.547-1.7266 73.055-46.68 74.293-64.488 14.906 46.141 15.363 84.191-9.1172 125.58m294.06 79.668h-140.81l-49.559-47.258 125.47 28.691-155.68-174.13 114.93 26.027-158.44-173.2 87.852 25.211-21.695-38.438c35.82-18.121 50.52-61.141 55.992-72.938 12.684 55.273-21.793 128-21.793 128s159.9-76.883 73.812-268.49c195.76 113.39 48.145 323.02 48.145 323.02s64.645-9.0234 91.309-34.441c3.3945-3.2539 6.5156-7.1289 9.6836-11.184-0.25391 5.9023-1.0664 12.227-1.9922 19.309-6.2266 47.832-51.793 92.027-51.793 92.027s87.238-1.8477 120.04-65.723c11.906 47.922 17.871 177.71-125.47 243.51"/>
</svg>
