<?xml version="1.0" encoding="UTF-8"?>
<svg width="1200pt" height="1200pt" version="1.1" viewBox="0 0 1200 1200" xmlns="http://www.w3.org/2000/svg">
 <path d="m1080.9 1186.8c-19.332-10-44.145-14.93-68.855-14.93-24.715 0-47.668 4.9297-68.906 14.93-19.355 8.2617-42.332 13.238-67.047 13.238-22.953 0-45.93-4.9766-67.094-13.238-21.168-10-44.145-14.93-68.855-14.93-24.715 0-47.691 4.9297-68.883 14.93-21.168 8.2617-44.117 13.238-67.117 13.238-24.691 0-47.645-4.9766-67.07-13.238-21.191-10-45.93-14.93-70.617-14.93-22.93 0-47.668 4.9297-68.855 14.93-19.453 8.2617-42.383 13.238-67.094 13.238-22.953 0-45.93-4.9766-67.07-13.238-21.215-10-44.191-14.93-68.883-14.93-24.715 0-47.645 4.9297-68.883 14.93-21.172 8.2383-44.125 13.215-67.125 13.215v-94.594c23 0 45.953-4.9531 67.094-13.215 21.238-10 44.168-15.047 68.883-15.047 24.691 0 47.668 5.0469 68.883 15.047 21.168 8.2617 44.117 13.215 67.07 13.215 24.715 0 47.645-4.9531 67.094-13.215 21.191-10 45.93-15.047 68.855-15.047 24.691 0 49.43 5.0469 70.617 15.047 19.43 8.2617 42.383 13.215 67.07 13.215 23.023 0 45.977-4.9531 67.117-13.215 21.191-10 44.145-15.047 68.883-15.047 24.738 0 47.691 5.0469 68.855 15.047 21.191 8.2617 44.145 13.215 67.094 13.215 24.715 0 47.691-4.9531 67.047-13.215 21.238-10 44.168-15.047 68.906-15.047s49.5 5.0469 68.855 15.047c21.215 8.2617 44.145 13.215 68.883 13.215l0.007813 94.594c-24.738 0-47.668-4.9766-68.859-13.215z"/>
 <path d="m1080.9 943.95c-19.332-10-44.145-14.906-68.855-14.906-24.715 0-47.668 4.9062-68.906 14.906-12.332 5.2852-26.453 8.5234-41.215 10.691v-190.48l93.691 58.43 4.0234 2.168h2.168l4.9766-1 1.832-2.168c3.5-4.0938 2.0703-9.4297-1.2148-13.238l-68.594-63.547c-0.71484-0.80859-3.4531-3.5703-9.3555-5.6172-5.2383-1.832-19.477-3.7852-27.523-4.8086v-6.5312h-3.4766l-0.69141-130.98c0.5-4.3828-2-9.5469-9-10.547-4.9766 0-8.0234 3.9766-9.332 8.1914l-17.047 91.855c-0.23828 0.71484-1.3086 4.668 0.11719 10.855 1.6172 7.2148 11.43 27.617 12.855 30.617h-0.71484l-0.30859-0.54687-0.76172 0.54687h-2.4766v1.668l-109.38 75.355c-4 2.1445-6.832 7.168-4.3555 12.285l4.4297 4.9766h3.9297l89.906-38.453c0.73828-0.19141 4.5938-1.5703 8.8828-6.2383 1.6445-1.8086 4.0938-5.3086 6.5703-9.1172v188.36c-21.285-0.66797-42.477-5.0469-62.094-12.738-21.168-10-44.145-14.906-68.855-14.906-24.715 0-47.691 4.9062-68.883 14.906-11.977 4.6914-24.617 7.9531-37.43 10.215l-0.003906-430.78 127.57 183.17c0.57031 0.59375 5.4062 5.7852 11.332 5.7852 1.8555 0 3.5703-0.5 5.2148-1.5469 7.1445-4.6172 5.1172-12.57 3.1914-15.832l-143.45-321.57c5.6914-8.9766 8.5-19.355 7-30.023-0.90625-6.6172-3.5469-12.617-7.1172-18.07 17.285-11.332 52.43-34.953 62.785-45.668 10.145-10.309 12.262-18.547 12.238-18.547l92.617-243.17c1.0938-4.5703 1.0938-13.117-5.8828-16.023l-4.3086-0.88281c-7.0938 0-10.617 7.168-10.617 7.1914l-183.55 297.64c-13.977-0.070313-27.93 5.2852-36.594 16.832-2.832 3.7383-4.3555 8-5.832 12.215-20.215-9.1172-57.145-25.309-71.523-28.406-11.168-2.4766-23-0.85547-23.023-0.83203l-264.34 48.094c-4.6172 1.4766-12.145 5.9062-11 13.406 1.2383 6.9531 7.3086 9.4766 13.477 9.4766h0.11719l363.93 1.0234c1.9766 2.4297 3.668 4.9531 6.168 7h-1.332v569.26c-12.047-2.2617-23.477-5.5234-33.809-9.9531-21.191-10-45.93-14.906-70.617-14.906-22.93 0-47.668 4.9062-68.855 14.906-3.668 1.5469-8.0234 2.3555-11.93 3.668l-0.007812-314.29c1.9766-2.4531 3.4531-5.2148 4.5234-8.2617l168.74-62c4.9766-1.2852 9.4297-5.9531 8.2617-12.5-1.0938-4.9062-4.832-7.2617-13.07-8.0234l-131.86 21.785c-0.97656 0.023438-6.1914 0.42969-13.238 5.0469-6.2148 3.9766-19.43 16.785-27.715 25.047-3.6445-2.8555-7.7383-5.168-12.594-5.9531-1.9062-0.26172-3.668 0.19141-5.5 0.26172l-123.12-129.05c-0.57031-0.76172-3.7383-4.4531-8.7148-4.4531l-4.1914 0.73828-1.5938 1.1172c-5.0234 3.5-4.9297 9.9766-2.3555 15.117l72.453 112.38c0.42969 0.85547 2.9766 5.5703 9.9297 10 5.7617 3.9297 21.285 10.43 32.145 14.809-0.23828 0.83203-0.76172 1.5234-0.88281 2.4062-1.2383 8.0234 1.2852 15.691 6.0469 21.547l-50.07 183.36c-2 5.1914-0.78516 11.855 5.5 14.5l3.6445 0.71484c6.0234 0 9.832-5.5938 10.883-7.3555l39.094-82.215v212.71c-7.0938 0.85547-13.977 2.1445-21.43 2.1445-22.953 0-45.93-5-67.07-13.285-21.215-10-44.191-14.906-68.883-14.906-24.715 0-47.645 4.9062-68.883 14.906-21.168 8.2852-44.117 13.285-67.094 13.285v94.57c23 0 45.953-4.9297 67.094-13.215 21.238-10 44.168-15 68.883-15 24.691 0 47.668 5 68.883 15 21.168 8.2852 44.117 13.215 67.07 13.215 24.715 0 47.645-4.9297 67.094-13.215 21.191-10 45.93-15 68.855-15 24.691 0 49.43 5 70.617 15 19.43 8.2852 42.383 13.215 67.07 13.215 23.023 0 45.977-4.9297 67.117-13.215 21.191-10 44.145-15 68.883-15s47.691 5 68.855 15c21.191 8.2852 44.145 13.215 67.094 13.215 24.715 0 47.691-4.9297 67.047-13.215 21.238-10 44.168-15 68.906-15s49.5 5 68.855 15c21.215 8.2852 44.145 13.215 68.883 13.215v-94.57c-24.809 0.027343-47.738-4.9727-68.93-13.258z"/>
</svg>
