<?xml version="1.0" encoding="UTF-8"?>
<svg width="1200pt" height="1200pt" version="1.1" viewBox="0 0 1200 1200" xmlns="http://www.w3.org/2000/svg">
 <path d="m833.41 258.29c0 86.027-69.738 155.76-155.76 155.76-86.027 0-155.76-69.734-155.76-155.76 0-86.023 69.734-155.76 155.76-155.76 86.023 0 155.76 69.738 155.76 155.76z"/>
 <path d="m928.5 452.52-79.93 0.14453-116.57 241.31c-11.691-4.7852-24.191-8.0469-37.191-9.4531l111.95-231.76-258.52 0.42969 131.19 261.86c0.09375 0 0.19141-0.023437 0.30859-0.023437 58.594 0 106 47.43 106 106.02 0 58.57-47.406 106.02-106 106.02-58.547 0-105.98-47.453-105.98-106.02 0-44.883 27.883-83.168 67.262-98.645l-134.86-269.17-271.48 0.43359v-376.14c0-42.094-34.094-76.262-76.191-76.262-42.145 0-76.238 34.168-76.238 76.262v452.36c0 42.07 34.094 76.191 76.238 76.191h271.38v593.93h488.45l0.42969-508.93h51.406v427.21c0 103.59 148.59 103.59 148.31 0v-477.62c0-102.84-81.762-188.14-189.98-188.14z"/>
</svg>
