<?xml version="1.0" encoding="UTF-8"?>
<svg width="1200pt" height="1200pt" version="1.1" viewBox="0 0 1200 1200" xmlns="http://www.w3.org/2000/svg">
 <path d="m560.21 399.19 0.27734 0.15625c24.312 15.047 149.83 66.625 290.43-65.207 56.449-57.348 83.172-144.7 83.172-144.7s-60 27.047-106.86 8.9766c-31.715-12.359-63.312-50.293-69.348-57.742-14.605-16.523-32.711-30.562-53.988-40.152-82.656-37.5-180.21-0.023438-217.85 83.449-36.508 81.332-3.207 175.1 74.168 215.21z"/>
 <path d="m1134 1089-150.45-469.39c-25.859-73.668-98.988-132.86-193.84-150.9-0.88672-0.15625-18.684-2.9883-24.406-3.625l-527.69-72.395-0.003906-310.49c0-41.328-33.504-74.82-74.809-74.82-41.316 0-74.82 33.492-74.82 74.82v375.76c0 37.402 27.625 69.035 64.68 74.137l300.94 41.184-33.898 82.262s-111.21 315.56-159.36 534.84h631.29c-34.656-269.43-79.355-483.36-79.355-483.36h48.59l135.53 429.95c32.168 99.402 168.86 58.543 137.61-47.969z"/>
</svg>
