<?xml version="1.0" encoding="UTF-8"?>
<svg width="1200pt" height="1200pt" version="1.1" viewBox="0 0 1200 1200" xmlns="http://www.w3.org/2000/svg">
 <path d="m592.26 242.5c-63.719 0-115.59-51.77-115.59-115.57 0-63.984 51.863-115.75 115.59-115.75 63.961 0 115.82 51.77 115.82 115.75 0.011718 63.801-51.855 115.57-115.82 115.57z"/>
 <path d="m1040.7 407.61v313.59h-86.184c0.19141-2.6172 1.8125-4.7266 1.8125-7.4141 60.77-112.84 46.766-652.75-194.38-553.88 0 0-54.613 20.809-55.957 144.57-2.3398 19.355-4.5977 57.133-5.8906 103.5l-232.82-0.003906 59.832-93.324-29.09-18.648-71.762 111.97h-5.8906c-30.984 0-56.102 25.129-56.102 56.102 0 18.012 9.0469 33.312 22.246 43.586l-346.51-0.003906v84.145h659.72c0.035156 12.109 0.035156 23.496 0.085937 31.789l-195.79-0.003906c-47.629 0-90.266 31.117-90.266 88.465l0.003906 404.68c0 38.41 22.789 70.414 61.367 70.414 43.309 0 66.457-35.074 66.457-73.621v-308.23h73.211v381.75h84.156v-381.75h341.76l-0.003906 381.75h84.156v-779.43zm-184.61 109.76v26.16h-152.53v-26.16h124.22v-160.05h28.309z"/>
</svg>
