<?xml version="1.0" encoding="UTF-8"?>
<svg width="1200pt" height="1200pt" version="1.1" viewBox="0 0 1200 1200" xmlns="http://www.w3.org/2000/svg">
 <path d="m998.35 934.04c-7.6914-18.203-20.137-30.938-37.391-37.945l-184.86-75.445c-11.773-4.7656-26.641-5.5195-44.617-1.6562l-182.11 42.406-73.594-171.16 174.9-108.24c15.695-9.7422 25.234-26.809 25.234-45.324v-173.04h-106.68v143.32l-220.86 136.73c-5.4258 3.3125-36.109 25.199-44.941 52.309-7.0664 21.742-7.7773 39.875-1.7383 58.922l90.086 216.62c6.5898 22.031 20.148 37.129 40.57 45.445 19.668 8.0391 42.781 9.625 69.457 5.0508l250.4-60.035 155.5 63.336c17.375 7.1406 35.113 7.1406 53.316-0.20312 18.133-7.0547 30.863-19.777 38.305-37.871 7.0312-17.297 6.7188-35.07-0.97266-53.215z"/>
 <path d="m675.91 265.11c0-29.484-23.891-53.398-53.328-53.398-29.449 0-53.352 23.93-53.352 53.398v72.012h106.68z"/>
 <path d="m410.32 512.75c0 56.316-45.625 101.93-101.99 101.93-56.305 0-101.93-45.602-101.93-101.93 0-56.281 45.625-102.05 101.93-102.05 56.363 0 101.99 45.77 101.99 102.05z"/>
 <path d="m7.6914 152.81-0.64844 2.293v29.988l517.06 147.21v-32.246z"/>
 <path d="m1191 169.37-472.34 135.14v32.605l472.34-135.28z"/>
</svg>
