<?xml version="1.0" encoding="UTF-8"?>
<svg width="1200pt" height="1200pt" version="1.1" viewBox="0 0 1200 1200" xmlns="http://www.w3.org/2000/svg">
 <path d="m697.56 872.27v31.379h-200.79v-31.379h-488.96c0 43.391 35.496 78.887 78.887 78.887h1022.7c43.391 0 78.887-35.496 78.887-78.887z"/>
 <path d="m1045.7 250.88h-895.63s-43.234 0-43.234 43.262v551.14h982.12v-551.14s0-43.262-43.25-43.262zm-606.97 95.172c40.332 0 73.031 32.699 73.031 73.031 0 40.332-32.699 73.031-73.031 73.031s-73.031-32.699-73.031-73.031c0-40.344 32.699-73.031 73.031-73.031zm189.8 431.41h-60.77l0.003906-159.5h-25.703l-0.046876 159.5h-204.9l-0.046875-159.5-26.676 0.38281v159.12h-60.758v-164.08c0-51.086 45.023-101.43 104.36-102.43l169.31-0.097656c60.406 0 105.21 50.531 105.21 102.14v164.46zm362.02 0.91016h-234.25v-196.02h234.25zm0-256.23h-234.25v-196.02h234.25z"/>
 <path d="m911.82 429.01c-9.7188 9.2266-22.789 14.977-37.246 14.977-14.438 0-27.469-5.7344-37.188-14.93-24.73 1.0195-41.93 22.094-41.93 43.57v24.59h158.83v-24.758c0-21.668-17.352-42.789-42.469-43.449z"/>
 <path d="m913.15 389.73c0 21.309-17.273 38.582-38.582 38.582-21.305 0-38.578-17.273-38.578-38.582 0-21.305 17.273-38.578 38.578-38.578 21.309 0 38.582 17.273 38.582 38.578z"/>
 <path d="m911.82 685.25c-9.7188 9.2266-22.789 14.977-37.246 14.977-14.438 0-27.469-5.7344-37.188-14.93-24.73 1.0195-41.93 22.094-41.93 43.57v24.59h158.83v-24.758c0-21.668-17.352-42.789-42.469-43.449z"/>
 <path d="m913.15 645.97c0 21.305-17.273 38.578-38.582 38.578-21.305 0-38.578-17.273-38.578-38.578 0-21.309 17.273-38.582 38.578-38.582 21.309 0 38.582 17.273 38.582 38.582z"/>
</svg>
