<svg xmlns="http://www.w3.org/2000/svg" width="1600" height="1600" viewBox="0 0 1200 1200"><path d="M468 877.2c-54-30-115.2-38.398-169.2-22.801-45.602 13.199-81.602 43.199-102 82.801-14.398 27.602-20.398 58.801-18 91.199 1.2 15.602 14.398 27.602 30 26.398 15.602-1.2 27.602-14.398 26.398-30-1.2-21.602 2.398-43.199 12-61.199 14.398-26.398 37.199-45.602 68.398-55.199 39.602-12 85.199-4.8 126 18 68.398 38.398 92.398 124.8 54 194.4-7.2 13.199-2.398 31.199 10.801 38.398 4.8 2.398 8.398 3.602 13.199 3.602 9.602 0 19.199-4.801 25.199-14.398 52.805-97.2 19.203-216-76.797-271.2z"/><path d="M1040.4 764.4c0-28.801-8.398-57.602-25.199-84-26.398-39.602-68.398-67.199-116.4-75.602-80.398-14.398-139.2 22.801-176.4 54-15.602-49.199-49.199-88.801-99.602-114-61.199-31.199-123.6-34.801-182.4-9.602-60 26.398-110.4 81.602-140.4 152.4-32.398-24-76.801-49.199-117.6-51.602-52.801-2.398-99.602 16.801-132 52.801-37.199 42-51.602 103.2-39.602 168 2.398 15.602 16.801 25.2 32.398 22.801 15.602-2.398 25.199-16.8 22.801-32.398-8.398-48 1.2-91.199 26.398-120 20.398-24 51.602-36 86.398-33.602 31.199 1.2 82.801 33.602 112.8 63.602 7.2 7.2 16.801 9.602 26.398 7.2 9.602-2.399 16.801-9.602 20.398-19.2 20.398-73.198 67.199-132 122.4-156 43.199-19.198 87.602-15.601 134.4 7.2 108 55.199 81.602 172.8 57.602 237.6-2.398 4.8-3.602 8.398-3.602 13.199 0 7.199 2.399 15.602 8.399 20.398 4.8 6 12 8.398 20.398 8.398 79.199 0 130.8 48 130.8 123.6 0 56.398-22.801 75.602-44.398 90-13.2 8.399-16.801 26.398-7.2 39.602 6 8.399 14.399 12 24 12 4.801 0 10.802-1.199 15.603-4.8 32.398-21.603 69.602-56.399 69.602-136.8 0-94.802-58.801-162-148.8-176.4 9.601-33.603 14.398-66 14.398-96l4.8-4.801c30-27.602 79.2-73.2 150-61.2 33.602 6 62.398 25.2 79.2 51.603 14.397 22.8 19.198 48 14.397 73.199-2.398 8.398 0 16.8 4.801 24s13.2 10.8 21.602 10.8c72 0 120 38.399 121.2 98.399 1.2 37.199-10.8 69.602-32.398 92.398-20.398 20.398-49.199 31.199-80.398 31.199-19.199 0-37.199-4.801-52.8-14.398-13.2-8.399-31.2-3.602-38.399 10.8-8.398 13.2-3.601 31.2 10.801 38.399 24 14.398 52.801 21.602 80.398 22.8h3.602c45.602 0 87.602-16.8 117.6-48 33.602-33.601 50.398-80.397 49.199-133.2-1.2-83.995-59.996-142.8-145.2-154.8zM550.8 170.4c54 0 106.8 1.2 154.8 4.8-25.199-57.601-88.801-97.198-164.4-97.198-75.602 0-140.4 40.8-164.4 99.602 53.996-6 112.8-7.203 174-7.203zM550.8 202.8c-277.2 0-501.6 44.398-501.6 99.602 0 55.199 224.4 99.602 501.6 99.602s501.6-44.398 501.6-99.602c-.004-55.203-225.6-99.602-501.6-99.602m2.398 148.8c-49.199 0-88.8-8.398-88.8-18s39.601-18 88.8-18S642 323.998 642 333.6c0 9.598-39.602 18-88.8 18"/></svg>