<svg xmlns="http://www.w3.org/2000/svg" width="1600" height="1600" viewBox="0 0 1200 1200"><path d="M429.2 790.08c14.711-14.711 32.902-22.176 54-22.176 20.508 0 38.375 7.465 53.113 22.176 14.734 14.676 22.199 32.508 22.199 53.113 0 21.18-7.465 39.359-22.199 54.023-14.734 14.676-32.605 22.141-53.113 22.141-21.109 0-39.289-7.465-54-22.141-14.734-14.676-22.188-32.844-22.188-54.023 0-20.602 7.453-38.434 22.188-53.113m31.645 75.457c6.238 6.215 13.668 9.336 22.355 9.336s16.164-3.121 22.379-9.336c6.191-6.203 9.29-13.633 9.29-22.344 0-8.64-3.087-16.129-9.29-22.344-6.215-6.168-13.691-9.336-22.379-9.336s-16.117 3.168-22.355 9.336c-6.215 6.215-9.29 13.715-9.29 22.344.013 8.71 3.075 16.141 9.29 22.344M931.21 791.41c14.676-14.387 32.52-21.684 53.051-21.684 21.121 0 39.289 7.297 54.047 21.684 14.711 14.508 22.199 32.52 22.199 53.566 0 20.555-7.465 38.438-22.199 53.113-14.723 14.762-32.891 22.262-54.047 22.262-20.531 0-38.41-7.512-53.09-22.223-14.723-14.711-22.176-32.555-22.176-53.148-.008-21.047 7.457-39.109 22.215-53.57m30.723 76.047c6.168 6.203 13.633 9.215 22.332 9.215 8.71 0 16.152-3 22.355-9.215 6.215-6.266 9.3-13.68 9.3-22.477 0-8.629-3.085-16.043-9.3-22.262-6.203-6.203-13.645-9.383-22.355-9.383-8.7 0-16.164 3.168-22.332 9.383-6.215 6.215-9.312 13.645-9.312 22.262 0 8.797 3.093 16.223 9.312 22.477"/><path d="m1167.2 760.29.121-51.816c0-23.195-.96-34.992-25.68-47.16l-155.94-76.066-112.59-170.4-149.5-.004v-136.56h-520.09v272.35H85.941v32.711h117.57v55.523H12.921v32.711l273.9.313-16.512 88.945-29.762.144v43.801c0 15.47 7.777 23.27 23.305 23.27l108.89.024c.024-.168.047-.325.059-.504v-2.965c2.496-24.863 14.398-46.355 35.953-64.32 22.355-18.648 47.172-27.898 74.496-27.898 27.348 0 51.984 9.254 74.039 27.898 22.008 18.625 33.984 41.016 35.832 67.066h281.3c1.87-26.051 13.969-48.277 36.312-66.625 22.367-18.254 47.195-27.422 74.508-27.422 27.324 0 51.984 9.168 74.039 27.422 22.008 18.348 33.996 40.57 35.855 66.625h71.125c15.527 0 23.305-7.79 23.305-23.27v-43.801zM656.24 319.68 478.86 498.25c-3.277 3.3-8.629 5.281-14.426 5.281-5.746-.023-10.992-2.015-14.387-5.473l-176.22-178.38zm-411.31 29.641 123.62 125.15-123.62 126.25zm28.766 281.17 123.94-126.59 22.906 23.184c11.039 11.258 26.965 17.762 43.992 17.844 16.645 0 32.555-6.36 43.656-17.473l22.512-22.656 122.76 125.68-379.77.004zm408.54-29.797-122.35-125.25 122.35-123.18zm133.98 30.18h-92.594v-154.21h73.199c10.668 0 19.391 8.723 19.391 19.391zm45.238-57.816v-95.34l66.938 95.34z"/></svg>