<svg xmlns="http://www.w3.org/2000/svg" width="1600" height="1600" viewBox="0 0 1200 1200"><path d="M640.71 634.57c0 15.773-12.785 28.562-28.559 28.562s-28.559-12.789-28.559-28.562 12.785-28.559 28.559-28.559 28.559 12.785 28.559 28.559M640.71 727.38c0 15.773-12.785 28.562-28.559 28.562s-28.559-12.789-28.559-28.562 12.785-28.559 28.559-28.559 28.559 12.785 28.559 28.559M724.93 634.57c0 15.773-12.789 28.562-28.562 28.562s-28.559-12.789-28.559-28.562 12.785-28.559 28.559-28.559c15.773 0 28.562 12.785 28.562 28.559M724.93 727.38c0 15.773-12.789 28.562-28.562 28.562s-28.559-12.789-28.559-28.562 12.785-28.559 28.559-28.559c15.773 0 28.562 12.785 28.562 28.559"/><path d="M906.19 576.02c-5.34-17.137-21-28.656-38.977-28.656-4.117 0-8.219.625-12.191 1.871l-56.195 17.555v-185.7c0-32.543-20.23-51.527-50.965-51.527l-182.58-.004c-31.367 0-53.387 18.395-53.387 51.527v281.58c-28.465 12.36-97.895 45.938-102.16 48.098-34.355 17.508-60.266 57.695-66.109 73.871-7.14 16.211-167.23 414.84-167.23 414.84h331.86s80.375-33.707 123.16-80.375c18.023-19.668 32.41-46.297 42.395-68.27h76.633c27.59 0 48.371-17.785 48.371-53.258v-30.156h35.566c22.523 0 40.824-18.3 40.824-40.824s-18.301-40.812-40.824-40.812h-35.566v-13.62h36.539c22.523 0 40.836-18.313 40.836-40.825 0-22.535-18.312-40.848-40.836-40.848h-36.539v-13.62h36.539c22.523 0 40.836-18.302 40.836-40.825s-18.312-40.824-40.836-40.824h-36.539v-42.852l80.578-25.176c10.402-3.254 18.938-10.355 24-20.039 5.055-9.652 6.05-20.69 2.797-31.133zM762.18 956.25h-.3v13.848H566.11c-.696 18.012-3 39.672-8.954 62.496-15.156 58.223-65.062 91.043-67.176 92.41a11.55 11.55 0 0 1-6.324 1.871c-3.816 0-7.57-1.871-9.793-5.328-3.504-5.41-1.957-12.625 3.457-16.129.434-.277 44.352-29.484 57.277-78.695 13.715-52.32 6.852-98.688 6.793-99.168a11.3 11.3 0 0 1 0-2.93h132.83c27.227 0 54.445-16.379 54.445-48.59 0-32.23-23.988-52.512-54.445-52.512l-225.55.004v-23.34h99.805v-426.43h213.71zM466.82 107.2c7.164 7.14 18.707 7.2 25.859 0 88.934-88.922 233.62-88.945 322.55 0l1.273 1.477c6.696 7.152 18.648 7.355 25.922.254 7.211-7.106 7.356-18.672.254-25.824-.406-.551-.984-1.188-1.57-1.825-103.2-103.18-271.14-103.18-374.32 0-7.144 7.188-7.121 18.777.031 25.918"/><path d="M523.88 164.27c7.164 7.176 18.707 7.176 25.859 0 57.457-57.457 150.97-57.395 208.43.035l1.285 1.442c6.625 7.222 18.684 7.39 25.883.277 7.246-7.094 7.367-18.707.278-25.922a23 23 0 0 0-1.56-1.692c-71.745-71.785-188.47-71.797-260.2-.07-7.155 7.172-7.132 18.738.02 25.93"/><path d="M577.95 218.33c7.2 7.152 18.73 7.176 25.906.012 27.434-27.395 71.891-27.625 99.574-.625a29 29 0 0 0 1.715 2.015c6.793 6.77 18.602 7.5 25.906.54 7.308-6.997 7.558-18.603.562-25.935.11 0-.718-.984-1.586-1.882-41.977-41.965-110.16-41.914-152.09-.036a18.304 18.304 0 0 0 .012 25.91M672.71 241.5c-9.984-9.996-26.258-10.008-36.215-.012-10.055 9.996-10.008 26.27-.023 36.277 9.984 9.996 26.258 9.996 36.289-.035 9.996-9.988 9.996-26.21-.051-36.23M654.61 574.91c-45.48 0-82.488-36.996-82.488-82.488s37.008-82.477 82.488-82.477 82.477 36.996 82.477 82.477-36.996 82.488-82.477 82.488m0-133.03c-27.875 0-50.555 22.668-50.555 50.543s22.68 50.555 50.555 50.555c27.863 0 50.555-22.68 50.555-50.555s-22.691-50.543-50.555-50.543"/></svg>