<svg xmlns="http://www.w3.org/2000/svg" width="1600" height="1600" viewBox="0 0 1200 1200"><path d="M507.93 362.7c-81.781 0-157.21 61.43-172.87 129.06-3.48 15.035-7.43 54.324-7.43 54.324l-48.55 94.836c-.759 1.68-1.118 3.637-1.118 5.64 0 8.004 6.469 14.52 14.508 14.52h35.172v50.364c0 47.316 31.79 71.125 71.04 71.125h28.245v55.176h192.35v-153c41.941-32.977 68.93-84.254 68.93-141.74-.012-99.602-80.676-180.3-180.27-180.3zM391.18 568.25c-10.188 0-18.445-8.258-18.445-18.445s8.258-18.445 18.445-18.445 18.445 8.258 18.445 18.445c0 10.203-8.258 18.445-18.445 18.445M789.97 568.89c11.242 0 20.352-9.121 20.352-20.363s-9.121-20.352-20.352-20.352c-11.258 0-20.363 9.11-20.363 20.352 0 11.246 9.117 20.363 20.363 20.363M942.94 641.2l-2.242-18.406a2065 2065 0 0 0 47.46-6.371l2.712 18.336c-15.207 2.254-31.336 4.414-47.93 6.441zM1147 598.07l-7.246-17.062c20.988-8.941 28.465-16.922 28.465-21.422 0-2.902-3.203-6.863-8.762-10.871l10.824-15.059c10.945 7.871 16.488 16.586 16.488 25.945-.012 14.48-13.023 27.082-39.77 38.469zM1143 539.59c-11.387-5.125-26.219-10.188-44.102-15.035l4.836-17.902c18.84 5.102 34.62 10.5 46.87 16.031zM1079.1 519.57c-14.09-3.3-29.785-6.527-46.68-9.59l3.3-18.254c17.196 3.11 33.216 6.395 47.606 9.77zM1012.2 506.51c-14.867-2.45-30.793-4.812-47.328-7.031l2.473-18.383c16.727 2.258 32.82 4.644 47.867 7.117zM944.44 496.84a2332 2332 0 0 0-47.641-5.398l1.922-18.457c16.477 1.703 32.629 3.527 48 5.449zM1100.8 613.29c9.492-2.52 18.254-5.09 26.113-7.703l-5.844-17.605c-5.902 1.957-12.348 3.898-19.246 5.809l-80.832-28.935 8.16 44.88c-6.707 1.199-13.559 2.375-20.64 3.503l2.964 18.312a1392 1392 0 0 0 20.988-3.574l6.817 37.465zM256.46 641.2l2.242-18.406a2056 2056 0 0 1-47.46-6.371l-2.712 18.336c15.22 2.254 31.332 4.414 47.93 6.441zM187.95 631.57l2.953-18.312c-16.703-2.7-32.508-5.555-46.969-8.496l-3.707 18.168c14.711 2.992 30.766 5.894 47.723 8.64zM119.76 618.5l4.14-18.086c-17.362-3.996-32.687-8.172-45.55-12.445l-5.844 17.605c13.426 4.453 29.312 8.797 47.254 12.926zM52.402 598.07l7.262-17.062c-21-8.941-28.488-16.922-28.488-21.422 0-2.902 3.203-6.863 8.773-10.871l-10.812-15.07c-10.945 7.871-16.5 16.586-16.5 25.945.012 14.492 13.008 27.094 39.766 38.48zM56.398 539.59c11.363-5.125 26.207-10.188 44.09-15.035l-4.848-17.902c-18.84 5.102-34.609 10.5-46.883 16.031zM216.74 501.97c5.844-.852 11.746-1.68 17.785-2.496l-2.473-18.383c-6.36.851-12.59 1.738-18.742 2.629l-7.86-41.785-62.628 53.785c-9.422 1.894-18.383 3.828-26.785 5.797l4.246 18.059c7.57-1.778 15.625-3.528 24.07-5.258l80.004 28.105zM254.96 496.84a2349 2349 0 0 1 47.629-5.398l-1.906-18.457c-16.488 1.703-32.641 3.527-48 5.449z"/><path d="m924.04 629.59-44.832-87.84c-.984-9.758-3.973-37.465-6.863-50.27-14.723-64.98-76.078-134.9-176.03-134.9-21.06 0-52.355 6.086-72.203 15.383 4.558 3.516 15.023 11.676 18.863 15.469 2.425 2.41 5.914 6 8.832 9.035 14.34-4.547 29.27-6.851 44.496-6.851 81.805 0 131.9 56.594 143.81 109.18 2.46 10.824 5.543 39.277 6.539 49.332l.3 3.109 44.677 87.48h-45.06v71.832c0 25.836-8.363 43.043-49.21 43.043h-42.625v52.164h-108.62v33.035h141.64l-.004-52.188h9.613c71.555 0 82.246-47.676 82.246-76.066v-38.809h16.871c16.512 0 29.941-13.559 29.941-30.238.016-4.242-.777-8.234-2.375-11.895z"/></svg>