<svg xmlns="http://www.w3.org/2000/svg" width="1600" height="1600" viewBox="0 0 1200 1200"><path d="M474.43 519.86c38.207-7.656 63.086-45.266 55.355-83.914-7.79-38.734-45.168-63.781-83.41-56.125-38.293 7.668-63.047 45.145-55.297 83.879 7.715 38.641 45.047 63.816 83.352 56.16M457.8 1039.4l67.57-163.25c8.785-21.254-.07-45.684-20.438-56.363l-118.46-62.102 102.38-99.805 173.26 123.8-64.645 25.129 12.551 32.305 574.46-222.11-13.367-33.07-432.46 167.98-284.72-211.66c-17.484-11.629-35.426-14.09-57.336-4.441l-259.59 115.75c-18.312 8.171-26.543 29.64-18.371 47.953 6.023 13.512 19.285 21.527 33.191 21.527 4.945 0 9.96-1.008 14.762-3.157l127.19-56.734-270.1 324.35a39 39 0 0 0-2.281 3.059c-.613.887-1.055 1.836-1.61 2.746-.109.227-.265.457-.359.66-9.562 16.754-7.61 38.34 6.48 52.895 8.723 9.012 20.329 13.535 31.946 13.535 11.137 0 22.285-4.164 30.91-12.516l203.08-196.6 132.43 38.641-48.625 117.48c-6.887 16.645-2.832 35.016 8.722 47.352h-80.305v25.332h482.05v-25.332h-337.08c3.59-3.82 6.649-8.234 8.762-13.37z"/><path d="M1147 344.24c-85.309-118.82-250.46-51.539-281.3-89.566-37.332-46.043 18.301-126.66 18.301-126.66l-236.81 92.891s-34.824 46.441-41.855 81.625c-30.023 150.25 165.21 148.89 189.31 226.41 26.461 85.066-11.543 165.01-11.543 165.01l354.19-138.93c-.012.004 53.52-149.77 9.707-210.79z"/></svg>