<svg xmlns="http://www.w3.org/2000/svg" width="1600" height="1600" viewBox="0 0 1200 1200"><path d="M805.2 430.8c-70.801-42-139.2-62.398-196.8-70.801-14.398-18-31.199-38.398-50.398-56.398-40.801-39.602-96-70.801-96-70.801s24 51.602 43.199 104.4c-7.2-4.8-14.398-8.398-21.602-13.199-45.602-26.398-100.8-43.199-100.8-43.199s34.801 42 62.398 84c-1.195-1.2-438-145.2-438-145.2l362.4 242.4-34.797 42 8.398 84-80.398 205.2 64.801 94.801H420l92.398-132 61.2-2.398 72-85.2 18 15.603-56.399 67.199 60 223.2h528c-2.398 2.398-79.199-358.8-390-543.6zM488.4 546c-12 0-22.801-9.602-22.801-22.801 0-12 9.602-22.801 22.801-22.801 12 0 22.801 9.602 22.801 22.801 0 12-10.801 22.801-22.801 22.801"/></svg>