<svg xmlns="http://www.w3.org/2000/svg" width="1600" height="1600" viewBox="0 0 1200 1200"><path d="M1155.8 936.2c-.395-6.266-9.144-119.35-81.551-241.05-105.49-177.28-199.68-140.46-225.25-118.89l-119.59 102.06v-78.383c0-26.316-21.336-47.652-47.652-47.652-26.328 0-47.664 21.336-47.664 47.652v181.71a47.6 47.6 0 0 0 27.695 43.262 47.45 47.45 0 0 0 19.957 4.379 47.6 47.6 0 0 0 30.938-11.398l150.27-128.26c32.426 32.426 64.379 98.426 83.555 148.7l-128.09-40.812c-23.652-9.84-50.965-3.203-67.453 16.402-16.512 19.609-18.395 47.629-4.691 69.277l149.65 267.23c19.57 31.895 51.48 47.832 87 26.102 29.605-18.121 31.523-56.93 10.859-91.727l-67.43-117.07 132.68 57.648c18.73 7.777 42.742 8.352 65.242-5.45 28.156-17.27 32.8-63.491 31.527-83.726z"/><path d="M918.88 462.61c0 48.391-39.23 87.621-87.621 87.621-48.395 0-87.625-39.23-87.625-87.621 0-48.395 39.23-87.625 87.625-87.625 48.391 0 87.621 39.23 87.621 87.625M44.141 171.63l118.44-160.99 178.27 131.15-118.44 160.99zM580.54 334.43l17.82-24.223 69.711 51.285-17.82 24.223zM724.52 459.43l-24.707-18.168-22.68 30.84-56.867-41.82 18.383-24.996-293.52-215.92-76.008 103.33 293.53 215.93 18.383-24.996 81.566 59.965zM745.23 1159.7 500.67 495.65c-.047-.156-.156-.266-.215-.422-.312-.781-.707-1.512-1.094-2.242-.289-.563-.562-1.152-.91-1.691-.394-.614-.875-1.153-1.32-1.715-.457-.563-.875-1.14-1.367-1.656-.469-.493-.996-.887-1.512-1.332-.562-.48-1.105-.985-1.703-1.403-.563-.394-1.2-.719-1.8-1.043-.626-.347-1.235-.73-1.884-1.02-.613-.277-1.261-.445-1.906-.66-.719-.253-1.441-.503-2.195-.683-.574-.133-1.164-.18-1.766-.254-.875-.121-1.738-.254-2.617-.254-.156 0-.29-.047-.445-.047-.48 0-.926.098-1.39.133-.829.047-1.669.098-2.497.254-.781.133-1.523.371-2.27.59-.492.144-.984.203-1.476.383-.18.058-.313.156-.48.226-.504.203-.962.446-1.43.672-.035.024-.086.047-.133.07a22.03 22.03 0 0 0-9.48 8.977c-.348.54-.672 1.14-.973 1.777-.11.254-.215.504-.324.758-.086.215-.192.395-.266.613l-244.54 664.02c-4.223 11.426 1.644 24.133 13.094 28.344a22 22 0 0 0 7.633 1.356c8.988 0 17.438-5.52 20.71-14.45l173.47-471.02h28.286v463.39c0 12.192 9.898 22.079 22.078 22.079 12.19 0 22.078-9.887 22.078-22.078v-463.39h28.285l173.47 471.02c3.277 8.93 11.746 14.449 20.734 14.449 2.53 0 5.101-.434 7.633-1.356 11.438-4.226 17.293-16.922 13.078-28.348z"/></svg>