<svg xmlns="http://www.w3.org/2000/svg" width="1600" height="1600" viewBox="0 0 1200 1200"><path d="M271.25 289.23H5v-42.609h266.25zM271.25 227.46h-49.379v-62.617h49.379zM1190.1 489.39a8.815 8.815 0 0 0-12.492-.742l-225.23 199.85c-10.164-34.008-38.09-61.285-75.059-68.7-49.859-9.995-98.629 19.79-113.8 67.767l-318.83-.004v124.22h-6.48c-9.985-10.766-21.637-19.945-34.68-26.941V680.97l2.328-1.633 403.77-149.11v-110.57h171.68V390.08H907.35V227.36h-29.594v162.72H780.04v119.53L501.08 612.62l265.29-185.8v-88.176h52.055V273.89H766.37v-42.48h-194.3v-62.102h-49.38v62.102h-221.81v73.055h392.45v84.34l-313.89 219.88h-100.44v176.17c-41.651 22.31-70.065 66.238-70.065 116.71 0 72.961 59.363 132.32 132.34 132.32 63.156 0 116.04-44.496 129.14-103.75h24.19c13.106 59.258 66 103.75 129.13 103.75 63.157 0 116.05-44.496 129.14-103.75h26.16c13.13 59.258 66 103.75 129.14 103.75 72.985 0 132.34-59.363 132.34-132.32 0-39.37-17.362-74.676-44.745-98.94h34.848v-101.9H965.29l224.05-198.82c3.66-3.25 3.984-8.845.754-12.505zM341.27 948.74c-26.027 0-47.207-21.18-47.207-47.195 0-26.027 21.18-47.207 47.207-47.207s47.207 21.18 47.207 47.207c.004 26.027-21.18 47.195-47.207 47.195m282.48 0c-26.016 0-47.195-21.18-47.195-47.195 0-26.027 21.18-47.207 47.195-47.207 26.039 0 47.219 21.18 47.219 47.207-.012 26.027-21.18 47.195-47.219 47.195m284.44 0c-26.016 0-47.195-21.18-47.195-47.195 0-26.027 21.18-47.207 47.195-47.207 26.039 0 47.219 21.18 47.219 47.207-.012 26.027-21.18 47.195-47.219 47.195"/></svg>