<svg xmlns="http://www.w3.org/2000/svg" width="1600" height="1600" viewBox="0 0 1200 1200"><path d="M172.92 771.86 8.23 908.31v163.61l248.43-209.34zM1051.5 361.6h140.29v155.05H1051.5zM1051.5 254.98h90.312v80.809H1051.5zM1024.3 228.32c-45.156-.781-95.051.742-146.54 5.578-113.66 10.668-208.23 58.906-256.46 88.152-16.945-19.848-41.93-37.367-159.68-58.512-9.457-1.691-19.273-1.02-28.367 1.86l-114.53 35.733-309.75-199.64v51.54l303.31 195.52 133.92-41.786a16.3 16.3 0 0 1 7.754-.55c62.785 11.28 93.145 20.566 108.48 28.39 24.086 9.348 47.27 35.16 47.27 62.532l-.238 68.914c-.036 9.742-3.84 18.91-10.766 25.789-6.887 6.863-16.031 10.633-25.715 10.633h-.098c-9.758-.035-18.926-3.84-25.801-10.754-6.875-6.91-10.645-16.094-10.621-25.848l.227-86.594-16.945 17.977c-62.363 67.5-122.36 103.41-168.62 100.81-71.652-3.817-94.414-33.613-96-35.746l-33.395 27.898c12.133 13.738 52.44 47.578 130.29 51.719 4.21.215 8.437.156 12.648-.012l-121.03 97.715s-26.88-18.191-35.902-46.57c-4.598-14.484-3.301-39.637-.278-55.945l2.7-14.328-201.18-130.45v51.602l153.65 99.816c-3.997 19.645-9.266 85.344 46.44 123.55l-52.008 43.152 156.86 166.13 115.22-92.398 8.762 5.652c9.625 6.203 22.094 8.774 33.277 8.774 4.152 0 8.34-.446 12.48-1.332 15.36-3.301 27.852-13.02 36.371-26.207 9.852-15.277 8.977-35.363 3.898-51.492l4.883 3.156c9.625 6.203 20.594 9.422 31.766 9.422 4.153 0 8.34-.446 12.492-1.332 15.36-3.313 28.5-12.406 37.008-25.61 8.52-13.175 11.375-28.894 8.063-44.27-.551-2.605-1.356-5.136-2.242-7.609a55.1 55.1 0 0 0 22.789 4.922c18.254 0 36.156-8.964 46.766-25.414 8.183-12.695 10.44-27.492 7.609-41.219 18.684-11.27 57.73-29.219 130.26-41.605 85.836-14.652 203.06-10.465 203.06-10.465zM494.87 754.65c-4.644 7.21-11.809 12.156-20.195 13.957s-16.98.215-24.18-4.43l-41.27-26.629c-7.21-4.644-12.18-11.82-13.992-20.207-1.812-8.375-.254-16.934 4.402-24.133 9.602-14.867 29.473-19.176 44.375-9.562l41.27 26.629c14.871 9.598 19.164 29.52 9.59 44.375zm92.82-63.938c-4.644 7.21-11.82 12.18-20.195 13.969-8.387 1.836-16.957.238-24.156-4.402l-81.793-52.777c-14.891-9.602-19.199-29.508-9.602-44.375 9.602-14.867 29.496-19.152 44.375-9.551l81.793 52.777c7.211 4.644 12.18 11.82 13.97 20.207 1.812 8.387.242 16.965-4.391 24.152zm68.617-76.727c-9.156 14.184-28.043 18.254-42.227 9.11l-60.926-39.313c-14.184-9.132-18.277-28.03-9.121-42.227 9.133-14.148 28.043-18.227 42.227-9.085l60.926 39.312c14.16 9.156 18.238 28.055 9.121 42.203zM1106.8 657.25 928.51 831.16h151.85L775.69 1098.5l128.44-204.46H794.86l111.29-233.57z"/></svg>