<svg xmlns="http://www.w3.org/2000/svg" width="1600" height="1600" viewBox="0 0 1200 1200"><path d="M597.78 19.789c-43.02 19.598-63.875 71.977-43.57 116.58 20.41 44.797 74.195 64.812 117.21 45.191 44.699-20.34 64.859-74.016 44.508-118.79-20.316-44.602-73.453-63.344-118.15-42.98zM944.41 251.51c-10.176-22.055-36.277-31.645-58.332-21.539l-137.32 63.266-132.28-84c-3.457-2.184-47.988-28.57-89.855-10.922l-311.93 138.18c-22.199 9.816-32.207 35.785-22.367 57.996 7.262 16.414 23.352 26.16 40.211 26.16 5.941 0 12-1.21 17.785-3.781l215-95.23-63.254 166.62c-6.277 16.246-5.89 32.328-2.258 42.492l9.446 33.098h-34.367c-15.72 0-28.478 12.758-28.478 28.477 0 15.73 12.758 28.488 28.477 28.488h50.641l39.457 138.19c-71.242 37.895-119.91 112.89-119.91 199.13 0 124.19 103.16 229.11 225.25 229.11 126.31 0 229.07-102.76 229.07-229.11 0-79.332-41.964-149.1-105.1-189.28l97.669-172.59c.156-.266.132-.469.226-.73 2.113-3.852 3.875-7.934 4.934-12.384 6.422-27.012-10.246-54.098-37.246-60.504l-195.05-46.379 6.793-7.547 71.855-138.14 78.324 49.727a44.1 44.1 0 0 0 23.578 6.84c6.254 0 12.539-1.32 18.395-4.02l159.09-73.272c22.059-10.152 31.703-36.29 21.539-58.344zm-207.8 706.62c0 91.703-74.605 166.3-166.27 166.3-88.043 0-162.45-76.152-162.45-166.3 0-56.23 30.348-106.78 75.109-136.11l47.762 167.26s9.469 38.41 48.672 37.824c4.106-.086 8.27-.492 12.445-1.547 26.879-6.863 43.129-34.234 36.277-61.117l-20.41-80.125c14.23-2.52 27.324-10.789 34.98-24.324l20.688-36.562c44.129 29.29 73.195 78.742 73.195 134.7zm-74.496-336.39-63.852 112.79c-9.18-1.105-18.445-1.836-27.926-1.836-.422 0-.805.047-1.2.07l-28.284-111.02z"/></svg>