<svg xmlns="http://www.w3.org/2000/svg" width="1600" height="1600" viewBox="0 0 1200 1200"><path d="M693 585v151.55h129.24c11.766 0 21.703 4.078 30 12.375s12.375 18.234 12.375 30c0 12.469-4.312 23.062-12.938 31.688l-144.61 144.61c-8.625 12.469-20.766 18.844-36.375 18.844-12.609 0-22.922-4.312-31.219-12.938s-12.375-18.844-12.375-30.609c0-7.781 1.922-15.234 5.86-22.312l82.311-82.219H477.9l81.141 82.219c3.938 7.078 5.86 14.531 5.86 22.312 0 11.766-4.313 21.938-12.938 30.609-8.625 8.625-18.844 12.938-30.61 12.938-15.608 0-27.843-6.234-36.374-18.844l-144.61-145.69c-8.625-8.625-12.938-18.844-12.938-30.609s4.078-21.703 12.375-30 18.234-12.375 30-12.375h129.24v-153.94l-115.22 115.22c-7.078 7.078-15.703 10.547-25.922 10.547-24.234 0-36.375-12.141-36.375-36.469 0-9.375 3.469-17.156 10.547-23.531l148.08-148.08c10.922-11.766 24.703-17.625 41.156-17.625h146.86c16.453 0 30.609 5.86 42.375 17.625l146.86 148.08c7.078 6.234 10.547 14.531 10.547 24.703q0 35.297-35.297 35.297c-11.062 0-20.062-3.469-27-10.547l-112.78-112.78zM546.71 446.86c-13.688-13.688-20.531-30.375-20.531-49.922s6.844-36.234 20.531-49.922 30.375-20.531 49.922-20.531 36.234 6.844 49.922 20.531 20.531 30.375 20.531 49.922-6.844 36.234-20.531 49.922-30.375 20.531-49.922 20.531-36.234-6.844-49.922-20.531M457.92 1178.5c-37.453-6-56.297-13.219-56.297-21.703 0-8.531 18.703-15.703 56.297-21.703 37.453-6 83.062-9 136.55-9 53.531 0 99 3 136.55 9 37.453 6 56.156 13.219 56.156 21.703 0 8.531-18.703 15.844-56.156 21.703q-56.32 9-136.55 9c-53.531 0-99.141-3-136.55-9"/><path d="M882.84 622.55c-3.14 0-6.234-.937-8.86-3-6.374-4.922-7.546-14.062-2.624-20.531 47.062-61.219 72-134.16 72-210.84 0-191.06-155.53-346.55-346.55-346.55-191.06 0-346.55 155.53-346.55 346.55 0 76.781 24.844 149.76 71.859 210.84 4.921 6.375 3.703 15.609-2.625 20.531-6.375 4.922-15.61 3.703-20.531-2.625-51-66.234-77.86-145.31-77.86-228.71-.187-207.14 168.28-375.74 375.52-375.74s375.71 168.61 375.71 375.71c0 83.297-27 162.37-78 228.71-2.859 3.703-7.218 5.625-11.624 5.625z"/></svg>