<svg xmlns="http://www.w3.org/2000/svg" width="1600" height="1600" viewBox="0 0 1200 1200"><path d="M1039.1 887.29c-.254-.086-5.664-1.824-5.629-1.86-64.44-15.862-314.07-88.331-425.14-284.36-27.852-49.151-38.398-81.288-52.992-125.77-3.805-11.593-7.894-24.07-12.684-38.003-29.316-85.391-71.965-114.11-78.312-117.98-23.039 54.133-34.922 115.67-33.55 182.54 1.644 78.023 23.722 146.59 58.354 206.39-45.469 43.02-100.07 77.988-151.62 105.21-16.934-15.156-33.145-31.453-48.266-48.72-47.543-54.382-124.6-165.85-106.27-301.38 11.45-84.741 63.758-134.4 93.95-156.43 36.526-26.687 78.405-41.374 116.11-41.374 7.894 0 15.573.636 23.015 1.945 16.43 2.867 39.348 8.7 63.254 20.219l-.035.07c.023.012.047.012.086.024 2.41 1.234 59.496 31.859 96.012 138.27 4.86 14.102 8.988 26.734 12.852 38.473 14.473 44.16 24.047 73.344 50.219 119.5 22.078 38.977 50.496 72.84 82.094 102.17 27.684-54.445 44.953-115.73 46.402-184.34 1.644-80.22-15.574-152.93-48.551-214.15 23.94-11.531 46.87-17.316 63.289-20.22 42.984-7.511 94.957 7.176 139.13 39.435 30.19 22.043 82.5 71.688 93.949 156.43 18.406 136.16-58.61 247.85-106.19 302.32-8.375 9.59-17.172 18.793-26.195 27.77 92.566 44.46 175.01 62.438 175.86 62.762 101.8-127.01 147.16-273.66 127.95-415.98-14.867-109.91-72.875-206.84-163.36-272.96-82.586-60.383-181.34-86.051-271.19-70.094-57.47 10.176-108.85 30.613-152.76 59.578-43.906-28.97-95.258-49.441-152.72-59.578-89.891-15.961-188.65 9.757-271.23 70.094-90.445 66.12-148.45 163.07-163.32 272.96C-8.74 590.9 43.65 746.57 159.142 878.64c1.98 2.242 3.973 4.523 6 6.757-3.887 1.188-6.121 1.813-6.422 1.895-46.02 12.707-73.008 60.336-60.289 106.4 12.707 45.938 60.121 72.828 106.4 60.3 6.11-1.702 49.344-14.675 109.79-38.987 95.027-38.23 166.07-83.832 190.21-100.37 32.27-21.562 64.199-45.852 94.066-73.02 30.109 27.359 62.23 51.805 94.754 73.465-32.473 11.23-64.262 17.316-93.648 17.352-16.523-.863-33.77-2.82-51.422-6.191-29.23 21.168-67.621 46.906-108.12 68.27-29.688 15.648-59.566 29.64-85.789 41.207 81.145 44.363 166.8 69.66 245.21 69.66h.3c90.099-.086 189.83-33.527 281.11-91.117 61.224 25.465 105.52 38.004 111.68 39.73 45.985 12.59 93.528-14.23 106.32-60.203 12.685-46.012-14.206-93.641-60.19-106.48z"/></svg>