<svg xmlns="http://www.w3.org/2000/svg" width="1600" height="1600" viewBox="0 0 1200 1200"><path d="m797.27 601.22.18.11c16.69 10.32 102.83 45.706 199.33-44.763 38.746-39.336 57.07-99.289 57.07-99.289s-41.184 18.562-73.344 6.145c-21.758-8.473-43.441-34.5-47.566-39.625-10.031-11.34-22.465-20.965-37.055-27.551-56.746-25.738-123.71-.024-149.53 57.254-25.06 55.836-2.2 120.2 50.914 147.72z"/><path d="m1156.7 1049-98.281-306.66c-10.5-36.91-70.355-102.38-151.23-102.38h-150.24l-277.45-287.44c-18.684-19.344-49.453-19.883-68.773-1.21-4.488 4.308-7.812 9.3-10.262 14.64l-.11-.035c-.109.277-.214.562-.347.852-.168.382-.3.769-.469 1.199-4.152 9.926-4.61 18.852-2.93 26.762.012.058.012.12.036.18a41 41 0 0 0 1.343 4.882c2.137 7.367 5.832 14.387 11.508 20.293l.29.29c1.753 2.23 3.539 4.32 5.136 6.19l290.14 339.29s-72.66 206.16-104.1 349.41h397.39c-22.668-176.03-51.852-315.8-51.852-315.8h31.738l88.56 280.87c21.034 64.946 110.35 38.255 89.913-31.331zM546.24 274.25l11.328-48.812 637.04 131.52-11.34 48.805zM4.21 315.61l361.57-95.246 11.353 44.195-361.61 95.223zM650.53 385.93l-142.57-90.531-15.41 22.395 142.55 90.562zM314.4 332.54l-146.42 48.805 83.664 20.918-20.918 69.742h76.707zM207.17 94.801l113.35-37.355 23.738 119.68zM491.3 186.12l56.109-137.68L611.55 155.9zM735.37 160.8l46.406 46.223 24.203-45.516-24.012-49.969zM344.26 619.36l52.727 52.523 27.492-51.66-27.312-56.758zM418.6 105.74l-27.457 54.891 61.762 27.457z"/></svg>