<svg xmlns="http://www.w3.org/2000/svg" width="1600" height="1600" viewBox="0 0 1200 1200"><path d="M896.39 549.84c-61.078-32.531-120.61-67.453-162.37-99.141-111.84-85.078-211.31-280.22-211.31-280.22l-221.53 566.06s200.76-60.844 340.92-50.766c51.375 3.703 119.16 18.234 186.94 36.141l67.219-172.08zM928.45 542.63l-185.06 464.53 87.234 20.766 159.37-236.76 136.22 43.688 65.625-167.86s-113.53-48.609-263.29-124.31zm177.61 203.16c-9.844 0-17.766-7.922-17.766-17.766s7.922-17.766 17.766-17.766 17.766 7.922 17.766 17.766-7.922 17.766-17.766 17.766M340.31 460.69c-12.234-4.781-18.234-18.703-13.453-30.938s18.703-18.234 30.938-13.453 18.234 18.703 13.453 30.938c-3.703 9.375-12.703 15.141-22.219 15.141-2.86 0-5.86-.469-8.766-1.687zM260.86 429.37c-12.234-4.781-18.234-18.703-13.453-30.938s18.703-18.234 30.938-13.453 18.234 18.703 13.453 30.938c-3.703 9.375-12.703 15.141-22.219 15.141-2.86 0-5.86-.469-8.766-1.687zM181.45 398.06c-12.234-4.922-18.234-18.703-13.453-30.938s18.703-18.234 30.938-13.453 18.234 18.703 13.453 30.938c-3.703 9.375-12.703 15.141-22.219 15.141-2.86 0-5.86-.469-8.766-1.687zM102 366.71c-12.234-4.781-18.234-18.703-13.453-30.938s18.703-18.234 30.938-13.453 18.234 18.703 13.453 30.938c-3.703 9.375-12.703 15.141-22.219 15.141-2.86 0-5.86-.469-8.766-1.687zM31.312 337.08c-1.547 0-3.14-.14-4.687-.469-1.547-.234-3-.703-4.454-1.312s-2.859-1.313-4.078-2.156c-1.312-.844-2.53-1.922-3.61-3s-2.155-2.297-3-3.61-1.546-2.625-2.155-4.078-1.078-3-1.313-4.453c-.375-1.547-.469-3.14-.469-4.688 0-6.234 2.532-12.469 6.938-16.922 1.078-1.078 2.297-2.062 3.61-3 1.312-.843 2.624-1.546 4.077-2.156s3-1.078 4.454-1.312c3.14-.61 6.234-.61 9.375 0 1.546.375 3 .703 4.453 1.312s2.859 1.313 4.078 2.156c1.312.844 2.53 1.782 3.61 3 4.452 4.454 6.937 10.547 6.937 16.922 0 1.547-.141 3.141-.47 4.688-.374 1.547-.702 3-1.312 4.453s-1.312 2.86-2.156 4.078c-.844 1.313-1.781 2.531-3 3.61-1.078 1.078-2.297 2.156-3.61 3s-2.624 1.546-4.077 2.156-2.86 1.078-4.453 1.312c-1.547.375-3.141.469-4.688.469M381.61 342c-9.61-9-10.078-24.141-1.078-33.703 9-9.61 24.14-10.078 33.703-1.078 9.61 9 10.219 24.14 1.078 33.703-4.687 5.062-11.062 7.547-17.391 7.547-5.86 0-11.625-2.156-16.312-6.375zM317.06 281.53c-9.61-9-10.078-24.141-1.078-33.703 9-9.61 24.14-10.078 33.703-1.078 9.61 9 10.078 24.14 1.078 33.703-4.687 5.062-11.062 7.547-17.391 7.547-5.766 0-11.625-2.156-16.312-6.469M268.69 227.53c-1.547 0-3.14-.14-4.687-.469-1.547-.375-3-.703-4.454-1.312s-2.859-1.313-4.078-2.156c-1.312-.844-2.53-1.782-3.61-3-1.077-1.079-2.062-2.297-3-3.61-.843-1.312-1.546-2.625-2.155-4.078s-1.078-2.86-1.313-4.453c-.375-1.547-.469-3.14-.469-4.688s.141-3.14.47-4.687c.374-1.547.702-3 1.312-4.453s1.312-2.86 2.156-4.078c.844-1.313 1.922-2.531 3-3.61s2.297-2.062 3.61-3c1.312-.843 2.624-1.547 4.077-2.156s3-1.078 4.454-1.312c3.14-.61 6.234-.61 9.375 0 1.546.234 3 .703 4.453 1.312s2.859 1.313 4.078 2.156c1.312.844 2.53 1.922 3.61 3s2.062 2.297 3 3.61c.843 1.312 1.546 2.625 2.155 4.078s1.078 3 1.313 4.453c.234 1.547.469 3.14.469 4.687 0 6.235-2.532 12.47-6.938 16.922-4.453 4.454-10.547 6.938-16.922 6.938zM310.55 575.53c-13.219 0-23.859-10.781-23.766-24 0-13.219 10.781-23.766 24-23.766s23.766 10.781 23.766 24c0 13.078-10.688 23.766-23.859 23.766zM220.92 575.06c-13.219 0-23.766-10.781-23.766-24s10.781-23.859 24-23.766c13.219 0 23.859 10.781 23.766 24 0 13.078-10.688 23.766-23.859 23.766zM131.53 574.69c-1.547 0-3.14-.14-4.687-.469-1.547-.375-3-.703-4.454-1.312s-2.765-1.313-4.078-2.156-2.53-1.922-3.61-3-2.155-2.297-3-3.61-1.546-2.625-2.155-4.078-1.078-3-1.313-4.453-.469-3.14-.469-4.688c0-6.234 2.532-12.469 6.938-16.922 1.078-1.078 2.297-2.062 3.61-3 1.312-.843 2.624-1.546 4.077-2.156s3-1.078 4.454-1.312c7.78-1.547 15.938.937 21.469 6.469 4.453 4.453 6.937 10.547 6.937 16.922 0 1.546-.14 3.14-.469 4.687-.375 1.547-.703 3-1.312 4.453s-1.313 2.86-2.156 4.078c-.844 1.313-1.782 2.531-3 3.61-4.454 4.453-10.547 6.937-16.922 6.937z"/></svg>