<svg xmlns="http://www.w3.org/2000/svg" width="1600" height="1600" viewBox="0 0 1200 1200"><path d="M390.41 667.86H14.04v510.74h172.44c0-161.61 131.98-294.85 287.7-316.27zM752.8 155.21l.191.035c1.055.192 2.184.602 3.254.742.938.11 1.692-.035 2.63 0 18.66 1.645 75.78.672 103.32-67.586 11.651-28.922 14.46-71.398 14.46-71.398s-20.746 19.441-42.37 18.277c-14.427-.636-32.439-12.098-35.774-14.387-8.207-4.87-17.449-8.16-27.37-9.289-38.712-4.199-73.274 24.684-77.399 64.5-3.941 38.691 22.207 73.082 59.06 79.105z"/><path d="m1044.8 667.86 36.742-301.22c0-8.617 8.016-57.539-28.766-91.105l-139.99-125.98c-9.215-9.816-20.41-14.797-33.602-14.797-13.824 0-26.195 5.953-35.328 15.805l-.11.227c-.046.035-210.79 226.75-210.79 226.75-4.98 5.351-7.296 11.953-8.242 18.695l-383.52-99.758-13.03 50.27 608.96 158.39 13.03-50.27-157.29-40.906 131.36-140.03 132.98 114.62v279.31h-303.73l77.578 193.52c158.69 18.73 281.86 153.43 281.86 317.22h174.12V667.85z"/></svg>