<svg xmlns="http://www.w3.org/2000/svg" width="1600" height="1600" viewBox="0 0 1200 1200"><path d="M1120.4 562.66c61.859-61.824 75.48-154.34 42.215-233.65l-154.39 154.38-123.78-123.78 155.07-155.04c-79.859-34.523-173.55-21.203-235.91 41.207-62.461 62.398-75.816 156.14-41.23 235.93l-124.68 124.68-214.66-215.82 148.23-148.3-152.22-152.26-407.58 407.54 152.2 152.23 140.43-140.41 214.73 215.75-245.04 245.09c-32.832 32.832-32.832 86.027 0 118.82 32.855 32.844 85.992 32.797 118.79 0l244.8-244.77 243.55 244.77c32.844 32.797 86.039 32.844 118.89 0 32.797-32.797 32.797-85.992-.086-118.82l-243.52-244.75 123.73-123.78c80.953 36.973 176.86 24.562 240.46-39.012z"/></svg>