<svg xmlns="http://www.w3.org/2000/svg" width="1600" height="1600" viewBox="0 0 1200 1200"><path d="M984.66 257.59c-.574-1.98-2.437-4.332-8.102-4.332-3.636 0-8.53.973-14.555 2.89-5.003 1.598-106.36 53.892-155.77 111.72-7.378 8.641-14.398 18.228-20.89 28.587 8.136-28.812 21.741-66.121 43.296-98.172 42.562-63.254 118.71-118.29 133.96-128.95 4.247-3.192 7.946-9.29 6.516-13.598-.648-1.907-2.473-4.188-7.621-4.188-2.281 0-5.09.457-8.316 1.356-6.098 1.695-102.89 63.098-148.96 128.14-11.281 15.949-21.383 34.262-30.11 54.648 7.622-29.605 21.864-77.004 41.81-110.26 30.887-51.492 52.262-82.414 52.344-82.535 4.644-5.317 6.601-11.844 4.765-15.887-2.363-5.196-9.672-4.703-18.949 2.183-.277.215-30.793 25.801-63.805 80.855-7.488 12.48-14.566 26.605-21.086 42.047l-1.773-200.42c-.336-14.09-5.7-19.105-10.57-19.105-2.317 0-4.621 1.14-6.493 3.203-3.3 3.649-4.812 9.528-4.164 15.926l-2.543 224.62c-5.964-18.035-12.48-33.527-21.55-51.457-40.095-79.355-119.3-161.32-124.52-164.45-9.794-5.855-15.985-6-17.954-1.21-1.906 4.632 1.391 12.671 4.512 15.792.649.72 72.996 87.574 111.3 163.36 12.758 25.234 23.63 56.051 32.34 91.777a345 345 0 0 0-13.078-24.145c-47.953-80.34-152.77-150.27-153.78-150.88-8.566-5.23-16.715-3.59-18.707 2.832-1.187 3.852.07 9.422 5.543 13.176.91.672 97.31 76.523 141.3 150.19 9.793 16.441 18.73 35.293 26.63 56.172-14.892-19.367-32.462-35.629-52.32-48.422-103.15-66.422-197.24-67.633-201.3-67.656-10.056.395-11.978 4.391-12.216 6.743-.504 4.906 5.594 10.379 13.871 12.457l.672.12c15.07 2.329 94.777 16.837 182.77 73.478 31.668 20.398 56.352 50.914 73.488 90.793-26.902-23.473-52.141-35.363-75.098-35.363-1.379 0-2.762.047-4.176.144-65.363 4.356-75.973 89.316-76.992 99.086-.406 3.828.781 7.922 3.012 10.391 1.285 1.442 2.82 2.207 4.43 2.207 2.257 0 5.496-1.511 8.28-9.277 2.99-11.762 20.063-70.57 63.216-72.59 34.402-1.727 82.117 45.109 98.52 70.512v117.64C725.77 615.976 727.364 596.01 709.259 593c-27.336-4.547-32.34 26.832-54.215 26.832-21.84 0-25.836-12.457-69.227-9.121-51.898 4.02-100.86 44.664-134.4 80.375l295.49 95.293c18.168 5.71 34.477 16.586 47.004 31.344l.984 1.223a106 106 0 0 1 5.375 7.585L969.3 741.2c-11.785-27.527-28.129-55.848-48.266-66.336-27.156-14.125-36.887 7.586-58.754-13.645-16.512-16.043-8.183-36.383-35.52-45.48-26.53-8.832-38.016 10.188-54.047 16.895v-115.99c.492-1.476 17.316-49.008 50.855-72.145 40.777-28.117 91.523-34.043 97.43-34.668 22.02-3.335 24.47-7.632 24.395-10.559-.156-6.324-15.383-9.84-20.914-10.43-.48-.046-3.226-.214-7.703-.214-19.5 0-69.266 3.046-110.2 31.273-.254.168-.504.336-.742.503 7.02-12.254 14.762-23.363 23.113-33.12 42.516-49.755 127.3-102.23 144.29-112.49 6.683-4.196 12.922-11.974 11.422-17.192z"/><path d="M1180.6 754.79c-16.883-34.332-67.008-49.68-101.54-32.531l-266.74 134.68c4.105 16.812 6.422 45.984.91 63.121-16.297 49.246-78.227 75.648-127.27 59.867L505.6 921.439l8.52-31.344 180.28 58.488c36.12 11.461 75.133-8.437 87.19-44.605 3.313-10.969 3.926-22.609 1.739-33.469-1.992-11.746-7.078-22.453-14.207-31.715-8.629-10.152-19.668-17.484-32.184-21.434l-329.21-106.18s-27.145-8.387-53.855-10.246c-28.98-2.027-61.859 13.414-61.859 13.414l-285.3 141.06v304.57l239.32-144.17 374.39 70.887c27.434 6.816 56.711 3.18 79.309-7.262l445.64-223.07c47.449-23.508 52.5-66.828 35.234-101.58z"/></svg>