<svg xmlns="http://www.w3.org/2000/svg" width="1600" height="1600" viewBox="0 0 1200 1200"><path d="M244.09 195.25c0 54.848-44.465 99.309-99.312 99.309-54.852 0-99.312-44.461-99.312-99.309 0-54.852 44.461-99.312 99.312-99.312 54.848 0 99.312 44.461 99.312 99.312M1133.2 79.598l31.992-68.594-64.512 39.625c-1.812 1.129-183.79 112.2-283.74 112.2-39.551 0-63.73-10.668-91.68-23.051-36.324-16.078-77.508-34.309-156.57-34.309-15.742 0-32.723.758-50.473 2.219-145.07 11.94-273.57 154.78-278.97 160.85 0 0-29.375 30.254-37.57 53.172-3.637 10.957-5.484 22.008-5.484 33 0 22.922 7.32 44.46 21.996 64.69l184.22 184.22-160.05 196.44c-.325.395-26.914 28.97-7.946 67.837l136.22 281.51c10.97 22.703 33.648 35.89 57.254 35.89 9.301 0 18.73-2.038 27.648-6.335 31.598-15.312 44.82-53.328 29.52-84.91l-116.33-240.43s209.9-206.43 210.89-207.52l.168.023c21.277-21.098 31.906-45.852 31.906-74.242 0-29.328-10.078-54.086-30.289-74.293l-80.828-79.988c44.293 11.953 90.672 28.234 128.52 50.352 90.145 52.703 166.85 201.43 167.61 202.95l36.47 71.375 6.433-79.895c3.55-44.004 21.289-166.4 60.227-203.63 15.898-15.168 41.016-3.851 66.707 7.97 18.527 8.507 36.023 16.57 53.64 16.57h.024c20.473 0 36.793-11.259 45.961-31.68 17.676-39.446 6.805-77.724-2.82-111.5-6.29-22.165-12.238-43.079-9-60.54 7.79-42.145 59.555-158.63 78.863-199.97zm-113.59 272.94c8.23 28.859 15.984 56.125 5.05 80.484-1.69 3.77-2.964 4.656-4.5 4.813-7.655 0-22.007-6.59-34.655-12.422-20.16-9.278-43.008-19.79-66.852-19.79-19.246 0-36.156 6.805-50.22 20.258-36.382 34.777-55.667 109.8-65.351 165.68-33.312-52.309-88.055-126.01-151.05-162.86-64.766-37.824-149.53-59.82-213.04-72.023l-.672-.66 338.46-1.379c12.816 0 23.867-4.546 33.059-13.703 9.18-9.203 13.715-20.184 13.715-33.047 0-12.816-4.535-23.773-13.715-32.965-9.191-9.144-20.242-13.8-33.06-13.8H311.79c45.759-40.86 126.45-101.24 210.17-108.13 16.5-1.356 32.23-2.063 46.739-2.063 69.445 0 104.4 15.469 138.19 30.434 29.914 13.246 60.887 26.953 110.06 26.953 74.074 0 180.32-49.355 246.65-84.516-21.312 49.152-47.773 114.24-53.965 147.49-5.207 27.906 2.523 55.039 9.973 81.246z"/></svg>