<svg xmlns="http://www.w3.org/2000/svg" width="1600" height="1600" viewBox="0 0 1200 1200"><path d="M955.56 31.223v290.64L615.82 14.533 28.29 546.013v638.83l1149.6-.95.012-1152.7h-222.33zM550 370.773c7.512-37.441 43.656-61.645 80.629-54.238 37.043 7.43 60.961 43.645 53.473 81.098-7.488 37.344-43.559 61.691-80.594 54.289-36.949-7.422-60.984-43.793-53.508-81.148zm-199.89 114.01 97.043 178.45-33.266 18.07-97.043-178.44zm390.42 291.85H388.41v285.27h-72.672v-356.87h424.79zm185.98 229.67c0 15.793-5.496 28.992-16.453 39.66-10.969 10.621-24.023 15.949-39.133 15.949-15.781 0-29.172-5.328-40.141-15.949-10.969-10.668-16.477-23.879-16.477-39.66l.004-325.98-101.28-102.06-27.961 79.824c-4.86 13.824-17.855 22.668-31.934 22.668-2.688 0-127.12.562-127.12.562-17.41-.382-35.074-12.996-35.102-33.422-.035-21.684 20.734-33.422 40.32-33.539l97.223-.3 59.566-169.18c7.402-20.062 30.492-29.22 44.902-29.22 13.754 0 25.414 5.16 35.027 15.423l149.33 148.29c6.168 6.203 9.238 13.727 9.215 22.668z"/></svg>