<svg xmlns="http://www.w3.org/2000/svg" width="1600" height="1600" viewBox="0 0 1200 1200"><path d="M1004.4 209.26H689.38c49.465-20.578 74.316-76.621 55.766-127.48-19.066-52.285-76.777-79.395-129.06-60.336-52.559 19.164-79.285 77.062-60.215 129.35 10.031 27.527 30.828 47.965 55.883 58.453l-241.34-.004a46.64 46.64 0 0 0-34.691 15.457l-147.57 163.97c-17.242 19.164-15.684 48.672 3.469 65.914 8.914 8.027 20.074 11.988 31.21 11.988 12.77 0 25.489-5.219 34.704-15.457l133.66-148.51h65.809l-59.27 159.18c-10.934 27.324-26.41 61.488-10.02 104.75l51.996 147.77-139.98 141.6c-15.215 15.707-21.793 39.07-14.566 61.38 10.129 32.026 44.23 49.487 76.246 39.335 9.996-3.035 18.719-8.676 25.379-15.719l170.81-171.94c9.996-10.703 20.93-29.832 14.832-48.852l-37.367-101.59 186.13 74.461 52.188 223.41c.492 1.344.719 2.809 1.222 4.176 10.141 32.027 44.328 49.754 76.355 39.613 30.035-9.719 47.496-40.43 40.97-71.016l-58.848-255.18c-.395-1.094-.528-2.27-.926-3.36-5.711-17.34-18.145-30.348-33.527-37.066l-158.62-82.633 73.344-208.37h291.01c25.777 0 46.68-20.89 46.68-46.68.004-25.785-20.863-46.617-46.648-46.617z"/><path d="M533.39 978.3c13.391-16.223 33.66-26.578 56.34-26.578 22.766 0 43.094 10.43 56.484 26.773l99.73.168c-19.883-67.488-82.273-116.79-156.2-116.79-73.754 0-136.02 49.031-156.07 116.26zM644.94 1072.4c-13.379 15.492-33.133 25.332-55.211 25.332-22.176 0-42-9.926-55.391-25.523l-100.48-.168c20.281 66.863 82.367 115.55 155.87 115.55 73.285 0 135.27-48.422 155.7-115.01zM953.3 1052.8h-.047l-727.14-1.238c-14.82-.024-26.809-12.06-26.785-26.88.024-14.808 12.035-26.784 26.832-26.784h.047l727.14 1.246c14.82.023 26.809 12.059 26.785 26.879-.023 14.8-12.035 26.777-26.832 26.777z"/></svg>