<svg xmlns="http://www.w3.org/2000/svg" width="1600" height="1600" viewBox="0 0 1200 1200"><path d="M639.56 435.25c-28.703 0-52.043-27.406-52.043-61.105 0-9.613 1.836-18.828 5.484-27.395 1.235-2.902 4.586-4.223 7.454-3.012a5.7 5.7 0 0 1 3.011 7.465c-3.047 7.152-4.598 14.867-4.598 22.945 0 27.434 18.254 49.754 40.68 49.754a33.8 33.8 0 0 0 11.977-2.195c2.954-1.14 6.227.383 7.32 3.3 1.118 2.942-.37 6.227-3.288 7.333a45.2 45.2 0 0 1-15.996 2.91zM830.77 270.19c-28.715 0-52.055-27.422-52.055-61.105 0-9.613 1.836-18.84 5.496-27.395a5.68 5.68 0 0 1 7.453-3.012 5.69 5.69 0 0 1 3.012 7.453c-3.059 7.153-4.598 14.867-4.598 22.957 0 27.434 18.254 49.738 40.691 49.738a33.8 33.8 0 0 0 11.977-2.195c2.942-1.14 6.215.36 7.32 3.3 1.106 2.942-.37 6.228-3.312 7.321a44.5 44.5 0 0 1-15.984 2.938zM451.34 332.54a33.8 33.8 0 0 1-11.988 2.195c-22.43 0-40.68-22.309-40.68-49.738 0-8.074 1.535-15.793 4.598-22.945 1.222-2.879-.121-6.226-3.012-7.465a5.7 5.7 0 0 0-7.465 3.012c-3.637 8.555-5.496 17.785-5.496 27.395 0 33.695 23.34 61.105 52.043 61.105 5.473 0 10.848-.984 16.008-2.93 2.93-1.105 4.414-4.39 3.3-7.332-1.093-2.925-4.378-4.437-7.308-3.296zM623.38 234.66c-52.738 0-95.641-50.387-95.641-112.32S570.637 10.02 623.38 10.02c52.754 0 95.652 50.387 95.652 112.32s-42.898 112.32-95.652 112.32m0-203.75c-41.219 0-74.746 41.004-74.746 91.43s33.527 91.414 74.746 91.414c41.23 0 74.746-41.004 74.746-91.414.004-50.41-33.512-91.43-74.746-91.43"/><path d="M624.6 181.27c-28.703 0-52.055-27.422-52.055-61.105 0-9.613 1.848-18.828 5.496-27.395a5.696 5.696 0 0 1 7.465-3.012 5.7 5.7 0 0 1 3.012 7.465c-3.047 7.152-4.598 14.855-4.598 22.945 0 27.422 18.254 49.738 40.69 49.738a33.8 33.8 0 0 0 11.978-2.195c2.941-1.14 6.227.36 7.32 3.3a5.66 5.66 0 0 1-3.312 7.32 45 45 0 0 1-15.996 2.938zM648.8 1116.4h-20.906V949.25H648.8zM720.74 1200h-20.902V905.71h20.902zM795.09 1071.8h-20.895V847.18h20.895zM342.12 778.81c15.406-32.902 1.043-71.953-31.789-87.336-32.832-15.254-71.879-1.055-87.156 31.848-15.371 32.844-1.164 71.879 31.656 87.18 32.844 15.289 71.977 1.082 87.289-31.691z"/><path d="M945.25 747.55 840 701.339v-378.47c47.844-6.133 85.211-53.832 85.211-111.62 0-61.934-42.91-112.31-95.652-112.31-52.754 0-95.652 50.387-95.652 112.31 0 57.781 37.355 105.49 85.199 111.62v369.3l-62.566-27.492c-27.539-13.031-54.047-7.559-77.039 18.863l-30.695 28.645v-224.24c47.82-6.145 85.188-53.832 85.188-111.61 0-61.945-42.898-112.32-95.652-112.32-52.738 0-95.641 50.375-95.641 112.32 0 57.781 37.367 105.48 85.199 111.61v243.73l-36.289 33.863-143-35.891.004-330.86c47.832-6.144 85.188-53.832 85.188-111.61 0-61.945-42.898-112.32-95.652-112.32-52.738 0-95.641 50.375-95.641 112.32 0 57.781 37.367 105.48 85.21 111.61v327.43c-51.741-1.621-74.101 55.754-49.858 91.355l126.01 204.41a30.18 30.18 0 0 0 25.754 14.438 30.13 30.13 0 0 0 15.84-4.5c14.23-8.762 18.695-27.395 9.926-41.629l-82.707-134.38 111 26.41c25.754 6.168 53.578-.742 72.828-31.391l90.059-115.09s126.59 55.57 168.6 74.93c45.227 20.824 74.723-42.656 30.086-63.215zm-190.44-536.3c0-50.41 33.516-91.414 74.746-91.414 41.219 0 74.746 41.004 74.746 91.414 0 50.426-33.539 91.43-74.746 91.43-41.23.012-74.746-41.004-74.746-91.43M563.59 376.34c0-50.426 33.527-91.43 74.746-91.43 41.23 0 74.746 41.004 74.746 91.43 0 50.41-33.527 91.414-74.746 91.414S563.59 426.75 563.59 376.34m-200.2-89.16c0-50.426 33.527-91.43 74.746-91.43 41.23 0 74.746 41.004 74.746 91.43 0 50.41-33.516 91.414-74.746 91.414-41.203.004-74.746-41-74.746-91.414"/></svg>