<svg xmlns="http://www.w3.org/2000/svg" width="1600" height="1600" viewBox="0 0 1200 1200"><path d="M598.67 18.086c-323.3 0-586.32 262.99-586.32 586.25s263.02 586.25 586.32 586.25c323.26 0 586.25-262.99 586.25-586.25 0-323.27-262.99-586.25-586.25-586.25m0 1105.3c-33.168 0-65.496-3.422-96.949-9.406-.254-110.81-90.133-200.58-201.05-200.58-35.641 0-68.664 9.887-97.609 26.219-76.859-90.543-123.5-207.49-123.5-335.26 0-104.55 31.367-201.83 84.77-283.4 13.309 16.922 30.996 32.328 49.824 28.094 38.652-8.746 64.441-117.94 98.82-109.19 34.355 8.723 73.031 74.258 137.47 48.035 64.43-26.184 38.281-119.5 64.43-161.59 10.152-16.297 25.523-28.98 42.145-38.88 13.789-1.105 27.59-2.1 41.629-2.1 66.816 0 130.52 13.128 189.25 36.226 14.555 20.04 20.699 46.56 7.727 81.422-36.852 99-97.5-15.625-171.24 49.5-66.72 58.922-18.434 166.78-18.434 166.78s-91.094-26.773-176.04-4.379c-100.51 26.484-205.48 193.33-133.39 302.5 92.426 140 227.83-1.32 322.04 67.234 89.594 65.125 46.68 53.22 107.82 149.75 79.8 126.02 315.88-113.43 197.43-285.65-69.516-100.99-172.97-67.895-146.59-146.04 28.309-84.109 134 32.664 214.7-34.559 39.012-32.508 46.668-94.402 46.777-137.62 49.715 79.621 78.949 173.29 78.949 273.88.039 286.2-232.8 519.02-518.98 519.02z"/></svg>